<?xml version="1.0" encoding="utf-8" standalone="no"?>
<!DOCTYPE svg PUBLIC "-//W3C//DTD SVG 1.1//EN"
  "http://www.w3.org/Graphics/SVG/1.1/DTD/svg11.dtd">
<svg xmlns:xlink="http://www.w3.org/1999/xlink" width="617.612415pt" height="341.237813pt" viewBox="0 0 617.612415 341.237813" xmlns="http://www.w3.org/2000/svg" version="1.1">
 <metadata>
  <rdf:RDF xmlns:dc="http://purl.org/dc/elements/1.1/" xmlns:cc="http://creativecommons.org/ns#" xmlns:rdf="http://www.w3.org/1999/02/22-rdf-syntax-ns#">
   <cc:Work>
    <dc:type rdf:resource="http://purl.org/dc/dcmitype/StillImage"/>
    <dc:date>2026-06-17T16:43:54.303482</dc:date>
    <dc:format>image/svg+xml</dc:format>
    <dc:creator>
     <cc:Agent>
      <dc:title>Matplotlib v3.11.0, https://matplotlib.org/</dc:title>
     </cc:Agent>
    </dc:creator>
   </cc:Work>
  </rdf:RDF>
 </metadata>
 <defs>
  <style type="text/css">*{stroke-linejoin: round; stroke-linecap: butt}</style>
 </defs>
 <g id="figure_1">
  <g id="patch_1">
   <path d="M 0 341.237813 
L 617.612415 341.237813 
L 617.612415 0 
L 0 0 
z
" style="fill: #ffffff"/>
  </g>
  <g id="axes_1">
   <g id="patch_2">
    <path d="M 46.104063 301.037813 
L 548.304063 301.037813 
L 548.304063 23.837813 
L 46.104063 23.837813 
z
" style="fill: #ffffff"/>
   </g>
   <g id="matplotlib.axis_1">
    <g id="xtick_1">
     <g id="line2d_1">
      <path d="M 65.094819 301.037813 
L 65.094819 23.837813 
" clip-path="url(#pceddaffd3f)" style="fill: none; stroke: #b0b0b0; stroke-opacity: 0.2; stroke-width: 0.8; stroke-linecap: square"/>
     </g>
     <g id="line2d_2">
      <defs>
       <path id="m6a17c47dec" d="M 0 0 
L 0 3.5 
" style="stroke: #000000; stroke-width: 0.8"/>
      </defs>
      <g>
       <use xlink:href="#m6a17c47dec" x="65.094819" y="301.037813" style="stroke: #000000; stroke-width: 0.8"/>
      </g>
     </g>
     <g id="text_1">
      <!-- 0 -->
      <g transform="translate(61.913569 315.635469) scale(0.1 -0.1)">
       <defs>
        <path id="DejaVuSans-13" d="M 2034 4250 
Q 1547 4250 1301 3770 
Q 1056 3291 1056 2328 
Q 1056 1369 1301 889 
Q 1547 409 2034 409 
Q 2525 409 2770 889 
Q 3016 1369 3016 2328 
Q 3016 3291 2770 3770 
Q 2525 4250 2034 4250 
z
M 2034 4750 
Q 2819 4750 3233 4129 
Q 3647 3509 3647 2328 
Q 3647 1150 3233 529 
Q 2819 -91 2034 -91 
Q 1250 -91 836 529 
Q 422 1150 422 2328 
Q 422 3509 836 4129 
Q 1250 4750 2034 4750 
z
" transform="scale(0.015625)"/>
       </defs>
       <use xlink:href="#DejaVuSans-13"/>
      </g>
     </g>
    </g>
    <g id="xtick_2">
     <g id="line2d_3">
      <path d="M 141.825147 301.037813 
L 141.825147 23.837813 
" clip-path="url(#pceddaffd3f)" style="fill: none; stroke: #b0b0b0; stroke-opacity: 0.2; stroke-width: 0.8; stroke-linecap: square"/>
     </g>
     <g id="line2d_4">
      <g>
       <use xlink:href="#m6a17c47dec" x="141.825147" y="301.037813" style="stroke: #000000; stroke-width: 0.8"/>
      </g>
     </g>
     <g id="text_2">
      <!-- 5 -->
      <g transform="translate(138.643897 315.635469) scale(0.1 -0.1)">
       <defs>
        <path id="DejaVuSans-18" d="M 691 4666 
L 3169 4666 
L 3169 4134 
L 1269 4134 
L 1269 2991 
Q 1406 3038 1543 3061 
Q 1681 3084 1819 3084 
Q 2600 3084 3056 2656 
Q 3513 2228 3513 1497 
Q 3513 744 3044 326 
Q 2575 -91 1722 -91 
Q 1428 -91 1123 -41 
Q 819 9 494 109 
L 494 744 
Q 775 591 1075 516 
Q 1375 441 1709 441 
Q 2250 441 2565 725 
Q 2881 1009 2881 1497 
Q 2881 1984 2565 2268 
Q 2250 2553 1709 2553 
Q 1456 2553 1204 2497 
Q 953 2441 691 2322 
L 691 4666 
z
" transform="scale(0.015625)"/>
       </defs>
       <use xlink:href="#DejaVuSans-18"/>
      </g>
     </g>
    </g>
    <g id="xtick_3">
     <g id="line2d_5">
      <path d="M 218.555476 301.037813 
L 218.555476 23.837813 
" clip-path="url(#pceddaffd3f)" style="fill: none; stroke: #b0b0b0; stroke-opacity: 0.2; stroke-width: 0.8; stroke-linecap: square"/>
     </g>
     <g id="line2d_6">
      <g>
       <use xlink:href="#m6a17c47dec" x="218.555476" y="301.037813" style="stroke: #000000; stroke-width: 0.8"/>
      </g>
     </g>
     <g id="text_3">
      <!-- 10 -->
      <g transform="translate(212.192976 315.635469) scale(0.1 -0.1)">
       <defs>
        <path id="DejaVuSans-14" d="M 794 531 
L 1825 531 
L 1825 4091 
L 703 3866 
L 703 4441 
L 1819 4666 
L 2450 4666 
L 2450 531 
L 3481 531 
L 3481 0 
L 794 0 
L 794 531 
z
" transform="scale(0.015625)"/>
       </defs>
       <use xlink:href="#DejaVuSans-14"/>
       <use xlink:href="#DejaVuSans-13" transform="translate(63.625 0)"/>
      </g>
     </g>
    </g>
    <g id="xtick_4">
     <g id="line2d_7">
      <path d="M 295.285804 301.037813 
L 295.285804 23.837813 
" clip-path="url(#pceddaffd3f)" style="fill: none; stroke: #b0b0b0; stroke-opacity: 0.2; stroke-width: 0.8; stroke-linecap: square"/>
     </g>
     <g id="line2d_8">
      <g>
       <use xlink:href="#m6a17c47dec" x="295.285804" y="301.037813" style="stroke: #000000; stroke-width: 0.8"/>
      </g>
     </g>
     <g id="text_4">
      <!-- 15 -->
      <g transform="translate(288.923304 315.635469) scale(0.1 -0.1)">
       <use xlink:href="#DejaVuSans-14"/>
       <use xlink:href="#DejaVuSans-18" transform="translate(63.625 0)"/>
      </g>
     </g>
    </g>
    <g id="xtick_5">
     <g id="line2d_9">
      <path d="M 372.016133 301.037813 
L 372.016133 23.837813 
" clip-path="url(#pceddaffd3f)" style="fill: none; stroke: #b0b0b0; stroke-opacity: 0.2; stroke-width: 0.8; stroke-linecap: square"/>
     </g>
     <g id="line2d_10">
      <g>
       <use xlink:href="#m6a17c47dec" x="372.016133" y="301.037813" style="stroke: #000000; stroke-width: 0.8"/>
      </g>
     </g>
     <g id="text_5">
      <!-- 20 -->
      <g transform="translate(365.653633 315.635469) scale(0.1 -0.1)">
       <defs>
        <path id="DejaVuSans-15" d="M 1228 531 
L 3431 531 
L 3431 0 
L 469 0 
L 469 531 
Q 828 903 1448 1529 
Q 2069 2156 2228 2338 
Q 2531 2678 2651 2914 
Q 2772 3150 2772 3378 
Q 2772 3750 2511 3984 
Q 2250 4219 1831 4219 
Q 1534 4219 1204 4116 
Q 875 4013 500 3803 
L 500 4441 
Q 881 4594 1212 4672 
Q 1544 4750 1819 4750 
Q 2544 4750 2975 4387 
Q 3406 4025 3406 3419 
Q 3406 3131 3298 2873 
Q 3191 2616 2906 2266 
Q 2828 2175 2409 1742 
Q 1991 1309 1228 531 
z
" transform="scale(0.015625)"/>
       </defs>
       <use xlink:href="#DejaVuSans-15"/>
       <use xlink:href="#DejaVuSans-13" transform="translate(63.625 0)"/>
      </g>
     </g>
    </g>
    <g id="xtick_6">
     <g id="line2d_11">
      <path d="M 448.746461 301.037813 
L 448.746461 23.837813 
" clip-path="url(#pceddaffd3f)" style="fill: none; stroke: #b0b0b0; stroke-opacity: 0.2; stroke-width: 0.8; stroke-linecap: square"/>
     </g>
     <g id="line2d_12">
      <g>
       <use xlink:href="#m6a17c47dec" x="448.746461" y="301.037813" style="stroke: #000000; stroke-width: 0.8"/>
      </g>
     </g>
     <g id="text_6">
      <!-- 25 -->
      <g transform="translate(442.383961 315.635469) scale(0.1 -0.1)">
       <use xlink:href="#DejaVuSans-15"/>
       <use xlink:href="#DejaVuSans-18" transform="translate(63.625 0)"/>
      </g>
     </g>
    </g>
    <g id="xtick_7">
     <g id="line2d_13">
      <path d="M 525.47679 301.037813 
L 525.47679 23.837813 
" clip-path="url(#pceddaffd3f)" style="fill: none; stroke: #b0b0b0; stroke-opacity: 0.2; stroke-width: 0.8; stroke-linecap: square"/>
     </g>
     <g id="line2d_14">
      <g>
       <use xlink:href="#m6a17c47dec" x="525.47679" y="301.037813" style="stroke: #000000; stroke-width: 0.8"/>
      </g>
     </g>
     <g id="text_7">
      <!-- 30 -->
      <g transform="translate(519.11429 315.635469) scale(0.1 -0.1)">
       <defs>
        <path id="DejaVuSans-16" d="M 2597 2516 
Q 3050 2419 3304 2112 
Q 3559 1806 3559 1356 
Q 3559 666 3084 287 
Q 2609 -91 1734 -91 
Q 1441 -91 1130 -33 
Q 819 25 488 141 
L 488 750 
Q 750 597 1062 519 
Q 1375 441 1716 441 
Q 2309 441 2620 675 
Q 2931 909 2931 1356 
Q 2931 1769 2642 2001 
Q 2353 2234 1838 2234 
L 1294 2234 
L 1294 2753 
L 1863 2753 
Q 2328 2753 2575 2939 
Q 2822 3125 2822 3475 
Q 2822 3834 2567 4026 
Q 2313 4219 1838 4219 
Q 1578 4219 1281 4162 
Q 984 4106 628 3988 
L 628 4550 
Q 988 4650 1302 4700 
Q 1616 4750 1894 4750 
Q 2613 4750 3031 4423 
Q 3450 4097 3450 3541 
Q 3450 3153 3228 2886 
Q 3006 2619 2597 2516 
z
" transform="scale(0.015625)"/>
       </defs>
       <use xlink:href="#DejaVuSans-16"/>
       <use xlink:href="#DejaVuSans-13" transform="translate(63.625 0)"/>
      </g>
     </g>
    </g>
    <g id="text_8">
     <!-- Tenor (years) -->
     <g transform="translate(257.825313 331.155) scale(0.12 -0.12)">
      <defs>
       <path id="DejaVuSans-37" d="M -19 4666 
L 3928 4666 
L 3928 4134 
L 2272 4134 
L 2272 0 
L 1638 0 
L 1638 4134 
L -19 4134 
L -19 4666 
z
" transform="scale(0.015625)"/>
       <path id="DejaVuSans-48" d="M 3597 1894 
L 3597 1613 
L 953 1613 
Q 991 1019 1311 708 
Q 1631 397 2203 397 
Q 2534 397 2845 478 
Q 3156 559 3463 722 
L 3463 178 
Q 3153 47 2828 -22 
Q 2503 -91 2169 -91 
Q 1331 -91 842 396 
Q 353 884 353 1716 
Q 353 2575 817 3079 
Q 1281 3584 2069 3584 
Q 2775 3584 3186 3129 
Q 3597 2675 3597 1894 
z
M 3022 2063 
Q 3016 2534 2758 2815 
Q 2500 3097 2075 3097 
Q 1594 3097 1305 2825 
Q 1016 2553 972 2059 
L 3022 2063 
z
" transform="scale(0.015625)"/>
       <path id="DejaVuSans-51" d="M 3513 2113 
L 3513 0 
L 2938 0 
L 2938 2094 
Q 2938 2591 2744 2837 
Q 2550 3084 2163 3084 
Q 1697 3084 1428 2787 
Q 1159 2491 1159 1978 
L 1159 0 
L 581 0 
L 581 3500 
L 1159 3500 
L 1159 2956 
Q 1366 3272 1645 3428 
Q 1925 3584 2291 3584 
Q 2894 3584 3203 3211 
Q 3513 2838 3513 2113 
z
" transform="scale(0.015625)"/>
       <path id="DejaVuSans-52" d="M 1959 3097 
Q 1497 3097 1228 2736 
Q 959 2375 959 1747 
Q 959 1119 1226 758 
Q 1494 397 1959 397 
Q 2419 397 2687 759 
Q 2956 1122 2956 1747 
Q 2956 2369 2687 2733 
Q 2419 3097 1959 3097 
z
M 1959 3584 
Q 2709 3584 3137 3096 
Q 3566 2609 3566 1747 
Q 3566 888 3137 398 
Q 2709 -91 1959 -91 
Q 1206 -91 779 398 
Q 353 888 353 1747 
Q 353 2609 779 3096 
Q 1206 3584 1959 3584 
z
" transform="scale(0.015625)"/>
       <path id="DejaVuSans-55" d="M 2631 2963 
Q 2534 3019 2420 3045 
Q 2306 3072 2169 3072 
Q 1681 3072 1420 2755 
Q 1159 2438 1159 1844 
L 1159 0 
L 581 0 
L 581 3500 
L 1159 3500 
L 1159 2956 
Q 1341 3275 1631 3429 
Q 1922 3584 2338 3584 
Q 2397 3584 2469 3576 
Q 2541 3569 2628 3553 
L 2631 2963 
z
" transform="scale(0.015625)"/>
       <path id="DejaVuSans-3" transform="scale(0.015625)"/>
       <path id="DejaVuSans-b" d="M 1984 4856 
Q 1566 4138 1362 3434 
Q 1159 2731 1159 2009 
Q 1159 1288 1364 580 
Q 1569 -128 1984 -844 
L 1484 -844 
Q 1016 -109 783 600 
Q 550 1309 550 2009 
Q 550 2706 781 3412 
Q 1013 4119 1484 4856 
L 1984 4856 
z
" transform="scale(0.015625)"/>
       <path id="DejaVuSans-5c" d="M 2059 -325 
Q 1816 -950 1584 -1140 
Q 1353 -1331 966 -1331 
L 506 -1331 
L 506 -850 
L 844 -850 
Q 1081 -850 1212 -737 
Q 1344 -625 1503 -206 
L 1606 56 
L 191 3500 
L 800 3500 
L 1894 763 
L 2988 3500 
L 3597 3500 
L 2059 -325 
z
" transform="scale(0.015625)"/>
       <path id="DejaVuSans-44" d="M 2194 1759 
Q 1497 1759 1228 1600 
Q 959 1441 959 1056 
Q 959 750 1161 570 
Q 1363 391 1709 391 
Q 2188 391 2477 730 
Q 2766 1069 2766 1631 
L 2766 1759 
L 2194 1759 
z
M 3341 1997 
L 3341 0 
L 2766 0 
L 2766 531 
Q 2569 213 2275 61 
Q 1981 -91 1556 -91 
Q 1019 -91 701 211 
Q 384 513 384 1019 
Q 384 1609 779 1909 
Q 1175 2209 1959 2209 
L 2766 2209 
L 2766 2266 
Q 2766 2663 2505 2880 
Q 2244 3097 1772 3097 
Q 1472 3097 1187 3025 
Q 903 2953 641 2809 
L 641 3341 
Q 956 3463 1253 3523 
Q 1550 3584 1831 3584 
Q 2591 3584 2966 3190 
Q 3341 2797 3341 1997 
z
" transform="scale(0.015625)"/>
       <path id="DejaVuSans-56" d="M 2834 3397 
L 2834 2853 
Q 2591 2978 2328 3040 
Q 2066 3103 1784 3103 
Q 1356 3103 1142 2972 
Q 928 2841 928 2578 
Q 928 2378 1081 2264 
Q 1234 2150 1697 2047 
L 1894 2003 
Q 2506 1872 2764 1633 
Q 3022 1394 3022 966 
Q 3022 478 2636 193 
Q 2250 -91 1575 -91 
Q 1294 -91 989 -36 
Q 684 19 347 128 
L 347 722 
Q 666 556 975 473 
Q 1284 391 1588 391 
Q 1994 391 2212 530 
Q 2431 669 2431 922 
Q 2431 1156 2273 1281 
Q 2116 1406 1581 1522 
L 1381 1569 
Q 847 1681 609 1914 
Q 372 2147 372 2553 
Q 372 3047 722 3315 
Q 1072 3584 1716 3584 
Q 2034 3584 2315 3537 
Q 2597 3491 2834 3397 
z
" transform="scale(0.015625)"/>
       <path id="DejaVuSans-c" d="M 513 4856 
L 1013 4856 
Q 1481 4119 1714 3412 
Q 1947 2706 1947 2009 
Q 1947 1309 1714 600 
Q 1481 -109 1013 -844 
L 513 -844 
Q 928 -128 1133 580 
Q 1338 1288 1338 2009 
Q 1338 2731 1133 3434 
Q 928 4138 513 4856 
z
" transform="scale(0.015625)"/>
      </defs>
      <use xlink:href="#DejaVuSans-37"/>
      <use xlink:href="#DejaVuSans-48" transform="translate(44.09375 0)"/>
      <use xlink:href="#DejaVuSans-51" transform="translate(105.625 0)"/>
      <use xlink:href="#DejaVuSans-52" transform="translate(169 0)"/>
      <use xlink:href="#DejaVuSans-55" transform="translate(230.1875 0)"/>
      <use xlink:href="#DejaVuSans-3" transform="translate(271.296875 0)"/>
      <use xlink:href="#DejaVuSans-b" transform="translate(303.078125 0)"/>
      <use xlink:href="#DejaVuSans-5c" transform="translate(342.09375 0)"/>
      <use xlink:href="#DejaVuSans-48" transform="translate(401.28125 0)"/>
      <use xlink:href="#DejaVuSans-44" transform="translate(462.8125 0)"/>
      <use xlink:href="#DejaVuSans-55" transform="translate(524.09375 0)"/>
      <use xlink:href="#DejaVuSans-56" transform="translate(565.203125 0)"/>
      <use xlink:href="#DejaVuSans-c" transform="translate(617.296875 0)"/>
     </g>
    </g>
   </g>
   <g id="matplotlib.axis_2">
    <g id="ytick_1">
     <g id="line2d_15">
      <path d="M 46.104063 269.123944 
L 548.304063 269.123944 
" clip-path="url(#pceddaffd3f)" style="fill: none; stroke: #b0b0b0; stroke-opacity: 0.2; stroke-width: 0.8; stroke-linecap: square"/>
     </g>
     <g id="line2d_16">
      <defs>
       <path id="m5d3fff798c" d="M 0 0 
L -3.5 0 
" style="stroke: #000000; stroke-width: 0.8"/>
      </defs>
      <g>
       <use xlink:href="#m5d3fff798c" x="46.104063" y="269.123944" style="stroke: #000000; stroke-width: 0.8"/>
      </g>
     </g>
     <g id="text_9">
      <!-- 2.5 -->
      <g transform="translate(23.200938 272.922772) scale(0.1 -0.1)">
       <defs>
        <path id="DejaVuSans-11" d="M 684 794 
L 1344 794 
L 1344 0 
L 684 0 
L 684 794 
z
" transform="scale(0.015625)"/>
       </defs>
       <use xlink:href="#DejaVuSans-15"/>
       <use xlink:href="#DejaVuSans-11" transform="translate(63.625 0)"/>
       <use xlink:href="#DejaVuSans-18" transform="translate(95.40625 0)"/>
      </g>
     </g>
    </g>
    <g id="ytick_2">
     <g id="line2d_17">
      <path d="M 46.104063 223.138542 
L 548.304063 223.138542 
" clip-path="url(#pceddaffd3f)" style="fill: none; stroke: #b0b0b0; stroke-opacity: 0.2; stroke-width: 0.8; stroke-linecap: square"/>
     </g>
     <g id="line2d_18">
      <g>
       <use xlink:href="#m5d3fff798c" x="46.104063" y="223.138542" style="stroke: #000000; stroke-width: 0.8"/>
      </g>
     </g>
     <g id="text_10">
      <!-- 3.0 -->
      <g transform="translate(23.200938 226.937371) scale(0.1 -0.1)">
       <use xlink:href="#DejaVuSans-16"/>
       <use xlink:href="#DejaVuSans-11" transform="translate(63.625 0)"/>
       <use xlink:href="#DejaVuSans-13" transform="translate(95.40625 0)"/>
      </g>
     </g>
    </g>
    <g id="ytick_3">
     <g id="line2d_19">
      <path d="M 46.104063 177.153141 
L 548.304063 177.153141 
" clip-path="url(#pceddaffd3f)" style="fill: none; stroke: #b0b0b0; stroke-opacity: 0.2; stroke-width: 0.8; stroke-linecap: square"/>
     </g>
     <g id="line2d_20">
      <g>
       <use xlink:href="#m5d3fff798c" x="46.104063" y="177.153141" style="stroke: #000000; stroke-width: 0.8"/>
      </g>
     </g>
     <g id="text_11">
      <!-- 3.5 -->
      <g transform="translate(23.200938 180.951969) scale(0.1 -0.1)">
       <use xlink:href="#DejaVuSans-16"/>
       <use xlink:href="#DejaVuSans-11" transform="translate(63.625 0)"/>
       <use xlink:href="#DejaVuSans-18" transform="translate(95.40625 0)"/>
      </g>
     </g>
    </g>
    <g id="ytick_4">
     <g id="line2d_21">
      <path d="M 46.104063 131.16774 
L 548.304063 131.16774 
" clip-path="url(#pceddaffd3f)" style="fill: none; stroke: #b0b0b0; stroke-opacity: 0.2; stroke-width: 0.8; stroke-linecap: square"/>
     </g>
     <g id="line2d_22">
      <g>
       <use xlink:href="#m5d3fff798c" x="46.104063" y="131.16774" style="stroke: #000000; stroke-width: 0.8"/>
      </g>
     </g>
     <g id="text_12">
      <!-- 4.0 -->
      <g transform="translate(23.200938 134.966568) scale(0.1 -0.1)">
       <defs>
        <path id="DejaVuSans-17" d="M 2419 4116 
L 825 1625 
L 2419 1625 
L 2419 4116 
z
M 2253 4666 
L 3047 4666 
L 3047 1625 
L 3713 1625 
L 3713 1100 
L 3047 1100 
L 3047 0 
L 2419 0 
L 2419 1100 
L 313 1100 
L 313 1709 
L 2253 4666 
z
" transform="scale(0.015625)"/>
       </defs>
       <use xlink:href="#DejaVuSans-17"/>
       <use xlink:href="#DejaVuSans-11" transform="translate(63.625 0)"/>
       <use xlink:href="#DejaVuSans-13" transform="translate(95.40625 0)"/>
      </g>
     </g>
    </g>
    <g id="ytick_5">
     <g id="line2d_23">
      <path d="M 46.104063 85.182338 
L 548.304063 85.182338 
" clip-path="url(#pceddaffd3f)" style="fill: none; stroke: #b0b0b0; stroke-opacity: 0.2; stroke-width: 0.8; stroke-linecap: square"/>
     </g>
     <g id="line2d_24">
      <g>
       <use xlink:href="#m5d3fff798c" x="46.104063" y="85.182338" style="stroke: #000000; stroke-width: 0.8"/>
      </g>
     </g>
     <g id="text_13">
      <!-- 4.5 -->
      <g transform="translate(23.200938 88.981166) scale(0.1 -0.1)">
       <use xlink:href="#DejaVuSans-17"/>
       <use xlink:href="#DejaVuSans-11" transform="translate(63.625 0)"/>
       <use xlink:href="#DejaVuSans-18" transform="translate(95.40625 0)"/>
      </g>
     </g>
    </g>
    <g id="ytick_6">
     <g id="line2d_25">
      <path d="M 46.104063 39.196937 
L 548.304063 39.196937 
" clip-path="url(#pceddaffd3f)" style="fill: none; stroke: #b0b0b0; stroke-opacity: 0.2; stroke-width: 0.8; stroke-linecap: square"/>
     </g>
     <g id="line2d_26">
      <g>
       <use xlink:href="#m5d3fff798c" x="46.104063" y="39.196937" style="stroke: #000000; stroke-width: 0.8"/>
      </g>
     </g>
     <g id="text_14">
      <!-- 5.0 -->
      <g transform="translate(23.200938 42.995765) scale(0.1 -0.1)">
       <use xlink:href="#DejaVuSans-18"/>
       <use xlink:href="#DejaVuSans-11" transform="translate(63.625 0)"/>
       <use xlink:href="#DejaVuSans-13" transform="translate(95.40625 0)"/>
      </g>
     </g>
    </g>
    <g id="text_15">
     <!-- Yield (%) -->
     <g transform="translate(16.318125 189.013125) rotate(-90) scale(0.12 -0.12)">
      <defs>
       <path id="DejaVuSans-3c" d="M -13 4666 
L 666 4666 
L 1959 2747 
L 3244 4666 
L 3922 4666 
L 2272 2222 
L 2272 0 
L 1638 0 
L 1638 2222 
L -13 4666 
z
" transform="scale(0.015625)"/>
       <path id="DejaVuSans-4c" d="M 603 3500 
L 1178 3500 
L 1178 0 
L 603 0 
L 603 3500 
z
M 603 4863 
L 1178 4863 
L 1178 4134 
L 603 4134 
L 603 4863 
z
" transform="scale(0.015625)"/>
       <path id="DejaVuSans-4f" d="M 603 4863 
L 1178 4863 
L 1178 0 
L 603 0 
L 603 4863 
z
" transform="scale(0.015625)"/>
       <path id="DejaVuSans-47" d="M 2906 2969 
L 2906 4863 
L 3481 4863 
L 3481 0 
L 2906 0 
L 2906 525 
Q 2725 213 2448 61 
Q 2172 -91 1784 -91 
Q 1150 -91 751 415 
Q 353 922 353 1747 
Q 353 2572 751 3078 
Q 1150 3584 1784 3584 
Q 2172 3584 2448 3432 
Q 2725 3281 2906 2969 
z
M 947 1747 
Q 947 1113 1208 752 
Q 1469 391 1925 391 
Q 2381 391 2643 752 
Q 2906 1113 2906 1747 
Q 2906 2381 2643 2742 
Q 2381 3103 1925 3103 
Q 1469 3103 1208 2742 
Q 947 2381 947 1747 
z
" transform="scale(0.015625)"/>
       <path id="DejaVuSans-8" d="M 4653 2053 
Q 4381 2053 4226 1822 
Q 4072 1591 4072 1178 
Q 4072 772 4226 539 
Q 4381 306 4653 306 
Q 4919 306 5073 539 
Q 5228 772 5228 1178 
Q 5228 1588 5073 1820 
Q 4919 2053 4653 2053 
z
M 4653 2450 
Q 5147 2450 5437 2106 
Q 5728 1763 5728 1178 
Q 5728 594 5436 251 
Q 5144 -91 4653 -91 
Q 4153 -91 3862 251 
Q 3572 594 3572 1178 
Q 3572 1766 3864 2108 
Q 4156 2450 4653 2450 
z
M 1428 4353 
Q 1159 4353 1004 4120 
Q 850 3888 850 3481 
Q 850 3069 1003 2837 
Q 1156 2606 1428 2606 
Q 1700 2606 1854 2837 
Q 2009 3069 2009 3481 
Q 2009 3884 1853 4118 
Q 1697 4353 1428 4353 
z
M 4250 4750 
L 4750 4750 
L 1831 -91 
L 1331 -91 
L 4250 4750 
z
M 1428 4750 
Q 1922 4750 2215 4408 
Q 2509 4066 2509 3481 
Q 2509 2891 2217 2550 
Q 1925 2209 1428 2209 
Q 931 2209 642 2551 
Q 353 2894 353 3481 
Q 353 4063 643 4406 
Q 934 4750 1428 4750 
z
" transform="scale(0.015625)"/>
      </defs>
      <use xlink:href="#DejaVuSans-3c"/>
      <use xlink:href="#DejaVuSans-4c" transform="translate(57.515625 0)"/>
      <use xlink:href="#DejaVuSans-48" transform="translate(85.296875 0)"/>
      <use xlink:href="#DejaVuSans-4f" transform="translate(146.828125 0)"/>
      <use xlink:href="#DejaVuSans-47" transform="translate(174.609375 0)"/>
      <use xlink:href="#DejaVuSans-3" transform="translate(238.09375 0)"/>
      <use xlink:href="#DejaVuSans-b" transform="translate(269.875 0)"/>
      <use xlink:href="#DejaVuSans-8" transform="translate(308.890625 0)"/>
      <use xlink:href="#DejaVuSans-c" transform="translate(403.90625 0)"/>
     </g>
    </g>
   </g>
   <g id="line2d_27">
    <path d="M 68.931335 150.481608 
L 95.78695 124.729783 
L 141.825147 114.612995 
L 218.555476 87.941462 
L 525.47679 41.956061 
" clip-path="url(#pceddaffd3f)" style="fill: none; stroke: #1f77b4; stroke-width: 2.5; stroke-linecap: square"/>
   </g>
   <g id="line2d_28">
    <path d="M 68.931335 160.598396 
L 95.78695 130.248031 
L 141.825147 113.693287 
L 218.555476 85.182338 
L 525.47679 36.437813 
" clip-path="url(#pceddaffd3f)" style="fill: none; stroke: #1f77b4; stroke-opacity: 0.35; stroke-width: 1.5; stroke-linecap: square"/>
   </g>
   <g id="line2d_29">
    <path d="M 68.931335 157.839272 
L 95.78695 153.240732 
L 141.825147 143.123944 
L 218.555476 107.255331 
L 525.47679 51.153141 
" clip-path="url(#pceddaffd3f)" style="fill: none; stroke: #1f77b4; stroke-opacity: 0.35; stroke-width: 1.5; stroke-linecap: square"/>
   </g>
   <g id="line2d_30">
    <path d="M 68.931335 130.248031 
L 95.78695 170.715185 
L 141.825147 157.839272 
L 218.555476 118.291827 
L 525.47679 64.029053 
" clip-path="url(#pceddaffd3f)" style="fill: none; stroke: #1f77b4; stroke-opacity: 0.35; stroke-width: 1.5; stroke-linecap: square"/>
   </g>
   <g id="line2d_31">
    <path d="M 68.931335 288.437813 
L 95.78695 246.131243 
L 141.825147 220.379418 
L 218.555476 188.189637 
L 525.47679 148.642192 
" clip-path="url(#pceddaffd3f)" style="fill: none; stroke: #d62728; stroke-width: 2.5; stroke-linecap: square"/>
   </g>
   <g id="line2d_32">
    <path d="M 68.931335 285.678688 
L 95.78695 237.853871 
L 141.825147 212.102046 
L 218.555476 179.912265 
L 525.47679 145.883068 
" clip-path="url(#pceddaffd3f)" style="fill: none; stroke: #d62728; stroke-opacity: 0.35; stroke-width: 1.5; stroke-linecap: square"/>
   </g>
   <g id="line2d_33">
    <path d="M 68.931335 285.678688 
L 95.78695 245.211535 
L 141.825147 219.45971 
L 218.555476 183.591097 
L 525.47679 143.123944 
" clip-path="url(#pceddaffd3f)" style="fill: none; stroke: #d62728; stroke-opacity: 0.35; stroke-width: 1.5; stroke-linecap: square"/>
   </g>
   <g id="line2d_34">
    <path d="M 68.931335 279.240732 
L 95.78695 273.722484 
L 141.825147 247.970659 
L 218.555476 205.66409 
L 525.47679 158.75898 
" clip-path="url(#pceddaffd3f)" style="fill: none; stroke: #d62728; stroke-opacity: 0.35; stroke-width: 1.5; stroke-linecap: square"/>
   </g>
   <g id="patch_3">
    <path d="M 46.104063 301.037813 
L 46.104063 23.837813 
" style="fill: none; stroke: #000000; stroke-width: 0.8; stroke-linejoin: miter; stroke-linecap: square"/>
   </g>
   <g id="patch_4">
    <path d="M 548.304063 301.037813 
L 548.304063 23.837813 
" style="fill: none; stroke: #000000; stroke-width: 0.8; stroke-linejoin: miter; stroke-linecap: square"/>
   </g>
   <g id="patch_5">
    <path d="M 46.104063 301.037813 
L 548.304063 301.037813 
" style="fill: none; stroke: #000000; stroke-width: 0.8; stroke-linejoin: miter; stroke-linecap: square"/>
   </g>
   <g id="patch_6">
    <path d="M 46.104063 23.837813 
L 548.304063 23.837813 
" style="fill: none; stroke: #000000; stroke-width: 0.8; stroke-linejoin: miter; stroke-linecap: square"/>
   </g>
   <g id="text_16">
    <!-- US 30Y 4.97% -->
    <g style="fill: #1f77b4" transform="translate(525.47679 41.956061) scale(0.12 -0.12)">
     <defs>
      <path id="DejaVuSans-38" d="M 556 4666 
L 1191 4666 
L 1191 1831 
Q 1191 1081 1462 751 
Q 1734 422 2344 422 
Q 2950 422 3222 751 
Q 3494 1081 3494 1831 
L 3494 4666 
L 4128 4666 
L 4128 1753 
Q 4128 841 3676 375 
Q 3225 -91 2344 -91 
Q 1459 -91 1007 375 
Q 556 841 556 1753 
L 556 4666 
z
" transform="scale(0.015625)"/>
      <path id="DejaVuSans-36" d="M 3425 4513 
L 3425 3897 
Q 3066 4069 2747 4153 
Q 2428 4238 2131 4238 
Q 1616 4238 1336 4038 
Q 1056 3838 1056 3469 
Q 1056 3159 1242 3001 
Q 1428 2844 1947 2747 
L 2328 2669 
Q 3034 2534 3370 2195 
Q 3706 1856 3706 1288 
Q 3706 609 3251 259 
Q 2797 -91 1919 -91 
Q 1588 -91 1214 -16 
Q 841 59 441 206 
L 441 856 
Q 825 641 1194 531 
Q 1563 422 1919 422 
Q 2459 422 2753 634 
Q 3047 847 3047 1241 
Q 3047 1584 2836 1778 
Q 2625 1972 2144 2069 
L 1759 2144 
Q 1053 2284 737 2584 
Q 422 2884 422 3419 
Q 422 4038 858 4394 
Q 1294 4750 2059 4750 
Q 2388 4750 2728 4690 
Q 3069 4631 3425 4513 
z
" transform="scale(0.015625)"/>
      <path id="DejaVuSans-1c" d="M 703 97 
L 703 672 
Q 941 559 1184 500 
Q 1428 441 1663 441 
Q 2288 441 2617 861 
Q 2947 1281 2994 2138 
Q 2813 1869 2534 1725 
Q 2256 1581 1919 1581 
Q 1219 1581 811 2004 
Q 403 2428 403 3163 
Q 403 3881 828 4315 
Q 1253 4750 1959 4750 
Q 2769 4750 3195 4129 
Q 3622 3509 3622 2328 
Q 3622 1225 3098 567 
Q 2575 -91 1691 -91 
Q 1453 -91 1209 -44 
Q 966 3 703 97 
z
M 1959 2075 
Q 2384 2075 2632 2365 
Q 2881 2656 2881 3163 
Q 2881 3666 2632 3958 
Q 2384 4250 1959 4250 
Q 1534 4250 1286 3958 
Q 1038 3666 1038 3163 
Q 1038 2656 1286 2365 
Q 1534 2075 1959 2075 
z
" transform="scale(0.015625)"/>
      <path id="DejaVuSans-1a" d="M 525 4666 
L 3525 4666 
L 3525 4397 
L 1831 0 
L 1172 0 
L 2766 4134 
L 525 4134 
L 525 4666 
z
" transform="scale(0.015625)"/>
     </defs>
     <use xlink:href="#DejaVuSans-38"/>
     <use xlink:href="#DejaVuSans-36" transform="translate(73.1875 0)"/>
     <use xlink:href="#DejaVuSans-3" transform="translate(136.671875 0)"/>
     <use xlink:href="#DejaVuSans-16" transform="translate(168.453125 0)"/>
     <use xlink:href="#DejaVuSans-13" transform="translate(232.078125 0)"/>
     <use xlink:href="#DejaVuSans-3c" transform="translate(295.703125 0)"/>
     <use xlink:href="#DejaVuSans-3" transform="translate(356.78125 0)"/>
     <use xlink:href="#DejaVuSans-17" transform="translate(388.5625 0)"/>
     <use xlink:href="#DejaVuSans-11" transform="translate(452.1875 0)"/>
     <use xlink:href="#DejaVuSans-1c" transform="translate(483.96875 0)"/>
     <use xlink:href="#DejaVuSans-1a" transform="translate(547.59375 0)"/>
     <use xlink:href="#DejaVuSans-8" transform="translate(611.21875 0)"/>
    </g>
   </g>
   <g id="text_17">
    <!-- CA 30Y 3.81% -->
    <g style="fill: #d62728" transform="translate(525.47679 148.642192) scale(0.12 -0.12)">
     <defs>
      <path id="DejaVuSans-26" d="M 4122 4306 
L 4122 3641 
Q 3803 3938 3442 4084 
Q 3081 4231 2675 4231 
Q 1875 4231 1450 3742 
Q 1025 3253 1025 2328 
Q 1025 1406 1450 917 
Q 1875 428 2675 428 
Q 3081 428 3442 575 
Q 3803 722 4122 1019 
L 4122 359 
Q 3791 134 3420 21 
Q 3050 -91 2638 -91 
Q 1578 -91 968 557 
Q 359 1206 359 2328 
Q 359 3453 968 4101 
Q 1578 4750 2638 4750 
Q 3056 4750 3426 4639 
Q 3797 4528 4122 4306 
z
" transform="scale(0.015625)"/>
      <path id="DejaVuSans-24" d="M 2188 4044 
L 1331 1722 
L 3047 1722 
L 2188 4044 
z
M 1831 4666 
L 2547 4666 
L 4325 0 
L 3669 0 
L 3244 1197 
L 1141 1197 
L 716 0 
L 50 0 
L 1831 4666 
z
" transform="scale(0.015625)"/>
      <path id="DejaVuSans-1b" d="M 2034 2216 
Q 1584 2216 1326 1975 
Q 1069 1734 1069 1313 
Q 1069 891 1326 650 
Q 1584 409 2034 409 
Q 2484 409 2743 651 
Q 3003 894 3003 1313 
Q 3003 1734 2745 1975 
Q 2488 2216 2034 2216 
z
M 1403 2484 
Q 997 2584 770 2862 
Q 544 3141 544 3541 
Q 544 4100 942 4425 
Q 1341 4750 2034 4750 
Q 2731 4750 3128 4425 
Q 3525 4100 3525 3541 
Q 3525 3141 3298 2862 
Q 3072 2584 2669 2484 
Q 3125 2378 3379 2068 
Q 3634 1759 3634 1313 
Q 3634 634 3220 271 
Q 2806 -91 2034 -91 
Q 1263 -91 848 271 
Q 434 634 434 1313 
Q 434 1759 690 2068 
Q 947 2378 1403 2484 
z
M 1172 3481 
Q 1172 3119 1398 2916 
Q 1625 2713 2034 2713 
Q 2441 2713 2670 2916 
Q 2900 3119 2900 3481 
Q 2900 3844 2670 4047 
Q 2441 4250 2034 4250 
Q 1625 4250 1398 4047 
Q 1172 3844 1172 3481 
z
" transform="scale(0.015625)"/>
     </defs>
     <use xlink:href="#DejaVuSans-26"/>
     <use xlink:href="#DejaVuSans-24" transform="translate(69.828125 0)"/>
     <use xlink:href="#DejaVuSans-3" transform="translate(138.234375 0)"/>
     <use xlink:href="#DejaVuSans-16" transform="translate(170.015625 0)"/>
     <use xlink:href="#DejaVuSans-13" transform="translate(233.640625 0)"/>
     <use xlink:href="#DejaVuSans-3c" transform="translate(297.265625 0)"/>
     <use xlink:href="#DejaVuSans-3" transform="translate(358.34375 0)"/>
     <use xlink:href="#DejaVuSans-16" transform="translate(390.125 0)"/>
     <use xlink:href="#DejaVuSans-11" transform="translate(453.75 0)"/>
     <use xlink:href="#DejaVuSans-1b" transform="translate(485.53125 0)"/>
     <use xlink:href="#DejaVuSans-14" transform="translate(549.15625 0)"/>
     <use xlink:href="#DejaVuSans-8" transform="translate(612.78125 0)"/>
    </g>
   </g>
   <g id="text_18">
    <!-- US vs Canada Yield Curves — Today vs Prior Dates -->
    <g transform="translate(120.7275 17.837813) scale(0.14 -0.14)">
     <defs>
      <path id="DejaVuSans-59" d="M 191 3500 
L 800 3500 
L 1894 563 
L 2988 3500 
L 3597 3500 
L 2284 0 
L 1503 0 
L 191 3500 
z
" transform="scale(0.015625)"/>
      <path id="DejaVuSans-58" d="M 544 1381 
L 544 3500 
L 1119 3500 
L 1119 1403 
Q 1119 906 1312 657 
Q 1506 409 1894 409 
Q 2359 409 2629 706 
Q 2900 1003 2900 1516 
L 2900 3500 
L 3475 3500 
L 3475 0 
L 2900 0 
L 2900 538 
Q 2691 219 2414 64 
Q 2138 -91 1772 -91 
Q 1169 -91 856 284 
Q 544 659 544 1381 
z
M 1991 3584 
L 1991 3584 
z
" transform="scale(0.015625)"/>
      <path id="DejaVuSans-af6" d="M 313 1978 
L 6088 1978 
L 6088 1528 
L 313 1528 
L 313 1978 
z
" transform="scale(0.015625)"/>
      <path id="DejaVuSans-33" d="M 1259 4147 
L 1259 2394 
L 2053 2394 
Q 2494 2394 2734 2622 
Q 2975 2850 2975 3272 
Q 2975 3691 2734 3919 
Q 2494 4147 2053 4147 
L 1259 4147 
z
M 628 4666 
L 2053 4666 
Q 2838 4666 3239 4311 
Q 3641 3956 3641 3272 
Q 3641 2581 3239 2228 
Q 2838 1875 2053 1875 
L 1259 1875 
L 1259 0 
L 628 0 
L 628 4666 
z
" transform="scale(0.015625)"/>
      <path id="DejaVuSans-27" d="M 1259 4147 
L 1259 519 
L 2022 519 
Q 2988 519 3436 956 
Q 3884 1394 3884 2338 
Q 3884 3275 3436 3711 
Q 2988 4147 2022 4147 
L 1259 4147 
z
M 628 4666 
L 1925 4666 
Q 3281 4666 3915 4102 
Q 4550 3538 4550 2338 
Q 4550 1131 3912 565 
Q 3275 0 1925 0 
L 628 0 
L 628 4666 
z
" transform="scale(0.015625)"/>
      <path id="DejaVuSans-57" d="M 1172 4494 
L 1172 3500 
L 2356 3500 
L 2356 3053 
L 1172 3053 
L 1172 1153 
Q 1172 725 1289 603 
Q 1406 481 1766 481 
L 2356 481 
L 2356 0 
L 1766 0 
Q 1100 0 847 248 
Q 594 497 594 1153 
L 594 3053 
L 172 3053 
L 172 3500 
L 594 3500 
L 594 4494 
L 1172 4494 
z
" transform="scale(0.015625)"/>
     </defs>
     <use xlink:href="#DejaVuSans-38"/>
     <use xlink:href="#DejaVuSans-36" transform="translate(73.1875 0)"/>
     <use xlink:href="#DejaVuSans-3" transform="translate(136.671875 0)"/>
     <use xlink:href="#DejaVuSans-59" transform="translate(168.453125 0)"/>
     <use xlink:href="#DejaVuSans-56" transform="translate(227.640625 0)"/>
     <use xlink:href="#DejaVuSans-3" transform="translate(279.734375 0)"/>
     <use xlink:href="#DejaVuSans-26" transform="translate(311.515625 0)"/>
     <use xlink:href="#DejaVuSans-44" transform="translate(381.34375 0)"/>
     <use xlink:href="#DejaVuSans-51" transform="translate(442.625 0)"/>
     <use xlink:href="#DejaVuSans-44" transform="translate(506 0)"/>
     <use xlink:href="#DejaVuSans-47" transform="translate(567.28125 0)"/>
     <use xlink:href="#DejaVuSans-44" transform="translate(630.765625 0)"/>
     <use xlink:href="#DejaVuSans-3" transform="translate(692.046875 0)"/>
     <use xlink:href="#DejaVuSans-3c" transform="translate(723.828125 0)"/>
     <use xlink:href="#DejaVuSans-4c" transform="translate(781.34375 0)"/>
     <use xlink:href="#DejaVuSans-48" transform="translate(809.125 0)"/>
     <use xlink:href="#DejaVuSans-4f" transform="translate(870.65625 0)"/>
     <use xlink:href="#DejaVuSans-47" transform="translate(898.4375 0)"/>
     <use xlink:href="#DejaVuSans-3" transform="translate(961.921875 0)"/>
     <use xlink:href="#DejaVuSans-26" transform="translate(993.703125 0)"/>
     <use xlink:href="#DejaVuSans-58" transform="translate(1063.53125 0)"/>
     <use xlink:href="#DejaVuSans-55" transform="translate(1126.90625 0)"/>
     <use xlink:href="#DejaVuSans-59" transform="translate(1168.015625 0)"/>
     <use xlink:href="#DejaVuSans-48" transform="translate(1227.203125 0)"/>
     <use xlink:href="#DejaVuSans-56" transform="translate(1288.734375 0)"/>
     <use xlink:href="#DejaVuSans-3" transform="translate(1340.828125 0)"/>
     <use xlink:href="#DejaVuSans-af6" transform="translate(1372.609375 0)"/>
     <use xlink:href="#DejaVuSans-3" transform="translate(1472.609375 0)"/>
     <use xlink:href="#DejaVuSans-37" transform="translate(1504.390625 0)"/>
     <use xlink:href="#DejaVuSans-52" transform="translate(1548.484375 0)"/>
     <use xlink:href="#DejaVuSans-47" transform="translate(1609.671875 0)"/>
     <use xlink:href="#DejaVuSans-44" transform="translate(1673.15625 0)"/>
     <use xlink:href="#DejaVuSans-5c" transform="translate(1734.4375 0)"/>
     <use xlink:href="#DejaVuSans-3" transform="translate(1793.625 0)"/>
     <use xlink:href="#DejaVuSans-59" transform="translate(1825.40625 0)"/>
     <use xlink:href="#DejaVuSans-56" transform="translate(1884.59375 0)"/>
     <use xlink:href="#DejaVuSans-3" transform="translate(1936.6875 0)"/>
     <use xlink:href="#DejaVuSans-33" transform="translate(1968.46875 0)"/>
     <use xlink:href="#DejaVuSans-55" transform="translate(2027.015625 0)"/>
     <use xlink:href="#DejaVuSans-4c" transform="translate(2068.125 0)"/>
     <use xlink:href="#DejaVuSans-52" transform="translate(2095.90625 0)"/>
     <use xlink:href="#DejaVuSans-55" transform="translate(2157.09375 0)"/>
     <use xlink:href="#DejaVuSans-3" transform="translate(2198.203125 0)"/>
     <use xlink:href="#DejaVuSans-27" transform="translate(2229.984375 0)"/>
     <use xlink:href="#DejaVuSans-44" transform="translate(2306.984375 0)"/>
     <use xlink:href="#DejaVuSans-57" transform="translate(2368.265625 0)"/>
     <use xlink:href="#DejaVuSans-48" transform="translate(2407.46875 0)"/>
     <use xlink:href="#DejaVuSans-56" transform="translate(2469 0)"/>
    </g>
   </g>
   <g id="legend_1">
    <g id="patch_7">
     <path d="M 315.054063 295.037813 
L 539.904063 295.037813 
Q 542.304063 295.037813 542.304063 292.637813 
L 542.304063 221.834063 
Q 542.304063 219.434063 539.904063 219.434063 
L 315.054063 219.434063 
Q 312.654063 219.434063 312.654063 221.834063 
L 312.654063 292.637813 
Q 312.654063 295.037813 315.054063 295.037813 
z
" style="fill: #ffffff; opacity: 0.8; stroke: #cccccc; stroke-linejoin: miter"/>
    </g>
    <g id="line2d_35">
     <path d="M 317.454063 229.152188 
L 329.454063 229.152188 
L 341.454063 229.152188 
" style="fill: none; stroke: #1f77b4; stroke-width: 2.5; stroke-linecap: square"/>
    </g>
    <g id="text_19">
     <!-- US Today -->
     <g transform="translate(351.054063 233.352188) scale(0.12 -0.12)">
      <use xlink:href="#DejaVuSans-38"/>
      <use xlink:href="#DejaVuSans-36" transform="translate(73.1875 0)"/>
      <use xlink:href="#DejaVuSans-3" transform="translate(136.671875 0)"/>
      <use xlink:href="#DejaVuSans-37" transform="translate(168.453125 0)"/>
      <use xlink:href="#DejaVuSans-52" transform="translate(212.546875 0)"/>
      <use xlink:href="#DejaVuSans-47" transform="translate(273.734375 0)"/>
      <use xlink:href="#DejaVuSans-44" transform="translate(337.21875 0)"/>
      <use xlink:href="#DejaVuSans-5c" transform="translate(398.5 0)"/>
     </g>
    </g>
    <g id="line2d_36">
     <path d="M 317.454063 247.153125 
L 329.454063 247.153125 
L 341.454063 247.153125 
" style="fill: none; stroke: #1f77b4; stroke-opacity: 0.35; stroke-width: 1.5; stroke-linecap: square"/>
    </g>
    <g id="text_20">
     <!-- US 1M ago -->
     <g transform="translate(351.054063 251.353125) scale(0.12 -0.12)">
      <defs>
       <path id="DejaVuSans-30" d="M 628 4666 
L 1569 4666 
L 2759 1491 
L 3956 4666 
L 4897 4666 
L 4897 0 
L 4281 0 
L 4281 4097 
L 3078 897 
L 2444 897 
L 1241 4097 
L 1241 0 
L 628 0 
L 628 4666 
z
" transform="scale(0.015625)"/>
       <path id="DejaVuSans-4a" d="M 2906 1791 
Q 2906 2416 2648 2759 
Q 2391 3103 1925 3103 
Q 1463 3103 1205 2759 
Q 947 2416 947 1791 
Q 947 1169 1205 825 
Q 1463 481 1925 481 
Q 2391 481 2648 825 
Q 2906 1169 2906 1791 
z
M 3481 434 
Q 3481 -459 3084 -895 
Q 2688 -1331 1869 -1331 
Q 1566 -1331 1297 -1286 
Q 1028 -1241 775 -1147 
L 775 -588 
Q 1028 -725 1275 -790 
Q 1522 -856 1778 -856 
Q 2344 -856 2625 -561 
Q 2906 -266 2906 331 
L 2906 616 
Q 2728 306 2450 153 
Q 2172 0 1784 0 
Q 1141 0 747 490 
Q 353 981 353 1791 
Q 353 2603 747 3093 
Q 1141 3584 1784 3584 
Q 2172 3584 2450 3431 
Q 2728 3278 2906 2969 
L 2906 3500 
L 3481 3500 
L 3481 434 
z
" transform="scale(0.015625)"/>
      </defs>
      <use xlink:href="#DejaVuSans-38"/>
      <use xlink:href="#DejaVuSans-36" transform="translate(73.1875 0)"/>
      <use xlink:href="#DejaVuSans-3" transform="translate(136.671875 0)"/>
      <use xlink:href="#DejaVuSans-14" transform="translate(168.453125 0)"/>
      <use xlink:href="#DejaVuSans-30" transform="translate(232.078125 0)"/>
      <use xlink:href="#DejaVuSans-3" transform="translate(318.359375 0)"/>
      <use xlink:href="#DejaVuSans-44" transform="translate(350.140625 0)"/>
      <use xlink:href="#DejaVuSans-4a" transform="translate(411.421875 0)"/>
      <use xlink:href="#DejaVuSans-52" transform="translate(474.90625 0)"/>
     </g>
    </g>
    <g id="line2d_37">
     <path d="M 317.454063 265.154063 
L 329.454063 265.154063 
L 341.454063 265.154063 
" style="fill: none; stroke: #1f77b4; stroke-opacity: 0.35; stroke-width: 1.5; stroke-linecap: square"/>
    </g>
    <g id="text_21">
     <!-- US 3M ago -->
     <g transform="translate(351.054063 269.354063) scale(0.12 -0.12)">
      <use xlink:href="#DejaVuSans-38"/>
      <use xlink:href="#DejaVuSans-36" transform="translate(73.1875 0)"/>
      <use xlink:href="#DejaVuSans-3" transform="translate(136.671875 0)"/>
      <use xlink:href="#DejaVuSans-16" transform="translate(168.453125 0)"/>
      <use xlink:href="#DejaVuSans-30" transform="translate(232.078125 0)"/>
      <use xlink:href="#DejaVuSans-3" transform="translate(318.359375 0)"/>
      <use xlink:href="#DejaVuSans-44" transform="translate(350.140625 0)"/>
      <use xlink:href="#DejaVuSans-4a" transform="translate(411.421875 0)"/>
      <use xlink:href="#DejaVuSans-52" transform="translate(474.90625 0)"/>
     </g>
    </g>
    <g id="line2d_38">
     <path d="M 317.454063 283.155 
L 329.454063 283.155 
L 341.454063 283.155 
" style="fill: none; stroke: #1f77b4; stroke-opacity: 0.35; stroke-width: 1.5; stroke-linecap: square"/>
    </g>
    <g id="text_22">
     <!-- US 1Y ago -->
     <g transform="translate(351.054063 287.355) scale(0.12 -0.12)">
      <use xlink:href="#DejaVuSans-38"/>
      <use xlink:href="#DejaVuSans-36" transform="translate(73.1875 0)"/>
      <use xlink:href="#DejaVuSans-3" transform="translate(136.671875 0)"/>
      <use xlink:href="#DejaVuSans-14" transform="translate(168.453125 0)"/>
      <use xlink:href="#DejaVuSans-3c" transform="translate(232.078125 0)"/>
      <use xlink:href="#DejaVuSans-3" transform="translate(293.15625 0)"/>
      <use xlink:href="#DejaVuSans-44" transform="translate(324.9375 0)"/>
      <use xlink:href="#DejaVuSans-4a" transform="translate(386.21875 0)"/>
      <use xlink:href="#DejaVuSans-52" transform="translate(449.703125 0)"/>
     </g>
    </g>
    <g id="line2d_39">
     <path d="M 439.385313 229.152188 
L 451.385313 229.152188 
L 463.385313 229.152188 
" style="fill: none; stroke: #d62728; stroke-width: 2.5; stroke-linecap: square"/>
    </g>
    <g id="text_23">
     <!-- CA Today -->
     <g transform="translate(472.985313 233.352188) scale(0.12 -0.12)">
      <use xlink:href="#DejaVuSans-26"/>
      <use xlink:href="#DejaVuSans-24" transform="translate(69.828125 0)"/>
      <use xlink:href="#DejaVuSans-3" transform="translate(138.234375 0)"/>
      <use xlink:href="#DejaVuSans-37" transform="translate(170.015625 0)"/>
      <use xlink:href="#DejaVuSans-52" transform="translate(214.109375 0)"/>
      <use xlink:href="#DejaVuSans-47" transform="translate(275.296875 0)"/>
      <use xlink:href="#DejaVuSans-44" transform="translate(338.78125 0)"/>
      <use xlink:href="#DejaVuSans-5c" transform="translate(400.0625 0)"/>
     </g>
    </g>
    <g id="line2d_40">
     <path d="M 439.385313 247.153125 
L 451.385313 247.153125 
L 463.385313 247.153125 
" style="fill: none; stroke: #d62728; stroke-opacity: 0.35; stroke-width: 1.5; stroke-linecap: square"/>
    </g>
    <g id="text_24">
     <!-- CA 1M ago -->
     <g transform="translate(472.985313 251.353125) scale(0.12 -0.12)">
      <use xlink:href="#DejaVuSans-26"/>
      <use xlink:href="#DejaVuSans-24" transform="translate(69.828125 0)"/>
      <use xlink:href="#DejaVuSans-3" transform="translate(138.234375 0)"/>
      <use xlink:href="#DejaVuSans-14" transform="translate(170.015625 0)"/>
      <use xlink:href="#DejaVuSans-30" transform="translate(233.640625 0)"/>
      <use xlink:href="#DejaVuSans-3" transform="translate(319.921875 0)"/>
      <use xlink:href="#DejaVuSans-44" transform="translate(351.703125 0)"/>
      <use xlink:href="#DejaVuSans-4a" transform="translate(412.984375 0)"/>
      <use xlink:href="#DejaVuSans-52" transform="translate(476.46875 0)"/>
     </g>
    </g>
    <g id="line2d_41">
     <path d="M 439.385313 265.154063 
L 451.385313 265.154063 
L 463.385313 265.154063 
" style="fill: none; stroke: #d62728; stroke-opacity: 0.35; stroke-width: 1.5; stroke-linecap: square"/>
    </g>
    <g id="text_25">
     <!-- CA 3M ago -->
     <g transform="translate(472.985313 269.354063) scale(0.12 -0.12)">
      <use xlink:href="#DejaVuSans-26"/>
      <use xlink:href="#DejaVuSans-24" transform="translate(69.828125 0)"/>
      <use xlink:href="#DejaVuSans-3" transform="translate(138.234375 0)"/>
      <use xlink:href="#DejaVuSans-16" transform="translate(170.015625 0)"/>
      <use xlink:href="#DejaVuSans-30" transform="translate(233.640625 0)"/>
      <use xlink:href="#DejaVuSans-3" transform="translate(319.921875 0)"/>
      <use xlink:href="#DejaVuSans-44" transform="translate(351.703125 0)"/>
      <use xlink:href="#DejaVuSans-4a" transform="translate(412.984375 0)"/>
      <use xlink:href="#DejaVuSans-52" transform="translate(476.46875 0)"/>
     </g>
    </g>
    <g id="line2d_42">
     <path d="M 439.385313 283.155 
L 451.385313 283.155 
L 463.385313 283.155 
" style="fill: none; stroke: #d62728; stroke-opacity: 0.35; stroke-width: 1.5; stroke-linecap: square"/>
    </g>
    <g id="text_26">
     <!-- CA 1Y ago -->
     <g transform="translate(472.985313 287.355) scale(0.12 -0.12)">
      <use xlink:href="#DejaVuSans-26"/>
      <use xlink:href="#DejaVuSans-24" transform="translate(69.828125 0)"/>
      <use xlink:href="#DejaVuSans-3" transform="translate(138.234375 0)"/>
      <use xlink:href="#DejaVuSans-14" transform="translate(170.015625 0)"/>
      <use xlink:href="#DejaVuSans-3c" transform="translate(233.640625 0)"/>
      <use xlink:href="#DejaVuSans-3" transform="translate(294.71875 0)"/>
      <use xlink:href="#DejaVuSans-44" transform="translate(326.5 0)"/>
      <use xlink:href="#DejaVuSans-4a" transform="translate(387.78125 0)"/>
      <use xlink:href="#DejaVuSans-52" transform="translate(451.265625 0)"/>
     </g>
    </g>
   </g>
  </g>
 </g>
 <defs>
  <clipPath id="pceddaffd3f">
   <rect x="46.104063" y="23.837813" width="502.2" height="277.2"/>
  </clipPath>
 </defs>
</svg>
