<?xml version="1.0" encoding="utf-8" standalone="no"?>
<!DOCTYPE svg PUBLIC "-//W3C//DTD SVG 1.1//EN"
  "http://www.w3.org/Graphics/SVG/1.1/DTD/svg11.dtd">
<svg xmlns:xlink="http://www.w3.org/1999/xlink" width="561.865625pt" height="239.454103pt" viewBox="0 0 561.865625 239.454103" xmlns="http://www.w3.org/2000/svg" version="1.1">
 <metadata>
  <rdf:RDF xmlns:dc="http://purl.org/dc/elements/1.1/" xmlns:cc="http://creativecommons.org/ns#" xmlns:rdf="http://www.w3.org/1999/02/22-rdf-syntax-ns#">
   <cc:Work>
    <dc:type rdf:resource="http://purl.org/dc/dcmitype/StillImage"/>
    <dc:date>2026-06-19T16:14:47.371253</dc:date>
    <dc:format>image/svg+xml</dc:format>
    <dc:creator>
     <cc:Agent>
      <dc:title>Matplotlib v3.11.0, https://matplotlib.org/</dc:title>
     </cc:Agent>
    </dc:creator>
   </cc:Work>
  </rdf:RDF>
 </metadata>
 <defs>
  <style type="text/css">*{stroke-linejoin: round; stroke-linecap: butt}</style>
 </defs>
 <g id="figure_1">
  <g id="patch_1">
   <path d="M 0 239.454103 
L 561.865625 239.454103 
L 561.865625 0 
L 0 0 
z
" style="fill: #ffffff"/>
  </g>
  <g id="axes_1">
   <g id="patch_2">
    <path d="M 52.465625 113.518125 
L 554.665625 113.518125 
L 554.665625 22.318125 
L 52.465625 22.318125 
z
" style="fill: #ffffff"/>
   </g>
   <g id="matplotlib.axis_1">
    <g id="xtick_1">
     <g id="line2d_1">
      <path d="M 70.3522 113.518125 
L 70.3522 22.318125 
" clip-path="url(#pd02281f253)" style="fill: none; stroke: #b0b0b0; stroke-opacity: 0.2; stroke-width: 0.8; stroke-linecap: square"/>
     </g>
     <g id="line2d_2">
      <defs>
       <path id="mf3e86ae763" d="M 0 0 
L 0 3.5 
" style="stroke: #000000; stroke-width: 0.8"/>
      </defs>
      <g>
       <use xlink:href="#mf3e86ae763" x="70.3522" y="113.518125" style="stroke: #000000; stroke-width: 0.8"/>
      </g>
     </g>
     <g id="text_1">
      <!-- 2025-07 -->
      <g transform="translate(39.108577 155.435389) rotate(-45) scale(0.1 -0.1)">
       <defs>
        <path id="DejaVuSans-15" d="M 1228 531 
L 3431 531 
L 3431 0 
L 469 0 
L 469 531 
Q 828 903 1448 1529 
Q 2069 2156 2228 2338 
Q 2531 2678 2651 2914 
Q 2772 3150 2772 3378 
Q 2772 3750 2511 3984 
Q 2250 4219 1831 4219 
Q 1534 4219 1204 4116 
Q 875 4013 500 3803 
L 500 4441 
Q 881 4594 1212 4672 
Q 1544 4750 1819 4750 
Q 2544 4750 2975 4387 
Q 3406 4025 3406 3419 
Q 3406 3131 3298 2873 
Q 3191 2616 2906 2266 
Q 2828 2175 2409 1742 
Q 1991 1309 1228 531 
z
" transform="scale(0.015625)"/>
        <path id="DejaVuSans-13" d="M 2034 4250 
Q 1547 4250 1301 3770 
Q 1056 3291 1056 2328 
Q 1056 1369 1301 889 
Q 1547 409 2034 409 
Q 2525 409 2770 889 
Q 3016 1369 3016 2328 
Q 3016 3291 2770 3770 
Q 2525 4250 2034 4250 
z
M 2034 4750 
Q 2819 4750 3233 4129 
Q 3647 3509 3647 2328 
Q 3647 1150 3233 529 
Q 2819 -91 2034 -91 
Q 1250 -91 836 529 
Q 422 1150 422 2328 
Q 422 3509 836 4129 
Q 1250 4750 2034 4750 
z
" transform="scale(0.015625)"/>
        <path id="DejaVuSans-18" d="M 691 4666 
L 3169 4666 
L 3169 4134 
L 1269 4134 
L 1269 2991 
Q 1406 3038 1543 3061 
Q 1681 3084 1819 3084 
Q 2600 3084 3056 2656 
Q 3513 2228 3513 1497 
Q 3513 744 3044 326 
Q 2575 -91 1722 -91 
Q 1428 -91 1123 -41 
Q 819 9 494 109 
L 494 744 
Q 775 591 1075 516 
Q 1375 441 1709 441 
Q 2250 441 2565 725 
Q 2881 1009 2881 1497 
Q 2881 1984 2565 2268 
Q 2250 2553 1709 2553 
Q 1456 2553 1204 2497 
Q 953 2441 691 2322 
L 691 4666 
z
" transform="scale(0.015625)"/>
        <path id="DejaVuSans-10" d="M 313 2009 
L 1997 2009 
L 1997 1497 
L 313 1497 
L 313 2009 
z
" transform="scale(0.015625)"/>
        <path id="DejaVuSans-1a" d="M 525 4666 
L 3525 4666 
L 3525 4397 
L 1831 0 
L 1172 0 
L 2766 4134 
L 525 4134 
L 525 4666 
z
" transform="scale(0.015625)"/>
       </defs>
       <use xlink:href="#DejaVuSans-15"/>
       <use xlink:href="#DejaVuSans-13" transform="translate(63.625 0)"/>
       <use xlink:href="#DejaVuSans-15" transform="translate(127.25 0)"/>
       <use xlink:href="#DejaVuSans-18" transform="translate(190.875 0)"/>
       <use xlink:href="#DejaVuSans-10" transform="translate(254.5 0)"/>
       <use xlink:href="#DejaVuSans-13" transform="translate(290.578125 0)"/>
       <use xlink:href="#DejaVuSans-1a" transform="translate(354.203125 0)"/>
      </g>
     </g>
    </g>
    <g id="xtick_2">
     <g id="line2d_3">
      <path d="M 113.004803 113.518125 
L 113.004803 22.318125 
" clip-path="url(#pd02281f253)" style="fill: none; stroke: #b0b0b0; stroke-opacity: 0.2; stroke-width: 0.8; stroke-linecap: square"/>
     </g>
     <g id="line2d_4">
      <g>
       <use xlink:href="#mf3e86ae763" x="113.004803" y="113.518125" style="stroke: #000000; stroke-width: 0.8"/>
      </g>
     </g>
     <g id="text_2">
      <!-- 2025-08 -->
      <g transform="translate(81.761179 155.435389) rotate(-45) scale(0.1 -0.1)">
       <defs>
        <path id="DejaVuSans-1b" d="M 2034 2216 
Q 1584 2216 1326 1975 
Q 1069 1734 1069 1313 
Q 1069 891 1326 650 
Q 1584 409 2034 409 
Q 2484 409 2743 651 
Q 3003 894 3003 1313 
Q 3003 1734 2745 1975 
Q 2488 2216 2034 2216 
z
M 1403 2484 
Q 997 2584 770 2862 
Q 544 3141 544 3541 
Q 544 4100 942 4425 
Q 1341 4750 2034 4750 
Q 2731 4750 3128 4425 
Q 3525 4100 3525 3541 
Q 3525 3141 3298 2862 
Q 3072 2584 2669 2484 
Q 3125 2378 3379 2068 
Q 3634 1759 3634 1313 
Q 3634 634 3220 271 
Q 2806 -91 2034 -91 
Q 1263 -91 848 271 
Q 434 634 434 1313 
Q 434 1759 690 2068 
Q 947 2378 1403 2484 
z
M 1172 3481 
Q 1172 3119 1398 2916 
Q 1625 2713 2034 2713 
Q 2441 2713 2670 2916 
Q 2900 3119 2900 3481 
Q 2900 3844 2670 4047 
Q 2441 4250 2034 4250 
Q 1625 4250 1398 4047 
Q 1172 3844 1172 3481 
z
" transform="scale(0.015625)"/>
       </defs>
       <use xlink:href="#DejaVuSans-15"/>
       <use xlink:href="#DejaVuSans-13" transform="translate(63.625 0)"/>
       <use xlink:href="#DejaVuSans-15" transform="translate(127.25 0)"/>
       <use xlink:href="#DejaVuSans-18" transform="translate(190.875 0)"/>
       <use xlink:href="#DejaVuSans-10" transform="translate(254.5 0)"/>
       <use xlink:href="#DejaVuSans-13" transform="translate(290.578125 0)"/>
       <use xlink:href="#DejaVuSans-1b" transform="translate(354.203125 0)"/>
      </g>
     </g>
    </g>
    <g id="xtick_3">
     <g id="line2d_5">
      <path d="M 155.657406 113.518125 
L 155.657406 22.318125 
" clip-path="url(#pd02281f253)" style="fill: none; stroke: #b0b0b0; stroke-opacity: 0.2; stroke-width: 0.8; stroke-linecap: square"/>
     </g>
     <g id="line2d_6">
      <g>
       <use xlink:href="#mf3e86ae763" x="155.657406" y="113.518125" style="stroke: #000000; stroke-width: 0.8"/>
      </g>
     </g>
     <g id="text_3">
      <!-- 2025-09 -->
      <g transform="translate(124.413782 155.435389) rotate(-45) scale(0.1 -0.1)">
       <defs>
        <path id="DejaVuSans-1c" d="M 703 97 
L 703 672 
Q 941 559 1184 500 
Q 1428 441 1663 441 
Q 2288 441 2617 861 
Q 2947 1281 2994 2138 
Q 2813 1869 2534 1725 
Q 2256 1581 1919 1581 
Q 1219 1581 811 2004 
Q 403 2428 403 3163 
Q 403 3881 828 4315 
Q 1253 4750 1959 4750 
Q 2769 4750 3195 4129 
Q 3622 3509 3622 2328 
Q 3622 1225 3098 567 
Q 2575 -91 1691 -91 
Q 1453 -91 1209 -44 
Q 966 3 703 97 
z
M 1959 2075 
Q 2384 2075 2632 2365 
Q 2881 2656 2881 3163 
Q 2881 3666 2632 3958 
Q 2384 4250 1959 4250 
Q 1534 4250 1286 3958 
Q 1038 3666 1038 3163 
Q 1038 2656 1286 2365 
Q 1534 2075 1959 2075 
z
" transform="scale(0.015625)"/>
       </defs>
       <use xlink:href="#DejaVuSans-15"/>
       <use xlink:href="#DejaVuSans-13" transform="translate(63.625 0)"/>
       <use xlink:href="#DejaVuSans-15" transform="translate(127.25 0)"/>
       <use xlink:href="#DejaVuSans-18" transform="translate(190.875 0)"/>
       <use xlink:href="#DejaVuSans-10" transform="translate(254.5 0)"/>
       <use xlink:href="#DejaVuSans-13" transform="translate(290.578125 0)"/>
       <use xlink:href="#DejaVuSans-1c" transform="translate(354.203125 0)"/>
      </g>
     </g>
    </g>
    <g id="xtick_4">
     <g id="line2d_7">
      <path d="M 196.934118 113.518125 
L 196.934118 22.318125 
" clip-path="url(#pd02281f253)" style="fill: none; stroke: #b0b0b0; stroke-opacity: 0.2; stroke-width: 0.8; stroke-linecap: square"/>
     </g>
     <g id="line2d_8">
      <g>
       <use xlink:href="#mf3e86ae763" x="196.934118" y="113.518125" style="stroke: #000000; stroke-width: 0.8"/>
      </g>
     </g>
     <g id="text_4">
      <!-- 2025-10 -->
      <g transform="translate(165.690495 155.435389) rotate(-45) scale(0.1 -0.1)">
       <defs>
        <path id="DejaVuSans-14" d="M 794 531 
L 1825 531 
L 1825 4091 
L 703 3866 
L 703 4441 
L 1819 4666 
L 2450 4666 
L 2450 531 
L 3481 531 
L 3481 0 
L 794 0 
L 794 531 
z
" transform="scale(0.015625)"/>
       </defs>
       <use xlink:href="#DejaVuSans-15"/>
       <use xlink:href="#DejaVuSans-13" transform="translate(63.625 0)"/>
       <use xlink:href="#DejaVuSans-15" transform="translate(127.25 0)"/>
       <use xlink:href="#DejaVuSans-18" transform="translate(190.875 0)"/>
       <use xlink:href="#DejaVuSans-10" transform="translate(254.5 0)"/>
       <use xlink:href="#DejaVuSans-14" transform="translate(290.578125 0)"/>
       <use xlink:href="#DejaVuSans-13" transform="translate(354.203125 0)"/>
      </g>
     </g>
    </g>
    <g id="xtick_5">
     <g id="line2d_9">
      <path d="M 239.586721 113.518125 
L 239.586721 22.318125 
" clip-path="url(#pd02281f253)" style="fill: none; stroke: #b0b0b0; stroke-opacity: 0.2; stroke-width: 0.8; stroke-linecap: square"/>
     </g>
     <g id="line2d_10">
      <g>
       <use xlink:href="#mf3e86ae763" x="239.586721" y="113.518125" style="stroke: #000000; stroke-width: 0.8"/>
      </g>
     </g>
     <g id="text_5">
      <!-- 2025-11 -->
      <g transform="translate(208.343097 155.435389) rotate(-45) scale(0.1 -0.1)">
       <use xlink:href="#DejaVuSans-15"/>
       <use xlink:href="#DejaVuSans-13" transform="translate(63.625 0)"/>
       <use xlink:href="#DejaVuSans-15" transform="translate(127.25 0)"/>
       <use xlink:href="#DejaVuSans-18" transform="translate(190.875 0)"/>
       <use xlink:href="#DejaVuSans-10" transform="translate(254.5 0)"/>
       <use xlink:href="#DejaVuSans-14" transform="translate(290.578125 0)"/>
       <use xlink:href="#DejaVuSans-14" transform="translate(354.203125 0)"/>
      </g>
     </g>
    </g>
    <g id="xtick_6">
     <g id="line2d_11">
      <path d="M 280.863433 113.518125 
L 280.863433 22.318125 
" clip-path="url(#pd02281f253)" style="fill: none; stroke: #b0b0b0; stroke-opacity: 0.2; stroke-width: 0.8; stroke-linecap: square"/>
     </g>
     <g id="line2d_12">
      <g>
       <use xlink:href="#mf3e86ae763" x="280.863433" y="113.518125" style="stroke: #000000; stroke-width: 0.8"/>
      </g>
     </g>
     <g id="text_6">
      <!-- 2025-12 -->
      <g transform="translate(249.61981 155.435389) rotate(-45) scale(0.1 -0.1)">
       <use xlink:href="#DejaVuSans-15"/>
       <use xlink:href="#DejaVuSans-13" transform="translate(63.625 0)"/>
       <use xlink:href="#DejaVuSans-15" transform="translate(127.25 0)"/>
       <use xlink:href="#DejaVuSans-18" transform="translate(190.875 0)"/>
       <use xlink:href="#DejaVuSans-10" transform="translate(254.5 0)"/>
       <use xlink:href="#DejaVuSans-14" transform="translate(290.578125 0)"/>
       <use xlink:href="#DejaVuSans-15" transform="translate(354.203125 0)"/>
      </g>
     </g>
    </g>
    <g id="xtick_7">
     <g id="line2d_13">
      <path d="M 323.516036 113.518125 
L 323.516036 22.318125 
" clip-path="url(#pd02281f253)" style="fill: none; stroke: #b0b0b0; stroke-opacity: 0.2; stroke-width: 0.8; stroke-linecap: square"/>
     </g>
     <g id="line2d_14">
      <g>
       <use xlink:href="#mf3e86ae763" x="323.516036" y="113.518125" style="stroke: #000000; stroke-width: 0.8"/>
      </g>
     </g>
     <g id="text_7">
      <!-- 2026-01 -->
      <g transform="translate(292.272412 155.435389) rotate(-45) scale(0.1 -0.1)">
       <defs>
        <path id="DejaVuSans-19" d="M 2113 2584 
Q 1688 2584 1439 2293 
Q 1191 2003 1191 1497 
Q 1191 994 1439 701 
Q 1688 409 2113 409 
Q 2538 409 2786 701 
Q 3034 994 3034 1497 
Q 3034 2003 2786 2293 
Q 2538 2584 2113 2584 
z
M 3366 4563 
L 3366 3988 
Q 3128 4100 2886 4159 
Q 2644 4219 2406 4219 
Q 1781 4219 1451 3797 
Q 1122 3375 1075 2522 
Q 1259 2794 1537 2939 
Q 1816 3084 2150 3084 
Q 2853 3084 3261 2657 
Q 3669 2231 3669 1497 
Q 3669 778 3244 343 
Q 2819 -91 2113 -91 
Q 1303 -91 875 529 
Q 447 1150 447 2328 
Q 447 3434 972 4092 
Q 1497 4750 2381 4750 
Q 2619 4750 2861 4703 
Q 3103 4656 3366 4563 
z
" transform="scale(0.015625)"/>
       </defs>
       <use xlink:href="#DejaVuSans-15"/>
       <use xlink:href="#DejaVuSans-13" transform="translate(63.625 0)"/>
       <use xlink:href="#DejaVuSans-15" transform="translate(127.25 0)"/>
       <use xlink:href="#DejaVuSans-19" transform="translate(190.875 0)"/>
       <use xlink:href="#DejaVuSans-10" transform="translate(254.5 0)"/>
       <use xlink:href="#DejaVuSans-13" transform="translate(290.578125 0)"/>
       <use xlink:href="#DejaVuSans-14" transform="translate(354.203125 0)"/>
      </g>
     </g>
    </g>
    <g id="xtick_8">
     <g id="line2d_15">
      <path d="M 366.168639 113.518125 
L 366.168639 22.318125 
" clip-path="url(#pd02281f253)" style="fill: none; stroke: #b0b0b0; stroke-opacity: 0.2; stroke-width: 0.8; stroke-linecap: square"/>
     </g>
     <g id="line2d_16">
      <g>
       <use xlink:href="#mf3e86ae763" x="366.168639" y="113.518125" style="stroke: #000000; stroke-width: 0.8"/>
      </g>
     </g>
     <g id="text_8">
      <!-- 2026-02 -->
      <g transform="translate(334.925015 155.435389) rotate(-45) scale(0.1 -0.1)">
       <use xlink:href="#DejaVuSans-15"/>
       <use xlink:href="#DejaVuSans-13" transform="translate(63.625 0)"/>
       <use xlink:href="#DejaVuSans-15" transform="translate(127.25 0)"/>
       <use xlink:href="#DejaVuSans-19" transform="translate(190.875 0)"/>
       <use xlink:href="#DejaVuSans-10" transform="translate(254.5 0)"/>
       <use xlink:href="#DejaVuSans-13" transform="translate(290.578125 0)"/>
       <use xlink:href="#DejaVuSans-15" transform="translate(354.203125 0)"/>
      </g>
     </g>
    </g>
    <g id="xtick_9">
     <g id="line2d_17">
      <path d="M 404.69357 113.518125 
L 404.69357 22.318125 
" clip-path="url(#pd02281f253)" style="fill: none; stroke: #b0b0b0; stroke-opacity: 0.2; stroke-width: 0.8; stroke-linecap: square"/>
     </g>
     <g id="line2d_18">
      <g>
       <use xlink:href="#mf3e86ae763" x="404.69357" y="113.518125" style="stroke: #000000; stroke-width: 0.8"/>
      </g>
     </g>
     <g id="text_9">
      <!-- 2026-03 -->
      <g transform="translate(373.449947 155.435389) rotate(-45) scale(0.1 -0.1)">
       <defs>
        <path id="DejaVuSans-16" d="M 2597 2516 
Q 3050 2419 3304 2112 
Q 3559 1806 3559 1356 
Q 3559 666 3084 287 
Q 2609 -91 1734 -91 
Q 1441 -91 1130 -33 
Q 819 25 488 141 
L 488 750 
Q 750 597 1062 519 
Q 1375 441 1716 441 
Q 2309 441 2620 675 
Q 2931 909 2931 1356 
Q 2931 1769 2642 2001 
Q 2353 2234 1838 2234 
L 1294 2234 
L 1294 2753 
L 1863 2753 
Q 2328 2753 2575 2939 
Q 2822 3125 2822 3475 
Q 2822 3834 2567 4026 
Q 2313 4219 1838 4219 
Q 1578 4219 1281 4162 
Q 984 4106 628 3988 
L 628 4550 
Q 988 4650 1302 4700 
Q 1616 4750 1894 4750 
Q 2613 4750 3031 4423 
Q 3450 4097 3450 3541 
Q 3450 3153 3228 2886 
Q 3006 2619 2597 2516 
z
" transform="scale(0.015625)"/>
       </defs>
       <use xlink:href="#DejaVuSans-15"/>
       <use xlink:href="#DejaVuSans-13" transform="translate(63.625 0)"/>
       <use xlink:href="#DejaVuSans-15" transform="translate(127.25 0)"/>
       <use xlink:href="#DejaVuSans-19" transform="translate(190.875 0)"/>
       <use xlink:href="#DejaVuSans-10" transform="translate(254.5 0)"/>
       <use xlink:href="#DejaVuSans-13" transform="translate(290.578125 0)"/>
       <use xlink:href="#DejaVuSans-16" transform="translate(354.203125 0)"/>
      </g>
     </g>
    </g>
    <g id="xtick_10">
     <g id="line2d_19">
      <path d="M 447.346173 113.518125 
L 447.346173 22.318125 
" clip-path="url(#pd02281f253)" style="fill: none; stroke: #b0b0b0; stroke-opacity: 0.2; stroke-width: 0.8; stroke-linecap: square"/>
     </g>
     <g id="line2d_20">
      <g>
       <use xlink:href="#mf3e86ae763" x="447.346173" y="113.518125" style="stroke: #000000; stroke-width: 0.8"/>
      </g>
     </g>
     <g id="text_10">
      <!-- 2026-04 -->
      <g transform="translate(416.102549 155.435389) rotate(-45) scale(0.1 -0.1)">
       <defs>
        <path id="DejaVuSans-17" d="M 2419 4116 
L 825 1625 
L 2419 1625 
L 2419 4116 
z
M 2253 4666 
L 3047 4666 
L 3047 1625 
L 3713 1625 
L 3713 1100 
L 3047 1100 
L 3047 0 
L 2419 0 
L 2419 1100 
L 313 1100 
L 313 1709 
L 2253 4666 
z
" transform="scale(0.015625)"/>
       </defs>
       <use xlink:href="#DejaVuSans-15"/>
       <use xlink:href="#DejaVuSans-13" transform="translate(63.625 0)"/>
       <use xlink:href="#DejaVuSans-15" transform="translate(127.25 0)"/>
       <use xlink:href="#DejaVuSans-19" transform="translate(190.875 0)"/>
       <use xlink:href="#DejaVuSans-10" transform="translate(254.5 0)"/>
       <use xlink:href="#DejaVuSans-13" transform="translate(290.578125 0)"/>
       <use xlink:href="#DejaVuSans-17" transform="translate(354.203125 0)"/>
      </g>
     </g>
    </g>
    <g id="xtick_11">
     <g id="line2d_21">
      <path d="M 488.622885 113.518125 
L 488.622885 22.318125 
" clip-path="url(#pd02281f253)" style="fill: none; stroke: #b0b0b0; stroke-opacity: 0.2; stroke-width: 0.8; stroke-linecap: square"/>
     </g>
     <g id="line2d_22">
      <g>
       <use xlink:href="#mf3e86ae763" x="488.622885" y="113.518125" style="stroke: #000000; stroke-width: 0.8"/>
      </g>
     </g>
     <g id="text_11">
      <!-- 2026-05 -->
      <g transform="translate(457.379262 155.435389) rotate(-45) scale(0.1 -0.1)">
       <use xlink:href="#DejaVuSans-15"/>
       <use xlink:href="#DejaVuSans-13" transform="translate(63.625 0)"/>
       <use xlink:href="#DejaVuSans-15" transform="translate(127.25 0)"/>
       <use xlink:href="#DejaVuSans-19" transform="translate(190.875 0)"/>
       <use xlink:href="#DejaVuSans-10" transform="translate(254.5 0)"/>
       <use xlink:href="#DejaVuSans-13" transform="translate(290.578125 0)"/>
       <use xlink:href="#DejaVuSans-18" transform="translate(354.203125 0)"/>
      </g>
     </g>
    </g>
    <g id="xtick_12">
     <g id="line2d_23">
      <path d="M 531.275488 113.518125 
L 531.275488 22.318125 
" clip-path="url(#pd02281f253)" style="fill: none; stroke: #b0b0b0; stroke-opacity: 0.2; stroke-width: 0.8; stroke-linecap: square"/>
     </g>
     <g id="line2d_24">
      <g>
       <use xlink:href="#mf3e86ae763" x="531.275488" y="113.518125" style="stroke: #000000; stroke-width: 0.8"/>
      </g>
     </g>
     <g id="text_12">
      <!-- 2026-06 -->
      <g transform="translate(500.031864 155.435389) rotate(-45) scale(0.1 -0.1)">
       <use xlink:href="#DejaVuSans-15"/>
       <use xlink:href="#DejaVuSans-13" transform="translate(63.625 0)"/>
       <use xlink:href="#DejaVuSans-15" transform="translate(127.25 0)"/>
       <use xlink:href="#DejaVuSans-19" transform="translate(190.875 0)"/>
       <use xlink:href="#DejaVuSans-10" transform="translate(254.5 0)"/>
       <use xlink:href="#DejaVuSans-13" transform="translate(290.578125 0)"/>
       <use xlink:href="#DejaVuSans-19" transform="translate(354.203125 0)"/>
      </g>
     </g>
    </g>
   </g>
   <g id="matplotlib.axis_2">
    <g id="ytick_1">
     <g id="line2d_25">
      <path d="M 52.465625 109.37267 
L 554.665625 109.37267 
" clip-path="url(#pd02281f253)" style="fill: none; stroke: #b0b0b0; stroke-opacity: 0.2; stroke-width: 0.8; stroke-linecap: square"/>
     </g>
     <g id="line2d_26">
      <defs>
       <path id="mce5e9b399b" d="M 0 0 
L -3.5 0 
" style="stroke: #000000; stroke-width: 0.8"/>
      </defs>
      <g>
       <use xlink:href="#mce5e9b399b" x="52.465625" y="109.37267" style="stroke: #000000; stroke-width: 0.8"/>
      </g>
     </g>
     <g id="text_13">
      <!-- 0 -->
      <g transform="translate(39.103125 113.171499) scale(0.1 -0.1)">
       <use xlink:href="#DejaVuSans-13"/>
      </g>
     </g>
    </g>
    <g id="ytick_2">
     <g id="line2d_27">
      <path d="M 52.465625 72.026233 
L 554.665625 72.026233 
" clip-path="url(#pd02281f253)" style="fill: none; stroke: #b0b0b0; stroke-opacity: 0.2; stroke-width: 0.8; stroke-linecap: square"/>
     </g>
     <g id="line2d_28">
      <g>
       <use xlink:href="#mce5e9b399b" x="52.465625" y="72.026233" style="stroke: #000000; stroke-width: 0.8"/>
      </g>
     </g>
     <g id="text_14">
      <!-- 50 -->
      <g transform="translate(32.740625 75.825061) scale(0.1 -0.1)">
       <use xlink:href="#DejaVuSans-18"/>
       <use xlink:href="#DejaVuSans-13" transform="translate(63.625 0)"/>
      </g>
     </g>
    </g>
    <g id="ytick_3">
     <g id="line2d_29">
      <path d="M 52.465625 34.679796 
L 554.665625 34.679796 
" clip-path="url(#pd02281f253)" style="fill: none; stroke: #b0b0b0; stroke-opacity: 0.2; stroke-width: 0.8; stroke-linecap: square"/>
     </g>
     <g id="line2d_30">
      <g>
       <use xlink:href="#mce5e9b399b" x="52.465625" y="34.679796" style="stroke: #000000; stroke-width: 0.8"/>
      </g>
     </g>
     <g id="text_15">
      <!-- 100 -->
      <g transform="translate(26.378125 38.478624) scale(0.1 -0.1)">
       <use xlink:href="#DejaVuSans-14"/>
       <use xlink:href="#DejaVuSans-13" transform="translate(63.625 0)"/>
       <use xlink:href="#DejaVuSans-13" transform="translate(127.25 0)"/>
      </g>
     </g>
    </g>
    <g id="text_16">
     <!-- bp -->
     <g transform="translate(19.975781 74.266562) rotate(-90) scale(0.1 -0.1)">
      <defs>
       <path id="DejaVuSans-45" d="M 3116 1747 
Q 3116 2381 2855 2742 
Q 2594 3103 2138 3103 
Q 1681 3103 1420 2742 
Q 1159 2381 1159 1747 
Q 1159 1113 1420 752 
Q 1681 391 2138 391 
Q 2594 391 2855 752 
Q 3116 1113 3116 1747 
z
M 1159 2969 
Q 1341 3281 1617 3432 
Q 1894 3584 2278 3584 
Q 2916 3584 3314 3078 
Q 3713 2572 3713 1747 
Q 3713 922 3314 415 
Q 2916 -91 2278 -91 
Q 1894 -91 1617 61 
Q 1341 213 1159 525 
L 1159 0 
L 581 0 
L 581 4863 
L 1159 4863 
L 1159 2969 
z
" transform="scale(0.015625)"/>
       <path id="DejaVuSans-53" d="M 1159 525 
L 1159 -1331 
L 581 -1331 
L 581 3500 
L 1159 3500 
L 1159 2969 
Q 1341 3281 1617 3432 
Q 1894 3584 2278 3584 
Q 2916 3584 3314 3078 
Q 3713 2572 3713 1747 
Q 3713 922 3314 415 
Q 2916 -91 2278 -91 
Q 1894 -91 1617 61 
Q 1341 213 1159 525 
z
M 3116 1747 
Q 3116 2381 2855 2742 
Q 2594 3103 2138 3103 
Q 1681 3103 1420 2742 
Q 1159 2381 1159 1747 
Q 1159 1113 1420 752 
Q 1681 391 2138 391 
Q 2594 391 2855 752 
Q 3116 1113 3116 1747 
z
" transform="scale(0.015625)"/>
      </defs>
      <use xlink:href="#DejaVuSans-45"/>
      <use xlink:href="#DejaVuSans-53" transform="translate(63.484375 0)"/>
     </g>
    </g>
   </g>
   <g id="line2d_31">
    <path d="M 52.465625 30.945152 
L 53.841515 30.945152 
L 55.217406 28.704366 
L 59.345077 29.451295 
L 60.720967 31.692081 
L 62.096858 36.920582 
L 63.472748 39.908297 
L 64.848639 36.173653 
L 68.97631 37.667511 
L 70.3522 36.173653 
L 71.728091 39.161368 
L 74.479872 34.679796 
L 78.607543 34.679796 
L 79.983433 35.426725 
L 84.111104 39.908297 
L 88.238776 40.655226 
L 89.614666 42.149083 
L 90.990557 42.896012 
L 92.366447 42.149083 
L 93.742337 44.389869 
L 97.870009 44.389869 
L 99.245899 45.883727 
L 100.621789 46.630656 
L 101.99768 43.642941 
L 103.37357 43.642941 
L 107.501241 42.149083 
L 108.877132 44.389869 
L 110.253022 42.149083 
L 111.628913 40.655226 
L 113.004803 45.883727 
L 117.132474 46.630656 
L 118.508365 46.630656 
L 119.884255 47.377584 
L 121.260146 46.630656 
L 122.636036 42.896012 
L 126.763707 43.642941 
L 128.139598 45.136798 
L 129.515488 45.883727 
L 130.891378 43.642941 
L 132.267269 44.389869 
L 136.39494 45.883727 
L 137.77083 45.136798 
L 139.146721 45.883727 
L 140.522611 45.883727 
L 141.898502 47.377584 
L 146.026173 48.871442 
L 147.402063 48.871442 
L 148.777954 50.365299 
L 150.153844 49.618371 
L 151.529735 45.883727 
L 155.657406 45.883727 
L 159.785077 48.124513 
L 161.160967 47.377584 
L 165.288639 46.630656 
L 166.664529 45.136798 
L 168.04042 44.389869 
L 169.41631 45.883727 
L 170.7922 43.642941 
L 177.671652 43.642941 
L 179.047543 40.655226 
L 180.423433 39.161368 
L 184.551104 37.667511 
L 185.926995 39.908297 
L 187.302885 37.667511 
L 188.678776 37.667511 
L 190.054666 36.920582 
L 194.182337 36.173653 
L 195.558228 35.426725 
L 196.934118 39.908297 
L 198.310009 40.655226 
L 199.685899 39.161368 
L 203.81357 36.920582 
L 205.189461 38.414439 
L 206.565351 39.161368 
L 207.941241 39.161368 
L 209.317132 44.389869 
L 213.444803 44.389869 
L 214.820693 42.896012 
L 216.196584 39.908297 
L 217.572474 41.402154 
L 218.948365 39.908297 
L 223.076036 38.414439 
L 224.451926 42.149083 
L 225.827817 42.149083 
L 228.579598 39.161368 
L 232.707269 37.667511 
L 234.083159 38.414439 
L 235.45905 39.908297 
L 236.83494 36.173653 
L 238.21083 35.426725 
L 242.338502 36.173653 
L 243.714392 38.414439 
L 245.090283 33.932867 
L 246.466173 33.932867 
L 247.842063 39.161368 
L 251.969735 37.667511 
L 253.345625 37.667511 
L 254.721515 39.161368 
L 257.473296 40.655226 
L 261.600967 42.149083 
L 262.976858 44.389869 
L 264.352748 43.642941 
L 265.728639 43.642941 
L 267.104529 45.136798 
L 272.608091 45.136798 
L 275.359872 43.642941 
L 276.735762 43.642941 
L 280.863433 45.883727 
L 282.239324 45.883727 
L 283.615214 46.630656 
L 284.991104 45.883727 
L 286.366995 55.593801 
L 290.494666 53.353014 
L 291.870557 55.593801 
L 293.246447 56.340729 
L 294.622337 55.593801 
L 295.998228 53.353014 
L 300.125899 51.859157 
L 301.501789 53.353014 
L 302.87768 54.099943 
L 304.25357 55.593801 
L 305.629461 57.834587 
L 309.757132 56.340729 
L 311.133022 52.606086 
L 312.508913 53.353014 
L 313.884803 53.353014 
L 315.260693 54.099943 
L 319.388365 54.846872 
L 320.764255 54.846872 
L 322.140146 52.606086 
L 323.516036 52.606086 
L 324.891926 55.593801 
L 329.019598 53.353014 
L 330.395488 53.353014 
L 331.771378 52.606086 
L 333.147269 50.365299 
L 334.523159 49.618371 
L 338.65083 50.365299 
L 340.026721 51.859157 
L 341.402611 50.365299 
L 342.778502 48.124513 
L 344.154392 44.389869 
L 348.282063 45.883727 
L 349.657954 43.642941 
L 351.033844 46.630656 
L 352.409735 45.136798 
L 353.785625 47.377584 
L 357.913296 45.883727 
L 359.289187 47.377584 
L 360.665077 46.630656 
L 362.040967 47.377584 
L 363.416858 46.630656 
L 367.544529 45.136798 
L 368.92042 46.630656 
L 370.29631 45.136798 
L 371.6722 48.871442 
L 373.048091 48.124513 
L 377.175762 47.377584 
L 378.551652 49.618371 
L 379.927543 46.630656 
L 381.303433 48.871442 
L 382.679324 50.365299 
L 386.806995 50.365299 
L 388.182885 48.124513 
L 389.558776 45.136798 
L 392.310557 45.136798 
L 396.438228 45.883727 
L 397.814118 45.136798 
L 399.190009 45.883727 
L 400.565899 45.883727 
L 401.941789 46.630656 
L 406.069461 47.377584 
L 407.445351 48.124513 
L 408.821241 47.377584 
L 411.573022 53.353014 
L 415.700693 52.606086 
L 417.076584 52.606086 
L 418.452474 54.846872 
L 421.204255 51.859157 
L 426.707817 48.871442 
L 429.459598 48.871442 
L 430.835488 47.377584 
L 434.963159 48.871442 
L 436.33905 49.618371 
L 437.71494 45.136798 
L 439.09083 45.883727 
L 440.466721 45.136798 
L 444.594392 46.630656 
L 445.970283 46.630656 
L 448.722063 48.124513 
L 450.097954 45.136798 
L 454.225625 44.389869 
L 455.601515 46.630656 
L 456.977406 45.883727 
L 458.353296 47.377584 
L 459.729187 46.630656 
L 463.856858 46.630656 
L 466.608639 48.124513 
L 473.488091 48.124513 
L 474.863981 49.618371 
L 476.239872 48.124513 
L 477.615762 45.136798 
L 478.991652 45.883727 
L 484.495214 45.883727 
L 485.871104 48.124513 
L 488.622885 45.136798 
L 492.750557 47.377584 
L 494.126447 47.377584 
L 495.502337 45.883727 
L 498.254118 41.402154 
L 503.75768 44.389869 
L 505.13357 43.642941 
L 506.509461 41.402154 
L 507.885351 42.896012 
L 512.013022 41.402154 
L 513.388913 36.920582 
L 514.764803 35.426725 
L 516.140693 32.43901 
L 517.516584 32.43901 
L 521.644255 27.210508 
L 523.020146 32.43901 
L 524.396036 33.932867 
L 525.771926 33.932867 
L 527.147817 31.692081 
L 531.275488 31.692081 
L 534.027269 30.198223 
L 535.403159 31.692081 
L 536.77905 29.451295 
L 540.906721 32.43901 
L 542.282611 31.692081 
L 543.658502 30.198223 
L 545.034392 31.692081 
L 546.410283 28.704366 
L 550.537954 30.198223 
L 551.913844 30.945152 
L 553.289735 29.451295 
L 554.665625 26.46358 
L 554.665625 26.46358 
" clip-path="url(#pd02281f253)" style="fill: none; stroke: #444444; stroke-width: 1.5; stroke-linecap: square"/>
    <defs>
     <path id="mbd8b154e46" d="M 0 1 
C 0.265203 1 0.51958 0.894634 0.707107 0.707107 
C 0.894634 0.51958 1 0.265203 1 0 
C 1 -0.265203 0.894634 -0.51958 0.707107 -0.707107 
C 0.51958 -0.894634 0.265203 -1 0 -1 
C -0.265203 -1 -0.51958 -0.894634 -0.707107 -0.707107 
C -0.894634 -0.51958 -1 -0.265203 -1 0 
C -1 0.265203 -0.894634 0.51958 -0.707107 0.707107 
C -0.51958 0.894634 -0.265203 1 0 1 
z
" style="stroke: #444444"/>
    </defs>
    <g clip-path="url(#pd02281f253)">
     <use xlink:href="#mbd8b154e46" x="52.465625" y="30.945152" style="fill: #444444; stroke: #444444"/>
     <use xlink:href="#mbd8b154e46" x="53.841515" y="30.945152" style="fill: #444444; stroke: #444444"/>
     <use xlink:href="#mbd8b154e46" x="55.217406" y="28.704366" style="fill: #444444; stroke: #444444"/>
     <use xlink:href="#mbd8b154e46" x="59.345077" y="29.451295" style="fill: #444444; stroke: #444444"/>
     <use xlink:href="#mbd8b154e46" x="60.720967" y="31.692081" style="fill: #444444; stroke: #444444"/>
     <use xlink:href="#mbd8b154e46" x="62.096858" y="36.920582" style="fill: #444444; stroke: #444444"/>
     <use xlink:href="#mbd8b154e46" x="63.472748" y="39.908297" style="fill: #444444; stroke: #444444"/>
     <use xlink:href="#mbd8b154e46" x="64.848639" y="36.173653" style="fill: #444444; stroke: #444444"/>
     <use xlink:href="#mbd8b154e46" x="68.97631" y="37.667511" style="fill: #444444; stroke: #444444"/>
     <use xlink:href="#mbd8b154e46" x="70.3522" y="36.173653" style="fill: #444444; stroke: #444444"/>
     <use xlink:href="#mbd8b154e46" x="71.728091" y="39.161368" style="fill: #444444; stroke: #444444"/>
     <use xlink:href="#mbd8b154e46" x="73.103981" y="36.920582" style="fill: #444444; stroke: #444444"/>
     <use xlink:href="#mbd8b154e46" x="74.479872" y="34.679796" style="fill: #444444; stroke: #444444"/>
     <use xlink:href="#mbd8b154e46" x="78.607543" y="34.679796" style="fill: #444444; stroke: #444444"/>
     <use xlink:href="#mbd8b154e46" x="79.983433" y="35.426725" style="fill: #444444; stroke: #444444"/>
     <use xlink:href="#mbd8b154e46" x="81.359324" y="36.920582" style="fill: #444444; stroke: #444444"/>
     <use xlink:href="#mbd8b154e46" x="82.735214" y="38.414439" style="fill: #444444; stroke: #444444"/>
     <use xlink:href="#mbd8b154e46" x="84.111104" y="39.908297" style="fill: #444444; stroke: #444444"/>
     <use xlink:href="#mbd8b154e46" x="88.238776" y="40.655226" style="fill: #444444; stroke: #444444"/>
     <use xlink:href="#mbd8b154e46" x="89.614666" y="42.149083" style="fill: #444444; stroke: #444444"/>
     <use xlink:href="#mbd8b154e46" x="90.990557" y="42.896012" style="fill: #444444; stroke: #444444"/>
     <use xlink:href="#mbd8b154e46" x="92.366447" y="42.149083" style="fill: #444444; stroke: #444444"/>
     <use xlink:href="#mbd8b154e46" x="93.742337" y="44.389869" style="fill: #444444; stroke: #444444"/>
     <use xlink:href="#mbd8b154e46" x="97.870009" y="44.389869" style="fill: #444444; stroke: #444444"/>
     <use xlink:href="#mbd8b154e46" x="99.245899" y="45.883727" style="fill: #444444; stroke: #444444"/>
     <use xlink:href="#mbd8b154e46" x="100.621789" y="46.630656" style="fill: #444444; stroke: #444444"/>
     <use xlink:href="#mbd8b154e46" x="101.99768" y="43.642941" style="fill: #444444; stroke: #444444"/>
     <use xlink:href="#mbd8b154e46" x="103.37357" y="43.642941" style="fill: #444444; stroke: #444444"/>
     <use xlink:href="#mbd8b154e46" x="107.501241" y="42.149083" style="fill: #444444; stroke: #444444"/>
     <use xlink:href="#mbd8b154e46" x="108.877132" y="44.389869" style="fill: #444444; stroke: #444444"/>
     <use xlink:href="#mbd8b154e46" x="110.253022" y="42.149083" style="fill: #444444; stroke: #444444"/>
     <use xlink:href="#mbd8b154e46" x="111.628913" y="40.655226" style="fill: #444444; stroke: #444444"/>
     <use xlink:href="#mbd8b154e46" x="113.004803" y="45.883727" style="fill: #444444; stroke: #444444"/>
     <use xlink:href="#mbd8b154e46" x="117.132474" y="46.630656" style="fill: #444444; stroke: #444444"/>
     <use xlink:href="#mbd8b154e46" x="118.508365" y="46.630656" style="fill: #444444; stroke: #444444"/>
     <use xlink:href="#mbd8b154e46" x="119.884255" y="47.377584" style="fill: #444444; stroke: #444444"/>
     <use xlink:href="#mbd8b154e46" x="121.260146" y="46.630656" style="fill: #444444; stroke: #444444"/>
     <use xlink:href="#mbd8b154e46" x="122.636036" y="42.896012" style="fill: #444444; stroke: #444444"/>
     <use xlink:href="#mbd8b154e46" x="126.763707" y="43.642941" style="fill: #444444; stroke: #444444"/>
     <use xlink:href="#mbd8b154e46" x="128.139598" y="45.136798" style="fill: #444444; stroke: #444444"/>
     <use xlink:href="#mbd8b154e46" x="129.515488" y="45.883727" style="fill: #444444; stroke: #444444"/>
     <use xlink:href="#mbd8b154e46" x="130.891378" y="43.642941" style="fill: #444444; stroke: #444444"/>
     <use xlink:href="#mbd8b154e46" x="132.267269" y="44.389869" style="fill: #444444; stroke: #444444"/>
     <use xlink:href="#mbd8b154e46" x="136.39494" y="45.883727" style="fill: #444444; stroke: #444444"/>
     <use xlink:href="#mbd8b154e46" x="137.77083" y="45.136798" style="fill: #444444; stroke: #444444"/>
     <use xlink:href="#mbd8b154e46" x="139.146721" y="45.883727" style="fill: #444444; stroke: #444444"/>
     <use xlink:href="#mbd8b154e46" x="140.522611" y="45.883727" style="fill: #444444; stroke: #444444"/>
     <use xlink:href="#mbd8b154e46" x="141.898502" y="47.377584" style="fill: #444444; stroke: #444444"/>
     <use xlink:href="#mbd8b154e46" x="146.026173" y="48.871442" style="fill: #444444; stroke: #444444"/>
     <use xlink:href="#mbd8b154e46" x="147.402063" y="48.871442" style="fill: #444444; stroke: #444444"/>
     <use xlink:href="#mbd8b154e46" x="148.777954" y="50.365299" style="fill: #444444; stroke: #444444"/>
     <use xlink:href="#mbd8b154e46" x="150.153844" y="49.618371" style="fill: #444444; stroke: #444444"/>
     <use xlink:href="#mbd8b154e46" x="151.529735" y="45.883727" style="fill: #444444; stroke: #444444"/>
     <use xlink:href="#mbd8b154e46" x="155.657406" y="45.883727" style="fill: #444444; stroke: #444444"/>
     <use xlink:href="#mbd8b154e46" x="157.033296" y="46.630656" style="fill: #444444; stroke: #444444"/>
     <use xlink:href="#mbd8b154e46" x="158.409187" y="47.377584" style="fill: #444444; stroke: #444444"/>
     <use xlink:href="#mbd8b154e46" x="159.785077" y="48.124513" style="fill: #444444; stroke: #444444"/>
     <use xlink:href="#mbd8b154e46" x="161.160967" y="47.377584" style="fill: #444444; stroke: #444444"/>
     <use xlink:href="#mbd8b154e46" x="165.288639" y="46.630656" style="fill: #444444; stroke: #444444"/>
     <use xlink:href="#mbd8b154e46" x="166.664529" y="45.136798" style="fill: #444444; stroke: #444444"/>
     <use xlink:href="#mbd8b154e46" x="168.04042" y="44.389869" style="fill: #444444; stroke: #444444"/>
     <use xlink:href="#mbd8b154e46" x="169.41631" y="45.883727" style="fill: #444444; stroke: #444444"/>
     <use xlink:href="#mbd8b154e46" x="170.7922" y="43.642941" style="fill: #444444; stroke: #444444"/>
     <use xlink:href="#mbd8b154e46" x="174.919872" y="43.642941" style="fill: #444444; stroke: #444444"/>
     <use xlink:href="#mbd8b154e46" x="176.295762" y="43.642941" style="fill: #444444; stroke: #444444"/>
     <use xlink:href="#mbd8b154e46" x="177.671652" y="43.642941" style="fill: #444444; stroke: #444444"/>
     <use xlink:href="#mbd8b154e46" x="179.047543" y="40.655226" style="fill: #444444; stroke: #444444"/>
     <use xlink:href="#mbd8b154e46" x="180.423433" y="39.161368" style="fill: #444444; stroke: #444444"/>
     <use xlink:href="#mbd8b154e46" x="184.551104" y="37.667511" style="fill: #444444; stroke: #444444"/>
     <use xlink:href="#mbd8b154e46" x="185.926995" y="39.908297" style="fill: #444444; stroke: #444444"/>
     <use xlink:href="#mbd8b154e46" x="187.302885" y="37.667511" style="fill: #444444; stroke: #444444"/>
     <use xlink:href="#mbd8b154e46" x="188.678776" y="37.667511" style="fill: #444444; stroke: #444444"/>
     <use xlink:href="#mbd8b154e46" x="190.054666" y="36.920582" style="fill: #444444; stroke: #444444"/>
     <use xlink:href="#mbd8b154e46" x="194.182337" y="36.173653" style="fill: #444444; stroke: #444444"/>
     <use xlink:href="#mbd8b154e46" x="195.558228" y="35.426725" style="fill: #444444; stroke: #444444"/>
     <use xlink:href="#mbd8b154e46" x="196.934118" y="39.908297" style="fill: #444444; stroke: #444444"/>
     <use xlink:href="#mbd8b154e46" x="198.310009" y="40.655226" style="fill: #444444; stroke: #444444"/>
     <use xlink:href="#mbd8b154e46" x="199.685899" y="39.161368" style="fill: #444444; stroke: #444444"/>
     <use xlink:href="#mbd8b154e46" x="203.81357" y="36.920582" style="fill: #444444; stroke: #444444"/>
     <use xlink:href="#mbd8b154e46" x="205.189461" y="38.414439" style="fill: #444444; stroke: #444444"/>
     <use xlink:href="#mbd8b154e46" x="206.565351" y="39.161368" style="fill: #444444; stroke: #444444"/>
     <use xlink:href="#mbd8b154e46" x="207.941241" y="39.161368" style="fill: #444444; stroke: #444444"/>
     <use xlink:href="#mbd8b154e46" x="209.317132" y="44.389869" style="fill: #444444; stroke: #444444"/>
     <use xlink:href="#mbd8b154e46" x="213.444803" y="44.389869" style="fill: #444444; stroke: #444444"/>
     <use xlink:href="#mbd8b154e46" x="214.820693" y="42.896012" style="fill: #444444; stroke: #444444"/>
     <use xlink:href="#mbd8b154e46" x="216.196584" y="39.908297" style="fill: #444444; stroke: #444444"/>
     <use xlink:href="#mbd8b154e46" x="217.572474" y="41.402154" style="fill: #444444; stroke: #444444"/>
     <use xlink:href="#mbd8b154e46" x="218.948365" y="39.908297" style="fill: #444444; stroke: #444444"/>
     <use xlink:href="#mbd8b154e46" x="223.076036" y="38.414439" style="fill: #444444; stroke: #444444"/>
     <use xlink:href="#mbd8b154e46" x="224.451926" y="42.149083" style="fill: #444444; stroke: #444444"/>
     <use xlink:href="#mbd8b154e46" x="225.827817" y="42.149083" style="fill: #444444; stroke: #444444"/>
     <use xlink:href="#mbd8b154e46" x="227.203707" y="40.655226" style="fill: #444444; stroke: #444444"/>
     <use xlink:href="#mbd8b154e46" x="228.579598" y="39.161368" style="fill: #444444; stroke: #444444"/>
     <use xlink:href="#mbd8b154e46" x="232.707269" y="37.667511" style="fill: #444444; stroke: #444444"/>
     <use xlink:href="#mbd8b154e46" x="234.083159" y="38.414439" style="fill: #444444; stroke: #444444"/>
     <use xlink:href="#mbd8b154e46" x="235.45905" y="39.908297" style="fill: #444444; stroke: #444444"/>
     <use xlink:href="#mbd8b154e46" x="236.83494" y="36.173653" style="fill: #444444; stroke: #444444"/>
     <use xlink:href="#mbd8b154e46" x="238.21083" y="35.426725" style="fill: #444444; stroke: #444444"/>
     <use xlink:href="#mbd8b154e46" x="242.338502" y="36.173653" style="fill: #444444; stroke: #444444"/>
     <use xlink:href="#mbd8b154e46" x="243.714392" y="38.414439" style="fill: #444444; stroke: #444444"/>
     <use xlink:href="#mbd8b154e46" x="245.090283" y="33.932867" style="fill: #444444; stroke: #444444"/>
     <use xlink:href="#mbd8b154e46" x="246.466173" y="33.932867" style="fill: #444444; stroke: #444444"/>
     <use xlink:href="#mbd8b154e46" x="247.842063" y="39.161368" style="fill: #444444; stroke: #444444"/>
     <use xlink:href="#mbd8b154e46" x="251.969735" y="37.667511" style="fill: #444444; stroke: #444444"/>
     <use xlink:href="#mbd8b154e46" x="253.345625" y="37.667511" style="fill: #444444; stroke: #444444"/>
     <use xlink:href="#mbd8b154e46" x="254.721515" y="39.161368" style="fill: #444444; stroke: #444444"/>
     <use xlink:href="#mbd8b154e46" x="256.097406" y="39.908297" style="fill: #444444; stroke: #444444"/>
     <use xlink:href="#mbd8b154e46" x="257.473296" y="40.655226" style="fill: #444444; stroke: #444444"/>
     <use xlink:href="#mbd8b154e46" x="261.600967" y="42.149083" style="fill: #444444; stroke: #444444"/>
     <use xlink:href="#mbd8b154e46" x="262.976858" y="44.389869" style="fill: #444444; stroke: #444444"/>
     <use xlink:href="#mbd8b154e46" x="264.352748" y="43.642941" style="fill: #444444; stroke: #444444"/>
     <use xlink:href="#mbd8b154e46" x="265.728639" y="43.642941" style="fill: #444444; stroke: #444444"/>
     <use xlink:href="#mbd8b154e46" x="267.104529" y="45.136798" style="fill: #444444; stroke: #444444"/>
     <use xlink:href="#mbd8b154e46" x="271.2322" y="45.136798" style="fill: #444444; stroke: #444444"/>
     <use xlink:href="#mbd8b154e46" x="272.608091" y="45.136798" style="fill: #444444; stroke: #444444"/>
     <use xlink:href="#mbd8b154e46" x="273.983981" y="44.389869" style="fill: #444444; stroke: #444444"/>
     <use xlink:href="#mbd8b154e46" x="275.359872" y="43.642941" style="fill: #444444; stroke: #444444"/>
     <use xlink:href="#mbd8b154e46" x="276.735762" y="43.642941" style="fill: #444444; stroke: #444444"/>
     <use xlink:href="#mbd8b154e46" x="280.863433" y="45.883727" style="fill: #444444; stroke: #444444"/>
     <use xlink:href="#mbd8b154e46" x="282.239324" y="45.883727" style="fill: #444444; stroke: #444444"/>
     <use xlink:href="#mbd8b154e46" x="283.615214" y="46.630656" style="fill: #444444; stroke: #444444"/>
     <use xlink:href="#mbd8b154e46" x="284.991104" y="45.883727" style="fill: #444444; stroke: #444444"/>
     <use xlink:href="#mbd8b154e46" x="286.366995" y="55.593801" style="fill: #444444; stroke: #444444"/>
     <use xlink:href="#mbd8b154e46" x="290.494666" y="53.353014" style="fill: #444444; stroke: #444444"/>
     <use xlink:href="#mbd8b154e46" x="291.870557" y="55.593801" style="fill: #444444; stroke: #444444"/>
     <use xlink:href="#mbd8b154e46" x="293.246447" y="56.340729" style="fill: #444444; stroke: #444444"/>
     <use xlink:href="#mbd8b154e46" x="294.622337" y="55.593801" style="fill: #444444; stroke: #444444"/>
     <use xlink:href="#mbd8b154e46" x="295.998228" y="53.353014" style="fill: #444444; stroke: #444444"/>
     <use xlink:href="#mbd8b154e46" x="300.125899" y="51.859157" style="fill: #444444; stroke: #444444"/>
     <use xlink:href="#mbd8b154e46" x="301.501789" y="53.353014" style="fill: #444444; stroke: #444444"/>
     <use xlink:href="#mbd8b154e46" x="302.87768" y="54.099943" style="fill: #444444; stroke: #444444"/>
     <use xlink:href="#mbd8b154e46" x="304.25357" y="55.593801" style="fill: #444444; stroke: #444444"/>
     <use xlink:href="#mbd8b154e46" x="305.629461" y="57.834587" style="fill: #444444; stroke: #444444"/>
     <use xlink:href="#mbd8b154e46" x="309.757132" y="56.340729" style="fill: #444444; stroke: #444444"/>
     <use xlink:href="#mbd8b154e46" x="311.133022" y="52.606086" style="fill: #444444; stroke: #444444"/>
     <use xlink:href="#mbd8b154e46" x="312.508913" y="53.353014" style="fill: #444444; stroke: #444444"/>
     <use xlink:href="#mbd8b154e46" x="313.884803" y="53.353014" style="fill: #444444; stroke: #444444"/>
     <use xlink:href="#mbd8b154e46" x="315.260693" y="54.099943" style="fill: #444444; stroke: #444444"/>
     <use xlink:href="#mbd8b154e46" x="319.388365" y="54.846872" style="fill: #444444; stroke: #444444"/>
     <use xlink:href="#mbd8b154e46" x="320.764255" y="54.846872" style="fill: #444444; stroke: #444444"/>
     <use xlink:href="#mbd8b154e46" x="322.140146" y="52.606086" style="fill: #444444; stroke: #444444"/>
     <use xlink:href="#mbd8b154e46" x="323.516036" y="52.606086" style="fill: #444444; stroke: #444444"/>
     <use xlink:href="#mbd8b154e46" x="324.891926" y="55.593801" style="fill: #444444; stroke: #444444"/>
     <use xlink:href="#mbd8b154e46" x="329.019598" y="53.353014" style="fill: #444444; stroke: #444444"/>
     <use xlink:href="#mbd8b154e46" x="330.395488" y="53.353014" style="fill: #444444; stroke: #444444"/>
     <use xlink:href="#mbd8b154e46" x="331.771378" y="52.606086" style="fill: #444444; stroke: #444444"/>
     <use xlink:href="#mbd8b154e46" x="333.147269" y="50.365299" style="fill: #444444; stroke: #444444"/>
     <use xlink:href="#mbd8b154e46" x="334.523159" y="49.618371" style="fill: #444444; stroke: #444444"/>
     <use xlink:href="#mbd8b154e46" x="338.65083" y="50.365299" style="fill: #444444; stroke: #444444"/>
     <use xlink:href="#mbd8b154e46" x="340.026721" y="51.859157" style="fill: #444444; stroke: #444444"/>
     <use xlink:href="#mbd8b154e46" x="341.402611" y="50.365299" style="fill: #444444; stroke: #444444"/>
     <use xlink:href="#mbd8b154e46" x="342.778502" y="48.124513" style="fill: #444444; stroke: #444444"/>
     <use xlink:href="#mbd8b154e46" x="344.154392" y="44.389869" style="fill: #444444; stroke: #444444"/>
     <use xlink:href="#mbd8b154e46" x="348.282063" y="45.883727" style="fill: #444444; stroke: #444444"/>
     <use xlink:href="#mbd8b154e46" x="349.657954" y="43.642941" style="fill: #444444; stroke: #444444"/>
     <use xlink:href="#mbd8b154e46" x="351.033844" y="46.630656" style="fill: #444444; stroke: #444444"/>
     <use xlink:href="#mbd8b154e46" x="352.409735" y="45.136798" style="fill: #444444; stroke: #444444"/>
     <use xlink:href="#mbd8b154e46" x="353.785625" y="47.377584" style="fill: #444444; stroke: #444444"/>
     <use xlink:href="#mbd8b154e46" x="357.913296" y="45.883727" style="fill: #444444; stroke: #444444"/>
     <use xlink:href="#mbd8b154e46" x="359.289187" y="47.377584" style="fill: #444444; stroke: #444444"/>
     <use xlink:href="#mbd8b154e46" x="360.665077" y="46.630656" style="fill: #444444; stroke: #444444"/>
     <use xlink:href="#mbd8b154e46" x="362.040967" y="47.377584" style="fill: #444444; stroke: #444444"/>
     <use xlink:href="#mbd8b154e46" x="363.416858" y="46.630656" style="fill: #444444; stroke: #444444"/>
     <use xlink:href="#mbd8b154e46" x="367.544529" y="45.136798" style="fill: #444444; stroke: #444444"/>
     <use xlink:href="#mbd8b154e46" x="368.92042" y="46.630656" style="fill: #444444; stroke: #444444"/>
     <use xlink:href="#mbd8b154e46" x="370.29631" y="45.136798" style="fill: #444444; stroke: #444444"/>
     <use xlink:href="#mbd8b154e46" x="371.6722" y="48.871442" style="fill: #444444; stroke: #444444"/>
     <use xlink:href="#mbd8b154e46" x="373.048091" y="48.124513" style="fill: #444444; stroke: #444444"/>
     <use xlink:href="#mbd8b154e46" x="377.175762" y="47.377584" style="fill: #444444; stroke: #444444"/>
     <use xlink:href="#mbd8b154e46" x="378.551652" y="49.618371" style="fill: #444444; stroke: #444444"/>
     <use xlink:href="#mbd8b154e46" x="379.927543" y="46.630656" style="fill: #444444; stroke: #444444"/>
     <use xlink:href="#mbd8b154e46" x="381.303433" y="48.871442" style="fill: #444444; stroke: #444444"/>
     <use xlink:href="#mbd8b154e46" x="382.679324" y="50.365299" style="fill: #444444; stroke: #444444"/>
     <use xlink:href="#mbd8b154e46" x="386.806995" y="50.365299" style="fill: #444444; stroke: #444444"/>
     <use xlink:href="#mbd8b154e46" x="388.182885" y="48.124513" style="fill: #444444; stroke: #444444"/>
     <use xlink:href="#mbd8b154e46" x="389.558776" y="45.136798" style="fill: #444444; stroke: #444444"/>
     <use xlink:href="#mbd8b154e46" x="390.934666" y="45.136798" style="fill: #444444; stroke: #444444"/>
     <use xlink:href="#mbd8b154e46" x="392.310557" y="45.136798" style="fill: #444444; stroke: #444444"/>
     <use xlink:href="#mbd8b154e46" x="396.438228" y="45.883727" style="fill: #444444; stroke: #444444"/>
     <use xlink:href="#mbd8b154e46" x="397.814118" y="45.136798" style="fill: #444444; stroke: #444444"/>
     <use xlink:href="#mbd8b154e46" x="399.190009" y="45.883727" style="fill: #444444; stroke: #444444"/>
     <use xlink:href="#mbd8b154e46" x="400.565899" y="45.883727" style="fill: #444444; stroke: #444444"/>
     <use xlink:href="#mbd8b154e46" x="401.941789" y="46.630656" style="fill: #444444; stroke: #444444"/>
     <use xlink:href="#mbd8b154e46" x="406.069461" y="47.377584" style="fill: #444444; stroke: #444444"/>
     <use xlink:href="#mbd8b154e46" x="407.445351" y="48.124513" style="fill: #444444; stroke: #444444"/>
     <use xlink:href="#mbd8b154e46" x="408.821241" y="47.377584" style="fill: #444444; stroke: #444444"/>
     <use xlink:href="#mbd8b154e46" x="410.197132" y="50.365299" style="fill: #444444; stroke: #444444"/>
     <use xlink:href="#mbd8b154e46" x="411.573022" y="53.353014" style="fill: #444444; stroke: #444444"/>
     <use xlink:href="#mbd8b154e46" x="415.700693" y="52.606086" style="fill: #444444; stroke: #444444"/>
     <use xlink:href="#mbd8b154e46" x="417.076584" y="52.606086" style="fill: #444444; stroke: #444444"/>
     <use xlink:href="#mbd8b154e46" x="418.452474" y="54.846872" style="fill: #444444; stroke: #444444"/>
     <use xlink:href="#mbd8b154e46" x="419.828365" y="53.353014" style="fill: #444444; stroke: #444444"/>
     <use xlink:href="#mbd8b154e46" x="421.204255" y="51.859157" style="fill: #444444; stroke: #444444"/>
     <use xlink:href="#mbd8b154e46" x="425.331926" y="49.618371" style="fill: #444444; stroke: #444444"/>
     <use xlink:href="#mbd8b154e46" x="426.707817" y="48.871442" style="fill: #444444; stroke: #444444"/>
     <use xlink:href="#mbd8b154e46" x="428.083707" y="48.871442" style="fill: #444444; stroke: #444444"/>
     <use xlink:href="#mbd8b154e46" x="429.459598" y="48.871442" style="fill: #444444; stroke: #444444"/>
     <use xlink:href="#mbd8b154e46" x="430.835488" y="47.377584" style="fill: #444444; stroke: #444444"/>
     <use xlink:href="#mbd8b154e46" x="434.963159" y="48.871442" style="fill: #444444; stroke: #444444"/>
     <use xlink:href="#mbd8b154e46" x="436.33905" y="49.618371" style="fill: #444444; stroke: #444444"/>
     <use xlink:href="#mbd8b154e46" x="437.71494" y="45.136798" style="fill: #444444; stroke: #444444"/>
     <use xlink:href="#mbd8b154e46" x="439.09083" y="45.883727" style="fill: #444444; stroke: #444444"/>
     <use xlink:href="#mbd8b154e46" x="440.466721" y="45.136798" style="fill: #444444; stroke: #444444"/>
     <use xlink:href="#mbd8b154e46" x="444.594392" y="46.630656" style="fill: #444444; stroke: #444444"/>
     <use xlink:href="#mbd8b154e46" x="445.970283" y="46.630656" style="fill: #444444; stroke: #444444"/>
     <use xlink:href="#mbd8b154e46" x="447.346173" y="47.377584" style="fill: #444444; stroke: #444444"/>
     <use xlink:href="#mbd8b154e46" x="448.722063" y="48.124513" style="fill: #444444; stroke: #444444"/>
     <use xlink:href="#mbd8b154e46" x="450.097954" y="45.136798" style="fill: #444444; stroke: #444444"/>
     <use xlink:href="#mbd8b154e46" x="454.225625" y="44.389869" style="fill: #444444; stroke: #444444"/>
     <use xlink:href="#mbd8b154e46" x="455.601515" y="46.630656" style="fill: #444444; stroke: #444444"/>
     <use xlink:href="#mbd8b154e46" x="456.977406" y="45.883727" style="fill: #444444; stroke: #444444"/>
     <use xlink:href="#mbd8b154e46" x="458.353296" y="47.377584" style="fill: #444444; stroke: #444444"/>
     <use xlink:href="#mbd8b154e46" x="459.729187" y="46.630656" style="fill: #444444; stroke: #444444"/>
     <use xlink:href="#mbd8b154e46" x="463.856858" y="46.630656" style="fill: #444444; stroke: #444444"/>
     <use xlink:href="#mbd8b154e46" x="465.232748" y="47.377584" style="fill: #444444; stroke: #444444"/>
     <use xlink:href="#mbd8b154e46" x="466.608639" y="48.124513" style="fill: #444444; stroke: #444444"/>
     <use xlink:href="#mbd8b154e46" x="467.984529" y="48.124513" style="fill: #444444; stroke: #444444"/>
     <use xlink:href="#mbd8b154e46" x="469.36042" y="48.124513" style="fill: #444444; stroke: #444444"/>
     <use xlink:href="#mbd8b154e46" x="473.488091" y="48.124513" style="fill: #444444; stroke: #444444"/>
     <use xlink:href="#mbd8b154e46" x="474.863981" y="49.618371" style="fill: #444444; stroke: #444444"/>
     <use xlink:href="#mbd8b154e46" x="476.239872" y="48.124513" style="fill: #444444; stroke: #444444"/>
     <use xlink:href="#mbd8b154e46" x="477.615762" y="45.136798" style="fill: #444444; stroke: #444444"/>
     <use xlink:href="#mbd8b154e46" x="478.991652" y="45.883727" style="fill: #444444; stroke: #444444"/>
     <use xlink:href="#mbd8b154e46" x="483.119324" y="45.883727" style="fill: #444444; stroke: #444444"/>
     <use xlink:href="#mbd8b154e46" x="484.495214" y="45.883727" style="fill: #444444; stroke: #444444"/>
     <use xlink:href="#mbd8b154e46" x="485.871104" y="48.124513" style="fill: #444444; stroke: #444444"/>
     <use xlink:href="#mbd8b154e46" x="487.246995" y="46.630656" style="fill: #444444; stroke: #444444"/>
     <use xlink:href="#mbd8b154e46" x="488.622885" y="45.136798" style="fill: #444444; stroke: #444444"/>
     <use xlink:href="#mbd8b154e46" x="492.750557" y="47.377584" style="fill: #444444; stroke: #444444"/>
     <use xlink:href="#mbd8b154e46" x="494.126447" y="47.377584" style="fill: #444444; stroke: #444444"/>
     <use xlink:href="#mbd8b154e46" x="495.502337" y="45.883727" style="fill: #444444; stroke: #444444"/>
     <use xlink:href="#mbd8b154e46" x="496.878228" y="43.642941" style="fill: #444444; stroke: #444444"/>
     <use xlink:href="#mbd8b154e46" x="498.254118" y="41.402154" style="fill: #444444; stroke: #444444"/>
     <use xlink:href="#mbd8b154e46" x="502.381789" y="43.642941" style="fill: #444444; stroke: #444444"/>
     <use xlink:href="#mbd8b154e46" x="503.75768" y="44.389869" style="fill: #444444; stroke: #444444"/>
     <use xlink:href="#mbd8b154e46" x="505.13357" y="43.642941" style="fill: #444444; stroke: #444444"/>
     <use xlink:href="#mbd8b154e46" x="506.509461" y="41.402154" style="fill: #444444; stroke: #444444"/>
     <use xlink:href="#mbd8b154e46" x="507.885351" y="42.896012" style="fill: #444444; stroke: #444444"/>
     <use xlink:href="#mbd8b154e46" x="512.013022" y="41.402154" style="fill: #444444; stroke: #444444"/>
     <use xlink:href="#mbd8b154e46" x="513.388913" y="36.920582" style="fill: #444444; stroke: #444444"/>
     <use xlink:href="#mbd8b154e46" x="514.764803" y="35.426725" style="fill: #444444; stroke: #444444"/>
     <use xlink:href="#mbd8b154e46" x="516.140693" y="32.43901" style="fill: #444444; stroke: #444444"/>
     <use xlink:href="#mbd8b154e46" x="517.516584" y="32.43901" style="fill: #444444; stroke: #444444"/>
     <use xlink:href="#mbd8b154e46" x="521.644255" y="27.210508" style="fill: #444444; stroke: #444444"/>
     <use xlink:href="#mbd8b154e46" x="523.020146" y="32.43901" style="fill: #444444; stroke: #444444"/>
     <use xlink:href="#mbd8b154e46" x="524.396036" y="33.932867" style="fill: #444444; stroke: #444444"/>
     <use xlink:href="#mbd8b154e46" x="525.771926" y="33.932867" style="fill: #444444; stroke: #444444"/>
     <use xlink:href="#mbd8b154e46" x="527.147817" y="31.692081" style="fill: #444444; stroke: #444444"/>
     <use xlink:href="#mbd8b154e46" x="531.275488" y="31.692081" style="fill: #444444; stroke: #444444"/>
     <use xlink:href="#mbd8b154e46" x="532.651378" y="30.945152" style="fill: #444444; stroke: #444444"/>
     <use xlink:href="#mbd8b154e46" x="534.027269" y="30.198223" style="fill: #444444; stroke: #444444"/>
     <use xlink:href="#mbd8b154e46" x="535.403159" y="31.692081" style="fill: #444444; stroke: #444444"/>
     <use xlink:href="#mbd8b154e46" x="536.77905" y="29.451295" style="fill: #444444; stroke: #444444"/>
     <use xlink:href="#mbd8b154e46" x="540.906721" y="32.43901" style="fill: #444444; stroke: #444444"/>
     <use xlink:href="#mbd8b154e46" x="542.282611" y="31.692081" style="fill: #444444; stroke: #444444"/>
     <use xlink:href="#mbd8b154e46" x="543.658502" y="30.198223" style="fill: #444444; stroke: #444444"/>
     <use xlink:href="#mbd8b154e46" x="545.034392" y="31.692081" style="fill: #444444; stroke: #444444"/>
     <use xlink:href="#mbd8b154e46" x="546.410283" y="28.704366" style="fill: #444444; stroke: #444444"/>
     <use xlink:href="#mbd8b154e46" x="550.537954" y="30.198223" style="fill: #444444; stroke: #444444"/>
     <use xlink:href="#mbd8b154e46" x="551.913844" y="30.945152" style="fill: #444444; stroke: #444444"/>
     <use xlink:href="#mbd8b154e46" x="553.289735" y="29.451295" style="fill: #444444; stroke: #444444"/>
     <use xlink:href="#mbd8b154e46" x="554.665625" y="26.46358" style="fill: #444444; stroke: #444444"/>
    </g>
   </g>
   <g id="line2d_32">
    <path d="M 52.465625 109.37267 
L 554.665625 109.37267 
" clip-path="url(#pd02281f253)" style="fill: none; stroke: #000000; stroke-linecap: square"/>
   </g>
   <g id="patch_3">
    <path d="M 52.465625 113.518125 
L 52.465625 22.318125 
" style="fill: none; stroke: #000000; stroke-width: 0.8; stroke-linejoin: miter; stroke-linecap: square"/>
   </g>
   <g id="patch_4">
    <path d="M 554.665625 113.518125 
L 554.665625 22.318125 
" style="fill: none; stroke: #000000; stroke-width: 0.8; stroke-linejoin: miter; stroke-linecap: square"/>
   </g>
   <g id="patch_5">
    <path d="M 52.465625 113.518125 
L 554.665625 113.518125 
" style="fill: none; stroke: #000000; stroke-width: 0.8; stroke-linejoin: miter; stroke-linecap: square"/>
   </g>
   <g id="patch_6">
    <path d="M 52.465625 22.318125 
L 554.665625 22.318125 
" style="fill: none; stroke: #000000; stroke-width: 0.8; stroke-linejoin: miter; stroke-linecap: square"/>
   </g>
   <g id="text_17">
    <!-- UST10 – GoC10 Spread (bp) -->
    <g transform="translate(219.862813 16.318125) scale(0.12 -0.12)">
     <defs>
      <path id="DejaVuSans-38" d="M 556 4666 
L 1191 4666 
L 1191 1831 
Q 1191 1081 1462 751 
Q 1734 422 2344 422 
Q 2950 422 3222 751 
Q 3494 1081 3494 1831 
L 3494 4666 
L 4128 4666 
L 4128 1753 
Q 4128 841 3676 375 
Q 3225 -91 2344 -91 
Q 1459 -91 1007 375 
Q 556 841 556 1753 
L 556 4666 
z
" transform="scale(0.015625)"/>
      <path id="DejaVuSans-36" d="M 3425 4513 
L 3425 3897 
Q 3066 4069 2747 4153 
Q 2428 4238 2131 4238 
Q 1616 4238 1336 4038 
Q 1056 3838 1056 3469 
Q 1056 3159 1242 3001 
Q 1428 2844 1947 2747 
L 2328 2669 
Q 3034 2534 3370 2195 
Q 3706 1856 3706 1288 
Q 3706 609 3251 259 
Q 2797 -91 1919 -91 
Q 1588 -91 1214 -16 
Q 841 59 441 206 
L 441 856 
Q 825 641 1194 531 
Q 1563 422 1919 422 
Q 2459 422 2753 634 
Q 3047 847 3047 1241 
Q 3047 1584 2836 1778 
Q 2625 1972 2144 2069 
L 1759 2144 
Q 1053 2284 737 2584 
Q 422 2884 422 3419 
Q 422 4038 858 4394 
Q 1294 4750 2059 4750 
Q 2388 4750 2728 4690 
Q 3069 4631 3425 4513 
z
" transform="scale(0.015625)"/>
      <path id="DejaVuSans-37" d="M -19 4666 
L 3928 4666 
L 3928 4134 
L 2272 4134 
L 2272 0 
L 1638 0 
L 1638 4134 
L -19 4134 
L -19 4666 
z
" transform="scale(0.015625)"/>
      <path id="DejaVuSans-3" transform="scale(0.015625)"/>
      <path id="DejaVuSans-af5" d="M 313 1978 
L 2888 1978 
L 2888 1528 
L 313 1528 
L 313 1978 
z
" transform="scale(0.015625)"/>
      <path id="DejaVuSans-2a" d="M 3809 666 
L 3809 1919 
L 2778 1919 
L 2778 2438 
L 4434 2438 
L 4434 434 
Q 4069 175 3628 42 
Q 3188 -91 2688 -91 
Q 1594 -91 976 548 
Q 359 1188 359 2328 
Q 359 3472 976 4111 
Q 1594 4750 2688 4750 
Q 3144 4750 3555 4637 
Q 3966 4525 4313 4306 
L 4313 3634 
Q 3963 3931 3569 4081 
Q 3175 4231 2741 4231 
Q 1884 4231 1454 3753 
Q 1025 3275 1025 2328 
Q 1025 1384 1454 906 
Q 1884 428 2741 428 
Q 3075 428 3337 486 
Q 3600 544 3809 666 
z
" transform="scale(0.015625)"/>
      <path id="DejaVuSans-52" d="M 1959 3097 
Q 1497 3097 1228 2736 
Q 959 2375 959 1747 
Q 959 1119 1226 758 
Q 1494 397 1959 397 
Q 2419 397 2687 759 
Q 2956 1122 2956 1747 
Q 2956 2369 2687 2733 
Q 2419 3097 1959 3097 
z
M 1959 3584 
Q 2709 3584 3137 3096 
Q 3566 2609 3566 1747 
Q 3566 888 3137 398 
Q 2709 -91 1959 -91 
Q 1206 -91 779 398 
Q 353 888 353 1747 
Q 353 2609 779 3096 
Q 1206 3584 1959 3584 
z
" transform="scale(0.015625)"/>
      <path id="DejaVuSans-26" d="M 4122 4306 
L 4122 3641 
Q 3803 3938 3442 4084 
Q 3081 4231 2675 4231 
Q 1875 4231 1450 3742 
Q 1025 3253 1025 2328 
Q 1025 1406 1450 917 
Q 1875 428 2675 428 
Q 3081 428 3442 575 
Q 3803 722 4122 1019 
L 4122 359 
Q 3791 134 3420 21 
Q 3050 -91 2638 -91 
Q 1578 -91 968 557 
Q 359 1206 359 2328 
Q 359 3453 968 4101 
Q 1578 4750 2638 4750 
Q 3056 4750 3426 4639 
Q 3797 4528 4122 4306 
z
" transform="scale(0.015625)"/>
      <path id="DejaVuSans-55" d="M 2631 2963 
Q 2534 3019 2420 3045 
Q 2306 3072 2169 3072 
Q 1681 3072 1420 2755 
Q 1159 2438 1159 1844 
L 1159 0 
L 581 0 
L 581 3500 
L 1159 3500 
L 1159 2956 
Q 1341 3275 1631 3429 
Q 1922 3584 2338 3584 
Q 2397 3584 2469 3576 
Q 2541 3569 2628 3553 
L 2631 2963 
z
" transform="scale(0.015625)"/>
      <path id="DejaVuSans-48" d="M 3597 1894 
L 3597 1613 
L 953 1613 
Q 991 1019 1311 708 
Q 1631 397 2203 397 
Q 2534 397 2845 478 
Q 3156 559 3463 722 
L 3463 178 
Q 3153 47 2828 -22 
Q 2503 -91 2169 -91 
Q 1331 -91 842 396 
Q 353 884 353 1716 
Q 353 2575 817 3079 
Q 1281 3584 2069 3584 
Q 2775 3584 3186 3129 
Q 3597 2675 3597 1894 
z
M 3022 2063 
Q 3016 2534 2758 2815 
Q 2500 3097 2075 3097 
Q 1594 3097 1305 2825 
Q 1016 2553 972 2059 
L 3022 2063 
z
" transform="scale(0.015625)"/>
      <path id="DejaVuSans-44" d="M 2194 1759 
Q 1497 1759 1228 1600 
Q 959 1441 959 1056 
Q 959 750 1161 570 
Q 1363 391 1709 391 
Q 2188 391 2477 730 
Q 2766 1069 2766 1631 
L 2766 1759 
L 2194 1759 
z
M 3341 1997 
L 3341 0 
L 2766 0 
L 2766 531 
Q 2569 213 2275 61 
Q 1981 -91 1556 -91 
Q 1019 -91 701 211 
Q 384 513 384 1019 
Q 384 1609 779 1909 
Q 1175 2209 1959 2209 
L 2766 2209 
L 2766 2266 
Q 2766 2663 2505 2880 
Q 2244 3097 1772 3097 
Q 1472 3097 1187 3025 
Q 903 2953 641 2809 
L 641 3341 
Q 956 3463 1253 3523 
Q 1550 3584 1831 3584 
Q 2591 3584 2966 3190 
Q 3341 2797 3341 1997 
z
" transform="scale(0.015625)"/>
      <path id="DejaVuSans-47" d="M 2906 2969 
L 2906 4863 
L 3481 4863 
L 3481 0 
L 2906 0 
L 2906 525 
Q 2725 213 2448 61 
Q 2172 -91 1784 -91 
Q 1150 -91 751 415 
Q 353 922 353 1747 
Q 353 2572 751 3078 
Q 1150 3584 1784 3584 
Q 2172 3584 2448 3432 
Q 2725 3281 2906 2969 
z
M 947 1747 
Q 947 1113 1208 752 
Q 1469 391 1925 391 
Q 2381 391 2643 752 
Q 2906 1113 2906 1747 
Q 2906 2381 2643 2742 
Q 2381 3103 1925 3103 
Q 1469 3103 1208 2742 
Q 947 2381 947 1747 
z
" transform="scale(0.015625)"/>
      <path id="DejaVuSans-b" d="M 1984 4856 
Q 1566 4138 1362 3434 
Q 1159 2731 1159 2009 
Q 1159 1288 1364 580 
Q 1569 -128 1984 -844 
L 1484 -844 
Q 1016 -109 783 600 
Q 550 1309 550 2009 
Q 550 2706 781 3412 
Q 1013 4119 1484 4856 
L 1984 4856 
z
" transform="scale(0.015625)"/>
      <path id="DejaVuSans-c" d="M 513 4856 
L 1013 4856 
Q 1481 4119 1714 3412 
Q 1947 2706 1947 2009 
Q 1947 1309 1714 600 
Q 1481 -109 1013 -844 
L 513 -844 
Q 928 -128 1133 580 
Q 1338 1288 1338 2009 
Q 1338 2731 1133 3434 
Q 928 4138 513 4856 
z
" transform="scale(0.015625)"/>
     </defs>
     <use xlink:href="#DejaVuSans-38"/>
     <use xlink:href="#DejaVuSans-36" transform="translate(73.1875 0)"/>
     <use xlink:href="#DejaVuSans-37" transform="translate(136.671875 0)"/>
     <use xlink:href="#DejaVuSans-14" transform="translate(197.75 0)"/>
     <use xlink:href="#DejaVuSans-13" transform="translate(261.375 0)"/>
     <use xlink:href="#DejaVuSans-3" transform="translate(325 0)"/>
     <use xlink:href="#DejaVuSans-af5" transform="translate(356.78125 0)"/>
     <use xlink:href="#DejaVuSans-3" transform="translate(406.78125 0)"/>
     <use xlink:href="#DejaVuSans-2a" transform="translate(438.5625 0)"/>
     <use xlink:href="#DejaVuSans-52" transform="translate(516.046875 0)"/>
     <use xlink:href="#DejaVuSans-26" transform="translate(577.234375 0)"/>
     <use xlink:href="#DejaVuSans-14" transform="translate(647.0625 0)"/>
     <use xlink:href="#DejaVuSans-13" transform="translate(710.6875 0)"/>
     <use xlink:href="#DejaVuSans-3" transform="translate(774.3125 0)"/>
     <use xlink:href="#DejaVuSans-36" transform="translate(806.09375 0)"/>
     <use xlink:href="#DejaVuSans-53" transform="translate(869.578125 0)"/>
     <use xlink:href="#DejaVuSans-55" transform="translate(933.0625 0)"/>
     <use xlink:href="#DejaVuSans-48" transform="translate(971.96875 0)"/>
     <use xlink:href="#DejaVuSans-44" transform="translate(1033.5 0)"/>
     <use xlink:href="#DejaVuSans-47" transform="translate(1094.78125 0)"/>
     <use xlink:href="#DejaVuSans-3" transform="translate(1158.265625 0)"/>
     <use xlink:href="#DejaVuSans-b" transform="translate(1190.046875 0)"/>
     <use xlink:href="#DejaVuSans-45" transform="translate(1229.0625 0)"/>
     <use xlink:href="#DejaVuSans-53" transform="translate(1292.546875 0)"/>
     <use xlink:href="#DejaVuSans-c" transform="translate(1356.03125 0)"/>
    </g>
   </g>
  </g>
  <g id="axes_2">
   <g id="patch_7">
    <path d="M 52.465625 188.638125 
L 554.665625 188.638125 
L 554.665625 156.718125 
L 52.465625 156.718125 
z
" style="fill: #ffffff"/>
   </g>
   <g id="matplotlib.axis_3">
    <g id="xtick_13">
     <g id="line2d_33">
      <path d="M 70.3522 188.638125 
L 70.3522 156.718125 
" clip-path="url(#p7e938ee967)" style="fill: none; stroke: #b0b0b0; stroke-opacity: 0.15; stroke-width: 0.8; stroke-linecap: square"/>
     </g>
     <g id="line2d_34">
      <g>
       <use xlink:href="#mf3e86ae763" x="70.3522" y="188.638125" style="stroke: #000000; stroke-width: 0.8"/>
      </g>
     </g>
     <g id="text_18">
      <!-- 2025-07 -->
      <g transform="translate(39.108577 230.555389) rotate(-45) scale(0.1 -0.1)">
       <use xlink:href="#DejaVuSans-15"/>
       <use xlink:href="#DejaVuSans-13" transform="translate(63.625 0)"/>
       <use xlink:href="#DejaVuSans-15" transform="translate(127.25 0)"/>
       <use xlink:href="#DejaVuSans-18" transform="translate(190.875 0)"/>
       <use xlink:href="#DejaVuSans-10" transform="translate(254.5 0)"/>
       <use xlink:href="#DejaVuSans-13" transform="translate(290.578125 0)"/>
       <use xlink:href="#DejaVuSans-1a" transform="translate(354.203125 0)"/>
      </g>
     </g>
    </g>
    <g id="xtick_14">
     <g id="line2d_35">
      <path d="M 113.004803 188.638125 
L 113.004803 156.718125 
" clip-path="url(#p7e938ee967)" style="fill: none; stroke: #b0b0b0; stroke-opacity: 0.15; stroke-width: 0.8; stroke-linecap: square"/>
     </g>
     <g id="line2d_36">
      <g>
       <use xlink:href="#mf3e86ae763" x="113.004803" y="188.638125" style="stroke: #000000; stroke-width: 0.8"/>
      </g>
     </g>
     <g id="text_19">
      <!-- 2025-08 -->
      <g transform="translate(81.761179 230.555389) rotate(-45) scale(0.1 -0.1)">
       <use xlink:href="#DejaVuSans-15"/>
       <use xlink:href="#DejaVuSans-13" transform="translate(63.625 0)"/>
       <use xlink:href="#DejaVuSans-15" transform="translate(127.25 0)"/>
       <use xlink:href="#DejaVuSans-18" transform="translate(190.875 0)"/>
       <use xlink:href="#DejaVuSans-10" transform="translate(254.5 0)"/>
       <use xlink:href="#DejaVuSans-13" transform="translate(290.578125 0)"/>
       <use xlink:href="#DejaVuSans-1b" transform="translate(354.203125 0)"/>
      </g>
     </g>
    </g>
    <g id="xtick_15">
     <g id="line2d_37">
      <path d="M 155.657406 188.638125 
L 155.657406 156.718125 
" clip-path="url(#p7e938ee967)" style="fill: none; stroke: #b0b0b0; stroke-opacity: 0.15; stroke-width: 0.8; stroke-linecap: square"/>
     </g>
     <g id="line2d_38">
      <g>
       <use xlink:href="#mf3e86ae763" x="155.657406" y="188.638125" style="stroke: #000000; stroke-width: 0.8"/>
      </g>
     </g>
     <g id="text_20">
      <!-- 2025-09 -->
      <g transform="translate(124.413782 230.555389) rotate(-45) scale(0.1 -0.1)">
       <use xlink:href="#DejaVuSans-15"/>
       <use xlink:href="#DejaVuSans-13" transform="translate(63.625 0)"/>
       <use xlink:href="#DejaVuSans-15" transform="translate(127.25 0)"/>
       <use xlink:href="#DejaVuSans-18" transform="translate(190.875 0)"/>
       <use xlink:href="#DejaVuSans-10" transform="translate(254.5 0)"/>
       <use xlink:href="#DejaVuSans-13" transform="translate(290.578125 0)"/>
       <use xlink:href="#DejaVuSans-1c" transform="translate(354.203125 0)"/>
      </g>
     </g>
    </g>
    <g id="xtick_16">
     <g id="line2d_39">
      <path d="M 196.934118 188.638125 
L 196.934118 156.718125 
" clip-path="url(#p7e938ee967)" style="fill: none; stroke: #b0b0b0; stroke-opacity: 0.15; stroke-width: 0.8; stroke-linecap: square"/>
     </g>
     <g id="line2d_40">
      <g>
       <use xlink:href="#mf3e86ae763" x="196.934118" y="188.638125" style="stroke: #000000; stroke-width: 0.8"/>
      </g>
     </g>
     <g id="text_21">
      <!-- 2025-10 -->
      <g transform="translate(165.690495 230.555389) rotate(-45) scale(0.1 -0.1)">
       <use xlink:href="#DejaVuSans-15"/>
       <use xlink:href="#DejaVuSans-13" transform="translate(63.625 0)"/>
       <use xlink:href="#DejaVuSans-15" transform="translate(127.25 0)"/>
       <use xlink:href="#DejaVuSans-18" transform="translate(190.875 0)"/>
       <use xlink:href="#DejaVuSans-10" transform="translate(254.5 0)"/>
       <use xlink:href="#DejaVuSans-14" transform="translate(290.578125 0)"/>
       <use xlink:href="#DejaVuSans-13" transform="translate(354.203125 0)"/>
      </g>
     </g>
    </g>
    <g id="xtick_17">
     <g id="line2d_41">
      <path d="M 239.586721 188.638125 
L 239.586721 156.718125 
" clip-path="url(#p7e938ee967)" style="fill: none; stroke: #b0b0b0; stroke-opacity: 0.15; stroke-width: 0.8; stroke-linecap: square"/>
     </g>
     <g id="line2d_42">
      <g>
       <use xlink:href="#mf3e86ae763" x="239.586721" y="188.638125" style="stroke: #000000; stroke-width: 0.8"/>
      </g>
     </g>
     <g id="text_22">
      <!-- 2025-11 -->
      <g transform="translate(208.343097 230.555389) rotate(-45) scale(0.1 -0.1)">
       <use xlink:href="#DejaVuSans-15"/>
       <use xlink:href="#DejaVuSans-13" transform="translate(63.625 0)"/>
       <use xlink:href="#DejaVuSans-15" transform="translate(127.25 0)"/>
       <use xlink:href="#DejaVuSans-18" transform="translate(190.875 0)"/>
       <use xlink:href="#DejaVuSans-10" transform="translate(254.5 0)"/>
       <use xlink:href="#DejaVuSans-14" transform="translate(290.578125 0)"/>
       <use xlink:href="#DejaVuSans-14" transform="translate(354.203125 0)"/>
      </g>
     </g>
    </g>
    <g id="xtick_18">
     <g id="line2d_43">
      <path d="M 280.863433 188.638125 
L 280.863433 156.718125 
" clip-path="url(#p7e938ee967)" style="fill: none; stroke: #b0b0b0; stroke-opacity: 0.15; stroke-width: 0.8; stroke-linecap: square"/>
     </g>
     <g id="line2d_44">
      <g>
       <use xlink:href="#mf3e86ae763" x="280.863433" y="188.638125" style="stroke: #000000; stroke-width: 0.8"/>
      </g>
     </g>
     <g id="text_23">
      <!-- 2025-12 -->
      <g transform="translate(249.61981 230.555389) rotate(-45) scale(0.1 -0.1)">
       <use xlink:href="#DejaVuSans-15"/>
       <use xlink:href="#DejaVuSans-13" transform="translate(63.625 0)"/>
       <use xlink:href="#DejaVuSans-15" transform="translate(127.25 0)"/>
       <use xlink:href="#DejaVuSans-18" transform="translate(190.875 0)"/>
       <use xlink:href="#DejaVuSans-10" transform="translate(254.5 0)"/>
       <use xlink:href="#DejaVuSans-14" transform="translate(290.578125 0)"/>
       <use xlink:href="#DejaVuSans-15" transform="translate(354.203125 0)"/>
      </g>
     </g>
    </g>
    <g id="xtick_19">
     <g id="line2d_45">
      <path d="M 323.516036 188.638125 
L 323.516036 156.718125 
" clip-path="url(#p7e938ee967)" style="fill: none; stroke: #b0b0b0; stroke-opacity: 0.15; stroke-width: 0.8; stroke-linecap: square"/>
     </g>
     <g id="line2d_46">
      <g>
       <use xlink:href="#mf3e86ae763" x="323.516036" y="188.638125" style="stroke: #000000; stroke-width: 0.8"/>
      </g>
     </g>
     <g id="text_24">
      <!-- 2026-01 -->
      <g transform="translate(292.272412 230.555389) rotate(-45) scale(0.1 -0.1)">
       <use xlink:href="#DejaVuSans-15"/>
       <use xlink:href="#DejaVuSans-13" transform="translate(63.625 0)"/>
       <use xlink:href="#DejaVuSans-15" transform="translate(127.25 0)"/>
       <use xlink:href="#DejaVuSans-19" transform="translate(190.875 0)"/>
       <use xlink:href="#DejaVuSans-10" transform="translate(254.5 0)"/>
       <use xlink:href="#DejaVuSans-13" transform="translate(290.578125 0)"/>
       <use xlink:href="#DejaVuSans-14" transform="translate(354.203125 0)"/>
      </g>
     </g>
    </g>
    <g id="xtick_20">
     <g id="line2d_47">
      <path d="M 366.168639 188.638125 
L 366.168639 156.718125 
" clip-path="url(#p7e938ee967)" style="fill: none; stroke: #b0b0b0; stroke-opacity: 0.15; stroke-width: 0.8; stroke-linecap: square"/>
     </g>
     <g id="line2d_48">
      <g>
       <use xlink:href="#mf3e86ae763" x="366.168639" y="188.638125" style="stroke: #000000; stroke-width: 0.8"/>
      </g>
     </g>
     <g id="text_25">
      <!-- 2026-02 -->
      <g transform="translate(334.925015 230.555389) rotate(-45) scale(0.1 -0.1)">
       <use xlink:href="#DejaVuSans-15"/>
       <use xlink:href="#DejaVuSans-13" transform="translate(63.625 0)"/>
       <use xlink:href="#DejaVuSans-15" transform="translate(127.25 0)"/>
       <use xlink:href="#DejaVuSans-19" transform="translate(190.875 0)"/>
       <use xlink:href="#DejaVuSans-10" transform="translate(254.5 0)"/>
       <use xlink:href="#DejaVuSans-13" transform="translate(290.578125 0)"/>
       <use xlink:href="#DejaVuSans-15" transform="translate(354.203125 0)"/>
      </g>
     </g>
    </g>
    <g id="xtick_21">
     <g id="line2d_49">
      <path d="M 404.69357 188.638125 
L 404.69357 156.718125 
" clip-path="url(#p7e938ee967)" style="fill: none; stroke: #b0b0b0; stroke-opacity: 0.15; stroke-width: 0.8; stroke-linecap: square"/>
     </g>
     <g id="line2d_50">
      <g>
       <use xlink:href="#mf3e86ae763" x="404.69357" y="188.638125" style="stroke: #000000; stroke-width: 0.8"/>
      </g>
     </g>
     <g id="text_26">
      <!-- 2026-03 -->
      <g transform="translate(373.449947 230.555389) rotate(-45) scale(0.1 -0.1)">
       <use xlink:href="#DejaVuSans-15"/>
       <use xlink:href="#DejaVuSans-13" transform="translate(63.625 0)"/>
       <use xlink:href="#DejaVuSans-15" transform="translate(127.25 0)"/>
       <use xlink:href="#DejaVuSans-19" transform="translate(190.875 0)"/>
       <use xlink:href="#DejaVuSans-10" transform="translate(254.5 0)"/>
       <use xlink:href="#DejaVuSans-13" transform="translate(290.578125 0)"/>
       <use xlink:href="#DejaVuSans-16" transform="translate(354.203125 0)"/>
      </g>
     </g>
    </g>
    <g id="xtick_22">
     <g id="line2d_51">
      <path d="M 447.346173 188.638125 
L 447.346173 156.718125 
" clip-path="url(#p7e938ee967)" style="fill: none; stroke: #b0b0b0; stroke-opacity: 0.15; stroke-width: 0.8; stroke-linecap: square"/>
     </g>
     <g id="line2d_52">
      <g>
       <use xlink:href="#mf3e86ae763" x="447.346173" y="188.638125" style="stroke: #000000; stroke-width: 0.8"/>
      </g>
     </g>
     <g id="text_27">
      <!-- 2026-04 -->
      <g transform="translate(416.102549 230.555389) rotate(-45) scale(0.1 -0.1)">
       <use xlink:href="#DejaVuSans-15"/>
       <use xlink:href="#DejaVuSans-13" transform="translate(63.625 0)"/>
       <use xlink:href="#DejaVuSans-15" transform="translate(127.25 0)"/>
       <use xlink:href="#DejaVuSans-19" transform="translate(190.875 0)"/>
       <use xlink:href="#DejaVuSans-10" transform="translate(254.5 0)"/>
       <use xlink:href="#DejaVuSans-13" transform="translate(290.578125 0)"/>
       <use xlink:href="#DejaVuSans-17" transform="translate(354.203125 0)"/>
      </g>
     </g>
    </g>
    <g id="xtick_23">
     <g id="line2d_53">
      <path d="M 488.622885 188.638125 
L 488.622885 156.718125 
" clip-path="url(#p7e938ee967)" style="fill: none; stroke: #b0b0b0; stroke-opacity: 0.15; stroke-width: 0.8; stroke-linecap: square"/>
     </g>
     <g id="line2d_54">
      <g>
       <use xlink:href="#mf3e86ae763" x="488.622885" y="188.638125" style="stroke: #000000; stroke-width: 0.8"/>
      </g>
     </g>
     <g id="text_28">
      <!-- 2026-05 -->
      <g transform="translate(457.379262 230.555389) rotate(-45) scale(0.1 -0.1)">
       <use xlink:href="#DejaVuSans-15"/>
       <use xlink:href="#DejaVuSans-13" transform="translate(63.625 0)"/>
       <use xlink:href="#DejaVuSans-15" transform="translate(127.25 0)"/>
       <use xlink:href="#DejaVuSans-19" transform="translate(190.875 0)"/>
       <use xlink:href="#DejaVuSans-10" transform="translate(254.5 0)"/>
       <use xlink:href="#DejaVuSans-13" transform="translate(290.578125 0)"/>
       <use xlink:href="#DejaVuSans-18" transform="translate(354.203125 0)"/>
      </g>
     </g>
    </g>
    <g id="xtick_24">
     <g id="line2d_55">
      <path d="M 531.275488 188.638125 
L 531.275488 156.718125 
" clip-path="url(#p7e938ee967)" style="fill: none; stroke: #b0b0b0; stroke-opacity: 0.15; stroke-width: 0.8; stroke-linecap: square"/>
     </g>
     <g id="line2d_56">
      <g>
       <use xlink:href="#mf3e86ae763" x="531.275488" y="188.638125" style="stroke: #000000; stroke-width: 0.8"/>
      </g>
     </g>
     <g id="text_29">
      <!-- 2026-06 -->
      <g transform="translate(500.031864 230.555389) rotate(-45) scale(0.1 -0.1)">
       <use xlink:href="#DejaVuSans-15"/>
       <use xlink:href="#DejaVuSans-13" transform="translate(63.625 0)"/>
       <use xlink:href="#DejaVuSans-15" transform="translate(127.25 0)"/>
       <use xlink:href="#DejaVuSans-19" transform="translate(190.875 0)"/>
       <use xlink:href="#DejaVuSans-10" transform="translate(254.5 0)"/>
       <use xlink:href="#DejaVuSans-13" transform="translate(290.578125 0)"/>
       <use xlink:href="#DejaVuSans-19" transform="translate(354.203125 0)"/>
      </g>
     </g>
    </g>
   </g>
   <g id="matplotlib.axis_4">
    <g id="ytick_4">
     <g id="line2d_57">
      <path d="M 52.465625 188.044896 
L 554.665625 188.044896 
" clip-path="url(#p7e938ee967)" style="fill: none; stroke: #b0b0b0; stroke-opacity: 0.15; stroke-width: 0.8; stroke-linecap: square"/>
     </g>
     <g id="line2d_58">
      <g>
       <use xlink:href="#mce5e9b399b" x="52.465625" y="188.044896" style="stroke: #000000; stroke-width: 0.8"/>
      </g>
     </g>
     <g id="text_30">
      <!-- 1.35 -->
      <g transform="translate(23.2 191.843724) scale(0.1 -0.1)">
       <defs>
        <path id="DejaVuSans-11" d="M 684 794 
L 1344 794 
L 1344 0 
L 684 0 
L 684 794 
z
" transform="scale(0.015625)"/>
       </defs>
       <use xlink:href="#DejaVuSans-14"/>
       <use xlink:href="#DejaVuSans-11" transform="translate(63.625 0)"/>
       <use xlink:href="#DejaVuSans-16" transform="translate(95.40625 0)"/>
       <use xlink:href="#DejaVuSans-18" transform="translate(159.03125 0)"/>
      </g>
     </g>
    </g>
    <g id="ytick_5">
     <g id="line2d_59">
      <path d="M 52.465625 164.220445 
L 554.665625 164.220445 
" clip-path="url(#p7e938ee967)" style="fill: none; stroke: #b0b0b0; stroke-opacity: 0.15; stroke-width: 0.8; stroke-linecap: square"/>
     </g>
     <g id="line2d_60">
      <g>
       <use xlink:href="#mce5e9b399b" x="52.465625" y="164.220445" style="stroke: #000000; stroke-width: 0.8"/>
      </g>
     </g>
     <g id="text_31">
      <!-- 1.40 -->
      <g transform="translate(23.2 168.019273) scale(0.1 -0.1)">
       <use xlink:href="#DejaVuSans-14"/>
       <use xlink:href="#DejaVuSans-11" transform="translate(63.625 0)"/>
       <use xlink:href="#DejaVuSans-17" transform="translate(95.40625 0)"/>
       <use xlink:href="#DejaVuSans-13" transform="translate(159.03125 0)"/>
      </g>
     </g>
    </g>
    <g id="text_32">
     <!-- USD/CAD -->
     <g transform="translate(16.317188 200.43375) rotate(-90) scale(0.12 -0.12)">
      <defs>
       <path id="DejaVuSans-27" d="M 1259 4147 
L 1259 519 
L 2022 519 
Q 2988 519 3436 956 
Q 3884 1394 3884 2338 
Q 3884 3275 3436 3711 
Q 2988 4147 2022 4147 
L 1259 4147 
z
M 628 4666 
L 1925 4666 
Q 3281 4666 3915 4102 
Q 4550 3538 4550 2338 
Q 4550 1131 3912 565 
Q 3275 0 1925 0 
L 628 0 
L 628 4666 
z
" transform="scale(0.015625)"/>
       <path id="DejaVuSans-12" d="M 1625 4666 
L 2156 4666 
L 531 -594 
L 0 -594 
L 1625 4666 
z
" transform="scale(0.015625)"/>
       <path id="DejaVuSans-24" d="M 2188 4044 
L 1331 1722 
L 3047 1722 
L 2188 4044 
z
M 1831 4666 
L 2547 4666 
L 4325 0 
L 3669 0 
L 3244 1197 
L 1141 1197 
L 716 0 
L 50 0 
L 1831 4666 
z
" transform="scale(0.015625)"/>
      </defs>
      <use xlink:href="#DejaVuSans-38"/>
      <use xlink:href="#DejaVuSans-36" transform="translate(73.1875 0)"/>
      <use xlink:href="#DejaVuSans-27" transform="translate(136.671875 0)"/>
      <use xlink:href="#DejaVuSans-12" transform="translate(213.671875 0)"/>
      <use xlink:href="#DejaVuSans-26" transform="translate(247.359375 0)"/>
      <use xlink:href="#DejaVuSans-24" transform="translate(317.1875 0)"/>
      <use xlink:href="#DejaVuSans-27" transform="translate(385.59375 0)"/>
     </g>
    </g>
   </g>
   <g id="line2d_61">
    <path d="M 55.217406 176.656808 
L 59.345077 175.036746 
L 60.720967 177.990978 
L 62.096858 176.13267 
L 63.472748 181.898188 
L 64.848639 180.135178 
L 68.97631 182.327028 
L 70.3522 180.468721 
L 71.728091 182.327028 
L 73.103981 185.233611 
M 78.607543 181.183454 
L 79.983433 179.896934 
L 81.359324 178.801009 
L 82.735214 179.372796 
L 84.111104 179.563391 
L 88.238776 178.801009 
L 89.614666 177.89568 
L 90.990557 178.229222 
L 92.366447 176.180319 
L 93.742337 177.990978 
L 97.870009 179.039254 
L 99.245899 182.565272 
L 100.621789 182.851166 
L 101.99768 181.231103 
L 103.37357 177.848031 
L 107.501241 177.657435 
L 108.877132 174.84615 
L 110.253022 173.083141 
L 111.628913 171.606025 
L 113.004803 174.798501 
L 117.132474 174.941448 
L 118.508365 174.750852 
L 119.884255 176.656808 
L 121.260146 176.180319 
L 122.636036 176.037373 
L 126.763707 174.560257 
L 128.139598 175.560884 
L 129.515488 175.465586 
L 130.891378 173.464332 
L 136.39494 173.035492 
L 137.77083 170.93894 
L 139.146721 170.224207 
L 140.522611 168.985335 
L 141.898502 171.606025 
L 147.402063 172.654301 
L 148.777954 172.559003 
L 150.153844 176.13267 
L 151.529735 177.276244 
M 157.033296 174.512608 
L 158.409187 174.369661 
L 159.785077 172.416056 
L 161.160967 172.654301 
L 165.288639 172.797247 
L 166.664529 172.130163 
L 168.04042 171.701322 
L 169.41631 172.320758 
L 170.7922 170.986589 
L 174.919872 173.893172 
L 176.295762 176.370915 
L 177.671652 175.608533 
L 179.047543 173.940821 
L 180.423433 175.084395 
L 184.551104 173.083141 
L 185.926995 172.130163 
L 187.302885 169.271228 
L 188.678776 167.88941 
L 190.054666 166.793486 
L 194.182337 168.794739 
L 195.558228 167.698815 
L 196.934118 166.459943 
L 198.310009 165.459316 
L 199.685899 166.793486 
L 203.81357 166.841134 
L 206.565351 166.459943 
L 207.941241 163.791605 
L 209.317132 164.363391 
M 214.820693 162.26684 
L 216.196584 162.648031 
L 217.572474 162.076244 
L 218.948365 162.028595 
L 223.076036 162.838627 
L 224.451926 163.743956 
L 225.827817 165.268721 
L 227.203707 164.649285 
L 228.579598 163.601009 
L 232.707269 164.458689 
L 234.083159 167.222326 
L 235.45905 169.318877 
L 236.83494 165.078125 
L 238.21083 163.743956 
L 242.338502 161.885649 
L 243.714392 160.360884 
L 245.090283 159.074363 
L 246.466173 158.169034 
L 247.842063 160.646777 
L 251.969735 162.838627 
M 254.721515 164.220445 
L 256.097406 163.743956 
L 257.473296 163.12452 
L 261.600967 162.886275 
L 262.976858 164.41104 
L 264.352748 161.885649 
L 265.728639 159.836746 
L 267.104529 159.741448 
L 272.608091 158.740821 
L 273.983981 161.790351 
M 276.735762 165.459316 
L 280.863433 165.078125 
L 282.239324 164.792232 
L 283.615214 166.60289 
L 284.991104 167.127028 
L 286.366995 170.986589 
L 290.494666 171.558376 
L 291.870557 172.22546 
L 293.246447 172.130163 
L 294.622337 175.227341 
L 295.998228 174.560257 
L 300.125899 175.417937 
L 301.501789 176.180319 
L 302.87768 174.179065 
L 304.25357 175.560884 
L 305.629461 174.703203 
L 309.757132 176.418564 
L 311.133022 177.89568 
L 312.508913 179.896934 
M 315.260693 180.325774 
L 319.388365 179.468094 
L 320.764255 179.563391 
L 322.140146 177.943329 
M 324.891926 176.704457 
L 329.019598 175.799128 
L 330.395488 174.274363 
L 333.147269 170.700696 
L 334.523159 169.318877 
L 338.65083 170.128909 
L 340.026721 169.700069 
L 341.402611 170.367153 
L 344.154392 168.032357 
M 349.657954 172.749598 
L 351.033844 173.13079 
L 352.409735 173.797874 
L 353.785625 177.276244 
L 357.913296 178.896307 
L 359.289187 183.375304 
L 360.665077 184.471228 
L 362.040967 187.187216 
L 367.544529 179.61104 
L 368.92042 181.183454 
L 370.29631 180.087529 
L 371.6722 179.944583 
L 373.048091 181.183454 
L 377.175762 184.709473 
L 378.551652 186.472482 
L 379.927543 184.757122 
L 381.303433 182.184081 
L 382.679324 182.422326 
M 388.182885 180.802263 
L 389.558776 179.706338 
L 390.934666 178.467467 
L 392.310557 179.086902 
L 396.438228 179.229849 
L 397.814118 178.419818 
L 399.190009 179.229849 
L 400.565899 179.325147 
L 401.941789 181.755241 
L 406.069461 178.276871 
L 407.445351 180.325774 
L 408.821241 180.373423 
L 410.197132 178.848658 
L 411.573022 183.327655 
L 417.076584 185.090664 
L 418.452474 183.137059 
L 419.828365 182.422326 
L 421.204255 176.799755 
L 425.331926 179.325147 
L 426.707817 178.229222 
L 428.083707 178.658062 
L 429.459598 177.514489 
L 430.835488 177.038 
L 434.963159 177.657435 
L 436.33905 175.465586 
L 437.71494 173.797874 
L 439.09083 171.415429 
L 440.466721 169.938313 
L 444.594392 167.984708 
L 445.970283 166.459943 
L 447.346173 170.176558 
L 448.722063 168.175304 
L 450.097954 166.984081 
L 455.601515 168.747091 
L 456.977406 171.320131 
L 458.353296 173.416683 
L 459.729187 172.416056 
L 463.856858 173.226087 
L 465.232748 175.799128 
L 466.608639 176.609159 
L 467.984529 178.229222 
L 469.36042 180.087529 
L 474.863981 181.278752 
L 476.239872 180.468721 
L 477.615762 179.372796 
L 478.991652 179.706338 
L 483.119324 182.517623 
L 484.495214 179.896934 
L 485.871104 179.896934 
L 487.246995 182.755868 
L 488.622885 184.471228 
L 492.750557 182.898815 
L 494.126447 182.851166 
L 495.502337 182.279379 
L 496.878228 181.564645 
L 498.254118 179.515743 
L 502.381789 180.230476 
L 503.75768 177.943329 
L 505.13357 178.467467 
L 506.509461 177.371542 
L 507.885351 176.13267 
L 512.013022 176.513862 
L 513.388913 175.942075 
L 514.764803 176.275617 
L 516.140693 174.322012 
L 517.516584 172.940194 
M 523.020146 173.607279 
L 524.396036 172.368407 
L 525.771926 173.845523 
L 527.147817 174.512608 
L 531.275488 171.987216 
L 532.651378 172.701949 
L 534.027269 169.414175 
L 535.403159 169.509473 
L 536.77905 167.508219 
L 542.282611 166.269348 
L 543.658502 167.698815 
L 545.034392 164.029849 
L 546.410283 165.602263 
L 546.410283 165.602263 
" clip-path="url(#p7e938ee967)" style="fill: none; stroke: #2ca02c; stroke-width: 1.2; stroke-linecap: square"/>
   </g>
   <g id="patch_8">
    <path d="M 52.465625 188.638125 
L 52.465625 156.718125 
" style="fill: none; stroke: #000000; stroke-width: 0.8; stroke-linejoin: miter; stroke-linecap: square"/>
   </g>
   <g id="patch_9">
    <path d="M 554.665625 188.638125 
L 554.665625 156.718125 
" style="fill: none; stroke: #000000; stroke-width: 0.8; stroke-linejoin: miter; stroke-linecap: square"/>
   </g>
   <g id="patch_10">
    <path d="M 52.465625 188.638125 
L 554.665625 188.638125 
" style="fill: none; stroke: #000000; stroke-width: 0.8; stroke-linejoin: miter; stroke-linecap: square"/>
   </g>
   <g id="patch_11">
    <path d="M 52.465625 156.718125 
L 554.665625 156.718125 
" style="fill: none; stroke: #000000; stroke-width: 0.8; stroke-linejoin: miter; stroke-linecap: square"/>
   </g>
  </g>
 </g>
 <defs>
  <clipPath id="pd02281f253">
   <rect x="52.465625" y="22.318125" width="502.2" height="91.2"/>
  </clipPath>
  <clipPath id="p7e938ee967">
   <rect x="52.465625" y="156.718125" width="502.2" height="31.92"/>
  </clipPath>
 </defs>
</svg>
