<?xml version="1.0" encoding="utf-8" standalone="no"?>
<!DOCTYPE svg PUBLIC "-//W3C//DTD SVG 1.1//EN"
  "http://www.w3.org/Graphics/SVG/1.1/DTD/svg11.dtd">
<svg xmlns:xlink="http://www.w3.org/1999/xlink" width="561.865625pt" height="239.454103pt" viewBox="0 0 561.865625 239.454103" xmlns="http://www.w3.org/2000/svg" version="1.1">
 <metadata>
  <rdf:RDF xmlns:dc="http://purl.org/dc/elements/1.1/" xmlns:cc="http://creativecommons.org/ns#" xmlns:rdf="http://www.w3.org/1999/02/22-rdf-syntax-ns#">
   <cc:Work>
    <dc:type rdf:resource="http://purl.org/dc/dcmitype/StillImage"/>
    <dc:date>2026-06-18T16:43:36.108777</dc:date>
    <dc:format>image/svg+xml</dc:format>
    <dc:creator>
     <cc:Agent>
      <dc:title>Matplotlib v3.11.0, https://matplotlib.org/</dc:title>
     </cc:Agent>
    </dc:creator>
   </cc:Work>
  </rdf:RDF>
 </metadata>
 <defs>
  <style type="text/css">*{stroke-linejoin: round; stroke-linecap: butt}</style>
 </defs>
 <g id="figure_1">
  <g id="patch_1">
   <path d="M 0 239.454103 
L 561.865625 239.454103 
L 561.865625 0 
L 0 0 
z
" style="fill: #ffffff"/>
  </g>
  <g id="axes_1">
   <g id="patch_2">
    <path d="M 52.465625 113.518125 
L 554.665625 113.518125 
L 554.665625 22.318125 
L 52.465625 22.318125 
z
" style="fill: #ffffff"/>
   </g>
   <g id="matplotlib.axis_1">
    <g id="xtick_1">
     <g id="line2d_1">
      <path d="M 71.728091 113.518125 
L 71.728091 22.318125 
" clip-path="url(#p8620c004f1)" style="fill: none; stroke: #b0b0b0; stroke-opacity: 0.2; stroke-width: 0.8; stroke-linecap: square"/>
     </g>
     <g id="line2d_2">
      <defs>
       <path id="mf1f8dbc195" d="M 0 0 
L 0 3.5 
" style="stroke: #000000; stroke-width: 0.8"/>
      </defs>
      <g>
       <use xlink:href="#mf1f8dbc195" x="71.728091" y="113.518125" style="stroke: #000000; stroke-width: 0.8"/>
      </g>
     </g>
     <g id="text_1">
      <!-- 2025-07 -->
      <g transform="translate(40.484467 155.435389) rotate(-45) scale(0.1 -0.1)">
       <defs>
        <path id="DejaVuSans-15" d="M 1228 531 
L 3431 531 
L 3431 0 
L 469 0 
L 469 531 
Q 828 903 1448 1529 
Q 2069 2156 2228 2338 
Q 2531 2678 2651 2914 
Q 2772 3150 2772 3378 
Q 2772 3750 2511 3984 
Q 2250 4219 1831 4219 
Q 1534 4219 1204 4116 
Q 875 4013 500 3803 
L 500 4441 
Q 881 4594 1212 4672 
Q 1544 4750 1819 4750 
Q 2544 4750 2975 4387 
Q 3406 4025 3406 3419 
Q 3406 3131 3298 2873 
Q 3191 2616 2906 2266 
Q 2828 2175 2409 1742 
Q 1991 1309 1228 531 
z
" transform="scale(0.015625)"/>
        <path id="DejaVuSans-13" d="M 2034 4250 
Q 1547 4250 1301 3770 
Q 1056 3291 1056 2328 
Q 1056 1369 1301 889 
Q 1547 409 2034 409 
Q 2525 409 2770 889 
Q 3016 1369 3016 2328 
Q 3016 3291 2770 3770 
Q 2525 4250 2034 4250 
z
M 2034 4750 
Q 2819 4750 3233 4129 
Q 3647 3509 3647 2328 
Q 3647 1150 3233 529 
Q 2819 -91 2034 -91 
Q 1250 -91 836 529 
Q 422 1150 422 2328 
Q 422 3509 836 4129 
Q 1250 4750 2034 4750 
z
" transform="scale(0.015625)"/>
        <path id="DejaVuSans-18" d="M 691 4666 
L 3169 4666 
L 3169 4134 
L 1269 4134 
L 1269 2991 
Q 1406 3038 1543 3061 
Q 1681 3084 1819 3084 
Q 2600 3084 3056 2656 
Q 3513 2228 3513 1497 
Q 3513 744 3044 326 
Q 2575 -91 1722 -91 
Q 1428 -91 1123 -41 
Q 819 9 494 109 
L 494 744 
Q 775 591 1075 516 
Q 1375 441 1709 441 
Q 2250 441 2565 725 
Q 2881 1009 2881 1497 
Q 2881 1984 2565 2268 
Q 2250 2553 1709 2553 
Q 1456 2553 1204 2497 
Q 953 2441 691 2322 
L 691 4666 
z
" transform="scale(0.015625)"/>
        <path id="DejaVuSans-10" d="M 313 2009 
L 1997 2009 
L 1997 1497 
L 313 1497 
L 313 2009 
z
" transform="scale(0.015625)"/>
        <path id="DejaVuSans-1a" d="M 525 4666 
L 3525 4666 
L 3525 4397 
L 1831 0 
L 1172 0 
L 2766 4134 
L 525 4134 
L 525 4666 
z
" transform="scale(0.015625)"/>
       </defs>
       <use xlink:href="#DejaVuSans-15"/>
       <use xlink:href="#DejaVuSans-13" transform="translate(63.625 0)"/>
       <use xlink:href="#DejaVuSans-15" transform="translate(127.25 0)"/>
       <use xlink:href="#DejaVuSans-18" transform="translate(190.875 0)"/>
       <use xlink:href="#DejaVuSans-10" transform="translate(254.5 0)"/>
       <use xlink:href="#DejaVuSans-13" transform="translate(290.578125 0)"/>
       <use xlink:href="#DejaVuSans-1a" transform="translate(354.203125 0)"/>
      </g>
     </g>
    </g>
    <g id="xtick_2">
     <g id="line2d_3">
      <path d="M 114.380693 113.518125 
L 114.380693 22.318125 
" clip-path="url(#p8620c004f1)" style="fill: none; stroke: #b0b0b0; stroke-opacity: 0.2; stroke-width: 0.8; stroke-linecap: square"/>
     </g>
     <g id="line2d_4">
      <g>
       <use xlink:href="#mf1f8dbc195" x="114.380693" y="113.518125" style="stroke: #000000; stroke-width: 0.8"/>
      </g>
     </g>
     <g id="text_2">
      <!-- 2025-08 -->
      <g transform="translate(83.13707 155.435389) rotate(-45) scale(0.1 -0.1)">
       <defs>
        <path id="DejaVuSans-1b" d="M 2034 2216 
Q 1584 2216 1326 1975 
Q 1069 1734 1069 1313 
Q 1069 891 1326 650 
Q 1584 409 2034 409 
Q 2484 409 2743 651 
Q 3003 894 3003 1313 
Q 3003 1734 2745 1975 
Q 2488 2216 2034 2216 
z
M 1403 2484 
Q 997 2584 770 2862 
Q 544 3141 544 3541 
Q 544 4100 942 4425 
Q 1341 4750 2034 4750 
Q 2731 4750 3128 4425 
Q 3525 4100 3525 3541 
Q 3525 3141 3298 2862 
Q 3072 2584 2669 2484 
Q 3125 2378 3379 2068 
Q 3634 1759 3634 1313 
Q 3634 634 3220 271 
Q 2806 -91 2034 -91 
Q 1263 -91 848 271 
Q 434 634 434 1313 
Q 434 1759 690 2068 
Q 947 2378 1403 2484 
z
M 1172 3481 
Q 1172 3119 1398 2916 
Q 1625 2713 2034 2713 
Q 2441 2713 2670 2916 
Q 2900 3119 2900 3481 
Q 2900 3844 2670 4047 
Q 2441 4250 2034 4250 
Q 1625 4250 1398 4047 
Q 1172 3844 1172 3481 
z
" transform="scale(0.015625)"/>
       </defs>
       <use xlink:href="#DejaVuSans-15"/>
       <use xlink:href="#DejaVuSans-13" transform="translate(63.625 0)"/>
       <use xlink:href="#DejaVuSans-15" transform="translate(127.25 0)"/>
       <use xlink:href="#DejaVuSans-18" transform="translate(190.875 0)"/>
       <use xlink:href="#DejaVuSans-10" transform="translate(254.5 0)"/>
       <use xlink:href="#DejaVuSans-13" transform="translate(290.578125 0)"/>
       <use xlink:href="#DejaVuSans-1b" transform="translate(354.203125 0)"/>
      </g>
     </g>
    </g>
    <g id="xtick_3">
     <g id="line2d_5">
      <path d="M 157.033296 113.518125 
L 157.033296 22.318125 
" clip-path="url(#p8620c004f1)" style="fill: none; stroke: #b0b0b0; stroke-opacity: 0.2; stroke-width: 0.8; stroke-linecap: square"/>
     </g>
     <g id="line2d_6">
      <g>
       <use xlink:href="#mf1f8dbc195" x="157.033296" y="113.518125" style="stroke: #000000; stroke-width: 0.8"/>
      </g>
     </g>
     <g id="text_3">
      <!-- 2025-09 -->
      <g transform="translate(125.789673 155.435389) rotate(-45) scale(0.1 -0.1)">
       <defs>
        <path id="DejaVuSans-1c" d="M 703 97 
L 703 672 
Q 941 559 1184 500 
Q 1428 441 1663 441 
Q 2288 441 2617 861 
Q 2947 1281 2994 2138 
Q 2813 1869 2534 1725 
Q 2256 1581 1919 1581 
Q 1219 1581 811 2004 
Q 403 2428 403 3163 
Q 403 3881 828 4315 
Q 1253 4750 1959 4750 
Q 2769 4750 3195 4129 
Q 3622 3509 3622 2328 
Q 3622 1225 3098 567 
Q 2575 -91 1691 -91 
Q 1453 -91 1209 -44 
Q 966 3 703 97 
z
M 1959 2075 
Q 2384 2075 2632 2365 
Q 2881 2656 2881 3163 
Q 2881 3666 2632 3958 
Q 2384 4250 1959 4250 
Q 1534 4250 1286 3958 
Q 1038 3666 1038 3163 
Q 1038 2656 1286 2365 
Q 1534 2075 1959 2075 
z
" transform="scale(0.015625)"/>
       </defs>
       <use xlink:href="#DejaVuSans-15"/>
       <use xlink:href="#DejaVuSans-13" transform="translate(63.625 0)"/>
       <use xlink:href="#DejaVuSans-15" transform="translate(127.25 0)"/>
       <use xlink:href="#DejaVuSans-18" transform="translate(190.875 0)"/>
       <use xlink:href="#DejaVuSans-10" transform="translate(254.5 0)"/>
       <use xlink:href="#DejaVuSans-13" transform="translate(290.578125 0)"/>
       <use xlink:href="#DejaVuSans-1c" transform="translate(354.203125 0)"/>
      </g>
     </g>
    </g>
    <g id="xtick_4">
     <g id="line2d_7">
      <path d="M 198.310009 113.518125 
L 198.310009 22.318125 
" clip-path="url(#p8620c004f1)" style="fill: none; stroke: #b0b0b0; stroke-opacity: 0.2; stroke-width: 0.8; stroke-linecap: square"/>
     </g>
     <g id="line2d_8">
      <g>
       <use xlink:href="#mf1f8dbc195" x="198.310009" y="113.518125" style="stroke: #000000; stroke-width: 0.8"/>
      </g>
     </g>
     <g id="text_4">
      <!-- 2025-10 -->
      <g transform="translate(167.066385 155.435389) rotate(-45) scale(0.1 -0.1)">
       <defs>
        <path id="DejaVuSans-14" d="M 794 531 
L 1825 531 
L 1825 4091 
L 703 3866 
L 703 4441 
L 1819 4666 
L 2450 4666 
L 2450 531 
L 3481 531 
L 3481 0 
L 794 0 
L 794 531 
z
" transform="scale(0.015625)"/>
       </defs>
       <use xlink:href="#DejaVuSans-15"/>
       <use xlink:href="#DejaVuSans-13" transform="translate(63.625 0)"/>
       <use xlink:href="#DejaVuSans-15" transform="translate(127.25 0)"/>
       <use xlink:href="#DejaVuSans-18" transform="translate(190.875 0)"/>
       <use xlink:href="#DejaVuSans-10" transform="translate(254.5 0)"/>
       <use xlink:href="#DejaVuSans-14" transform="translate(290.578125 0)"/>
       <use xlink:href="#DejaVuSans-13" transform="translate(354.203125 0)"/>
      </g>
     </g>
    </g>
    <g id="xtick_5">
     <g id="line2d_9">
      <path d="M 240.962611 113.518125 
L 240.962611 22.318125 
" clip-path="url(#p8620c004f1)" style="fill: none; stroke: #b0b0b0; stroke-opacity: 0.2; stroke-width: 0.8; stroke-linecap: square"/>
     </g>
     <g id="line2d_10">
      <g>
       <use xlink:href="#mf1f8dbc195" x="240.962611" y="113.518125" style="stroke: #000000; stroke-width: 0.8"/>
      </g>
     </g>
     <g id="text_5">
      <!-- 2025-11 -->
      <g transform="translate(209.718988 155.435389) rotate(-45) scale(0.1 -0.1)">
       <use xlink:href="#DejaVuSans-15"/>
       <use xlink:href="#DejaVuSans-13" transform="translate(63.625 0)"/>
       <use xlink:href="#DejaVuSans-15" transform="translate(127.25 0)"/>
       <use xlink:href="#DejaVuSans-18" transform="translate(190.875 0)"/>
       <use xlink:href="#DejaVuSans-10" transform="translate(254.5 0)"/>
       <use xlink:href="#DejaVuSans-14" transform="translate(290.578125 0)"/>
       <use xlink:href="#DejaVuSans-14" transform="translate(354.203125 0)"/>
      </g>
     </g>
    </g>
    <g id="xtick_6">
     <g id="line2d_11">
      <path d="M 282.239324 113.518125 
L 282.239324 22.318125 
" clip-path="url(#p8620c004f1)" style="fill: none; stroke: #b0b0b0; stroke-opacity: 0.2; stroke-width: 0.8; stroke-linecap: square"/>
     </g>
     <g id="line2d_12">
      <g>
       <use xlink:href="#mf1f8dbc195" x="282.239324" y="113.518125" style="stroke: #000000; stroke-width: 0.8"/>
      </g>
     </g>
     <g id="text_6">
      <!-- 2025-12 -->
      <g transform="translate(250.9957 155.435389) rotate(-45) scale(0.1 -0.1)">
       <use xlink:href="#DejaVuSans-15"/>
       <use xlink:href="#DejaVuSans-13" transform="translate(63.625 0)"/>
       <use xlink:href="#DejaVuSans-15" transform="translate(127.25 0)"/>
       <use xlink:href="#DejaVuSans-18" transform="translate(190.875 0)"/>
       <use xlink:href="#DejaVuSans-10" transform="translate(254.5 0)"/>
       <use xlink:href="#DejaVuSans-14" transform="translate(290.578125 0)"/>
       <use xlink:href="#DejaVuSans-15" transform="translate(354.203125 0)"/>
      </g>
     </g>
    </g>
    <g id="xtick_7">
     <g id="line2d_13">
      <path d="M 324.891926 113.518125 
L 324.891926 22.318125 
" clip-path="url(#p8620c004f1)" style="fill: none; stroke: #b0b0b0; stroke-opacity: 0.2; stroke-width: 0.8; stroke-linecap: square"/>
     </g>
     <g id="line2d_14">
      <g>
       <use xlink:href="#mf1f8dbc195" x="324.891926" y="113.518125" style="stroke: #000000; stroke-width: 0.8"/>
      </g>
     </g>
     <g id="text_7">
      <!-- 2026-01 -->
      <g transform="translate(293.648303 155.435389) rotate(-45) scale(0.1 -0.1)">
       <defs>
        <path id="DejaVuSans-19" d="M 2113 2584 
Q 1688 2584 1439 2293 
Q 1191 2003 1191 1497 
Q 1191 994 1439 701 
Q 1688 409 2113 409 
Q 2538 409 2786 701 
Q 3034 994 3034 1497 
Q 3034 2003 2786 2293 
Q 2538 2584 2113 2584 
z
M 3366 4563 
L 3366 3988 
Q 3128 4100 2886 4159 
Q 2644 4219 2406 4219 
Q 1781 4219 1451 3797 
Q 1122 3375 1075 2522 
Q 1259 2794 1537 2939 
Q 1816 3084 2150 3084 
Q 2853 3084 3261 2657 
Q 3669 2231 3669 1497 
Q 3669 778 3244 343 
Q 2819 -91 2113 -91 
Q 1303 -91 875 529 
Q 447 1150 447 2328 
Q 447 3434 972 4092 
Q 1497 4750 2381 4750 
Q 2619 4750 2861 4703 
Q 3103 4656 3366 4563 
z
" transform="scale(0.015625)"/>
       </defs>
       <use xlink:href="#DejaVuSans-15"/>
       <use xlink:href="#DejaVuSans-13" transform="translate(63.625 0)"/>
       <use xlink:href="#DejaVuSans-15" transform="translate(127.25 0)"/>
       <use xlink:href="#DejaVuSans-19" transform="translate(190.875 0)"/>
       <use xlink:href="#DejaVuSans-10" transform="translate(254.5 0)"/>
       <use xlink:href="#DejaVuSans-13" transform="translate(290.578125 0)"/>
       <use xlink:href="#DejaVuSans-14" transform="translate(354.203125 0)"/>
      </g>
     </g>
    </g>
    <g id="xtick_8">
     <g id="line2d_15">
      <path d="M 367.544529 113.518125 
L 367.544529 22.318125 
" clip-path="url(#p8620c004f1)" style="fill: none; stroke: #b0b0b0; stroke-opacity: 0.2; stroke-width: 0.8; stroke-linecap: square"/>
     </g>
     <g id="line2d_16">
      <g>
       <use xlink:href="#mf1f8dbc195" x="367.544529" y="113.518125" style="stroke: #000000; stroke-width: 0.8"/>
      </g>
     </g>
     <g id="text_8">
      <!-- 2026-02 -->
      <g transform="translate(336.300905 155.435389) rotate(-45) scale(0.1 -0.1)">
       <use xlink:href="#DejaVuSans-15"/>
       <use xlink:href="#DejaVuSans-13" transform="translate(63.625 0)"/>
       <use xlink:href="#DejaVuSans-15" transform="translate(127.25 0)"/>
       <use xlink:href="#DejaVuSans-19" transform="translate(190.875 0)"/>
       <use xlink:href="#DejaVuSans-10" transform="translate(254.5 0)"/>
       <use xlink:href="#DejaVuSans-13" transform="translate(290.578125 0)"/>
       <use xlink:href="#DejaVuSans-15" transform="translate(354.203125 0)"/>
      </g>
     </g>
    </g>
    <g id="xtick_9">
     <g id="line2d_17">
      <path d="M 406.069461 113.518125 
L 406.069461 22.318125 
" clip-path="url(#p8620c004f1)" style="fill: none; stroke: #b0b0b0; stroke-opacity: 0.2; stroke-width: 0.8; stroke-linecap: square"/>
     </g>
     <g id="line2d_18">
      <g>
       <use xlink:href="#mf1f8dbc195" x="406.069461" y="113.518125" style="stroke: #000000; stroke-width: 0.8"/>
      </g>
     </g>
     <g id="text_9">
      <!-- 2026-03 -->
      <g transform="translate(374.825837 155.435389) rotate(-45) scale(0.1 -0.1)">
       <defs>
        <path id="DejaVuSans-16" d="M 2597 2516 
Q 3050 2419 3304 2112 
Q 3559 1806 3559 1356 
Q 3559 666 3084 287 
Q 2609 -91 1734 -91 
Q 1441 -91 1130 -33 
Q 819 25 488 141 
L 488 750 
Q 750 597 1062 519 
Q 1375 441 1716 441 
Q 2309 441 2620 675 
Q 2931 909 2931 1356 
Q 2931 1769 2642 2001 
Q 2353 2234 1838 2234 
L 1294 2234 
L 1294 2753 
L 1863 2753 
Q 2328 2753 2575 2939 
Q 2822 3125 2822 3475 
Q 2822 3834 2567 4026 
Q 2313 4219 1838 4219 
Q 1578 4219 1281 4162 
Q 984 4106 628 3988 
L 628 4550 
Q 988 4650 1302 4700 
Q 1616 4750 1894 4750 
Q 2613 4750 3031 4423 
Q 3450 4097 3450 3541 
Q 3450 3153 3228 2886 
Q 3006 2619 2597 2516 
z
" transform="scale(0.015625)"/>
       </defs>
       <use xlink:href="#DejaVuSans-15"/>
       <use xlink:href="#DejaVuSans-13" transform="translate(63.625 0)"/>
       <use xlink:href="#DejaVuSans-15" transform="translate(127.25 0)"/>
       <use xlink:href="#DejaVuSans-19" transform="translate(190.875 0)"/>
       <use xlink:href="#DejaVuSans-10" transform="translate(254.5 0)"/>
       <use xlink:href="#DejaVuSans-13" transform="translate(290.578125 0)"/>
       <use xlink:href="#DejaVuSans-16" transform="translate(354.203125 0)"/>
      </g>
     </g>
    </g>
    <g id="xtick_10">
     <g id="line2d_19">
      <path d="M 448.722063 113.518125 
L 448.722063 22.318125 
" clip-path="url(#p8620c004f1)" style="fill: none; stroke: #b0b0b0; stroke-opacity: 0.2; stroke-width: 0.8; stroke-linecap: square"/>
     </g>
     <g id="line2d_20">
      <g>
       <use xlink:href="#mf1f8dbc195" x="448.722063" y="113.518125" style="stroke: #000000; stroke-width: 0.8"/>
      </g>
     </g>
     <g id="text_10">
      <!-- 2026-04 -->
      <g transform="translate(417.47844 155.435389) rotate(-45) scale(0.1 -0.1)">
       <defs>
        <path id="DejaVuSans-17" d="M 2419 4116 
L 825 1625 
L 2419 1625 
L 2419 4116 
z
M 2253 4666 
L 3047 4666 
L 3047 1625 
L 3713 1625 
L 3713 1100 
L 3047 1100 
L 3047 0 
L 2419 0 
L 2419 1100 
L 313 1100 
L 313 1709 
L 2253 4666 
z
" transform="scale(0.015625)"/>
       </defs>
       <use xlink:href="#DejaVuSans-15"/>
       <use xlink:href="#DejaVuSans-13" transform="translate(63.625 0)"/>
       <use xlink:href="#DejaVuSans-15" transform="translate(127.25 0)"/>
       <use xlink:href="#DejaVuSans-19" transform="translate(190.875 0)"/>
       <use xlink:href="#DejaVuSans-10" transform="translate(254.5 0)"/>
       <use xlink:href="#DejaVuSans-13" transform="translate(290.578125 0)"/>
       <use xlink:href="#DejaVuSans-17" transform="translate(354.203125 0)"/>
      </g>
     </g>
    </g>
    <g id="xtick_11">
     <g id="line2d_21">
      <path d="M 489.998776 113.518125 
L 489.998776 22.318125 
" clip-path="url(#p8620c004f1)" style="fill: none; stroke: #b0b0b0; stroke-opacity: 0.2; stroke-width: 0.8; stroke-linecap: square"/>
     </g>
     <g id="line2d_22">
      <g>
       <use xlink:href="#mf1f8dbc195" x="489.998776" y="113.518125" style="stroke: #000000; stroke-width: 0.8"/>
      </g>
     </g>
     <g id="text_11">
      <!-- 2026-05 -->
      <g transform="translate(458.755152 155.435389) rotate(-45) scale(0.1 -0.1)">
       <use xlink:href="#DejaVuSans-15"/>
       <use xlink:href="#DejaVuSans-13" transform="translate(63.625 0)"/>
       <use xlink:href="#DejaVuSans-15" transform="translate(127.25 0)"/>
       <use xlink:href="#DejaVuSans-19" transform="translate(190.875 0)"/>
       <use xlink:href="#DejaVuSans-10" transform="translate(254.5 0)"/>
       <use xlink:href="#DejaVuSans-13" transform="translate(290.578125 0)"/>
       <use xlink:href="#DejaVuSans-18" transform="translate(354.203125 0)"/>
      </g>
     </g>
    </g>
    <g id="xtick_12">
     <g id="line2d_23">
      <path d="M 532.651378 113.518125 
L 532.651378 22.318125 
" clip-path="url(#p8620c004f1)" style="fill: none; stroke: #b0b0b0; stroke-opacity: 0.2; stroke-width: 0.8; stroke-linecap: square"/>
     </g>
     <g id="line2d_24">
      <g>
       <use xlink:href="#mf1f8dbc195" x="532.651378" y="113.518125" style="stroke: #000000; stroke-width: 0.8"/>
      </g>
     </g>
     <g id="text_12">
      <!-- 2026-06 -->
      <g transform="translate(501.407755 155.435389) rotate(-45) scale(0.1 -0.1)">
       <use xlink:href="#DejaVuSans-15"/>
       <use xlink:href="#DejaVuSans-13" transform="translate(63.625 0)"/>
       <use xlink:href="#DejaVuSans-15" transform="translate(127.25 0)"/>
       <use xlink:href="#DejaVuSans-19" transform="translate(190.875 0)"/>
       <use xlink:href="#DejaVuSans-10" transform="translate(254.5 0)"/>
       <use xlink:href="#DejaVuSans-13" transform="translate(290.578125 0)"/>
       <use xlink:href="#DejaVuSans-19" transform="translate(354.203125 0)"/>
      </g>
     </g>
    </g>
   </g>
   <g id="matplotlib.axis_2">
    <g id="ytick_1">
     <g id="line2d_25">
      <path d="M 52.465625 109.37267 
L 554.665625 109.37267 
" clip-path="url(#p8620c004f1)" style="fill: none; stroke: #b0b0b0; stroke-opacity: 0.2; stroke-width: 0.8; stroke-linecap: square"/>
     </g>
     <g id="line2d_26">
      <defs>
       <path id="m5617cee801" d="M 0 0 
L -3.5 0 
" style="stroke: #000000; stroke-width: 0.8"/>
      </defs>
      <g>
       <use xlink:href="#m5617cee801" x="52.465625" y="109.37267" style="stroke: #000000; stroke-width: 0.8"/>
      </g>
     </g>
     <g id="text_13">
      <!-- 0 -->
      <g transform="translate(39.103125 113.171499) scale(0.1 -0.1)">
       <use xlink:href="#DejaVuSans-13"/>
      </g>
     </g>
    </g>
    <g id="ytick_2">
     <g id="line2d_27">
      <path d="M 52.465625 71.68672 
L 554.665625 71.68672 
" clip-path="url(#p8620c004f1)" style="fill: none; stroke: #b0b0b0; stroke-opacity: 0.2; stroke-width: 0.8; stroke-linecap: square"/>
     </g>
     <g id="line2d_28">
      <g>
       <use xlink:href="#m5617cee801" x="52.465625" y="71.68672" style="stroke: #000000; stroke-width: 0.8"/>
      </g>
     </g>
     <g id="text_14">
      <!-- 50 -->
      <g transform="translate(32.740625 75.485548) scale(0.1 -0.1)">
       <use xlink:href="#DejaVuSans-18"/>
       <use xlink:href="#DejaVuSans-13" transform="translate(63.625 0)"/>
      </g>
     </g>
    </g>
    <g id="ytick_3">
     <g id="line2d_29">
      <path d="M 52.465625 34.00077 
L 554.665625 34.00077 
" clip-path="url(#p8620c004f1)" style="fill: none; stroke: #b0b0b0; stroke-opacity: 0.2; stroke-width: 0.8; stroke-linecap: square"/>
     </g>
     <g id="line2d_30">
      <g>
       <use xlink:href="#m5617cee801" x="52.465625" y="34.00077" style="stroke: #000000; stroke-width: 0.8"/>
      </g>
     </g>
     <g id="text_15">
      <!-- 100 -->
      <g transform="translate(26.378125 37.799598) scale(0.1 -0.1)">
       <use xlink:href="#DejaVuSans-14"/>
       <use xlink:href="#DejaVuSans-13" transform="translate(63.625 0)"/>
       <use xlink:href="#DejaVuSans-13" transform="translate(127.25 0)"/>
      </g>
     </g>
    </g>
    <g id="text_16">
     <!-- bp -->
     <g transform="translate(19.975781 74.266562) rotate(-90) scale(0.1 -0.1)">
      <defs>
       <path id="DejaVuSans-45" d="M 3116 1747 
Q 3116 2381 2855 2742 
Q 2594 3103 2138 3103 
Q 1681 3103 1420 2742 
Q 1159 2381 1159 1747 
Q 1159 1113 1420 752 
Q 1681 391 2138 391 
Q 2594 391 2855 752 
Q 3116 1113 3116 1747 
z
M 1159 2969 
Q 1341 3281 1617 3432 
Q 1894 3584 2278 3584 
Q 2916 3584 3314 3078 
Q 3713 2572 3713 1747 
Q 3713 922 3314 415 
Q 2916 -91 2278 -91 
Q 1894 -91 1617 61 
Q 1341 213 1159 525 
L 1159 0 
L 581 0 
L 581 4863 
L 1159 4863 
L 1159 2969 
z
" transform="scale(0.015625)"/>
       <path id="DejaVuSans-53" d="M 1159 525 
L 1159 -1331 
L 581 -1331 
L 581 3500 
L 1159 3500 
L 1159 2969 
Q 1341 3281 1617 3432 
Q 1894 3584 2278 3584 
Q 2916 3584 3314 3078 
Q 3713 2572 3713 1747 
Q 3713 922 3314 415 
Q 2916 -91 2278 -91 
Q 1894 -91 1617 61 
Q 1341 213 1159 525 
z
M 3116 1747 
Q 3116 2381 2855 2742 
Q 2594 3103 2138 3103 
Q 1681 3103 1420 2742 
Q 1159 2381 1159 1747 
Q 1159 1113 1420 752 
Q 1681 391 2138 391 
Q 2594 391 2855 752 
Q 3116 1113 3116 1747 
z
" transform="scale(0.015625)"/>
      </defs>
      <use xlink:href="#DejaVuSans-45"/>
      <use xlink:href="#DejaVuSans-53" transform="translate(63.484375 0)"/>
     </g>
    </g>
   </g>
   <g id="line2d_31">
    <path d="M 52.465625 32.493332 
L 53.841515 30.232175 
L 55.217406 30.232175 
L 56.593296 27.971018 
L 60.720967 28.724737 
L 62.096858 30.985894 
L 63.472748 36.261927 
L 64.848639 39.276803 
L 66.224529 35.508208 
L 70.3522 37.015646 
L 71.728091 35.508208 
L 73.103981 38.523084 
L 75.855762 34.00077 
L 79.983433 34.00077 
L 81.359324 34.754489 
L 85.486995 39.276803 
L 89.614666 40.030522 
L 90.990557 41.53796 
L 92.366447 42.291679 
L 93.742337 41.53796 
L 95.118228 43.799117 
L 99.245899 43.799117 
L 100.621789 45.306555 
L 101.99768 46.060274 
L 103.37357 43.045398 
L 104.749461 43.045398 
L 108.877132 41.53796 
L 110.253022 43.799117 
L 111.628913 41.53796 
L 113.004803 40.030522 
L 114.380693 45.306555 
L 118.508365 46.060274 
L 119.884255 46.060274 
L 121.260146 46.813993 
L 122.636036 46.060274 
L 124.011926 42.291679 
L 128.139598 43.045398 
L 129.515488 44.552836 
L 130.891378 45.306555 
L 132.267269 43.045398 
L 133.643159 43.799117 
L 137.77083 45.306555 
L 139.146721 44.552836 
L 140.522611 45.306555 
L 141.898502 45.306555 
L 143.274392 46.813993 
L 147.402063 48.321431 
L 148.777954 48.321431 
L 150.153844 49.828869 
L 151.529735 49.07515 
L 152.905625 45.306555 
L 157.033296 45.306555 
L 161.160967 47.567712 
L 162.536858 46.813993 
L 166.664529 46.060274 
L 168.04042 44.552836 
L 169.41631 43.799117 
L 170.7922 45.306555 
L 172.168091 43.045398 
L 179.047543 43.045398 
L 180.423433 40.030522 
L 181.799324 38.523084 
L 185.926995 37.015646 
L 187.302885 39.276803 
L 188.678776 37.015646 
L 190.054666 37.015646 
L 191.430557 36.261927 
L 195.558228 35.508208 
L 196.934118 34.754489 
L 198.310009 39.276803 
L 199.685899 40.030522 
L 201.061789 38.523084 
L 205.189461 36.261927 
L 206.565351 37.769365 
L 207.941241 38.523084 
L 209.317132 38.523084 
L 210.693022 43.799117 
L 214.820693 43.799117 
L 216.196584 42.291679 
L 217.572474 39.276803 
L 218.948365 40.784241 
L 220.324255 39.276803 
L 224.451926 37.769365 
L 225.827817 41.53796 
L 227.203707 41.53796 
L 229.955488 38.523084 
L 234.083159 37.015646 
L 235.45905 37.769365 
L 236.83494 39.276803 
L 238.21083 35.508208 
L 239.586721 34.754489 
L 243.714392 35.508208 
L 245.090283 37.769365 
L 246.466173 33.247051 
L 247.842063 33.247051 
L 249.217954 38.523084 
L 253.345625 37.015646 
L 254.721515 37.015646 
L 256.097406 38.523084 
L 258.849187 40.030522 
L 262.976858 41.53796 
L 264.352748 43.799117 
L 265.728639 43.045398 
L 267.104529 43.045398 
L 268.48042 44.552836 
L 273.983981 44.552836 
L 276.735762 43.045398 
L 278.111652 43.045398 
L 282.239324 45.306555 
L 283.615214 45.306555 
L 284.991104 46.060274 
L 286.366995 45.306555 
L 287.742885 55.104902 
L 291.870557 52.843745 
L 293.246447 55.104902 
L 294.622337 55.858621 
L 295.998228 55.104902 
L 297.374118 52.843745 
L 301.501789 51.336307 
L 302.87768 52.843745 
L 304.25357 53.597464 
L 305.629461 55.104902 
L 307.005351 57.366059 
L 311.133022 55.858621 
L 312.508913 52.090026 
L 313.884803 52.843745 
L 315.260693 52.843745 
L 316.636584 53.597464 
L 320.764255 54.351183 
L 322.140146 54.351183 
L 323.516036 52.090026 
L 324.891926 52.090026 
L 326.267817 55.104902 
L 330.395488 52.843745 
L 331.771378 52.843745 
L 333.147269 52.090026 
L 334.523159 49.828869 
L 335.89905 49.07515 
L 340.026721 49.828869 
L 341.402611 51.336307 
L 342.778502 49.828869 
L 344.154392 47.567712 
L 345.530283 43.799117 
L 349.657954 45.306555 
L 351.033844 43.045398 
L 352.409735 46.060274 
L 353.785625 44.552836 
L 355.161515 46.813993 
L 359.289187 45.306555 
L 360.665077 46.813993 
L 362.040967 46.060274 
L 363.416858 46.813993 
L 364.792748 46.060274 
L 368.92042 44.552836 
L 370.29631 46.060274 
L 371.6722 44.552836 
L 373.048091 48.321431 
L 374.423981 47.567712 
L 378.551652 46.813993 
L 379.927543 49.07515 
L 381.303433 46.060274 
L 382.679324 48.321431 
L 384.055214 49.828869 
L 388.182885 49.828869 
L 389.558776 47.567712 
L 390.934666 44.552836 
L 393.686447 44.552836 
L 397.814118 45.306555 
L 399.190009 44.552836 
L 400.565899 45.306555 
L 401.941789 45.306555 
L 403.31768 46.060274 
L 407.445351 46.813993 
L 408.821241 47.567712 
L 410.197132 46.813993 
L 412.948913 52.843745 
L 417.076584 52.090026 
L 418.452474 52.090026 
L 419.828365 54.351183 
L 422.580146 51.336307 
L 428.083707 48.321431 
L 430.835488 48.321431 
L 432.211378 46.813993 
L 436.33905 48.321431 
L 437.71494 49.07515 
L 439.09083 44.552836 
L 440.466721 45.306555 
L 441.842611 44.552836 
L 445.970283 46.060274 
L 447.346173 46.060274 
L 450.097954 47.567712 
L 451.473844 44.552836 
L 455.601515 43.799117 
L 456.977406 46.060274 
L 458.353296 45.306555 
L 459.729187 46.813993 
L 461.105077 46.060274 
L 465.232748 46.060274 
L 467.984529 47.567712 
L 474.863981 47.567712 
L 476.239872 49.07515 
L 477.615762 47.567712 
L 478.991652 44.552836 
L 480.367543 45.306555 
L 485.871104 45.306555 
L 487.246995 47.567712 
L 489.998776 44.552836 
L 494.126447 46.813993 
L 495.502337 46.813993 
L 496.878228 45.306555 
L 499.630009 40.784241 
L 505.13357 43.799117 
L 506.509461 43.045398 
L 507.885351 40.784241 
L 509.261241 42.291679 
L 513.388913 40.784241 
L 514.764803 36.261927 
L 516.140693 34.754489 
L 517.516584 31.739613 
L 518.892474 31.739613 
L 523.020146 26.46358 
L 524.396036 31.739613 
L 525.771926 33.247051 
L 527.147817 33.247051 
L 528.523707 30.985894 
L 532.651378 30.985894 
L 535.403159 29.478456 
L 536.77905 30.985894 
L 538.15494 28.724737 
L 542.282611 31.739613 
L 543.658502 30.985894 
L 545.034392 29.478456 
L 546.410283 30.985894 
L 547.786173 27.971018 
L 551.913844 29.478456 
L 553.289735 30.232175 
L 554.665625 33.247051 
L 554.665625 33.247051 
" clip-path="url(#p8620c004f1)" style="fill: none; stroke: #444444; stroke-width: 1.5; stroke-linecap: square"/>
    <defs>
     <path id="m8892449a40" d="M 0 1 
C 0.265203 1 0.51958 0.894634 0.707107 0.707107 
C 0.894634 0.51958 1 0.265203 1 0 
C 1 -0.265203 0.894634 -0.51958 0.707107 -0.707107 
C 0.51958 -0.894634 0.265203 -1 0 -1 
C -0.265203 -1 -0.51958 -0.894634 -0.707107 -0.707107 
C -0.894634 -0.51958 -1 -0.265203 -1 0 
C -1 0.265203 -0.894634 0.51958 -0.707107 0.707107 
C -0.51958 0.894634 -0.265203 1 0 1 
z
" style="stroke: #444444"/>
    </defs>
    <g clip-path="url(#p8620c004f1)">
     <use xlink:href="#m8892449a40" x="52.465625" y="32.493332" style="fill: #444444; stroke: #444444"/>
     <use xlink:href="#m8892449a40" x="53.841515" y="30.232175" style="fill: #444444; stroke: #444444"/>
     <use xlink:href="#m8892449a40" x="55.217406" y="30.232175" style="fill: #444444; stroke: #444444"/>
     <use xlink:href="#m8892449a40" x="56.593296" y="27.971018" style="fill: #444444; stroke: #444444"/>
     <use xlink:href="#m8892449a40" x="60.720967" y="28.724737" style="fill: #444444; stroke: #444444"/>
     <use xlink:href="#m8892449a40" x="62.096858" y="30.985894" style="fill: #444444; stroke: #444444"/>
     <use xlink:href="#m8892449a40" x="63.472748" y="36.261927" style="fill: #444444; stroke: #444444"/>
     <use xlink:href="#m8892449a40" x="64.848639" y="39.276803" style="fill: #444444; stroke: #444444"/>
     <use xlink:href="#m8892449a40" x="66.224529" y="35.508208" style="fill: #444444; stroke: #444444"/>
     <use xlink:href="#m8892449a40" x="70.3522" y="37.015646" style="fill: #444444; stroke: #444444"/>
     <use xlink:href="#m8892449a40" x="71.728091" y="35.508208" style="fill: #444444; stroke: #444444"/>
     <use xlink:href="#m8892449a40" x="73.103981" y="38.523084" style="fill: #444444; stroke: #444444"/>
     <use xlink:href="#m8892449a40" x="74.479872" y="36.261927" style="fill: #444444; stroke: #444444"/>
     <use xlink:href="#m8892449a40" x="75.855762" y="34.00077" style="fill: #444444; stroke: #444444"/>
     <use xlink:href="#m8892449a40" x="79.983433" y="34.00077" style="fill: #444444; stroke: #444444"/>
     <use xlink:href="#m8892449a40" x="81.359324" y="34.754489" style="fill: #444444; stroke: #444444"/>
     <use xlink:href="#m8892449a40" x="82.735214" y="36.261927" style="fill: #444444; stroke: #444444"/>
     <use xlink:href="#m8892449a40" x="84.111104" y="37.769365" style="fill: #444444; stroke: #444444"/>
     <use xlink:href="#m8892449a40" x="85.486995" y="39.276803" style="fill: #444444; stroke: #444444"/>
     <use xlink:href="#m8892449a40" x="89.614666" y="40.030522" style="fill: #444444; stroke: #444444"/>
     <use xlink:href="#m8892449a40" x="90.990557" y="41.53796" style="fill: #444444; stroke: #444444"/>
     <use xlink:href="#m8892449a40" x="92.366447" y="42.291679" style="fill: #444444; stroke: #444444"/>
     <use xlink:href="#m8892449a40" x="93.742337" y="41.53796" style="fill: #444444; stroke: #444444"/>
     <use xlink:href="#m8892449a40" x="95.118228" y="43.799117" style="fill: #444444; stroke: #444444"/>
     <use xlink:href="#m8892449a40" x="99.245899" y="43.799117" style="fill: #444444; stroke: #444444"/>
     <use xlink:href="#m8892449a40" x="100.621789" y="45.306555" style="fill: #444444; stroke: #444444"/>
     <use xlink:href="#m8892449a40" x="101.99768" y="46.060274" style="fill: #444444; stroke: #444444"/>
     <use xlink:href="#m8892449a40" x="103.37357" y="43.045398" style="fill: #444444; stroke: #444444"/>
     <use xlink:href="#m8892449a40" x="104.749461" y="43.045398" style="fill: #444444; stroke: #444444"/>
     <use xlink:href="#m8892449a40" x="108.877132" y="41.53796" style="fill: #444444; stroke: #444444"/>
     <use xlink:href="#m8892449a40" x="110.253022" y="43.799117" style="fill: #444444; stroke: #444444"/>
     <use xlink:href="#m8892449a40" x="111.628913" y="41.53796" style="fill: #444444; stroke: #444444"/>
     <use xlink:href="#m8892449a40" x="113.004803" y="40.030522" style="fill: #444444; stroke: #444444"/>
     <use xlink:href="#m8892449a40" x="114.380693" y="45.306555" style="fill: #444444; stroke: #444444"/>
     <use xlink:href="#m8892449a40" x="118.508365" y="46.060274" style="fill: #444444; stroke: #444444"/>
     <use xlink:href="#m8892449a40" x="119.884255" y="46.060274" style="fill: #444444; stroke: #444444"/>
     <use xlink:href="#m8892449a40" x="121.260146" y="46.813993" style="fill: #444444; stroke: #444444"/>
     <use xlink:href="#m8892449a40" x="122.636036" y="46.060274" style="fill: #444444; stroke: #444444"/>
     <use xlink:href="#m8892449a40" x="124.011926" y="42.291679" style="fill: #444444; stroke: #444444"/>
     <use xlink:href="#m8892449a40" x="128.139598" y="43.045398" style="fill: #444444; stroke: #444444"/>
     <use xlink:href="#m8892449a40" x="129.515488" y="44.552836" style="fill: #444444; stroke: #444444"/>
     <use xlink:href="#m8892449a40" x="130.891378" y="45.306555" style="fill: #444444; stroke: #444444"/>
     <use xlink:href="#m8892449a40" x="132.267269" y="43.045398" style="fill: #444444; stroke: #444444"/>
     <use xlink:href="#m8892449a40" x="133.643159" y="43.799117" style="fill: #444444; stroke: #444444"/>
     <use xlink:href="#m8892449a40" x="137.77083" y="45.306555" style="fill: #444444; stroke: #444444"/>
     <use xlink:href="#m8892449a40" x="139.146721" y="44.552836" style="fill: #444444; stroke: #444444"/>
     <use xlink:href="#m8892449a40" x="140.522611" y="45.306555" style="fill: #444444; stroke: #444444"/>
     <use xlink:href="#m8892449a40" x="141.898502" y="45.306555" style="fill: #444444; stroke: #444444"/>
     <use xlink:href="#m8892449a40" x="143.274392" y="46.813993" style="fill: #444444; stroke: #444444"/>
     <use xlink:href="#m8892449a40" x="147.402063" y="48.321431" style="fill: #444444; stroke: #444444"/>
     <use xlink:href="#m8892449a40" x="148.777954" y="48.321431" style="fill: #444444; stroke: #444444"/>
     <use xlink:href="#m8892449a40" x="150.153844" y="49.828869" style="fill: #444444; stroke: #444444"/>
     <use xlink:href="#m8892449a40" x="151.529735" y="49.07515" style="fill: #444444; stroke: #444444"/>
     <use xlink:href="#m8892449a40" x="152.905625" y="45.306555" style="fill: #444444; stroke: #444444"/>
     <use xlink:href="#m8892449a40" x="157.033296" y="45.306555" style="fill: #444444; stroke: #444444"/>
     <use xlink:href="#m8892449a40" x="158.409187" y="46.060274" style="fill: #444444; stroke: #444444"/>
     <use xlink:href="#m8892449a40" x="159.785077" y="46.813993" style="fill: #444444; stroke: #444444"/>
     <use xlink:href="#m8892449a40" x="161.160967" y="47.567712" style="fill: #444444; stroke: #444444"/>
     <use xlink:href="#m8892449a40" x="162.536858" y="46.813993" style="fill: #444444; stroke: #444444"/>
     <use xlink:href="#m8892449a40" x="166.664529" y="46.060274" style="fill: #444444; stroke: #444444"/>
     <use xlink:href="#m8892449a40" x="168.04042" y="44.552836" style="fill: #444444; stroke: #444444"/>
     <use xlink:href="#m8892449a40" x="169.41631" y="43.799117" style="fill: #444444; stroke: #444444"/>
     <use xlink:href="#m8892449a40" x="170.7922" y="45.306555" style="fill: #444444; stroke: #444444"/>
     <use xlink:href="#m8892449a40" x="172.168091" y="43.045398" style="fill: #444444; stroke: #444444"/>
     <use xlink:href="#m8892449a40" x="176.295762" y="43.045398" style="fill: #444444; stroke: #444444"/>
     <use xlink:href="#m8892449a40" x="177.671652" y="43.045398" style="fill: #444444; stroke: #444444"/>
     <use xlink:href="#m8892449a40" x="179.047543" y="43.045398" style="fill: #444444; stroke: #444444"/>
     <use xlink:href="#m8892449a40" x="180.423433" y="40.030522" style="fill: #444444; stroke: #444444"/>
     <use xlink:href="#m8892449a40" x="181.799324" y="38.523084" style="fill: #444444; stroke: #444444"/>
     <use xlink:href="#m8892449a40" x="185.926995" y="37.015646" style="fill: #444444; stroke: #444444"/>
     <use xlink:href="#m8892449a40" x="187.302885" y="39.276803" style="fill: #444444; stroke: #444444"/>
     <use xlink:href="#m8892449a40" x="188.678776" y="37.015646" style="fill: #444444; stroke: #444444"/>
     <use xlink:href="#m8892449a40" x="190.054666" y="37.015646" style="fill: #444444; stroke: #444444"/>
     <use xlink:href="#m8892449a40" x="191.430557" y="36.261927" style="fill: #444444; stroke: #444444"/>
     <use xlink:href="#m8892449a40" x="195.558228" y="35.508208" style="fill: #444444; stroke: #444444"/>
     <use xlink:href="#m8892449a40" x="196.934118" y="34.754489" style="fill: #444444; stroke: #444444"/>
     <use xlink:href="#m8892449a40" x="198.310009" y="39.276803" style="fill: #444444; stroke: #444444"/>
     <use xlink:href="#m8892449a40" x="199.685899" y="40.030522" style="fill: #444444; stroke: #444444"/>
     <use xlink:href="#m8892449a40" x="201.061789" y="38.523084" style="fill: #444444; stroke: #444444"/>
     <use xlink:href="#m8892449a40" x="205.189461" y="36.261927" style="fill: #444444; stroke: #444444"/>
     <use xlink:href="#m8892449a40" x="206.565351" y="37.769365" style="fill: #444444; stroke: #444444"/>
     <use xlink:href="#m8892449a40" x="207.941241" y="38.523084" style="fill: #444444; stroke: #444444"/>
     <use xlink:href="#m8892449a40" x="209.317132" y="38.523084" style="fill: #444444; stroke: #444444"/>
     <use xlink:href="#m8892449a40" x="210.693022" y="43.799117" style="fill: #444444; stroke: #444444"/>
     <use xlink:href="#m8892449a40" x="214.820693" y="43.799117" style="fill: #444444; stroke: #444444"/>
     <use xlink:href="#m8892449a40" x="216.196584" y="42.291679" style="fill: #444444; stroke: #444444"/>
     <use xlink:href="#m8892449a40" x="217.572474" y="39.276803" style="fill: #444444; stroke: #444444"/>
     <use xlink:href="#m8892449a40" x="218.948365" y="40.784241" style="fill: #444444; stroke: #444444"/>
     <use xlink:href="#m8892449a40" x="220.324255" y="39.276803" style="fill: #444444; stroke: #444444"/>
     <use xlink:href="#m8892449a40" x="224.451926" y="37.769365" style="fill: #444444; stroke: #444444"/>
     <use xlink:href="#m8892449a40" x="225.827817" y="41.53796" style="fill: #444444; stroke: #444444"/>
     <use xlink:href="#m8892449a40" x="227.203707" y="41.53796" style="fill: #444444; stroke: #444444"/>
     <use xlink:href="#m8892449a40" x="228.579598" y="40.030522" style="fill: #444444; stroke: #444444"/>
     <use xlink:href="#m8892449a40" x="229.955488" y="38.523084" style="fill: #444444; stroke: #444444"/>
     <use xlink:href="#m8892449a40" x="234.083159" y="37.015646" style="fill: #444444; stroke: #444444"/>
     <use xlink:href="#m8892449a40" x="235.45905" y="37.769365" style="fill: #444444; stroke: #444444"/>
     <use xlink:href="#m8892449a40" x="236.83494" y="39.276803" style="fill: #444444; stroke: #444444"/>
     <use xlink:href="#m8892449a40" x="238.21083" y="35.508208" style="fill: #444444; stroke: #444444"/>
     <use xlink:href="#m8892449a40" x="239.586721" y="34.754489" style="fill: #444444; stroke: #444444"/>
     <use xlink:href="#m8892449a40" x="243.714392" y="35.508208" style="fill: #444444; stroke: #444444"/>
     <use xlink:href="#m8892449a40" x="245.090283" y="37.769365" style="fill: #444444; stroke: #444444"/>
     <use xlink:href="#m8892449a40" x="246.466173" y="33.247051" style="fill: #444444; stroke: #444444"/>
     <use xlink:href="#m8892449a40" x="247.842063" y="33.247051" style="fill: #444444; stroke: #444444"/>
     <use xlink:href="#m8892449a40" x="249.217954" y="38.523084" style="fill: #444444; stroke: #444444"/>
     <use xlink:href="#m8892449a40" x="253.345625" y="37.015646" style="fill: #444444; stroke: #444444"/>
     <use xlink:href="#m8892449a40" x="254.721515" y="37.015646" style="fill: #444444; stroke: #444444"/>
     <use xlink:href="#m8892449a40" x="256.097406" y="38.523084" style="fill: #444444; stroke: #444444"/>
     <use xlink:href="#m8892449a40" x="257.473296" y="39.276803" style="fill: #444444; stroke: #444444"/>
     <use xlink:href="#m8892449a40" x="258.849187" y="40.030522" style="fill: #444444; stroke: #444444"/>
     <use xlink:href="#m8892449a40" x="262.976858" y="41.53796" style="fill: #444444; stroke: #444444"/>
     <use xlink:href="#m8892449a40" x="264.352748" y="43.799117" style="fill: #444444; stroke: #444444"/>
     <use xlink:href="#m8892449a40" x="265.728639" y="43.045398" style="fill: #444444; stroke: #444444"/>
     <use xlink:href="#m8892449a40" x="267.104529" y="43.045398" style="fill: #444444; stroke: #444444"/>
     <use xlink:href="#m8892449a40" x="268.48042" y="44.552836" style="fill: #444444; stroke: #444444"/>
     <use xlink:href="#m8892449a40" x="272.608091" y="44.552836" style="fill: #444444; stroke: #444444"/>
     <use xlink:href="#m8892449a40" x="273.983981" y="44.552836" style="fill: #444444; stroke: #444444"/>
     <use xlink:href="#m8892449a40" x="275.359872" y="43.799117" style="fill: #444444; stroke: #444444"/>
     <use xlink:href="#m8892449a40" x="276.735762" y="43.045398" style="fill: #444444; stroke: #444444"/>
     <use xlink:href="#m8892449a40" x="278.111652" y="43.045398" style="fill: #444444; stroke: #444444"/>
     <use xlink:href="#m8892449a40" x="282.239324" y="45.306555" style="fill: #444444; stroke: #444444"/>
     <use xlink:href="#m8892449a40" x="283.615214" y="45.306555" style="fill: #444444; stroke: #444444"/>
     <use xlink:href="#m8892449a40" x="284.991104" y="46.060274" style="fill: #444444; stroke: #444444"/>
     <use xlink:href="#m8892449a40" x="286.366995" y="45.306555" style="fill: #444444; stroke: #444444"/>
     <use xlink:href="#m8892449a40" x="287.742885" y="55.104902" style="fill: #444444; stroke: #444444"/>
     <use xlink:href="#m8892449a40" x="291.870557" y="52.843745" style="fill: #444444; stroke: #444444"/>
     <use xlink:href="#m8892449a40" x="293.246447" y="55.104902" style="fill: #444444; stroke: #444444"/>
     <use xlink:href="#m8892449a40" x="294.622337" y="55.858621" style="fill: #444444; stroke: #444444"/>
     <use xlink:href="#m8892449a40" x="295.998228" y="55.104902" style="fill: #444444; stroke: #444444"/>
     <use xlink:href="#m8892449a40" x="297.374118" y="52.843745" style="fill: #444444; stroke: #444444"/>
     <use xlink:href="#m8892449a40" x="301.501789" y="51.336307" style="fill: #444444; stroke: #444444"/>
     <use xlink:href="#m8892449a40" x="302.87768" y="52.843745" style="fill: #444444; stroke: #444444"/>
     <use xlink:href="#m8892449a40" x="304.25357" y="53.597464" style="fill: #444444; stroke: #444444"/>
     <use xlink:href="#m8892449a40" x="305.629461" y="55.104902" style="fill: #444444; stroke: #444444"/>
     <use xlink:href="#m8892449a40" x="307.005351" y="57.366059" style="fill: #444444; stroke: #444444"/>
     <use xlink:href="#m8892449a40" x="311.133022" y="55.858621" style="fill: #444444; stroke: #444444"/>
     <use xlink:href="#m8892449a40" x="312.508913" y="52.090026" style="fill: #444444; stroke: #444444"/>
     <use xlink:href="#m8892449a40" x="313.884803" y="52.843745" style="fill: #444444; stroke: #444444"/>
     <use xlink:href="#m8892449a40" x="315.260693" y="52.843745" style="fill: #444444; stroke: #444444"/>
     <use xlink:href="#m8892449a40" x="316.636584" y="53.597464" style="fill: #444444; stroke: #444444"/>
     <use xlink:href="#m8892449a40" x="320.764255" y="54.351183" style="fill: #444444; stroke: #444444"/>
     <use xlink:href="#m8892449a40" x="322.140146" y="54.351183" style="fill: #444444; stroke: #444444"/>
     <use xlink:href="#m8892449a40" x="323.516036" y="52.090026" style="fill: #444444; stroke: #444444"/>
     <use xlink:href="#m8892449a40" x="324.891926" y="52.090026" style="fill: #444444; stroke: #444444"/>
     <use xlink:href="#m8892449a40" x="326.267817" y="55.104902" style="fill: #444444; stroke: #444444"/>
     <use xlink:href="#m8892449a40" x="330.395488" y="52.843745" style="fill: #444444; stroke: #444444"/>
     <use xlink:href="#m8892449a40" x="331.771378" y="52.843745" style="fill: #444444; stroke: #444444"/>
     <use xlink:href="#m8892449a40" x="333.147269" y="52.090026" style="fill: #444444; stroke: #444444"/>
     <use xlink:href="#m8892449a40" x="334.523159" y="49.828869" style="fill: #444444; stroke: #444444"/>
     <use xlink:href="#m8892449a40" x="335.89905" y="49.07515" style="fill: #444444; stroke: #444444"/>
     <use xlink:href="#m8892449a40" x="340.026721" y="49.828869" style="fill: #444444; stroke: #444444"/>
     <use xlink:href="#m8892449a40" x="341.402611" y="51.336307" style="fill: #444444; stroke: #444444"/>
     <use xlink:href="#m8892449a40" x="342.778502" y="49.828869" style="fill: #444444; stroke: #444444"/>
     <use xlink:href="#m8892449a40" x="344.154392" y="47.567712" style="fill: #444444; stroke: #444444"/>
     <use xlink:href="#m8892449a40" x="345.530283" y="43.799117" style="fill: #444444; stroke: #444444"/>
     <use xlink:href="#m8892449a40" x="349.657954" y="45.306555" style="fill: #444444; stroke: #444444"/>
     <use xlink:href="#m8892449a40" x="351.033844" y="43.045398" style="fill: #444444; stroke: #444444"/>
     <use xlink:href="#m8892449a40" x="352.409735" y="46.060274" style="fill: #444444; stroke: #444444"/>
     <use xlink:href="#m8892449a40" x="353.785625" y="44.552836" style="fill: #444444; stroke: #444444"/>
     <use xlink:href="#m8892449a40" x="355.161515" y="46.813993" style="fill: #444444; stroke: #444444"/>
     <use xlink:href="#m8892449a40" x="359.289187" y="45.306555" style="fill: #444444; stroke: #444444"/>
     <use xlink:href="#m8892449a40" x="360.665077" y="46.813993" style="fill: #444444; stroke: #444444"/>
     <use xlink:href="#m8892449a40" x="362.040967" y="46.060274" style="fill: #444444; stroke: #444444"/>
     <use xlink:href="#m8892449a40" x="363.416858" y="46.813993" style="fill: #444444; stroke: #444444"/>
     <use xlink:href="#m8892449a40" x="364.792748" y="46.060274" style="fill: #444444; stroke: #444444"/>
     <use xlink:href="#m8892449a40" x="368.92042" y="44.552836" style="fill: #444444; stroke: #444444"/>
     <use xlink:href="#m8892449a40" x="370.29631" y="46.060274" style="fill: #444444; stroke: #444444"/>
     <use xlink:href="#m8892449a40" x="371.6722" y="44.552836" style="fill: #444444; stroke: #444444"/>
     <use xlink:href="#m8892449a40" x="373.048091" y="48.321431" style="fill: #444444; stroke: #444444"/>
     <use xlink:href="#m8892449a40" x="374.423981" y="47.567712" style="fill: #444444; stroke: #444444"/>
     <use xlink:href="#m8892449a40" x="378.551652" y="46.813993" style="fill: #444444; stroke: #444444"/>
     <use xlink:href="#m8892449a40" x="379.927543" y="49.07515" style="fill: #444444; stroke: #444444"/>
     <use xlink:href="#m8892449a40" x="381.303433" y="46.060274" style="fill: #444444; stroke: #444444"/>
     <use xlink:href="#m8892449a40" x="382.679324" y="48.321431" style="fill: #444444; stroke: #444444"/>
     <use xlink:href="#m8892449a40" x="384.055214" y="49.828869" style="fill: #444444; stroke: #444444"/>
     <use xlink:href="#m8892449a40" x="388.182885" y="49.828869" style="fill: #444444; stroke: #444444"/>
     <use xlink:href="#m8892449a40" x="389.558776" y="47.567712" style="fill: #444444; stroke: #444444"/>
     <use xlink:href="#m8892449a40" x="390.934666" y="44.552836" style="fill: #444444; stroke: #444444"/>
     <use xlink:href="#m8892449a40" x="392.310557" y="44.552836" style="fill: #444444; stroke: #444444"/>
     <use xlink:href="#m8892449a40" x="393.686447" y="44.552836" style="fill: #444444; stroke: #444444"/>
     <use xlink:href="#m8892449a40" x="397.814118" y="45.306555" style="fill: #444444; stroke: #444444"/>
     <use xlink:href="#m8892449a40" x="399.190009" y="44.552836" style="fill: #444444; stroke: #444444"/>
     <use xlink:href="#m8892449a40" x="400.565899" y="45.306555" style="fill: #444444; stroke: #444444"/>
     <use xlink:href="#m8892449a40" x="401.941789" y="45.306555" style="fill: #444444; stroke: #444444"/>
     <use xlink:href="#m8892449a40" x="403.31768" y="46.060274" style="fill: #444444; stroke: #444444"/>
     <use xlink:href="#m8892449a40" x="407.445351" y="46.813993" style="fill: #444444; stroke: #444444"/>
     <use xlink:href="#m8892449a40" x="408.821241" y="47.567712" style="fill: #444444; stroke: #444444"/>
     <use xlink:href="#m8892449a40" x="410.197132" y="46.813993" style="fill: #444444; stroke: #444444"/>
     <use xlink:href="#m8892449a40" x="411.573022" y="49.828869" style="fill: #444444; stroke: #444444"/>
     <use xlink:href="#m8892449a40" x="412.948913" y="52.843745" style="fill: #444444; stroke: #444444"/>
     <use xlink:href="#m8892449a40" x="417.076584" y="52.090026" style="fill: #444444; stroke: #444444"/>
     <use xlink:href="#m8892449a40" x="418.452474" y="52.090026" style="fill: #444444; stroke: #444444"/>
     <use xlink:href="#m8892449a40" x="419.828365" y="54.351183" style="fill: #444444; stroke: #444444"/>
     <use xlink:href="#m8892449a40" x="421.204255" y="52.843745" style="fill: #444444; stroke: #444444"/>
     <use xlink:href="#m8892449a40" x="422.580146" y="51.336307" style="fill: #444444; stroke: #444444"/>
     <use xlink:href="#m8892449a40" x="426.707817" y="49.07515" style="fill: #444444; stroke: #444444"/>
     <use xlink:href="#m8892449a40" x="428.083707" y="48.321431" style="fill: #444444; stroke: #444444"/>
     <use xlink:href="#m8892449a40" x="429.459598" y="48.321431" style="fill: #444444; stroke: #444444"/>
     <use xlink:href="#m8892449a40" x="430.835488" y="48.321431" style="fill: #444444; stroke: #444444"/>
     <use xlink:href="#m8892449a40" x="432.211378" y="46.813993" style="fill: #444444; stroke: #444444"/>
     <use xlink:href="#m8892449a40" x="436.33905" y="48.321431" style="fill: #444444; stroke: #444444"/>
     <use xlink:href="#m8892449a40" x="437.71494" y="49.07515" style="fill: #444444; stroke: #444444"/>
     <use xlink:href="#m8892449a40" x="439.09083" y="44.552836" style="fill: #444444; stroke: #444444"/>
     <use xlink:href="#m8892449a40" x="440.466721" y="45.306555" style="fill: #444444; stroke: #444444"/>
     <use xlink:href="#m8892449a40" x="441.842611" y="44.552836" style="fill: #444444; stroke: #444444"/>
     <use xlink:href="#m8892449a40" x="445.970283" y="46.060274" style="fill: #444444; stroke: #444444"/>
     <use xlink:href="#m8892449a40" x="447.346173" y="46.060274" style="fill: #444444; stroke: #444444"/>
     <use xlink:href="#m8892449a40" x="448.722063" y="46.813993" style="fill: #444444; stroke: #444444"/>
     <use xlink:href="#m8892449a40" x="450.097954" y="47.567712" style="fill: #444444; stroke: #444444"/>
     <use xlink:href="#m8892449a40" x="451.473844" y="44.552836" style="fill: #444444; stroke: #444444"/>
     <use xlink:href="#m8892449a40" x="455.601515" y="43.799117" style="fill: #444444; stroke: #444444"/>
     <use xlink:href="#m8892449a40" x="456.977406" y="46.060274" style="fill: #444444; stroke: #444444"/>
     <use xlink:href="#m8892449a40" x="458.353296" y="45.306555" style="fill: #444444; stroke: #444444"/>
     <use xlink:href="#m8892449a40" x="459.729187" y="46.813993" style="fill: #444444; stroke: #444444"/>
     <use xlink:href="#m8892449a40" x="461.105077" y="46.060274" style="fill: #444444; stroke: #444444"/>
     <use xlink:href="#m8892449a40" x="465.232748" y="46.060274" style="fill: #444444; stroke: #444444"/>
     <use xlink:href="#m8892449a40" x="466.608639" y="46.813993" style="fill: #444444; stroke: #444444"/>
     <use xlink:href="#m8892449a40" x="467.984529" y="47.567712" style="fill: #444444; stroke: #444444"/>
     <use xlink:href="#m8892449a40" x="469.36042" y="47.567712" style="fill: #444444; stroke: #444444"/>
     <use xlink:href="#m8892449a40" x="470.73631" y="47.567712" style="fill: #444444; stroke: #444444"/>
     <use xlink:href="#m8892449a40" x="474.863981" y="47.567712" style="fill: #444444; stroke: #444444"/>
     <use xlink:href="#m8892449a40" x="476.239872" y="49.07515" style="fill: #444444; stroke: #444444"/>
     <use xlink:href="#m8892449a40" x="477.615762" y="47.567712" style="fill: #444444; stroke: #444444"/>
     <use xlink:href="#m8892449a40" x="478.991652" y="44.552836" style="fill: #444444; stroke: #444444"/>
     <use xlink:href="#m8892449a40" x="480.367543" y="45.306555" style="fill: #444444; stroke: #444444"/>
     <use xlink:href="#m8892449a40" x="484.495214" y="45.306555" style="fill: #444444; stroke: #444444"/>
     <use xlink:href="#m8892449a40" x="485.871104" y="45.306555" style="fill: #444444; stroke: #444444"/>
     <use xlink:href="#m8892449a40" x="487.246995" y="47.567712" style="fill: #444444; stroke: #444444"/>
     <use xlink:href="#m8892449a40" x="488.622885" y="46.060274" style="fill: #444444; stroke: #444444"/>
     <use xlink:href="#m8892449a40" x="489.998776" y="44.552836" style="fill: #444444; stroke: #444444"/>
     <use xlink:href="#m8892449a40" x="494.126447" y="46.813993" style="fill: #444444; stroke: #444444"/>
     <use xlink:href="#m8892449a40" x="495.502337" y="46.813993" style="fill: #444444; stroke: #444444"/>
     <use xlink:href="#m8892449a40" x="496.878228" y="45.306555" style="fill: #444444; stroke: #444444"/>
     <use xlink:href="#m8892449a40" x="498.254118" y="43.045398" style="fill: #444444; stroke: #444444"/>
     <use xlink:href="#m8892449a40" x="499.630009" y="40.784241" style="fill: #444444; stroke: #444444"/>
     <use xlink:href="#m8892449a40" x="503.75768" y="43.045398" style="fill: #444444; stroke: #444444"/>
     <use xlink:href="#m8892449a40" x="505.13357" y="43.799117" style="fill: #444444; stroke: #444444"/>
     <use xlink:href="#m8892449a40" x="506.509461" y="43.045398" style="fill: #444444; stroke: #444444"/>
     <use xlink:href="#m8892449a40" x="507.885351" y="40.784241" style="fill: #444444; stroke: #444444"/>
     <use xlink:href="#m8892449a40" x="509.261241" y="42.291679" style="fill: #444444; stroke: #444444"/>
     <use xlink:href="#m8892449a40" x="513.388913" y="40.784241" style="fill: #444444; stroke: #444444"/>
     <use xlink:href="#m8892449a40" x="514.764803" y="36.261927" style="fill: #444444; stroke: #444444"/>
     <use xlink:href="#m8892449a40" x="516.140693" y="34.754489" style="fill: #444444; stroke: #444444"/>
     <use xlink:href="#m8892449a40" x="517.516584" y="31.739613" style="fill: #444444; stroke: #444444"/>
     <use xlink:href="#m8892449a40" x="518.892474" y="31.739613" style="fill: #444444; stroke: #444444"/>
     <use xlink:href="#m8892449a40" x="523.020146" y="26.46358" style="fill: #444444; stroke: #444444"/>
     <use xlink:href="#m8892449a40" x="524.396036" y="31.739613" style="fill: #444444; stroke: #444444"/>
     <use xlink:href="#m8892449a40" x="525.771926" y="33.247051" style="fill: #444444; stroke: #444444"/>
     <use xlink:href="#m8892449a40" x="527.147817" y="33.247051" style="fill: #444444; stroke: #444444"/>
     <use xlink:href="#m8892449a40" x="528.523707" y="30.985894" style="fill: #444444; stroke: #444444"/>
     <use xlink:href="#m8892449a40" x="532.651378" y="30.985894" style="fill: #444444; stroke: #444444"/>
     <use xlink:href="#m8892449a40" x="534.027269" y="30.232175" style="fill: #444444; stroke: #444444"/>
     <use xlink:href="#m8892449a40" x="535.403159" y="29.478456" style="fill: #444444; stroke: #444444"/>
     <use xlink:href="#m8892449a40" x="536.77905" y="30.985894" style="fill: #444444; stroke: #444444"/>
     <use xlink:href="#m8892449a40" x="538.15494" y="28.724737" style="fill: #444444; stroke: #444444"/>
     <use xlink:href="#m8892449a40" x="542.282611" y="31.739613" style="fill: #444444; stroke: #444444"/>
     <use xlink:href="#m8892449a40" x="543.658502" y="30.985894" style="fill: #444444; stroke: #444444"/>
     <use xlink:href="#m8892449a40" x="545.034392" y="29.478456" style="fill: #444444; stroke: #444444"/>
     <use xlink:href="#m8892449a40" x="546.410283" y="30.985894" style="fill: #444444; stroke: #444444"/>
     <use xlink:href="#m8892449a40" x="547.786173" y="27.971018" style="fill: #444444; stroke: #444444"/>
     <use xlink:href="#m8892449a40" x="551.913844" y="29.478456" style="fill: #444444; stroke: #444444"/>
     <use xlink:href="#m8892449a40" x="553.289735" y="30.232175" style="fill: #444444; stroke: #444444"/>
     <use xlink:href="#m8892449a40" x="554.665625" y="33.247051" style="fill: #444444; stroke: #444444"/>
    </g>
   </g>
   <g id="line2d_32">
    <path d="M 52.465625 109.37267 
L 554.665625 109.37267 
" clip-path="url(#p8620c004f1)" style="fill: none; stroke: #000000; stroke-linecap: square"/>
   </g>
   <g id="patch_3">
    <path d="M 52.465625 113.518125 
L 52.465625 22.318125 
" style="fill: none; stroke: #000000; stroke-width: 0.8; stroke-linejoin: miter; stroke-linecap: square"/>
   </g>
   <g id="patch_4">
    <path d="M 554.665625 113.518125 
L 554.665625 22.318125 
" style="fill: none; stroke: #000000; stroke-width: 0.8; stroke-linejoin: miter; stroke-linecap: square"/>
   </g>
   <g id="patch_5">
    <path d="M 52.465625 113.518125 
L 554.665625 113.518125 
" style="fill: none; stroke: #000000; stroke-width: 0.8; stroke-linejoin: miter; stroke-linecap: square"/>
   </g>
   <g id="patch_6">
    <path d="M 52.465625 22.318125 
L 554.665625 22.318125 
" style="fill: none; stroke: #000000; stroke-width: 0.8; stroke-linejoin: miter; stroke-linecap: square"/>
   </g>
   <g id="text_17">
    <!-- UST10 – GoC10 Spread (bp) -->
    <g transform="translate(219.862813 16.318125) scale(0.12 -0.12)">
     <defs>
      <path id="DejaVuSans-38" d="M 556 4666 
L 1191 4666 
L 1191 1831 
Q 1191 1081 1462 751 
Q 1734 422 2344 422 
Q 2950 422 3222 751 
Q 3494 1081 3494 1831 
L 3494 4666 
L 4128 4666 
L 4128 1753 
Q 4128 841 3676 375 
Q 3225 -91 2344 -91 
Q 1459 -91 1007 375 
Q 556 841 556 1753 
L 556 4666 
z
" transform="scale(0.015625)"/>
      <path id="DejaVuSans-36" d="M 3425 4513 
L 3425 3897 
Q 3066 4069 2747 4153 
Q 2428 4238 2131 4238 
Q 1616 4238 1336 4038 
Q 1056 3838 1056 3469 
Q 1056 3159 1242 3001 
Q 1428 2844 1947 2747 
L 2328 2669 
Q 3034 2534 3370 2195 
Q 3706 1856 3706 1288 
Q 3706 609 3251 259 
Q 2797 -91 1919 -91 
Q 1588 -91 1214 -16 
Q 841 59 441 206 
L 441 856 
Q 825 641 1194 531 
Q 1563 422 1919 422 
Q 2459 422 2753 634 
Q 3047 847 3047 1241 
Q 3047 1584 2836 1778 
Q 2625 1972 2144 2069 
L 1759 2144 
Q 1053 2284 737 2584 
Q 422 2884 422 3419 
Q 422 4038 858 4394 
Q 1294 4750 2059 4750 
Q 2388 4750 2728 4690 
Q 3069 4631 3425 4513 
z
" transform="scale(0.015625)"/>
      <path id="DejaVuSans-37" d="M -19 4666 
L 3928 4666 
L 3928 4134 
L 2272 4134 
L 2272 0 
L 1638 0 
L 1638 4134 
L -19 4134 
L -19 4666 
z
" transform="scale(0.015625)"/>
      <path id="DejaVuSans-3" transform="scale(0.015625)"/>
      <path id="DejaVuSans-af5" d="M 313 1978 
L 2888 1978 
L 2888 1528 
L 313 1528 
L 313 1978 
z
" transform="scale(0.015625)"/>
      <path id="DejaVuSans-2a" d="M 3809 666 
L 3809 1919 
L 2778 1919 
L 2778 2438 
L 4434 2438 
L 4434 434 
Q 4069 175 3628 42 
Q 3188 -91 2688 -91 
Q 1594 -91 976 548 
Q 359 1188 359 2328 
Q 359 3472 976 4111 
Q 1594 4750 2688 4750 
Q 3144 4750 3555 4637 
Q 3966 4525 4313 4306 
L 4313 3634 
Q 3963 3931 3569 4081 
Q 3175 4231 2741 4231 
Q 1884 4231 1454 3753 
Q 1025 3275 1025 2328 
Q 1025 1384 1454 906 
Q 1884 428 2741 428 
Q 3075 428 3337 486 
Q 3600 544 3809 666 
z
" transform="scale(0.015625)"/>
      <path id="DejaVuSans-52" d="M 1959 3097 
Q 1497 3097 1228 2736 
Q 959 2375 959 1747 
Q 959 1119 1226 758 
Q 1494 397 1959 397 
Q 2419 397 2687 759 
Q 2956 1122 2956 1747 
Q 2956 2369 2687 2733 
Q 2419 3097 1959 3097 
z
M 1959 3584 
Q 2709 3584 3137 3096 
Q 3566 2609 3566 1747 
Q 3566 888 3137 398 
Q 2709 -91 1959 -91 
Q 1206 -91 779 398 
Q 353 888 353 1747 
Q 353 2609 779 3096 
Q 1206 3584 1959 3584 
z
" transform="scale(0.015625)"/>
      <path id="DejaVuSans-26" d="M 4122 4306 
L 4122 3641 
Q 3803 3938 3442 4084 
Q 3081 4231 2675 4231 
Q 1875 4231 1450 3742 
Q 1025 3253 1025 2328 
Q 1025 1406 1450 917 
Q 1875 428 2675 428 
Q 3081 428 3442 575 
Q 3803 722 4122 1019 
L 4122 359 
Q 3791 134 3420 21 
Q 3050 -91 2638 -91 
Q 1578 -91 968 557 
Q 359 1206 359 2328 
Q 359 3453 968 4101 
Q 1578 4750 2638 4750 
Q 3056 4750 3426 4639 
Q 3797 4528 4122 4306 
z
" transform="scale(0.015625)"/>
      <path id="DejaVuSans-55" d="M 2631 2963 
Q 2534 3019 2420 3045 
Q 2306 3072 2169 3072 
Q 1681 3072 1420 2755 
Q 1159 2438 1159 1844 
L 1159 0 
L 581 0 
L 581 3500 
L 1159 3500 
L 1159 2956 
Q 1341 3275 1631 3429 
Q 1922 3584 2338 3584 
Q 2397 3584 2469 3576 
Q 2541 3569 2628 3553 
L 2631 2963 
z
" transform="scale(0.015625)"/>
      <path id="DejaVuSans-48" d="M 3597 1894 
L 3597 1613 
L 953 1613 
Q 991 1019 1311 708 
Q 1631 397 2203 397 
Q 2534 397 2845 478 
Q 3156 559 3463 722 
L 3463 178 
Q 3153 47 2828 -22 
Q 2503 -91 2169 -91 
Q 1331 -91 842 396 
Q 353 884 353 1716 
Q 353 2575 817 3079 
Q 1281 3584 2069 3584 
Q 2775 3584 3186 3129 
Q 3597 2675 3597 1894 
z
M 3022 2063 
Q 3016 2534 2758 2815 
Q 2500 3097 2075 3097 
Q 1594 3097 1305 2825 
Q 1016 2553 972 2059 
L 3022 2063 
z
" transform="scale(0.015625)"/>
      <path id="DejaVuSans-44" d="M 2194 1759 
Q 1497 1759 1228 1600 
Q 959 1441 959 1056 
Q 959 750 1161 570 
Q 1363 391 1709 391 
Q 2188 391 2477 730 
Q 2766 1069 2766 1631 
L 2766 1759 
L 2194 1759 
z
M 3341 1997 
L 3341 0 
L 2766 0 
L 2766 531 
Q 2569 213 2275 61 
Q 1981 -91 1556 -91 
Q 1019 -91 701 211 
Q 384 513 384 1019 
Q 384 1609 779 1909 
Q 1175 2209 1959 2209 
L 2766 2209 
L 2766 2266 
Q 2766 2663 2505 2880 
Q 2244 3097 1772 3097 
Q 1472 3097 1187 3025 
Q 903 2953 641 2809 
L 641 3341 
Q 956 3463 1253 3523 
Q 1550 3584 1831 3584 
Q 2591 3584 2966 3190 
Q 3341 2797 3341 1997 
z
" transform="scale(0.015625)"/>
      <path id="DejaVuSans-47" d="M 2906 2969 
L 2906 4863 
L 3481 4863 
L 3481 0 
L 2906 0 
L 2906 525 
Q 2725 213 2448 61 
Q 2172 -91 1784 -91 
Q 1150 -91 751 415 
Q 353 922 353 1747 
Q 353 2572 751 3078 
Q 1150 3584 1784 3584 
Q 2172 3584 2448 3432 
Q 2725 3281 2906 2969 
z
M 947 1747 
Q 947 1113 1208 752 
Q 1469 391 1925 391 
Q 2381 391 2643 752 
Q 2906 1113 2906 1747 
Q 2906 2381 2643 2742 
Q 2381 3103 1925 3103 
Q 1469 3103 1208 2742 
Q 947 2381 947 1747 
z
" transform="scale(0.015625)"/>
      <path id="DejaVuSans-b" d="M 1984 4856 
Q 1566 4138 1362 3434 
Q 1159 2731 1159 2009 
Q 1159 1288 1364 580 
Q 1569 -128 1984 -844 
L 1484 -844 
Q 1016 -109 783 600 
Q 550 1309 550 2009 
Q 550 2706 781 3412 
Q 1013 4119 1484 4856 
L 1984 4856 
z
" transform="scale(0.015625)"/>
      <path id="DejaVuSans-c" d="M 513 4856 
L 1013 4856 
Q 1481 4119 1714 3412 
Q 1947 2706 1947 2009 
Q 1947 1309 1714 600 
Q 1481 -109 1013 -844 
L 513 -844 
Q 928 -128 1133 580 
Q 1338 1288 1338 2009 
Q 1338 2731 1133 3434 
Q 928 4138 513 4856 
z
" transform="scale(0.015625)"/>
     </defs>
     <use xlink:href="#DejaVuSans-38"/>
     <use xlink:href="#DejaVuSans-36" transform="translate(73.1875 0)"/>
     <use xlink:href="#DejaVuSans-37" transform="translate(136.671875 0)"/>
     <use xlink:href="#DejaVuSans-14" transform="translate(197.75 0)"/>
     <use xlink:href="#DejaVuSans-13" transform="translate(261.375 0)"/>
     <use xlink:href="#DejaVuSans-3" transform="translate(325 0)"/>
     <use xlink:href="#DejaVuSans-af5" transform="translate(356.78125 0)"/>
     <use xlink:href="#DejaVuSans-3" transform="translate(406.78125 0)"/>
     <use xlink:href="#DejaVuSans-2a" transform="translate(438.5625 0)"/>
     <use xlink:href="#DejaVuSans-52" transform="translate(516.046875 0)"/>
     <use xlink:href="#DejaVuSans-26" transform="translate(577.234375 0)"/>
     <use xlink:href="#DejaVuSans-14" transform="translate(647.0625 0)"/>
     <use xlink:href="#DejaVuSans-13" transform="translate(710.6875 0)"/>
     <use xlink:href="#DejaVuSans-3" transform="translate(774.3125 0)"/>
     <use xlink:href="#DejaVuSans-36" transform="translate(806.09375 0)"/>
     <use xlink:href="#DejaVuSans-53" transform="translate(869.578125 0)"/>
     <use xlink:href="#DejaVuSans-55" transform="translate(933.0625 0)"/>
     <use xlink:href="#DejaVuSans-48" transform="translate(971.96875 0)"/>
     <use xlink:href="#DejaVuSans-44" transform="translate(1033.5 0)"/>
     <use xlink:href="#DejaVuSans-47" transform="translate(1094.78125 0)"/>
     <use xlink:href="#DejaVuSans-3" transform="translate(1158.265625 0)"/>
     <use xlink:href="#DejaVuSans-b" transform="translate(1190.046875 0)"/>
     <use xlink:href="#DejaVuSans-45" transform="translate(1229.0625 0)"/>
     <use xlink:href="#DejaVuSans-53" transform="translate(1292.546875 0)"/>
     <use xlink:href="#DejaVuSans-c" transform="translate(1356.03125 0)"/>
    </g>
   </g>
  </g>
  <g id="axes_2">
   <g id="patch_7">
    <path d="M 52.465625 188.638125 
L 554.665625 188.638125 
L 554.665625 156.718125 
L 52.465625 156.718125 
z
" style="fill: #ffffff"/>
   </g>
   <g id="matplotlib.axis_3">
    <g id="xtick_13">
     <g id="line2d_33">
      <path d="M 71.728091 188.638125 
L 71.728091 156.718125 
" clip-path="url(#p4593680dd6)" style="fill: none; stroke: #b0b0b0; stroke-opacity: 0.15; stroke-width: 0.8; stroke-linecap: square"/>
     </g>
     <g id="line2d_34">
      <g>
       <use xlink:href="#mf1f8dbc195" x="71.728091" y="188.638125" style="stroke: #000000; stroke-width: 0.8"/>
      </g>
     </g>
     <g id="text_18">
      <!-- 2025-07 -->
      <g transform="translate(40.484467 230.555389) rotate(-45) scale(0.1 -0.1)">
       <use xlink:href="#DejaVuSans-15"/>
       <use xlink:href="#DejaVuSans-13" transform="translate(63.625 0)"/>
       <use xlink:href="#DejaVuSans-15" transform="translate(127.25 0)"/>
       <use xlink:href="#DejaVuSans-18" transform="translate(190.875 0)"/>
       <use xlink:href="#DejaVuSans-10" transform="translate(254.5 0)"/>
       <use xlink:href="#DejaVuSans-13" transform="translate(290.578125 0)"/>
       <use xlink:href="#DejaVuSans-1a" transform="translate(354.203125 0)"/>
      </g>
     </g>
    </g>
    <g id="xtick_14">
     <g id="line2d_35">
      <path d="M 114.380693 188.638125 
L 114.380693 156.718125 
" clip-path="url(#p4593680dd6)" style="fill: none; stroke: #b0b0b0; stroke-opacity: 0.15; stroke-width: 0.8; stroke-linecap: square"/>
     </g>
     <g id="line2d_36">
      <g>
       <use xlink:href="#mf1f8dbc195" x="114.380693" y="188.638125" style="stroke: #000000; stroke-width: 0.8"/>
      </g>
     </g>
     <g id="text_19">
      <!-- 2025-08 -->
      <g transform="translate(83.13707 230.555389) rotate(-45) scale(0.1 -0.1)">
       <use xlink:href="#DejaVuSans-15"/>
       <use xlink:href="#DejaVuSans-13" transform="translate(63.625 0)"/>
       <use xlink:href="#DejaVuSans-15" transform="translate(127.25 0)"/>
       <use xlink:href="#DejaVuSans-18" transform="translate(190.875 0)"/>
       <use xlink:href="#DejaVuSans-10" transform="translate(254.5 0)"/>
       <use xlink:href="#DejaVuSans-13" transform="translate(290.578125 0)"/>
       <use xlink:href="#DejaVuSans-1b" transform="translate(354.203125 0)"/>
      </g>
     </g>
    </g>
    <g id="xtick_15">
     <g id="line2d_37">
      <path d="M 157.033296 188.638125 
L 157.033296 156.718125 
" clip-path="url(#p4593680dd6)" style="fill: none; stroke: #b0b0b0; stroke-opacity: 0.15; stroke-width: 0.8; stroke-linecap: square"/>
     </g>
     <g id="line2d_38">
      <g>
       <use xlink:href="#mf1f8dbc195" x="157.033296" y="188.638125" style="stroke: #000000; stroke-width: 0.8"/>
      </g>
     </g>
     <g id="text_20">
      <!-- 2025-09 -->
      <g transform="translate(125.789673 230.555389) rotate(-45) scale(0.1 -0.1)">
       <use xlink:href="#DejaVuSans-15"/>
       <use xlink:href="#DejaVuSans-13" transform="translate(63.625 0)"/>
       <use xlink:href="#DejaVuSans-15" transform="translate(127.25 0)"/>
       <use xlink:href="#DejaVuSans-18" transform="translate(190.875 0)"/>
       <use xlink:href="#DejaVuSans-10" transform="translate(254.5 0)"/>
       <use xlink:href="#DejaVuSans-13" transform="translate(290.578125 0)"/>
       <use xlink:href="#DejaVuSans-1c" transform="translate(354.203125 0)"/>
      </g>
     </g>
    </g>
    <g id="xtick_16">
     <g id="line2d_39">
      <path d="M 198.310009 188.638125 
L 198.310009 156.718125 
" clip-path="url(#p4593680dd6)" style="fill: none; stroke: #b0b0b0; stroke-opacity: 0.15; stroke-width: 0.8; stroke-linecap: square"/>
     </g>
     <g id="line2d_40">
      <g>
       <use xlink:href="#mf1f8dbc195" x="198.310009" y="188.638125" style="stroke: #000000; stroke-width: 0.8"/>
      </g>
     </g>
     <g id="text_21">
      <!-- 2025-10 -->
      <g transform="translate(167.066385 230.555389) rotate(-45) scale(0.1 -0.1)">
       <use xlink:href="#DejaVuSans-15"/>
       <use xlink:href="#DejaVuSans-13" transform="translate(63.625 0)"/>
       <use xlink:href="#DejaVuSans-15" transform="translate(127.25 0)"/>
       <use xlink:href="#DejaVuSans-18" transform="translate(190.875 0)"/>
       <use xlink:href="#DejaVuSans-10" transform="translate(254.5 0)"/>
       <use xlink:href="#DejaVuSans-14" transform="translate(290.578125 0)"/>
       <use xlink:href="#DejaVuSans-13" transform="translate(354.203125 0)"/>
      </g>
     </g>
    </g>
    <g id="xtick_17">
     <g id="line2d_41">
      <path d="M 240.962611 188.638125 
L 240.962611 156.718125 
" clip-path="url(#p4593680dd6)" style="fill: none; stroke: #b0b0b0; stroke-opacity: 0.15; stroke-width: 0.8; stroke-linecap: square"/>
     </g>
     <g id="line2d_42">
      <g>
       <use xlink:href="#mf1f8dbc195" x="240.962611" y="188.638125" style="stroke: #000000; stroke-width: 0.8"/>
      </g>
     </g>
     <g id="text_22">
      <!-- 2025-11 -->
      <g transform="translate(209.718988 230.555389) rotate(-45) scale(0.1 -0.1)">
       <use xlink:href="#DejaVuSans-15"/>
       <use xlink:href="#DejaVuSans-13" transform="translate(63.625 0)"/>
       <use xlink:href="#DejaVuSans-15" transform="translate(127.25 0)"/>
       <use xlink:href="#DejaVuSans-18" transform="translate(190.875 0)"/>
       <use xlink:href="#DejaVuSans-10" transform="translate(254.5 0)"/>
       <use xlink:href="#DejaVuSans-14" transform="translate(290.578125 0)"/>
       <use xlink:href="#DejaVuSans-14" transform="translate(354.203125 0)"/>
      </g>
     </g>
    </g>
    <g id="xtick_18">
     <g id="line2d_43">
      <path d="M 282.239324 188.638125 
L 282.239324 156.718125 
" clip-path="url(#p4593680dd6)" style="fill: none; stroke: #b0b0b0; stroke-opacity: 0.15; stroke-width: 0.8; stroke-linecap: square"/>
     </g>
     <g id="line2d_44">
      <g>
       <use xlink:href="#mf1f8dbc195" x="282.239324" y="188.638125" style="stroke: #000000; stroke-width: 0.8"/>
      </g>
     </g>
     <g id="text_23">
      <!-- 2025-12 -->
      <g transform="translate(250.9957 230.555389) rotate(-45) scale(0.1 -0.1)">
       <use xlink:href="#DejaVuSans-15"/>
       <use xlink:href="#DejaVuSans-13" transform="translate(63.625 0)"/>
       <use xlink:href="#DejaVuSans-15" transform="translate(127.25 0)"/>
       <use xlink:href="#DejaVuSans-18" transform="translate(190.875 0)"/>
       <use xlink:href="#DejaVuSans-10" transform="translate(254.5 0)"/>
       <use xlink:href="#DejaVuSans-14" transform="translate(290.578125 0)"/>
       <use xlink:href="#DejaVuSans-15" transform="translate(354.203125 0)"/>
      </g>
     </g>
    </g>
    <g id="xtick_19">
     <g id="line2d_45">
      <path d="M 324.891926 188.638125 
L 324.891926 156.718125 
" clip-path="url(#p4593680dd6)" style="fill: none; stroke: #b0b0b0; stroke-opacity: 0.15; stroke-width: 0.8; stroke-linecap: square"/>
     </g>
     <g id="line2d_46">
      <g>
       <use xlink:href="#mf1f8dbc195" x="324.891926" y="188.638125" style="stroke: #000000; stroke-width: 0.8"/>
      </g>
     </g>
     <g id="text_24">
      <!-- 2026-01 -->
      <g transform="translate(293.648303 230.555389) rotate(-45) scale(0.1 -0.1)">
       <use xlink:href="#DejaVuSans-15"/>
       <use xlink:href="#DejaVuSans-13" transform="translate(63.625 0)"/>
       <use xlink:href="#DejaVuSans-15" transform="translate(127.25 0)"/>
       <use xlink:href="#DejaVuSans-19" transform="translate(190.875 0)"/>
       <use xlink:href="#DejaVuSans-10" transform="translate(254.5 0)"/>
       <use xlink:href="#DejaVuSans-13" transform="translate(290.578125 0)"/>
       <use xlink:href="#DejaVuSans-14" transform="translate(354.203125 0)"/>
      </g>
     </g>
    </g>
    <g id="xtick_20">
     <g id="line2d_47">
      <path d="M 367.544529 188.638125 
L 367.544529 156.718125 
" clip-path="url(#p4593680dd6)" style="fill: none; stroke: #b0b0b0; stroke-opacity: 0.15; stroke-width: 0.8; stroke-linecap: square"/>
     </g>
     <g id="line2d_48">
      <g>
       <use xlink:href="#mf1f8dbc195" x="367.544529" y="188.638125" style="stroke: #000000; stroke-width: 0.8"/>
      </g>
     </g>
     <g id="text_25">
      <!-- 2026-02 -->
      <g transform="translate(336.300905 230.555389) rotate(-45) scale(0.1 -0.1)">
       <use xlink:href="#DejaVuSans-15"/>
       <use xlink:href="#DejaVuSans-13" transform="translate(63.625 0)"/>
       <use xlink:href="#DejaVuSans-15" transform="translate(127.25 0)"/>
       <use xlink:href="#DejaVuSans-19" transform="translate(190.875 0)"/>
       <use xlink:href="#DejaVuSans-10" transform="translate(254.5 0)"/>
       <use xlink:href="#DejaVuSans-13" transform="translate(290.578125 0)"/>
       <use xlink:href="#DejaVuSans-15" transform="translate(354.203125 0)"/>
      </g>
     </g>
    </g>
    <g id="xtick_21">
     <g id="line2d_49">
      <path d="M 406.069461 188.638125 
L 406.069461 156.718125 
" clip-path="url(#p4593680dd6)" style="fill: none; stroke: #b0b0b0; stroke-opacity: 0.15; stroke-width: 0.8; stroke-linecap: square"/>
     </g>
     <g id="line2d_50">
      <g>
       <use xlink:href="#mf1f8dbc195" x="406.069461" y="188.638125" style="stroke: #000000; stroke-width: 0.8"/>
      </g>
     </g>
     <g id="text_26">
      <!-- 2026-03 -->
      <g transform="translate(374.825837 230.555389) rotate(-45) scale(0.1 -0.1)">
       <use xlink:href="#DejaVuSans-15"/>
       <use xlink:href="#DejaVuSans-13" transform="translate(63.625 0)"/>
       <use xlink:href="#DejaVuSans-15" transform="translate(127.25 0)"/>
       <use xlink:href="#DejaVuSans-19" transform="translate(190.875 0)"/>
       <use xlink:href="#DejaVuSans-10" transform="translate(254.5 0)"/>
       <use xlink:href="#DejaVuSans-13" transform="translate(290.578125 0)"/>
       <use xlink:href="#DejaVuSans-16" transform="translate(354.203125 0)"/>
      </g>
     </g>
    </g>
    <g id="xtick_22">
     <g id="line2d_51">
      <path d="M 448.722063 188.638125 
L 448.722063 156.718125 
" clip-path="url(#p4593680dd6)" style="fill: none; stroke: #b0b0b0; stroke-opacity: 0.15; stroke-width: 0.8; stroke-linecap: square"/>
     </g>
     <g id="line2d_52">
      <g>
       <use xlink:href="#mf1f8dbc195" x="448.722063" y="188.638125" style="stroke: #000000; stroke-width: 0.8"/>
      </g>
     </g>
     <g id="text_27">
      <!-- 2026-04 -->
      <g transform="translate(417.47844 230.555389) rotate(-45) scale(0.1 -0.1)">
       <use xlink:href="#DejaVuSans-15"/>
       <use xlink:href="#DejaVuSans-13" transform="translate(63.625 0)"/>
       <use xlink:href="#DejaVuSans-15" transform="translate(127.25 0)"/>
       <use xlink:href="#DejaVuSans-19" transform="translate(190.875 0)"/>
       <use xlink:href="#DejaVuSans-10" transform="translate(254.5 0)"/>
       <use xlink:href="#DejaVuSans-13" transform="translate(290.578125 0)"/>
       <use xlink:href="#DejaVuSans-17" transform="translate(354.203125 0)"/>
      </g>
     </g>
    </g>
    <g id="xtick_23">
     <g id="line2d_53">
      <path d="M 489.998776 188.638125 
L 489.998776 156.718125 
" clip-path="url(#p4593680dd6)" style="fill: none; stroke: #b0b0b0; stroke-opacity: 0.15; stroke-width: 0.8; stroke-linecap: square"/>
     </g>
     <g id="line2d_54">
      <g>
       <use xlink:href="#mf1f8dbc195" x="489.998776" y="188.638125" style="stroke: #000000; stroke-width: 0.8"/>
      </g>
     </g>
     <g id="text_28">
      <!-- 2026-05 -->
      <g transform="translate(458.755152 230.555389) rotate(-45) scale(0.1 -0.1)">
       <use xlink:href="#DejaVuSans-15"/>
       <use xlink:href="#DejaVuSans-13" transform="translate(63.625 0)"/>
       <use xlink:href="#DejaVuSans-15" transform="translate(127.25 0)"/>
       <use xlink:href="#DejaVuSans-19" transform="translate(190.875 0)"/>
       <use xlink:href="#DejaVuSans-10" transform="translate(254.5 0)"/>
       <use xlink:href="#DejaVuSans-13" transform="translate(290.578125 0)"/>
       <use xlink:href="#DejaVuSans-18" transform="translate(354.203125 0)"/>
      </g>
     </g>
    </g>
    <g id="xtick_24">
     <g id="line2d_55">
      <path d="M 532.651378 188.638125 
L 532.651378 156.718125 
" clip-path="url(#p4593680dd6)" style="fill: none; stroke: #b0b0b0; stroke-opacity: 0.15; stroke-width: 0.8; stroke-linecap: square"/>
     </g>
     <g id="line2d_56">
      <g>
       <use xlink:href="#mf1f8dbc195" x="532.651378" y="188.638125" style="stroke: #000000; stroke-width: 0.8"/>
      </g>
     </g>
     <g id="text_29">
      <!-- 2026-06 -->
      <g transform="translate(501.407755 230.555389) rotate(-45) scale(0.1 -0.1)">
       <use xlink:href="#DejaVuSans-15"/>
       <use xlink:href="#DejaVuSans-13" transform="translate(63.625 0)"/>
       <use xlink:href="#DejaVuSans-15" transform="translate(127.25 0)"/>
       <use xlink:href="#DejaVuSans-19" transform="translate(190.875 0)"/>
       <use xlink:href="#DejaVuSans-10" transform="translate(254.5 0)"/>
       <use xlink:href="#DejaVuSans-13" transform="translate(290.578125 0)"/>
       <use xlink:href="#DejaVuSans-19" transform="translate(354.203125 0)"/>
      </g>
     </g>
    </g>
   </g>
   <g id="matplotlib.axis_4">
    <g id="ytick_4">
     <g id="line2d_57">
      <path d="M 52.465625 188.044896 
L 554.665625 188.044896 
" clip-path="url(#p4593680dd6)" style="fill: none; stroke: #b0b0b0; stroke-opacity: 0.15; stroke-width: 0.8; stroke-linecap: square"/>
     </g>
     <g id="line2d_58">
      <g>
       <use xlink:href="#m5617cee801" x="52.465625" y="188.044896" style="stroke: #000000; stroke-width: 0.8"/>
      </g>
     </g>
     <g id="text_30">
      <!-- 1.35 -->
      <g transform="translate(23.2 191.843724) scale(0.1 -0.1)">
       <defs>
        <path id="DejaVuSans-11" d="M 684 794 
L 1344 794 
L 1344 0 
L 684 0 
L 684 794 
z
" transform="scale(0.015625)"/>
       </defs>
       <use xlink:href="#DejaVuSans-14"/>
       <use xlink:href="#DejaVuSans-11" transform="translate(63.625 0)"/>
       <use xlink:href="#DejaVuSans-16" transform="translate(95.40625 0)"/>
       <use xlink:href="#DejaVuSans-18" transform="translate(159.03125 0)"/>
      </g>
     </g>
    </g>
    <g id="ytick_5">
     <g id="line2d_59">
      <path d="M 52.465625 164.220445 
L 554.665625 164.220445 
" clip-path="url(#p4593680dd6)" style="fill: none; stroke: #b0b0b0; stroke-opacity: 0.15; stroke-width: 0.8; stroke-linecap: square"/>
     </g>
     <g id="line2d_60">
      <g>
       <use xlink:href="#m5617cee801" x="52.465625" y="164.220445" style="stroke: #000000; stroke-width: 0.8"/>
      </g>
     </g>
     <g id="text_31">
      <!-- 1.40 -->
      <g transform="translate(23.2 168.019273) scale(0.1 -0.1)">
       <use xlink:href="#DejaVuSans-14"/>
       <use xlink:href="#DejaVuSans-11" transform="translate(63.625 0)"/>
       <use xlink:href="#DejaVuSans-17" transform="translate(95.40625 0)"/>
       <use xlink:href="#DejaVuSans-13" transform="translate(159.03125 0)"/>
      </g>
     </g>
    </g>
    <g id="text_32">
     <!-- USD/CAD -->
     <g transform="translate(16.317188 200.43375) rotate(-90) scale(0.12 -0.12)">
      <defs>
       <path id="DejaVuSans-27" d="M 1259 4147 
L 1259 519 
L 2022 519 
Q 2988 519 3436 956 
Q 3884 1394 3884 2338 
Q 3884 3275 3436 3711 
Q 2988 4147 2022 4147 
L 1259 4147 
z
M 628 4666 
L 1925 4666 
Q 3281 4666 3915 4102 
Q 4550 3538 4550 2338 
Q 4550 1131 3912 565 
Q 3275 0 1925 0 
L 628 0 
L 628 4666 
z
" transform="scale(0.015625)"/>
       <path id="DejaVuSans-12" d="M 1625 4666 
L 2156 4666 
L 531 -594 
L 0 -594 
L 1625 4666 
z
" transform="scale(0.015625)"/>
       <path id="DejaVuSans-24" d="M 2188 4044 
L 1331 1722 
L 3047 1722 
L 2188 4044 
z
M 1831 4666 
L 2547 4666 
L 4325 0 
L 3669 0 
L 3244 1197 
L 1141 1197 
L 716 0 
L 50 0 
L 1831 4666 
z
" transform="scale(0.015625)"/>
      </defs>
      <use xlink:href="#DejaVuSans-38"/>
      <use xlink:href="#DejaVuSans-36" transform="translate(73.1875 0)"/>
      <use xlink:href="#DejaVuSans-27" transform="translate(136.671875 0)"/>
      <use xlink:href="#DejaVuSans-12" transform="translate(213.671875 0)"/>
      <use xlink:href="#DejaVuSans-26" transform="translate(247.359375 0)"/>
      <use xlink:href="#DejaVuSans-24" transform="translate(317.1875 0)"/>
      <use xlink:href="#DejaVuSans-27" transform="translate(385.59375 0)"/>
     </g>
    </g>
   </g>
   <g id="line2d_61">
    <path d="M 52.465625 183.899442 
L 53.841515 179.325147 
M 56.593296 176.656808 
L 60.720967 175.036746 
L 62.096858 177.990978 
L 63.472748 176.13267 
L 64.848639 181.898188 
L 66.224529 180.135178 
L 70.3522 182.327028 
L 71.728091 180.468721 
L 73.103981 182.327028 
L 74.479872 185.233611 
M 79.983433 181.183454 
L 81.359324 179.896934 
L 82.735214 178.801009 
L 84.111104 179.372796 
L 85.486995 179.563391 
L 89.614666 178.801009 
L 90.990557 177.89568 
L 92.366447 178.229222 
L 93.742337 176.180319 
L 95.118228 177.990978 
L 99.245899 179.039254 
L 100.621789 182.565272 
L 101.99768 182.851166 
L 103.37357 181.231103 
L 104.749461 177.848031 
L 108.877132 177.657435 
L 110.253022 174.84615 
L 111.628913 173.083141 
L 113.004803 171.606025 
L 114.380693 174.798501 
L 118.508365 174.941448 
L 119.884255 174.750852 
L 121.260146 176.656808 
L 122.636036 176.180319 
L 124.011926 176.037373 
L 128.139598 174.560257 
L 129.515488 175.560884 
L 130.891378 175.465586 
L 132.267269 173.464332 
L 137.77083 173.035492 
L 139.146721 170.93894 
L 140.522611 170.224207 
L 141.898502 168.985335 
L 143.274392 171.606025 
L 148.777954 172.654301 
L 150.153844 172.559003 
L 151.529735 176.13267 
L 152.905625 177.276244 
M 158.409187 174.512608 
L 159.785077 174.369661 
L 161.160967 172.416056 
L 162.536858 172.654301 
L 166.664529 172.797247 
L 168.04042 172.130163 
L 169.41631 171.701322 
L 170.7922 172.320758 
L 172.168091 170.986589 
L 176.295762 173.893172 
L 177.671652 176.370915 
L 179.047543 175.608533 
L 180.423433 173.940821 
L 181.799324 175.084395 
L 185.926995 173.083141 
L 187.302885 172.130163 
L 188.678776 169.271228 
L 190.054666 167.88941 
L 191.430557 166.793486 
L 195.558228 168.794739 
L 196.934118 167.698815 
L 198.310009 166.459943 
L 199.685899 165.459316 
L 201.061789 166.793486 
L 205.189461 166.841134 
L 207.941241 166.459943 
L 209.317132 163.791605 
L 210.693022 164.363391 
M 216.196584 162.26684 
L 217.572474 162.648031 
L 218.948365 162.076244 
L 220.324255 162.028595 
L 224.451926 162.838627 
L 225.827817 163.743956 
L 227.203707 165.268721 
L 228.579598 164.649285 
L 229.955488 163.601009 
L 234.083159 164.458689 
L 235.45905 167.222326 
L 236.83494 169.318877 
L 238.21083 165.078125 
L 239.586721 163.743956 
L 243.714392 161.885649 
L 245.090283 160.360884 
L 246.466173 159.074363 
L 247.842063 158.169034 
L 249.217954 160.646777 
L 253.345625 162.838627 
M 256.097406 164.220445 
L 257.473296 163.743956 
L 258.849187 163.12452 
L 262.976858 162.886275 
L 264.352748 164.41104 
L 265.728639 161.885649 
L 267.104529 159.836746 
L 268.48042 159.741448 
L 273.983981 158.740821 
L 275.359872 161.790351 
M 278.111652 165.459316 
L 282.239324 165.078125 
L 283.615214 164.792232 
L 284.991104 166.60289 
L 286.366995 167.127028 
L 287.742885 170.986589 
L 291.870557 171.558376 
L 293.246447 172.22546 
L 294.622337 172.130163 
L 295.998228 175.227341 
L 297.374118 174.560257 
L 301.501789 175.417937 
L 302.87768 176.180319 
L 304.25357 174.179065 
L 305.629461 175.560884 
L 307.005351 174.703203 
L 311.133022 176.418564 
L 312.508913 177.89568 
L 313.884803 179.896934 
M 316.636584 180.325774 
L 320.764255 179.468094 
L 322.140146 179.563391 
L 323.516036 177.943329 
M 326.267817 176.704457 
L 330.395488 175.799128 
L 331.771378 174.274363 
L 334.523159 170.700696 
L 335.89905 169.318877 
L 340.026721 170.128909 
L 341.402611 169.700069 
L 342.778502 170.367153 
L 345.530283 168.032357 
M 351.033844 172.749598 
L 352.409735 173.13079 
L 353.785625 173.797874 
L 355.161515 177.276244 
L 359.289187 178.896307 
L 360.665077 183.375304 
L 362.040967 184.471228 
L 363.416858 187.187216 
L 368.92042 179.61104 
L 370.29631 181.183454 
L 371.6722 180.087529 
L 373.048091 179.944583 
L 374.423981 181.183454 
L 378.551652 184.709473 
L 379.927543 186.472482 
L 381.303433 184.757122 
L 382.679324 182.184081 
L 384.055214 182.422326 
M 389.558776 180.802263 
L 390.934666 179.706338 
L 392.310557 178.467467 
L 393.686447 179.086902 
L 397.814118 179.229849 
L 399.190009 178.419818 
L 400.565899 179.229849 
L 401.941789 179.325147 
L 403.31768 181.755241 
L 407.445351 178.276871 
L 408.821241 180.325774 
L 410.197132 180.373423 
L 411.573022 178.848658 
L 412.948913 183.327655 
L 418.452474 185.090664 
L 419.828365 183.137059 
L 421.204255 182.422326 
L 422.580146 176.799755 
L 426.707817 179.325147 
L 428.083707 178.229222 
L 429.459598 178.658062 
L 430.835488 177.514489 
L 432.211378 177.038 
L 436.33905 177.657435 
L 437.71494 175.465586 
L 439.09083 173.797874 
L 440.466721 171.415429 
L 441.842611 169.938313 
L 445.970283 167.984708 
L 447.346173 166.459943 
L 448.722063 170.176558 
L 450.097954 168.175304 
L 451.473844 166.984081 
L 456.977406 168.747091 
L 458.353296 171.320131 
L 459.729187 173.416683 
L 461.105077 172.416056 
L 465.232748 173.226087 
L 466.608639 175.799128 
L 467.984529 176.609159 
L 469.36042 178.229222 
L 470.73631 180.087529 
L 476.239872 181.278752 
L 477.615762 180.468721 
L 478.991652 179.372796 
L 480.367543 179.706338 
L 484.495214 182.517623 
L 485.871104 179.896934 
L 487.246995 179.896934 
L 488.622885 182.755868 
L 489.998776 184.471228 
L 494.126447 182.898815 
L 495.502337 182.851166 
L 496.878228 182.279379 
L 498.254118 181.564645 
L 499.630009 179.515743 
L 503.75768 180.230476 
L 505.13357 177.943329 
L 506.509461 178.467467 
L 507.885351 177.371542 
L 509.261241 176.13267 
L 513.388913 176.513862 
L 514.764803 175.942075 
L 516.140693 176.275617 
L 517.516584 174.322012 
L 518.892474 172.940194 
M 524.396036 173.607279 
L 525.771926 172.368407 
L 527.147817 173.845523 
L 528.523707 174.512608 
L 532.651378 171.987216 
L 534.027269 172.701949 
L 535.403159 169.414175 
L 536.77905 169.509473 
L 538.15494 167.508219 
L 543.658502 166.269348 
L 545.034392 167.698815 
L 546.410283 164.029849 
L 547.786173 165.602263 
L 547.786173 165.602263 
" clip-path="url(#p4593680dd6)" style="fill: none; stroke: #2ca02c; stroke-width: 1.2; stroke-linecap: square"/>
   </g>
   <g id="patch_8">
    <path d="M 52.465625 188.638125 
L 52.465625 156.718125 
" style="fill: none; stroke: #000000; stroke-width: 0.8; stroke-linejoin: miter; stroke-linecap: square"/>
   </g>
   <g id="patch_9">
    <path d="M 554.665625 188.638125 
L 554.665625 156.718125 
" style="fill: none; stroke: #000000; stroke-width: 0.8; stroke-linejoin: miter; stroke-linecap: square"/>
   </g>
   <g id="patch_10">
    <path d="M 52.465625 188.638125 
L 554.665625 188.638125 
" style="fill: none; stroke: #000000; stroke-width: 0.8; stroke-linejoin: miter; stroke-linecap: square"/>
   </g>
   <g id="patch_11">
    <path d="M 52.465625 156.718125 
L 554.665625 156.718125 
" style="fill: none; stroke: #000000; stroke-width: 0.8; stroke-linejoin: miter; stroke-linecap: square"/>
   </g>
  </g>
 </g>
 <defs>
  <clipPath id="p8620c004f1">
   <rect x="52.465625" y="22.318125" width="502.2" height="91.2"/>
  </clipPath>
  <clipPath id="p4593680dd6">
   <rect x="52.465625" y="156.718125" width="502.2" height="31.92"/>
  </clipPath>
 </defs>
</svg>
