<?xml version="1.0" encoding="utf-8" standalone="no"?>
<!DOCTYPE svg PUBLIC "-//W3C//DTD SVG 1.1//EN"
  "http://www.w3.org/Graphics/SVG/1.1/DTD/svg11.dtd">
<svg xmlns:xlink="http://www.w3.org/1999/xlink" width="561.479375pt" height="239.226503pt" viewBox="0 0 561.479375 239.226503" xmlns="http://www.w3.org/2000/svg" version="1.1">
 <metadata>
  <rdf:RDF xmlns:dc="http://purl.org/dc/elements/1.1/" xmlns:cc="http://creativecommons.org/ns#" xmlns:rdf="http://www.w3.org/1999/02/22-rdf-syntax-ns#">
   <cc:Work>
    <dc:type rdf:resource="http://purl.org/dc/dcmitype/StillImage"/>
    <dc:date>2026-04-10T14:21:19.886519</dc:date>
    <dc:format>image/svg+xml</dc:format>
    <dc:creator>
     <cc:Agent>
      <dc:title>Matplotlib v3.10.8, https://matplotlib.org/</dc:title>
     </cc:Agent>
    </dc:creator>
   </cc:Work>
  </rdf:RDF>
 </metadata>
 <defs>
  <style type="text/css">*{stroke-linejoin: round; stroke-linecap: butt}</style>
 </defs>
 <g id="figure_1">
  <g id="patch_1">
   <path d="M -0 239.226503 
L 561.479375 239.226503 
L 561.479375 -0 
L -0 -0 
z
" style="fill: #ffffff"/>
  </g>
  <g id="axes_1">
   <g id="patch_2">
    <path d="M 52.079375 113.518125 
L 554.279375 113.518125 
L 554.279375 22.318125 
L 52.079375 22.318125 
z
" style="fill: #ffffff"/>
   </g>
   <g id="matplotlib.axis_1">
    <g id="xtick_1">
     <g id="line2d_1">
      <path d="M 82.348964 113.518125 
L 82.348964 22.318125 
" clip-path="url(#p8861101b44)" style="fill: none; stroke: #b0b0b0; stroke-opacity: 0.2; stroke-width: 0.8; stroke-linecap: square"/>
     </g>
     <g id="line2d_2">
      <defs>
       <path id="mce40ae2ab9" d="M 0 0 
L 0 3.5 
" style="stroke: #000000; stroke-width: 0.8"/>
      </defs>
      <g>
       <use xlink:href="#mce40ae2ab9" x="82.348964" y="113.518125" style="stroke: #000000; stroke-width: 0.8"/>
      </g>
     </g>
     <g id="text_1">
      <!-- 2025-05 -->
      <g transform="translate(51.333493 155.435942) rotate(-45) scale(0.1 -0.1)">
       <defs>
        <path id="DejaVuSans-32" d="M 1228 531 
L 3431 531 
L 3431 0 
L 469 0 
L 469 531 
Q 828 903 1448 1529 
Q 2069 2156 2228 2338 
Q 2531 2678 2651 2914 
Q 2772 3150 2772 3378 
Q 2772 3750 2511 3984 
Q 2250 4219 1831 4219 
Q 1534 4219 1204 4116 
Q 875 4013 500 3803 
L 500 4441 
Q 881 4594 1212 4672 
Q 1544 4750 1819 4750 
Q 2544 4750 2975 4387 
Q 3406 4025 3406 3419 
Q 3406 3131 3298 2873 
Q 3191 2616 2906 2266 
Q 2828 2175 2409 1742 
Q 1991 1309 1228 531 
z
" transform="scale(0.015625)"/>
        <path id="DejaVuSans-30" d="M 2034 4250 
Q 1547 4250 1301 3770 
Q 1056 3291 1056 2328 
Q 1056 1369 1301 889 
Q 1547 409 2034 409 
Q 2525 409 2770 889 
Q 3016 1369 3016 2328 
Q 3016 3291 2770 3770 
Q 2525 4250 2034 4250 
z
M 2034 4750 
Q 2819 4750 3233 4129 
Q 3647 3509 3647 2328 
Q 3647 1150 3233 529 
Q 2819 -91 2034 -91 
Q 1250 -91 836 529 
Q 422 1150 422 2328 
Q 422 3509 836 4129 
Q 1250 4750 2034 4750 
z
" transform="scale(0.015625)"/>
        <path id="DejaVuSans-35" d="M 691 4666 
L 3169 4666 
L 3169 4134 
L 1269 4134 
L 1269 2991 
Q 1406 3038 1543 3061 
Q 1681 3084 1819 3084 
Q 2600 3084 3056 2656 
Q 3513 2228 3513 1497 
Q 3513 744 3044 326 
Q 2575 -91 1722 -91 
Q 1428 -91 1123 -41 
Q 819 9 494 109 
L 494 744 
Q 775 591 1075 516 
Q 1375 441 1709 441 
Q 2250 441 2565 725 
Q 2881 1009 2881 1497 
Q 2881 1984 2565 2268 
Q 2250 2553 1709 2553 
Q 1456 2553 1204 2497 
Q 953 2441 691 2322 
L 691 4666 
z
" transform="scale(0.015625)"/>
        <path id="DejaVuSans-2d" d="M 313 2009 
L 1997 2009 
L 1997 1497 
L 313 1497 
L 313 2009 
z
" transform="scale(0.015625)"/>
       </defs>
       <use xlink:href="#DejaVuSans-32"/>
       <use xlink:href="#DejaVuSans-30" transform="translate(63.623047 0)"/>
       <use xlink:href="#DejaVuSans-32" transform="translate(127.246094 0)"/>
       <use xlink:href="#DejaVuSans-35" transform="translate(190.869141 0)"/>
       <use xlink:href="#DejaVuSans-2d" transform="translate(254.492188 0)"/>
       <use xlink:href="#DejaVuSans-30" transform="translate(290.576172 0)"/>
       <use xlink:href="#DejaVuSans-35" transform="translate(354.199219 0)"/>
      </g>
     </g>
    </g>
    <g id="xtick_2">
     <g id="line2d_3">
      <path d="M 125.001567 113.518125 
L 125.001567 22.318125 
" clip-path="url(#p8861101b44)" style="fill: none; stroke: #b0b0b0; stroke-opacity: 0.2; stroke-width: 0.8; stroke-linecap: square"/>
     </g>
     <g id="line2d_4">
      <g>
       <use xlink:href="#mce40ae2ab9" x="125.001567" y="113.518125" style="stroke: #000000; stroke-width: 0.8"/>
      </g>
     </g>
     <g id="text_2">
      <!-- 2025-06 -->
      <g transform="translate(93.986096 155.435942) rotate(-45) scale(0.1 -0.1)">
       <defs>
        <path id="DejaVuSans-36" d="M 2113 2584 
Q 1688 2584 1439 2293 
Q 1191 2003 1191 1497 
Q 1191 994 1439 701 
Q 1688 409 2113 409 
Q 2538 409 2786 701 
Q 3034 994 3034 1497 
Q 3034 2003 2786 2293 
Q 2538 2584 2113 2584 
z
M 3366 4563 
L 3366 3988 
Q 3128 4100 2886 4159 
Q 2644 4219 2406 4219 
Q 1781 4219 1451 3797 
Q 1122 3375 1075 2522 
Q 1259 2794 1537 2939 
Q 1816 3084 2150 3084 
Q 2853 3084 3261 2657 
Q 3669 2231 3669 1497 
Q 3669 778 3244 343 
Q 2819 -91 2113 -91 
Q 1303 -91 875 529 
Q 447 1150 447 2328 
Q 447 3434 972 4092 
Q 1497 4750 2381 4750 
Q 2619 4750 2861 4703 
Q 3103 4656 3366 4563 
z
" transform="scale(0.015625)"/>
       </defs>
       <use xlink:href="#DejaVuSans-32"/>
       <use xlink:href="#DejaVuSans-30" transform="translate(63.623047 0)"/>
       <use xlink:href="#DejaVuSans-32" transform="translate(127.246094 0)"/>
       <use xlink:href="#DejaVuSans-35" transform="translate(190.869141 0)"/>
       <use xlink:href="#DejaVuSans-2d" transform="translate(254.492188 0)"/>
       <use xlink:href="#DejaVuSans-30" transform="translate(290.576172 0)"/>
       <use xlink:href="#DejaVuSans-36" transform="translate(354.199219 0)"/>
      </g>
     </g>
    </g>
    <g id="xtick_3">
     <g id="line2d_5">
      <path d="M 166.278279 113.518125 
L 166.278279 22.318125 
" clip-path="url(#p8861101b44)" style="fill: none; stroke: #b0b0b0; stroke-opacity: 0.2; stroke-width: 0.8; stroke-linecap: square"/>
     </g>
     <g id="line2d_6">
      <g>
       <use xlink:href="#mce40ae2ab9" x="166.278279" y="113.518125" style="stroke: #000000; stroke-width: 0.8"/>
      </g>
     </g>
     <g id="text_3">
      <!-- 2025-07 -->
      <g transform="translate(135.262808 155.435942) rotate(-45) scale(0.1 -0.1)">
       <defs>
        <path id="DejaVuSans-37" d="M 525 4666 
L 3525 4666 
L 3525 4397 
L 1831 0 
L 1172 0 
L 2766 4134 
L 525 4134 
L 525 4666 
z
" transform="scale(0.015625)"/>
       </defs>
       <use xlink:href="#DejaVuSans-32"/>
       <use xlink:href="#DejaVuSans-30" transform="translate(63.623047 0)"/>
       <use xlink:href="#DejaVuSans-32" transform="translate(127.246094 0)"/>
       <use xlink:href="#DejaVuSans-35" transform="translate(190.869141 0)"/>
       <use xlink:href="#DejaVuSans-2d" transform="translate(254.492188 0)"/>
       <use xlink:href="#DejaVuSans-30" transform="translate(290.576172 0)"/>
       <use xlink:href="#DejaVuSans-37" transform="translate(354.199219 0)"/>
      </g>
     </g>
    </g>
    <g id="xtick_4">
     <g id="line2d_7">
      <path d="M 208.930882 113.518125 
L 208.930882 22.318125 
" clip-path="url(#p8861101b44)" style="fill: none; stroke: #b0b0b0; stroke-opacity: 0.2; stroke-width: 0.8; stroke-linecap: square"/>
     </g>
     <g id="line2d_8">
      <g>
       <use xlink:href="#mce40ae2ab9" x="208.930882" y="113.518125" style="stroke: #000000; stroke-width: 0.8"/>
      </g>
     </g>
     <g id="text_4">
      <!-- 2025-08 -->
      <g transform="translate(177.915411 155.435942) rotate(-45) scale(0.1 -0.1)">
       <defs>
        <path id="DejaVuSans-38" d="M 2034 2216 
Q 1584 2216 1326 1975 
Q 1069 1734 1069 1313 
Q 1069 891 1326 650 
Q 1584 409 2034 409 
Q 2484 409 2743 651 
Q 3003 894 3003 1313 
Q 3003 1734 2745 1975 
Q 2488 2216 2034 2216 
z
M 1403 2484 
Q 997 2584 770 2862 
Q 544 3141 544 3541 
Q 544 4100 942 4425 
Q 1341 4750 2034 4750 
Q 2731 4750 3128 4425 
Q 3525 4100 3525 3541 
Q 3525 3141 3298 2862 
Q 3072 2584 2669 2484 
Q 3125 2378 3379 2068 
Q 3634 1759 3634 1313 
Q 3634 634 3220 271 
Q 2806 -91 2034 -91 
Q 1263 -91 848 271 
Q 434 634 434 1313 
Q 434 1759 690 2068 
Q 947 2378 1403 2484 
z
M 1172 3481 
Q 1172 3119 1398 2916 
Q 1625 2713 2034 2713 
Q 2441 2713 2670 2916 
Q 2900 3119 2900 3481 
Q 2900 3844 2670 4047 
Q 2441 4250 2034 4250 
Q 1625 4250 1398 4047 
Q 1172 3844 1172 3481 
z
" transform="scale(0.015625)"/>
       </defs>
       <use xlink:href="#DejaVuSans-32"/>
       <use xlink:href="#DejaVuSans-30" transform="translate(63.623047 0)"/>
       <use xlink:href="#DejaVuSans-32" transform="translate(127.246094 0)"/>
       <use xlink:href="#DejaVuSans-35" transform="translate(190.869141 0)"/>
       <use xlink:href="#DejaVuSans-2d" transform="translate(254.492188 0)"/>
       <use xlink:href="#DejaVuSans-30" transform="translate(290.576172 0)"/>
       <use xlink:href="#DejaVuSans-38" transform="translate(354.199219 0)"/>
      </g>
     </g>
    </g>
    <g id="xtick_5">
     <g id="line2d_9">
      <path d="M 251.583485 113.518125 
L 251.583485 22.318125 
" clip-path="url(#p8861101b44)" style="fill: none; stroke: #b0b0b0; stroke-opacity: 0.2; stroke-width: 0.8; stroke-linecap: square"/>
     </g>
     <g id="line2d_10">
      <g>
       <use xlink:href="#mce40ae2ab9" x="251.583485" y="113.518125" style="stroke: #000000; stroke-width: 0.8"/>
      </g>
     </g>
     <g id="text_5">
      <!-- 2025-09 -->
      <g transform="translate(220.568013 155.435942) rotate(-45) scale(0.1 -0.1)">
       <defs>
        <path id="DejaVuSans-39" d="M 703 97 
L 703 672 
Q 941 559 1184 500 
Q 1428 441 1663 441 
Q 2288 441 2617 861 
Q 2947 1281 2994 2138 
Q 2813 1869 2534 1725 
Q 2256 1581 1919 1581 
Q 1219 1581 811 2004 
Q 403 2428 403 3163 
Q 403 3881 828 4315 
Q 1253 4750 1959 4750 
Q 2769 4750 3195 4129 
Q 3622 3509 3622 2328 
Q 3622 1225 3098 567 
Q 2575 -91 1691 -91 
Q 1453 -91 1209 -44 
Q 966 3 703 97 
z
M 1959 2075 
Q 2384 2075 2632 2365 
Q 2881 2656 2881 3163 
Q 2881 3666 2632 3958 
Q 2384 4250 1959 4250 
Q 1534 4250 1286 3958 
Q 1038 3666 1038 3163 
Q 1038 2656 1286 2365 
Q 1534 2075 1959 2075 
z
" transform="scale(0.015625)"/>
       </defs>
       <use xlink:href="#DejaVuSans-32"/>
       <use xlink:href="#DejaVuSans-30" transform="translate(63.623047 0)"/>
       <use xlink:href="#DejaVuSans-32" transform="translate(127.246094 0)"/>
       <use xlink:href="#DejaVuSans-35" transform="translate(190.869141 0)"/>
       <use xlink:href="#DejaVuSans-2d" transform="translate(254.492188 0)"/>
       <use xlink:href="#DejaVuSans-30" transform="translate(290.576172 0)"/>
       <use xlink:href="#DejaVuSans-39" transform="translate(354.199219 0)"/>
      </g>
     </g>
    </g>
    <g id="xtick_6">
     <g id="line2d_11">
      <path d="M 292.860197 113.518125 
L 292.860197 22.318125 
" clip-path="url(#p8861101b44)" style="fill: none; stroke: #b0b0b0; stroke-opacity: 0.2; stroke-width: 0.8; stroke-linecap: square"/>
     </g>
     <g id="line2d_12">
      <g>
       <use xlink:href="#mce40ae2ab9" x="292.860197" y="113.518125" style="stroke: #000000; stroke-width: 0.8"/>
      </g>
     </g>
     <g id="text_6">
      <!-- 2025-10 -->
      <g transform="translate(261.844726 155.435942) rotate(-45) scale(0.1 -0.1)">
       <defs>
        <path id="DejaVuSans-31" d="M 794 531 
L 1825 531 
L 1825 4091 
L 703 3866 
L 703 4441 
L 1819 4666 
L 2450 4666 
L 2450 531 
L 3481 531 
L 3481 0 
L 794 0 
L 794 531 
z
" transform="scale(0.015625)"/>
       </defs>
       <use xlink:href="#DejaVuSans-32"/>
       <use xlink:href="#DejaVuSans-30" transform="translate(63.623047 0)"/>
       <use xlink:href="#DejaVuSans-32" transform="translate(127.246094 0)"/>
       <use xlink:href="#DejaVuSans-35" transform="translate(190.869141 0)"/>
       <use xlink:href="#DejaVuSans-2d" transform="translate(254.492188 0)"/>
       <use xlink:href="#DejaVuSans-31" transform="translate(290.576172 0)"/>
       <use xlink:href="#DejaVuSans-30" transform="translate(354.199219 0)"/>
      </g>
     </g>
    </g>
    <g id="xtick_7">
     <g id="line2d_13">
      <path d="M 335.5128 113.518125 
L 335.5128 22.318125 
" clip-path="url(#p8861101b44)" style="fill: none; stroke: #b0b0b0; stroke-opacity: 0.2; stroke-width: 0.8; stroke-linecap: square"/>
     </g>
     <g id="line2d_14">
      <g>
       <use xlink:href="#mce40ae2ab9" x="335.5128" y="113.518125" style="stroke: #000000; stroke-width: 0.8"/>
      </g>
     </g>
     <g id="text_7">
      <!-- 2025-11 -->
      <g transform="translate(304.497328 155.435942) rotate(-45) scale(0.1 -0.1)">
       <use xlink:href="#DejaVuSans-32"/>
       <use xlink:href="#DejaVuSans-30" transform="translate(63.623047 0)"/>
       <use xlink:href="#DejaVuSans-32" transform="translate(127.246094 0)"/>
       <use xlink:href="#DejaVuSans-35" transform="translate(190.869141 0)"/>
       <use xlink:href="#DejaVuSans-2d" transform="translate(254.492188 0)"/>
       <use xlink:href="#DejaVuSans-31" transform="translate(290.576172 0)"/>
       <use xlink:href="#DejaVuSans-31" transform="translate(354.199219 0)"/>
      </g>
     </g>
    </g>
    <g id="xtick_8">
     <g id="line2d_15">
      <path d="M 376.789512 113.518125 
L 376.789512 22.318125 
" clip-path="url(#p8861101b44)" style="fill: none; stroke: #b0b0b0; stroke-opacity: 0.2; stroke-width: 0.8; stroke-linecap: square"/>
     </g>
     <g id="line2d_16">
      <g>
       <use xlink:href="#mce40ae2ab9" x="376.789512" y="113.518125" style="stroke: #000000; stroke-width: 0.8"/>
      </g>
     </g>
     <g id="text_8">
      <!-- 2025-12 -->
      <g transform="translate(345.774041 155.435942) rotate(-45) scale(0.1 -0.1)">
       <use xlink:href="#DejaVuSans-32"/>
       <use xlink:href="#DejaVuSans-30" transform="translate(63.623047 0)"/>
       <use xlink:href="#DejaVuSans-32" transform="translate(127.246094 0)"/>
       <use xlink:href="#DejaVuSans-35" transform="translate(190.869141 0)"/>
       <use xlink:href="#DejaVuSans-2d" transform="translate(254.492188 0)"/>
       <use xlink:href="#DejaVuSans-31" transform="translate(290.576172 0)"/>
       <use xlink:href="#DejaVuSans-32" transform="translate(354.199219 0)"/>
      </g>
     </g>
    </g>
    <g id="xtick_9">
     <g id="line2d_17">
      <path d="M 419.442115 113.518125 
L 419.442115 22.318125 
" clip-path="url(#p8861101b44)" style="fill: none; stroke: #b0b0b0; stroke-opacity: 0.2; stroke-width: 0.8; stroke-linecap: square"/>
     </g>
     <g id="line2d_18">
      <g>
       <use xlink:href="#mce40ae2ab9" x="419.442115" y="113.518125" style="stroke: #000000; stroke-width: 0.8"/>
      </g>
     </g>
     <g id="text_9">
      <!-- 2026-01 -->
      <g transform="translate(388.426644 155.435942) rotate(-45) scale(0.1 -0.1)">
       <use xlink:href="#DejaVuSans-32"/>
       <use xlink:href="#DejaVuSans-30" transform="translate(63.623047 0)"/>
       <use xlink:href="#DejaVuSans-32" transform="translate(127.246094 0)"/>
       <use xlink:href="#DejaVuSans-36" transform="translate(190.869141 0)"/>
       <use xlink:href="#DejaVuSans-2d" transform="translate(254.492188 0)"/>
       <use xlink:href="#DejaVuSans-30" transform="translate(290.576172 0)"/>
       <use xlink:href="#DejaVuSans-31" transform="translate(354.199219 0)"/>
      </g>
     </g>
    </g>
    <g id="xtick_10">
     <g id="line2d_19">
      <path d="M 462.094717 113.518125 
L 462.094717 22.318125 
" clip-path="url(#p8861101b44)" style="fill: none; stroke: #b0b0b0; stroke-opacity: 0.2; stroke-width: 0.8; stroke-linecap: square"/>
     </g>
     <g id="line2d_20">
      <g>
       <use xlink:href="#mce40ae2ab9" x="462.094717" y="113.518125" style="stroke: #000000; stroke-width: 0.8"/>
      </g>
     </g>
     <g id="text_10">
      <!-- 2026-02 -->
      <g transform="translate(431.079246 155.435942) rotate(-45) scale(0.1 -0.1)">
       <use xlink:href="#DejaVuSans-32"/>
       <use xlink:href="#DejaVuSans-30" transform="translate(63.623047 0)"/>
       <use xlink:href="#DejaVuSans-32" transform="translate(127.246094 0)"/>
       <use xlink:href="#DejaVuSans-36" transform="translate(190.869141 0)"/>
       <use xlink:href="#DejaVuSans-2d" transform="translate(254.492188 0)"/>
       <use xlink:href="#DejaVuSans-30" transform="translate(290.576172 0)"/>
       <use xlink:href="#DejaVuSans-32" transform="translate(354.199219 0)"/>
      </g>
     </g>
    </g>
    <g id="xtick_11">
     <g id="line2d_21">
      <path d="M 500.619649 113.518125 
L 500.619649 22.318125 
" clip-path="url(#p8861101b44)" style="fill: none; stroke: #b0b0b0; stroke-opacity: 0.2; stroke-width: 0.8; stroke-linecap: square"/>
     </g>
     <g id="line2d_22">
      <g>
       <use xlink:href="#mce40ae2ab9" x="500.619649" y="113.518125" style="stroke: #000000; stroke-width: 0.8"/>
      </g>
     </g>
     <g id="text_11">
      <!-- 2026-03 -->
      <g transform="translate(469.604178 155.435942) rotate(-45) scale(0.1 -0.1)">
       <defs>
        <path id="DejaVuSans-33" d="M 2597 2516 
Q 3050 2419 3304 2112 
Q 3559 1806 3559 1356 
Q 3559 666 3084 287 
Q 2609 -91 1734 -91 
Q 1441 -91 1130 -33 
Q 819 25 488 141 
L 488 750 
Q 750 597 1062 519 
Q 1375 441 1716 441 
Q 2309 441 2620 675 
Q 2931 909 2931 1356 
Q 2931 1769 2642 2001 
Q 2353 2234 1838 2234 
L 1294 2234 
L 1294 2753 
L 1863 2753 
Q 2328 2753 2575 2939 
Q 2822 3125 2822 3475 
Q 2822 3834 2567 4026 
Q 2313 4219 1838 4219 
Q 1578 4219 1281 4162 
Q 984 4106 628 3988 
L 628 4550 
Q 988 4650 1302 4700 
Q 1616 4750 1894 4750 
Q 2613 4750 3031 4423 
Q 3450 4097 3450 3541 
Q 3450 3153 3228 2886 
Q 3006 2619 2597 2516 
z
" transform="scale(0.015625)"/>
       </defs>
       <use xlink:href="#DejaVuSans-32"/>
       <use xlink:href="#DejaVuSans-30" transform="translate(63.623047 0)"/>
       <use xlink:href="#DejaVuSans-32" transform="translate(127.246094 0)"/>
       <use xlink:href="#DejaVuSans-36" transform="translate(190.869141 0)"/>
       <use xlink:href="#DejaVuSans-2d" transform="translate(254.492188 0)"/>
       <use xlink:href="#DejaVuSans-30" transform="translate(290.576172 0)"/>
       <use xlink:href="#DejaVuSans-33" transform="translate(354.199219 0)"/>
      </g>
     </g>
    </g>
    <g id="xtick_12">
     <g id="line2d_23">
      <path d="M 543.272252 113.518125 
L 543.272252 22.318125 
" clip-path="url(#p8861101b44)" style="fill: none; stroke: #b0b0b0; stroke-opacity: 0.2; stroke-width: 0.8; stroke-linecap: square"/>
     </g>
     <g id="line2d_24">
      <g>
       <use xlink:href="#mce40ae2ab9" x="543.272252" y="113.518125" style="stroke: #000000; stroke-width: 0.8"/>
      </g>
     </g>
     <g id="text_12">
      <!-- 2026-04 -->
      <g transform="translate(512.256781 155.435942) rotate(-45) scale(0.1 -0.1)">
       <defs>
        <path id="DejaVuSans-34" d="M 2419 4116 
L 825 1625 
L 2419 1625 
L 2419 4116 
z
M 2253 4666 
L 3047 4666 
L 3047 1625 
L 3713 1625 
L 3713 1100 
L 3047 1100 
L 3047 0 
L 2419 0 
L 2419 1100 
L 313 1100 
L 313 1709 
L 2253 4666 
z
" transform="scale(0.015625)"/>
       </defs>
       <use xlink:href="#DejaVuSans-32"/>
       <use xlink:href="#DejaVuSans-30" transform="translate(63.623047 0)"/>
       <use xlink:href="#DejaVuSans-32" transform="translate(127.246094 0)"/>
       <use xlink:href="#DejaVuSans-36" transform="translate(190.869141 0)"/>
       <use xlink:href="#DejaVuSans-2d" transform="translate(254.492188 0)"/>
       <use xlink:href="#DejaVuSans-30" transform="translate(290.576172 0)"/>
       <use xlink:href="#DejaVuSans-34" transform="translate(354.199219 0)"/>
      </g>
     </g>
    </g>
   </g>
   <g id="matplotlib.axis_2">
    <g id="ytick_1">
     <g id="line2d_25">
      <path d="M 52.079375 109.37267 
L 554.279375 109.37267 
" clip-path="url(#p8861101b44)" style="fill: none; stroke: #b0b0b0; stroke-opacity: 0.2; stroke-width: 0.8; stroke-linecap: square"/>
     </g>
     <g id="line2d_26">
      <defs>
       <path id="m1aac7a7cb2" d="M 0 0 
L -3.5 0 
" style="stroke: #000000; stroke-width: 0.8"/>
      </defs>
      <g>
       <use xlink:href="#m1aac7a7cb2" x="52.079375" y="109.37267" style="stroke: #000000; stroke-width: 0.8"/>
      </g>
     </g>
     <g id="text_13">
      <!-- 0 -->
      <g transform="translate(38.716875 113.171889) scale(0.1 -0.1)">
       <use xlink:href="#DejaVuSans-30"/>
      </g>
     </g>
    </g>
    <g id="ytick_2">
     <g id="line2d_27">
      <path d="M 52.079375 77.237364 
L 554.279375 77.237364 
" clip-path="url(#p8861101b44)" style="fill: none; stroke: #b0b0b0; stroke-opacity: 0.2; stroke-width: 0.8; stroke-linecap: square"/>
     </g>
     <g id="line2d_28">
      <g>
       <use xlink:href="#m1aac7a7cb2" x="52.079375" y="77.237364" style="stroke: #000000; stroke-width: 0.8"/>
      </g>
     </g>
     <g id="text_14">
      <!-- 50 -->
      <g transform="translate(32.354375 81.036583) scale(0.1 -0.1)">
       <use xlink:href="#DejaVuSans-35"/>
       <use xlink:href="#DejaVuSans-30" transform="translate(63.623047 0)"/>
      </g>
     </g>
    </g>
    <g id="ytick_3">
     <g id="line2d_29">
      <path d="M 52.079375 45.102057 
L 554.279375 45.102057 
" clip-path="url(#p8861101b44)" style="fill: none; stroke: #b0b0b0; stroke-opacity: 0.2; stroke-width: 0.8; stroke-linecap: square"/>
     </g>
     <g id="line2d_30">
      <g>
       <use xlink:href="#m1aac7a7cb2" x="52.079375" y="45.102057" style="stroke: #000000; stroke-width: 0.8"/>
      </g>
     </g>
     <g id="text_15">
      <!-- 100 -->
      <g transform="translate(25.991875 48.901276) scale(0.1 -0.1)">
       <use xlink:href="#DejaVuSans-31"/>
       <use xlink:href="#DejaVuSans-30" transform="translate(63.623047 0)"/>
       <use xlink:href="#DejaVuSans-30" transform="translate(127.246094 0)"/>
      </g>
     </g>
    </g>
    <g id="text_16">
     <!-- bp -->
     <g transform="translate(19.912187 74.266562) rotate(-90) scale(0.1 -0.1)">
      <defs>
       <path id="DejaVuSans-62" d="M 3116 1747 
Q 3116 2381 2855 2742 
Q 2594 3103 2138 3103 
Q 1681 3103 1420 2742 
Q 1159 2381 1159 1747 
Q 1159 1113 1420 752 
Q 1681 391 2138 391 
Q 2594 391 2855 752 
Q 3116 1113 3116 1747 
z
M 1159 2969 
Q 1341 3281 1617 3432 
Q 1894 3584 2278 3584 
Q 2916 3584 3314 3078 
Q 3713 2572 3713 1747 
Q 3713 922 3314 415 
Q 2916 -91 2278 -91 
Q 1894 -91 1617 61 
Q 1341 213 1159 525 
L 1159 0 
L 581 0 
L 581 4863 
L 1159 4863 
L 1159 2969 
z
" transform="scale(0.015625)"/>
       <path id="DejaVuSans-70" d="M 1159 525 
L 1159 -1331 
L 581 -1331 
L 581 3500 
L 1159 3500 
L 1159 2969 
Q 1341 3281 1617 3432 
Q 1894 3584 2278 3584 
Q 2916 3584 3314 3078 
Q 3713 2572 3713 1747 
Q 3713 922 3314 415 
Q 2916 -91 2278 -91 
Q 1894 -91 1617 61 
Q 1341 213 1159 525 
z
M 3116 1747 
Q 3116 2381 2855 2742 
Q 2594 3103 2138 3103 
Q 1681 3103 1420 2742 
Q 1159 2381 1159 1747 
Q 1159 1113 1420 752 
Q 1681 391 2138 391 
Q 2594 391 2855 752 
Q 3116 1113 3116 1747 
z
" transform="scale(0.015625)"/>
      </defs>
      <use xlink:href="#DejaVuSans-62"/>
      <use xlink:href="#DejaVuSans-70" transform="translate(63.476562 0)"/>
     </g>
    </g>
   </g>
   <g id="line2d_31">
    <path d="M 52.079375 34.818759 
L 53.455265 33.533347 
L 54.831156 30.962522 
L 58.958827 28.391698 
L 60.334717 29.67711 
L 61.710608 31.605229 
L 64.462389 31.605229 
L 68.59006 32.890641 
L 69.96595 30.962522 
L 71.341841 34.176053 
L 72.717731 36.104172 
L 74.093622 37.389584 
L 78.221293 40.603114 
L 79.597183 40.603114 
L 80.973074 38.674996 
L 82.348964 35.461465 
L 83.724854 35.461465 
L 87.852526 32.890641 
L 89.228416 35.461465 
L 91.980197 34.176053 
L 93.356087 30.962522 
L 97.483759 29.034404 
L 98.859649 27.748992 
L 101.61143 26.46358 
L 102.98732 28.391698 
L 107.114991 26.46358 
L 108.490882 32.890641 
L 109.866772 32.890641 
L 112.618553 34.176053 
L 116.746224 32.890641 
L 118.122115 33.533347 
L 119.498005 30.319816 
L 122.249786 31.605229 
L 126.377457 30.319816 
L 127.753348 32.890641 
L 129.129238 36.104172 
L 130.505128 35.461465 
L 131.881019 34.176053 
L 136.00869 36.746878 
L 137.38458 36.746878 
L 138.760471 40.603114 
L 140.136361 43.173939 
L 141.512252 42.531233 
L 145.639923 41.245821 
L 147.015813 43.816645 
L 148.391704 41.888527 
L 149.767594 41.888527 
L 151.143485 39.960408 
L 155.271156 40.603114 
L 156.647046 42.531233 
L 158.022937 47.030176 
L 159.398827 49.601 
L 160.774717 46.38747 
L 164.902389 47.672882 
L 166.278279 46.38747 
L 167.65417 48.958294 
L 170.40595 45.102057 
L 174.533622 45.102057 
L 175.909512 45.744763 
L 180.037183 49.601 
L 184.164854 50.243706 
L 185.540745 51.529119 
L 186.916635 52.171825 
L 188.292526 51.529119 
L 189.668416 53.457237 
L 193.796087 53.457237 
L 195.171978 54.742649 
L 196.547868 55.385355 
L 197.923759 52.814531 
L 199.299649 52.814531 
L 203.42732 51.529119 
L 204.803211 53.457237 
L 206.179101 51.529119 
L 207.554991 50.243706 
L 208.930882 54.742649 
L 213.058553 55.385355 
L 214.434443 55.385355 
L 215.810334 56.028062 
L 217.186224 55.385355 
L 218.562115 52.171825 
L 222.689786 52.814531 
L 224.065676 54.099943 
L 225.441567 54.742649 
L 226.817457 52.814531 
L 228.193348 53.457237 
L 232.321019 54.742649 
L 233.696909 54.099943 
L 235.0728 54.742649 
L 236.44869 54.742649 
L 237.82458 56.028062 
L 241.952252 57.313474 
L 243.328142 57.313474 
L 244.704033 58.598886 
L 246.079923 57.95618 
L 247.455813 54.742649 
L 251.583485 54.742649 
L 255.711156 56.670768 
L 257.087046 56.028062 
L 261.214717 55.385355 
L 262.590608 54.099943 
L 263.966498 53.457237 
L 265.342389 54.742649 
L 266.718279 52.814531 
L 273.597731 52.814531 
L 274.973622 50.243706 
L 276.349512 48.958294 
L 280.477183 47.672882 
L 281.853074 49.601 
L 283.228964 47.672882 
L 284.604854 47.672882 
L 285.980745 47.030176 
L 290.108416 46.38747 
L 291.484307 45.744763 
L 292.860197 49.601 
L 294.236087 50.243706 
L 295.611978 48.958294 
L 299.739649 47.030176 
L 301.115539 48.315588 
L 302.49143 48.958294 
L 303.86732 48.958294 
L 305.243211 53.457237 
L 309.370882 53.457237 
L 310.746772 52.171825 
L 312.122663 49.601 
L 313.498553 50.886413 
L 314.874443 49.601 
L 319.002115 48.315588 
L 320.378005 51.529119 
L 321.753896 51.529119 
L 324.505676 48.958294 
L 328.633348 47.672882 
L 330.009238 48.315588 
L 331.385128 49.601 
L 332.761019 46.38747 
L 334.136909 45.744763 
L 338.26458 46.38747 
L 339.640471 48.315588 
L 341.016361 44.459351 
L 342.392252 44.459351 
L 343.768142 48.958294 
L 347.895813 47.672882 
L 349.271704 47.672882 
L 350.647594 48.958294 
L 353.399375 50.243706 
L 357.527046 51.529119 
L 358.902937 53.457237 
L 360.278827 52.814531 
L 361.654717 52.814531 
L 363.030608 54.099943 
L 368.53417 54.099943 
L 371.28595 52.814531 
L 372.661841 52.814531 
L 376.789512 54.742649 
L 378.165402 54.742649 
L 379.541293 55.385355 
L 380.917183 54.742649 
L 382.293074 63.097829 
L 386.420745 61.169711 
L 387.796635 63.097829 
L 389.172526 63.740535 
L 390.548416 63.097829 
L 391.924307 61.169711 
L 396.051978 59.884298 
L 397.427868 61.169711 
L 398.803759 61.812417 
L 400.179649 63.097829 
L 401.555539 65.025947 
L 405.683211 63.740535 
L 407.059101 60.527004 
L 408.434991 61.169711 
L 409.810882 61.169711 
L 411.186772 61.812417 
L 415.314443 62.455123 
L 416.690334 62.455123 
L 418.066224 60.527004 
L 419.442115 60.527004 
L 420.818005 63.097829 
L 424.945676 61.169711 
L 426.321567 61.169711 
L 427.697457 60.527004 
L 429.073348 58.598886 
L 430.449238 57.95618 
L 434.576909 58.598886 
L 435.9528 59.884298 
L 437.32869 58.598886 
L 438.70458 56.670768 
L 440.080471 53.457237 
L 444.208142 54.742649 
L 445.584033 52.814531 
L 446.959923 55.385355 
L 448.335813 54.099943 
L 449.711704 56.028062 
L 453.839375 54.742649 
L 455.215265 56.028062 
L 456.591156 55.385355 
L 457.967046 56.028062 
L 459.342937 55.385355 
L 463.470608 54.099943 
L 464.846498 55.385355 
L 466.222389 54.099943 
L 467.598279 57.313474 
L 468.97417 56.670768 
L 473.101841 56.028062 
L 474.477731 57.95618 
L 475.853622 55.385355 
L 477.229512 57.313474 
L 478.605402 58.598886 
L 482.733074 58.598886 
L 484.108964 56.670768 
L 485.484854 54.099943 
L 488.236635 54.099943 
L 492.364307 54.742649 
L 493.740197 54.099943 
L 495.116087 54.742649 
L 496.491978 54.742649 
L 497.867868 55.385355 
L 501.995539 56.028062 
L 503.37143 56.670768 
L 504.74732 56.028062 
L 507.499101 61.169711 
L 511.626772 60.527004 
L 513.002663 60.527004 
L 514.378553 62.455123 
L 517.130334 59.884298 
L 522.633896 57.313474 
L 525.385676 57.313474 
L 526.761567 56.028062 
L 530.889238 57.313474 
L 532.265128 57.95618 
L 533.641019 54.099943 
L 535.016909 54.742649 
L 536.3928 54.099943 
L 540.520471 55.385355 
L 541.896361 55.385355 
L 544.648142 56.670768 
L 546.024033 54.099943 
L 550.151704 53.457237 
L 551.527594 55.385355 
L 552.903485 54.742649 
L 554.279375 56.028062 
L 554.279375 56.028062 
" clip-path="url(#p8861101b44)" style="fill: none; stroke: #444444; stroke-width: 1.5; stroke-linecap: square"/>
    <defs>
     <path id="m6fd3291ad2" d="M 0 1 
C 0.265203 1 0.51958 0.894634 0.707107 0.707107 
C 0.894634 0.51958 1 0.265203 1 0 
C 1 -0.265203 0.894634 -0.51958 0.707107 -0.707107 
C 0.51958 -0.894634 0.265203 -1 0 -1 
C -0.265203 -1 -0.51958 -0.894634 -0.707107 -0.707107 
C -0.894634 -0.51958 -1 -0.265203 -1 0 
C -1 0.265203 -0.894634 0.51958 -0.707107 0.707107 
C -0.51958 0.894634 -0.265203 1 0 1 
z
" style="stroke: #444444"/>
    </defs>
    <g clip-path="url(#p8861101b44)">
     <use xlink:href="#m6fd3291ad2" x="52.079375" y="34.818759" style="fill: #444444; stroke: #444444"/>
     <use xlink:href="#m6fd3291ad2" x="53.455265" y="33.533347" style="fill: #444444; stroke: #444444"/>
     <use xlink:href="#m6fd3291ad2" x="54.831156" y="30.962522" style="fill: #444444; stroke: #444444"/>
     <use xlink:href="#m6fd3291ad2" x="58.958827" y="28.391698" style="fill: #444444; stroke: #444444"/>
     <use xlink:href="#m6fd3291ad2" x="60.334717" y="29.67711" style="fill: #444444; stroke: #444444"/>
     <use xlink:href="#m6fd3291ad2" x="61.710608" y="31.605229" style="fill: #444444; stroke: #444444"/>
     <use xlink:href="#m6fd3291ad2" x="63.086498" y="31.605229" style="fill: #444444; stroke: #444444"/>
     <use xlink:href="#m6fd3291ad2" x="64.462389" y="31.605229" style="fill: #444444; stroke: #444444"/>
     <use xlink:href="#m6fd3291ad2" x="68.59006" y="32.890641" style="fill: #444444; stroke: #444444"/>
     <use xlink:href="#m6fd3291ad2" x="69.96595" y="30.962522" style="fill: #444444; stroke: #444444"/>
     <use xlink:href="#m6fd3291ad2" x="71.341841" y="34.176053" style="fill: #444444; stroke: #444444"/>
     <use xlink:href="#m6fd3291ad2" x="72.717731" y="36.104172" style="fill: #444444; stroke: #444444"/>
     <use xlink:href="#m6fd3291ad2" x="74.093622" y="37.389584" style="fill: #444444; stroke: #444444"/>
     <use xlink:href="#m6fd3291ad2" x="78.221293" y="40.603114" style="fill: #444444; stroke: #444444"/>
     <use xlink:href="#m6fd3291ad2" x="79.597183" y="40.603114" style="fill: #444444; stroke: #444444"/>
     <use xlink:href="#m6fd3291ad2" x="80.973074" y="38.674996" style="fill: #444444; stroke: #444444"/>
     <use xlink:href="#m6fd3291ad2" x="82.348964" y="35.461465" style="fill: #444444; stroke: #444444"/>
     <use xlink:href="#m6fd3291ad2" x="83.724854" y="35.461465" style="fill: #444444; stroke: #444444"/>
     <use xlink:href="#m6fd3291ad2" x="87.852526" y="32.890641" style="fill: #444444; stroke: #444444"/>
     <use xlink:href="#m6fd3291ad2" x="89.228416" y="35.461465" style="fill: #444444; stroke: #444444"/>
     <use xlink:href="#m6fd3291ad2" x="90.604307" y="34.818759" style="fill: #444444; stroke: #444444"/>
     <use xlink:href="#m6fd3291ad2" x="91.980197" y="34.176053" style="fill: #444444; stroke: #444444"/>
     <use xlink:href="#m6fd3291ad2" x="93.356087" y="30.962522" style="fill: #444444; stroke: #444444"/>
     <use xlink:href="#m6fd3291ad2" x="97.483759" y="29.034404" style="fill: #444444; stroke: #444444"/>
     <use xlink:href="#m6fd3291ad2" x="98.859649" y="27.748992" style="fill: #444444; stroke: #444444"/>
     <use xlink:href="#m6fd3291ad2" x="100.235539" y="27.106286" style="fill: #444444; stroke: #444444"/>
     <use xlink:href="#m6fd3291ad2" x="101.61143" y="26.46358" style="fill: #444444; stroke: #444444"/>
     <use xlink:href="#m6fd3291ad2" x="102.98732" y="28.391698" style="fill: #444444; stroke: #444444"/>
     <use xlink:href="#m6fd3291ad2" x="107.114991" y="26.46358" style="fill: #444444; stroke: #444444"/>
     <use xlink:href="#m6fd3291ad2" x="108.490882" y="32.890641" style="fill: #444444; stroke: #444444"/>
     <use xlink:href="#m6fd3291ad2" x="109.866772" y="32.890641" style="fill: #444444; stroke: #444444"/>
     <use xlink:href="#m6fd3291ad2" x="111.242663" y="33.533347" style="fill: #444444; stroke: #444444"/>
     <use xlink:href="#m6fd3291ad2" x="112.618553" y="34.176053" style="fill: #444444; stroke: #444444"/>
     <use xlink:href="#m6fd3291ad2" x="116.746224" y="32.890641" style="fill: #444444; stroke: #444444"/>
     <use xlink:href="#m6fd3291ad2" x="118.122115" y="33.533347" style="fill: #444444; stroke: #444444"/>
     <use xlink:href="#m6fd3291ad2" x="119.498005" y="30.319816" style="fill: #444444; stroke: #444444"/>
     <use xlink:href="#m6fd3291ad2" x="120.873896" y="30.962522" style="fill: #444444; stroke: #444444"/>
     <use xlink:href="#m6fd3291ad2" x="122.249786" y="31.605229" style="fill: #444444; stroke: #444444"/>
     <use xlink:href="#m6fd3291ad2" x="126.377457" y="30.319816" style="fill: #444444; stroke: #444444"/>
     <use xlink:href="#m6fd3291ad2" x="127.753348" y="32.890641" style="fill: #444444; stroke: #444444"/>
     <use xlink:href="#m6fd3291ad2" x="129.129238" y="36.104172" style="fill: #444444; stroke: #444444"/>
     <use xlink:href="#m6fd3291ad2" x="130.505128" y="35.461465" style="fill: #444444; stroke: #444444"/>
     <use xlink:href="#m6fd3291ad2" x="131.881019" y="34.176053" style="fill: #444444; stroke: #444444"/>
     <use xlink:href="#m6fd3291ad2" x="136.00869" y="36.746878" style="fill: #444444; stroke: #444444"/>
     <use xlink:href="#m6fd3291ad2" x="137.38458" y="36.746878" style="fill: #444444; stroke: #444444"/>
     <use xlink:href="#m6fd3291ad2" x="138.760471" y="40.603114" style="fill: #444444; stroke: #444444"/>
     <use xlink:href="#m6fd3291ad2" x="140.136361" y="43.173939" style="fill: #444444; stroke: #444444"/>
     <use xlink:href="#m6fd3291ad2" x="141.512252" y="42.531233" style="fill: #444444; stroke: #444444"/>
     <use xlink:href="#m6fd3291ad2" x="145.639923" y="41.245821" style="fill: #444444; stroke: #444444"/>
     <use xlink:href="#m6fd3291ad2" x="147.015813" y="43.816645" style="fill: #444444; stroke: #444444"/>
     <use xlink:href="#m6fd3291ad2" x="148.391704" y="41.888527" style="fill: #444444; stroke: #444444"/>
     <use xlink:href="#m6fd3291ad2" x="149.767594" y="41.888527" style="fill: #444444; stroke: #444444"/>
     <use xlink:href="#m6fd3291ad2" x="151.143485" y="39.960408" style="fill: #444444; stroke: #444444"/>
     <use xlink:href="#m6fd3291ad2" x="155.271156" y="40.603114" style="fill: #444444; stroke: #444444"/>
     <use xlink:href="#m6fd3291ad2" x="156.647046" y="42.531233" style="fill: #444444; stroke: #444444"/>
     <use xlink:href="#m6fd3291ad2" x="158.022937" y="47.030176" style="fill: #444444; stroke: #444444"/>
     <use xlink:href="#m6fd3291ad2" x="159.398827" y="49.601" style="fill: #444444; stroke: #444444"/>
     <use xlink:href="#m6fd3291ad2" x="160.774717" y="46.38747" style="fill: #444444; stroke: #444444"/>
     <use xlink:href="#m6fd3291ad2" x="164.902389" y="47.672882" style="fill: #444444; stroke: #444444"/>
     <use xlink:href="#m6fd3291ad2" x="166.278279" y="46.38747" style="fill: #444444; stroke: #444444"/>
     <use xlink:href="#m6fd3291ad2" x="167.65417" y="48.958294" style="fill: #444444; stroke: #444444"/>
     <use xlink:href="#m6fd3291ad2" x="169.03006" y="47.030176" style="fill: #444444; stroke: #444444"/>
     <use xlink:href="#m6fd3291ad2" x="170.40595" y="45.102057" style="fill: #444444; stroke: #444444"/>
     <use xlink:href="#m6fd3291ad2" x="174.533622" y="45.102057" style="fill: #444444; stroke: #444444"/>
     <use xlink:href="#m6fd3291ad2" x="175.909512" y="45.744763" style="fill: #444444; stroke: #444444"/>
     <use xlink:href="#m6fd3291ad2" x="177.285402" y="47.030176" style="fill: #444444; stroke: #444444"/>
     <use xlink:href="#m6fd3291ad2" x="178.661293" y="48.315588" style="fill: #444444; stroke: #444444"/>
     <use xlink:href="#m6fd3291ad2" x="180.037183" y="49.601" style="fill: #444444; stroke: #444444"/>
     <use xlink:href="#m6fd3291ad2" x="184.164854" y="50.243706" style="fill: #444444; stroke: #444444"/>
     <use xlink:href="#m6fd3291ad2" x="185.540745" y="51.529119" style="fill: #444444; stroke: #444444"/>
     <use xlink:href="#m6fd3291ad2" x="186.916635" y="52.171825" style="fill: #444444; stroke: #444444"/>
     <use xlink:href="#m6fd3291ad2" x="188.292526" y="51.529119" style="fill: #444444; stroke: #444444"/>
     <use xlink:href="#m6fd3291ad2" x="189.668416" y="53.457237" style="fill: #444444; stroke: #444444"/>
     <use xlink:href="#m6fd3291ad2" x="193.796087" y="53.457237" style="fill: #444444; stroke: #444444"/>
     <use xlink:href="#m6fd3291ad2" x="195.171978" y="54.742649" style="fill: #444444; stroke: #444444"/>
     <use xlink:href="#m6fd3291ad2" x="196.547868" y="55.385355" style="fill: #444444; stroke: #444444"/>
     <use xlink:href="#m6fd3291ad2" x="197.923759" y="52.814531" style="fill: #444444; stroke: #444444"/>
     <use xlink:href="#m6fd3291ad2" x="199.299649" y="52.814531" style="fill: #444444; stroke: #444444"/>
     <use xlink:href="#m6fd3291ad2" x="203.42732" y="51.529119" style="fill: #444444; stroke: #444444"/>
     <use xlink:href="#m6fd3291ad2" x="204.803211" y="53.457237" style="fill: #444444; stroke: #444444"/>
     <use xlink:href="#m6fd3291ad2" x="206.179101" y="51.529119" style="fill: #444444; stroke: #444444"/>
     <use xlink:href="#m6fd3291ad2" x="207.554991" y="50.243706" style="fill: #444444; stroke: #444444"/>
     <use xlink:href="#m6fd3291ad2" x="208.930882" y="54.742649" style="fill: #444444; stroke: #444444"/>
     <use xlink:href="#m6fd3291ad2" x="213.058553" y="55.385355" style="fill: #444444; stroke: #444444"/>
     <use xlink:href="#m6fd3291ad2" x="214.434443" y="55.385355" style="fill: #444444; stroke: #444444"/>
     <use xlink:href="#m6fd3291ad2" x="215.810334" y="56.028062" style="fill: #444444; stroke: #444444"/>
     <use xlink:href="#m6fd3291ad2" x="217.186224" y="55.385355" style="fill: #444444; stroke: #444444"/>
     <use xlink:href="#m6fd3291ad2" x="218.562115" y="52.171825" style="fill: #444444; stroke: #444444"/>
     <use xlink:href="#m6fd3291ad2" x="222.689786" y="52.814531" style="fill: #444444; stroke: #444444"/>
     <use xlink:href="#m6fd3291ad2" x="224.065676" y="54.099943" style="fill: #444444; stroke: #444444"/>
     <use xlink:href="#m6fd3291ad2" x="225.441567" y="54.742649" style="fill: #444444; stroke: #444444"/>
     <use xlink:href="#m6fd3291ad2" x="226.817457" y="52.814531" style="fill: #444444; stroke: #444444"/>
     <use xlink:href="#m6fd3291ad2" x="228.193348" y="53.457237" style="fill: #444444; stroke: #444444"/>
     <use xlink:href="#m6fd3291ad2" x="232.321019" y="54.742649" style="fill: #444444; stroke: #444444"/>
     <use xlink:href="#m6fd3291ad2" x="233.696909" y="54.099943" style="fill: #444444; stroke: #444444"/>
     <use xlink:href="#m6fd3291ad2" x="235.0728" y="54.742649" style="fill: #444444; stroke: #444444"/>
     <use xlink:href="#m6fd3291ad2" x="236.44869" y="54.742649" style="fill: #444444; stroke: #444444"/>
     <use xlink:href="#m6fd3291ad2" x="237.82458" y="56.028062" style="fill: #444444; stroke: #444444"/>
     <use xlink:href="#m6fd3291ad2" x="241.952252" y="57.313474" style="fill: #444444; stroke: #444444"/>
     <use xlink:href="#m6fd3291ad2" x="243.328142" y="57.313474" style="fill: #444444; stroke: #444444"/>
     <use xlink:href="#m6fd3291ad2" x="244.704033" y="58.598886" style="fill: #444444; stroke: #444444"/>
     <use xlink:href="#m6fd3291ad2" x="246.079923" y="57.95618" style="fill: #444444; stroke: #444444"/>
     <use xlink:href="#m6fd3291ad2" x="247.455813" y="54.742649" style="fill: #444444; stroke: #444444"/>
     <use xlink:href="#m6fd3291ad2" x="251.583485" y="54.742649" style="fill: #444444; stroke: #444444"/>
     <use xlink:href="#m6fd3291ad2" x="252.959375" y="55.385355" style="fill: #444444; stroke: #444444"/>
     <use xlink:href="#m6fd3291ad2" x="254.335265" y="56.028062" style="fill: #444444; stroke: #444444"/>
     <use xlink:href="#m6fd3291ad2" x="255.711156" y="56.670768" style="fill: #444444; stroke: #444444"/>
     <use xlink:href="#m6fd3291ad2" x="257.087046" y="56.028062" style="fill: #444444; stroke: #444444"/>
     <use xlink:href="#m6fd3291ad2" x="261.214717" y="55.385355" style="fill: #444444; stroke: #444444"/>
     <use xlink:href="#m6fd3291ad2" x="262.590608" y="54.099943" style="fill: #444444; stroke: #444444"/>
     <use xlink:href="#m6fd3291ad2" x="263.966498" y="53.457237" style="fill: #444444; stroke: #444444"/>
     <use xlink:href="#m6fd3291ad2" x="265.342389" y="54.742649" style="fill: #444444; stroke: #444444"/>
     <use xlink:href="#m6fd3291ad2" x="266.718279" y="52.814531" style="fill: #444444; stroke: #444444"/>
     <use xlink:href="#m6fd3291ad2" x="270.84595" y="52.814531" style="fill: #444444; stroke: #444444"/>
     <use xlink:href="#m6fd3291ad2" x="272.221841" y="52.814531" style="fill: #444444; stroke: #444444"/>
     <use xlink:href="#m6fd3291ad2" x="273.597731" y="52.814531" style="fill: #444444; stroke: #444444"/>
     <use xlink:href="#m6fd3291ad2" x="274.973622" y="50.243706" style="fill: #444444; stroke: #444444"/>
     <use xlink:href="#m6fd3291ad2" x="276.349512" y="48.958294" style="fill: #444444; stroke: #444444"/>
     <use xlink:href="#m6fd3291ad2" x="280.477183" y="47.672882" style="fill: #444444; stroke: #444444"/>
     <use xlink:href="#m6fd3291ad2" x="281.853074" y="49.601" style="fill: #444444; stroke: #444444"/>
     <use xlink:href="#m6fd3291ad2" x="283.228964" y="47.672882" style="fill: #444444; stroke: #444444"/>
     <use xlink:href="#m6fd3291ad2" x="284.604854" y="47.672882" style="fill: #444444; stroke: #444444"/>
     <use xlink:href="#m6fd3291ad2" x="285.980745" y="47.030176" style="fill: #444444; stroke: #444444"/>
     <use xlink:href="#m6fd3291ad2" x="290.108416" y="46.38747" style="fill: #444444; stroke: #444444"/>
     <use xlink:href="#m6fd3291ad2" x="291.484307" y="45.744763" style="fill: #444444; stroke: #444444"/>
     <use xlink:href="#m6fd3291ad2" x="292.860197" y="49.601" style="fill: #444444; stroke: #444444"/>
     <use xlink:href="#m6fd3291ad2" x="294.236087" y="50.243706" style="fill: #444444; stroke: #444444"/>
     <use xlink:href="#m6fd3291ad2" x="295.611978" y="48.958294" style="fill: #444444; stroke: #444444"/>
     <use xlink:href="#m6fd3291ad2" x="299.739649" y="47.030176" style="fill: #444444; stroke: #444444"/>
     <use xlink:href="#m6fd3291ad2" x="301.115539" y="48.315588" style="fill: #444444; stroke: #444444"/>
     <use xlink:href="#m6fd3291ad2" x="302.49143" y="48.958294" style="fill: #444444; stroke: #444444"/>
     <use xlink:href="#m6fd3291ad2" x="303.86732" y="48.958294" style="fill: #444444; stroke: #444444"/>
     <use xlink:href="#m6fd3291ad2" x="305.243211" y="53.457237" style="fill: #444444; stroke: #444444"/>
     <use xlink:href="#m6fd3291ad2" x="309.370882" y="53.457237" style="fill: #444444; stroke: #444444"/>
     <use xlink:href="#m6fd3291ad2" x="310.746772" y="52.171825" style="fill: #444444; stroke: #444444"/>
     <use xlink:href="#m6fd3291ad2" x="312.122663" y="49.601" style="fill: #444444; stroke: #444444"/>
     <use xlink:href="#m6fd3291ad2" x="313.498553" y="50.886413" style="fill: #444444; stroke: #444444"/>
     <use xlink:href="#m6fd3291ad2" x="314.874443" y="49.601" style="fill: #444444; stroke: #444444"/>
     <use xlink:href="#m6fd3291ad2" x="319.002115" y="48.315588" style="fill: #444444; stroke: #444444"/>
     <use xlink:href="#m6fd3291ad2" x="320.378005" y="51.529119" style="fill: #444444; stroke: #444444"/>
     <use xlink:href="#m6fd3291ad2" x="321.753896" y="51.529119" style="fill: #444444; stroke: #444444"/>
     <use xlink:href="#m6fd3291ad2" x="323.129786" y="50.243706" style="fill: #444444; stroke: #444444"/>
     <use xlink:href="#m6fd3291ad2" x="324.505676" y="48.958294" style="fill: #444444; stroke: #444444"/>
     <use xlink:href="#m6fd3291ad2" x="328.633348" y="47.672882" style="fill: #444444; stroke: #444444"/>
     <use xlink:href="#m6fd3291ad2" x="330.009238" y="48.315588" style="fill: #444444; stroke: #444444"/>
     <use xlink:href="#m6fd3291ad2" x="331.385128" y="49.601" style="fill: #444444; stroke: #444444"/>
     <use xlink:href="#m6fd3291ad2" x="332.761019" y="46.38747" style="fill: #444444; stroke: #444444"/>
     <use xlink:href="#m6fd3291ad2" x="334.136909" y="45.744763" style="fill: #444444; stroke: #444444"/>
     <use xlink:href="#m6fd3291ad2" x="338.26458" y="46.38747" style="fill: #444444; stroke: #444444"/>
     <use xlink:href="#m6fd3291ad2" x="339.640471" y="48.315588" style="fill: #444444; stroke: #444444"/>
     <use xlink:href="#m6fd3291ad2" x="341.016361" y="44.459351" style="fill: #444444; stroke: #444444"/>
     <use xlink:href="#m6fd3291ad2" x="342.392252" y="44.459351" style="fill: #444444; stroke: #444444"/>
     <use xlink:href="#m6fd3291ad2" x="343.768142" y="48.958294" style="fill: #444444; stroke: #444444"/>
     <use xlink:href="#m6fd3291ad2" x="347.895813" y="47.672882" style="fill: #444444; stroke: #444444"/>
     <use xlink:href="#m6fd3291ad2" x="349.271704" y="47.672882" style="fill: #444444; stroke: #444444"/>
     <use xlink:href="#m6fd3291ad2" x="350.647594" y="48.958294" style="fill: #444444; stroke: #444444"/>
     <use xlink:href="#m6fd3291ad2" x="352.023485" y="49.601" style="fill: #444444; stroke: #444444"/>
     <use xlink:href="#m6fd3291ad2" x="353.399375" y="50.243706" style="fill: #444444; stroke: #444444"/>
     <use xlink:href="#m6fd3291ad2" x="357.527046" y="51.529119" style="fill: #444444; stroke: #444444"/>
     <use xlink:href="#m6fd3291ad2" x="358.902937" y="53.457237" style="fill: #444444; stroke: #444444"/>
     <use xlink:href="#m6fd3291ad2" x="360.278827" y="52.814531" style="fill: #444444; stroke: #444444"/>
     <use xlink:href="#m6fd3291ad2" x="361.654717" y="52.814531" style="fill: #444444; stroke: #444444"/>
     <use xlink:href="#m6fd3291ad2" x="363.030608" y="54.099943" style="fill: #444444; stroke: #444444"/>
     <use xlink:href="#m6fd3291ad2" x="367.158279" y="54.099943" style="fill: #444444; stroke: #444444"/>
     <use xlink:href="#m6fd3291ad2" x="368.53417" y="54.099943" style="fill: #444444; stroke: #444444"/>
     <use xlink:href="#m6fd3291ad2" x="369.91006" y="53.457237" style="fill: #444444; stroke: #444444"/>
     <use xlink:href="#m6fd3291ad2" x="371.28595" y="52.814531" style="fill: #444444; stroke: #444444"/>
     <use xlink:href="#m6fd3291ad2" x="372.661841" y="52.814531" style="fill: #444444; stroke: #444444"/>
     <use xlink:href="#m6fd3291ad2" x="376.789512" y="54.742649" style="fill: #444444; stroke: #444444"/>
     <use xlink:href="#m6fd3291ad2" x="378.165402" y="54.742649" style="fill: #444444; stroke: #444444"/>
     <use xlink:href="#m6fd3291ad2" x="379.541293" y="55.385355" style="fill: #444444; stroke: #444444"/>
     <use xlink:href="#m6fd3291ad2" x="380.917183" y="54.742649" style="fill: #444444; stroke: #444444"/>
     <use xlink:href="#m6fd3291ad2" x="382.293074" y="63.097829" style="fill: #444444; stroke: #444444"/>
     <use xlink:href="#m6fd3291ad2" x="386.420745" y="61.169711" style="fill: #444444; stroke: #444444"/>
     <use xlink:href="#m6fd3291ad2" x="387.796635" y="63.097829" style="fill: #444444; stroke: #444444"/>
     <use xlink:href="#m6fd3291ad2" x="389.172526" y="63.740535" style="fill: #444444; stroke: #444444"/>
     <use xlink:href="#m6fd3291ad2" x="390.548416" y="63.097829" style="fill: #444444; stroke: #444444"/>
     <use xlink:href="#m6fd3291ad2" x="391.924307" y="61.169711" style="fill: #444444; stroke: #444444"/>
     <use xlink:href="#m6fd3291ad2" x="396.051978" y="59.884298" style="fill: #444444; stroke: #444444"/>
     <use xlink:href="#m6fd3291ad2" x="397.427868" y="61.169711" style="fill: #444444; stroke: #444444"/>
     <use xlink:href="#m6fd3291ad2" x="398.803759" y="61.812417" style="fill: #444444; stroke: #444444"/>
     <use xlink:href="#m6fd3291ad2" x="400.179649" y="63.097829" style="fill: #444444; stroke: #444444"/>
     <use xlink:href="#m6fd3291ad2" x="401.555539" y="65.025947" style="fill: #444444; stroke: #444444"/>
     <use xlink:href="#m6fd3291ad2" x="405.683211" y="63.740535" style="fill: #444444; stroke: #444444"/>
     <use xlink:href="#m6fd3291ad2" x="407.059101" y="60.527004" style="fill: #444444; stroke: #444444"/>
     <use xlink:href="#m6fd3291ad2" x="408.434991" y="61.169711" style="fill: #444444; stroke: #444444"/>
     <use xlink:href="#m6fd3291ad2" x="409.810882" y="61.169711" style="fill: #444444; stroke: #444444"/>
     <use xlink:href="#m6fd3291ad2" x="411.186772" y="61.812417" style="fill: #444444; stroke: #444444"/>
     <use xlink:href="#m6fd3291ad2" x="415.314443" y="62.455123" style="fill: #444444; stroke: #444444"/>
     <use xlink:href="#m6fd3291ad2" x="416.690334" y="62.455123" style="fill: #444444; stroke: #444444"/>
     <use xlink:href="#m6fd3291ad2" x="418.066224" y="60.527004" style="fill: #444444; stroke: #444444"/>
     <use xlink:href="#m6fd3291ad2" x="419.442115" y="60.527004" style="fill: #444444; stroke: #444444"/>
     <use xlink:href="#m6fd3291ad2" x="420.818005" y="63.097829" style="fill: #444444; stroke: #444444"/>
     <use xlink:href="#m6fd3291ad2" x="424.945676" y="61.169711" style="fill: #444444; stroke: #444444"/>
     <use xlink:href="#m6fd3291ad2" x="426.321567" y="61.169711" style="fill: #444444; stroke: #444444"/>
     <use xlink:href="#m6fd3291ad2" x="427.697457" y="60.527004" style="fill: #444444; stroke: #444444"/>
     <use xlink:href="#m6fd3291ad2" x="429.073348" y="58.598886" style="fill: #444444; stroke: #444444"/>
     <use xlink:href="#m6fd3291ad2" x="430.449238" y="57.95618" style="fill: #444444; stroke: #444444"/>
     <use xlink:href="#m6fd3291ad2" x="434.576909" y="58.598886" style="fill: #444444; stroke: #444444"/>
     <use xlink:href="#m6fd3291ad2" x="435.9528" y="59.884298" style="fill: #444444; stroke: #444444"/>
     <use xlink:href="#m6fd3291ad2" x="437.32869" y="58.598886" style="fill: #444444; stroke: #444444"/>
     <use xlink:href="#m6fd3291ad2" x="438.70458" y="56.670768" style="fill: #444444; stroke: #444444"/>
     <use xlink:href="#m6fd3291ad2" x="440.080471" y="53.457237" style="fill: #444444; stroke: #444444"/>
     <use xlink:href="#m6fd3291ad2" x="444.208142" y="54.742649" style="fill: #444444; stroke: #444444"/>
     <use xlink:href="#m6fd3291ad2" x="445.584033" y="52.814531" style="fill: #444444; stroke: #444444"/>
     <use xlink:href="#m6fd3291ad2" x="446.959923" y="55.385355" style="fill: #444444; stroke: #444444"/>
     <use xlink:href="#m6fd3291ad2" x="448.335813" y="54.099943" style="fill: #444444; stroke: #444444"/>
     <use xlink:href="#m6fd3291ad2" x="449.711704" y="56.028062" style="fill: #444444; stroke: #444444"/>
     <use xlink:href="#m6fd3291ad2" x="453.839375" y="54.742649" style="fill: #444444; stroke: #444444"/>
     <use xlink:href="#m6fd3291ad2" x="455.215265" y="56.028062" style="fill: #444444; stroke: #444444"/>
     <use xlink:href="#m6fd3291ad2" x="456.591156" y="55.385355" style="fill: #444444; stroke: #444444"/>
     <use xlink:href="#m6fd3291ad2" x="457.967046" y="56.028062" style="fill: #444444; stroke: #444444"/>
     <use xlink:href="#m6fd3291ad2" x="459.342937" y="55.385355" style="fill: #444444; stroke: #444444"/>
     <use xlink:href="#m6fd3291ad2" x="463.470608" y="54.099943" style="fill: #444444; stroke: #444444"/>
     <use xlink:href="#m6fd3291ad2" x="464.846498" y="55.385355" style="fill: #444444; stroke: #444444"/>
     <use xlink:href="#m6fd3291ad2" x="466.222389" y="54.099943" style="fill: #444444; stroke: #444444"/>
     <use xlink:href="#m6fd3291ad2" x="467.598279" y="57.313474" style="fill: #444444; stroke: #444444"/>
     <use xlink:href="#m6fd3291ad2" x="468.97417" y="56.670768" style="fill: #444444; stroke: #444444"/>
     <use xlink:href="#m6fd3291ad2" x="473.101841" y="56.028062" style="fill: #444444; stroke: #444444"/>
     <use xlink:href="#m6fd3291ad2" x="474.477731" y="57.95618" style="fill: #444444; stroke: #444444"/>
     <use xlink:href="#m6fd3291ad2" x="475.853622" y="55.385355" style="fill: #444444; stroke: #444444"/>
     <use xlink:href="#m6fd3291ad2" x="477.229512" y="57.313474" style="fill: #444444; stroke: #444444"/>
     <use xlink:href="#m6fd3291ad2" x="478.605402" y="58.598886" style="fill: #444444; stroke: #444444"/>
     <use xlink:href="#m6fd3291ad2" x="482.733074" y="58.598886" style="fill: #444444; stroke: #444444"/>
     <use xlink:href="#m6fd3291ad2" x="484.108964" y="56.670768" style="fill: #444444; stroke: #444444"/>
     <use xlink:href="#m6fd3291ad2" x="485.484854" y="54.099943" style="fill: #444444; stroke: #444444"/>
     <use xlink:href="#m6fd3291ad2" x="486.860745" y="54.099943" style="fill: #444444; stroke: #444444"/>
     <use xlink:href="#m6fd3291ad2" x="488.236635" y="54.099943" style="fill: #444444; stroke: #444444"/>
     <use xlink:href="#m6fd3291ad2" x="492.364307" y="54.742649" style="fill: #444444; stroke: #444444"/>
     <use xlink:href="#m6fd3291ad2" x="493.740197" y="54.099943" style="fill: #444444; stroke: #444444"/>
     <use xlink:href="#m6fd3291ad2" x="495.116087" y="54.742649" style="fill: #444444; stroke: #444444"/>
     <use xlink:href="#m6fd3291ad2" x="496.491978" y="54.742649" style="fill: #444444; stroke: #444444"/>
     <use xlink:href="#m6fd3291ad2" x="497.867868" y="55.385355" style="fill: #444444; stroke: #444444"/>
     <use xlink:href="#m6fd3291ad2" x="501.995539" y="56.028062" style="fill: #444444; stroke: #444444"/>
     <use xlink:href="#m6fd3291ad2" x="503.37143" y="56.670768" style="fill: #444444; stroke: #444444"/>
     <use xlink:href="#m6fd3291ad2" x="504.74732" y="56.028062" style="fill: #444444; stroke: #444444"/>
     <use xlink:href="#m6fd3291ad2" x="506.123211" y="58.598886" style="fill: #444444; stroke: #444444"/>
     <use xlink:href="#m6fd3291ad2" x="507.499101" y="61.169711" style="fill: #444444; stroke: #444444"/>
     <use xlink:href="#m6fd3291ad2" x="511.626772" y="60.527004" style="fill: #444444; stroke: #444444"/>
     <use xlink:href="#m6fd3291ad2" x="513.002663" y="60.527004" style="fill: #444444; stroke: #444444"/>
     <use xlink:href="#m6fd3291ad2" x="514.378553" y="62.455123" style="fill: #444444; stroke: #444444"/>
     <use xlink:href="#m6fd3291ad2" x="515.754443" y="61.169711" style="fill: #444444; stroke: #444444"/>
     <use xlink:href="#m6fd3291ad2" x="517.130334" y="59.884298" style="fill: #444444; stroke: #444444"/>
     <use xlink:href="#m6fd3291ad2" x="521.258005" y="57.95618" style="fill: #444444; stroke: #444444"/>
     <use xlink:href="#m6fd3291ad2" x="522.633896" y="57.313474" style="fill: #444444; stroke: #444444"/>
     <use xlink:href="#m6fd3291ad2" x="524.009786" y="57.313474" style="fill: #444444; stroke: #444444"/>
     <use xlink:href="#m6fd3291ad2" x="525.385676" y="57.313474" style="fill: #444444; stroke: #444444"/>
     <use xlink:href="#m6fd3291ad2" x="526.761567" y="56.028062" style="fill: #444444; stroke: #444444"/>
     <use xlink:href="#m6fd3291ad2" x="530.889238" y="57.313474" style="fill: #444444; stroke: #444444"/>
     <use xlink:href="#m6fd3291ad2" x="532.265128" y="57.95618" style="fill: #444444; stroke: #444444"/>
     <use xlink:href="#m6fd3291ad2" x="533.641019" y="54.099943" style="fill: #444444; stroke: #444444"/>
     <use xlink:href="#m6fd3291ad2" x="535.016909" y="54.742649" style="fill: #444444; stroke: #444444"/>
     <use xlink:href="#m6fd3291ad2" x="536.3928" y="54.099943" style="fill: #444444; stroke: #444444"/>
     <use xlink:href="#m6fd3291ad2" x="540.520471" y="55.385355" style="fill: #444444; stroke: #444444"/>
     <use xlink:href="#m6fd3291ad2" x="541.896361" y="55.385355" style="fill: #444444; stroke: #444444"/>
     <use xlink:href="#m6fd3291ad2" x="543.272252" y="56.028062" style="fill: #444444; stroke: #444444"/>
     <use xlink:href="#m6fd3291ad2" x="544.648142" y="56.670768" style="fill: #444444; stroke: #444444"/>
     <use xlink:href="#m6fd3291ad2" x="546.024033" y="54.099943" style="fill: #444444; stroke: #444444"/>
     <use xlink:href="#m6fd3291ad2" x="550.151704" y="53.457237" style="fill: #444444; stroke: #444444"/>
     <use xlink:href="#m6fd3291ad2" x="551.527594" y="55.385355" style="fill: #444444; stroke: #444444"/>
     <use xlink:href="#m6fd3291ad2" x="552.903485" y="54.742649" style="fill: #444444; stroke: #444444"/>
     <use xlink:href="#m6fd3291ad2" x="554.279375" y="56.028062" style="fill: #444444; stroke: #444444"/>
    </g>
   </g>
   <g id="line2d_32">
    <path d="M 52.079375 109.37267 
L 554.279375 109.37267 
" clip-path="url(#p8861101b44)" style="fill: none; stroke: #000000; stroke-linecap: square"/>
   </g>
   <g id="patch_3">
    <path d="M 52.079375 113.518125 
L 52.079375 22.318125 
" style="fill: none; stroke: #000000; stroke-width: 0.8; stroke-linejoin: miter; stroke-linecap: square"/>
   </g>
   <g id="patch_4">
    <path d="M 554.279375 113.518125 
L 554.279375 22.318125 
" style="fill: none; stroke: #000000; stroke-width: 0.8; stroke-linejoin: miter; stroke-linecap: square"/>
   </g>
   <g id="patch_5">
    <path d="M 52.079375 113.518125 
L 554.279375 113.518125 
" style="fill: none; stroke: #000000; stroke-width: 0.8; stroke-linejoin: miter; stroke-linecap: square"/>
   </g>
   <g id="patch_6">
    <path d="M 52.079375 22.318125 
L 554.279375 22.318125 
" style="fill: none; stroke: #000000; stroke-width: 0.8; stroke-linejoin: miter; stroke-linecap: square"/>
   </g>
   <g id="text_17">
    <!-- UST10 – GoC10 Spread (bp) -->
    <g transform="translate(219.479375 16.318125) scale(0.12 -0.12)">
     <defs>
      <path id="DejaVuSans-55" d="M 556 4666 
L 1191 4666 
L 1191 1831 
Q 1191 1081 1462 751 
Q 1734 422 2344 422 
Q 2950 422 3222 751 
Q 3494 1081 3494 1831 
L 3494 4666 
L 4128 4666 
L 4128 1753 
Q 4128 841 3676 375 
Q 3225 -91 2344 -91 
Q 1459 -91 1007 375 
Q 556 841 556 1753 
L 556 4666 
z
" transform="scale(0.015625)"/>
      <path id="DejaVuSans-53" d="M 3425 4513 
L 3425 3897 
Q 3066 4069 2747 4153 
Q 2428 4238 2131 4238 
Q 1616 4238 1336 4038 
Q 1056 3838 1056 3469 
Q 1056 3159 1242 3001 
Q 1428 2844 1947 2747 
L 2328 2669 
Q 3034 2534 3370 2195 
Q 3706 1856 3706 1288 
Q 3706 609 3251 259 
Q 2797 -91 1919 -91 
Q 1588 -91 1214 -16 
Q 841 59 441 206 
L 441 856 
Q 825 641 1194 531 
Q 1563 422 1919 422 
Q 2459 422 2753 634 
Q 3047 847 3047 1241 
Q 3047 1584 2836 1778 
Q 2625 1972 2144 2069 
L 1759 2144 
Q 1053 2284 737 2584 
Q 422 2884 422 3419 
Q 422 4038 858 4394 
Q 1294 4750 2059 4750 
Q 2388 4750 2728 4690 
Q 3069 4631 3425 4513 
z
" transform="scale(0.015625)"/>
      <path id="DejaVuSans-54" d="M -19 4666 
L 3928 4666 
L 3928 4134 
L 2272 4134 
L 2272 0 
L 1638 0 
L 1638 4134 
L -19 4134 
L -19 4666 
z
" transform="scale(0.015625)"/>
      <path id="DejaVuSans-20" transform="scale(0.015625)"/>
      <path id="DejaVuSans-2013" d="M 313 1978 
L 2888 1978 
L 2888 1528 
L 313 1528 
L 313 1978 
z
" transform="scale(0.015625)"/>
      <path id="DejaVuSans-47" d="M 3809 666 
L 3809 1919 
L 2778 1919 
L 2778 2438 
L 4434 2438 
L 4434 434 
Q 4069 175 3628 42 
Q 3188 -91 2688 -91 
Q 1594 -91 976 548 
Q 359 1188 359 2328 
Q 359 3472 976 4111 
Q 1594 4750 2688 4750 
Q 3144 4750 3555 4637 
Q 3966 4525 4313 4306 
L 4313 3634 
Q 3963 3931 3569 4081 
Q 3175 4231 2741 4231 
Q 1884 4231 1454 3753 
Q 1025 3275 1025 2328 
Q 1025 1384 1454 906 
Q 1884 428 2741 428 
Q 3075 428 3337 486 
Q 3600 544 3809 666 
z
" transform="scale(0.015625)"/>
      <path id="DejaVuSans-6f" d="M 1959 3097 
Q 1497 3097 1228 2736 
Q 959 2375 959 1747 
Q 959 1119 1226 758 
Q 1494 397 1959 397 
Q 2419 397 2687 759 
Q 2956 1122 2956 1747 
Q 2956 2369 2687 2733 
Q 2419 3097 1959 3097 
z
M 1959 3584 
Q 2709 3584 3137 3096 
Q 3566 2609 3566 1747 
Q 3566 888 3137 398 
Q 2709 -91 1959 -91 
Q 1206 -91 779 398 
Q 353 888 353 1747 
Q 353 2609 779 3096 
Q 1206 3584 1959 3584 
z
" transform="scale(0.015625)"/>
      <path id="DejaVuSans-43" d="M 4122 4306 
L 4122 3641 
Q 3803 3938 3442 4084 
Q 3081 4231 2675 4231 
Q 1875 4231 1450 3742 
Q 1025 3253 1025 2328 
Q 1025 1406 1450 917 
Q 1875 428 2675 428 
Q 3081 428 3442 575 
Q 3803 722 4122 1019 
L 4122 359 
Q 3791 134 3420 21 
Q 3050 -91 2638 -91 
Q 1578 -91 968 557 
Q 359 1206 359 2328 
Q 359 3453 968 4101 
Q 1578 4750 2638 4750 
Q 3056 4750 3426 4639 
Q 3797 4528 4122 4306 
z
" transform="scale(0.015625)"/>
      <path id="DejaVuSans-72" d="M 2631 2963 
Q 2534 3019 2420 3045 
Q 2306 3072 2169 3072 
Q 1681 3072 1420 2755 
Q 1159 2438 1159 1844 
L 1159 0 
L 581 0 
L 581 3500 
L 1159 3500 
L 1159 2956 
Q 1341 3275 1631 3429 
Q 1922 3584 2338 3584 
Q 2397 3584 2469 3576 
Q 2541 3569 2628 3553 
L 2631 2963 
z
" transform="scale(0.015625)"/>
      <path id="DejaVuSans-65" d="M 3597 1894 
L 3597 1613 
L 953 1613 
Q 991 1019 1311 708 
Q 1631 397 2203 397 
Q 2534 397 2845 478 
Q 3156 559 3463 722 
L 3463 178 
Q 3153 47 2828 -22 
Q 2503 -91 2169 -91 
Q 1331 -91 842 396 
Q 353 884 353 1716 
Q 353 2575 817 3079 
Q 1281 3584 2069 3584 
Q 2775 3584 3186 3129 
Q 3597 2675 3597 1894 
z
M 3022 2063 
Q 3016 2534 2758 2815 
Q 2500 3097 2075 3097 
Q 1594 3097 1305 2825 
Q 1016 2553 972 2059 
L 3022 2063 
z
" transform="scale(0.015625)"/>
      <path id="DejaVuSans-61" d="M 2194 1759 
Q 1497 1759 1228 1600 
Q 959 1441 959 1056 
Q 959 750 1161 570 
Q 1363 391 1709 391 
Q 2188 391 2477 730 
Q 2766 1069 2766 1631 
L 2766 1759 
L 2194 1759 
z
M 3341 1997 
L 3341 0 
L 2766 0 
L 2766 531 
Q 2569 213 2275 61 
Q 1981 -91 1556 -91 
Q 1019 -91 701 211 
Q 384 513 384 1019 
Q 384 1609 779 1909 
Q 1175 2209 1959 2209 
L 2766 2209 
L 2766 2266 
Q 2766 2663 2505 2880 
Q 2244 3097 1772 3097 
Q 1472 3097 1187 3025 
Q 903 2953 641 2809 
L 641 3341 
Q 956 3463 1253 3523 
Q 1550 3584 1831 3584 
Q 2591 3584 2966 3190 
Q 3341 2797 3341 1997 
z
" transform="scale(0.015625)"/>
      <path id="DejaVuSans-64" d="M 2906 2969 
L 2906 4863 
L 3481 4863 
L 3481 0 
L 2906 0 
L 2906 525 
Q 2725 213 2448 61 
Q 2172 -91 1784 -91 
Q 1150 -91 751 415 
Q 353 922 353 1747 
Q 353 2572 751 3078 
Q 1150 3584 1784 3584 
Q 2172 3584 2448 3432 
Q 2725 3281 2906 2969 
z
M 947 1747 
Q 947 1113 1208 752 
Q 1469 391 1925 391 
Q 2381 391 2643 752 
Q 2906 1113 2906 1747 
Q 2906 2381 2643 2742 
Q 2381 3103 1925 3103 
Q 1469 3103 1208 2742 
Q 947 2381 947 1747 
z
" transform="scale(0.015625)"/>
      <path id="DejaVuSans-28" d="M 1984 4856 
Q 1566 4138 1362 3434 
Q 1159 2731 1159 2009 
Q 1159 1288 1364 580 
Q 1569 -128 1984 -844 
L 1484 -844 
Q 1016 -109 783 600 
Q 550 1309 550 2009 
Q 550 2706 781 3412 
Q 1013 4119 1484 4856 
L 1984 4856 
z
" transform="scale(0.015625)"/>
      <path id="DejaVuSans-29" d="M 513 4856 
L 1013 4856 
Q 1481 4119 1714 3412 
Q 1947 2706 1947 2009 
Q 1947 1309 1714 600 
Q 1481 -109 1013 -844 
L 513 -844 
Q 928 -128 1133 580 
Q 1338 1288 1338 2009 
Q 1338 2731 1133 3434 
Q 928 4138 513 4856 
z
" transform="scale(0.015625)"/>
     </defs>
     <use xlink:href="#DejaVuSans-55"/>
     <use xlink:href="#DejaVuSans-53" transform="translate(73.193359 0)"/>
     <use xlink:href="#DejaVuSans-54" transform="translate(136.669922 0)"/>
     <use xlink:href="#DejaVuSans-31" transform="translate(197.753906 0)"/>
     <use xlink:href="#DejaVuSans-30" transform="translate(261.376953 0)"/>
     <use xlink:href="#DejaVuSans-20" transform="translate(325 0)"/>
     <use xlink:href="#DejaVuSans-2013" transform="translate(356.787109 0)"/>
     <use xlink:href="#DejaVuSans-20" transform="translate(406.787109 0)"/>
     <use xlink:href="#DejaVuSans-47" transform="translate(438.574219 0)"/>
     <use xlink:href="#DejaVuSans-6f" transform="translate(516.064453 0)"/>
     <use xlink:href="#DejaVuSans-43" transform="translate(577.246094 0)"/>
     <use xlink:href="#DejaVuSans-31" transform="translate(647.070312 0)"/>
     <use xlink:href="#DejaVuSans-30" transform="translate(710.693359 0)"/>
     <use xlink:href="#DejaVuSans-20" transform="translate(774.316406 0)"/>
     <use xlink:href="#DejaVuSans-53" transform="translate(806.103516 0)"/>
     <use xlink:href="#DejaVuSans-70" transform="translate(869.580078 0)"/>
     <use xlink:href="#DejaVuSans-72" transform="translate(933.056641 0)"/>
     <use xlink:href="#DejaVuSans-65" transform="translate(971.919922 0)"/>
     <use xlink:href="#DejaVuSans-61" transform="translate(1033.443359 0)"/>
     <use xlink:href="#DejaVuSans-64" transform="translate(1094.722656 0)"/>
     <use xlink:href="#DejaVuSans-20" transform="translate(1158.199219 0)"/>
     <use xlink:href="#DejaVuSans-28" transform="translate(1189.986328 0)"/>
     <use xlink:href="#DejaVuSans-62" transform="translate(1229 0)"/>
     <use xlink:href="#DejaVuSans-70" transform="translate(1292.476562 0)"/>
     <use xlink:href="#DejaVuSans-29" transform="translate(1355.953125 0)"/>
    </g>
   </g>
  </g>
  <g id="axes_2">
   <g id="patch_7">
    <path d="M 52.079375 188.638125 
L 554.279375 188.638125 
L 554.279375 156.718125 
L 52.079375 156.718125 
z
" style="fill: #ffffff"/>
   </g>
   <g id="matplotlib.axis_3">
    <g id="xtick_13">
     <g id="line2d_33">
      <path d="M 82.348964 188.638125 
L 82.348964 156.718125 
" clip-path="url(#p9e00afee25)" style="fill: none; stroke: #b0b0b0; stroke-opacity: 0.15; stroke-width: 0.8; stroke-linecap: square"/>
     </g>
     <g id="line2d_34">
      <g>
       <use xlink:href="#mce40ae2ab9" x="82.348964" y="188.638125" style="stroke: #000000; stroke-width: 0.8"/>
      </g>
     </g>
     <g id="text_18">
      <!-- 2025-05 -->
      <g transform="translate(51.333493 230.555942) rotate(-45) scale(0.1 -0.1)">
       <use xlink:href="#DejaVuSans-32"/>
       <use xlink:href="#DejaVuSans-30" transform="translate(63.623047 0)"/>
       <use xlink:href="#DejaVuSans-32" transform="translate(127.246094 0)"/>
       <use xlink:href="#DejaVuSans-35" transform="translate(190.869141 0)"/>
       <use xlink:href="#DejaVuSans-2d" transform="translate(254.492188 0)"/>
       <use xlink:href="#DejaVuSans-30" transform="translate(290.576172 0)"/>
       <use xlink:href="#DejaVuSans-35" transform="translate(354.199219 0)"/>
      </g>
     </g>
    </g>
    <g id="xtick_14">
     <g id="line2d_35">
      <path d="M 125.001567 188.638125 
L 125.001567 156.718125 
" clip-path="url(#p9e00afee25)" style="fill: none; stroke: #b0b0b0; stroke-opacity: 0.15; stroke-width: 0.8; stroke-linecap: square"/>
     </g>
     <g id="line2d_36">
      <g>
       <use xlink:href="#mce40ae2ab9" x="125.001567" y="188.638125" style="stroke: #000000; stroke-width: 0.8"/>
      </g>
     </g>
     <g id="text_19">
      <!-- 2025-06 -->
      <g transform="translate(93.986096 230.555942) rotate(-45) scale(0.1 -0.1)">
       <use xlink:href="#DejaVuSans-32"/>
       <use xlink:href="#DejaVuSans-30" transform="translate(63.623047 0)"/>
       <use xlink:href="#DejaVuSans-32" transform="translate(127.246094 0)"/>
       <use xlink:href="#DejaVuSans-35" transform="translate(190.869141 0)"/>
       <use xlink:href="#DejaVuSans-2d" transform="translate(254.492188 0)"/>
       <use xlink:href="#DejaVuSans-30" transform="translate(290.576172 0)"/>
       <use xlink:href="#DejaVuSans-36" transform="translate(354.199219 0)"/>
      </g>
     </g>
    </g>
    <g id="xtick_15">
     <g id="line2d_37">
      <path d="M 166.278279 188.638125 
L 166.278279 156.718125 
" clip-path="url(#p9e00afee25)" style="fill: none; stroke: #b0b0b0; stroke-opacity: 0.15; stroke-width: 0.8; stroke-linecap: square"/>
     </g>
     <g id="line2d_38">
      <g>
       <use xlink:href="#mce40ae2ab9" x="166.278279" y="188.638125" style="stroke: #000000; stroke-width: 0.8"/>
      </g>
     </g>
     <g id="text_20">
      <!-- 2025-07 -->
      <g transform="translate(135.262808 230.555942) rotate(-45) scale(0.1 -0.1)">
       <use xlink:href="#DejaVuSans-32"/>
       <use xlink:href="#DejaVuSans-30" transform="translate(63.623047 0)"/>
       <use xlink:href="#DejaVuSans-32" transform="translate(127.246094 0)"/>
       <use xlink:href="#DejaVuSans-35" transform="translate(190.869141 0)"/>
       <use xlink:href="#DejaVuSans-2d" transform="translate(254.492188 0)"/>
       <use xlink:href="#DejaVuSans-30" transform="translate(290.576172 0)"/>
       <use xlink:href="#DejaVuSans-37" transform="translate(354.199219 0)"/>
      </g>
     </g>
    </g>
    <g id="xtick_16">
     <g id="line2d_39">
      <path d="M 208.930882 188.638125 
L 208.930882 156.718125 
" clip-path="url(#p9e00afee25)" style="fill: none; stroke: #b0b0b0; stroke-opacity: 0.15; stroke-width: 0.8; stroke-linecap: square"/>
     </g>
     <g id="line2d_40">
      <g>
       <use xlink:href="#mce40ae2ab9" x="208.930882" y="188.638125" style="stroke: #000000; stroke-width: 0.8"/>
      </g>
     </g>
     <g id="text_21">
      <!-- 2025-08 -->
      <g transform="translate(177.915411 230.555942) rotate(-45) scale(0.1 -0.1)">
       <use xlink:href="#DejaVuSans-32"/>
       <use xlink:href="#DejaVuSans-30" transform="translate(63.623047 0)"/>
       <use xlink:href="#DejaVuSans-32" transform="translate(127.246094 0)"/>
       <use xlink:href="#DejaVuSans-35" transform="translate(190.869141 0)"/>
       <use xlink:href="#DejaVuSans-2d" transform="translate(254.492188 0)"/>
       <use xlink:href="#DejaVuSans-30" transform="translate(290.576172 0)"/>
       <use xlink:href="#DejaVuSans-38" transform="translate(354.199219 0)"/>
      </g>
     </g>
    </g>
    <g id="xtick_17">
     <g id="line2d_41">
      <path d="M 251.583485 188.638125 
L 251.583485 156.718125 
" clip-path="url(#p9e00afee25)" style="fill: none; stroke: #b0b0b0; stroke-opacity: 0.15; stroke-width: 0.8; stroke-linecap: square"/>
     </g>
     <g id="line2d_42">
      <g>
       <use xlink:href="#mce40ae2ab9" x="251.583485" y="188.638125" style="stroke: #000000; stroke-width: 0.8"/>
      </g>
     </g>
     <g id="text_22">
      <!-- 2025-09 -->
      <g transform="translate(220.568013 230.555942) rotate(-45) scale(0.1 -0.1)">
       <use xlink:href="#DejaVuSans-32"/>
       <use xlink:href="#DejaVuSans-30" transform="translate(63.623047 0)"/>
       <use xlink:href="#DejaVuSans-32" transform="translate(127.246094 0)"/>
       <use xlink:href="#DejaVuSans-35" transform="translate(190.869141 0)"/>
       <use xlink:href="#DejaVuSans-2d" transform="translate(254.492188 0)"/>
       <use xlink:href="#DejaVuSans-30" transform="translate(290.576172 0)"/>
       <use xlink:href="#DejaVuSans-39" transform="translate(354.199219 0)"/>
      </g>
     </g>
    </g>
    <g id="xtick_18">
     <g id="line2d_43">
      <path d="M 292.860197 188.638125 
L 292.860197 156.718125 
" clip-path="url(#p9e00afee25)" style="fill: none; stroke: #b0b0b0; stroke-opacity: 0.15; stroke-width: 0.8; stroke-linecap: square"/>
     </g>
     <g id="line2d_44">
      <g>
       <use xlink:href="#mce40ae2ab9" x="292.860197" y="188.638125" style="stroke: #000000; stroke-width: 0.8"/>
      </g>
     </g>
     <g id="text_23">
      <!-- 2025-10 -->
      <g transform="translate(261.844726 230.555942) rotate(-45) scale(0.1 -0.1)">
       <use xlink:href="#DejaVuSans-32"/>
       <use xlink:href="#DejaVuSans-30" transform="translate(63.623047 0)"/>
       <use xlink:href="#DejaVuSans-32" transform="translate(127.246094 0)"/>
       <use xlink:href="#DejaVuSans-35" transform="translate(190.869141 0)"/>
       <use xlink:href="#DejaVuSans-2d" transform="translate(254.492188 0)"/>
       <use xlink:href="#DejaVuSans-31" transform="translate(290.576172 0)"/>
       <use xlink:href="#DejaVuSans-30" transform="translate(354.199219 0)"/>
      </g>
     </g>
    </g>
    <g id="xtick_19">
     <g id="line2d_45">
      <path d="M 335.5128 188.638125 
L 335.5128 156.718125 
" clip-path="url(#p9e00afee25)" style="fill: none; stroke: #b0b0b0; stroke-opacity: 0.15; stroke-width: 0.8; stroke-linecap: square"/>
     </g>
     <g id="line2d_46">
      <g>
       <use xlink:href="#mce40ae2ab9" x="335.5128" y="188.638125" style="stroke: #000000; stroke-width: 0.8"/>
      </g>
     </g>
     <g id="text_24">
      <!-- 2025-11 -->
      <g transform="translate(304.497328 230.555942) rotate(-45) scale(0.1 -0.1)">
       <use xlink:href="#DejaVuSans-32"/>
       <use xlink:href="#DejaVuSans-30" transform="translate(63.623047 0)"/>
       <use xlink:href="#DejaVuSans-32" transform="translate(127.246094 0)"/>
       <use xlink:href="#DejaVuSans-35" transform="translate(190.869141 0)"/>
       <use xlink:href="#DejaVuSans-2d" transform="translate(254.492188 0)"/>
       <use xlink:href="#DejaVuSans-31" transform="translate(290.576172 0)"/>
       <use xlink:href="#DejaVuSans-31" transform="translate(354.199219 0)"/>
      </g>
     </g>
    </g>
    <g id="xtick_20">
     <g id="line2d_47">
      <path d="M 376.789512 188.638125 
L 376.789512 156.718125 
" clip-path="url(#p9e00afee25)" style="fill: none; stroke: #b0b0b0; stroke-opacity: 0.15; stroke-width: 0.8; stroke-linecap: square"/>
     </g>
     <g id="line2d_48">
      <g>
       <use xlink:href="#mce40ae2ab9" x="376.789512" y="188.638125" style="stroke: #000000; stroke-width: 0.8"/>
      </g>
     </g>
     <g id="text_25">
      <!-- 2025-12 -->
      <g transform="translate(345.774041 230.555942) rotate(-45) scale(0.1 -0.1)">
       <use xlink:href="#DejaVuSans-32"/>
       <use xlink:href="#DejaVuSans-30" transform="translate(63.623047 0)"/>
       <use xlink:href="#DejaVuSans-32" transform="translate(127.246094 0)"/>
       <use xlink:href="#DejaVuSans-35" transform="translate(190.869141 0)"/>
       <use xlink:href="#DejaVuSans-2d" transform="translate(254.492188 0)"/>
       <use xlink:href="#DejaVuSans-31" transform="translate(290.576172 0)"/>
       <use xlink:href="#DejaVuSans-32" transform="translate(354.199219 0)"/>
      </g>
     </g>
    </g>
    <g id="xtick_21">
     <g id="line2d_49">
      <path d="M 419.442115 188.638125 
L 419.442115 156.718125 
" clip-path="url(#p9e00afee25)" style="fill: none; stroke: #b0b0b0; stroke-opacity: 0.15; stroke-width: 0.8; stroke-linecap: square"/>
     </g>
     <g id="line2d_50">
      <g>
       <use xlink:href="#mce40ae2ab9" x="419.442115" y="188.638125" style="stroke: #000000; stroke-width: 0.8"/>
      </g>
     </g>
     <g id="text_26">
      <!-- 2026-01 -->
      <g transform="translate(388.426644 230.555942) rotate(-45) scale(0.1 -0.1)">
       <use xlink:href="#DejaVuSans-32"/>
       <use xlink:href="#DejaVuSans-30" transform="translate(63.623047 0)"/>
       <use xlink:href="#DejaVuSans-32" transform="translate(127.246094 0)"/>
       <use xlink:href="#DejaVuSans-36" transform="translate(190.869141 0)"/>
       <use xlink:href="#DejaVuSans-2d" transform="translate(254.492188 0)"/>
       <use xlink:href="#DejaVuSans-30" transform="translate(290.576172 0)"/>
       <use xlink:href="#DejaVuSans-31" transform="translate(354.199219 0)"/>
      </g>
     </g>
    </g>
    <g id="xtick_22">
     <g id="line2d_51">
      <path d="M 462.094717 188.638125 
L 462.094717 156.718125 
" clip-path="url(#p9e00afee25)" style="fill: none; stroke: #b0b0b0; stroke-opacity: 0.15; stroke-width: 0.8; stroke-linecap: square"/>
     </g>
     <g id="line2d_52">
      <g>
       <use xlink:href="#mce40ae2ab9" x="462.094717" y="188.638125" style="stroke: #000000; stroke-width: 0.8"/>
      </g>
     </g>
     <g id="text_27">
      <!-- 2026-02 -->
      <g transform="translate(431.079246 230.555942) rotate(-45) scale(0.1 -0.1)">
       <use xlink:href="#DejaVuSans-32"/>
       <use xlink:href="#DejaVuSans-30" transform="translate(63.623047 0)"/>
       <use xlink:href="#DejaVuSans-32" transform="translate(127.246094 0)"/>
       <use xlink:href="#DejaVuSans-36" transform="translate(190.869141 0)"/>
       <use xlink:href="#DejaVuSans-2d" transform="translate(254.492188 0)"/>
       <use xlink:href="#DejaVuSans-30" transform="translate(290.576172 0)"/>
       <use xlink:href="#DejaVuSans-32" transform="translate(354.199219 0)"/>
      </g>
     </g>
    </g>
    <g id="xtick_23">
     <g id="line2d_53">
      <path d="M 500.619649 188.638125 
L 500.619649 156.718125 
" clip-path="url(#p9e00afee25)" style="fill: none; stroke: #b0b0b0; stroke-opacity: 0.15; stroke-width: 0.8; stroke-linecap: square"/>
     </g>
     <g id="line2d_54">
      <g>
       <use xlink:href="#mce40ae2ab9" x="500.619649" y="188.638125" style="stroke: #000000; stroke-width: 0.8"/>
      </g>
     </g>
     <g id="text_28">
      <!-- 2026-03 -->
      <g transform="translate(469.604178 230.555942) rotate(-45) scale(0.1 -0.1)">
       <use xlink:href="#DejaVuSans-32"/>
       <use xlink:href="#DejaVuSans-30" transform="translate(63.623047 0)"/>
       <use xlink:href="#DejaVuSans-32" transform="translate(127.246094 0)"/>
       <use xlink:href="#DejaVuSans-36" transform="translate(190.869141 0)"/>
       <use xlink:href="#DejaVuSans-2d" transform="translate(254.492188 0)"/>
       <use xlink:href="#DejaVuSans-30" transform="translate(290.576172 0)"/>
       <use xlink:href="#DejaVuSans-33" transform="translate(354.199219 0)"/>
      </g>
     </g>
    </g>
    <g id="xtick_24">
     <g id="line2d_55">
      <path d="M 543.272252 188.638125 
L 543.272252 156.718125 
" clip-path="url(#p9e00afee25)" style="fill: none; stroke: #b0b0b0; stroke-opacity: 0.15; stroke-width: 0.8; stroke-linecap: square"/>
     </g>
     <g id="line2d_56">
      <g>
       <use xlink:href="#mce40ae2ab9" x="543.272252" y="188.638125" style="stroke: #000000; stroke-width: 0.8"/>
      </g>
     </g>
     <g id="text_29">
      <!-- 2026-04 -->
      <g transform="translate(512.256781 230.555942) rotate(-45) scale(0.1 -0.1)">
       <use xlink:href="#DejaVuSans-32"/>
       <use xlink:href="#DejaVuSans-30" transform="translate(63.623047 0)"/>
       <use xlink:href="#DejaVuSans-32" transform="translate(127.246094 0)"/>
       <use xlink:href="#DejaVuSans-36" transform="translate(190.869141 0)"/>
       <use xlink:href="#DejaVuSans-2d" transform="translate(254.492188 0)"/>
       <use xlink:href="#DejaVuSans-30" transform="translate(290.576172 0)"/>
       <use xlink:href="#DejaVuSans-34" transform="translate(354.199219 0)"/>
      </g>
     </g>
    </g>
   </g>
   <g id="matplotlib.axis_4">
    <g id="ytick_4">
     <g id="line2d_57">
      <path d="M 52.079375 187.967974 
L 554.279375 187.967974 
" clip-path="url(#p9e00afee25)" style="fill: none; stroke: #b0b0b0; stroke-opacity: 0.15; stroke-width: 0.8; stroke-linecap: square"/>
     </g>
     <g id="line2d_58">
      <g>
       <use xlink:href="#m1aac7a7cb2" x="52.079375" y="187.967974" style="stroke: #000000; stroke-width: 0.8"/>
      </g>
     </g>
     <g id="text_30">
      <!-- 1.35 -->
      <g transform="translate(22.81375 191.767193) scale(0.1 -0.1)">
       <defs>
        <path id="DejaVuSans-2e" d="M 684 794 
L 1344 794 
L 1344 0 
L 684 0 
L 684 794 
z
" transform="scale(0.015625)"/>
       </defs>
       <use xlink:href="#DejaVuSans-31"/>
       <use xlink:href="#DejaVuSans-2e" transform="translate(63.623047 0)"/>
       <use xlink:href="#DejaVuSans-33" transform="translate(95.410156 0)"/>
       <use xlink:href="#DejaVuSans-35" transform="translate(159.033203 0)"/>
      </g>
     </g>
    </g>
    <g id="ytick_5">
     <g id="line2d_59">
      <path d="M 52.079375 166.280245 
L 554.279375 166.280245 
" clip-path="url(#p9e00afee25)" style="fill: none; stroke: #b0b0b0; stroke-opacity: 0.15; stroke-width: 0.8; stroke-linecap: square"/>
     </g>
     <g id="line2d_60">
      <g>
       <use xlink:href="#m1aac7a7cb2" x="52.079375" y="166.280245" style="stroke: #000000; stroke-width: 0.8"/>
      </g>
     </g>
     <g id="text_31">
      <!-- 1.40 -->
      <g transform="translate(22.81375 170.079464) scale(0.1 -0.1)">
       <use xlink:href="#DejaVuSans-31"/>
       <use xlink:href="#DejaVuSans-2e" transform="translate(63.623047 0)"/>
       <use xlink:href="#DejaVuSans-34" transform="translate(95.410156 0)"/>
       <use xlink:href="#DejaVuSans-30" transform="translate(159.033203 0)"/>
      </g>
     </g>
    </g>
    <g id="text_32">
     <!-- USD/CAD -->
     <g transform="translate(16.318125 200.43375) rotate(-90) scale(0.12 -0.12)">
      <defs>
       <path id="DejaVuSans-44" d="M 1259 4147 
L 1259 519 
L 2022 519 
Q 2988 519 3436 956 
Q 3884 1394 3884 2338 
Q 3884 3275 3436 3711 
Q 2988 4147 2022 4147 
L 1259 4147 
z
M 628 4666 
L 1925 4666 
Q 3281 4666 3915 4102 
Q 4550 3538 4550 2338 
Q 4550 1131 3912 565 
Q 3275 0 1925 0 
L 628 0 
L 628 4666 
z
" transform="scale(0.015625)"/>
       <path id="DejaVuSans-2f" d="M 1625 4666 
L 2156 4666 
L 531 -594 
L 0 -594 
L 1625 4666 
z
" transform="scale(0.015625)"/>
       <path id="DejaVuSans-41" d="M 2188 4044 
L 1331 1722 
L 3047 1722 
L 2188 4044 
z
M 1831 4666 
L 2547 4666 
L 4325 0 
L 3669 0 
L 3244 1197 
L 1141 1197 
L 716 0 
L 50 0 
L 1831 4666 
z
" transform="scale(0.015625)"/>
      </defs>
      <use xlink:href="#DejaVuSans-55"/>
      <use xlink:href="#DejaVuSans-53" transform="translate(73.193359 0)"/>
      <use xlink:href="#DejaVuSans-44" transform="translate(136.669922 0)"/>
      <use xlink:href="#DejaVuSans-2f" transform="translate(213.671875 0)"/>
      <use xlink:href="#DejaVuSans-43" transform="translate(247.363281 0)"/>
      <use xlink:href="#DejaVuSans-41" transform="translate(317.1875 0)"/>
      <use xlink:href="#DejaVuSans-44" transform="translate(385.595703 0)"/>
     </g>
    </g>
   </g>
   <g id="line2d_61">
    <path d="M 52.079375 158.169034 
L 53.455265 165.84649 
L 54.831156 170.834668 
L 58.958827 170.964794 
L 60.334717 168.709271 
L 61.710608 171.398549 
L 63.086498 172.526311 
L 68.59006 174.174578 
L 69.96595 175.042087 
L 71.341841 170.878043 
L 72.717731 171.094921 
L 74.093622 172.43956 
L 78.221293 172.482935 
L 79.597183 172.656437 
L 80.973074 174.651708 
L 82.348964 172.91669 
L 83.724854 175.389091 
L 87.852526 174.521582 
L 89.228416 176.083099 
L 90.604307 176.126474 
L 91.980197 170.010534 
L 93.356087 169.533404 
L 97.483759 166.150118 
L 98.859649 168.102014 
L 100.235539 167.885137 
L 101.61143 166.757375 
L 102.98732 166.670624 
L 107.114991 168.709271 
L 108.490882 168.839397 
L 109.866772 174.001076 
L 111.242663 172.526311 
L 112.618553 176.907232 
M 118.122115 175.996348 
L 119.498005 174.131203 
L 120.873896 174.564957 
L 122.249786 177.254236 
L 126.377457 179.336258 
L 127.753348 178.338622 
L 129.129238 180.680897 
L 130.505128 180.724273 
L 131.881019 179.900139 
L 136.00869 180.377269 
L 137.38458 180.030265 
L 138.760471 180.94115 
L 140.136361 182.979796 
L 141.512252 184.714815 
L 145.639923 185.538948 
L 147.015813 184.194309 
L 148.391704 180.030265 
M 151.143485 177.60124 
L 155.271156 176.126474 
L 156.647046 178.815752 
L 158.022937 177.12411 
L 159.398827 182.37254 
L 160.774717 180.767648 
L 164.902389 182.762919 
L 166.278279 181.071276 
L 167.65417 182.762919 
L 169.03006 185.408822 
M 174.533622 181.721908 
L 175.909512 180.550771 
L 177.285402 179.553135 
L 178.661293 180.073641 
L 180.037183 180.247143 
L 184.164854 179.553135 
L 185.540745 178.729001 
L 186.916635 179.03263 
L 188.292526 177.167485 
L 189.668416 178.815752 
L 193.796087 179.770012 
L 195.171978 182.979796 
L 196.547868 183.240049 
L 197.923759 181.765284 
L 199.299649 178.685626 
L 203.42732 178.512124 
L 204.803211 175.952972 
L 206.179101 174.34808 
L 207.554991 173.003441 
L 208.930882 175.909597 
L 213.058553 176.039723 
L 214.434443 175.866221 
L 215.810334 177.60124 
L 217.186224 177.167485 
L 218.562115 177.037359 
L 222.689786 175.692719 
L 224.065676 176.603604 
L 225.441567 176.516853 
L 226.817457 174.695084 
L 232.321019 174.304705 
L 233.696909 172.396185 
L 235.0728 171.745553 
L 236.44869 170.617791 
L 237.82458 173.003441 
L 243.328142 173.957701 
L 244.704033 173.87095 
L 246.079923 177.12411 
L 247.455813 178.165121 
M 252.959375 175.649344 
L 254.335265 175.519218 
L 255.711156 173.740824 
L 257.087046 173.957701 
L 261.214717 174.087827 
L 262.590608 173.480571 
L 263.966498 173.090192 
L 265.342389 173.654073 
L 266.718279 172.43956 
L 270.84595 175.085463 
L 272.221841 177.340987 
L 273.597731 176.646979 
L 274.973622 175.128838 
L 276.349512 176.169849 
L 280.477183 174.34808 
L 281.853074 173.480571 
L 283.228964 170.878043 
L 284.604854 169.620155 
L 285.980745 168.62252 
L 290.108416 170.444289 
L 294.236087 167.408007 
L 295.611978 168.62252 
L 299.739649 168.665895 
L 302.49143 168.318891 
L 303.86732 165.889866 
L 305.243211 166.410371 
M 310.746772 164.501851 
L 312.122663 164.848855 
L 313.498553 164.328349 
L 314.874443 164.284974 
L 319.002115 165.022357 
L 320.378005 165.84649 
L 321.753896 167.234505 
L 323.129786 166.670624 
L 324.505676 165.716364 
L 328.633348 166.497122 
L 330.009238 169.012899 
L 331.385128 170.921419 
L 332.761019 167.061003 
L 334.136909 165.84649 
L 338.26458 164.154847 
L 339.640471 162.766833 
L 341.016361 161.595695 
L 342.392252 160.771562 
L 343.768142 163.027085 
L 347.895813 165.022357 
M 350.647594 166.280245 
L 352.023485 165.84649 
L 353.399375 165.282609 
L 357.527046 165.065732 
L 358.902937 166.453747 
L 360.278827 164.154847 
L 361.654717 162.289703 
L 363.030608 162.202952 
L 368.53417 161.292067 
L 369.91006 164.068096 
M 372.661841 167.408007 
L 376.789512 167.061003 
L 378.165402 166.80075 
L 379.541293 168.449018 
L 380.917183 168.926148 
L 382.293074 172.43956 
L 386.420745 172.960065 
L 387.796635 173.567322 
L 389.172526 173.480571 
L 390.548416 176.299976 
L 391.924307 175.692719 
L 396.051978 176.473478 
L 397.427868 177.167485 
L 398.803759 175.345716 
L 400.179649 176.603604 
L 401.555539 175.822846 
L 405.683211 177.384362 
L 407.059101 178.729001 
L 408.434991 180.550771 
M 411.186772 180.94115 
L 415.314443 180.160392 
L 416.690334 180.247143 
L 418.066224 178.772377 
M 420.818005 177.644615 
L 424.945676 176.820481 
L 426.321567 175.432467 
L 429.073348 172.179307 
L 430.449238 170.921419 
L 434.576909 171.658802 
L 435.9528 171.268423 
L 437.32869 171.875679 
L 440.080471 169.750282 
M 445.584033 174.044452 
L 446.959923 174.391456 
L 448.335813 174.998712 
L 449.711704 178.165121 
L 453.839375 179.639886 
L 455.215265 183.717179 
L 456.591156 184.714815 
L 457.967046 187.187216 
L 463.470608 180.290518 
L 464.846498 181.721908 
L 466.222389 180.724273 
L 467.598279 180.594146 
L 468.97417 181.721908 
L 473.101841 184.931692 
L 474.477731 186.536584 
L 475.853622 184.975068 
L 477.229512 182.632793 
L 478.605402 182.84967 
M 484.108964 181.374904 
L 486.860745 179.249507 
L 488.236635 179.813388 
L 492.364307 179.943514 
L 493.740197 179.206132 
L 495.116087 179.943514 
L 496.491978 180.030265 
L 497.867868 182.242414 
L 501.995539 179.076005 
L 503.37143 180.94115 
L 504.74732 180.984525 
L 506.123211 179.596511 
L 507.499101 183.673804 
L 513.002663 185.278696 
L 514.378553 183.500302 
L 515.754443 182.84967 
L 517.130334 177.731366 
L 521.258005 180.030265 
L 522.633896 179.03263 
L 524.009786 179.423009 
L 525.385676 178.381998 
L 526.761567 177.948243 
L 530.889238 178.512124 
L 532.265128 176.516853 
L 533.641019 174.998712 
L 535.016909 172.829939 
L 536.3928 171.4853 
L 540.520471 169.706906 
L 541.896361 168.318891 
L 543.272252 171.702177 
L 544.648142 169.880408 
L 546.024033 168.796021 
L 546.024033 168.796021 
" clip-path="url(#p9e00afee25)" style="fill: none; stroke: #2ca02c; stroke-width: 1.2; stroke-linecap: square"/>
   </g>
   <g id="patch_8">
    <path d="M 52.079375 188.638125 
L 52.079375 156.718125 
" style="fill: none; stroke: #000000; stroke-width: 0.8; stroke-linejoin: miter; stroke-linecap: square"/>
   </g>
   <g id="patch_9">
    <path d="M 554.279375 188.638125 
L 554.279375 156.718125 
" style="fill: none; stroke: #000000; stroke-width: 0.8; stroke-linejoin: miter; stroke-linecap: square"/>
   </g>
   <g id="patch_10">
    <path d="M 52.079375 188.638125 
L 554.279375 188.638125 
" style="fill: none; stroke: #000000; stroke-width: 0.8; stroke-linejoin: miter; stroke-linecap: square"/>
   </g>
   <g id="patch_11">
    <path d="M 52.079375 156.718125 
L 554.279375 156.718125 
" style="fill: none; stroke: #000000; stroke-width: 0.8; stroke-linejoin: miter; stroke-linecap: square"/>
   </g>
  </g>
 </g>
 <defs>
  <clipPath id="p8861101b44">
   <rect x="52.079375" y="22.318125" width="502.2" height="91.2"/>
  </clipPath>
  <clipPath id="p9e00afee25">
   <rect x="52.079375" y="156.718125" width="502.2" height="31.92"/>
  </clipPath>
 </defs>
</svg>
