<?xml version="1.0" encoding="utf-8" standalone="no"?>
<!DOCTYPE svg PUBLIC "-//W3C//DTD SVG 1.1//EN"
  "http://www.w3.org/Graphics/SVG/1.1/DTD/svg11.dtd">
<svg xmlns:xlink="http://www.w3.org/1999/xlink" width="561.865625pt" height="239.454103pt" viewBox="0 0 561.865625 239.454103" xmlns="http://www.w3.org/2000/svg" version="1.1">
 <metadata>
  <rdf:RDF xmlns:dc="http://purl.org/dc/elements/1.1/" xmlns:cc="http://creativecommons.org/ns#" xmlns:rdf="http://www.w3.org/1999/02/22-rdf-syntax-ns#">
   <cc:Work>
    <dc:type rdf:resource="http://purl.org/dc/dcmitype/StillImage"/>
    <dc:date>2026-10-06T18:55:17.297312</dc:date>
    <dc:format>image/svg+xml</dc:format>
    <dc:creator>
     <cc:Agent>
      <dc:title>Matplotlib v3.11.2, https://matplotlib.org/</dc:title>
     </cc:Agent>
    </dc:creator>
   </cc:Work>
  </rdf:RDF>
 </metadata>
 <defs>
  <style type="text/css">*{stroke-linejoin: round; stroke-linecap: butt}</style>
 </defs>
 <g id="figure_1">
  <g id="patch_1">
   <path d="M 0 239.454103 
L 561.865625 239.454103 
L 561.865625 0 
L 0 0 
z
" style="fill: #ffffff"/>
  </g>
  <g id="axes_1">
   <g id="patch_2">
    <path d="M 52.465625 113.518125 
L 554.665625 113.518125 
L 554.665625 22.318125 
L 52.465625 22.318125 
z
" style="fill: #ffffff"/>
   </g>
   <g id="matplotlib.axis_1">
    <g id="xtick_1">
     <g id="line2d_1">
      <path d="M 89.614666 113.518125 
L 89.614666 22.318125 
" clip-path="url(#pa598ed780c)" style="fill: none; stroke: #b0b0b0; stroke-opacity: 0.2; stroke-width: 0.8; stroke-linecap: square"/>
     </g>
     <g id="line2d_2">
      <defs>
       <path id="me78bd60a65" d="M 0 0 
L 0 3.5 
" style="stroke: #000000; stroke-width: 0.8"/>
      </defs>
      <g>
       <use xlink:href="#me78bd60a65" x="89.614666" y="113.518125" style="stroke: #000000; stroke-width: 0.8"/>
      </g>
     </g>
     <g id="text_1">
      <!-- 2025-11 -->
      <g transform="translate(58.371042 155.435389) rotate(-45) scale(0.1 -0.1)">
       <defs>
        <path id="DejaVuSans-15" d="M 1228 531 
L 3431 531 
L 3431 0 
L 469 0 
L 469 531 
Q 828 903 1448 1529 
Q 2069 2156 2228 2338 
Q 2531 2678 2651 2914 
Q 2772 3150 2772 3378 
Q 2772 3750 2511 3984 
Q 2250 4219 1831 4219 
Q 1534 4219 1204 4116 
Q 875 4013 500 3803 
L 500 4441 
Q 881 4594 1212 4672 
Q 1544 4750 1819 4750 
Q 2544 4750 2975 4387 
Q 3406 4025 3406 3419 
Q 3406 3131 3298 2873 
Q 3191 2616 2906 2266 
Q 2828 2175 2409 1742 
Q 1991 1309 1228 531 
z
" transform="scale(0.015625)"/>
        <path id="DejaVuSans-13" d="M 2034 4250 
Q 1547 4250 1301 3770 
Q 1056 3291 1056 2328 
Q 1056 1369 1301 889 
Q 1547 409 2034 409 
Q 2525 409 2770 889 
Q 3016 1369 3016 2328 
Q 3016 3291 2770 3770 
Q 2525 4250 2034 4250 
z
M 2034 4750 
Q 2819 4750 3233 4129 
Q 3647 3509 3647 2328 
Q 3647 1150 3233 529 
Q 2819 -91 2034 -91 
Q 1250 -91 836 529 
Q 422 1150 422 2328 
Q 422 3509 836 4129 
Q 1250 4750 2034 4750 
z
" transform="scale(0.015625)"/>
        <path id="DejaVuSans-18" d="M 691 4666 
L 3169 4666 
L 3169 4134 
L 1269 4134 
L 1269 2991 
Q 1406 3038 1543 3061 
Q 1681 3084 1819 3084 
Q 2600 3084 3056 2656 
Q 3513 2228 3513 1497 
Q 3513 744 3044 326 
Q 2575 -91 1722 -91 
Q 1428 -91 1123 -41 
Q 819 9 494 109 
L 494 744 
Q 775 591 1075 516 
Q 1375 441 1709 441 
Q 2250 441 2565 725 
Q 2881 1009 2881 1497 
Q 2881 1984 2565 2268 
Q 2250 2553 1709 2553 
Q 1456 2553 1204 2497 
Q 953 2441 691 2322 
L 691 4666 
z
" transform="scale(0.015625)"/>
        <path id="DejaVuSans-10" d="M 313 2009 
L 1997 2009 
L 1997 1497 
L 313 1497 
L 313 2009 
z
" transform="scale(0.015625)"/>
        <path id="DejaVuSans-14" d="M 794 531 
L 1825 531 
L 1825 4091 
L 703 3866 
L 703 4441 
L 1819 4666 
L 2450 4666 
L 2450 531 
L 3481 531 
L 3481 0 
L 794 0 
L 794 531 
z
" transform="scale(0.015625)"/>
       </defs>
       <use xlink:href="#DejaVuSans-15"/>
       <use xlink:href="#DejaVuSans-13" transform="translate(63.625 0)"/>
       <use xlink:href="#DejaVuSans-15" transform="translate(127.25 0)"/>
       <use xlink:href="#DejaVuSans-18" transform="translate(190.875 0)"/>
       <use xlink:href="#DejaVuSans-10" transform="translate(254.5 0)"/>
       <use xlink:href="#DejaVuSans-14" transform="translate(290.578125 0)"/>
       <use xlink:href="#DejaVuSans-14" transform="translate(354.203125 0)"/>
      </g>
     </g>
    </g>
    <g id="xtick_2">
     <g id="line2d_3">
      <path d="M 130.891378 113.518125 
L 130.891378 22.318125 
" clip-path="url(#pa598ed780c)" style="fill: none; stroke: #b0b0b0; stroke-opacity: 0.2; stroke-width: 0.8; stroke-linecap: square"/>
     </g>
     <g id="line2d_4">
      <g>
       <use xlink:href="#me78bd60a65" x="130.891378" y="113.518125" style="stroke: #000000; stroke-width: 0.8"/>
      </g>
     </g>
     <g id="text_2">
      <!-- 2025-12 -->
      <g transform="translate(99.647755 155.435389) rotate(-45) scale(0.1 -0.1)">
       <use xlink:href="#DejaVuSans-15"/>
       <use xlink:href="#DejaVuSans-13" transform="translate(63.625 0)"/>
       <use xlink:href="#DejaVuSans-15" transform="translate(127.25 0)"/>
       <use xlink:href="#DejaVuSans-18" transform="translate(190.875 0)"/>
       <use xlink:href="#DejaVuSans-10" transform="translate(254.5 0)"/>
       <use xlink:href="#DejaVuSans-14" transform="translate(290.578125 0)"/>
       <use xlink:href="#DejaVuSans-15" transform="translate(354.203125 0)"/>
      </g>
     </g>
    </g>
    <g id="xtick_3">
     <g id="line2d_5">
      <path d="M 173.543981 113.518125 
L 173.543981 22.318125 
" clip-path="url(#pa598ed780c)" style="fill: none; stroke: #b0b0b0; stroke-opacity: 0.2; stroke-width: 0.8; stroke-linecap: square"/>
     </g>
     <g id="line2d_6">
      <g>
       <use xlink:href="#me78bd60a65" x="173.543981" y="113.518125" style="stroke: #000000; stroke-width: 0.8"/>
      </g>
     </g>
     <g id="text_3">
      <!-- 2026-01 -->
      <g transform="translate(142.300358 155.435389) rotate(-45) scale(0.1 -0.1)">
       <defs>
        <path id="DejaVuSans-19" d="M 2113 2584 
Q 1688 2584 1439 2293 
Q 1191 2003 1191 1497 
Q 1191 994 1439 701 
Q 1688 409 2113 409 
Q 2538 409 2786 701 
Q 3034 994 3034 1497 
Q 3034 2003 2786 2293 
Q 2538 2584 2113 2584 
z
M 3366 4563 
L 3366 3988 
Q 3128 4100 2886 4159 
Q 2644 4219 2406 4219 
Q 1781 4219 1451 3797 
Q 1122 3375 1075 2522 
Q 1259 2794 1537 2939 
Q 1816 3084 2150 3084 
Q 2853 3084 3261 2657 
Q 3669 2231 3669 1497 
Q 3669 778 3244 343 
Q 2819 -91 2113 -91 
Q 1303 -91 875 529 
Q 447 1150 447 2328 
Q 447 3434 972 4092 
Q 1497 4750 2381 4750 
Q 2619 4750 2861 4703 
Q 3103 4656 3366 4563 
z
" transform="scale(0.015625)"/>
       </defs>
       <use xlink:href="#DejaVuSans-15"/>
       <use xlink:href="#DejaVuSans-13" transform="translate(63.625 0)"/>
       <use xlink:href="#DejaVuSans-15" transform="translate(127.25 0)"/>
       <use xlink:href="#DejaVuSans-19" transform="translate(190.875 0)"/>
       <use xlink:href="#DejaVuSans-10" transform="translate(254.5 0)"/>
       <use xlink:href="#DejaVuSans-13" transform="translate(290.578125 0)"/>
       <use xlink:href="#DejaVuSans-14" transform="translate(354.203125 0)"/>
      </g>
     </g>
    </g>
    <g id="xtick_4">
     <g id="line2d_7">
      <path d="M 216.196584 113.518125 
L 216.196584 22.318125 
" clip-path="url(#pa598ed780c)" style="fill: none; stroke: #b0b0b0; stroke-opacity: 0.2; stroke-width: 0.8; stroke-linecap: square"/>
     </g>
     <g id="line2d_8">
      <g>
       <use xlink:href="#me78bd60a65" x="216.196584" y="113.518125" style="stroke: #000000; stroke-width: 0.8"/>
      </g>
     </g>
     <g id="text_4">
      <!-- 2026-02 -->
      <g transform="translate(184.95296 155.435389) rotate(-45) scale(0.1 -0.1)">
       <use xlink:href="#DejaVuSans-15"/>
       <use xlink:href="#DejaVuSans-13" transform="translate(63.625 0)"/>
       <use xlink:href="#DejaVuSans-15" transform="translate(127.25 0)"/>
       <use xlink:href="#DejaVuSans-19" transform="translate(190.875 0)"/>
       <use xlink:href="#DejaVuSans-10" transform="translate(254.5 0)"/>
       <use xlink:href="#DejaVuSans-13" transform="translate(290.578125 0)"/>
       <use xlink:href="#DejaVuSans-15" transform="translate(354.203125 0)"/>
      </g>
     </g>
    </g>
    <g id="xtick_5">
     <g id="line2d_9">
      <path d="M 254.721515 113.518125 
L 254.721515 22.318125 
" clip-path="url(#pa598ed780c)" style="fill: none; stroke: #b0b0b0; stroke-opacity: 0.2; stroke-width: 0.8; stroke-linecap: square"/>
     </g>
     <g id="line2d_10">
      <g>
       <use xlink:href="#me78bd60a65" x="254.721515" y="113.518125" style="stroke: #000000; stroke-width: 0.8"/>
      </g>
     </g>
     <g id="text_5">
      <!-- 2026-03 -->
      <g transform="translate(223.477892 155.435389) rotate(-45) scale(0.1 -0.1)">
       <defs>
        <path id="DejaVuSans-16" d="M 2597 2516 
Q 3050 2419 3304 2112 
Q 3559 1806 3559 1356 
Q 3559 666 3084 287 
Q 2609 -91 1734 -91 
Q 1441 -91 1130 -33 
Q 819 25 488 141 
L 488 750 
Q 750 597 1062 519 
Q 1375 441 1716 441 
Q 2309 441 2620 675 
Q 2931 909 2931 1356 
Q 2931 1769 2642 2001 
Q 2353 2234 1838 2234 
L 1294 2234 
L 1294 2753 
L 1863 2753 
Q 2328 2753 2575 2939 
Q 2822 3125 2822 3475 
Q 2822 3834 2567 4026 
Q 2313 4219 1838 4219 
Q 1578 4219 1281 4162 
Q 984 4106 628 3988 
L 628 4550 
Q 988 4650 1302 4700 
Q 1616 4750 1894 4750 
Q 2613 4750 3031 4423 
Q 3450 4097 3450 3541 
Q 3450 3153 3228 2886 
Q 3006 2619 2597 2516 
z
" transform="scale(0.015625)"/>
       </defs>
       <use xlink:href="#DejaVuSans-15"/>
       <use xlink:href="#DejaVuSans-13" transform="translate(63.625 0)"/>
       <use xlink:href="#DejaVuSans-15" transform="translate(127.25 0)"/>
       <use xlink:href="#DejaVuSans-19" transform="translate(190.875 0)"/>
       <use xlink:href="#DejaVuSans-10" transform="translate(254.5 0)"/>
       <use xlink:href="#DejaVuSans-13" transform="translate(290.578125 0)"/>
       <use xlink:href="#DejaVuSans-16" transform="translate(354.203125 0)"/>
      </g>
     </g>
    </g>
    <g id="xtick_6">
     <g id="line2d_11">
      <path d="M 297.374118 113.518125 
L 297.374118 22.318125 
" clip-path="url(#pa598ed780c)" style="fill: none; stroke: #b0b0b0; stroke-opacity: 0.2; stroke-width: 0.8; stroke-linecap: square"/>
     </g>
     <g id="line2d_12">
      <g>
       <use xlink:href="#me78bd60a65" x="297.374118" y="113.518125" style="stroke: #000000; stroke-width: 0.8"/>
      </g>
     </g>
     <g id="text_6">
      <!-- 2026-04 -->
      <g transform="translate(266.130495 155.435389) rotate(-45) scale(0.1 -0.1)">
       <defs>
        <path id="DejaVuSans-17" d="M 2419 4116 
L 825 1625 
L 2419 1625 
L 2419 4116 
z
M 2253 4666 
L 3047 4666 
L 3047 1625 
L 3713 1625 
L 3713 1100 
L 3047 1100 
L 3047 0 
L 2419 0 
L 2419 1100 
L 313 1100 
L 313 1709 
L 2253 4666 
z
" transform="scale(0.015625)"/>
       </defs>
       <use xlink:href="#DejaVuSans-15"/>
       <use xlink:href="#DejaVuSans-13" transform="translate(63.625 0)"/>
       <use xlink:href="#DejaVuSans-15" transform="translate(127.25 0)"/>
       <use xlink:href="#DejaVuSans-19" transform="translate(190.875 0)"/>
       <use xlink:href="#DejaVuSans-10" transform="translate(254.5 0)"/>
       <use xlink:href="#DejaVuSans-13" transform="translate(290.578125 0)"/>
       <use xlink:href="#DejaVuSans-17" transform="translate(354.203125 0)"/>
      </g>
     </g>
    </g>
    <g id="xtick_7">
     <g id="line2d_13">
      <path d="M 338.65083 113.518125 
L 338.65083 22.318125 
" clip-path="url(#pa598ed780c)" style="fill: none; stroke: #b0b0b0; stroke-opacity: 0.2; stroke-width: 0.8; stroke-linecap: square"/>
     </g>
     <g id="line2d_14">
      <g>
       <use xlink:href="#me78bd60a65" x="338.65083" y="113.518125" style="stroke: #000000; stroke-width: 0.8"/>
      </g>
     </g>
     <g id="text_7">
      <!-- 2026-05 -->
      <g transform="translate(307.407207 155.435389) rotate(-45) scale(0.1 -0.1)">
       <use xlink:href="#DejaVuSans-15"/>
       <use xlink:href="#DejaVuSans-13" transform="translate(63.625 0)"/>
       <use xlink:href="#DejaVuSans-15" transform="translate(127.25 0)"/>
       <use xlink:href="#DejaVuSans-19" transform="translate(190.875 0)"/>
       <use xlink:href="#DejaVuSans-10" transform="translate(254.5 0)"/>
       <use xlink:href="#DejaVuSans-13" transform="translate(290.578125 0)"/>
       <use xlink:href="#DejaVuSans-18" transform="translate(354.203125 0)"/>
      </g>
     </g>
    </g>
    <g id="xtick_8">
     <g id="line2d_15">
      <path d="M 381.303433 113.518125 
L 381.303433 22.318125 
" clip-path="url(#pa598ed780c)" style="fill: none; stroke: #b0b0b0; stroke-opacity: 0.2; stroke-width: 0.8; stroke-linecap: square"/>
     </g>
     <g id="line2d_16">
      <g>
       <use xlink:href="#me78bd60a65" x="381.303433" y="113.518125" style="stroke: #000000; stroke-width: 0.8"/>
      </g>
     </g>
     <g id="text_8">
      <!-- 2026-06 -->
      <g transform="translate(350.05981 155.435389) rotate(-45) scale(0.1 -0.1)">
       <use xlink:href="#DejaVuSans-15"/>
       <use xlink:href="#DejaVuSans-13" transform="translate(63.625 0)"/>
       <use xlink:href="#DejaVuSans-15" transform="translate(127.25 0)"/>
       <use xlink:href="#DejaVuSans-19" transform="translate(190.875 0)"/>
       <use xlink:href="#DejaVuSans-10" transform="translate(254.5 0)"/>
       <use xlink:href="#DejaVuSans-13" transform="translate(290.578125 0)"/>
       <use xlink:href="#DejaVuSans-19" transform="translate(354.203125 0)"/>
      </g>
     </g>
    </g>
    <g id="xtick_9">
     <g id="line2d_17">
      <path d="M 422.580146 113.518125 
L 422.580146 22.318125 
" clip-path="url(#pa598ed780c)" style="fill: none; stroke: #b0b0b0; stroke-opacity: 0.2; stroke-width: 0.8; stroke-linecap: square"/>
     </g>
     <g id="line2d_18">
      <g>
       <use xlink:href="#me78bd60a65" x="422.580146" y="113.518125" style="stroke: #000000; stroke-width: 0.8"/>
      </g>
     </g>
     <g id="text_9">
      <!-- 2026-07 -->
      <g transform="translate(391.336522 155.435389) rotate(-45) scale(0.1 -0.1)">
       <defs>
        <path id="DejaVuSans-1a" d="M 525 4666 
L 3525 4666 
L 3525 4397 
L 1831 0 
L 1172 0 
L 2766 4134 
L 525 4134 
L 525 4666 
z
" transform="scale(0.015625)"/>
       </defs>
       <use xlink:href="#DejaVuSans-15"/>
       <use xlink:href="#DejaVuSans-13" transform="translate(63.625 0)"/>
       <use xlink:href="#DejaVuSans-15" transform="translate(127.25 0)"/>
       <use xlink:href="#DejaVuSans-19" transform="translate(190.875 0)"/>
       <use xlink:href="#DejaVuSans-10" transform="translate(254.5 0)"/>
       <use xlink:href="#DejaVuSans-13" transform="translate(290.578125 0)"/>
       <use xlink:href="#DejaVuSans-1a" transform="translate(354.203125 0)"/>
      </g>
     </g>
    </g>
    <g id="xtick_10">
     <g id="line2d_19">
      <path d="M 465.232748 113.518125 
L 465.232748 22.318125 
" clip-path="url(#pa598ed780c)" style="fill: none; stroke: #b0b0b0; stroke-opacity: 0.2; stroke-width: 0.8; stroke-linecap: square"/>
     </g>
     <g id="line2d_20">
      <g>
       <use xlink:href="#me78bd60a65" x="465.232748" y="113.518125" style="stroke: #000000; stroke-width: 0.8"/>
      </g>
     </g>
     <g id="text_10">
      <!-- 2026-08 -->
      <g transform="translate(433.989125 155.435389) rotate(-45) scale(0.1 -0.1)">
       <defs>
        <path id="DejaVuSans-1b" d="M 2034 2216 
Q 1584 2216 1326 1975 
Q 1069 1734 1069 1313 
Q 1069 891 1326 650 
Q 1584 409 2034 409 
Q 2484 409 2743 651 
Q 3003 894 3003 1313 
Q 3003 1734 2745 1975 
Q 2488 2216 2034 2216 
z
M 1403 2484 
Q 997 2584 770 2862 
Q 544 3141 544 3541 
Q 544 4100 942 4425 
Q 1341 4750 2034 4750 
Q 2731 4750 3128 4425 
Q 3525 4100 3525 3541 
Q 3525 3141 3298 2862 
Q 3072 2584 2669 2484 
Q 3125 2378 3379 2068 
Q 3634 1759 3634 1313 
Q 3634 634 3220 271 
Q 2806 -91 2034 -91 
Q 1263 -91 848 271 
Q 434 634 434 1313 
Q 434 1759 690 2068 
Q 947 2378 1403 2484 
z
M 1172 3481 
Q 1172 3119 1398 2916 
Q 1625 2713 2034 2713 
Q 2441 2713 2670 2916 
Q 2900 3119 2900 3481 
Q 2900 3844 2670 4047 
Q 2441 4250 2034 4250 
Q 1625 4250 1398 4047 
Q 1172 3844 1172 3481 
z
" transform="scale(0.015625)"/>
       </defs>
       <use xlink:href="#DejaVuSans-15"/>
       <use xlink:href="#DejaVuSans-13" transform="translate(63.625 0)"/>
       <use xlink:href="#DejaVuSans-15" transform="translate(127.25 0)"/>
       <use xlink:href="#DejaVuSans-19" transform="translate(190.875 0)"/>
       <use xlink:href="#DejaVuSans-10" transform="translate(254.5 0)"/>
       <use xlink:href="#DejaVuSans-13" transform="translate(290.578125 0)"/>
       <use xlink:href="#DejaVuSans-1b" transform="translate(354.203125 0)"/>
      </g>
     </g>
    </g>
    <g id="xtick_11">
     <g id="line2d_21">
      <path d="M 507.885351 113.518125 
L 507.885351 22.318125 
" clip-path="url(#pa598ed780c)" style="fill: none; stroke: #b0b0b0; stroke-opacity: 0.2; stroke-width: 0.8; stroke-linecap: square"/>
     </g>
     <g id="line2d_22">
      <g>
       <use xlink:href="#me78bd60a65" x="507.885351" y="113.518125" style="stroke: #000000; stroke-width: 0.8"/>
      </g>
     </g>
     <g id="text_11">
      <!-- 2026-09 -->
      <g transform="translate(476.641727 155.435389) rotate(-45) scale(0.1 -0.1)">
       <defs>
        <path id="DejaVuSans-1c" d="M 703 97 
L 703 672 
Q 941 559 1184 500 
Q 1428 441 1663 441 
Q 2288 441 2617 861 
Q 2947 1281 2994 2138 
Q 2813 1869 2534 1725 
Q 2256 1581 1919 1581 
Q 1219 1581 811 2004 
Q 403 2428 403 3163 
Q 403 3881 828 4315 
Q 1253 4750 1959 4750 
Q 2769 4750 3195 4129 
Q 3622 3509 3622 2328 
Q 3622 1225 3098 567 
Q 2575 -91 1691 -91 
Q 1453 -91 1209 -44 
Q 966 3 703 97 
z
M 1959 2075 
Q 2384 2075 2632 2365 
Q 2881 2656 2881 3163 
Q 2881 3666 2632 3958 
Q 2384 4250 1959 4250 
Q 1534 4250 1286 3958 
Q 1038 3666 1038 3163 
Q 1038 2656 1286 2365 
Q 1534 2075 1959 2075 
z
" transform="scale(0.015625)"/>
       </defs>
       <use xlink:href="#DejaVuSans-15"/>
       <use xlink:href="#DejaVuSans-13" transform="translate(63.625 0)"/>
       <use xlink:href="#DejaVuSans-15" transform="translate(127.25 0)"/>
       <use xlink:href="#DejaVuSans-19" transform="translate(190.875 0)"/>
       <use xlink:href="#DejaVuSans-10" transform="translate(254.5 0)"/>
       <use xlink:href="#DejaVuSans-13" transform="translate(290.578125 0)"/>
       <use xlink:href="#DejaVuSans-1c" transform="translate(354.203125 0)"/>
      </g>
     </g>
    </g>
    <g id="xtick_12">
     <g id="line2d_23">
      <path d="M 549.162063 113.518125 
L 549.162063 22.318125 
" clip-path="url(#pa598ed780c)" style="fill: none; stroke: #b0b0b0; stroke-opacity: 0.2; stroke-width: 0.8; stroke-linecap: square"/>
     </g>
     <g id="line2d_24">
      <g>
       <use xlink:href="#me78bd60a65" x="549.162063" y="113.518125" style="stroke: #000000; stroke-width: 0.8"/>
      </g>
     </g>
     <g id="text_12">
      <!-- 2026-10 -->
      <g transform="translate(517.91844 155.435389) rotate(-45) scale(0.1 -0.1)">
       <use xlink:href="#DejaVuSans-15"/>
       <use xlink:href="#DejaVuSans-13" transform="translate(63.625 0)"/>
       <use xlink:href="#DejaVuSans-15" transform="translate(127.25 0)"/>
       <use xlink:href="#DejaVuSans-19" transform="translate(190.875 0)"/>
       <use xlink:href="#DejaVuSans-10" transform="translate(254.5 0)"/>
       <use xlink:href="#DejaVuSans-14" transform="translate(290.578125 0)"/>
       <use xlink:href="#DejaVuSans-13" transform="translate(354.203125 0)"/>
      </g>
     </g>
    </g>
   </g>
   <g id="matplotlib.axis_2">
    <g id="ytick_1">
     <g id="line2d_25">
      <path d="M 52.465625 109.37267 
L 554.665625 109.37267 
" clip-path="url(#pa598ed780c)" style="fill: none; stroke: #b0b0b0; stroke-opacity: 0.2; stroke-width: 0.8; stroke-linecap: square"/>
     </g>
     <g id="line2d_26">
      <defs>
       <path id="mbf7ee547c3" d="M 0 0 
L -3.5 0 
" style="stroke: #000000; stroke-width: 0.8"/>
      </defs>
      <g>
       <use xlink:href="#mbf7ee547c3" x="52.465625" y="109.37267" style="stroke: #000000; stroke-width: 0.8"/>
      </g>
     </g>
     <g id="text_13">
      <!-- 0 -->
      <g transform="translate(39.103125 113.171499) scale(0.1 -0.1)">
       <use xlink:href="#DejaVuSans-13"/>
      </g>
     </g>
    </g>
    <g id="ytick_2">
     <g id="line2d_27">
      <path d="M 52.465625 78.6656 
L 554.665625 78.6656 
" clip-path="url(#pa598ed780c)" style="fill: none; stroke: #b0b0b0; stroke-opacity: 0.2; stroke-width: 0.8; stroke-linecap: square"/>
     </g>
     <g id="line2d_28">
      <g>
       <use xlink:href="#mbf7ee547c3" x="52.465625" y="78.6656" style="stroke: #000000; stroke-width: 0.8"/>
      </g>
     </g>
     <g id="text_14">
      <!-- 50 -->
      <g transform="translate(32.740625 82.464428) scale(0.1 -0.1)">
       <use xlink:href="#DejaVuSans-18"/>
       <use xlink:href="#DejaVuSans-13" transform="translate(63.625 0)"/>
      </g>
     </g>
    </g>
    <g id="ytick_3">
     <g id="line2d_29">
      <path d="M 52.465625 47.958529 
L 554.665625 47.958529 
" clip-path="url(#pa598ed780c)" style="fill: none; stroke: #b0b0b0; stroke-opacity: 0.2; stroke-width: 0.8; stroke-linecap: square"/>
     </g>
     <g id="line2d_30">
      <g>
       <use xlink:href="#mbf7ee547c3" x="52.465625" y="47.958529" style="stroke: #000000; stroke-width: 0.8"/>
      </g>
     </g>
     <g id="text_15">
      <!-- 100 -->
      <g transform="translate(26.378125 51.757357) scale(0.1 -0.1)">
       <use xlink:href="#DejaVuSans-14"/>
       <use xlink:href="#DejaVuSans-13" transform="translate(63.625 0)"/>
       <use xlink:href="#DejaVuSans-13" transform="translate(127.25 0)"/>
      </g>
     </g>
    </g>
    <g id="text_16">
     <!-- bp -->
     <g transform="translate(19.975781 74.266562) rotate(-90) scale(0.1 -0.1)">
      <defs>
       <path id="DejaVuSans-45" d="M 3116 1747 
Q 3116 2381 2855 2742 
Q 2594 3103 2138 3103 
Q 1681 3103 1420 2742 
Q 1159 2381 1159 1747 
Q 1159 1113 1420 752 
Q 1681 391 2138 391 
Q 2594 391 2855 752 
Q 3116 1113 3116 1747 
z
M 1159 2969 
Q 1341 3281 1617 3432 
Q 1894 3584 2278 3584 
Q 2916 3584 3314 3078 
Q 3713 2572 3713 1747 
Q 3713 922 3314 415 
Q 2916 -91 2278 -91 
Q 1894 -91 1617 61 
Q 1341 213 1159 525 
L 1159 0 
L 581 0 
L 581 4863 
L 1159 4863 
L 1159 2969 
z
" transform="scale(0.015625)"/>
       <path id="DejaVuSans-53" d="M 1159 525 
L 1159 -1331 
L 581 -1331 
L 581 3500 
L 1159 3500 
L 1159 2969 
Q 1341 3281 1617 3432 
Q 1894 3584 2278 3584 
Q 2916 3584 3314 3078 
Q 3713 2572 3713 1747 
Q 3713 922 3314 415 
Q 2916 -91 2278 -91 
Q 1894 -91 1617 61 
Q 1341 213 1159 525 
z
M 3116 1747 
Q 3116 2381 2855 2742 
Q 2594 3103 2138 3103 
Q 1681 3103 1420 2742 
Q 1159 2381 1159 1747 
Q 1159 1113 1420 752 
Q 1681 391 2138 391 
Q 2594 391 2855 752 
Q 3116 1113 3116 1747 
z
" transform="scale(0.015625)"/>
      </defs>
      <use xlink:href="#DejaVuSans-45"/>
      <use xlink:href="#DejaVuSans-53" transform="translate(63.484375 0)"/>
     </g>
    </g>
   </g>
   <g id="line2d_31">
    <path d="M 53.841515 49.800953 
L 55.217406 51.029236 
L 56.593296 51.643378 
L 57.969187 51.643378 
L 59.345077 55.942367 
L 63.472748 55.942367 
L 64.848639 54.714085 
L 66.224529 52.257519 
L 67.60042 53.485802 
L 68.97631 52.257519 
L 73.103981 51.029236 
L 74.479872 54.099943 
L 75.855762 54.099943 
L 78.607543 51.643378 
L 82.735214 50.415095 
L 84.111104 51.029236 
L 85.486995 52.257519 
L 86.862885 49.186812 
L 88.238776 48.57267 
L 92.366447 49.186812 
L 93.742337 51.029236 
L 95.118228 47.344388 
L 96.494118 47.344388 
L 97.870009 51.643378 
L 101.99768 50.415095 
L 103.37357 50.415095 
L 104.749461 51.643378 
L 107.501241 52.87166 
L 111.628913 54.099943 
L 113.004803 55.942367 
L 114.380693 55.328226 
L 115.756584 55.328226 
L 117.132474 56.556509 
L 122.636036 56.556509 
L 125.387817 55.328226 
L 126.763707 55.328226 
L 130.891378 57.17065 
L 132.267269 57.17065 
L 133.643159 57.784792 
L 135.01905 57.17065 
L 136.39494 65.154489 
L 140.522611 63.312064 
L 141.898502 65.154489 
L 143.274392 65.76863 
L 144.650283 65.154489 
L 146.026173 63.312064 
L 150.153844 62.083782 
L 151.529735 63.312064 
L 152.905625 63.926206 
L 154.281515 65.154489 
L 155.657406 66.996913 
L 159.785077 65.76863 
L 161.160967 62.697923 
L 162.536858 63.312064 
L 163.912748 63.312064 
L 165.288639 63.926206 
L 169.41631 64.540347 
L 170.7922 64.540347 
L 172.168091 62.697923 
L 173.543981 62.697923 
L 174.919872 65.154489 
L 179.047543 63.312064 
L 180.423433 63.312064 
L 181.799324 62.697923 
L 183.175214 60.855499 
L 184.551104 60.241357 
L 188.678776 60.855499 
L 190.054666 62.083782 
L 191.430557 60.855499 
L 192.806447 59.013074 
L 194.182337 55.942367 
L 198.310009 57.17065 
L 199.685899 55.328226 
L 201.061789 57.784792 
L 202.43768 56.556509 
L 203.81357 58.398933 
L 207.941241 57.17065 
L 209.317132 58.398933 
L 210.693022 57.784792 
L 212.068913 58.398933 
L 213.444803 57.784792 
L 217.572474 56.556509 
L 218.948365 57.784792 
L 220.324255 56.556509 
L 221.700146 59.627216 
L 223.076036 59.013074 
L 227.203707 58.398933 
L 228.579598 60.241357 
L 229.955488 57.784792 
L 231.331378 59.627216 
L 232.707269 60.855499 
L 236.83494 60.855499 
L 238.21083 59.013074 
L 239.586721 56.556509 
L 242.338502 56.556509 
L 246.466173 57.17065 
L 247.842063 56.556509 
L 249.217954 57.17065 
L 250.593844 57.17065 
L 251.969735 57.784792 
L 256.097406 58.398933 
L 257.473296 59.013074 
L 258.849187 58.398933 
L 261.600967 63.312064 
L 265.728639 62.697923 
L 267.104529 62.697923 
L 268.48042 64.540347 
L 271.2322 62.083782 
L 276.735762 59.627216 
L 279.487543 59.627216 
L 280.863433 58.398933 
L 284.991104 59.627216 
L 286.366995 60.241357 
L 287.742885 56.556509 
L 289.118776 57.17065 
L 290.494666 56.556509 
L 294.622337 57.784792 
L 295.998228 57.784792 
L 298.750009 59.013074 
L 300.125899 56.556509 
L 304.25357 55.942367 
L 305.629461 57.784792 
L 307.005351 57.17065 
L 308.381241 58.398933 
L 309.757132 57.784792 
L 313.884803 57.784792 
L 316.636584 59.013074 
L 323.516036 59.013074 
L 324.891926 60.241357 
L 326.267817 59.013074 
L 327.643707 56.556509 
L 329.019598 57.17065 
L 334.523159 57.17065 
L 335.89905 59.013074 
L 338.65083 56.556509 
L 342.778502 58.398933 
L 344.154392 58.398933 
L 345.530283 57.17065 
L 348.282063 53.485802 
L 353.785625 55.942367 
L 355.161515 55.328226 
L 356.537406 53.485802 
L 357.913296 54.714085 
L 362.040967 53.485802 
L 363.416858 49.800953 
L 364.792748 48.57267 
L 366.168639 46.116105 
L 367.544529 46.116105 
L 371.6722 41.817115 
L 373.048091 46.116105 
L 374.423981 47.344388 
L 375.799872 47.344388 
L 377.175762 45.501963 
L 381.303433 45.501963 
L 384.055214 44.273681 
L 385.431104 45.501963 
L 386.806995 43.659539 
L 390.934666 46.116105 
L 392.310557 45.501963 
L 393.686447 44.273681 
L 395.062337 45.501963 
L 396.438228 43.045398 
L 400.565899 44.273681 
L 401.941789 44.887822 
L 403.31768 43.659539 
L 404.69357 43.045398 
L 406.069461 43.659539 
L 410.197132 43.045398 
L 411.573022 44.273681 
L 412.948913 44.887822 
L 414.324803 47.344388 
L 415.700693 48.57267 
L 419.828365 47.344388 
L 421.204255 44.273681 
L 422.580146 41.817115 
L 423.956036 45.501963 
L 425.331926 45.501963 
L 429.459598 44.273681 
L 430.835488 44.273681 
L 432.211378 47.958529 
L 433.587269 46.730246 
L 434.963159 44.887822 
L 439.09083 44.273681 
L 440.466721 47.344388 
L 441.842611 46.730246 
L 443.218502 45.501963 
L 444.594392 48.57267 
L 448.722063 46.116105 
L 450.097954 43.659539 
L 451.473844 43.659539 
L 452.849735 44.273681 
L 454.225625 42.431256 
L 458.353296 42.431256 
L 459.729187 43.045398 
L 461.105077 42.431256 
L 462.480967 42.431256 
L 463.856858 41.817115 
L 467.984529 44.887822 
L 469.36042 43.045398 
L 472.1122 43.045398 
L 473.488091 47.344388 
L 477.615762 47.958529 
L 478.991652 47.958529 
L 480.367543 48.57267 
L 481.743433 47.344388 
L 483.119324 47.958529 
L 487.246995 47.958529 
L 488.622885 47.344388 
L 489.998776 50.415095 
L 491.374666 51.643378 
L 492.750557 49.186812 
L 496.878228 46.730246 
L 498.254118 46.730246 
L 499.630009 47.958529 
L 501.005899 49.800953 
L 502.381789 47.958529 
L 506.509461 46.730246 
L 507.885351 45.501963 
L 509.261241 48.57267 
L 510.637132 49.186812 
L 512.013022 47.344388 
L 516.140693 47.344388 
L 517.516584 48.57267 
L 518.892474 48.57267 
L 520.268365 47.344388 
L 521.644255 47.344388 
L 525.771926 46.116105 
L 527.147817 44.887822 
L 528.523707 42.431256 
L 529.899598 41.202973 
L 531.275488 39.360549 
L 535.403159 40.588832 
L 536.77905 39.974691 
L 538.15494 38.746408 
L 539.53083 35.061559 
L 540.906721 33.833277 
L 545.034392 30.762569 
L 546.410283 31.376711 
L 547.786173 29.534287 
L 549.162063 29.534287 
L 550.537954 26.46358 
L 554.665625 28.306004 
L 554.665625 28.306004 
" clip-path="url(#pa598ed780c)" style="fill: none; stroke: #444444; stroke-width: 1.5; stroke-linecap: square"/>
    <defs>
     <path id="m0e361957c4" d="M 0 1 
C 0.265203 1 0.51958 0.894634 0.707107 0.707107 
C 0.894634 0.51958 1 0.265203 1 0 
C 1 -0.265203 0.894634 -0.51958 0.707107 -0.707107 
C 0.51958 -0.894634 0.265203 -1 0 -1 
C -0.265203 -1 -0.51958 -0.894634 -0.707107 -0.707107 
C -0.894634 -0.51958 -1 -0.265203 -1 0 
C -1 0.265203 -0.894634 0.51958 -0.707107 0.707107 
C -0.51958 0.894634 -0.265203 1 0 1 
z
" style="stroke: #444444"/>
    </defs>
    <g clip-path="url(#pa598ed780c)">
     <use xlink:href="#m0e361957c4" x="53.841515" y="49.800953" style="fill: #444444; stroke: #444444"/>
     <use xlink:href="#m0e361957c4" x="55.217406" y="51.029236" style="fill: #444444; stroke: #444444"/>
     <use xlink:href="#m0e361957c4" x="56.593296" y="51.643378" style="fill: #444444; stroke: #444444"/>
     <use xlink:href="#m0e361957c4" x="57.969187" y="51.643378" style="fill: #444444; stroke: #444444"/>
     <use xlink:href="#m0e361957c4" x="59.345077" y="55.942367" style="fill: #444444; stroke: #444444"/>
     <use xlink:href="#m0e361957c4" x="63.472748" y="55.942367" style="fill: #444444; stroke: #444444"/>
     <use xlink:href="#m0e361957c4" x="64.848639" y="54.714085" style="fill: #444444; stroke: #444444"/>
     <use xlink:href="#m0e361957c4" x="66.224529" y="52.257519" style="fill: #444444; stroke: #444444"/>
     <use xlink:href="#m0e361957c4" x="67.60042" y="53.485802" style="fill: #444444; stroke: #444444"/>
     <use xlink:href="#m0e361957c4" x="68.97631" y="52.257519" style="fill: #444444; stroke: #444444"/>
     <use xlink:href="#m0e361957c4" x="73.103981" y="51.029236" style="fill: #444444; stroke: #444444"/>
     <use xlink:href="#m0e361957c4" x="74.479872" y="54.099943" style="fill: #444444; stroke: #444444"/>
     <use xlink:href="#m0e361957c4" x="75.855762" y="54.099943" style="fill: #444444; stroke: #444444"/>
     <use xlink:href="#m0e361957c4" x="77.231652" y="52.87166" style="fill: #444444; stroke: #444444"/>
     <use xlink:href="#m0e361957c4" x="78.607543" y="51.643378" style="fill: #444444; stroke: #444444"/>
     <use xlink:href="#m0e361957c4" x="82.735214" y="50.415095" style="fill: #444444; stroke: #444444"/>
     <use xlink:href="#m0e361957c4" x="84.111104" y="51.029236" style="fill: #444444; stroke: #444444"/>
     <use xlink:href="#m0e361957c4" x="85.486995" y="52.257519" style="fill: #444444; stroke: #444444"/>
     <use xlink:href="#m0e361957c4" x="86.862885" y="49.186812" style="fill: #444444; stroke: #444444"/>
     <use xlink:href="#m0e361957c4" x="88.238776" y="48.57267" style="fill: #444444; stroke: #444444"/>
     <use xlink:href="#m0e361957c4" x="92.366447" y="49.186812" style="fill: #444444; stroke: #444444"/>
     <use xlink:href="#m0e361957c4" x="93.742337" y="51.029236" style="fill: #444444; stroke: #444444"/>
     <use xlink:href="#m0e361957c4" x="95.118228" y="47.344388" style="fill: #444444; stroke: #444444"/>
     <use xlink:href="#m0e361957c4" x="96.494118" y="47.344388" style="fill: #444444; stroke: #444444"/>
     <use xlink:href="#m0e361957c4" x="97.870009" y="51.643378" style="fill: #444444; stroke: #444444"/>
     <use xlink:href="#m0e361957c4" x="101.99768" y="50.415095" style="fill: #444444; stroke: #444444"/>
     <use xlink:href="#m0e361957c4" x="103.37357" y="50.415095" style="fill: #444444; stroke: #444444"/>
     <use xlink:href="#m0e361957c4" x="104.749461" y="51.643378" style="fill: #444444; stroke: #444444"/>
     <use xlink:href="#m0e361957c4" x="106.125351" y="52.257519" style="fill: #444444; stroke: #444444"/>
     <use xlink:href="#m0e361957c4" x="107.501241" y="52.87166" style="fill: #444444; stroke: #444444"/>
     <use xlink:href="#m0e361957c4" x="111.628913" y="54.099943" style="fill: #444444; stroke: #444444"/>
     <use xlink:href="#m0e361957c4" x="113.004803" y="55.942367" style="fill: #444444; stroke: #444444"/>
     <use xlink:href="#m0e361957c4" x="114.380693" y="55.328226" style="fill: #444444; stroke: #444444"/>
     <use xlink:href="#m0e361957c4" x="115.756584" y="55.328226" style="fill: #444444; stroke: #444444"/>
     <use xlink:href="#m0e361957c4" x="117.132474" y="56.556509" style="fill: #444444; stroke: #444444"/>
     <use xlink:href="#m0e361957c4" x="121.260146" y="56.556509" style="fill: #444444; stroke: #444444"/>
     <use xlink:href="#m0e361957c4" x="122.636036" y="56.556509" style="fill: #444444; stroke: #444444"/>
     <use xlink:href="#m0e361957c4" x="124.011926" y="55.942367" style="fill: #444444; stroke: #444444"/>
     <use xlink:href="#m0e361957c4" x="125.387817" y="55.328226" style="fill: #444444; stroke: #444444"/>
     <use xlink:href="#m0e361957c4" x="126.763707" y="55.328226" style="fill: #444444; stroke: #444444"/>
     <use xlink:href="#m0e361957c4" x="130.891378" y="57.17065" style="fill: #444444; stroke: #444444"/>
     <use xlink:href="#m0e361957c4" x="132.267269" y="57.17065" style="fill: #444444; stroke: #444444"/>
     <use xlink:href="#m0e361957c4" x="133.643159" y="57.784792" style="fill: #444444; stroke: #444444"/>
     <use xlink:href="#m0e361957c4" x="135.01905" y="57.17065" style="fill: #444444; stroke: #444444"/>
     <use xlink:href="#m0e361957c4" x="136.39494" y="65.154489" style="fill: #444444; stroke: #444444"/>
     <use xlink:href="#m0e361957c4" x="140.522611" y="63.312064" style="fill: #444444; stroke: #444444"/>
     <use xlink:href="#m0e361957c4" x="141.898502" y="65.154489" style="fill: #444444; stroke: #444444"/>
     <use xlink:href="#m0e361957c4" x="143.274392" y="65.76863" style="fill: #444444; stroke: #444444"/>
     <use xlink:href="#m0e361957c4" x="144.650283" y="65.154489" style="fill: #444444; stroke: #444444"/>
     <use xlink:href="#m0e361957c4" x="146.026173" y="63.312064" style="fill: #444444; stroke: #444444"/>
     <use xlink:href="#m0e361957c4" x="150.153844" y="62.083782" style="fill: #444444; stroke: #444444"/>
     <use xlink:href="#m0e361957c4" x="151.529735" y="63.312064" style="fill: #444444; stroke: #444444"/>
     <use xlink:href="#m0e361957c4" x="152.905625" y="63.926206" style="fill: #444444; stroke: #444444"/>
     <use xlink:href="#m0e361957c4" x="154.281515" y="65.154489" style="fill: #444444; stroke: #444444"/>
     <use xlink:href="#m0e361957c4" x="155.657406" y="66.996913" style="fill: #444444; stroke: #444444"/>
     <use xlink:href="#m0e361957c4" x="159.785077" y="65.76863" style="fill: #444444; stroke: #444444"/>
     <use xlink:href="#m0e361957c4" x="161.160967" y="62.697923" style="fill: #444444; stroke: #444444"/>
     <use xlink:href="#m0e361957c4" x="162.536858" y="63.312064" style="fill: #444444; stroke: #444444"/>
     <use xlink:href="#m0e361957c4" x="163.912748" y="63.312064" style="fill: #444444; stroke: #444444"/>
     <use xlink:href="#m0e361957c4" x="165.288639" y="63.926206" style="fill: #444444; stroke: #444444"/>
     <use xlink:href="#m0e361957c4" x="169.41631" y="64.540347" style="fill: #444444; stroke: #444444"/>
     <use xlink:href="#m0e361957c4" x="170.7922" y="64.540347" style="fill: #444444; stroke: #444444"/>
     <use xlink:href="#m0e361957c4" x="172.168091" y="62.697923" style="fill: #444444; stroke: #444444"/>
     <use xlink:href="#m0e361957c4" x="173.543981" y="62.697923" style="fill: #444444; stroke: #444444"/>
     <use xlink:href="#m0e361957c4" x="174.919872" y="65.154489" style="fill: #444444; stroke: #444444"/>
     <use xlink:href="#m0e361957c4" x="179.047543" y="63.312064" style="fill: #444444; stroke: #444444"/>
     <use xlink:href="#m0e361957c4" x="180.423433" y="63.312064" style="fill: #444444; stroke: #444444"/>
     <use xlink:href="#m0e361957c4" x="181.799324" y="62.697923" style="fill: #444444; stroke: #444444"/>
     <use xlink:href="#m0e361957c4" x="183.175214" y="60.855499" style="fill: #444444; stroke: #444444"/>
     <use xlink:href="#m0e361957c4" x="184.551104" y="60.241357" style="fill: #444444; stroke: #444444"/>
     <use xlink:href="#m0e361957c4" x="188.678776" y="60.855499" style="fill: #444444; stroke: #444444"/>
     <use xlink:href="#m0e361957c4" x="190.054666" y="62.083782" style="fill: #444444; stroke: #444444"/>
     <use xlink:href="#m0e361957c4" x="191.430557" y="60.855499" style="fill: #444444; stroke: #444444"/>
     <use xlink:href="#m0e361957c4" x="192.806447" y="59.013074" style="fill: #444444; stroke: #444444"/>
     <use xlink:href="#m0e361957c4" x="194.182337" y="55.942367" style="fill: #444444; stroke: #444444"/>
     <use xlink:href="#m0e361957c4" x="198.310009" y="57.17065" style="fill: #444444; stroke: #444444"/>
     <use xlink:href="#m0e361957c4" x="199.685899" y="55.328226" style="fill: #444444; stroke: #444444"/>
     <use xlink:href="#m0e361957c4" x="201.061789" y="57.784792" style="fill: #444444; stroke: #444444"/>
     <use xlink:href="#m0e361957c4" x="202.43768" y="56.556509" style="fill: #444444; stroke: #444444"/>
     <use xlink:href="#m0e361957c4" x="203.81357" y="58.398933" style="fill: #444444; stroke: #444444"/>
     <use xlink:href="#m0e361957c4" x="207.941241" y="57.17065" style="fill: #444444; stroke: #444444"/>
     <use xlink:href="#m0e361957c4" x="209.317132" y="58.398933" style="fill: #444444; stroke: #444444"/>
     <use xlink:href="#m0e361957c4" x="210.693022" y="57.784792" style="fill: #444444; stroke: #444444"/>
     <use xlink:href="#m0e361957c4" x="212.068913" y="58.398933" style="fill: #444444; stroke: #444444"/>
     <use xlink:href="#m0e361957c4" x="213.444803" y="57.784792" style="fill: #444444; stroke: #444444"/>
     <use xlink:href="#m0e361957c4" x="217.572474" y="56.556509" style="fill: #444444; stroke: #444444"/>
     <use xlink:href="#m0e361957c4" x="218.948365" y="57.784792" style="fill: #444444; stroke: #444444"/>
     <use xlink:href="#m0e361957c4" x="220.324255" y="56.556509" style="fill: #444444; stroke: #444444"/>
     <use xlink:href="#m0e361957c4" x="221.700146" y="59.627216" style="fill: #444444; stroke: #444444"/>
     <use xlink:href="#m0e361957c4" x="223.076036" y="59.013074" style="fill: #444444; stroke: #444444"/>
     <use xlink:href="#m0e361957c4" x="227.203707" y="58.398933" style="fill: #444444; stroke: #444444"/>
     <use xlink:href="#m0e361957c4" x="228.579598" y="60.241357" style="fill: #444444; stroke: #444444"/>
     <use xlink:href="#m0e361957c4" x="229.955488" y="57.784792" style="fill: #444444; stroke: #444444"/>
     <use xlink:href="#m0e361957c4" x="231.331378" y="59.627216" style="fill: #444444; stroke: #444444"/>
     <use xlink:href="#m0e361957c4" x="232.707269" y="60.855499" style="fill: #444444; stroke: #444444"/>
     <use xlink:href="#m0e361957c4" x="236.83494" y="60.855499" style="fill: #444444; stroke: #444444"/>
     <use xlink:href="#m0e361957c4" x="238.21083" y="59.013074" style="fill: #444444; stroke: #444444"/>
     <use xlink:href="#m0e361957c4" x="239.586721" y="56.556509" style="fill: #444444; stroke: #444444"/>
     <use xlink:href="#m0e361957c4" x="240.962611" y="56.556509" style="fill: #444444; stroke: #444444"/>
     <use xlink:href="#m0e361957c4" x="242.338502" y="56.556509" style="fill: #444444; stroke: #444444"/>
     <use xlink:href="#m0e361957c4" x="246.466173" y="57.17065" style="fill: #444444; stroke: #444444"/>
     <use xlink:href="#m0e361957c4" x="247.842063" y="56.556509" style="fill: #444444; stroke: #444444"/>
     <use xlink:href="#m0e361957c4" x="249.217954" y="57.17065" style="fill: #444444; stroke: #444444"/>
     <use xlink:href="#m0e361957c4" x="250.593844" y="57.17065" style="fill: #444444; stroke: #444444"/>
     <use xlink:href="#m0e361957c4" x="251.969735" y="57.784792" style="fill: #444444; stroke: #444444"/>
     <use xlink:href="#m0e361957c4" x="256.097406" y="58.398933" style="fill: #444444; stroke: #444444"/>
     <use xlink:href="#m0e361957c4" x="257.473296" y="59.013074" style="fill: #444444; stroke: #444444"/>
     <use xlink:href="#m0e361957c4" x="258.849187" y="58.398933" style="fill: #444444; stroke: #444444"/>
     <use xlink:href="#m0e361957c4" x="260.225077" y="60.855499" style="fill: #444444; stroke: #444444"/>
     <use xlink:href="#m0e361957c4" x="261.600967" y="63.312064" style="fill: #444444; stroke: #444444"/>
     <use xlink:href="#m0e361957c4" x="265.728639" y="62.697923" style="fill: #444444; stroke: #444444"/>
     <use xlink:href="#m0e361957c4" x="267.104529" y="62.697923" style="fill: #444444; stroke: #444444"/>
     <use xlink:href="#m0e361957c4" x="268.48042" y="64.540347" style="fill: #444444; stroke: #444444"/>
     <use xlink:href="#m0e361957c4" x="269.85631" y="63.312064" style="fill: #444444; stroke: #444444"/>
     <use xlink:href="#m0e361957c4" x="271.2322" y="62.083782" style="fill: #444444; stroke: #444444"/>
     <use xlink:href="#m0e361957c4" x="275.359872" y="60.241357" style="fill: #444444; stroke: #444444"/>
     <use xlink:href="#m0e361957c4" x="276.735762" y="59.627216" style="fill: #444444; stroke: #444444"/>
     <use xlink:href="#m0e361957c4" x="278.111652" y="59.627216" style="fill: #444444; stroke: #444444"/>
     <use xlink:href="#m0e361957c4" x="279.487543" y="59.627216" style="fill: #444444; stroke: #444444"/>
     <use xlink:href="#m0e361957c4" x="280.863433" y="58.398933" style="fill: #444444; stroke: #444444"/>
     <use xlink:href="#m0e361957c4" x="284.991104" y="59.627216" style="fill: #444444; stroke: #444444"/>
     <use xlink:href="#m0e361957c4" x="286.366995" y="60.241357" style="fill: #444444; stroke: #444444"/>
     <use xlink:href="#m0e361957c4" x="287.742885" y="56.556509" style="fill: #444444; stroke: #444444"/>
     <use xlink:href="#m0e361957c4" x="289.118776" y="57.17065" style="fill: #444444; stroke: #444444"/>
     <use xlink:href="#m0e361957c4" x="290.494666" y="56.556509" style="fill: #444444; stroke: #444444"/>
     <use xlink:href="#m0e361957c4" x="294.622337" y="57.784792" style="fill: #444444; stroke: #444444"/>
     <use xlink:href="#m0e361957c4" x="295.998228" y="57.784792" style="fill: #444444; stroke: #444444"/>
     <use xlink:href="#m0e361957c4" x="297.374118" y="58.398933" style="fill: #444444; stroke: #444444"/>
     <use xlink:href="#m0e361957c4" x="298.750009" y="59.013074" style="fill: #444444; stroke: #444444"/>
     <use xlink:href="#m0e361957c4" x="300.125899" y="56.556509" style="fill: #444444; stroke: #444444"/>
     <use xlink:href="#m0e361957c4" x="304.25357" y="55.942367" style="fill: #444444; stroke: #444444"/>
     <use xlink:href="#m0e361957c4" x="305.629461" y="57.784792" style="fill: #444444; stroke: #444444"/>
     <use xlink:href="#m0e361957c4" x="307.005351" y="57.17065" style="fill: #444444; stroke: #444444"/>
     <use xlink:href="#m0e361957c4" x="308.381241" y="58.398933" style="fill: #444444; stroke: #444444"/>
     <use xlink:href="#m0e361957c4" x="309.757132" y="57.784792" style="fill: #444444; stroke: #444444"/>
     <use xlink:href="#m0e361957c4" x="313.884803" y="57.784792" style="fill: #444444; stroke: #444444"/>
     <use xlink:href="#m0e361957c4" x="315.260693" y="58.398933" style="fill: #444444; stroke: #444444"/>
     <use xlink:href="#m0e361957c4" x="316.636584" y="59.013074" style="fill: #444444; stroke: #444444"/>
     <use xlink:href="#m0e361957c4" x="318.012474" y="59.013074" style="fill: #444444; stroke: #444444"/>
     <use xlink:href="#m0e361957c4" x="319.388365" y="59.013074" style="fill: #444444; stroke: #444444"/>
     <use xlink:href="#m0e361957c4" x="323.516036" y="59.013074" style="fill: #444444; stroke: #444444"/>
     <use xlink:href="#m0e361957c4" x="324.891926" y="60.241357" style="fill: #444444; stroke: #444444"/>
     <use xlink:href="#m0e361957c4" x="326.267817" y="59.013074" style="fill: #444444; stroke: #444444"/>
     <use xlink:href="#m0e361957c4" x="327.643707" y="56.556509" style="fill: #444444; stroke: #444444"/>
     <use xlink:href="#m0e361957c4" x="329.019598" y="57.17065" style="fill: #444444; stroke: #444444"/>
     <use xlink:href="#m0e361957c4" x="333.147269" y="57.17065" style="fill: #444444; stroke: #444444"/>
     <use xlink:href="#m0e361957c4" x="334.523159" y="57.17065" style="fill: #444444; stroke: #444444"/>
     <use xlink:href="#m0e361957c4" x="335.89905" y="59.013074" style="fill: #444444; stroke: #444444"/>
     <use xlink:href="#m0e361957c4" x="337.27494" y="57.784792" style="fill: #444444; stroke: #444444"/>
     <use xlink:href="#m0e361957c4" x="338.65083" y="56.556509" style="fill: #444444; stroke: #444444"/>
     <use xlink:href="#m0e361957c4" x="342.778502" y="58.398933" style="fill: #444444; stroke: #444444"/>
     <use xlink:href="#m0e361957c4" x="344.154392" y="58.398933" style="fill: #444444; stroke: #444444"/>
     <use xlink:href="#m0e361957c4" x="345.530283" y="57.17065" style="fill: #444444; stroke: #444444"/>
     <use xlink:href="#m0e361957c4" x="346.906173" y="55.328226" style="fill: #444444; stroke: #444444"/>
     <use xlink:href="#m0e361957c4" x="348.282063" y="53.485802" style="fill: #444444; stroke: #444444"/>
     <use xlink:href="#m0e361957c4" x="352.409735" y="55.328226" style="fill: #444444; stroke: #444444"/>
     <use xlink:href="#m0e361957c4" x="353.785625" y="55.942367" style="fill: #444444; stroke: #444444"/>
     <use xlink:href="#m0e361957c4" x="355.161515" y="55.328226" style="fill: #444444; stroke: #444444"/>
     <use xlink:href="#m0e361957c4" x="356.537406" y="53.485802" style="fill: #444444; stroke: #444444"/>
     <use xlink:href="#m0e361957c4" x="357.913296" y="54.714085" style="fill: #444444; stroke: #444444"/>
     <use xlink:href="#m0e361957c4" x="362.040967" y="53.485802" style="fill: #444444; stroke: #444444"/>
     <use xlink:href="#m0e361957c4" x="363.416858" y="49.800953" style="fill: #444444; stroke: #444444"/>
     <use xlink:href="#m0e361957c4" x="364.792748" y="48.57267" style="fill: #444444; stroke: #444444"/>
     <use xlink:href="#m0e361957c4" x="366.168639" y="46.116105" style="fill: #444444; stroke: #444444"/>
     <use xlink:href="#m0e361957c4" x="367.544529" y="46.116105" style="fill: #444444; stroke: #444444"/>
     <use xlink:href="#m0e361957c4" x="371.6722" y="41.817115" style="fill: #444444; stroke: #444444"/>
     <use xlink:href="#m0e361957c4" x="373.048091" y="46.116105" style="fill: #444444; stroke: #444444"/>
     <use xlink:href="#m0e361957c4" x="374.423981" y="47.344388" style="fill: #444444; stroke: #444444"/>
     <use xlink:href="#m0e361957c4" x="375.799872" y="47.344388" style="fill: #444444; stroke: #444444"/>
     <use xlink:href="#m0e361957c4" x="377.175762" y="45.501963" style="fill: #444444; stroke: #444444"/>
     <use xlink:href="#m0e361957c4" x="381.303433" y="45.501963" style="fill: #444444; stroke: #444444"/>
     <use xlink:href="#m0e361957c4" x="382.679324" y="44.887822" style="fill: #444444; stroke: #444444"/>
     <use xlink:href="#m0e361957c4" x="384.055214" y="44.273681" style="fill: #444444; stroke: #444444"/>
     <use xlink:href="#m0e361957c4" x="385.431104" y="45.501963" style="fill: #444444; stroke: #444444"/>
     <use xlink:href="#m0e361957c4" x="386.806995" y="43.659539" style="fill: #444444; stroke: #444444"/>
     <use xlink:href="#m0e361957c4" x="390.934666" y="46.116105" style="fill: #444444; stroke: #444444"/>
     <use xlink:href="#m0e361957c4" x="392.310557" y="45.501963" style="fill: #444444; stroke: #444444"/>
     <use xlink:href="#m0e361957c4" x="393.686447" y="44.273681" style="fill: #444444; stroke: #444444"/>
     <use xlink:href="#m0e361957c4" x="395.062337" y="45.501963" style="fill: #444444; stroke: #444444"/>
     <use xlink:href="#m0e361957c4" x="396.438228" y="43.045398" style="fill: #444444; stroke: #444444"/>
     <use xlink:href="#m0e361957c4" x="400.565899" y="44.273681" style="fill: #444444; stroke: #444444"/>
     <use xlink:href="#m0e361957c4" x="401.941789" y="44.887822" style="fill: #444444; stroke: #444444"/>
     <use xlink:href="#m0e361957c4" x="403.31768" y="43.659539" style="fill: #444444; stroke: #444444"/>
     <use xlink:href="#m0e361957c4" x="404.69357" y="43.045398" style="fill: #444444; stroke: #444444"/>
     <use xlink:href="#m0e361957c4" x="406.069461" y="43.659539" style="fill: #444444; stroke: #444444"/>
     <use xlink:href="#m0e361957c4" x="410.197132" y="43.045398" style="fill: #444444; stroke: #444444"/>
     <use xlink:href="#m0e361957c4" x="411.573022" y="44.273681" style="fill: #444444; stroke: #444444"/>
     <use xlink:href="#m0e361957c4" x="412.948913" y="44.887822" style="fill: #444444; stroke: #444444"/>
     <use xlink:href="#m0e361957c4" x="414.324803" y="47.344388" style="fill: #444444; stroke: #444444"/>
     <use xlink:href="#m0e361957c4" x="415.700693" y="48.57267" style="fill: #444444; stroke: #444444"/>
     <use xlink:href="#m0e361957c4" x="419.828365" y="47.344388" style="fill: #444444; stroke: #444444"/>
     <use xlink:href="#m0e361957c4" x="421.204255" y="44.273681" style="fill: #444444; stroke: #444444"/>
     <use xlink:href="#m0e361957c4" x="422.580146" y="41.817115" style="fill: #444444; stroke: #444444"/>
     <use xlink:href="#m0e361957c4" x="423.956036" y="45.501963" style="fill: #444444; stroke: #444444"/>
     <use xlink:href="#m0e361957c4" x="425.331926" y="45.501963" style="fill: #444444; stroke: #444444"/>
     <use xlink:href="#m0e361957c4" x="429.459598" y="44.273681" style="fill: #444444; stroke: #444444"/>
     <use xlink:href="#m0e361957c4" x="430.835488" y="44.273681" style="fill: #444444; stroke: #444444"/>
     <use xlink:href="#m0e361957c4" x="432.211378" y="47.958529" style="fill: #444444; stroke: #444444"/>
     <use xlink:href="#m0e361957c4" x="433.587269" y="46.730246" style="fill: #444444; stroke: #444444"/>
     <use xlink:href="#m0e361957c4" x="434.963159" y="44.887822" style="fill: #444444; stroke: #444444"/>
     <use xlink:href="#m0e361957c4" x="439.09083" y="44.273681" style="fill: #444444; stroke: #444444"/>
     <use xlink:href="#m0e361957c4" x="440.466721" y="47.344388" style="fill: #444444; stroke: #444444"/>
     <use xlink:href="#m0e361957c4" x="441.842611" y="46.730246" style="fill: #444444; stroke: #444444"/>
     <use xlink:href="#m0e361957c4" x="443.218502" y="45.501963" style="fill: #444444; stroke: #444444"/>
     <use xlink:href="#m0e361957c4" x="444.594392" y="48.57267" style="fill: #444444; stroke: #444444"/>
     <use xlink:href="#m0e361957c4" x="448.722063" y="46.116105" style="fill: #444444; stroke: #444444"/>
     <use xlink:href="#m0e361957c4" x="450.097954" y="43.659539" style="fill: #444444; stroke: #444444"/>
     <use xlink:href="#m0e361957c4" x="451.473844" y="43.659539" style="fill: #444444; stroke: #444444"/>
     <use xlink:href="#m0e361957c4" x="452.849735" y="44.273681" style="fill: #444444; stroke: #444444"/>
     <use xlink:href="#m0e361957c4" x="454.225625" y="42.431256" style="fill: #444444; stroke: #444444"/>
     <use xlink:href="#m0e361957c4" x="458.353296" y="42.431256" style="fill: #444444; stroke: #444444"/>
     <use xlink:href="#m0e361957c4" x="459.729187" y="43.045398" style="fill: #444444; stroke: #444444"/>
     <use xlink:href="#m0e361957c4" x="461.105077" y="42.431256" style="fill: #444444; stroke: #444444"/>
     <use xlink:href="#m0e361957c4" x="462.480967" y="42.431256" style="fill: #444444; stroke: #444444"/>
     <use xlink:href="#m0e361957c4" x="463.856858" y="41.817115" style="fill: #444444; stroke: #444444"/>
     <use xlink:href="#m0e361957c4" x="467.984529" y="44.887822" style="fill: #444444; stroke: #444444"/>
     <use xlink:href="#m0e361957c4" x="469.36042" y="43.045398" style="fill: #444444; stroke: #444444"/>
     <use xlink:href="#m0e361957c4" x="470.73631" y="43.045398" style="fill: #444444; stroke: #444444"/>
     <use xlink:href="#m0e361957c4" x="472.1122" y="43.045398" style="fill: #444444; stroke: #444444"/>
     <use xlink:href="#m0e361957c4" x="473.488091" y="47.344388" style="fill: #444444; stroke: #444444"/>
     <use xlink:href="#m0e361957c4" x="477.615762" y="47.958529" style="fill: #444444; stroke: #444444"/>
     <use xlink:href="#m0e361957c4" x="478.991652" y="47.958529" style="fill: #444444; stroke: #444444"/>
     <use xlink:href="#m0e361957c4" x="480.367543" y="48.57267" style="fill: #444444; stroke: #444444"/>
     <use xlink:href="#m0e361957c4" x="481.743433" y="47.344388" style="fill: #444444; stroke: #444444"/>
     <use xlink:href="#m0e361957c4" x="483.119324" y="47.958529" style="fill: #444444; stroke: #444444"/>
     <use xlink:href="#m0e361957c4" x="487.246995" y="47.958529" style="fill: #444444; stroke: #444444"/>
     <use xlink:href="#m0e361957c4" x="488.622885" y="47.344388" style="fill: #444444; stroke: #444444"/>
     <use xlink:href="#m0e361957c4" x="489.998776" y="50.415095" style="fill: #444444; stroke: #444444"/>
     <use xlink:href="#m0e361957c4" x="491.374666" y="51.643378" style="fill: #444444; stroke: #444444"/>
     <use xlink:href="#m0e361957c4" x="492.750557" y="49.186812" style="fill: #444444; stroke: #444444"/>
     <use xlink:href="#m0e361957c4" x="496.878228" y="46.730246" style="fill: #444444; stroke: #444444"/>
     <use xlink:href="#m0e361957c4" x="498.254118" y="46.730246" style="fill: #444444; stroke: #444444"/>
     <use xlink:href="#m0e361957c4" x="499.630009" y="47.958529" style="fill: #444444; stroke: #444444"/>
     <use xlink:href="#m0e361957c4" x="501.005899" y="49.800953" style="fill: #444444; stroke: #444444"/>
     <use xlink:href="#m0e361957c4" x="502.381789" y="47.958529" style="fill: #444444; stroke: #444444"/>
     <use xlink:href="#m0e361957c4" x="506.509461" y="46.730246" style="fill: #444444; stroke: #444444"/>
     <use xlink:href="#m0e361957c4" x="507.885351" y="45.501963" style="fill: #444444; stroke: #444444"/>
     <use xlink:href="#m0e361957c4" x="509.261241" y="48.57267" style="fill: #444444; stroke: #444444"/>
     <use xlink:href="#m0e361957c4" x="510.637132" y="49.186812" style="fill: #444444; stroke: #444444"/>
     <use xlink:href="#m0e361957c4" x="512.013022" y="47.344388" style="fill: #444444; stroke: #444444"/>
     <use xlink:href="#m0e361957c4" x="516.140693" y="47.344388" style="fill: #444444; stroke: #444444"/>
     <use xlink:href="#m0e361957c4" x="517.516584" y="48.57267" style="fill: #444444; stroke: #444444"/>
     <use xlink:href="#m0e361957c4" x="518.892474" y="48.57267" style="fill: #444444; stroke: #444444"/>
     <use xlink:href="#m0e361957c4" x="520.268365" y="47.344388" style="fill: #444444; stroke: #444444"/>
     <use xlink:href="#m0e361957c4" x="521.644255" y="47.344388" style="fill: #444444; stroke: #444444"/>
     <use xlink:href="#m0e361957c4" x="525.771926" y="46.116105" style="fill: #444444; stroke: #444444"/>
     <use xlink:href="#m0e361957c4" x="527.147817" y="44.887822" style="fill: #444444; stroke: #444444"/>
     <use xlink:href="#m0e361957c4" x="528.523707" y="42.431256" style="fill: #444444; stroke: #444444"/>
     <use xlink:href="#m0e361957c4" x="529.899598" y="41.202973" style="fill: #444444; stroke: #444444"/>
     <use xlink:href="#m0e361957c4" x="531.275488" y="39.360549" style="fill: #444444; stroke: #444444"/>
     <use xlink:href="#m0e361957c4" x="535.403159" y="40.588832" style="fill: #444444; stroke: #444444"/>
     <use xlink:href="#m0e361957c4" x="536.77905" y="39.974691" style="fill: #444444; stroke: #444444"/>
     <use xlink:href="#m0e361957c4" x="538.15494" y="38.746408" style="fill: #444444; stroke: #444444"/>
     <use xlink:href="#m0e361957c4" x="539.53083" y="35.061559" style="fill: #444444; stroke: #444444"/>
     <use xlink:href="#m0e361957c4" x="540.906721" y="33.833277" style="fill: #444444; stroke: #444444"/>
     <use xlink:href="#m0e361957c4" x="545.034392" y="30.762569" style="fill: #444444; stroke: #444444"/>
     <use xlink:href="#m0e361957c4" x="546.410283" y="31.376711" style="fill: #444444; stroke: #444444"/>
     <use xlink:href="#m0e361957c4" x="547.786173" y="29.534287" style="fill: #444444; stroke: #444444"/>
     <use xlink:href="#m0e361957c4" x="549.162063" y="29.534287" style="fill: #444444; stroke: #444444"/>
     <use xlink:href="#m0e361957c4" x="550.537954" y="26.46358" style="fill: #444444; stroke: #444444"/>
     <use xlink:href="#m0e361957c4" x="554.665625" y="28.306004" style="fill: #444444; stroke: #444444"/>
    </g>
   </g>
   <g id="line2d_32">
    <path d="M 52.465625 109.37267 
L 554.665625 109.37267 
" clip-path="url(#pa598ed780c)" style="fill: none; stroke: #000000; stroke-linecap: square"/>
   </g>
   <g id="patch_3">
    <path d="M 52.465625 113.518125 
L 52.465625 22.318125 
" style="fill: none; stroke: #000000; stroke-width: 0.8; stroke-linejoin: miter; stroke-linecap: square"/>
   </g>
   <g id="patch_4">
    <path d="M 554.665625 113.518125 
L 554.665625 22.318125 
" style="fill: none; stroke: #000000; stroke-width: 0.8; stroke-linejoin: miter; stroke-linecap: square"/>
   </g>
   <g id="patch_5">
    <path d="M 52.465625 113.518125 
L 554.665625 113.518125 
" style="fill: none; stroke: #000000; stroke-width: 0.8; stroke-linejoin: miter; stroke-linecap: square"/>
   </g>
   <g id="patch_6">
    <path d="M 52.465625 22.318125 
L 554.665625 22.318125 
" style="fill: none; stroke: #000000; stroke-width: 0.8; stroke-linejoin: miter; stroke-linecap: square"/>
   </g>
   <g id="text_17">
    <!-- UST10 – GoC10 Spread (bp) -->
    <g transform="translate(219.862813 16.318125) scale(0.12 -0.12)">
     <defs>
      <path id="DejaVuSans-38" d="M 556 4666 
L 1191 4666 
L 1191 1831 
Q 1191 1081 1462 751 
Q 1734 422 2344 422 
Q 2950 422 3222 751 
Q 3494 1081 3494 1831 
L 3494 4666 
L 4128 4666 
L 4128 1753 
Q 4128 841 3676 375 
Q 3225 -91 2344 -91 
Q 1459 -91 1007 375 
Q 556 841 556 1753 
L 556 4666 
z
" transform="scale(0.015625)"/>
      <path id="DejaVuSans-36" d="M 3425 4513 
L 3425 3897 
Q 3066 4069 2747 4153 
Q 2428 4238 2131 4238 
Q 1616 4238 1336 4038 
Q 1056 3838 1056 3469 
Q 1056 3159 1242 3001 
Q 1428 2844 1947 2747 
L 2328 2669 
Q 3034 2534 3370 2195 
Q 3706 1856 3706 1288 
Q 3706 609 3251 259 
Q 2797 -91 1919 -91 
Q 1588 -91 1214 -16 
Q 841 59 441 206 
L 441 856 
Q 825 641 1194 531 
Q 1563 422 1919 422 
Q 2459 422 2753 634 
Q 3047 847 3047 1241 
Q 3047 1584 2836 1778 
Q 2625 1972 2144 2069 
L 1759 2144 
Q 1053 2284 737 2584 
Q 422 2884 422 3419 
Q 422 4038 858 4394 
Q 1294 4750 2059 4750 
Q 2388 4750 2728 4690 
Q 3069 4631 3425 4513 
z
" transform="scale(0.015625)"/>
      <path id="DejaVuSans-37" d="M -19 4666 
L 3928 4666 
L 3928 4134 
L 2272 4134 
L 2272 0 
L 1638 0 
L 1638 4134 
L -19 4134 
L -19 4666 
z
" transform="scale(0.015625)"/>
      <path id="DejaVuSans-3" transform="scale(0.015625)"/>
      <path id="DejaVuSans-af5" d="M 313 1978 
L 2888 1978 
L 2888 1528 
L 313 1528 
L 313 1978 
z
" transform="scale(0.015625)"/>
      <path id="DejaVuSans-2a" d="M 3809 666 
L 3809 1919 
L 2778 1919 
L 2778 2438 
L 4434 2438 
L 4434 434 
Q 4069 175 3628 42 
Q 3188 -91 2688 -91 
Q 1594 -91 976 548 
Q 359 1188 359 2328 
Q 359 3472 976 4111 
Q 1594 4750 2688 4750 
Q 3144 4750 3555 4637 
Q 3966 4525 4313 4306 
L 4313 3634 
Q 3963 3931 3569 4081 
Q 3175 4231 2741 4231 
Q 1884 4231 1454 3753 
Q 1025 3275 1025 2328 
Q 1025 1384 1454 906 
Q 1884 428 2741 428 
Q 3075 428 3337 486 
Q 3600 544 3809 666 
z
" transform="scale(0.015625)"/>
      <path id="DejaVuSans-52" d="M 1959 3097 
Q 1497 3097 1228 2736 
Q 959 2375 959 1747 
Q 959 1119 1226 758 
Q 1494 397 1959 397 
Q 2419 397 2687 759 
Q 2956 1122 2956 1747 
Q 2956 2369 2687 2733 
Q 2419 3097 1959 3097 
z
M 1959 3584 
Q 2709 3584 3137 3096 
Q 3566 2609 3566 1747 
Q 3566 888 3137 398 
Q 2709 -91 1959 -91 
Q 1206 -91 779 398 
Q 353 888 353 1747 
Q 353 2609 779 3096 
Q 1206 3584 1959 3584 
z
" transform="scale(0.015625)"/>
      <path id="DejaVuSans-26" d="M 4122 4306 
L 4122 3641 
Q 3803 3938 3442 4084 
Q 3081 4231 2675 4231 
Q 1875 4231 1450 3742 
Q 1025 3253 1025 2328 
Q 1025 1406 1450 917 
Q 1875 428 2675 428 
Q 3081 428 3442 575 
Q 3803 722 4122 1019 
L 4122 359 
Q 3791 134 3420 21 
Q 3050 -91 2638 -91 
Q 1578 -91 968 557 
Q 359 1206 359 2328 
Q 359 3453 968 4101 
Q 1578 4750 2638 4750 
Q 3056 4750 3426 4639 
Q 3797 4528 4122 4306 
z
" transform="scale(0.015625)"/>
      <path id="DejaVuSans-55" d="M 2631 2963 
Q 2534 3019 2420 3045 
Q 2306 3072 2169 3072 
Q 1681 3072 1420 2755 
Q 1159 2438 1159 1844 
L 1159 0 
L 581 0 
L 581 3500 
L 1159 3500 
L 1159 2956 
Q 1341 3275 1631 3429 
Q 1922 3584 2338 3584 
Q 2397 3584 2469 3576 
Q 2541 3569 2628 3553 
L 2631 2963 
z
" transform="scale(0.015625)"/>
      <path id="DejaVuSans-48" d="M 3597 1894 
L 3597 1613 
L 953 1613 
Q 991 1019 1311 708 
Q 1631 397 2203 397 
Q 2534 397 2845 478 
Q 3156 559 3463 722 
L 3463 178 
Q 3153 47 2828 -22 
Q 2503 -91 2169 -91 
Q 1331 -91 842 396 
Q 353 884 353 1716 
Q 353 2575 817 3079 
Q 1281 3584 2069 3584 
Q 2775 3584 3186 3129 
Q 3597 2675 3597 1894 
z
M 3022 2063 
Q 3016 2534 2758 2815 
Q 2500 3097 2075 3097 
Q 1594 3097 1305 2825 
Q 1016 2553 972 2059 
L 3022 2063 
z
" transform="scale(0.015625)"/>
      <path id="DejaVuSans-44" d="M 2194 1759 
Q 1497 1759 1228 1600 
Q 959 1441 959 1056 
Q 959 750 1161 570 
Q 1363 391 1709 391 
Q 2188 391 2477 730 
Q 2766 1069 2766 1631 
L 2766 1759 
L 2194 1759 
z
M 3341 1997 
L 3341 0 
L 2766 0 
L 2766 531 
Q 2569 213 2275 61 
Q 1981 -91 1556 -91 
Q 1019 -91 701 211 
Q 384 513 384 1019 
Q 384 1609 779 1909 
Q 1175 2209 1959 2209 
L 2766 2209 
L 2766 2266 
Q 2766 2663 2505 2880 
Q 2244 3097 1772 3097 
Q 1472 3097 1187 3025 
Q 903 2953 641 2809 
L 641 3341 
Q 956 3463 1253 3523 
Q 1550 3584 1831 3584 
Q 2591 3584 2966 3190 
Q 3341 2797 3341 1997 
z
" transform="scale(0.015625)"/>
      <path id="DejaVuSans-47" d="M 2906 2969 
L 2906 4863 
L 3481 4863 
L 3481 0 
L 2906 0 
L 2906 525 
Q 2725 213 2448 61 
Q 2172 -91 1784 -91 
Q 1150 -91 751 415 
Q 353 922 353 1747 
Q 353 2572 751 3078 
Q 1150 3584 1784 3584 
Q 2172 3584 2448 3432 
Q 2725 3281 2906 2969 
z
M 947 1747 
Q 947 1113 1208 752 
Q 1469 391 1925 391 
Q 2381 391 2643 752 
Q 2906 1113 2906 1747 
Q 2906 2381 2643 2742 
Q 2381 3103 1925 3103 
Q 1469 3103 1208 2742 
Q 947 2381 947 1747 
z
" transform="scale(0.015625)"/>
      <path id="DejaVuSans-b" d="M 1984 4856 
Q 1566 4138 1362 3434 
Q 1159 2731 1159 2009 
Q 1159 1288 1364 580 
Q 1569 -128 1984 -844 
L 1484 -844 
Q 1016 -109 783 600 
Q 550 1309 550 2009 
Q 550 2706 781 3412 
Q 1013 4119 1484 4856 
L 1984 4856 
z
" transform="scale(0.015625)"/>
      <path id="DejaVuSans-c" d="M 513 4856 
L 1013 4856 
Q 1481 4119 1714 3412 
Q 1947 2706 1947 2009 
Q 1947 1309 1714 600 
Q 1481 -109 1013 -844 
L 513 -844 
Q 928 -128 1133 580 
Q 1338 1288 1338 2009 
Q 1338 2731 1133 3434 
Q 928 4138 513 4856 
z
" transform="scale(0.015625)"/>
     </defs>
     <use xlink:href="#DejaVuSans-38"/>
     <use xlink:href="#DejaVuSans-36" transform="translate(73.1875 0)"/>
     <use xlink:href="#DejaVuSans-37" transform="translate(136.671875 0)"/>
     <use xlink:href="#DejaVuSans-14" transform="translate(197.75 0)"/>
     <use xlink:href="#DejaVuSans-13" transform="translate(261.375 0)"/>
     <use xlink:href="#DejaVuSans-3" transform="translate(325 0)"/>
     <use xlink:href="#DejaVuSans-af5" transform="translate(356.78125 0)"/>
     <use xlink:href="#DejaVuSans-3" transform="translate(406.78125 0)"/>
     <use xlink:href="#DejaVuSans-2a" transform="translate(438.5625 0)"/>
     <use xlink:href="#DejaVuSans-52" transform="translate(516.046875 0)"/>
     <use xlink:href="#DejaVuSans-26" transform="translate(577.234375 0)"/>
     <use xlink:href="#DejaVuSans-14" transform="translate(647.0625 0)"/>
     <use xlink:href="#DejaVuSans-13" transform="translate(710.6875 0)"/>
     <use xlink:href="#DejaVuSans-3" transform="translate(774.3125 0)"/>
     <use xlink:href="#DejaVuSans-36" transform="translate(806.09375 0)"/>
     <use xlink:href="#DejaVuSans-53" transform="translate(869.578125 0)"/>
     <use xlink:href="#DejaVuSans-55" transform="translate(933.0625 0)"/>
     <use xlink:href="#DejaVuSans-48" transform="translate(971.96875 0)"/>
     <use xlink:href="#DejaVuSans-44" transform="translate(1033.5 0)"/>
     <use xlink:href="#DejaVuSans-47" transform="translate(1094.78125 0)"/>
     <use xlink:href="#DejaVuSans-3" transform="translate(1158.265625 0)"/>
     <use xlink:href="#DejaVuSans-b" transform="translate(1190.046875 0)"/>
     <use xlink:href="#DejaVuSans-45" transform="translate(1229.0625 0)"/>
     <use xlink:href="#DejaVuSans-53" transform="translate(1292.546875 0)"/>
     <use xlink:href="#DejaVuSans-c" transform="translate(1356.03125 0)"/>
    </g>
   </g>
  </g>
  <g id="axes_2">
   <g id="patch_7">
    <path d="M 52.465625 188.638125 
L 554.665625 188.638125 
L 554.665625 156.718125 
L 52.465625 156.718125 
z
" style="fill: #ffffff"/>
   </g>
   <g id="matplotlib.axis_3">
    <g id="xtick_13">
     <g id="line2d_33">
      <path d="M 89.614666 188.638125 
L 89.614666 156.718125 
" clip-path="url(#paafeed7488)" style="fill: none; stroke: #b0b0b0; stroke-opacity: 0.15; stroke-width: 0.8; stroke-linecap: square"/>
     </g>
     <g id="line2d_34">
      <g>
       <use xlink:href="#me78bd60a65" x="89.614666" y="188.638125" style="stroke: #000000; stroke-width: 0.8"/>
      </g>
     </g>
     <g id="text_18">
      <!-- 2025-11 -->
      <g transform="translate(58.371042 230.555389) rotate(-45) scale(0.1 -0.1)">
       <use xlink:href="#DejaVuSans-15"/>
       <use xlink:href="#DejaVuSans-13" transform="translate(63.625 0)"/>
       <use xlink:href="#DejaVuSans-15" transform="translate(127.25 0)"/>
       <use xlink:href="#DejaVuSans-18" transform="translate(190.875 0)"/>
       <use xlink:href="#DejaVuSans-10" transform="translate(254.5 0)"/>
       <use xlink:href="#DejaVuSans-14" transform="translate(290.578125 0)"/>
       <use xlink:href="#DejaVuSans-14" transform="translate(354.203125 0)"/>
      </g>
     </g>
    </g>
    <g id="xtick_14">
     <g id="line2d_35">
      <path d="M 130.891378 188.638125 
L 130.891378 156.718125 
" clip-path="url(#paafeed7488)" style="fill: none; stroke: #b0b0b0; stroke-opacity: 0.15; stroke-width: 0.8; stroke-linecap: square"/>
     </g>
     <g id="line2d_36">
      <g>
       <use xlink:href="#me78bd60a65" x="130.891378" y="188.638125" style="stroke: #000000; stroke-width: 0.8"/>
      </g>
     </g>
     <g id="text_19">
      <!-- 2025-12 -->
      <g transform="translate(99.647755 230.555389) rotate(-45) scale(0.1 -0.1)">
       <use xlink:href="#DejaVuSans-15"/>
       <use xlink:href="#DejaVuSans-13" transform="translate(63.625 0)"/>
       <use xlink:href="#DejaVuSans-15" transform="translate(127.25 0)"/>
       <use xlink:href="#DejaVuSans-18" transform="translate(190.875 0)"/>
       <use xlink:href="#DejaVuSans-10" transform="translate(254.5 0)"/>
       <use xlink:href="#DejaVuSans-14" transform="translate(290.578125 0)"/>
       <use xlink:href="#DejaVuSans-15" transform="translate(354.203125 0)"/>
      </g>
     </g>
    </g>
    <g id="xtick_15">
     <g id="line2d_37">
      <path d="M 173.543981 188.638125 
L 173.543981 156.718125 
" clip-path="url(#paafeed7488)" style="fill: none; stroke: #b0b0b0; stroke-opacity: 0.15; stroke-width: 0.8; stroke-linecap: square"/>
     </g>
     <g id="line2d_38">
      <g>
       <use xlink:href="#me78bd60a65" x="173.543981" y="188.638125" style="stroke: #000000; stroke-width: 0.8"/>
      </g>
     </g>
     <g id="text_20">
      <!-- 2026-01 -->
      <g transform="translate(142.300358 230.555389) rotate(-45) scale(0.1 -0.1)">
       <use xlink:href="#DejaVuSans-15"/>
       <use xlink:href="#DejaVuSans-13" transform="translate(63.625 0)"/>
       <use xlink:href="#DejaVuSans-15" transform="translate(127.25 0)"/>
       <use xlink:href="#DejaVuSans-19" transform="translate(190.875 0)"/>
       <use xlink:href="#DejaVuSans-10" transform="translate(254.5 0)"/>
       <use xlink:href="#DejaVuSans-13" transform="translate(290.578125 0)"/>
       <use xlink:href="#DejaVuSans-14" transform="translate(354.203125 0)"/>
      </g>
     </g>
    </g>
    <g id="xtick_16">
     <g id="line2d_39">
      <path d="M 216.196584 188.638125 
L 216.196584 156.718125 
" clip-path="url(#paafeed7488)" style="fill: none; stroke: #b0b0b0; stroke-opacity: 0.15; stroke-width: 0.8; stroke-linecap: square"/>
     </g>
     <g id="line2d_40">
      <g>
       <use xlink:href="#me78bd60a65" x="216.196584" y="188.638125" style="stroke: #000000; stroke-width: 0.8"/>
      </g>
     </g>
     <g id="text_21">
      <!-- 2026-02 -->
      <g transform="translate(184.95296 230.555389) rotate(-45) scale(0.1 -0.1)">
       <use xlink:href="#DejaVuSans-15"/>
       <use xlink:href="#DejaVuSans-13" transform="translate(63.625 0)"/>
       <use xlink:href="#DejaVuSans-15" transform="translate(127.25 0)"/>
       <use xlink:href="#DejaVuSans-19" transform="translate(190.875 0)"/>
       <use xlink:href="#DejaVuSans-10" transform="translate(254.5 0)"/>
       <use xlink:href="#DejaVuSans-13" transform="translate(290.578125 0)"/>
       <use xlink:href="#DejaVuSans-15" transform="translate(354.203125 0)"/>
      </g>
     </g>
    </g>
    <g id="xtick_17">
     <g id="line2d_41">
      <path d="M 254.721515 188.638125 
L 254.721515 156.718125 
" clip-path="url(#paafeed7488)" style="fill: none; stroke: #b0b0b0; stroke-opacity: 0.15; stroke-width: 0.8; stroke-linecap: square"/>
     </g>
     <g id="line2d_42">
      <g>
       <use xlink:href="#me78bd60a65" x="254.721515" y="188.638125" style="stroke: #000000; stroke-width: 0.8"/>
      </g>
     </g>
     <g id="text_22">
      <!-- 2026-03 -->
      <g transform="translate(223.477892 230.555389) rotate(-45) scale(0.1 -0.1)">
       <use xlink:href="#DejaVuSans-15"/>
       <use xlink:href="#DejaVuSans-13" transform="translate(63.625 0)"/>
       <use xlink:href="#DejaVuSans-15" transform="translate(127.25 0)"/>
       <use xlink:href="#DejaVuSans-19" transform="translate(190.875 0)"/>
       <use xlink:href="#DejaVuSans-10" transform="translate(254.5 0)"/>
       <use xlink:href="#DejaVuSans-13" transform="translate(290.578125 0)"/>
       <use xlink:href="#DejaVuSans-16" transform="translate(354.203125 0)"/>
      </g>
     </g>
    </g>
    <g id="xtick_18">
     <g id="line2d_43">
      <path d="M 297.374118 188.638125 
L 297.374118 156.718125 
" clip-path="url(#paafeed7488)" style="fill: none; stroke: #b0b0b0; stroke-opacity: 0.15; stroke-width: 0.8; stroke-linecap: square"/>
     </g>
     <g id="line2d_44">
      <g>
       <use xlink:href="#me78bd60a65" x="297.374118" y="188.638125" style="stroke: #000000; stroke-width: 0.8"/>
      </g>
     </g>
     <g id="text_23">
      <!-- 2026-04 -->
      <g transform="translate(266.130495 230.555389) rotate(-45) scale(0.1 -0.1)">
       <use xlink:href="#DejaVuSans-15"/>
       <use xlink:href="#DejaVuSans-13" transform="translate(63.625 0)"/>
       <use xlink:href="#DejaVuSans-15" transform="translate(127.25 0)"/>
       <use xlink:href="#DejaVuSans-19" transform="translate(190.875 0)"/>
       <use xlink:href="#DejaVuSans-10" transform="translate(254.5 0)"/>
       <use xlink:href="#DejaVuSans-13" transform="translate(290.578125 0)"/>
       <use xlink:href="#DejaVuSans-17" transform="translate(354.203125 0)"/>
      </g>
     </g>
    </g>
    <g id="xtick_19">
     <g id="line2d_45">
      <path d="M 338.65083 188.638125 
L 338.65083 156.718125 
" clip-path="url(#paafeed7488)" style="fill: none; stroke: #b0b0b0; stroke-opacity: 0.15; stroke-width: 0.8; stroke-linecap: square"/>
     </g>
     <g id="line2d_46">
      <g>
       <use xlink:href="#me78bd60a65" x="338.65083" y="188.638125" style="stroke: #000000; stroke-width: 0.8"/>
      </g>
     </g>
     <g id="text_24">
      <!-- 2026-05 -->
      <g transform="translate(307.407207 230.555389) rotate(-45) scale(0.1 -0.1)">
       <use xlink:href="#DejaVuSans-15"/>
       <use xlink:href="#DejaVuSans-13" transform="translate(63.625 0)"/>
       <use xlink:href="#DejaVuSans-15" transform="translate(127.25 0)"/>
       <use xlink:href="#DejaVuSans-19" transform="translate(190.875 0)"/>
       <use xlink:href="#DejaVuSans-10" transform="translate(254.5 0)"/>
       <use xlink:href="#DejaVuSans-13" transform="translate(290.578125 0)"/>
       <use xlink:href="#DejaVuSans-18" transform="translate(354.203125 0)"/>
      </g>
     </g>
    </g>
    <g id="xtick_20">
     <g id="line2d_47">
      <path d="M 381.303433 188.638125 
L 381.303433 156.718125 
" clip-path="url(#paafeed7488)" style="fill: none; stroke: #b0b0b0; stroke-opacity: 0.15; stroke-width: 0.8; stroke-linecap: square"/>
     </g>
     <g id="line2d_48">
      <g>
       <use xlink:href="#me78bd60a65" x="381.303433" y="188.638125" style="stroke: #000000; stroke-width: 0.8"/>
      </g>
     </g>
     <g id="text_25">
      <!-- 2026-06 -->
      <g transform="translate(350.05981 230.555389) rotate(-45) scale(0.1 -0.1)">
       <use xlink:href="#DejaVuSans-15"/>
       <use xlink:href="#DejaVuSans-13" transform="translate(63.625 0)"/>
       <use xlink:href="#DejaVuSans-15" transform="translate(127.25 0)"/>
       <use xlink:href="#DejaVuSans-19" transform="translate(190.875 0)"/>
       <use xlink:href="#DejaVuSans-10" transform="translate(254.5 0)"/>
       <use xlink:href="#DejaVuSans-13" transform="translate(290.578125 0)"/>
       <use xlink:href="#DejaVuSans-19" transform="translate(354.203125 0)"/>
      </g>
     </g>
    </g>
    <g id="xtick_21">
     <g id="line2d_49">
      <path d="M 422.580146 188.638125 
L 422.580146 156.718125 
" clip-path="url(#paafeed7488)" style="fill: none; stroke: #b0b0b0; stroke-opacity: 0.15; stroke-width: 0.8; stroke-linecap: square"/>
     </g>
     <g id="line2d_50">
      <g>
       <use xlink:href="#me78bd60a65" x="422.580146" y="188.638125" style="stroke: #000000; stroke-width: 0.8"/>
      </g>
     </g>
     <g id="text_26">
      <!-- 2026-07 -->
      <g transform="translate(391.336522 230.555389) rotate(-45) scale(0.1 -0.1)">
       <use xlink:href="#DejaVuSans-15"/>
       <use xlink:href="#DejaVuSans-13" transform="translate(63.625 0)"/>
       <use xlink:href="#DejaVuSans-15" transform="translate(127.25 0)"/>
       <use xlink:href="#DejaVuSans-19" transform="translate(190.875 0)"/>
       <use xlink:href="#DejaVuSans-10" transform="translate(254.5 0)"/>
       <use xlink:href="#DejaVuSans-13" transform="translate(290.578125 0)"/>
       <use xlink:href="#DejaVuSans-1a" transform="translate(354.203125 0)"/>
      </g>
     </g>
    </g>
    <g id="xtick_22">
     <g id="line2d_51">
      <path d="M 465.232748 188.638125 
L 465.232748 156.718125 
" clip-path="url(#paafeed7488)" style="fill: none; stroke: #b0b0b0; stroke-opacity: 0.15; stroke-width: 0.8; stroke-linecap: square"/>
     </g>
     <g id="line2d_52">
      <g>
       <use xlink:href="#me78bd60a65" x="465.232748" y="188.638125" style="stroke: #000000; stroke-width: 0.8"/>
      </g>
     </g>
     <g id="text_27">
      <!-- 2026-08 -->
      <g transform="translate(433.989125 230.555389) rotate(-45) scale(0.1 -0.1)">
       <use xlink:href="#DejaVuSans-15"/>
       <use xlink:href="#DejaVuSans-13" transform="translate(63.625 0)"/>
       <use xlink:href="#DejaVuSans-15" transform="translate(127.25 0)"/>
       <use xlink:href="#DejaVuSans-19" transform="translate(190.875 0)"/>
       <use xlink:href="#DejaVuSans-10" transform="translate(254.5 0)"/>
       <use xlink:href="#DejaVuSans-13" transform="translate(290.578125 0)"/>
       <use xlink:href="#DejaVuSans-1b" transform="translate(354.203125 0)"/>
      </g>
     </g>
    </g>
    <g id="xtick_23">
     <g id="line2d_53">
      <path d="M 507.885351 188.638125 
L 507.885351 156.718125 
" clip-path="url(#paafeed7488)" style="fill: none; stroke: #b0b0b0; stroke-opacity: 0.15; stroke-width: 0.8; stroke-linecap: square"/>
     </g>
     <g id="line2d_54">
      <g>
       <use xlink:href="#me78bd60a65" x="507.885351" y="188.638125" style="stroke: #000000; stroke-width: 0.8"/>
      </g>
     </g>
     <g id="text_28">
      <!-- 2026-09 -->
      <g transform="translate(476.641727 230.555389) rotate(-45) scale(0.1 -0.1)">
       <use xlink:href="#DejaVuSans-15"/>
       <use xlink:href="#DejaVuSans-13" transform="translate(63.625 0)"/>
       <use xlink:href="#DejaVuSans-15" transform="translate(127.25 0)"/>
       <use xlink:href="#DejaVuSans-19" transform="translate(190.875 0)"/>
       <use xlink:href="#DejaVuSans-10" transform="translate(254.5 0)"/>
       <use xlink:href="#DejaVuSans-13" transform="translate(290.578125 0)"/>
       <use xlink:href="#DejaVuSans-1c" transform="translate(354.203125 0)"/>
      </g>
     </g>
    </g>
    <g id="xtick_24">
     <g id="line2d_55">
      <path d="M 549.162063 188.638125 
L 549.162063 156.718125 
" clip-path="url(#paafeed7488)" style="fill: none; stroke: #b0b0b0; stroke-opacity: 0.15; stroke-width: 0.8; stroke-linecap: square"/>
     </g>
     <g id="line2d_56">
      <g>
       <use xlink:href="#me78bd60a65" x="549.162063" y="188.638125" style="stroke: #000000; stroke-width: 0.8"/>
      </g>
     </g>
     <g id="text_29">
      <!-- 2026-10 -->
      <g transform="translate(517.91844 230.555389) rotate(-45) scale(0.1 -0.1)">
       <use xlink:href="#DejaVuSans-15"/>
       <use xlink:href="#DejaVuSans-13" transform="translate(63.625 0)"/>
       <use xlink:href="#DejaVuSans-15" transform="translate(127.25 0)"/>
       <use xlink:href="#DejaVuSans-19" transform="translate(190.875 0)"/>
       <use xlink:href="#DejaVuSans-10" transform="translate(254.5 0)"/>
       <use xlink:href="#DejaVuSans-14" transform="translate(290.578125 0)"/>
       <use xlink:href="#DejaVuSans-13" transform="translate(354.203125 0)"/>
      </g>
     </g>
    </g>
   </g>
   <g id="matplotlib.axis_4">
    <g id="ytick_4">
     <g id="line2d_57">
      <path d="M 52.465625 187.897865 
L 554.665625 187.897865 
" clip-path="url(#paafeed7488)" style="fill: none; stroke: #b0b0b0; stroke-opacity: 0.15; stroke-width: 0.8; stroke-linecap: square"/>
     </g>
     <g id="line2d_58">
      <g>
       <use xlink:href="#mbf7ee547c3" x="52.465625" y="187.897865" style="stroke: #000000; stroke-width: 0.8"/>
      </g>
     </g>
     <g id="text_30">
      <!-- 1.35 -->
      <g transform="translate(23.2 191.696693) scale(0.1 -0.1)">
       <defs>
        <path id="DejaVuSans-11" d="M 684 794 
L 1344 794 
L 1344 0 
L 684 0 
L 684 794 
z
" transform="scale(0.015625)"/>
       </defs>
       <use xlink:href="#DejaVuSans-14"/>
       <use xlink:href="#DejaVuSans-11" transform="translate(63.625 0)"/>
       <use xlink:href="#DejaVuSans-16" transform="translate(95.40625 0)"/>
       <use xlink:href="#DejaVuSans-18" transform="translate(159.03125 0)"/>
      </g>
     </g>
    </g>
    <g id="ytick_5">
     <g id="line2d_59">
      <path d="M 52.465625 168.157606 
L 554.665625 168.157606 
" clip-path="url(#paafeed7488)" style="fill: none; stroke: #b0b0b0; stroke-opacity: 0.15; stroke-width: 0.8; stroke-linecap: square"/>
     </g>
     <g id="line2d_60">
      <g>
       <use xlink:href="#mbf7ee547c3" x="52.465625" y="168.157606" style="stroke: #000000; stroke-width: 0.8"/>
      </g>
     </g>
     <g id="text_31">
      <!-- 1.40 -->
      <g transform="translate(23.2 171.956434) scale(0.1 -0.1)">
       <use xlink:href="#DejaVuSans-14"/>
       <use xlink:href="#DejaVuSans-11" transform="translate(63.625 0)"/>
       <use xlink:href="#DejaVuSans-17" transform="translate(95.40625 0)"/>
       <use xlink:href="#DejaVuSans-13" transform="translate(159.03125 0)"/>
      </g>
     </g>
    </g>
    <g id="text_32">
     <!-- USD/CAD -->
     <g transform="translate(16.317188 200.43375) rotate(-90) scale(0.12 -0.12)">
      <defs>
       <path id="DejaVuSans-27" d="M 1259 4147 
L 1259 519 
L 2022 519 
Q 2988 519 3436 956 
Q 3884 1394 3884 2338 
Q 3884 3275 3436 3711 
Q 2988 4147 2022 4147 
L 1259 4147 
z
M 628 4666 
L 1925 4666 
Q 3281 4666 3915 4102 
Q 4550 3538 4550 2338 
Q 4550 1131 3912 565 
Q 3275 0 1925 0 
L 628 0 
L 628 4666 
z
" transform="scale(0.015625)"/>
       <path id="DejaVuSans-12" d="M 1625 4666 
L 2156 4666 
L 531 -594 
L 0 -594 
L 1625 4666 
z
" transform="scale(0.015625)"/>
       <path id="DejaVuSans-24" d="M 2188 4044 
L 1331 1722 
L 3047 1722 
L 2188 4044 
z
M 1831 4666 
L 2547 4666 
L 4325 0 
L 3669 0 
L 3244 1197 
L 1141 1197 
L 716 0 
L 50 0 
L 1831 4666 
z
" transform="scale(0.015625)"/>
      </defs>
      <use xlink:href="#DejaVuSans-38"/>
      <use xlink:href="#DejaVuSans-36" transform="translate(73.1875 0)"/>
      <use xlink:href="#DejaVuSans-27" transform="translate(136.671875 0)"/>
      <use xlink:href="#DejaVuSans-12" transform="translate(213.671875 0)"/>
      <use xlink:href="#DejaVuSans-26" transform="translate(247.359375 0)"/>
      <use xlink:href="#DejaVuSans-24" transform="translate(317.1875 0)"/>
      <use xlink:href="#DejaVuSans-27" transform="translate(385.59375 0)"/>
     </g>
    </g>
   </g>
   <g id="line2d_61">
    <path d="M 53.841515 170.329034 
L 56.593296 170.01319 
L 57.969187 167.802281 
L 59.345077 168.276047 
M 64.848639 166.538904 
L 66.224529 166.854748 
L 67.60042 166.380982 
L 68.97631 166.341502 
L 73.103981 167.01267 
L 74.479872 167.7628 
L 75.855762 169.026177 
L 77.231652 168.51293 
L 78.607543 167.644359 
L 82.735214 168.355008 
L 84.111104 170.644878 
L 85.486995 172.382021 
L 86.862885 168.868255 
L 88.238776 167.7628 
L 92.366447 166.22306 
L 93.742337 164.959683 
L 95.118228 163.893709 
L 96.494118 163.14358 
L 97.870009 165.196567 
L 101.99768 167.01267 
M 104.749461 168.157606 
L 106.125351 167.7628 
L 107.501241 167.249554 
L 111.628913 167.052151 
L 113.004803 168.315528 
L 114.380693 166.22306 
L 115.756584 164.525398 
L 117.132474 164.446437 
L 122.636036 163.617346 
L 124.011926 166.144099 
M 126.763707 169.184099 
L 130.891378 168.868255 
L 132.267269 168.631372 
L 133.643159 170.131631 
L 135.01905 170.565917 
L 136.39494 173.763839 
L 140.522611 174.237606 
L 141.898502 174.790333 
L 143.274392 174.711372 
L 144.650283 177.277606 
L 146.026173 176.724878 
L 150.153844 177.435528 
L 151.529735 178.067216 
L 152.905625 176.409034 
L 154.281515 177.553969 
L 155.657406 176.84332 
L 159.785077 178.264619 
L 161.160967 179.488515 
L 162.536858 181.146696 
M 165.288639 181.502021 
L 169.41631 180.791372 
L 170.7922 180.870333 
L 172.168091 179.527995 
M 174.919872 178.501502 
L 179.047543 177.751372 
L 180.423433 176.487995 
L 183.175214 173.526956 
L 184.551104 172.382021 
L 188.678776 173.05319 
L 190.054666 172.697865 
L 191.430557 173.250593 
L 194.182337 171.316047 
M 199.685899 175.224619 
L 201.061789 175.540463 
L 202.43768 176.09319 
L 203.81357 178.975268 
L 207.941241 180.317606 
L 209.317132 184.028774 
L 210.693022 184.936826 
L 212.068913 187.187216 
L 217.572474 180.909813 
L 218.948365 182.21267 
L 220.324255 181.304619 
L 221.700146 181.186177 
L 223.076036 182.21267 
L 227.203707 185.134229 
L 228.579598 186.595008 
L 229.955488 185.173709 
L 231.331378 183.041761 
L 232.707269 183.239164 
M 238.21083 181.896826 
L 240.962611 179.962281 
L 242.338502 180.475528 
L 246.466173 180.593969 
L 247.842063 179.9228 
L 249.217954 180.593969 
L 250.593844 180.67293 
L 251.969735 182.686437 
L 256.097406 179.804359 
L 257.473296 181.502021 
L 258.849187 181.541502 
L 260.225077 180.278125 
L 261.600967 183.989294 
L 267.104529 185.450073 
L 268.48042 183.831372 
L 269.85631 183.239164 
L 271.2322 178.580463 
L 275.359872 180.67293 
L 276.735762 179.764878 
L 278.111652 180.120203 
L 279.487543 179.17267 
L 280.863433 178.777865 
L 284.991104 179.291112 
L 286.366995 177.475008 
L 287.742885 176.09319 
L 289.118776 174.119164 
L 290.494666 172.895268 
L 294.622337 171.276567 
L 295.998228 170.01319 
L 297.374118 173.09267 
L 298.750009 171.434489 
L 300.125899 170.447476 
L 305.629461 171.908255 
L 307.005351 174.040203 
L 308.381241 175.777346 
L 309.757132 174.948255 
L 313.884803 175.619424 
L 315.260693 177.751372 
L 316.636584 178.422541 
L 318.012474 179.764878 
L 319.388365 181.304619 
L 324.891926 182.291631 
L 326.267817 181.620463 
L 327.643707 180.712411 
L 329.019598 180.988774 
L 333.147269 183.318125 
L 334.523159 181.146696 
L 335.89905 181.146696 
L 337.27494 183.515528 
L 338.65083 184.936826 
L 342.778502 183.633969 
L 344.154392 183.594489 
L 345.530283 183.120722 
L 346.906173 182.528515 
L 348.282063 180.830852 
L 352.409735 181.42306 
L 353.785625 179.527995 
L 355.161515 179.962281 
L 357.913296 178.027735 
L 362.040967 178.34358 
L 363.416858 177.869813 
L 364.792748 178.146177 
L 366.168639 176.527476 
L 367.544529 175.382541 
M 373.048091 175.935268 
L 374.423981 174.908774 
L 375.799872 176.13267 
L 377.175762 176.685398 
L 381.303433 174.59293 
L 382.679324 175.185138 
L 384.055214 172.460982 
L 385.431104 172.539943 
L 386.806995 170.881761 
L 392.310557 169.855268 
L 393.686447 171.039683 
L 395.062337 167.999683 
L 396.438228 169.302541 
L 400.565899 168.789294 
L 401.941789 168.868255 
L 403.31768 166.97319 
L 404.69357 162.551372 
M 410.197132 161.564359 
L 411.573022 160.340463 
L 412.948913 158.800722 
L 414.324803 160.616826 
L 415.700693 160.972151 
L 419.828365 159.866696 
L 421.204255 160.064099 
L 422.580146 160.064099 
L 423.956036 160.972151 
M 429.459598 159.708774 
L 430.835488 160.498385 
L 432.211378 160.656307 
L 433.587269 161.722281 
L 434.963159 162.946177 
L 439.09083 162.709294 
L 440.466721 165.512411 
L 441.842611 166.302021 
L 443.218502 166.854748 
L 444.594392 167.604878 
L 448.722063 165.828255 
L 450.097954 164.327995 
L 451.473844 164.841242 
L 452.849735 164.7228 
L 454.225625 165.078125 
L 458.353296 163.814748 
L 459.729187 164.564878 
L 461.105077 164.762281 
L 462.480967 168.039164 
L 463.856858 167.052151 
L 467.984529 166.617865 
L 469.36042 165.354489 
L 470.73631 167.446956 
L 472.1122 167.01267 
L 473.488091 170.8028 
L 478.991652 171.197606 
L 480.367543 171.355528 
L 481.743433 170.76332 
L 483.119324 173.211112 
L 487.246995 173.408515 
L 488.622885 172.539943 
L 489.998776 175.224619 
L 491.374666 176.84332 
L 492.750557 177.435528 
L 496.878228 174.474489 
L 498.254118 174.750852 
L 499.630009 173.05319 
L 501.005899 173.921761 
L 502.381789 172.30306 
L 506.509461 173.605917 
L 507.885351 172.026696 
L 509.261241 174.079683 
L 510.637132 176.764359 
L 512.013022 174.711372 
M 517.516584 176.8828 
L 518.892474 175.856307 
L 520.268365 175.816826 
L 521.644255 173.526956 
L 525.771926 171.671372 
L 527.147817 171.473969 
L 528.523707 170.76332 
L 529.899598 168.51293 
L 531.275488 167.841761 
L 535.403159 167.249554 
L 536.77905 165.393969 
L 538.15494 164.288515 
L 539.53083 162.630333 
L 540.906721 162.630333 
L 545.034392 161.485398 
L 547.786173 159.866696 
L 549.162063 158.169034 
L 550.537954 158.169034 
L 550.537954 158.169034 
" clip-path="url(#paafeed7488)" style="fill: none; stroke: #2ca02c; stroke-width: 1.2; stroke-linecap: square"/>
   </g>
   <g id="patch_8">
    <path d="M 52.465625 188.638125 
L 52.465625 156.718125 
" style="fill: none; stroke: #000000; stroke-width: 0.8; stroke-linejoin: miter; stroke-linecap: square"/>
   </g>
   <g id="patch_9">
    <path d="M 554.665625 188.638125 
L 554.665625 156.718125 
" style="fill: none; stroke: #000000; stroke-width: 0.8; stroke-linejoin: miter; stroke-linecap: square"/>
   </g>
   <g id="patch_10">
    <path d="M 52.465625 188.638125 
L 554.665625 188.638125 
" style="fill: none; stroke: #000000; stroke-width: 0.8; stroke-linejoin: miter; stroke-linecap: square"/>
   </g>
   <g id="patch_11">
    <path d="M 52.465625 156.718125 
L 554.665625 156.718125 
" style="fill: none; stroke: #000000; stroke-width: 0.8; stroke-linejoin: miter; stroke-linecap: square"/>
   </g>
  </g>
 </g>
 <defs>
  <clipPath id="pa598ed780c">
   <rect x="52.465625" y="22.318125" width="502.2" height="91.2"/>
  </clipPath>
  <clipPath id="paafeed7488">
   <rect x="52.465625" y="156.718125" width="502.2" height="31.92"/>
  </clipPath>
 </defs>
</svg>
