<?xml version="1.0" encoding="utf-8" standalone="no"?>
<!DOCTYPE svg PUBLIC "-//W3C//DTD SVG 1.1//EN"
  "http://www.w3.org/Graphics/SVG/1.1/DTD/svg11.dtd">
<svg xmlns:xlink="http://www.w3.org/1999/xlink" width="561.479375pt" height="239.226503pt" viewBox="0 0 561.479375 239.226503" xmlns="http://www.w3.org/2000/svg" version="1.1">
 <metadata>
  <rdf:RDF xmlns:dc="http://purl.org/dc/elements/1.1/" xmlns:cc="http://creativecommons.org/ns#" xmlns:rdf="http://www.w3.org/1999/02/22-rdf-syntax-ns#">
   <cc:Work>
    <dc:type rdf:resource="http://purl.org/dc/dcmitype/StillImage"/>
    <dc:date>2025-09-19T13:38:09.036930</dc:date>
    <dc:format>image/svg+xml</dc:format>
    <dc:creator>
     <cc:Agent>
      <dc:title>Matplotlib v3.10.6, https://matplotlib.org/</dc:title>
     </cc:Agent>
    </dc:creator>
   </cc:Work>
  </rdf:RDF>
 </metadata>
 <defs>
  <style type="text/css">*{stroke-linejoin: round; stroke-linecap: butt}</style>
 </defs>
 <g id="figure_1">
  <g id="patch_1">
   <path d="M -0 239.226503 
L 561.479375 239.226503 
L 561.479375 0 
L -0 0 
z
" style="fill: #ffffff"/>
  </g>
  <g id="axes_1">
   <g id="patch_2">
    <path d="M 52.079375 113.518125 
L 554.279375 113.518125 
L 554.279375 22.318125 
L 52.079375 22.318125 
z
" style="fill: #ffffff"/>
   </g>
   <g id="matplotlib.axis_1">
    <g id="xtick_1">
     <g id="line2d_1">
      <path d="M 69.96595 113.518125 
L 69.96595 22.318125 
" clip-path="url(#pf8e9578a4e)" style="fill: none; stroke: #b0b0b0; stroke-opacity: 0.2; stroke-width: 0.8; stroke-linecap: square"/>
     </g>
     <g id="line2d_2">
      <defs>
       <path id="ma640130455" d="M 0 0 
L 0 3.5 
" style="stroke: #000000; stroke-width: 0.8"/>
      </defs>
      <g>
       <use xlink:href="#ma640130455" x="69.96595" y="113.518125" style="stroke: #000000; stroke-width: 0.8"/>
      </g>
     </g>
     <g id="text_1">
      <!-- 2024-10 -->
      <g transform="translate(38.950479 155.435942) rotate(-45) scale(0.1 -0.1)">
       <defs>
        <path id="DejaVuSans-32" d="M 1228 531 
L 3431 531 
L 3431 0 
L 469 0 
L 469 531 
Q 828 903 1448 1529 
Q 2069 2156 2228 2338 
Q 2531 2678 2651 2914 
Q 2772 3150 2772 3378 
Q 2772 3750 2511 3984 
Q 2250 4219 1831 4219 
Q 1534 4219 1204 4116 
Q 875 4013 500 3803 
L 500 4441 
Q 881 4594 1212 4672 
Q 1544 4750 1819 4750 
Q 2544 4750 2975 4387 
Q 3406 4025 3406 3419 
Q 3406 3131 3298 2873 
Q 3191 2616 2906 2266 
Q 2828 2175 2409 1742 
Q 1991 1309 1228 531 
z
" transform="scale(0.015625)"/>
        <path id="DejaVuSans-30" d="M 2034 4250 
Q 1547 4250 1301 3770 
Q 1056 3291 1056 2328 
Q 1056 1369 1301 889 
Q 1547 409 2034 409 
Q 2525 409 2770 889 
Q 3016 1369 3016 2328 
Q 3016 3291 2770 3770 
Q 2525 4250 2034 4250 
z
M 2034 4750 
Q 2819 4750 3233 4129 
Q 3647 3509 3647 2328 
Q 3647 1150 3233 529 
Q 2819 -91 2034 -91 
Q 1250 -91 836 529 
Q 422 1150 422 2328 
Q 422 3509 836 4129 
Q 1250 4750 2034 4750 
z
" transform="scale(0.015625)"/>
        <path id="DejaVuSans-34" d="M 2419 4116 
L 825 1625 
L 2419 1625 
L 2419 4116 
z
M 2253 4666 
L 3047 4666 
L 3047 1625 
L 3713 1625 
L 3713 1100 
L 3047 1100 
L 3047 0 
L 2419 0 
L 2419 1100 
L 313 1100 
L 313 1709 
L 2253 4666 
z
" transform="scale(0.015625)"/>
        <path id="DejaVuSans-2d" d="M 313 2009 
L 1997 2009 
L 1997 1497 
L 313 1497 
L 313 2009 
z
" transform="scale(0.015625)"/>
        <path id="DejaVuSans-31" d="M 794 531 
L 1825 531 
L 1825 4091 
L 703 3866 
L 703 4441 
L 1819 4666 
L 2450 4666 
L 2450 531 
L 3481 531 
L 3481 0 
L 794 0 
L 794 531 
z
" transform="scale(0.015625)"/>
       </defs>
       <use xlink:href="#DejaVuSans-32"/>
       <use xlink:href="#DejaVuSans-30" transform="translate(63.623047 0)"/>
       <use xlink:href="#DejaVuSans-32" transform="translate(127.246094 0)"/>
       <use xlink:href="#DejaVuSans-34" transform="translate(190.869141 0)"/>
       <use xlink:href="#DejaVuSans-2d" transform="translate(254.492188 0)"/>
       <use xlink:href="#DejaVuSans-31" transform="translate(290.576172 0)"/>
       <use xlink:href="#DejaVuSans-30" transform="translate(354.199219 0)"/>
      </g>
     </g>
    </g>
    <g id="xtick_2">
     <g id="line2d_3">
      <path d="M 112.618553 113.518125 
L 112.618553 22.318125 
" clip-path="url(#pf8e9578a4e)" style="fill: none; stroke: #b0b0b0; stroke-opacity: 0.2; stroke-width: 0.8; stroke-linecap: square"/>
     </g>
     <g id="line2d_4">
      <g>
       <use xlink:href="#ma640130455" x="112.618553" y="113.518125" style="stroke: #000000; stroke-width: 0.8"/>
      </g>
     </g>
     <g id="text_2">
      <!-- 2024-11 -->
      <g transform="translate(81.603082 155.435942) rotate(-45) scale(0.1 -0.1)">
       <use xlink:href="#DejaVuSans-32"/>
       <use xlink:href="#DejaVuSans-30" transform="translate(63.623047 0)"/>
       <use xlink:href="#DejaVuSans-32" transform="translate(127.246094 0)"/>
       <use xlink:href="#DejaVuSans-34" transform="translate(190.869141 0)"/>
       <use xlink:href="#DejaVuSans-2d" transform="translate(254.492188 0)"/>
       <use xlink:href="#DejaVuSans-31" transform="translate(290.576172 0)"/>
       <use xlink:href="#DejaVuSans-31" transform="translate(354.199219 0)"/>
      </g>
     </g>
    </g>
    <g id="xtick_3">
     <g id="line2d_5">
      <path d="M 153.895265 113.518125 
L 153.895265 22.318125 
" clip-path="url(#pf8e9578a4e)" style="fill: none; stroke: #b0b0b0; stroke-opacity: 0.2; stroke-width: 0.8; stroke-linecap: square"/>
     </g>
     <g id="line2d_6">
      <g>
       <use xlink:href="#ma640130455" x="153.895265" y="113.518125" style="stroke: #000000; stroke-width: 0.8"/>
      </g>
     </g>
     <g id="text_3">
      <!-- 2024-12 -->
      <g transform="translate(122.879794 155.435942) rotate(-45) scale(0.1 -0.1)">
       <use xlink:href="#DejaVuSans-32"/>
       <use xlink:href="#DejaVuSans-30" transform="translate(63.623047 0)"/>
       <use xlink:href="#DejaVuSans-32" transform="translate(127.246094 0)"/>
       <use xlink:href="#DejaVuSans-34" transform="translate(190.869141 0)"/>
       <use xlink:href="#DejaVuSans-2d" transform="translate(254.492188 0)"/>
       <use xlink:href="#DejaVuSans-31" transform="translate(290.576172 0)"/>
       <use xlink:href="#DejaVuSans-32" transform="translate(354.199219 0)"/>
      </g>
     </g>
    </g>
    <g id="xtick_4">
     <g id="line2d_7">
      <path d="M 196.547868 113.518125 
L 196.547868 22.318125 
" clip-path="url(#pf8e9578a4e)" style="fill: none; stroke: #b0b0b0; stroke-opacity: 0.2; stroke-width: 0.8; stroke-linecap: square"/>
     </g>
     <g id="line2d_8">
      <g>
       <use xlink:href="#ma640130455" x="196.547868" y="113.518125" style="stroke: #000000; stroke-width: 0.8"/>
      </g>
     </g>
     <g id="text_4">
      <!-- 2025-01 -->
      <g transform="translate(165.532397 155.435942) rotate(-45) scale(0.1 -0.1)">
       <defs>
        <path id="DejaVuSans-35" d="M 691 4666 
L 3169 4666 
L 3169 4134 
L 1269 4134 
L 1269 2991 
Q 1406 3038 1543 3061 
Q 1681 3084 1819 3084 
Q 2600 3084 3056 2656 
Q 3513 2228 3513 1497 
Q 3513 744 3044 326 
Q 2575 -91 1722 -91 
Q 1428 -91 1123 -41 
Q 819 9 494 109 
L 494 744 
Q 775 591 1075 516 
Q 1375 441 1709 441 
Q 2250 441 2565 725 
Q 2881 1009 2881 1497 
Q 2881 1984 2565 2268 
Q 2250 2553 1709 2553 
Q 1456 2553 1204 2497 
Q 953 2441 691 2322 
L 691 4666 
z
" transform="scale(0.015625)"/>
       </defs>
       <use xlink:href="#DejaVuSans-32"/>
       <use xlink:href="#DejaVuSans-30" transform="translate(63.623047 0)"/>
       <use xlink:href="#DejaVuSans-32" transform="translate(127.246094 0)"/>
       <use xlink:href="#DejaVuSans-35" transform="translate(190.869141 0)"/>
       <use xlink:href="#DejaVuSans-2d" transform="translate(254.492188 0)"/>
       <use xlink:href="#DejaVuSans-30" transform="translate(290.576172 0)"/>
       <use xlink:href="#DejaVuSans-31" transform="translate(354.199219 0)"/>
      </g>
     </g>
    </g>
    <g id="xtick_5">
     <g id="line2d_9">
      <path d="M 239.200471 113.518125 
L 239.200471 22.318125 
" clip-path="url(#pf8e9578a4e)" style="fill: none; stroke: #b0b0b0; stroke-opacity: 0.2; stroke-width: 0.8; stroke-linecap: square"/>
     </g>
     <g id="line2d_10">
      <g>
       <use xlink:href="#ma640130455" x="239.200471" y="113.518125" style="stroke: #000000; stroke-width: 0.8"/>
      </g>
     </g>
     <g id="text_5">
      <!-- 2025-02 -->
      <g transform="translate(208.185 155.435942) rotate(-45) scale(0.1 -0.1)">
       <use xlink:href="#DejaVuSans-32"/>
       <use xlink:href="#DejaVuSans-30" transform="translate(63.623047 0)"/>
       <use xlink:href="#DejaVuSans-32" transform="translate(127.246094 0)"/>
       <use xlink:href="#DejaVuSans-35" transform="translate(190.869141 0)"/>
       <use xlink:href="#DejaVuSans-2d" transform="translate(254.492188 0)"/>
       <use xlink:href="#DejaVuSans-30" transform="translate(290.576172 0)"/>
       <use xlink:href="#DejaVuSans-32" transform="translate(354.199219 0)"/>
      </g>
     </g>
    </g>
    <g id="xtick_6">
     <g id="line2d_11">
      <path d="M 277.725402 113.518125 
L 277.725402 22.318125 
" clip-path="url(#pf8e9578a4e)" style="fill: none; stroke: #b0b0b0; stroke-opacity: 0.2; stroke-width: 0.8; stroke-linecap: square"/>
     </g>
     <g id="line2d_12">
      <g>
       <use xlink:href="#ma640130455" x="277.725402" y="113.518125" style="stroke: #000000; stroke-width: 0.8"/>
      </g>
     </g>
     <g id="text_6">
      <!-- 2025-03 -->
      <g transform="translate(246.709931 155.435942) rotate(-45) scale(0.1 -0.1)">
       <defs>
        <path id="DejaVuSans-33" d="M 2597 2516 
Q 3050 2419 3304 2112 
Q 3559 1806 3559 1356 
Q 3559 666 3084 287 
Q 2609 -91 1734 -91 
Q 1441 -91 1130 -33 
Q 819 25 488 141 
L 488 750 
Q 750 597 1062 519 
Q 1375 441 1716 441 
Q 2309 441 2620 675 
Q 2931 909 2931 1356 
Q 2931 1769 2642 2001 
Q 2353 2234 1838 2234 
L 1294 2234 
L 1294 2753 
L 1863 2753 
Q 2328 2753 2575 2939 
Q 2822 3125 2822 3475 
Q 2822 3834 2567 4026 
Q 2313 4219 1838 4219 
Q 1578 4219 1281 4162 
Q 984 4106 628 3988 
L 628 4550 
Q 988 4650 1302 4700 
Q 1616 4750 1894 4750 
Q 2613 4750 3031 4423 
Q 3450 4097 3450 3541 
Q 3450 3153 3228 2886 
Q 3006 2619 2597 2516 
z
" transform="scale(0.015625)"/>
       </defs>
       <use xlink:href="#DejaVuSans-32"/>
       <use xlink:href="#DejaVuSans-30" transform="translate(63.623047 0)"/>
       <use xlink:href="#DejaVuSans-32" transform="translate(127.246094 0)"/>
       <use xlink:href="#DejaVuSans-35" transform="translate(190.869141 0)"/>
       <use xlink:href="#DejaVuSans-2d" transform="translate(254.492188 0)"/>
       <use xlink:href="#DejaVuSans-30" transform="translate(290.576172 0)"/>
       <use xlink:href="#DejaVuSans-33" transform="translate(354.199219 0)"/>
      </g>
     </g>
    </g>
    <g id="xtick_7">
     <g id="line2d_13">
      <path d="M 320.378005 113.518125 
L 320.378005 22.318125 
" clip-path="url(#pf8e9578a4e)" style="fill: none; stroke: #b0b0b0; stroke-opacity: 0.2; stroke-width: 0.8; stroke-linecap: square"/>
     </g>
     <g id="line2d_14">
      <g>
       <use xlink:href="#ma640130455" x="320.378005" y="113.518125" style="stroke: #000000; stroke-width: 0.8"/>
      </g>
     </g>
     <g id="text_7">
      <!-- 2025-04 -->
      <g transform="translate(289.362534 155.435942) rotate(-45) scale(0.1 -0.1)">
       <use xlink:href="#DejaVuSans-32"/>
       <use xlink:href="#DejaVuSans-30" transform="translate(63.623047 0)"/>
       <use xlink:href="#DejaVuSans-32" transform="translate(127.246094 0)"/>
       <use xlink:href="#DejaVuSans-35" transform="translate(190.869141 0)"/>
       <use xlink:href="#DejaVuSans-2d" transform="translate(254.492188 0)"/>
       <use xlink:href="#DejaVuSans-30" transform="translate(290.576172 0)"/>
       <use xlink:href="#DejaVuSans-34" transform="translate(354.199219 0)"/>
      </g>
     </g>
    </g>
    <g id="xtick_8">
     <g id="line2d_15">
      <path d="M 361.654717 113.518125 
L 361.654717 22.318125 
" clip-path="url(#pf8e9578a4e)" style="fill: none; stroke: #b0b0b0; stroke-opacity: 0.2; stroke-width: 0.8; stroke-linecap: square"/>
     </g>
     <g id="line2d_16">
      <g>
       <use xlink:href="#ma640130455" x="361.654717" y="113.518125" style="stroke: #000000; stroke-width: 0.8"/>
      </g>
     </g>
     <g id="text_8">
      <!-- 2025-05 -->
      <g transform="translate(330.639246 155.435942) rotate(-45) scale(0.1 -0.1)">
       <use xlink:href="#DejaVuSans-32"/>
       <use xlink:href="#DejaVuSans-30" transform="translate(63.623047 0)"/>
       <use xlink:href="#DejaVuSans-32" transform="translate(127.246094 0)"/>
       <use xlink:href="#DejaVuSans-35" transform="translate(190.869141 0)"/>
       <use xlink:href="#DejaVuSans-2d" transform="translate(254.492188 0)"/>
       <use xlink:href="#DejaVuSans-30" transform="translate(290.576172 0)"/>
       <use xlink:href="#DejaVuSans-35" transform="translate(354.199219 0)"/>
      </g>
     </g>
    </g>
    <g id="xtick_9">
     <g id="line2d_17">
      <path d="M 404.30732 113.518125 
L 404.30732 22.318125 
" clip-path="url(#pf8e9578a4e)" style="fill: none; stroke: #b0b0b0; stroke-opacity: 0.2; stroke-width: 0.8; stroke-linecap: square"/>
     </g>
     <g id="line2d_18">
      <g>
       <use xlink:href="#ma640130455" x="404.30732" y="113.518125" style="stroke: #000000; stroke-width: 0.8"/>
      </g>
     </g>
     <g id="text_9">
      <!-- 2025-06 -->
      <g transform="translate(373.291849 155.435942) rotate(-45) scale(0.1 -0.1)">
       <defs>
        <path id="DejaVuSans-36" d="M 2113 2584 
Q 1688 2584 1439 2293 
Q 1191 2003 1191 1497 
Q 1191 994 1439 701 
Q 1688 409 2113 409 
Q 2538 409 2786 701 
Q 3034 994 3034 1497 
Q 3034 2003 2786 2293 
Q 2538 2584 2113 2584 
z
M 3366 4563 
L 3366 3988 
Q 3128 4100 2886 4159 
Q 2644 4219 2406 4219 
Q 1781 4219 1451 3797 
Q 1122 3375 1075 2522 
Q 1259 2794 1537 2939 
Q 1816 3084 2150 3084 
Q 2853 3084 3261 2657 
Q 3669 2231 3669 1497 
Q 3669 778 3244 343 
Q 2819 -91 2113 -91 
Q 1303 -91 875 529 
Q 447 1150 447 2328 
Q 447 3434 972 4092 
Q 1497 4750 2381 4750 
Q 2619 4750 2861 4703 
Q 3103 4656 3366 4563 
z
" transform="scale(0.015625)"/>
       </defs>
       <use xlink:href="#DejaVuSans-32"/>
       <use xlink:href="#DejaVuSans-30" transform="translate(63.623047 0)"/>
       <use xlink:href="#DejaVuSans-32" transform="translate(127.246094 0)"/>
       <use xlink:href="#DejaVuSans-35" transform="translate(190.869141 0)"/>
       <use xlink:href="#DejaVuSans-2d" transform="translate(254.492188 0)"/>
       <use xlink:href="#DejaVuSans-30" transform="translate(290.576172 0)"/>
       <use xlink:href="#DejaVuSans-36" transform="translate(354.199219 0)"/>
      </g>
     </g>
    </g>
    <g id="xtick_10">
     <g id="line2d_19">
      <path d="M 445.584033 113.518125 
L 445.584033 22.318125 
" clip-path="url(#pf8e9578a4e)" style="fill: none; stroke: #b0b0b0; stroke-opacity: 0.2; stroke-width: 0.8; stroke-linecap: square"/>
     </g>
     <g id="line2d_20">
      <g>
       <use xlink:href="#ma640130455" x="445.584033" y="113.518125" style="stroke: #000000; stroke-width: 0.8"/>
      </g>
     </g>
     <g id="text_10">
      <!-- 2025-07 -->
      <g transform="translate(414.568561 155.435942) rotate(-45) scale(0.1 -0.1)">
       <defs>
        <path id="DejaVuSans-37" d="M 525 4666 
L 3525 4666 
L 3525 4397 
L 1831 0 
L 1172 0 
L 2766 4134 
L 525 4134 
L 525 4666 
z
" transform="scale(0.015625)"/>
       </defs>
       <use xlink:href="#DejaVuSans-32"/>
       <use xlink:href="#DejaVuSans-30" transform="translate(63.623047 0)"/>
       <use xlink:href="#DejaVuSans-32" transform="translate(127.246094 0)"/>
       <use xlink:href="#DejaVuSans-35" transform="translate(190.869141 0)"/>
       <use xlink:href="#DejaVuSans-2d" transform="translate(254.492188 0)"/>
       <use xlink:href="#DejaVuSans-30" transform="translate(290.576172 0)"/>
       <use xlink:href="#DejaVuSans-37" transform="translate(354.199219 0)"/>
      </g>
     </g>
    </g>
    <g id="xtick_11">
     <g id="line2d_21">
      <path d="M 488.236635 113.518125 
L 488.236635 22.318125 
" clip-path="url(#pf8e9578a4e)" style="fill: none; stroke: #b0b0b0; stroke-opacity: 0.2; stroke-width: 0.8; stroke-linecap: square"/>
     </g>
     <g id="line2d_22">
      <g>
       <use xlink:href="#ma640130455" x="488.236635" y="113.518125" style="stroke: #000000; stroke-width: 0.8"/>
      </g>
     </g>
     <g id="text_11">
      <!-- 2025-08 -->
      <g transform="translate(457.221164 155.435942) rotate(-45) scale(0.1 -0.1)">
       <defs>
        <path id="DejaVuSans-38" d="M 2034 2216 
Q 1584 2216 1326 1975 
Q 1069 1734 1069 1313 
Q 1069 891 1326 650 
Q 1584 409 2034 409 
Q 2484 409 2743 651 
Q 3003 894 3003 1313 
Q 3003 1734 2745 1975 
Q 2488 2216 2034 2216 
z
M 1403 2484 
Q 997 2584 770 2862 
Q 544 3141 544 3541 
Q 544 4100 942 4425 
Q 1341 4750 2034 4750 
Q 2731 4750 3128 4425 
Q 3525 4100 3525 3541 
Q 3525 3141 3298 2862 
Q 3072 2584 2669 2484 
Q 3125 2378 3379 2068 
Q 3634 1759 3634 1313 
Q 3634 634 3220 271 
Q 2806 -91 2034 -91 
Q 1263 -91 848 271 
Q 434 634 434 1313 
Q 434 1759 690 2068 
Q 947 2378 1403 2484 
z
M 1172 3481 
Q 1172 3119 1398 2916 
Q 1625 2713 2034 2713 
Q 2441 2713 2670 2916 
Q 2900 3119 2900 3481 
Q 2900 3844 2670 4047 
Q 2441 4250 2034 4250 
Q 1625 4250 1398 4047 
Q 1172 3844 1172 3481 
z
" transform="scale(0.015625)"/>
       </defs>
       <use xlink:href="#DejaVuSans-32"/>
       <use xlink:href="#DejaVuSans-30" transform="translate(63.623047 0)"/>
       <use xlink:href="#DejaVuSans-32" transform="translate(127.246094 0)"/>
       <use xlink:href="#DejaVuSans-35" transform="translate(190.869141 0)"/>
       <use xlink:href="#DejaVuSans-2d" transform="translate(254.492188 0)"/>
       <use xlink:href="#DejaVuSans-30" transform="translate(290.576172 0)"/>
       <use xlink:href="#DejaVuSans-38" transform="translate(354.199219 0)"/>
      </g>
     </g>
    </g>
    <g id="xtick_12">
     <g id="line2d_23">
      <path d="M 530.889238 113.518125 
L 530.889238 22.318125 
" clip-path="url(#pf8e9578a4e)" style="fill: none; stroke: #b0b0b0; stroke-opacity: 0.2; stroke-width: 0.8; stroke-linecap: square"/>
     </g>
     <g id="line2d_24">
      <g>
       <use xlink:href="#ma640130455" x="530.889238" y="113.518125" style="stroke: #000000; stroke-width: 0.8"/>
      </g>
     </g>
     <g id="text_12">
      <!-- 2025-09 -->
      <g transform="translate(499.873767 155.435942) rotate(-45) scale(0.1 -0.1)">
       <defs>
        <path id="DejaVuSans-39" d="M 703 97 
L 703 672 
Q 941 559 1184 500 
Q 1428 441 1663 441 
Q 2288 441 2617 861 
Q 2947 1281 2994 2138 
Q 2813 1869 2534 1725 
Q 2256 1581 1919 1581 
Q 1219 1581 811 2004 
Q 403 2428 403 3163 
Q 403 3881 828 4315 
Q 1253 4750 1959 4750 
Q 2769 4750 3195 4129 
Q 3622 3509 3622 2328 
Q 3622 1225 3098 567 
Q 2575 -91 1691 -91 
Q 1453 -91 1209 -44 
Q 966 3 703 97 
z
M 1959 2075 
Q 2384 2075 2632 2365 
Q 2881 2656 2881 3163 
Q 2881 3666 2632 3958 
Q 2384 4250 1959 4250 
Q 1534 4250 1286 3958 
Q 1038 3666 1038 3163 
Q 1038 2656 1286 2365 
Q 1534 2075 1959 2075 
z
" transform="scale(0.015625)"/>
       </defs>
       <use xlink:href="#DejaVuSans-32"/>
       <use xlink:href="#DejaVuSans-30" transform="translate(63.623047 0)"/>
       <use xlink:href="#DejaVuSans-32" transform="translate(127.246094 0)"/>
       <use xlink:href="#DejaVuSans-35" transform="translate(190.869141 0)"/>
       <use xlink:href="#DejaVuSans-2d" transform="translate(254.492188 0)"/>
       <use xlink:href="#DejaVuSans-30" transform="translate(290.576172 0)"/>
       <use xlink:href="#DejaVuSans-39" transform="translate(354.199219 0)"/>
      </g>
     </g>
    </g>
   </g>
   <g id="matplotlib.axis_2">
    <g id="ytick_1">
     <g id="line2d_25">
      <path d="M 52.079375 109.37267 
L 554.279375 109.37267 
" clip-path="url(#pf8e9578a4e)" style="fill: none; stroke: #b0b0b0; stroke-opacity: 0.2; stroke-width: 0.8; stroke-linecap: square"/>
     </g>
     <g id="line2d_26">
      <defs>
       <path id="m5276fd971c" d="M 0 0 
L -3.5 0 
" style="stroke: #000000; stroke-width: 0.8"/>
      </defs>
      <g>
       <use xlink:href="#m5276fd971c" x="52.079375" y="109.37267" style="stroke: #000000; stroke-width: 0.8"/>
      </g>
     </g>
     <g id="text_13">
      <!-- 0 -->
      <g transform="translate(38.716875 113.171889) scale(0.1 -0.1)">
       <use xlink:href="#DejaVuSans-30"/>
      </g>
     </g>
    </g>
    <g id="ytick_2">
     <g id="line2d_27">
      <path d="M 52.079375 83.135616 
L 554.279375 83.135616 
" clip-path="url(#pf8e9578a4e)" style="fill: none; stroke: #b0b0b0; stroke-opacity: 0.2; stroke-width: 0.8; stroke-linecap: square"/>
     </g>
     <g id="line2d_28">
      <g>
       <use xlink:href="#m5276fd971c" x="52.079375" y="83.135616" style="stroke: #000000; stroke-width: 0.8"/>
      </g>
     </g>
     <g id="text_14">
      <!-- 50 -->
      <g transform="translate(32.354375 86.934835) scale(0.1 -0.1)">
       <use xlink:href="#DejaVuSans-35"/>
       <use xlink:href="#DejaVuSans-30" transform="translate(63.623047 0)"/>
      </g>
     </g>
    </g>
    <g id="ytick_3">
     <g id="line2d_29">
      <path d="M 52.079375 56.898562 
L 554.279375 56.898562 
" clip-path="url(#pf8e9578a4e)" style="fill: none; stroke: #b0b0b0; stroke-opacity: 0.2; stroke-width: 0.8; stroke-linecap: square"/>
     </g>
     <g id="line2d_30">
      <g>
       <use xlink:href="#m5276fd971c" x="52.079375" y="56.898562" style="stroke: #000000; stroke-width: 0.8"/>
      </g>
     </g>
     <g id="text_15">
      <!-- 100 -->
      <g transform="translate(25.991875 60.697781) scale(0.1 -0.1)">
       <use xlink:href="#DejaVuSans-31"/>
       <use xlink:href="#DejaVuSans-30" transform="translate(63.623047 0)"/>
       <use xlink:href="#DejaVuSans-30" transform="translate(127.246094 0)"/>
      </g>
     </g>
    </g>
    <g id="ytick_4">
     <g id="line2d_31">
      <path d="M 52.079375 30.661508 
L 554.279375 30.661508 
" clip-path="url(#pf8e9578a4e)" style="fill: none; stroke: #b0b0b0; stroke-opacity: 0.2; stroke-width: 0.8; stroke-linecap: square"/>
     </g>
     <g id="line2d_32">
      <g>
       <use xlink:href="#m5276fd971c" x="52.079375" y="30.661508" style="stroke: #000000; stroke-width: 0.8"/>
      </g>
     </g>
     <g id="text_16">
      <!-- 150 -->
      <g transform="translate(25.991875 34.460727) scale(0.1 -0.1)">
       <use xlink:href="#DejaVuSans-31"/>
       <use xlink:href="#DejaVuSans-35" transform="translate(63.623047 0)"/>
       <use xlink:href="#DejaVuSans-30" transform="translate(127.246094 0)"/>
      </g>
     </g>
    </g>
    <g id="text_17">
     <!-- bp -->
     <g transform="translate(19.912187 74.266562) rotate(-90) scale(0.1 -0.1)">
      <defs>
       <path id="DejaVuSans-62" d="M 3116 1747 
Q 3116 2381 2855 2742 
Q 2594 3103 2138 3103 
Q 1681 3103 1420 2742 
Q 1159 2381 1159 1747 
Q 1159 1113 1420 752 
Q 1681 391 2138 391 
Q 2594 391 2855 752 
Q 3116 1113 3116 1747 
z
M 1159 2969 
Q 1341 3281 1617 3432 
Q 1894 3584 2278 3584 
Q 2916 3584 3314 3078 
Q 3713 2572 3713 1747 
Q 3713 922 3314 415 
Q 2916 -91 2278 -91 
Q 1894 -91 1617 61 
Q 1341 213 1159 525 
L 1159 0 
L 581 0 
L 581 4863 
L 1159 4863 
L 1159 2969 
z
" transform="scale(0.015625)"/>
       <path id="DejaVuSans-70" d="M 1159 525 
L 1159 -1331 
L 581 -1331 
L 581 3500 
L 1159 3500 
L 1159 2969 
Q 1341 3281 1617 3432 
Q 1894 3584 2278 3584 
Q 2916 3584 3314 3078 
Q 3713 2572 3713 1747 
Q 3713 922 3314 415 
Q 2916 -91 2278 -91 
Q 1894 -91 1617 61 
Q 1341 213 1159 525 
z
M 3116 1747 
Q 3116 2381 2855 2742 
Q 2594 3103 2138 3103 
Q 1681 3103 1420 2742 
Q 1159 2381 1159 1747 
Q 1159 1113 1420 752 
Q 1681 391 2138 391 
Q 2594 391 2855 752 
Q 3116 1113 3116 1747 
z
" transform="scale(0.015625)"/>
      </defs>
      <use xlink:href="#DejaVuSans-62"/>
      <use xlink:href="#DejaVuSans-70" transform="translate(63.476562 0)"/>
     </g>
    </g>
   </g>
   <g id="line2d_33">
    <path d="M 52.079375 68.967607 
L 53.455265 67.393384 
L 54.831156 67.918125 
L 58.958827 66.868643 
L 60.334717 67.918125 
L 61.710608 68.442866 
L 63.086498 68.442866 
L 68.59006 64.244937 
L 69.96595 67.393384 
L 71.341841 68.967607 
L 72.717731 69.492348 
L 74.093622 68.442866 
L 78.221293 67.918125 
L 80.973074 66.868643 
L 82.348964 64.244937 
L 83.724854 63.720196 
L 87.852526 63.720196 
L 89.228416 62.145973 
L 91.980197 60.047009 
L 93.356087 59.522268 
L 97.483759 58.472786 
L 100.235539 57.423303 
L 101.61143 57.948044 
L 107.114991 55.84908 
L 108.490882 55.84908 
L 111.242663 53.750116 
L 112.618553 52.175893 
L 116.746224 53.225375 
L 118.122115 56.373821 
L 119.498005 51.12641 
L 120.873896 52.175893 
L 122.249786 50.601669 
L 126.377457 50.601669 
L 127.753348 47.977964 
L 129.129238 50.076928 
L 130.505128 49.027446 
L 131.881019 48.502705 
L 136.00869 49.027446 
L 137.38458 53.225375 
L 138.760471 55.324339 
L 140.136361 58.472786 
L 141.512252 58.472786 
L 145.639923 58.997527 
L 147.015813 55.324339 
L 148.391704 55.84908 
L 149.767594 55.324339 
L 151.143485 51.12641 
L 155.271156 50.076928 
L 156.647046 51.12641 
L 158.022937 50.601669 
L 159.398827 51.651151 
L 160.774717 47.977964 
L 164.902389 47.977964 
L 166.278279 46.403741 
L 167.65417 47.453223 
L 169.03006 47.453223 
L 170.40595 44.829517 
L 174.533622 45.879 
L 175.909512 43.255294 
L 177.285402 42.205812 
L 178.661293 44.829517 
L 184.164854 40.631589 
L 185.540745 41.15633 
L 186.916635 41.15633 
L 188.292526 41.681071 
L 189.668416 40.106848 
L 193.796087 40.631589 
L 195.171978 38.532624 
L 197.923759 38.532624 
L 199.299649 37.483142 
L 203.42732 36.43366 
L 206.179101 38.532624 
L 208.930882 39.582107 
L 213.058553 41.681071 
L 214.434443 44.304776 
L 215.810334 43.780035 
L 217.186224 42.730553 
L 218.562115 40.631589 
L 222.689786 39.582107 
L 224.065676 40.106848 
L 225.441567 41.15633 
L 226.817457 39.582107 
L 228.193348 38.532624 
L 232.321019 39.057366 
L 233.696909 38.532624 
L 235.0728 37.483142 
L 236.44869 35.384178 
L 237.82458 30.136767 
L 241.952252 26.46358 
L 243.328142 29.612026 
L 244.704033 31.71099 
L 246.079923 31.186249 
L 247.455813 34.859437 
L 251.583485 33.285214 
L 252.959375 33.809955 
L 254.335265 33.809955 
L 255.711156 34.859437 
L 257.087046 36.958401 
L 261.214717 36.958401 
L 262.590608 38.007883 
L 263.966498 38.532624 
L 265.342389 42.205812 
L 266.718279 40.106848 
L 270.84595 39.582107 
L 272.221841 40.631589 
L 273.597731 42.730553 
L 274.973622 40.106848 
L 276.349512 39.057366 
L 280.477183 38.532624 
L 281.853074 37.483142 
L 283.228964 39.582107 
L 284.604854 45.354258 
L 285.980745 41.681071 
L 290.108416 44.304776 
L 291.484307 42.730553 
L 294.236087 44.829517 
L 295.611978 43.780035 
L 299.739649 41.681071 
L 301.115539 42.730553 
L 302.49143 43.255294 
L 303.86732 44.304776 
L 309.370882 42.205812 
L 310.746772 43.780035 
L 312.122663 44.829517 
L 313.498553 41.681071 
L 314.874443 43.780035 
L 319.002115 43.255294 
L 320.378005 43.780035 
L 321.753896 43.255294 
L 323.129786 50.601669 
L 324.505676 50.601669 
L 328.633348 51.12641 
L 330.009238 48.502705 
L 331.385128 48.502705 
L 332.761019 47.453223 
L 334.136909 45.354258 
L 338.26458 43.255294 
L 339.640471 44.304776 
L 341.016361 45.879 
L 343.768142 45.879 
L 347.895813 46.928482 
L 349.271704 45.354258 
L 350.647594 47.977964 
L 352.023485 49.552187 
L 353.399375 50.601669 
L 357.527046 53.225375 
L 358.902937 53.225375 
L 360.278827 51.651151 
L 361.654717 49.027446 
L 363.030608 49.027446 
L 367.158279 46.928482 
L 368.53417 49.027446 
L 371.28595 47.977964 
L 372.661841 45.354258 
L 376.789512 43.780035 
L 378.165402 42.730553 
L 380.917183 41.681071 
L 382.293074 43.255294 
L 386.420745 41.681071 
L 387.796635 46.928482 
L 389.172526 46.928482 
L 391.924307 47.977964 
L 396.051978 46.928482 
L 397.427868 47.453223 
L 398.803759 44.829517 
L 401.555539 45.879 
L 405.683211 44.829517 
L 407.059101 46.928482 
L 408.434991 49.552187 
L 409.810882 49.027446 
L 411.186772 47.977964 
L 415.314443 50.076928 
L 416.690334 50.076928 
L 418.066224 53.225375 
L 419.442115 55.324339 
L 420.818005 54.799598 
L 424.945676 53.750116 
L 426.321567 55.84908 
L 427.697457 54.274857 
L 429.073348 54.274857 
L 430.449238 52.700634 
L 434.576909 53.225375 
L 435.9528 54.799598 
L 437.32869 58.472786 
L 438.70458 60.57175 
L 440.080471 57.948044 
L 444.208142 58.997527 
L 445.584033 57.948044 
L 446.959923 60.047009 
L 449.711704 56.898562 
L 453.839375 56.898562 
L 455.215265 57.423303 
L 459.342937 60.57175 
L 463.470608 61.096491 
L 464.846498 62.145973 
L 466.222389 62.670714 
L 467.598279 62.145973 
L 468.97417 63.720196 
L 473.101841 63.720196 
L 474.477731 64.769679 
L 475.853622 65.29442 
L 477.229512 63.195455 
L 478.605402 63.195455 
L 482.733074 62.145973 
L 484.108964 63.720196 
L 485.484854 62.145973 
L 486.860745 61.096491 
L 488.236635 64.769679 
L 492.364307 65.29442 
L 493.740197 65.29442 
L 495.116087 65.819161 
L 496.491978 65.29442 
L 497.867868 62.670714 
L 501.995539 63.195455 
L 503.37143 64.244937 
L 504.74732 64.769679 
L 506.123211 63.195455 
L 507.499101 63.720196 
L 511.626772 64.769679 
L 513.002663 64.244937 
L 514.378553 64.769679 
L 515.754443 64.769679 
L 517.130334 65.819161 
L 521.258005 66.868643 
L 522.633896 66.868643 
L 524.009786 67.918125 
L 525.385676 67.393384 
L 526.761567 64.769679 
L 530.889238 64.769679 
L 535.016909 66.343902 
L 536.3928 65.819161 
L 540.520471 65.29442 
L 541.896361 64.244937 
L 543.272252 63.720196 
L 544.648142 64.769679 
L 546.024033 63.195455 
L 552.903485 63.195455 
L 554.279375 63.720196 
L 554.279375 63.720196 
" clip-path="url(#pf8e9578a4e)" style="fill: none; stroke: #444444; stroke-width: 1.5; stroke-linecap: square"/>
    <defs>
     <path id="m4ddccf1b2d" d="M 0 1 
C 0.265203 1 0.51958 0.894634 0.707107 0.707107 
C 0.894634 0.51958 1 0.265203 1 0 
C 1 -0.265203 0.894634 -0.51958 0.707107 -0.707107 
C 0.51958 -0.894634 0.265203 -1 0 -1 
C -0.265203 -1 -0.51958 -0.894634 -0.707107 -0.707107 
C -0.894634 -0.51958 -1 -0.265203 -1 0 
C -1 0.265203 -0.894634 0.51958 -0.707107 0.707107 
C -0.51958 0.894634 -0.265203 1 0 1 
z
" style="stroke: #444444"/>
    </defs>
    <g clip-path="url(#pf8e9578a4e)">
     <use xlink:href="#m4ddccf1b2d" x="52.079375" y="68.967607" style="fill: #444444; stroke: #444444"/>
     <use xlink:href="#m4ddccf1b2d" x="53.455265" y="67.393384" style="fill: #444444; stroke: #444444"/>
     <use xlink:href="#m4ddccf1b2d" x="54.831156" y="67.918125" style="fill: #444444; stroke: #444444"/>
     <use xlink:href="#m4ddccf1b2d" x="58.958827" y="66.868643" style="fill: #444444; stroke: #444444"/>
     <use xlink:href="#m4ddccf1b2d" x="60.334717" y="67.918125" style="fill: #444444; stroke: #444444"/>
     <use xlink:href="#m4ddccf1b2d" x="61.710608" y="68.442866" style="fill: #444444; stroke: #444444"/>
     <use xlink:href="#m4ddccf1b2d" x="63.086498" y="68.442866" style="fill: #444444; stroke: #444444"/>
     <use xlink:href="#m4ddccf1b2d" x="64.462389" y="67.393384" style="fill: #444444; stroke: #444444"/>
     <use xlink:href="#m4ddccf1b2d" x="68.59006" y="64.244937" style="fill: #444444; stroke: #444444"/>
     <use xlink:href="#m4ddccf1b2d" x="69.96595" y="67.393384" style="fill: #444444; stroke: #444444"/>
     <use xlink:href="#m4ddccf1b2d" x="71.341841" y="68.967607" style="fill: #444444; stroke: #444444"/>
     <use xlink:href="#m4ddccf1b2d" x="72.717731" y="69.492348" style="fill: #444444; stroke: #444444"/>
     <use xlink:href="#m4ddccf1b2d" x="74.093622" y="68.442866" style="fill: #444444; stroke: #444444"/>
     <use xlink:href="#m4ddccf1b2d" x="78.221293" y="67.918125" style="fill: #444444; stroke: #444444"/>
     <use xlink:href="#m4ddccf1b2d" x="79.597183" y="67.393384" style="fill: #444444; stroke: #444444"/>
     <use xlink:href="#m4ddccf1b2d" x="80.973074" y="66.868643" style="fill: #444444; stroke: #444444"/>
     <use xlink:href="#m4ddccf1b2d" x="82.348964" y="64.244937" style="fill: #444444; stroke: #444444"/>
     <use xlink:href="#m4ddccf1b2d" x="83.724854" y="63.720196" style="fill: #444444; stroke: #444444"/>
     <use xlink:href="#m4ddccf1b2d" x="87.852526" y="63.720196" style="fill: #444444; stroke: #444444"/>
     <use xlink:href="#m4ddccf1b2d" x="89.228416" y="62.145973" style="fill: #444444; stroke: #444444"/>
     <use xlink:href="#m4ddccf1b2d" x="90.604307" y="61.096491" style="fill: #444444; stroke: #444444"/>
     <use xlink:href="#m4ddccf1b2d" x="91.980197" y="60.047009" style="fill: #444444; stroke: #444444"/>
     <use xlink:href="#m4ddccf1b2d" x="93.356087" y="59.522268" style="fill: #444444; stroke: #444444"/>
     <use xlink:href="#m4ddccf1b2d" x="97.483759" y="58.472786" style="fill: #444444; stroke: #444444"/>
     <use xlink:href="#m4ddccf1b2d" x="98.859649" y="57.948044" style="fill: #444444; stroke: #444444"/>
     <use xlink:href="#m4ddccf1b2d" x="100.235539" y="57.423303" style="fill: #444444; stroke: #444444"/>
     <use xlink:href="#m4ddccf1b2d" x="101.61143" y="57.948044" style="fill: #444444; stroke: #444444"/>
     <use xlink:href="#m4ddccf1b2d" x="102.98732" y="57.423303" style="fill: #444444; stroke: #444444"/>
     <use xlink:href="#m4ddccf1b2d" x="107.114991" y="55.84908" style="fill: #444444; stroke: #444444"/>
     <use xlink:href="#m4ddccf1b2d" x="108.490882" y="55.84908" style="fill: #444444; stroke: #444444"/>
     <use xlink:href="#m4ddccf1b2d" x="109.866772" y="54.799598" style="fill: #444444; stroke: #444444"/>
     <use xlink:href="#m4ddccf1b2d" x="111.242663" y="53.750116" style="fill: #444444; stroke: #444444"/>
     <use xlink:href="#m4ddccf1b2d" x="112.618553" y="52.175893" style="fill: #444444; stroke: #444444"/>
     <use xlink:href="#m4ddccf1b2d" x="116.746224" y="53.225375" style="fill: #444444; stroke: #444444"/>
     <use xlink:href="#m4ddccf1b2d" x="118.122115" y="56.373821" style="fill: #444444; stroke: #444444"/>
     <use xlink:href="#m4ddccf1b2d" x="119.498005" y="51.12641" style="fill: #444444; stroke: #444444"/>
     <use xlink:href="#m4ddccf1b2d" x="120.873896" y="52.175893" style="fill: #444444; stroke: #444444"/>
     <use xlink:href="#m4ddccf1b2d" x="122.249786" y="50.601669" style="fill: #444444; stroke: #444444"/>
     <use xlink:href="#m4ddccf1b2d" x="126.377457" y="50.601669" style="fill: #444444; stroke: #444444"/>
     <use xlink:href="#m4ddccf1b2d" x="127.753348" y="47.977964" style="fill: #444444; stroke: #444444"/>
     <use xlink:href="#m4ddccf1b2d" x="129.129238" y="50.076928" style="fill: #444444; stroke: #444444"/>
     <use xlink:href="#m4ddccf1b2d" x="130.505128" y="49.027446" style="fill: #444444; stroke: #444444"/>
     <use xlink:href="#m4ddccf1b2d" x="131.881019" y="48.502705" style="fill: #444444; stroke: #444444"/>
     <use xlink:href="#m4ddccf1b2d" x="136.00869" y="49.027446" style="fill: #444444; stroke: #444444"/>
     <use xlink:href="#m4ddccf1b2d" x="137.38458" y="53.225375" style="fill: #444444; stroke: #444444"/>
     <use xlink:href="#m4ddccf1b2d" x="138.760471" y="55.324339" style="fill: #444444; stroke: #444444"/>
     <use xlink:href="#m4ddccf1b2d" x="140.136361" y="58.472786" style="fill: #444444; stroke: #444444"/>
     <use xlink:href="#m4ddccf1b2d" x="141.512252" y="58.472786" style="fill: #444444; stroke: #444444"/>
     <use xlink:href="#m4ddccf1b2d" x="145.639923" y="58.997527" style="fill: #444444; stroke: #444444"/>
     <use xlink:href="#m4ddccf1b2d" x="147.015813" y="55.324339" style="fill: #444444; stroke: #444444"/>
     <use xlink:href="#m4ddccf1b2d" x="148.391704" y="55.84908" style="fill: #444444; stroke: #444444"/>
     <use xlink:href="#m4ddccf1b2d" x="149.767594" y="55.324339" style="fill: #444444; stroke: #444444"/>
     <use xlink:href="#m4ddccf1b2d" x="151.143485" y="51.12641" style="fill: #444444; stroke: #444444"/>
     <use xlink:href="#m4ddccf1b2d" x="155.271156" y="50.076928" style="fill: #444444; stroke: #444444"/>
     <use xlink:href="#m4ddccf1b2d" x="156.647046" y="51.12641" style="fill: #444444; stroke: #444444"/>
     <use xlink:href="#m4ddccf1b2d" x="158.022937" y="50.601669" style="fill: #444444; stroke: #444444"/>
     <use xlink:href="#m4ddccf1b2d" x="159.398827" y="51.651151" style="fill: #444444; stroke: #444444"/>
     <use xlink:href="#m4ddccf1b2d" x="160.774717" y="47.977964" style="fill: #444444; stroke: #444444"/>
     <use xlink:href="#m4ddccf1b2d" x="164.902389" y="47.977964" style="fill: #444444; stroke: #444444"/>
     <use xlink:href="#m4ddccf1b2d" x="166.278279" y="46.403741" style="fill: #444444; stroke: #444444"/>
     <use xlink:href="#m4ddccf1b2d" x="167.65417" y="47.453223" style="fill: #444444; stroke: #444444"/>
     <use xlink:href="#m4ddccf1b2d" x="169.03006" y="47.453223" style="fill: #444444; stroke: #444444"/>
     <use xlink:href="#m4ddccf1b2d" x="170.40595" y="44.829517" style="fill: #444444; stroke: #444444"/>
     <use xlink:href="#m4ddccf1b2d" x="174.533622" y="45.879" style="fill: #444444; stroke: #444444"/>
     <use xlink:href="#m4ddccf1b2d" x="175.909512" y="43.255294" style="fill: #444444; stroke: #444444"/>
     <use xlink:href="#m4ddccf1b2d" x="177.285402" y="42.205812" style="fill: #444444; stroke: #444444"/>
     <use xlink:href="#m4ddccf1b2d" x="178.661293" y="44.829517" style="fill: #444444; stroke: #444444"/>
     <use xlink:href="#m4ddccf1b2d" x="180.037183" y="43.780035" style="fill: #444444; stroke: #444444"/>
     <use xlink:href="#m4ddccf1b2d" x="184.164854" y="40.631589" style="fill: #444444; stroke: #444444"/>
     <use xlink:href="#m4ddccf1b2d" x="185.540745" y="41.15633" style="fill: #444444; stroke: #444444"/>
     <use xlink:href="#m4ddccf1b2d" x="186.916635" y="41.15633" style="fill: #444444; stroke: #444444"/>
     <use xlink:href="#m4ddccf1b2d" x="188.292526" y="41.681071" style="fill: #444444; stroke: #444444"/>
     <use xlink:href="#m4ddccf1b2d" x="189.668416" y="40.106848" style="fill: #444444; stroke: #444444"/>
     <use xlink:href="#m4ddccf1b2d" x="193.796087" y="40.631589" style="fill: #444444; stroke: #444444"/>
     <use xlink:href="#m4ddccf1b2d" x="195.171978" y="38.532624" style="fill: #444444; stroke: #444444"/>
     <use xlink:href="#m4ddccf1b2d" x="196.547868" y="38.532624" style="fill: #444444; stroke: #444444"/>
     <use xlink:href="#m4ddccf1b2d" x="197.923759" y="38.532624" style="fill: #444444; stroke: #444444"/>
     <use xlink:href="#m4ddccf1b2d" x="199.299649" y="37.483142" style="fill: #444444; stroke: #444444"/>
     <use xlink:href="#m4ddccf1b2d" x="203.42732" y="36.43366" style="fill: #444444; stroke: #444444"/>
     <use xlink:href="#m4ddccf1b2d" x="204.803211" y="37.483142" style="fill: #444444; stroke: #444444"/>
     <use xlink:href="#m4ddccf1b2d" x="206.179101" y="38.532624" style="fill: #444444; stroke: #444444"/>
     <use xlink:href="#m4ddccf1b2d" x="207.554991" y="39.057366" style="fill: #444444; stroke: #444444"/>
     <use xlink:href="#m4ddccf1b2d" x="208.930882" y="39.582107" style="fill: #444444; stroke: #444444"/>
     <use xlink:href="#m4ddccf1b2d" x="213.058553" y="41.681071" style="fill: #444444; stroke: #444444"/>
     <use xlink:href="#m4ddccf1b2d" x="214.434443" y="44.304776" style="fill: #444444; stroke: #444444"/>
     <use xlink:href="#m4ddccf1b2d" x="215.810334" y="43.780035" style="fill: #444444; stroke: #444444"/>
     <use xlink:href="#m4ddccf1b2d" x="217.186224" y="42.730553" style="fill: #444444; stroke: #444444"/>
     <use xlink:href="#m4ddccf1b2d" x="218.562115" y="40.631589" style="fill: #444444; stroke: #444444"/>
     <use xlink:href="#m4ddccf1b2d" x="222.689786" y="39.582107" style="fill: #444444; stroke: #444444"/>
     <use xlink:href="#m4ddccf1b2d" x="224.065676" y="40.106848" style="fill: #444444; stroke: #444444"/>
     <use xlink:href="#m4ddccf1b2d" x="225.441567" y="41.15633" style="fill: #444444; stroke: #444444"/>
     <use xlink:href="#m4ddccf1b2d" x="226.817457" y="39.582107" style="fill: #444444; stroke: #444444"/>
     <use xlink:href="#m4ddccf1b2d" x="228.193348" y="38.532624" style="fill: #444444; stroke: #444444"/>
     <use xlink:href="#m4ddccf1b2d" x="232.321019" y="39.057366" style="fill: #444444; stroke: #444444"/>
     <use xlink:href="#m4ddccf1b2d" x="233.696909" y="38.532624" style="fill: #444444; stroke: #444444"/>
     <use xlink:href="#m4ddccf1b2d" x="235.0728" y="37.483142" style="fill: #444444; stroke: #444444"/>
     <use xlink:href="#m4ddccf1b2d" x="236.44869" y="35.384178" style="fill: #444444; stroke: #444444"/>
     <use xlink:href="#m4ddccf1b2d" x="237.82458" y="30.136767" style="fill: #444444; stroke: #444444"/>
     <use xlink:href="#m4ddccf1b2d" x="241.952252" y="26.46358" style="fill: #444444; stroke: #444444"/>
     <use xlink:href="#m4ddccf1b2d" x="243.328142" y="29.612026" style="fill: #444444; stroke: #444444"/>
     <use xlink:href="#m4ddccf1b2d" x="244.704033" y="31.71099" style="fill: #444444; stroke: #444444"/>
     <use xlink:href="#m4ddccf1b2d" x="246.079923" y="31.186249" style="fill: #444444; stroke: #444444"/>
     <use xlink:href="#m4ddccf1b2d" x="247.455813" y="34.859437" style="fill: #444444; stroke: #444444"/>
     <use xlink:href="#m4ddccf1b2d" x="251.583485" y="33.285214" style="fill: #444444; stroke: #444444"/>
     <use xlink:href="#m4ddccf1b2d" x="252.959375" y="33.809955" style="fill: #444444; stroke: #444444"/>
     <use xlink:href="#m4ddccf1b2d" x="254.335265" y="33.809955" style="fill: #444444; stroke: #444444"/>
     <use xlink:href="#m4ddccf1b2d" x="255.711156" y="34.859437" style="fill: #444444; stroke: #444444"/>
     <use xlink:href="#m4ddccf1b2d" x="257.087046" y="36.958401" style="fill: #444444; stroke: #444444"/>
     <use xlink:href="#m4ddccf1b2d" x="261.214717" y="36.958401" style="fill: #444444; stroke: #444444"/>
     <use xlink:href="#m4ddccf1b2d" x="262.590608" y="38.007883" style="fill: #444444; stroke: #444444"/>
     <use xlink:href="#m4ddccf1b2d" x="263.966498" y="38.532624" style="fill: #444444; stroke: #444444"/>
     <use xlink:href="#m4ddccf1b2d" x="265.342389" y="42.205812" style="fill: #444444; stroke: #444444"/>
     <use xlink:href="#m4ddccf1b2d" x="266.718279" y="40.106848" style="fill: #444444; stroke: #444444"/>
     <use xlink:href="#m4ddccf1b2d" x="270.84595" y="39.582107" style="fill: #444444; stroke: #444444"/>
     <use xlink:href="#m4ddccf1b2d" x="272.221841" y="40.631589" style="fill: #444444; stroke: #444444"/>
     <use xlink:href="#m4ddccf1b2d" x="273.597731" y="42.730553" style="fill: #444444; stroke: #444444"/>
     <use xlink:href="#m4ddccf1b2d" x="274.973622" y="40.106848" style="fill: #444444; stroke: #444444"/>
     <use xlink:href="#m4ddccf1b2d" x="276.349512" y="39.057366" style="fill: #444444; stroke: #444444"/>
     <use xlink:href="#m4ddccf1b2d" x="280.477183" y="38.532624" style="fill: #444444; stroke: #444444"/>
     <use xlink:href="#m4ddccf1b2d" x="281.853074" y="37.483142" style="fill: #444444; stroke: #444444"/>
     <use xlink:href="#m4ddccf1b2d" x="283.228964" y="39.582107" style="fill: #444444; stroke: #444444"/>
     <use xlink:href="#m4ddccf1b2d" x="284.604854" y="45.354258" style="fill: #444444; stroke: #444444"/>
     <use xlink:href="#m4ddccf1b2d" x="285.980745" y="41.681071" style="fill: #444444; stroke: #444444"/>
     <use xlink:href="#m4ddccf1b2d" x="290.108416" y="44.304776" style="fill: #444444; stroke: #444444"/>
     <use xlink:href="#m4ddccf1b2d" x="291.484307" y="42.730553" style="fill: #444444; stroke: #444444"/>
     <use xlink:href="#m4ddccf1b2d" x="292.860197" y="43.780035" style="fill: #444444; stroke: #444444"/>
     <use xlink:href="#m4ddccf1b2d" x="294.236087" y="44.829517" style="fill: #444444; stroke: #444444"/>
     <use xlink:href="#m4ddccf1b2d" x="295.611978" y="43.780035" style="fill: #444444; stroke: #444444"/>
     <use xlink:href="#m4ddccf1b2d" x="299.739649" y="41.681071" style="fill: #444444; stroke: #444444"/>
     <use xlink:href="#m4ddccf1b2d" x="301.115539" y="42.730553" style="fill: #444444; stroke: #444444"/>
     <use xlink:href="#m4ddccf1b2d" x="302.49143" y="43.255294" style="fill: #444444; stroke: #444444"/>
     <use xlink:href="#m4ddccf1b2d" x="303.86732" y="44.304776" style="fill: #444444; stroke: #444444"/>
     <use xlink:href="#m4ddccf1b2d" x="305.243211" y="43.780035" style="fill: #444444; stroke: #444444"/>
     <use xlink:href="#m4ddccf1b2d" x="309.370882" y="42.205812" style="fill: #444444; stroke: #444444"/>
     <use xlink:href="#m4ddccf1b2d" x="310.746772" y="43.780035" style="fill: #444444; stroke: #444444"/>
     <use xlink:href="#m4ddccf1b2d" x="312.122663" y="44.829517" style="fill: #444444; stroke: #444444"/>
     <use xlink:href="#m4ddccf1b2d" x="313.498553" y="41.681071" style="fill: #444444; stroke: #444444"/>
     <use xlink:href="#m4ddccf1b2d" x="314.874443" y="43.780035" style="fill: #444444; stroke: #444444"/>
     <use xlink:href="#m4ddccf1b2d" x="319.002115" y="43.255294" style="fill: #444444; stroke: #444444"/>
     <use xlink:href="#m4ddccf1b2d" x="320.378005" y="43.780035" style="fill: #444444; stroke: #444444"/>
     <use xlink:href="#m4ddccf1b2d" x="321.753896" y="43.255294" style="fill: #444444; stroke: #444444"/>
     <use xlink:href="#m4ddccf1b2d" x="323.129786" y="50.601669" style="fill: #444444; stroke: #444444"/>
     <use xlink:href="#m4ddccf1b2d" x="324.505676" y="50.601669" style="fill: #444444; stroke: #444444"/>
     <use xlink:href="#m4ddccf1b2d" x="328.633348" y="51.12641" style="fill: #444444; stroke: #444444"/>
     <use xlink:href="#m4ddccf1b2d" x="330.009238" y="48.502705" style="fill: #444444; stroke: #444444"/>
     <use xlink:href="#m4ddccf1b2d" x="331.385128" y="48.502705" style="fill: #444444; stroke: #444444"/>
     <use xlink:href="#m4ddccf1b2d" x="332.761019" y="47.453223" style="fill: #444444; stroke: #444444"/>
     <use xlink:href="#m4ddccf1b2d" x="334.136909" y="45.354258" style="fill: #444444; stroke: #444444"/>
     <use xlink:href="#m4ddccf1b2d" x="338.26458" y="43.255294" style="fill: #444444; stroke: #444444"/>
     <use xlink:href="#m4ddccf1b2d" x="339.640471" y="44.304776" style="fill: #444444; stroke: #444444"/>
     <use xlink:href="#m4ddccf1b2d" x="341.016361" y="45.879" style="fill: #444444; stroke: #444444"/>
     <use xlink:href="#m4ddccf1b2d" x="342.392252" y="45.879" style="fill: #444444; stroke: #444444"/>
     <use xlink:href="#m4ddccf1b2d" x="343.768142" y="45.879" style="fill: #444444; stroke: #444444"/>
     <use xlink:href="#m4ddccf1b2d" x="347.895813" y="46.928482" style="fill: #444444; stroke: #444444"/>
     <use xlink:href="#m4ddccf1b2d" x="349.271704" y="45.354258" style="fill: #444444; stroke: #444444"/>
     <use xlink:href="#m4ddccf1b2d" x="350.647594" y="47.977964" style="fill: #444444; stroke: #444444"/>
     <use xlink:href="#m4ddccf1b2d" x="352.023485" y="49.552187" style="fill: #444444; stroke: #444444"/>
     <use xlink:href="#m4ddccf1b2d" x="353.399375" y="50.601669" style="fill: #444444; stroke: #444444"/>
     <use xlink:href="#m4ddccf1b2d" x="357.527046" y="53.225375" style="fill: #444444; stroke: #444444"/>
     <use xlink:href="#m4ddccf1b2d" x="358.902937" y="53.225375" style="fill: #444444; stroke: #444444"/>
     <use xlink:href="#m4ddccf1b2d" x="360.278827" y="51.651151" style="fill: #444444; stroke: #444444"/>
     <use xlink:href="#m4ddccf1b2d" x="361.654717" y="49.027446" style="fill: #444444; stroke: #444444"/>
     <use xlink:href="#m4ddccf1b2d" x="363.030608" y="49.027446" style="fill: #444444; stroke: #444444"/>
     <use xlink:href="#m4ddccf1b2d" x="367.158279" y="46.928482" style="fill: #444444; stroke: #444444"/>
     <use xlink:href="#m4ddccf1b2d" x="368.53417" y="49.027446" style="fill: #444444; stroke: #444444"/>
     <use xlink:href="#m4ddccf1b2d" x="369.91006" y="48.502705" style="fill: #444444; stroke: #444444"/>
     <use xlink:href="#m4ddccf1b2d" x="371.28595" y="47.977964" style="fill: #444444; stroke: #444444"/>
     <use xlink:href="#m4ddccf1b2d" x="372.661841" y="45.354258" style="fill: #444444; stroke: #444444"/>
     <use xlink:href="#m4ddccf1b2d" x="376.789512" y="43.780035" style="fill: #444444; stroke: #444444"/>
     <use xlink:href="#m4ddccf1b2d" x="378.165402" y="42.730553" style="fill: #444444; stroke: #444444"/>
     <use xlink:href="#m4ddccf1b2d" x="379.541293" y="42.205812" style="fill: #444444; stroke: #444444"/>
     <use xlink:href="#m4ddccf1b2d" x="380.917183" y="41.681071" style="fill: #444444; stroke: #444444"/>
     <use xlink:href="#m4ddccf1b2d" x="382.293074" y="43.255294" style="fill: #444444; stroke: #444444"/>
     <use xlink:href="#m4ddccf1b2d" x="386.420745" y="41.681071" style="fill: #444444; stroke: #444444"/>
     <use xlink:href="#m4ddccf1b2d" x="387.796635" y="46.928482" style="fill: #444444; stroke: #444444"/>
     <use xlink:href="#m4ddccf1b2d" x="389.172526" y="46.928482" style="fill: #444444; stroke: #444444"/>
     <use xlink:href="#m4ddccf1b2d" x="390.548416" y="47.453223" style="fill: #444444; stroke: #444444"/>
     <use xlink:href="#m4ddccf1b2d" x="391.924307" y="47.977964" style="fill: #444444; stroke: #444444"/>
     <use xlink:href="#m4ddccf1b2d" x="396.051978" y="46.928482" style="fill: #444444; stroke: #444444"/>
     <use xlink:href="#m4ddccf1b2d" x="397.427868" y="47.453223" style="fill: #444444; stroke: #444444"/>
     <use xlink:href="#m4ddccf1b2d" x="398.803759" y="44.829517" style="fill: #444444; stroke: #444444"/>
     <use xlink:href="#m4ddccf1b2d" x="400.179649" y="45.354258" style="fill: #444444; stroke: #444444"/>
     <use xlink:href="#m4ddccf1b2d" x="401.555539" y="45.879" style="fill: #444444; stroke: #444444"/>
     <use xlink:href="#m4ddccf1b2d" x="405.683211" y="44.829517" style="fill: #444444; stroke: #444444"/>
     <use xlink:href="#m4ddccf1b2d" x="407.059101" y="46.928482" style="fill: #444444; stroke: #444444"/>
     <use xlink:href="#m4ddccf1b2d" x="408.434991" y="49.552187" style="fill: #444444; stroke: #444444"/>
     <use xlink:href="#m4ddccf1b2d" x="409.810882" y="49.027446" style="fill: #444444; stroke: #444444"/>
     <use xlink:href="#m4ddccf1b2d" x="411.186772" y="47.977964" style="fill: #444444; stroke: #444444"/>
     <use xlink:href="#m4ddccf1b2d" x="415.314443" y="50.076928" style="fill: #444444; stroke: #444444"/>
     <use xlink:href="#m4ddccf1b2d" x="416.690334" y="50.076928" style="fill: #444444; stroke: #444444"/>
     <use xlink:href="#m4ddccf1b2d" x="418.066224" y="53.225375" style="fill: #444444; stroke: #444444"/>
     <use xlink:href="#m4ddccf1b2d" x="419.442115" y="55.324339" style="fill: #444444; stroke: #444444"/>
     <use xlink:href="#m4ddccf1b2d" x="420.818005" y="54.799598" style="fill: #444444; stroke: #444444"/>
     <use xlink:href="#m4ddccf1b2d" x="424.945676" y="53.750116" style="fill: #444444; stroke: #444444"/>
     <use xlink:href="#m4ddccf1b2d" x="426.321567" y="55.84908" style="fill: #444444; stroke: #444444"/>
     <use xlink:href="#m4ddccf1b2d" x="427.697457" y="54.274857" style="fill: #444444; stroke: #444444"/>
     <use xlink:href="#m4ddccf1b2d" x="429.073348" y="54.274857" style="fill: #444444; stroke: #444444"/>
     <use xlink:href="#m4ddccf1b2d" x="430.449238" y="52.700634" style="fill: #444444; stroke: #444444"/>
     <use xlink:href="#m4ddccf1b2d" x="434.576909" y="53.225375" style="fill: #444444; stroke: #444444"/>
     <use xlink:href="#m4ddccf1b2d" x="435.9528" y="54.799598" style="fill: #444444; stroke: #444444"/>
     <use xlink:href="#m4ddccf1b2d" x="437.32869" y="58.472786" style="fill: #444444; stroke: #444444"/>
     <use xlink:href="#m4ddccf1b2d" x="438.70458" y="60.57175" style="fill: #444444; stroke: #444444"/>
     <use xlink:href="#m4ddccf1b2d" x="440.080471" y="57.948044" style="fill: #444444; stroke: #444444"/>
     <use xlink:href="#m4ddccf1b2d" x="444.208142" y="58.997527" style="fill: #444444; stroke: #444444"/>
     <use xlink:href="#m4ddccf1b2d" x="445.584033" y="57.948044" style="fill: #444444; stroke: #444444"/>
     <use xlink:href="#m4ddccf1b2d" x="446.959923" y="60.047009" style="fill: #444444; stroke: #444444"/>
     <use xlink:href="#m4ddccf1b2d" x="448.335813" y="58.472786" style="fill: #444444; stroke: #444444"/>
     <use xlink:href="#m4ddccf1b2d" x="449.711704" y="56.898562" style="fill: #444444; stroke: #444444"/>
     <use xlink:href="#m4ddccf1b2d" x="453.839375" y="56.898562" style="fill: #444444; stroke: #444444"/>
     <use xlink:href="#m4ddccf1b2d" x="455.215265" y="57.423303" style="fill: #444444; stroke: #444444"/>
     <use xlink:href="#m4ddccf1b2d" x="456.591156" y="58.472786" style="fill: #444444; stroke: #444444"/>
     <use xlink:href="#m4ddccf1b2d" x="457.967046" y="59.522268" style="fill: #444444; stroke: #444444"/>
     <use xlink:href="#m4ddccf1b2d" x="459.342937" y="60.57175" style="fill: #444444; stroke: #444444"/>
     <use xlink:href="#m4ddccf1b2d" x="463.470608" y="61.096491" style="fill: #444444; stroke: #444444"/>
     <use xlink:href="#m4ddccf1b2d" x="464.846498" y="62.145973" style="fill: #444444; stroke: #444444"/>
     <use xlink:href="#m4ddccf1b2d" x="466.222389" y="62.670714" style="fill: #444444; stroke: #444444"/>
     <use xlink:href="#m4ddccf1b2d" x="467.598279" y="62.145973" style="fill: #444444; stroke: #444444"/>
     <use xlink:href="#m4ddccf1b2d" x="468.97417" y="63.720196" style="fill: #444444; stroke: #444444"/>
     <use xlink:href="#m4ddccf1b2d" x="473.101841" y="63.720196" style="fill: #444444; stroke: #444444"/>
     <use xlink:href="#m4ddccf1b2d" x="474.477731" y="64.769679" style="fill: #444444; stroke: #444444"/>
     <use xlink:href="#m4ddccf1b2d" x="475.853622" y="65.29442" style="fill: #444444; stroke: #444444"/>
     <use xlink:href="#m4ddccf1b2d" x="477.229512" y="63.195455" style="fill: #444444; stroke: #444444"/>
     <use xlink:href="#m4ddccf1b2d" x="478.605402" y="63.195455" style="fill: #444444; stroke: #444444"/>
     <use xlink:href="#m4ddccf1b2d" x="482.733074" y="62.145973" style="fill: #444444; stroke: #444444"/>
     <use xlink:href="#m4ddccf1b2d" x="484.108964" y="63.720196" style="fill: #444444; stroke: #444444"/>
     <use xlink:href="#m4ddccf1b2d" x="485.484854" y="62.145973" style="fill: #444444; stroke: #444444"/>
     <use xlink:href="#m4ddccf1b2d" x="486.860745" y="61.096491" style="fill: #444444; stroke: #444444"/>
     <use xlink:href="#m4ddccf1b2d" x="488.236635" y="64.769679" style="fill: #444444; stroke: #444444"/>
     <use xlink:href="#m4ddccf1b2d" x="492.364307" y="65.29442" style="fill: #444444; stroke: #444444"/>
     <use xlink:href="#m4ddccf1b2d" x="493.740197" y="65.29442" style="fill: #444444; stroke: #444444"/>
     <use xlink:href="#m4ddccf1b2d" x="495.116087" y="65.819161" style="fill: #444444; stroke: #444444"/>
     <use xlink:href="#m4ddccf1b2d" x="496.491978" y="65.29442" style="fill: #444444; stroke: #444444"/>
     <use xlink:href="#m4ddccf1b2d" x="497.867868" y="62.670714" style="fill: #444444; stroke: #444444"/>
     <use xlink:href="#m4ddccf1b2d" x="501.995539" y="63.195455" style="fill: #444444; stroke: #444444"/>
     <use xlink:href="#m4ddccf1b2d" x="503.37143" y="64.244937" style="fill: #444444; stroke: #444444"/>
     <use xlink:href="#m4ddccf1b2d" x="504.74732" y="64.769679" style="fill: #444444; stroke: #444444"/>
     <use xlink:href="#m4ddccf1b2d" x="506.123211" y="63.195455" style="fill: #444444; stroke: #444444"/>
     <use xlink:href="#m4ddccf1b2d" x="507.499101" y="63.720196" style="fill: #444444; stroke: #444444"/>
     <use xlink:href="#m4ddccf1b2d" x="511.626772" y="64.769679" style="fill: #444444; stroke: #444444"/>
     <use xlink:href="#m4ddccf1b2d" x="513.002663" y="64.244937" style="fill: #444444; stroke: #444444"/>
     <use xlink:href="#m4ddccf1b2d" x="514.378553" y="64.769679" style="fill: #444444; stroke: #444444"/>
     <use xlink:href="#m4ddccf1b2d" x="515.754443" y="64.769679" style="fill: #444444; stroke: #444444"/>
     <use xlink:href="#m4ddccf1b2d" x="517.130334" y="65.819161" style="fill: #444444; stroke: #444444"/>
     <use xlink:href="#m4ddccf1b2d" x="521.258005" y="66.868643" style="fill: #444444; stroke: #444444"/>
     <use xlink:href="#m4ddccf1b2d" x="522.633896" y="66.868643" style="fill: #444444; stroke: #444444"/>
     <use xlink:href="#m4ddccf1b2d" x="524.009786" y="67.918125" style="fill: #444444; stroke: #444444"/>
     <use xlink:href="#m4ddccf1b2d" x="525.385676" y="67.393384" style="fill: #444444; stroke: #444444"/>
     <use xlink:href="#m4ddccf1b2d" x="526.761567" y="64.769679" style="fill: #444444; stroke: #444444"/>
     <use xlink:href="#m4ddccf1b2d" x="530.889238" y="64.769679" style="fill: #444444; stroke: #444444"/>
     <use xlink:href="#m4ddccf1b2d" x="532.265128" y="65.29442" style="fill: #444444; stroke: #444444"/>
     <use xlink:href="#m4ddccf1b2d" x="533.641019" y="65.819161" style="fill: #444444; stroke: #444444"/>
     <use xlink:href="#m4ddccf1b2d" x="535.016909" y="66.343902" style="fill: #444444; stroke: #444444"/>
     <use xlink:href="#m4ddccf1b2d" x="536.3928" y="65.819161" style="fill: #444444; stroke: #444444"/>
     <use xlink:href="#m4ddccf1b2d" x="540.520471" y="65.29442" style="fill: #444444; stroke: #444444"/>
     <use xlink:href="#m4ddccf1b2d" x="541.896361" y="64.244937" style="fill: #444444; stroke: #444444"/>
     <use xlink:href="#m4ddccf1b2d" x="543.272252" y="63.720196" style="fill: #444444; stroke: #444444"/>
     <use xlink:href="#m4ddccf1b2d" x="544.648142" y="64.769679" style="fill: #444444; stroke: #444444"/>
     <use xlink:href="#m4ddccf1b2d" x="546.024033" y="63.195455" style="fill: #444444; stroke: #444444"/>
     <use xlink:href="#m4ddccf1b2d" x="550.151704" y="63.195455" style="fill: #444444; stroke: #444444"/>
     <use xlink:href="#m4ddccf1b2d" x="551.527594" y="63.195455" style="fill: #444444; stroke: #444444"/>
     <use xlink:href="#m4ddccf1b2d" x="552.903485" y="63.195455" style="fill: #444444; stroke: #444444"/>
     <use xlink:href="#m4ddccf1b2d" x="554.279375" y="63.720196" style="fill: #444444; stroke: #444444"/>
    </g>
   </g>
   <g id="line2d_34">
    <path d="M 52.079375 109.37267 
L 554.279375 109.37267 
" clip-path="url(#pf8e9578a4e)" style="fill: none; stroke: #000000; stroke-linecap: square"/>
   </g>
   <g id="patch_3">
    <path d="M 52.079375 113.518125 
L 52.079375 22.318125 
" style="fill: none; stroke: #000000; stroke-width: 0.8; stroke-linejoin: miter; stroke-linecap: square"/>
   </g>
   <g id="patch_4">
    <path d="M 554.279375 113.518125 
L 554.279375 22.318125 
" style="fill: none; stroke: #000000; stroke-width: 0.8; stroke-linejoin: miter; stroke-linecap: square"/>
   </g>
   <g id="patch_5">
    <path d="M 52.079375 113.518125 
L 554.279375 113.518125 
" style="fill: none; stroke: #000000; stroke-width: 0.8; stroke-linejoin: miter; stroke-linecap: square"/>
   </g>
   <g id="patch_6">
    <path d="M 52.079375 22.318125 
L 554.279375 22.318125 
" style="fill: none; stroke: #000000; stroke-width: 0.8; stroke-linejoin: miter; stroke-linecap: square"/>
   </g>
   <g id="text_18">
    <!-- UST10  GoC10 Spread (bp) -->
    <g transform="translate(219.479375 16.318125) scale(0.12 -0.12)">
     <defs>
      <path id="DejaVuSans-55" d="M 556 4666 
L 1191 4666 
L 1191 1831 
Q 1191 1081 1462 751 
Q 1734 422 2344 422 
Q 2950 422 3222 751 
Q 3494 1081 3494 1831 
L 3494 4666 
L 4128 4666 
L 4128 1753 
Q 4128 841 3676 375 
Q 3225 -91 2344 -91 
Q 1459 -91 1007 375 
Q 556 841 556 1753 
L 556 4666 
z
" transform="scale(0.015625)"/>
      <path id="DejaVuSans-53" d="M 3425 4513 
L 3425 3897 
Q 3066 4069 2747 4153 
Q 2428 4238 2131 4238 
Q 1616 4238 1336 4038 
Q 1056 3838 1056 3469 
Q 1056 3159 1242 3001 
Q 1428 2844 1947 2747 
L 2328 2669 
Q 3034 2534 3370 2195 
Q 3706 1856 3706 1288 
Q 3706 609 3251 259 
Q 2797 -91 1919 -91 
Q 1588 -91 1214 -16 
Q 841 59 441 206 
L 441 856 
Q 825 641 1194 531 
Q 1563 422 1919 422 
Q 2459 422 2753 634 
Q 3047 847 3047 1241 
Q 3047 1584 2836 1778 
Q 2625 1972 2144 2069 
L 1759 2144 
Q 1053 2284 737 2584 
Q 422 2884 422 3419 
Q 422 4038 858 4394 
Q 1294 4750 2059 4750 
Q 2388 4750 2728 4690 
Q 3069 4631 3425 4513 
z
" transform="scale(0.015625)"/>
      <path id="DejaVuSans-54" d="M -19 4666 
L 3928 4666 
L 3928 4134 
L 2272 4134 
L 2272 0 
L 1638 0 
L 1638 4134 
L -19 4134 
L -19 4666 
z
" transform="scale(0.015625)"/>
      <path id="DejaVuSans-20" transform="scale(0.015625)"/>
      <path id="DejaVuSans-2013" d="M 313 1978 
L 2888 1978 
L 2888 1528 
L 313 1528 
L 313 1978 
z
" transform="scale(0.015625)"/>
      <path id="DejaVuSans-47" d="M 3809 666 
L 3809 1919 
L 2778 1919 
L 2778 2438 
L 4434 2438 
L 4434 434 
Q 4069 175 3628 42 
Q 3188 -91 2688 -91 
Q 1594 -91 976 548 
Q 359 1188 359 2328 
Q 359 3472 976 4111 
Q 1594 4750 2688 4750 
Q 3144 4750 3555 4637 
Q 3966 4525 4313 4306 
L 4313 3634 
Q 3963 3931 3569 4081 
Q 3175 4231 2741 4231 
Q 1884 4231 1454 3753 
Q 1025 3275 1025 2328 
Q 1025 1384 1454 906 
Q 1884 428 2741 428 
Q 3075 428 3337 486 
Q 3600 544 3809 666 
z
" transform="scale(0.015625)"/>
      <path id="DejaVuSans-6f" d="M 1959 3097 
Q 1497 3097 1228 2736 
Q 959 2375 959 1747 
Q 959 1119 1226 758 
Q 1494 397 1959 397 
Q 2419 397 2687 759 
Q 2956 1122 2956 1747 
Q 2956 2369 2687 2733 
Q 2419 3097 1959 3097 
z
M 1959 3584 
Q 2709 3584 3137 3096 
Q 3566 2609 3566 1747 
Q 3566 888 3137 398 
Q 2709 -91 1959 -91 
Q 1206 -91 779 398 
Q 353 888 353 1747 
Q 353 2609 779 3096 
Q 1206 3584 1959 3584 
z
" transform="scale(0.015625)"/>
      <path id="DejaVuSans-43" d="M 4122 4306 
L 4122 3641 
Q 3803 3938 3442 4084 
Q 3081 4231 2675 4231 
Q 1875 4231 1450 3742 
Q 1025 3253 1025 2328 
Q 1025 1406 1450 917 
Q 1875 428 2675 428 
Q 3081 428 3442 575 
Q 3803 722 4122 1019 
L 4122 359 
Q 3791 134 3420 21 
Q 3050 -91 2638 -91 
Q 1578 -91 968 557 
Q 359 1206 359 2328 
Q 359 3453 968 4101 
Q 1578 4750 2638 4750 
Q 3056 4750 3426 4639 
Q 3797 4528 4122 4306 
z
" transform="scale(0.015625)"/>
      <path id="DejaVuSans-72" d="M 2631 2963 
Q 2534 3019 2420 3045 
Q 2306 3072 2169 3072 
Q 1681 3072 1420 2755 
Q 1159 2438 1159 1844 
L 1159 0 
L 581 0 
L 581 3500 
L 1159 3500 
L 1159 2956 
Q 1341 3275 1631 3429 
Q 1922 3584 2338 3584 
Q 2397 3584 2469 3576 
Q 2541 3569 2628 3553 
L 2631 2963 
z
" transform="scale(0.015625)"/>
      <path id="DejaVuSans-65" d="M 3597 1894 
L 3597 1613 
L 953 1613 
Q 991 1019 1311 708 
Q 1631 397 2203 397 
Q 2534 397 2845 478 
Q 3156 559 3463 722 
L 3463 178 
Q 3153 47 2828 -22 
Q 2503 -91 2169 -91 
Q 1331 -91 842 396 
Q 353 884 353 1716 
Q 353 2575 817 3079 
Q 1281 3584 2069 3584 
Q 2775 3584 3186 3129 
Q 3597 2675 3597 1894 
z
M 3022 2063 
Q 3016 2534 2758 2815 
Q 2500 3097 2075 3097 
Q 1594 3097 1305 2825 
Q 1016 2553 972 2059 
L 3022 2063 
z
" transform="scale(0.015625)"/>
      <path id="DejaVuSans-61" d="M 2194 1759 
Q 1497 1759 1228 1600 
Q 959 1441 959 1056 
Q 959 750 1161 570 
Q 1363 391 1709 391 
Q 2188 391 2477 730 
Q 2766 1069 2766 1631 
L 2766 1759 
L 2194 1759 
z
M 3341 1997 
L 3341 0 
L 2766 0 
L 2766 531 
Q 2569 213 2275 61 
Q 1981 -91 1556 -91 
Q 1019 -91 701 211 
Q 384 513 384 1019 
Q 384 1609 779 1909 
Q 1175 2209 1959 2209 
L 2766 2209 
L 2766 2266 
Q 2766 2663 2505 2880 
Q 2244 3097 1772 3097 
Q 1472 3097 1187 3025 
Q 903 2953 641 2809 
L 641 3341 
Q 956 3463 1253 3523 
Q 1550 3584 1831 3584 
Q 2591 3584 2966 3190 
Q 3341 2797 3341 1997 
z
" transform="scale(0.015625)"/>
      <path id="DejaVuSans-64" d="M 2906 2969 
L 2906 4863 
L 3481 4863 
L 3481 0 
L 2906 0 
L 2906 525 
Q 2725 213 2448 61 
Q 2172 -91 1784 -91 
Q 1150 -91 751 415 
Q 353 922 353 1747 
Q 353 2572 751 3078 
Q 1150 3584 1784 3584 
Q 2172 3584 2448 3432 
Q 2725 3281 2906 2969 
z
M 947 1747 
Q 947 1113 1208 752 
Q 1469 391 1925 391 
Q 2381 391 2643 752 
Q 2906 1113 2906 1747 
Q 2906 2381 2643 2742 
Q 2381 3103 1925 3103 
Q 1469 3103 1208 2742 
Q 947 2381 947 1747 
z
" transform="scale(0.015625)"/>
      <path id="DejaVuSans-28" d="M 1984 4856 
Q 1566 4138 1362 3434 
Q 1159 2731 1159 2009 
Q 1159 1288 1364 580 
Q 1569 -128 1984 -844 
L 1484 -844 
Q 1016 -109 783 600 
Q 550 1309 550 2009 
Q 550 2706 781 3412 
Q 1013 4119 1484 4856 
L 1984 4856 
z
" transform="scale(0.015625)"/>
      <path id="DejaVuSans-29" d="M 513 4856 
L 1013 4856 
Q 1481 4119 1714 3412 
Q 1947 2706 1947 2009 
Q 1947 1309 1714 600 
Q 1481 -109 1013 -844 
L 513 -844 
Q 928 -128 1133 580 
Q 1338 1288 1338 2009 
Q 1338 2731 1133 3434 
Q 928 4138 513 4856 
z
" transform="scale(0.015625)"/>
     </defs>
     <use xlink:href="#DejaVuSans-55"/>
     <use xlink:href="#DejaVuSans-53" transform="translate(73.193359 0)"/>
     <use xlink:href="#DejaVuSans-54" transform="translate(136.669922 0)"/>
     <use xlink:href="#DejaVuSans-31" transform="translate(197.753906 0)"/>
     <use xlink:href="#DejaVuSans-30" transform="translate(261.376953 0)"/>
     <use xlink:href="#DejaVuSans-20" transform="translate(325 0)"/>
     <use xlink:href="#DejaVuSans-2013" transform="translate(356.787109 0)"/>
     <use xlink:href="#DejaVuSans-20" transform="translate(406.787109 0)"/>
     <use xlink:href="#DejaVuSans-47" transform="translate(438.574219 0)"/>
     <use xlink:href="#DejaVuSans-6f" transform="translate(516.064453 0)"/>
     <use xlink:href="#DejaVuSans-43" transform="translate(577.246094 0)"/>
     <use xlink:href="#DejaVuSans-31" transform="translate(647.070312 0)"/>
     <use xlink:href="#DejaVuSans-30" transform="translate(710.693359 0)"/>
     <use xlink:href="#DejaVuSans-20" transform="translate(774.316406 0)"/>
     <use xlink:href="#DejaVuSans-53" transform="translate(806.103516 0)"/>
     <use xlink:href="#DejaVuSans-70" transform="translate(869.580078 0)"/>
     <use xlink:href="#DejaVuSans-72" transform="translate(933.056641 0)"/>
     <use xlink:href="#DejaVuSans-65" transform="translate(971.919922 0)"/>
     <use xlink:href="#DejaVuSans-61" transform="translate(1033.443359 0)"/>
     <use xlink:href="#DejaVuSans-64" transform="translate(1094.722656 0)"/>
     <use xlink:href="#DejaVuSans-20" transform="translate(1158.199219 0)"/>
     <use xlink:href="#DejaVuSans-28" transform="translate(1189.986328 0)"/>
     <use xlink:href="#DejaVuSans-62" transform="translate(1229 0)"/>
     <use xlink:href="#DejaVuSans-70" transform="translate(1292.476562 0)"/>
     <use xlink:href="#DejaVuSans-29" transform="translate(1355.953125 0)"/>
    </g>
   </g>
  </g>
  <g id="axes_2">
   <g id="patch_7">
    <path d="M 52.079375 188.638125 
L 554.279375 188.638125 
L 554.279375 156.718125 
L 52.079375 156.718125 
z
" style="fill: #ffffff"/>
   </g>
   <g id="matplotlib.axis_3">
    <g id="xtick_13">
     <g id="line2d_35">
      <path d="M 69.96595 188.638125 
L 69.96595 156.718125 
" clip-path="url(#pdb998fc580)" style="fill: none; stroke: #b0b0b0; stroke-opacity: 0.15; stroke-width: 0.8; stroke-linecap: square"/>
     </g>
     <g id="line2d_36">
      <g>
       <use xlink:href="#ma640130455" x="69.96595" y="188.638125" style="stroke: #000000; stroke-width: 0.8"/>
      </g>
     </g>
     <g id="text_19">
      <!-- 2024-10 -->
      <g transform="translate(38.950479 230.555942) rotate(-45) scale(0.1 -0.1)">
       <use xlink:href="#DejaVuSans-32"/>
       <use xlink:href="#DejaVuSans-30" transform="translate(63.623047 0)"/>
       <use xlink:href="#DejaVuSans-32" transform="translate(127.246094 0)"/>
       <use xlink:href="#DejaVuSans-34" transform="translate(190.869141 0)"/>
       <use xlink:href="#DejaVuSans-2d" transform="translate(254.492188 0)"/>
       <use xlink:href="#DejaVuSans-31" transform="translate(290.576172 0)"/>
       <use xlink:href="#DejaVuSans-30" transform="translate(354.199219 0)"/>
      </g>
     </g>
    </g>
    <g id="xtick_14">
     <g id="line2d_37">
      <path d="M 112.618553 188.638125 
L 112.618553 156.718125 
" clip-path="url(#pdb998fc580)" style="fill: none; stroke: #b0b0b0; stroke-opacity: 0.15; stroke-width: 0.8; stroke-linecap: square"/>
     </g>
     <g id="line2d_38">
      <g>
       <use xlink:href="#ma640130455" x="112.618553" y="188.638125" style="stroke: #000000; stroke-width: 0.8"/>
      </g>
     </g>
     <g id="text_20">
      <!-- 2024-11 -->
      <g transform="translate(81.603082 230.555942) rotate(-45) scale(0.1 -0.1)">
       <use xlink:href="#DejaVuSans-32"/>
       <use xlink:href="#DejaVuSans-30" transform="translate(63.623047 0)"/>
       <use xlink:href="#DejaVuSans-32" transform="translate(127.246094 0)"/>
       <use xlink:href="#DejaVuSans-34" transform="translate(190.869141 0)"/>
       <use xlink:href="#DejaVuSans-2d" transform="translate(254.492188 0)"/>
       <use xlink:href="#DejaVuSans-31" transform="translate(290.576172 0)"/>
       <use xlink:href="#DejaVuSans-31" transform="translate(354.199219 0)"/>
      </g>
     </g>
    </g>
    <g id="xtick_15">
     <g id="line2d_39">
      <path d="M 153.895265 188.638125 
L 153.895265 156.718125 
" clip-path="url(#pdb998fc580)" style="fill: none; stroke: #b0b0b0; stroke-opacity: 0.15; stroke-width: 0.8; stroke-linecap: square"/>
     </g>
     <g id="line2d_40">
      <g>
       <use xlink:href="#ma640130455" x="153.895265" y="188.638125" style="stroke: #000000; stroke-width: 0.8"/>
      </g>
     </g>
     <g id="text_21">
      <!-- 2024-12 -->
      <g transform="translate(122.879794 230.555942) rotate(-45) scale(0.1 -0.1)">
       <use xlink:href="#DejaVuSans-32"/>
       <use xlink:href="#DejaVuSans-30" transform="translate(63.623047 0)"/>
       <use xlink:href="#DejaVuSans-32" transform="translate(127.246094 0)"/>
       <use xlink:href="#DejaVuSans-34" transform="translate(190.869141 0)"/>
       <use xlink:href="#DejaVuSans-2d" transform="translate(254.492188 0)"/>
       <use xlink:href="#DejaVuSans-31" transform="translate(290.576172 0)"/>
       <use xlink:href="#DejaVuSans-32" transform="translate(354.199219 0)"/>
      </g>
     </g>
    </g>
    <g id="xtick_16">
     <g id="line2d_41">
      <path d="M 196.547868 188.638125 
L 196.547868 156.718125 
" clip-path="url(#pdb998fc580)" style="fill: none; stroke: #b0b0b0; stroke-opacity: 0.15; stroke-width: 0.8; stroke-linecap: square"/>
     </g>
     <g id="line2d_42">
      <g>
       <use xlink:href="#ma640130455" x="196.547868" y="188.638125" style="stroke: #000000; stroke-width: 0.8"/>
      </g>
     </g>
     <g id="text_22">
      <!-- 2025-01 -->
      <g transform="translate(165.532397 230.555942) rotate(-45) scale(0.1 -0.1)">
       <use xlink:href="#DejaVuSans-32"/>
       <use xlink:href="#DejaVuSans-30" transform="translate(63.623047 0)"/>
       <use xlink:href="#DejaVuSans-32" transform="translate(127.246094 0)"/>
       <use xlink:href="#DejaVuSans-35" transform="translate(190.869141 0)"/>
       <use xlink:href="#DejaVuSans-2d" transform="translate(254.492188 0)"/>
       <use xlink:href="#DejaVuSans-30" transform="translate(290.576172 0)"/>
       <use xlink:href="#DejaVuSans-31" transform="translate(354.199219 0)"/>
      </g>
     </g>
    </g>
    <g id="xtick_17">
     <g id="line2d_43">
      <path d="M 239.200471 188.638125 
L 239.200471 156.718125 
" clip-path="url(#pdb998fc580)" style="fill: none; stroke: #b0b0b0; stroke-opacity: 0.15; stroke-width: 0.8; stroke-linecap: square"/>
     </g>
     <g id="line2d_44">
      <g>
       <use xlink:href="#ma640130455" x="239.200471" y="188.638125" style="stroke: #000000; stroke-width: 0.8"/>
      </g>
     </g>
     <g id="text_23">
      <!-- 2025-02 -->
      <g transform="translate(208.185 230.555942) rotate(-45) scale(0.1 -0.1)">
       <use xlink:href="#DejaVuSans-32"/>
       <use xlink:href="#DejaVuSans-30" transform="translate(63.623047 0)"/>
       <use xlink:href="#DejaVuSans-32" transform="translate(127.246094 0)"/>
       <use xlink:href="#DejaVuSans-35" transform="translate(190.869141 0)"/>
       <use xlink:href="#DejaVuSans-2d" transform="translate(254.492188 0)"/>
       <use xlink:href="#DejaVuSans-30" transform="translate(290.576172 0)"/>
       <use xlink:href="#DejaVuSans-32" transform="translate(354.199219 0)"/>
      </g>
     </g>
    </g>
    <g id="xtick_18">
     <g id="line2d_45">
      <path d="M 277.725402 188.638125 
L 277.725402 156.718125 
" clip-path="url(#pdb998fc580)" style="fill: none; stroke: #b0b0b0; stroke-opacity: 0.15; stroke-width: 0.8; stroke-linecap: square"/>
     </g>
     <g id="line2d_46">
      <g>
       <use xlink:href="#ma640130455" x="277.725402" y="188.638125" style="stroke: #000000; stroke-width: 0.8"/>
      </g>
     </g>
     <g id="text_24">
      <!-- 2025-03 -->
      <g transform="translate(246.709931 230.555942) rotate(-45) scale(0.1 -0.1)">
       <use xlink:href="#DejaVuSans-32"/>
       <use xlink:href="#DejaVuSans-30" transform="translate(63.623047 0)"/>
       <use xlink:href="#DejaVuSans-32" transform="translate(127.246094 0)"/>
       <use xlink:href="#DejaVuSans-35" transform="translate(190.869141 0)"/>
       <use xlink:href="#DejaVuSans-2d" transform="translate(254.492188 0)"/>
       <use xlink:href="#DejaVuSans-30" transform="translate(290.576172 0)"/>
       <use xlink:href="#DejaVuSans-33" transform="translate(354.199219 0)"/>
      </g>
     </g>
    </g>
    <g id="xtick_19">
     <g id="line2d_47">
      <path d="M 320.378005 188.638125 
L 320.378005 156.718125 
" clip-path="url(#pdb998fc580)" style="fill: none; stroke: #b0b0b0; stroke-opacity: 0.15; stroke-width: 0.8; stroke-linecap: square"/>
     </g>
     <g id="line2d_48">
      <g>
       <use xlink:href="#ma640130455" x="320.378005" y="188.638125" style="stroke: #000000; stroke-width: 0.8"/>
      </g>
     </g>
     <g id="text_25">
      <!-- 2025-04 -->
      <g transform="translate(289.362534 230.555942) rotate(-45) scale(0.1 -0.1)">
       <use xlink:href="#DejaVuSans-32"/>
       <use xlink:href="#DejaVuSans-30" transform="translate(63.623047 0)"/>
       <use xlink:href="#DejaVuSans-32" transform="translate(127.246094 0)"/>
       <use xlink:href="#DejaVuSans-35" transform="translate(190.869141 0)"/>
       <use xlink:href="#DejaVuSans-2d" transform="translate(254.492188 0)"/>
       <use xlink:href="#DejaVuSans-30" transform="translate(290.576172 0)"/>
       <use xlink:href="#DejaVuSans-34" transform="translate(354.199219 0)"/>
      </g>
     </g>
    </g>
    <g id="xtick_20">
     <g id="line2d_49">
      <path d="M 361.654717 188.638125 
L 361.654717 156.718125 
" clip-path="url(#pdb998fc580)" style="fill: none; stroke: #b0b0b0; stroke-opacity: 0.15; stroke-width: 0.8; stroke-linecap: square"/>
     </g>
     <g id="line2d_50">
      <g>
       <use xlink:href="#ma640130455" x="361.654717" y="188.638125" style="stroke: #000000; stroke-width: 0.8"/>
      </g>
     </g>
     <g id="text_26">
      <!-- 2025-05 -->
      <g transform="translate(330.639246 230.555942) rotate(-45) scale(0.1 -0.1)">
       <use xlink:href="#DejaVuSans-32"/>
       <use xlink:href="#DejaVuSans-30" transform="translate(63.623047 0)"/>
       <use xlink:href="#DejaVuSans-32" transform="translate(127.246094 0)"/>
       <use xlink:href="#DejaVuSans-35" transform="translate(190.869141 0)"/>
       <use xlink:href="#DejaVuSans-2d" transform="translate(254.492188 0)"/>
       <use xlink:href="#DejaVuSans-30" transform="translate(290.576172 0)"/>
       <use xlink:href="#DejaVuSans-35" transform="translate(354.199219 0)"/>
      </g>
     </g>
    </g>
    <g id="xtick_21">
     <g id="line2d_51">
      <path d="M 404.30732 188.638125 
L 404.30732 156.718125 
" clip-path="url(#pdb998fc580)" style="fill: none; stroke: #b0b0b0; stroke-opacity: 0.15; stroke-width: 0.8; stroke-linecap: square"/>
     </g>
     <g id="line2d_52">
      <g>
       <use xlink:href="#ma640130455" x="404.30732" y="188.638125" style="stroke: #000000; stroke-width: 0.8"/>
      </g>
     </g>
     <g id="text_27">
      <!-- 2025-06 -->
      <g transform="translate(373.291849 230.555942) rotate(-45) scale(0.1 -0.1)">
       <use xlink:href="#DejaVuSans-32"/>
       <use xlink:href="#DejaVuSans-30" transform="translate(63.623047 0)"/>
       <use xlink:href="#DejaVuSans-32" transform="translate(127.246094 0)"/>
       <use xlink:href="#DejaVuSans-35" transform="translate(190.869141 0)"/>
       <use xlink:href="#DejaVuSans-2d" transform="translate(254.492188 0)"/>
       <use xlink:href="#DejaVuSans-30" transform="translate(290.576172 0)"/>
       <use xlink:href="#DejaVuSans-36" transform="translate(354.199219 0)"/>
      </g>
     </g>
    </g>
    <g id="xtick_22">
     <g id="line2d_53">
      <path d="M 445.584033 188.638125 
L 445.584033 156.718125 
" clip-path="url(#pdb998fc580)" style="fill: none; stroke: #b0b0b0; stroke-opacity: 0.15; stroke-width: 0.8; stroke-linecap: square"/>
     </g>
     <g id="line2d_54">
      <g>
       <use xlink:href="#ma640130455" x="445.584033" y="188.638125" style="stroke: #000000; stroke-width: 0.8"/>
      </g>
     </g>
     <g id="text_28">
      <!-- 2025-07 -->
      <g transform="translate(414.568561 230.555942) rotate(-45) scale(0.1 -0.1)">
       <use xlink:href="#DejaVuSans-32"/>
       <use xlink:href="#DejaVuSans-30" transform="translate(63.623047 0)"/>
       <use xlink:href="#DejaVuSans-32" transform="translate(127.246094 0)"/>
       <use xlink:href="#DejaVuSans-35" transform="translate(190.869141 0)"/>
       <use xlink:href="#DejaVuSans-2d" transform="translate(254.492188 0)"/>
       <use xlink:href="#DejaVuSans-30" transform="translate(290.576172 0)"/>
       <use xlink:href="#DejaVuSans-37" transform="translate(354.199219 0)"/>
      </g>
     </g>
    </g>
    <g id="xtick_23">
     <g id="line2d_55">
      <path d="M 488.236635 188.638125 
L 488.236635 156.718125 
" clip-path="url(#pdb998fc580)" style="fill: none; stroke: #b0b0b0; stroke-opacity: 0.15; stroke-width: 0.8; stroke-linecap: square"/>
     </g>
     <g id="line2d_56">
      <g>
       <use xlink:href="#ma640130455" x="488.236635" y="188.638125" style="stroke: #000000; stroke-width: 0.8"/>
      </g>
     </g>
     <g id="text_29">
      <!-- 2025-08 -->
      <g transform="translate(457.221164 230.555942) rotate(-45) scale(0.1 -0.1)">
       <use xlink:href="#DejaVuSans-32"/>
       <use xlink:href="#DejaVuSans-30" transform="translate(63.623047 0)"/>
       <use xlink:href="#DejaVuSans-32" transform="translate(127.246094 0)"/>
       <use xlink:href="#DejaVuSans-35" transform="translate(190.869141 0)"/>
       <use xlink:href="#DejaVuSans-2d" transform="translate(254.492188 0)"/>
       <use xlink:href="#DejaVuSans-30" transform="translate(290.576172 0)"/>
       <use xlink:href="#DejaVuSans-38" transform="translate(354.199219 0)"/>
      </g>
     </g>
    </g>
    <g id="xtick_24">
     <g id="line2d_57">
      <path d="M 530.889238 188.638125 
L 530.889238 156.718125 
" clip-path="url(#pdb998fc580)" style="fill: none; stroke: #b0b0b0; stroke-opacity: 0.15; stroke-width: 0.8; stroke-linecap: square"/>
     </g>
     <g id="line2d_58">
      <g>
       <use xlink:href="#ma640130455" x="530.889238" y="188.638125" style="stroke: #000000; stroke-width: 0.8"/>
      </g>
     </g>
     <g id="text_30">
      <!-- 2025-09 -->
      <g transform="translate(499.873767 230.555942) rotate(-45) scale(0.1 -0.1)">
       <use xlink:href="#DejaVuSans-32"/>
       <use xlink:href="#DejaVuSans-30" transform="translate(63.623047 0)"/>
       <use xlink:href="#DejaVuSans-32" transform="translate(127.246094 0)"/>
       <use xlink:href="#DejaVuSans-35" transform="translate(190.869141 0)"/>
       <use xlink:href="#DejaVuSans-2d" transform="translate(254.492188 0)"/>
       <use xlink:href="#DejaVuSans-30" transform="translate(290.576172 0)"/>
       <use xlink:href="#DejaVuSans-39" transform="translate(354.199219 0)"/>
      </g>
     </g>
    </g>
   </g>
   <g id="matplotlib.axis_4">
    <g id="ytick_5">
     <g id="line2d_59">
      <path d="M 52.079375 186.317949 
L 554.279375 186.317949 
" clip-path="url(#pdb998fc580)" style="fill: none; stroke: #b0b0b0; stroke-opacity: 0.15; stroke-width: 0.8; stroke-linecap: square"/>
     </g>
     <g id="line2d_60">
      <g>
       <use xlink:href="#m5276fd971c" x="52.079375" y="186.317949" style="stroke: #000000; stroke-width: 0.8"/>
      </g>
     </g>
     <g id="text_31">
      <!-- 1.35 -->
      <g transform="translate(22.81375 190.117168) scale(0.1 -0.1)">
       <defs>
        <path id="DejaVuSans-2e" d="M 684 794 
L 1344 794 
L 1344 0 
L 684 0 
L 684 794 
z
" transform="scale(0.015625)"/>
       </defs>
       <use xlink:href="#DejaVuSans-31"/>
       <use xlink:href="#DejaVuSans-2e" transform="translate(63.623047 0)"/>
       <use xlink:href="#DejaVuSans-33" transform="translate(95.410156 0)"/>
       <use xlink:href="#DejaVuSans-35" transform="translate(159.033203 0)"/>
      </g>
     </g>
    </g>
    <g id="ytick_6">
     <g id="line2d_61">
      <path d="M 52.079375 173.534609 
L 554.279375 173.534609 
" clip-path="url(#pdb998fc580)" style="fill: none; stroke: #b0b0b0; stroke-opacity: 0.15; stroke-width: 0.8; stroke-linecap: square"/>
     </g>
     <g id="line2d_62">
      <g>
       <use xlink:href="#m5276fd971c" x="52.079375" y="173.534609" style="stroke: #000000; stroke-width: 0.8"/>
      </g>
     </g>
     <g id="text_32">
      <!-- 1.40 -->
      <g transform="translate(22.81375 177.333828) scale(0.1 -0.1)">
       <use xlink:href="#DejaVuSans-31"/>
       <use xlink:href="#DejaVuSans-2e" transform="translate(63.623047 0)"/>
       <use xlink:href="#DejaVuSans-34" transform="translate(95.410156 0)"/>
       <use xlink:href="#DejaVuSans-30" transform="translate(159.033203 0)"/>
      </g>
     </g>
    </g>
    <g id="ytick_7">
     <g id="line2d_63">
      <path d="M 52.079375 160.751269 
L 554.279375 160.751269 
" clip-path="url(#pdb998fc580)" style="fill: none; stroke: #b0b0b0; stroke-opacity: 0.15; stroke-width: 0.8; stroke-linecap: square"/>
     </g>
     <g id="line2d_64">
      <g>
       <use xlink:href="#m5276fd971c" x="52.079375" y="160.751269" style="stroke: #000000; stroke-width: 0.8"/>
      </g>
     </g>
     <g id="text_33">
      <!-- 1.45 -->
      <g transform="translate(22.81375 164.550488) scale(0.1 -0.1)">
       <use xlink:href="#DejaVuSans-31"/>
       <use xlink:href="#DejaVuSans-2e" transform="translate(63.623047 0)"/>
       <use xlink:href="#DejaVuSans-34" transform="translate(95.410156 0)"/>
       <use xlink:href="#DejaVuSans-35" transform="translate(159.033203 0)"/>
      </g>
     </g>
    </g>
    <g id="text_34">
     <!-- USD/CAD -->
     <g transform="translate(16.318125 200.43375) rotate(-90) scale(0.12 -0.12)">
      <defs>
       <path id="DejaVuSans-44" d="M 1259 4147 
L 1259 519 
L 2022 519 
Q 2988 519 3436 956 
Q 3884 1394 3884 2338 
Q 3884 3275 3436 3711 
Q 2988 4147 2022 4147 
L 1259 4147 
z
M 628 4666 
L 1925 4666 
Q 3281 4666 3915 4102 
Q 4550 3538 4550 2338 
Q 4550 1131 3912 565 
Q 3275 0 1925 0 
L 628 0 
L 628 4666 
z
" transform="scale(0.015625)"/>
       <path id="DejaVuSans-2f" d="M 1625 4666 
L 2156 4666 
L 531 -594 
L 0 -594 
L 1625 4666 
z
" transform="scale(0.015625)"/>
       <path id="DejaVuSans-41" d="M 2188 4044 
L 1331 1722 
L 3047 1722 
L 2188 4044 
z
M 1831 4666 
L 2547 4666 
L 4325 0 
L 3669 0 
L 3244 1197 
L 1141 1197 
L 716 0 
L 50 0 
L 1831 4666 
z
" transform="scale(0.015625)"/>
      </defs>
      <use xlink:href="#DejaVuSans-55"/>
      <use xlink:href="#DejaVuSans-53" transform="translate(73.193359 0)"/>
      <use xlink:href="#DejaVuSans-44" transform="translate(136.669922 0)"/>
      <use xlink:href="#DejaVuSans-2f" transform="translate(213.671875 0)"/>
      <use xlink:href="#DejaVuSans-43" transform="translate(247.363281 0)"/>
      <use xlink:href="#DejaVuSans-41" transform="translate(317.1875 0)"/>
      <use xlink:href="#DejaVuSans-44" transform="translate(385.595703 0)"/>
     </g>
    </g>
   </g>
   <g id="line2d_65">
    <path d="M 52.079375 183.582314 
L 53.455265 184.783948 
L 54.831156 184.656115 
L 58.958827 186.266815 
L 60.334717 187.084949 
L 63.086498 187.187216 
L 64.462389 186.215682 
L 68.59006 186.036715 
L 69.96595 186.522482 
L 71.341841 186.701449 
L 74.093622 184.323748 
L 78.221293 183.556747 
L 79.597183 182.176147 
L 80.973074 181.664813 
L 82.348964 179.875145 
L 83.724854 179.466079 
M 89.228416 178.571245 
L 90.604307 179.363812 
L 91.980197 178.878045 
L 97.483759 177.446311 
L 98.859649 177.880944 
L 100.235539 177.676411 
L 102.98732 176.551477 
L 108.490882 175.861177 
L 109.866772 175.810043 
L 111.242663 175.094176 
L 112.618553 175.45211 
L 116.746224 176.14241 
L 118.122115 177.369611 
L 119.498005 175.349843 
L 120.873896 176.960544 
L 122.249786 175.554377 
M 127.753348 174.659543 
L 129.129238 173.918109 
L 130.505128 172.895442 
L 131.881019 171.591541 
L 136.00869 172.818742 
L 137.38458 174.020376 
L 138.760471 173.662442 
L 140.136361 174.557276 
L 141.512252 173.918109 
L 145.639923 173.457909 
L 147.015813 172.051741 
L 148.391704 172.818742 
M 151.143485 173.176675 
L 155.271156 171.770508 
L 156.647046 171.872775 
L 158.022937 171.770508 
L 159.398827 172.639775 
L 160.774717 169.853007 
L 164.902389 170.466607 
L 166.278279 169.44394 
L 167.65417 170.313207 
L 169.03006 168.958173 
L 170.40595 167.398606 
L 174.533622 167.654272 
L 175.909512 165.557805 
L 177.285402 164.969771 
L 178.661293 164.177204 
L 180.037183 164.484004 
L 184.164854 163.563604 
L 185.540745 163.74257 
M 188.292526 163.20567 
L 189.668416 162.464236 
L 193.796087 163.97267 
L 195.171978 163.307937 
M 197.923759 162.74547 
L 199.299649 161.901769 
L 203.42732 164.356171 
L 204.803211 164.816371 
L 206.179101 163.947104 
L 207.554991 163.461337 
L 208.930882 162.36197 
L 213.058553 163.026703 
L 214.434443 164.100504 
L 215.810334 164.841938 
L 217.186224 163.89597 
L 218.562115 162.796603 
M 224.065676 165.148738 
L 225.441567 164.305037 
L 226.817457 164.356171 
L 228.193348 165.072038 
L 232.321019 163.614737 
L 233.696909 163.51247 
L 235.0728 162.489803 
L 236.44869 163.026703 
L 241.952252 158.169034 
L 243.328142 165.404405 
L 244.704033 166.375938 
L 246.079923 165.506671 
L 247.455813 165.583371 
L 251.583485 165.429971 
L 252.959375 165.660071 
L 254.335265 166.171405 
L 257.087046 169.188273 
M 262.590608 168.702506 
L 263.966498 167.526439 
L 265.342389 168.549106 
L 266.718279 168.523539 
L 270.84595 167.807672 
L 272.221841 165.864605 
L 273.597731 164.688537 
L 274.973622 162.82217 
L 276.349512 162.464236 
L 280.477183 163.333503 
L 281.853074 160.367769 
L 283.228964 163.947104 
L 284.604854 166.324805 
L 285.980745 163.691437 
L 290.108416 162.51537 
L 291.484307 161.722803 
L 292.860197 163.384637 
L 294.236087 163.35907 
L 295.611978 163.89597 
L 299.739649 165.915738 
L 302.49143 165.148738 
L 303.86732 165.199871 
L 305.243211 164.432871 
L 309.370882 166.069138 
L 310.746772 165.685638 
L 312.122663 167.040672 
L 313.498553 165.455538 
L 314.874443 166.324805 
L 319.002115 163.844837 
L 320.378005 165.455538 
L 321.753896 165.608938 
L 323.129786 171.949475 
L 324.505676 168.574673 
L 328.633348 167.807672 
L 330.009238 168.446839 
L 331.385128 168.75364 
L 332.761019 173.278942 
L 334.136909 176.21911 
L 338.26458 176.29581 
L 339.640471 174.966343 
L 341.016361 176.551477 
L 342.392252 177.216211 
L 347.895813 178.187745 
L 349.271704 178.699078 
L 350.647594 176.244677 
L 352.023485 176.37251 
L 353.399375 177.165077 
L 358.902937 177.292911 
L 360.278827 178.468978 
L 361.654717 177.446311 
L 363.030608 178.903612 
L 367.158279 178.392278 
L 368.53417 179.312678 
L 369.91006 179.338245 
L 371.28595 175.733343 
L 372.661841 175.45211 
L 376.789512 173.457909 
L 378.165402 174.608409 
L 379.541293 174.480576 
L 380.917183 173.815842 
L 382.293074 173.764709 
L 386.420745 174.966343 
L 387.796635 175.043043 
L 389.172526 178.085478 
L 390.548416 177.216211 
L 391.924307 179.798445 
M 397.427868 179.261545 
L 398.803759 178.162178 
L 400.179649 178.417845 
L 401.555539 180.002979 
L 405.683211 181.230179 
L 407.059101 180.642146 
L 408.434991 182.022747 
L 409.810882 182.048313 
L 411.186772 181.562546 
L 415.314443 181.84378 
L 416.690334 181.639246 
L 418.066224 182.176147 
L 419.442115 183.377781 
L 420.818005 184.400448 
L 424.945676 184.886215 
L 426.321567 184.093648 
L 427.697457 181.639246 
M 430.449238 180.207512 
L 434.576909 179.338245 
L 435.9528 180.923379 
L 437.32869 179.926279 
L 438.70458 183.019847 
L 440.080471 182.07388 
L 444.208142 183.249947 
L 445.584033 182.252847 
L 446.959923 183.249947 
L 448.335813 184.809515 
M 453.839375 182.636347 
L 456.591156 181.358013 
L 457.967046 181.664813 
L 459.342937 181.76708 
L 463.470608 181.358013 
L 464.846498 180.872246 
L 466.222389 181.051213 
L 467.598279 179.951845 
L 468.97417 180.923379 
L 473.101841 181.485846 
L 474.477731 183.377781 
L 475.853622 183.531181 
L 477.229512 182.661914 
L 478.605402 180.846679 
L 482.733074 180.744413 
L 484.108964 179.235978 
L 485.484854 178.290011 
L 486.860745 177.497444 
L 488.236635 179.210412 
L 492.364307 179.287112 
L 493.740197 179.184845 
L 495.116087 180.207512 
L 496.491978 179.951845 
L 497.867868 179.875145 
L 501.995539 179.082578 
L 503.37143 179.619479 
L 504.74732 179.568345 
L 506.123211 178.494545 
L 511.626772 178.264445 
L 513.002663 177.139511 
L 514.378553 176.75601 
L 515.754443 176.091277 
L 517.130334 177.497444 
L 522.633896 178.059911 
L 524.009786 178.008778 
L 525.385676 179.926279 
L 526.761567 180.539879 
M 532.265128 179.057012 
L 533.641019 178.980312 
L 535.016909 177.932078 
L 536.3928 178.059911 
L 540.520471 178.136611 
L 541.896361 177.778678 
L 543.272252 177.548578 
L 544.648142 177.880944 
L 546.024033 177.165077 
L 546.024033 177.165077 
" clip-path="url(#pdb998fc580)" style="fill: none; stroke: #2ca02c; stroke-width: 1.2; stroke-linecap: square"/>
   </g>
   <g id="patch_8">
    <path d="M 52.079375 188.638125 
L 52.079375 156.718125 
" style="fill: none; stroke: #000000; stroke-width: 0.8; stroke-linejoin: miter; stroke-linecap: square"/>
   </g>
   <g id="patch_9">
    <path d="M 554.279375 188.638125 
L 554.279375 156.718125 
" style="fill: none; stroke: #000000; stroke-width: 0.8; stroke-linejoin: miter; stroke-linecap: square"/>
   </g>
   <g id="patch_10">
    <path d="M 52.079375 188.638125 
L 554.279375 188.638125 
" style="fill: none; stroke: #000000; stroke-width: 0.8; stroke-linejoin: miter; stroke-linecap: square"/>
   </g>
   <g id="patch_11">
    <path d="M 52.079375 156.718125 
L 554.279375 156.718125 
" style="fill: none; stroke: #000000; stroke-width: 0.8; stroke-linejoin: miter; stroke-linecap: square"/>
   </g>
  </g>
 </g>
 <defs>
  <clipPath id="pf8e9578a4e">
   <rect x="52.079375" y="22.318125" width="502.2" height="91.2"/>
  </clipPath>
  <clipPath id="pdb998fc580">
   <rect x="52.079375" y="156.718125" width="502.2" height="31.92"/>
  </clipPath>
 </defs>
</svg>
