<?xml version="1.0" encoding="utf-8" standalone="no"?>
<!DOCTYPE svg PUBLIC "-//W3C//DTD SVG 1.1//EN"
  "http://www.w3.org/Graphics/SVG/1.1/DTD/svg11.dtd">
<svg xmlns:xlink="http://www.w3.org/1999/xlink" width="561.479375pt" height="239.226503pt" viewBox="0 0 561.479375 239.226503" xmlns="http://www.w3.org/2000/svg" version="1.1">
 <metadata>
  <rdf:RDF xmlns:dc="http://purl.org/dc/elements/1.1/" xmlns:cc="http://creativecommons.org/ns#" xmlns:rdf="http://www.w3.org/1999/02/22-rdf-syntax-ns#">
   <cc:Work>
    <dc:type rdf:resource="http://purl.org/dc/dcmitype/StillImage"/>
    <dc:date>2026-04-09T15:00:35.211421</dc:date>
    <dc:format>image/svg+xml</dc:format>
    <dc:creator>
     <cc:Agent>
      <dc:title>Matplotlib v3.10.8, https://matplotlib.org/</dc:title>
     </cc:Agent>
    </dc:creator>
   </cc:Work>
  </rdf:RDF>
 </metadata>
 <defs>
  <style type="text/css">*{stroke-linejoin: round; stroke-linecap: butt}</style>
 </defs>
 <g id="figure_1">
  <g id="patch_1">
   <path d="M -0 239.226503 
L 561.479375 239.226503 
L 561.479375 -0 
L -0 -0 
z
" style="fill: #ffffff"/>
  </g>
  <g id="axes_1">
   <g id="patch_2">
    <path d="M 52.079375 113.518125 
L 554.279375 113.518125 
L 554.279375 22.318125 
L 52.079375 22.318125 
z
" style="fill: #ffffff"/>
   </g>
   <g id="matplotlib.axis_1">
    <g id="xtick_1">
     <g id="line2d_1">
      <path d="M 83.724854 113.518125 
L 83.724854 22.318125 
" clip-path="url(#pb14ec25da0)" style="fill: none; stroke: #b0b0b0; stroke-opacity: 0.2; stroke-width: 0.8; stroke-linecap: square"/>
     </g>
     <g id="line2d_2">
      <defs>
       <path id="m5c66fe289b" d="M 0 0 
L 0 3.5 
" style="stroke: #000000; stroke-width: 0.8"/>
      </defs>
      <g>
       <use xlink:href="#m5c66fe289b" x="83.724854" y="113.518125" style="stroke: #000000; stroke-width: 0.8"/>
      </g>
     </g>
     <g id="text_1">
      <!-- 2025-05 -->
      <g transform="translate(52.709383 155.435942) rotate(-45) scale(0.1 -0.1)">
       <defs>
        <path id="DejaVuSans-32" d="M 1228 531 
L 3431 531 
L 3431 0 
L 469 0 
L 469 531 
Q 828 903 1448 1529 
Q 2069 2156 2228 2338 
Q 2531 2678 2651 2914 
Q 2772 3150 2772 3378 
Q 2772 3750 2511 3984 
Q 2250 4219 1831 4219 
Q 1534 4219 1204 4116 
Q 875 4013 500 3803 
L 500 4441 
Q 881 4594 1212 4672 
Q 1544 4750 1819 4750 
Q 2544 4750 2975 4387 
Q 3406 4025 3406 3419 
Q 3406 3131 3298 2873 
Q 3191 2616 2906 2266 
Q 2828 2175 2409 1742 
Q 1991 1309 1228 531 
z
" transform="scale(0.015625)"/>
        <path id="DejaVuSans-30" d="M 2034 4250 
Q 1547 4250 1301 3770 
Q 1056 3291 1056 2328 
Q 1056 1369 1301 889 
Q 1547 409 2034 409 
Q 2525 409 2770 889 
Q 3016 1369 3016 2328 
Q 3016 3291 2770 3770 
Q 2525 4250 2034 4250 
z
M 2034 4750 
Q 2819 4750 3233 4129 
Q 3647 3509 3647 2328 
Q 3647 1150 3233 529 
Q 2819 -91 2034 -91 
Q 1250 -91 836 529 
Q 422 1150 422 2328 
Q 422 3509 836 4129 
Q 1250 4750 2034 4750 
z
" transform="scale(0.015625)"/>
        <path id="DejaVuSans-35" d="M 691 4666 
L 3169 4666 
L 3169 4134 
L 1269 4134 
L 1269 2991 
Q 1406 3038 1543 3061 
Q 1681 3084 1819 3084 
Q 2600 3084 3056 2656 
Q 3513 2228 3513 1497 
Q 3513 744 3044 326 
Q 2575 -91 1722 -91 
Q 1428 -91 1123 -41 
Q 819 9 494 109 
L 494 744 
Q 775 591 1075 516 
Q 1375 441 1709 441 
Q 2250 441 2565 725 
Q 2881 1009 2881 1497 
Q 2881 1984 2565 2268 
Q 2250 2553 1709 2553 
Q 1456 2553 1204 2497 
Q 953 2441 691 2322 
L 691 4666 
z
" transform="scale(0.015625)"/>
        <path id="DejaVuSans-2d" d="M 313 2009 
L 1997 2009 
L 1997 1497 
L 313 1497 
L 313 2009 
z
" transform="scale(0.015625)"/>
       </defs>
       <use xlink:href="#DejaVuSans-32"/>
       <use xlink:href="#DejaVuSans-30" transform="translate(63.623047 0)"/>
       <use xlink:href="#DejaVuSans-32" transform="translate(127.246094 0)"/>
       <use xlink:href="#DejaVuSans-35" transform="translate(190.869141 0)"/>
       <use xlink:href="#DejaVuSans-2d" transform="translate(254.492188 0)"/>
       <use xlink:href="#DejaVuSans-30" transform="translate(290.576172 0)"/>
       <use xlink:href="#DejaVuSans-35" transform="translate(354.199219 0)"/>
      </g>
     </g>
    </g>
    <g id="xtick_2">
     <g id="line2d_3">
      <path d="M 126.377457 113.518125 
L 126.377457 22.318125 
" clip-path="url(#pb14ec25da0)" style="fill: none; stroke: #b0b0b0; stroke-opacity: 0.2; stroke-width: 0.8; stroke-linecap: square"/>
     </g>
     <g id="line2d_4">
      <g>
       <use xlink:href="#m5c66fe289b" x="126.377457" y="113.518125" style="stroke: #000000; stroke-width: 0.8"/>
      </g>
     </g>
     <g id="text_2">
      <!-- 2025-06 -->
      <g transform="translate(95.361986 155.435942) rotate(-45) scale(0.1 -0.1)">
       <defs>
        <path id="DejaVuSans-36" d="M 2113 2584 
Q 1688 2584 1439 2293 
Q 1191 2003 1191 1497 
Q 1191 994 1439 701 
Q 1688 409 2113 409 
Q 2538 409 2786 701 
Q 3034 994 3034 1497 
Q 3034 2003 2786 2293 
Q 2538 2584 2113 2584 
z
M 3366 4563 
L 3366 3988 
Q 3128 4100 2886 4159 
Q 2644 4219 2406 4219 
Q 1781 4219 1451 3797 
Q 1122 3375 1075 2522 
Q 1259 2794 1537 2939 
Q 1816 3084 2150 3084 
Q 2853 3084 3261 2657 
Q 3669 2231 3669 1497 
Q 3669 778 3244 343 
Q 2819 -91 2113 -91 
Q 1303 -91 875 529 
Q 447 1150 447 2328 
Q 447 3434 972 4092 
Q 1497 4750 2381 4750 
Q 2619 4750 2861 4703 
Q 3103 4656 3366 4563 
z
" transform="scale(0.015625)"/>
       </defs>
       <use xlink:href="#DejaVuSans-32"/>
       <use xlink:href="#DejaVuSans-30" transform="translate(63.623047 0)"/>
       <use xlink:href="#DejaVuSans-32" transform="translate(127.246094 0)"/>
       <use xlink:href="#DejaVuSans-35" transform="translate(190.869141 0)"/>
       <use xlink:href="#DejaVuSans-2d" transform="translate(254.492188 0)"/>
       <use xlink:href="#DejaVuSans-30" transform="translate(290.576172 0)"/>
       <use xlink:href="#DejaVuSans-36" transform="translate(354.199219 0)"/>
      </g>
     </g>
    </g>
    <g id="xtick_3">
     <g id="line2d_5">
      <path d="M 167.65417 113.518125 
L 167.65417 22.318125 
" clip-path="url(#pb14ec25da0)" style="fill: none; stroke: #b0b0b0; stroke-opacity: 0.2; stroke-width: 0.8; stroke-linecap: square"/>
     </g>
     <g id="line2d_6">
      <g>
       <use xlink:href="#m5c66fe289b" x="167.65417" y="113.518125" style="stroke: #000000; stroke-width: 0.8"/>
      </g>
     </g>
     <g id="text_3">
      <!-- 2025-07 -->
      <g transform="translate(136.638698 155.435942) rotate(-45) scale(0.1 -0.1)">
       <defs>
        <path id="DejaVuSans-37" d="M 525 4666 
L 3525 4666 
L 3525 4397 
L 1831 0 
L 1172 0 
L 2766 4134 
L 525 4134 
L 525 4666 
z
" transform="scale(0.015625)"/>
       </defs>
       <use xlink:href="#DejaVuSans-32"/>
       <use xlink:href="#DejaVuSans-30" transform="translate(63.623047 0)"/>
       <use xlink:href="#DejaVuSans-32" transform="translate(127.246094 0)"/>
       <use xlink:href="#DejaVuSans-35" transform="translate(190.869141 0)"/>
       <use xlink:href="#DejaVuSans-2d" transform="translate(254.492188 0)"/>
       <use xlink:href="#DejaVuSans-30" transform="translate(290.576172 0)"/>
       <use xlink:href="#DejaVuSans-37" transform="translate(354.199219 0)"/>
      </g>
     </g>
    </g>
    <g id="xtick_4">
     <g id="line2d_7">
      <path d="M 210.306772 113.518125 
L 210.306772 22.318125 
" clip-path="url(#pb14ec25da0)" style="fill: none; stroke: #b0b0b0; stroke-opacity: 0.2; stroke-width: 0.8; stroke-linecap: square"/>
     </g>
     <g id="line2d_8">
      <g>
       <use xlink:href="#m5c66fe289b" x="210.306772" y="113.518125" style="stroke: #000000; stroke-width: 0.8"/>
      </g>
     </g>
     <g id="text_4">
      <!-- 2025-08 -->
      <g transform="translate(179.291301 155.435942) rotate(-45) scale(0.1 -0.1)">
       <defs>
        <path id="DejaVuSans-38" d="M 2034 2216 
Q 1584 2216 1326 1975 
Q 1069 1734 1069 1313 
Q 1069 891 1326 650 
Q 1584 409 2034 409 
Q 2484 409 2743 651 
Q 3003 894 3003 1313 
Q 3003 1734 2745 1975 
Q 2488 2216 2034 2216 
z
M 1403 2484 
Q 997 2584 770 2862 
Q 544 3141 544 3541 
Q 544 4100 942 4425 
Q 1341 4750 2034 4750 
Q 2731 4750 3128 4425 
Q 3525 4100 3525 3541 
Q 3525 3141 3298 2862 
Q 3072 2584 2669 2484 
Q 3125 2378 3379 2068 
Q 3634 1759 3634 1313 
Q 3634 634 3220 271 
Q 2806 -91 2034 -91 
Q 1263 -91 848 271 
Q 434 634 434 1313 
Q 434 1759 690 2068 
Q 947 2378 1403 2484 
z
M 1172 3481 
Q 1172 3119 1398 2916 
Q 1625 2713 2034 2713 
Q 2441 2713 2670 2916 
Q 2900 3119 2900 3481 
Q 2900 3844 2670 4047 
Q 2441 4250 2034 4250 
Q 1625 4250 1398 4047 
Q 1172 3844 1172 3481 
z
" transform="scale(0.015625)"/>
       </defs>
       <use xlink:href="#DejaVuSans-32"/>
       <use xlink:href="#DejaVuSans-30" transform="translate(63.623047 0)"/>
       <use xlink:href="#DejaVuSans-32" transform="translate(127.246094 0)"/>
       <use xlink:href="#DejaVuSans-35" transform="translate(190.869141 0)"/>
       <use xlink:href="#DejaVuSans-2d" transform="translate(254.492188 0)"/>
       <use xlink:href="#DejaVuSans-30" transform="translate(290.576172 0)"/>
       <use xlink:href="#DejaVuSans-38" transform="translate(354.199219 0)"/>
      </g>
     </g>
    </g>
    <g id="xtick_5">
     <g id="line2d_9">
      <path d="M 252.959375 113.518125 
L 252.959375 22.318125 
" clip-path="url(#pb14ec25da0)" style="fill: none; stroke: #b0b0b0; stroke-opacity: 0.2; stroke-width: 0.8; stroke-linecap: square"/>
     </g>
     <g id="line2d_10">
      <g>
       <use xlink:href="#m5c66fe289b" x="252.959375" y="113.518125" style="stroke: #000000; stroke-width: 0.8"/>
      </g>
     </g>
     <g id="text_5">
      <!-- 2025-09 -->
      <g transform="translate(221.943904 155.435942) rotate(-45) scale(0.1 -0.1)">
       <defs>
        <path id="DejaVuSans-39" d="M 703 97 
L 703 672 
Q 941 559 1184 500 
Q 1428 441 1663 441 
Q 2288 441 2617 861 
Q 2947 1281 2994 2138 
Q 2813 1869 2534 1725 
Q 2256 1581 1919 1581 
Q 1219 1581 811 2004 
Q 403 2428 403 3163 
Q 403 3881 828 4315 
Q 1253 4750 1959 4750 
Q 2769 4750 3195 4129 
Q 3622 3509 3622 2328 
Q 3622 1225 3098 567 
Q 2575 -91 1691 -91 
Q 1453 -91 1209 -44 
Q 966 3 703 97 
z
M 1959 2075 
Q 2384 2075 2632 2365 
Q 2881 2656 2881 3163 
Q 2881 3666 2632 3958 
Q 2384 4250 1959 4250 
Q 1534 4250 1286 3958 
Q 1038 3666 1038 3163 
Q 1038 2656 1286 2365 
Q 1534 2075 1959 2075 
z
" transform="scale(0.015625)"/>
       </defs>
       <use xlink:href="#DejaVuSans-32"/>
       <use xlink:href="#DejaVuSans-30" transform="translate(63.623047 0)"/>
       <use xlink:href="#DejaVuSans-32" transform="translate(127.246094 0)"/>
       <use xlink:href="#DejaVuSans-35" transform="translate(190.869141 0)"/>
       <use xlink:href="#DejaVuSans-2d" transform="translate(254.492188 0)"/>
       <use xlink:href="#DejaVuSans-30" transform="translate(290.576172 0)"/>
       <use xlink:href="#DejaVuSans-39" transform="translate(354.199219 0)"/>
      </g>
     </g>
    </g>
    <g id="xtick_6">
     <g id="line2d_11">
      <path d="M 294.236087 113.518125 
L 294.236087 22.318125 
" clip-path="url(#pb14ec25da0)" style="fill: none; stroke: #b0b0b0; stroke-opacity: 0.2; stroke-width: 0.8; stroke-linecap: square"/>
     </g>
     <g id="line2d_12">
      <g>
       <use xlink:href="#m5c66fe289b" x="294.236087" y="113.518125" style="stroke: #000000; stroke-width: 0.8"/>
      </g>
     </g>
     <g id="text_6">
      <!-- 2025-10 -->
      <g transform="translate(263.220616 155.435942) rotate(-45) scale(0.1 -0.1)">
       <defs>
        <path id="DejaVuSans-31" d="M 794 531 
L 1825 531 
L 1825 4091 
L 703 3866 
L 703 4441 
L 1819 4666 
L 2450 4666 
L 2450 531 
L 3481 531 
L 3481 0 
L 794 0 
L 794 531 
z
" transform="scale(0.015625)"/>
       </defs>
       <use xlink:href="#DejaVuSans-32"/>
       <use xlink:href="#DejaVuSans-30" transform="translate(63.623047 0)"/>
       <use xlink:href="#DejaVuSans-32" transform="translate(127.246094 0)"/>
       <use xlink:href="#DejaVuSans-35" transform="translate(190.869141 0)"/>
       <use xlink:href="#DejaVuSans-2d" transform="translate(254.492188 0)"/>
       <use xlink:href="#DejaVuSans-31" transform="translate(290.576172 0)"/>
       <use xlink:href="#DejaVuSans-30" transform="translate(354.199219 0)"/>
      </g>
     </g>
    </g>
    <g id="xtick_7">
     <g id="line2d_13">
      <path d="M 336.88869 113.518125 
L 336.88869 22.318125 
" clip-path="url(#pb14ec25da0)" style="fill: none; stroke: #b0b0b0; stroke-opacity: 0.2; stroke-width: 0.8; stroke-linecap: square"/>
     </g>
     <g id="line2d_14">
      <g>
       <use xlink:href="#m5c66fe289b" x="336.88869" y="113.518125" style="stroke: #000000; stroke-width: 0.8"/>
      </g>
     </g>
     <g id="text_7">
      <!-- 2025-11 -->
      <g transform="translate(305.873219 155.435942) rotate(-45) scale(0.1 -0.1)">
       <use xlink:href="#DejaVuSans-32"/>
       <use xlink:href="#DejaVuSans-30" transform="translate(63.623047 0)"/>
       <use xlink:href="#DejaVuSans-32" transform="translate(127.246094 0)"/>
       <use xlink:href="#DejaVuSans-35" transform="translate(190.869141 0)"/>
       <use xlink:href="#DejaVuSans-2d" transform="translate(254.492188 0)"/>
       <use xlink:href="#DejaVuSans-31" transform="translate(290.576172 0)"/>
       <use xlink:href="#DejaVuSans-31" transform="translate(354.199219 0)"/>
      </g>
     </g>
    </g>
    <g id="xtick_8">
     <g id="line2d_15">
      <path d="M 378.165402 113.518125 
L 378.165402 22.318125 
" clip-path="url(#pb14ec25da0)" style="fill: none; stroke: #b0b0b0; stroke-opacity: 0.2; stroke-width: 0.8; stroke-linecap: square"/>
     </g>
     <g id="line2d_16">
      <g>
       <use xlink:href="#m5c66fe289b" x="378.165402" y="113.518125" style="stroke: #000000; stroke-width: 0.8"/>
      </g>
     </g>
     <g id="text_8">
      <!-- 2025-12 -->
      <g transform="translate(347.149931 155.435942) rotate(-45) scale(0.1 -0.1)">
       <use xlink:href="#DejaVuSans-32"/>
       <use xlink:href="#DejaVuSans-30" transform="translate(63.623047 0)"/>
       <use xlink:href="#DejaVuSans-32" transform="translate(127.246094 0)"/>
       <use xlink:href="#DejaVuSans-35" transform="translate(190.869141 0)"/>
       <use xlink:href="#DejaVuSans-2d" transform="translate(254.492188 0)"/>
       <use xlink:href="#DejaVuSans-31" transform="translate(290.576172 0)"/>
       <use xlink:href="#DejaVuSans-32" transform="translate(354.199219 0)"/>
      </g>
     </g>
    </g>
    <g id="xtick_9">
     <g id="line2d_17">
      <path d="M 420.818005 113.518125 
L 420.818005 22.318125 
" clip-path="url(#pb14ec25da0)" style="fill: none; stroke: #b0b0b0; stroke-opacity: 0.2; stroke-width: 0.8; stroke-linecap: square"/>
     </g>
     <g id="line2d_18">
      <g>
       <use xlink:href="#m5c66fe289b" x="420.818005" y="113.518125" style="stroke: #000000; stroke-width: 0.8"/>
      </g>
     </g>
     <g id="text_9">
      <!-- 2026-01 -->
      <g transform="translate(389.802534 155.435942) rotate(-45) scale(0.1 -0.1)">
       <use xlink:href="#DejaVuSans-32"/>
       <use xlink:href="#DejaVuSans-30" transform="translate(63.623047 0)"/>
       <use xlink:href="#DejaVuSans-32" transform="translate(127.246094 0)"/>
       <use xlink:href="#DejaVuSans-36" transform="translate(190.869141 0)"/>
       <use xlink:href="#DejaVuSans-2d" transform="translate(254.492188 0)"/>
       <use xlink:href="#DejaVuSans-30" transform="translate(290.576172 0)"/>
       <use xlink:href="#DejaVuSans-31" transform="translate(354.199219 0)"/>
      </g>
     </g>
    </g>
    <g id="xtick_10">
     <g id="line2d_19">
      <path d="M 463.470608 113.518125 
L 463.470608 22.318125 
" clip-path="url(#pb14ec25da0)" style="fill: none; stroke: #b0b0b0; stroke-opacity: 0.2; stroke-width: 0.8; stroke-linecap: square"/>
     </g>
     <g id="line2d_20">
      <g>
       <use xlink:href="#m5c66fe289b" x="463.470608" y="113.518125" style="stroke: #000000; stroke-width: 0.8"/>
      </g>
     </g>
     <g id="text_10">
      <!-- 2026-02 -->
      <g transform="translate(432.455137 155.435942) rotate(-45) scale(0.1 -0.1)">
       <use xlink:href="#DejaVuSans-32"/>
       <use xlink:href="#DejaVuSans-30" transform="translate(63.623047 0)"/>
       <use xlink:href="#DejaVuSans-32" transform="translate(127.246094 0)"/>
       <use xlink:href="#DejaVuSans-36" transform="translate(190.869141 0)"/>
       <use xlink:href="#DejaVuSans-2d" transform="translate(254.492188 0)"/>
       <use xlink:href="#DejaVuSans-30" transform="translate(290.576172 0)"/>
       <use xlink:href="#DejaVuSans-32" transform="translate(354.199219 0)"/>
      </g>
     </g>
    </g>
    <g id="xtick_11">
     <g id="line2d_21">
      <path d="M 501.995539 113.518125 
L 501.995539 22.318125 
" clip-path="url(#pb14ec25da0)" style="fill: none; stroke: #b0b0b0; stroke-opacity: 0.2; stroke-width: 0.8; stroke-linecap: square"/>
     </g>
     <g id="line2d_22">
      <g>
       <use xlink:href="#m5c66fe289b" x="501.995539" y="113.518125" style="stroke: #000000; stroke-width: 0.8"/>
      </g>
     </g>
     <g id="text_11">
      <!-- 2026-03 -->
      <g transform="translate(470.980068 155.435942) rotate(-45) scale(0.1 -0.1)">
       <defs>
        <path id="DejaVuSans-33" d="M 2597 2516 
Q 3050 2419 3304 2112 
Q 3559 1806 3559 1356 
Q 3559 666 3084 287 
Q 2609 -91 1734 -91 
Q 1441 -91 1130 -33 
Q 819 25 488 141 
L 488 750 
Q 750 597 1062 519 
Q 1375 441 1716 441 
Q 2309 441 2620 675 
Q 2931 909 2931 1356 
Q 2931 1769 2642 2001 
Q 2353 2234 1838 2234 
L 1294 2234 
L 1294 2753 
L 1863 2753 
Q 2328 2753 2575 2939 
Q 2822 3125 2822 3475 
Q 2822 3834 2567 4026 
Q 2313 4219 1838 4219 
Q 1578 4219 1281 4162 
Q 984 4106 628 3988 
L 628 4550 
Q 988 4650 1302 4700 
Q 1616 4750 1894 4750 
Q 2613 4750 3031 4423 
Q 3450 4097 3450 3541 
Q 3450 3153 3228 2886 
Q 3006 2619 2597 2516 
z
" transform="scale(0.015625)"/>
       </defs>
       <use xlink:href="#DejaVuSans-32"/>
       <use xlink:href="#DejaVuSans-30" transform="translate(63.623047 0)"/>
       <use xlink:href="#DejaVuSans-32" transform="translate(127.246094 0)"/>
       <use xlink:href="#DejaVuSans-36" transform="translate(190.869141 0)"/>
       <use xlink:href="#DejaVuSans-2d" transform="translate(254.492188 0)"/>
       <use xlink:href="#DejaVuSans-30" transform="translate(290.576172 0)"/>
       <use xlink:href="#DejaVuSans-33" transform="translate(354.199219 0)"/>
      </g>
     </g>
    </g>
    <g id="xtick_12">
     <g id="line2d_23">
      <path d="M 544.648142 113.518125 
L 544.648142 22.318125 
" clip-path="url(#pb14ec25da0)" style="fill: none; stroke: #b0b0b0; stroke-opacity: 0.2; stroke-width: 0.8; stroke-linecap: square"/>
     </g>
     <g id="line2d_24">
      <g>
       <use xlink:href="#m5c66fe289b" x="544.648142" y="113.518125" style="stroke: #000000; stroke-width: 0.8"/>
      </g>
     </g>
     <g id="text_12">
      <!-- 2026-04 -->
      <g transform="translate(513.632671 155.435942) rotate(-45) scale(0.1 -0.1)">
       <defs>
        <path id="DejaVuSans-34" d="M 2419 4116 
L 825 1625 
L 2419 1625 
L 2419 4116 
z
M 2253 4666 
L 3047 4666 
L 3047 1625 
L 3713 1625 
L 3713 1100 
L 3047 1100 
L 3047 0 
L 2419 0 
L 2419 1100 
L 313 1100 
L 313 1709 
L 2253 4666 
z
" transform="scale(0.015625)"/>
       </defs>
       <use xlink:href="#DejaVuSans-32"/>
       <use xlink:href="#DejaVuSans-30" transform="translate(63.623047 0)"/>
       <use xlink:href="#DejaVuSans-32" transform="translate(127.246094 0)"/>
       <use xlink:href="#DejaVuSans-36" transform="translate(190.869141 0)"/>
       <use xlink:href="#DejaVuSans-2d" transform="translate(254.492188 0)"/>
       <use xlink:href="#DejaVuSans-30" transform="translate(290.576172 0)"/>
       <use xlink:href="#DejaVuSans-34" transform="translate(354.199219 0)"/>
      </g>
     </g>
    </g>
   </g>
   <g id="matplotlib.axis_2">
    <g id="ytick_1">
     <g id="line2d_25">
      <path d="M 52.079375 109.37267 
L 554.279375 109.37267 
" clip-path="url(#pb14ec25da0)" style="fill: none; stroke: #b0b0b0; stroke-opacity: 0.2; stroke-width: 0.8; stroke-linecap: square"/>
     </g>
     <g id="line2d_26">
      <defs>
       <path id="m62738e798d" d="M 0 0 
L -3.5 0 
" style="stroke: #000000; stroke-width: 0.8"/>
      </defs>
      <g>
       <use xlink:href="#m62738e798d" x="52.079375" y="109.37267" style="stroke: #000000; stroke-width: 0.8"/>
      </g>
     </g>
     <g id="text_13">
      <!-- 0 -->
      <g transform="translate(38.716875 113.171889) scale(0.1 -0.1)">
       <use xlink:href="#DejaVuSans-30"/>
      </g>
     </g>
    </g>
    <g id="ytick_2">
     <g id="line2d_27">
      <path d="M 52.079375 77.237364 
L 554.279375 77.237364 
" clip-path="url(#pb14ec25da0)" style="fill: none; stroke: #b0b0b0; stroke-opacity: 0.2; stroke-width: 0.8; stroke-linecap: square"/>
     </g>
     <g id="line2d_28">
      <g>
       <use xlink:href="#m62738e798d" x="52.079375" y="77.237364" style="stroke: #000000; stroke-width: 0.8"/>
      </g>
     </g>
     <g id="text_14">
      <!-- 50 -->
      <g transform="translate(32.354375 81.036583) scale(0.1 -0.1)">
       <use xlink:href="#DejaVuSans-35"/>
       <use xlink:href="#DejaVuSans-30" transform="translate(63.623047 0)"/>
      </g>
     </g>
    </g>
    <g id="ytick_3">
     <g id="line2d_29">
      <path d="M 52.079375 45.102057 
L 554.279375 45.102057 
" clip-path="url(#pb14ec25da0)" style="fill: none; stroke: #b0b0b0; stroke-opacity: 0.2; stroke-width: 0.8; stroke-linecap: square"/>
     </g>
     <g id="line2d_30">
      <g>
       <use xlink:href="#m62738e798d" x="52.079375" y="45.102057" style="stroke: #000000; stroke-width: 0.8"/>
      </g>
     </g>
     <g id="text_15">
      <!-- 100 -->
      <g transform="translate(25.991875 48.901276) scale(0.1 -0.1)">
       <use xlink:href="#DejaVuSans-31"/>
       <use xlink:href="#DejaVuSans-30" transform="translate(63.623047 0)"/>
       <use xlink:href="#DejaVuSans-30" transform="translate(127.246094 0)"/>
      </g>
     </g>
    </g>
    <g id="text_16">
     <!-- bp -->
     <g transform="translate(19.912187 74.266562) rotate(-90) scale(0.1 -0.1)">
      <defs>
       <path id="DejaVuSans-62" d="M 3116 1747 
Q 3116 2381 2855 2742 
Q 2594 3103 2138 3103 
Q 1681 3103 1420 2742 
Q 1159 2381 1159 1747 
Q 1159 1113 1420 752 
Q 1681 391 2138 391 
Q 2594 391 2855 752 
Q 3116 1113 3116 1747 
z
M 1159 2969 
Q 1341 3281 1617 3432 
Q 1894 3584 2278 3584 
Q 2916 3584 3314 3078 
Q 3713 2572 3713 1747 
Q 3713 922 3314 415 
Q 2916 -91 2278 -91 
Q 1894 -91 1617 61 
Q 1341 213 1159 525 
L 1159 0 
L 581 0 
L 581 4863 
L 1159 4863 
L 1159 2969 
z
" transform="scale(0.015625)"/>
       <path id="DejaVuSans-70" d="M 1159 525 
L 1159 -1331 
L 581 -1331 
L 581 3500 
L 1159 3500 
L 1159 2969 
Q 1341 3281 1617 3432 
Q 1894 3584 2278 3584 
Q 2916 3584 3314 3078 
Q 3713 2572 3713 1747 
Q 3713 922 3314 415 
Q 2916 -91 2278 -91 
Q 1894 -91 1617 61 
Q 1341 213 1159 525 
z
M 3116 1747 
Q 3116 2381 2855 2742 
Q 2594 3103 2138 3103 
Q 1681 3103 1420 2742 
Q 1159 2381 1159 1747 
Q 1159 1113 1420 752 
Q 1681 391 2138 391 
Q 2594 391 2855 752 
Q 3116 1113 3116 1747 
z
" transform="scale(0.015625)"/>
      </defs>
      <use xlink:href="#DejaVuSans-62"/>
      <use xlink:href="#DejaVuSans-70" transform="translate(63.476562 0)"/>
     </g>
    </g>
   </g>
   <g id="line2d_31">
    <path d="M 52.079375 34.818759 
L 53.455265 34.818759 
L 54.831156 33.533347 
L 56.207046 30.962522 
L 60.334717 28.391698 
L 61.710608 29.67711 
L 63.086498 31.605229 
L 65.838279 31.605229 
L 69.96595 32.890641 
L 71.341841 30.962522 
L 72.717731 34.176053 
L 74.093622 36.104172 
L 75.469512 37.389584 
L 79.597183 40.603114 
L 80.973074 40.603114 
L 82.348964 38.674996 
L 83.724854 35.461465 
L 85.100745 35.461465 
L 89.228416 32.890641 
L 90.604307 35.461465 
L 93.356087 34.176053 
L 94.731978 30.962522 
L 98.859649 29.034404 
L 100.235539 27.748992 
L 102.98732 26.46358 
L 104.363211 28.391698 
L 108.490882 26.46358 
L 109.866772 32.890641 
L 111.242663 32.890641 
L 113.994443 34.176053 
L 118.122115 32.890641 
L 119.498005 33.533347 
L 120.873896 30.319816 
L 123.625676 31.605229 
L 127.753348 30.319816 
L 129.129238 32.890641 
L 130.505128 36.104172 
L 131.881019 35.461465 
L 133.256909 34.176053 
L 137.38458 36.746878 
L 138.760471 36.746878 
L 140.136361 40.603114 
L 141.512252 43.173939 
L 142.888142 42.531233 
L 147.015813 41.245821 
L 148.391704 43.816645 
L 149.767594 41.888527 
L 151.143485 41.888527 
L 152.519375 39.960408 
L 156.647046 40.603114 
L 158.022937 42.531233 
L 159.398827 47.030176 
L 160.774717 49.601 
L 162.150608 46.38747 
L 166.278279 47.672882 
L 167.65417 46.38747 
L 169.03006 48.958294 
L 171.781841 45.102057 
L 175.909512 45.102057 
L 177.285402 45.744763 
L 181.413074 49.601 
L 185.540745 50.243706 
L 186.916635 51.529119 
L 188.292526 52.171825 
L 189.668416 51.529119 
L 191.044307 53.457237 
L 195.171978 53.457237 
L 196.547868 54.742649 
L 197.923759 55.385355 
L 199.299649 52.814531 
L 200.675539 52.814531 
L 204.803211 51.529119 
L 206.179101 53.457237 
L 207.554991 51.529119 
L 208.930882 50.243706 
L 210.306772 54.742649 
L 214.434443 55.385355 
L 215.810334 55.385355 
L 217.186224 56.028062 
L 218.562115 55.385355 
L 219.938005 52.171825 
L 224.065676 52.814531 
L 225.441567 54.099943 
L 226.817457 54.742649 
L 228.193348 52.814531 
L 229.569238 53.457237 
L 233.696909 54.742649 
L 235.0728 54.099943 
L 236.44869 54.742649 
L 237.82458 54.742649 
L 239.200471 56.028062 
L 243.328142 57.313474 
L 244.704033 57.313474 
L 246.079923 58.598886 
L 247.455813 57.95618 
L 248.831704 54.742649 
L 252.959375 54.742649 
L 257.087046 56.670768 
L 258.462937 56.028062 
L 262.590608 55.385355 
L 263.966498 54.099943 
L 265.342389 53.457237 
L 266.718279 54.742649 
L 268.09417 52.814531 
L 274.973622 52.814531 
L 276.349512 50.243706 
L 277.725402 48.958294 
L 281.853074 47.672882 
L 283.228964 49.601 
L 284.604854 47.672882 
L 285.980745 47.672882 
L 287.356635 47.030176 
L 291.484307 46.38747 
L 292.860197 45.744763 
L 294.236087 49.601 
L 295.611978 50.243706 
L 296.987868 48.958294 
L 301.115539 47.030176 
L 302.49143 48.315588 
L 303.86732 48.958294 
L 305.243211 48.958294 
L 306.619101 53.457237 
L 310.746772 53.457237 
L 312.122663 52.171825 
L 313.498553 49.601 
L 314.874443 50.886413 
L 316.250334 49.601 
L 320.378005 48.315588 
L 321.753896 51.529119 
L 323.129786 51.529119 
L 325.881567 48.958294 
L 330.009238 47.672882 
L 331.385128 48.315588 
L 332.761019 49.601 
L 334.136909 46.38747 
L 335.5128 45.744763 
L 339.640471 46.38747 
L 341.016361 48.315588 
L 342.392252 44.459351 
L 343.768142 44.459351 
L 345.144033 48.958294 
L 349.271704 47.672882 
L 350.647594 47.672882 
L 352.023485 48.958294 
L 354.775265 50.243706 
L 358.902937 51.529119 
L 360.278827 53.457237 
L 361.654717 52.814531 
L 363.030608 52.814531 
L 364.406498 54.099943 
L 369.91006 54.099943 
L 372.661841 52.814531 
L 374.037731 52.814531 
L 378.165402 54.742649 
L 379.541293 54.742649 
L 380.917183 55.385355 
L 382.293074 54.742649 
L 383.668964 63.097829 
L 387.796635 61.169711 
L 389.172526 63.097829 
L 390.548416 63.740535 
L 391.924307 63.097829 
L 393.300197 61.169711 
L 397.427868 59.884298 
L 398.803759 61.169711 
L 400.179649 61.812417 
L 401.555539 63.097829 
L 402.93143 65.025947 
L 407.059101 63.740535 
L 408.434991 60.527004 
L 409.810882 61.169711 
L 411.186772 61.169711 
L 412.562663 61.812417 
L 416.690334 62.455123 
L 418.066224 62.455123 
L 419.442115 60.527004 
L 420.818005 60.527004 
L 422.193896 63.097829 
L 426.321567 61.169711 
L 427.697457 61.169711 
L 429.073348 60.527004 
L 430.449238 58.598886 
L 431.825128 57.95618 
L 435.9528 58.598886 
L 437.32869 59.884298 
L 438.70458 58.598886 
L 440.080471 56.670768 
L 441.456361 53.457237 
L 445.584033 54.742649 
L 446.959923 52.814531 
L 448.335813 55.385355 
L 449.711704 54.099943 
L 451.087594 56.028062 
L 455.215265 54.742649 
L 456.591156 56.028062 
L 457.967046 55.385355 
L 459.342937 56.028062 
L 460.718827 55.385355 
L 464.846498 54.099943 
L 466.222389 55.385355 
L 467.598279 54.099943 
L 468.97417 57.313474 
L 470.35006 56.670768 
L 474.477731 56.028062 
L 475.853622 57.95618 
L 477.229512 55.385355 
L 478.605402 57.313474 
L 479.981293 58.598886 
L 484.108964 58.598886 
L 485.484854 56.670768 
L 486.860745 54.099943 
L 489.612526 54.099943 
L 493.740197 54.742649 
L 495.116087 54.099943 
L 496.491978 54.742649 
L 497.867868 54.742649 
L 499.243759 55.385355 
L 503.37143 56.028062 
L 504.74732 56.670768 
L 506.123211 56.028062 
L 508.874991 61.169711 
L 513.002663 60.527004 
L 514.378553 60.527004 
L 515.754443 62.455123 
L 518.506224 59.884298 
L 524.009786 57.313474 
L 526.761567 57.313474 
L 528.137457 56.028062 
L 532.265128 57.313474 
L 533.641019 57.95618 
L 535.016909 54.099943 
L 536.3928 54.742649 
L 537.76869 54.099943 
L 541.896361 55.385355 
L 543.272252 55.385355 
L 546.024033 56.670768 
L 547.399923 54.099943 
L 551.527594 53.457237 
L 552.903485 55.385355 
L 554.279375 52.171825 
L 554.279375 52.171825 
" clip-path="url(#pb14ec25da0)" style="fill: none; stroke: #444444; stroke-width: 1.5; stroke-linecap: square"/>
    <defs>
     <path id="mda6852f007" d="M 0 1 
C 0.265203 1 0.51958 0.894634 0.707107 0.707107 
C 0.894634 0.51958 1 0.265203 1 0 
C 1 -0.265203 0.894634 -0.51958 0.707107 -0.707107 
C 0.51958 -0.894634 0.265203 -1 0 -1 
C -0.265203 -1 -0.51958 -0.894634 -0.707107 -0.707107 
C -0.894634 -0.51958 -1 -0.265203 -1 0 
C -1 0.265203 -0.894634 0.51958 -0.707107 0.707107 
C -0.51958 0.894634 -0.265203 1 0 1 
z
" style="stroke: #444444"/>
    </defs>
    <g clip-path="url(#pb14ec25da0)">
     <use xlink:href="#mda6852f007" x="52.079375" y="34.818759" style="fill: #444444; stroke: #444444"/>
     <use xlink:href="#mda6852f007" x="53.455265" y="34.818759" style="fill: #444444; stroke: #444444"/>
     <use xlink:href="#mda6852f007" x="54.831156" y="33.533347" style="fill: #444444; stroke: #444444"/>
     <use xlink:href="#mda6852f007" x="56.207046" y="30.962522" style="fill: #444444; stroke: #444444"/>
     <use xlink:href="#mda6852f007" x="60.334717" y="28.391698" style="fill: #444444; stroke: #444444"/>
     <use xlink:href="#mda6852f007" x="61.710608" y="29.67711" style="fill: #444444; stroke: #444444"/>
     <use xlink:href="#mda6852f007" x="63.086498" y="31.605229" style="fill: #444444; stroke: #444444"/>
     <use xlink:href="#mda6852f007" x="64.462389" y="31.605229" style="fill: #444444; stroke: #444444"/>
     <use xlink:href="#mda6852f007" x="65.838279" y="31.605229" style="fill: #444444; stroke: #444444"/>
     <use xlink:href="#mda6852f007" x="69.96595" y="32.890641" style="fill: #444444; stroke: #444444"/>
     <use xlink:href="#mda6852f007" x="71.341841" y="30.962522" style="fill: #444444; stroke: #444444"/>
     <use xlink:href="#mda6852f007" x="72.717731" y="34.176053" style="fill: #444444; stroke: #444444"/>
     <use xlink:href="#mda6852f007" x="74.093622" y="36.104172" style="fill: #444444; stroke: #444444"/>
     <use xlink:href="#mda6852f007" x="75.469512" y="37.389584" style="fill: #444444; stroke: #444444"/>
     <use xlink:href="#mda6852f007" x="79.597183" y="40.603114" style="fill: #444444; stroke: #444444"/>
     <use xlink:href="#mda6852f007" x="80.973074" y="40.603114" style="fill: #444444; stroke: #444444"/>
     <use xlink:href="#mda6852f007" x="82.348964" y="38.674996" style="fill: #444444; stroke: #444444"/>
     <use xlink:href="#mda6852f007" x="83.724854" y="35.461465" style="fill: #444444; stroke: #444444"/>
     <use xlink:href="#mda6852f007" x="85.100745" y="35.461465" style="fill: #444444; stroke: #444444"/>
     <use xlink:href="#mda6852f007" x="89.228416" y="32.890641" style="fill: #444444; stroke: #444444"/>
     <use xlink:href="#mda6852f007" x="90.604307" y="35.461465" style="fill: #444444; stroke: #444444"/>
     <use xlink:href="#mda6852f007" x="91.980197" y="34.818759" style="fill: #444444; stroke: #444444"/>
     <use xlink:href="#mda6852f007" x="93.356087" y="34.176053" style="fill: #444444; stroke: #444444"/>
     <use xlink:href="#mda6852f007" x="94.731978" y="30.962522" style="fill: #444444; stroke: #444444"/>
     <use xlink:href="#mda6852f007" x="98.859649" y="29.034404" style="fill: #444444; stroke: #444444"/>
     <use xlink:href="#mda6852f007" x="100.235539" y="27.748992" style="fill: #444444; stroke: #444444"/>
     <use xlink:href="#mda6852f007" x="101.61143" y="27.106286" style="fill: #444444; stroke: #444444"/>
     <use xlink:href="#mda6852f007" x="102.98732" y="26.46358" style="fill: #444444; stroke: #444444"/>
     <use xlink:href="#mda6852f007" x="104.363211" y="28.391698" style="fill: #444444; stroke: #444444"/>
     <use xlink:href="#mda6852f007" x="108.490882" y="26.46358" style="fill: #444444; stroke: #444444"/>
     <use xlink:href="#mda6852f007" x="109.866772" y="32.890641" style="fill: #444444; stroke: #444444"/>
     <use xlink:href="#mda6852f007" x="111.242663" y="32.890641" style="fill: #444444; stroke: #444444"/>
     <use xlink:href="#mda6852f007" x="112.618553" y="33.533347" style="fill: #444444; stroke: #444444"/>
     <use xlink:href="#mda6852f007" x="113.994443" y="34.176053" style="fill: #444444; stroke: #444444"/>
     <use xlink:href="#mda6852f007" x="118.122115" y="32.890641" style="fill: #444444; stroke: #444444"/>
     <use xlink:href="#mda6852f007" x="119.498005" y="33.533347" style="fill: #444444; stroke: #444444"/>
     <use xlink:href="#mda6852f007" x="120.873896" y="30.319816" style="fill: #444444; stroke: #444444"/>
     <use xlink:href="#mda6852f007" x="122.249786" y="30.962522" style="fill: #444444; stroke: #444444"/>
     <use xlink:href="#mda6852f007" x="123.625676" y="31.605229" style="fill: #444444; stroke: #444444"/>
     <use xlink:href="#mda6852f007" x="127.753348" y="30.319816" style="fill: #444444; stroke: #444444"/>
     <use xlink:href="#mda6852f007" x="129.129238" y="32.890641" style="fill: #444444; stroke: #444444"/>
     <use xlink:href="#mda6852f007" x="130.505128" y="36.104172" style="fill: #444444; stroke: #444444"/>
     <use xlink:href="#mda6852f007" x="131.881019" y="35.461465" style="fill: #444444; stroke: #444444"/>
     <use xlink:href="#mda6852f007" x="133.256909" y="34.176053" style="fill: #444444; stroke: #444444"/>
     <use xlink:href="#mda6852f007" x="137.38458" y="36.746878" style="fill: #444444; stroke: #444444"/>
     <use xlink:href="#mda6852f007" x="138.760471" y="36.746878" style="fill: #444444; stroke: #444444"/>
     <use xlink:href="#mda6852f007" x="140.136361" y="40.603114" style="fill: #444444; stroke: #444444"/>
     <use xlink:href="#mda6852f007" x="141.512252" y="43.173939" style="fill: #444444; stroke: #444444"/>
     <use xlink:href="#mda6852f007" x="142.888142" y="42.531233" style="fill: #444444; stroke: #444444"/>
     <use xlink:href="#mda6852f007" x="147.015813" y="41.245821" style="fill: #444444; stroke: #444444"/>
     <use xlink:href="#mda6852f007" x="148.391704" y="43.816645" style="fill: #444444; stroke: #444444"/>
     <use xlink:href="#mda6852f007" x="149.767594" y="41.888527" style="fill: #444444; stroke: #444444"/>
     <use xlink:href="#mda6852f007" x="151.143485" y="41.888527" style="fill: #444444; stroke: #444444"/>
     <use xlink:href="#mda6852f007" x="152.519375" y="39.960408" style="fill: #444444; stroke: #444444"/>
     <use xlink:href="#mda6852f007" x="156.647046" y="40.603114" style="fill: #444444; stroke: #444444"/>
     <use xlink:href="#mda6852f007" x="158.022937" y="42.531233" style="fill: #444444; stroke: #444444"/>
     <use xlink:href="#mda6852f007" x="159.398827" y="47.030176" style="fill: #444444; stroke: #444444"/>
     <use xlink:href="#mda6852f007" x="160.774717" y="49.601" style="fill: #444444; stroke: #444444"/>
     <use xlink:href="#mda6852f007" x="162.150608" y="46.38747" style="fill: #444444; stroke: #444444"/>
     <use xlink:href="#mda6852f007" x="166.278279" y="47.672882" style="fill: #444444; stroke: #444444"/>
     <use xlink:href="#mda6852f007" x="167.65417" y="46.38747" style="fill: #444444; stroke: #444444"/>
     <use xlink:href="#mda6852f007" x="169.03006" y="48.958294" style="fill: #444444; stroke: #444444"/>
     <use xlink:href="#mda6852f007" x="170.40595" y="47.030176" style="fill: #444444; stroke: #444444"/>
     <use xlink:href="#mda6852f007" x="171.781841" y="45.102057" style="fill: #444444; stroke: #444444"/>
     <use xlink:href="#mda6852f007" x="175.909512" y="45.102057" style="fill: #444444; stroke: #444444"/>
     <use xlink:href="#mda6852f007" x="177.285402" y="45.744763" style="fill: #444444; stroke: #444444"/>
     <use xlink:href="#mda6852f007" x="178.661293" y="47.030176" style="fill: #444444; stroke: #444444"/>
     <use xlink:href="#mda6852f007" x="180.037183" y="48.315588" style="fill: #444444; stroke: #444444"/>
     <use xlink:href="#mda6852f007" x="181.413074" y="49.601" style="fill: #444444; stroke: #444444"/>
     <use xlink:href="#mda6852f007" x="185.540745" y="50.243706" style="fill: #444444; stroke: #444444"/>
     <use xlink:href="#mda6852f007" x="186.916635" y="51.529119" style="fill: #444444; stroke: #444444"/>
     <use xlink:href="#mda6852f007" x="188.292526" y="52.171825" style="fill: #444444; stroke: #444444"/>
     <use xlink:href="#mda6852f007" x="189.668416" y="51.529119" style="fill: #444444; stroke: #444444"/>
     <use xlink:href="#mda6852f007" x="191.044307" y="53.457237" style="fill: #444444; stroke: #444444"/>
     <use xlink:href="#mda6852f007" x="195.171978" y="53.457237" style="fill: #444444; stroke: #444444"/>
     <use xlink:href="#mda6852f007" x="196.547868" y="54.742649" style="fill: #444444; stroke: #444444"/>
     <use xlink:href="#mda6852f007" x="197.923759" y="55.385355" style="fill: #444444; stroke: #444444"/>
     <use xlink:href="#mda6852f007" x="199.299649" y="52.814531" style="fill: #444444; stroke: #444444"/>
     <use xlink:href="#mda6852f007" x="200.675539" y="52.814531" style="fill: #444444; stroke: #444444"/>
     <use xlink:href="#mda6852f007" x="204.803211" y="51.529119" style="fill: #444444; stroke: #444444"/>
     <use xlink:href="#mda6852f007" x="206.179101" y="53.457237" style="fill: #444444; stroke: #444444"/>
     <use xlink:href="#mda6852f007" x="207.554991" y="51.529119" style="fill: #444444; stroke: #444444"/>
     <use xlink:href="#mda6852f007" x="208.930882" y="50.243706" style="fill: #444444; stroke: #444444"/>
     <use xlink:href="#mda6852f007" x="210.306772" y="54.742649" style="fill: #444444; stroke: #444444"/>
     <use xlink:href="#mda6852f007" x="214.434443" y="55.385355" style="fill: #444444; stroke: #444444"/>
     <use xlink:href="#mda6852f007" x="215.810334" y="55.385355" style="fill: #444444; stroke: #444444"/>
     <use xlink:href="#mda6852f007" x="217.186224" y="56.028062" style="fill: #444444; stroke: #444444"/>
     <use xlink:href="#mda6852f007" x="218.562115" y="55.385355" style="fill: #444444; stroke: #444444"/>
     <use xlink:href="#mda6852f007" x="219.938005" y="52.171825" style="fill: #444444; stroke: #444444"/>
     <use xlink:href="#mda6852f007" x="224.065676" y="52.814531" style="fill: #444444; stroke: #444444"/>
     <use xlink:href="#mda6852f007" x="225.441567" y="54.099943" style="fill: #444444; stroke: #444444"/>
     <use xlink:href="#mda6852f007" x="226.817457" y="54.742649" style="fill: #444444; stroke: #444444"/>
     <use xlink:href="#mda6852f007" x="228.193348" y="52.814531" style="fill: #444444; stroke: #444444"/>
     <use xlink:href="#mda6852f007" x="229.569238" y="53.457237" style="fill: #444444; stroke: #444444"/>
     <use xlink:href="#mda6852f007" x="233.696909" y="54.742649" style="fill: #444444; stroke: #444444"/>
     <use xlink:href="#mda6852f007" x="235.0728" y="54.099943" style="fill: #444444; stroke: #444444"/>
     <use xlink:href="#mda6852f007" x="236.44869" y="54.742649" style="fill: #444444; stroke: #444444"/>
     <use xlink:href="#mda6852f007" x="237.82458" y="54.742649" style="fill: #444444; stroke: #444444"/>
     <use xlink:href="#mda6852f007" x="239.200471" y="56.028062" style="fill: #444444; stroke: #444444"/>
     <use xlink:href="#mda6852f007" x="243.328142" y="57.313474" style="fill: #444444; stroke: #444444"/>
     <use xlink:href="#mda6852f007" x="244.704033" y="57.313474" style="fill: #444444; stroke: #444444"/>
     <use xlink:href="#mda6852f007" x="246.079923" y="58.598886" style="fill: #444444; stroke: #444444"/>
     <use xlink:href="#mda6852f007" x="247.455813" y="57.95618" style="fill: #444444; stroke: #444444"/>
     <use xlink:href="#mda6852f007" x="248.831704" y="54.742649" style="fill: #444444; stroke: #444444"/>
     <use xlink:href="#mda6852f007" x="252.959375" y="54.742649" style="fill: #444444; stroke: #444444"/>
     <use xlink:href="#mda6852f007" x="254.335265" y="55.385355" style="fill: #444444; stroke: #444444"/>
     <use xlink:href="#mda6852f007" x="255.711156" y="56.028062" style="fill: #444444; stroke: #444444"/>
     <use xlink:href="#mda6852f007" x="257.087046" y="56.670768" style="fill: #444444; stroke: #444444"/>
     <use xlink:href="#mda6852f007" x="258.462937" y="56.028062" style="fill: #444444; stroke: #444444"/>
     <use xlink:href="#mda6852f007" x="262.590608" y="55.385355" style="fill: #444444; stroke: #444444"/>
     <use xlink:href="#mda6852f007" x="263.966498" y="54.099943" style="fill: #444444; stroke: #444444"/>
     <use xlink:href="#mda6852f007" x="265.342389" y="53.457237" style="fill: #444444; stroke: #444444"/>
     <use xlink:href="#mda6852f007" x="266.718279" y="54.742649" style="fill: #444444; stroke: #444444"/>
     <use xlink:href="#mda6852f007" x="268.09417" y="52.814531" style="fill: #444444; stroke: #444444"/>
     <use xlink:href="#mda6852f007" x="272.221841" y="52.814531" style="fill: #444444; stroke: #444444"/>
     <use xlink:href="#mda6852f007" x="273.597731" y="52.814531" style="fill: #444444; stroke: #444444"/>
     <use xlink:href="#mda6852f007" x="274.973622" y="52.814531" style="fill: #444444; stroke: #444444"/>
     <use xlink:href="#mda6852f007" x="276.349512" y="50.243706" style="fill: #444444; stroke: #444444"/>
     <use xlink:href="#mda6852f007" x="277.725402" y="48.958294" style="fill: #444444; stroke: #444444"/>
     <use xlink:href="#mda6852f007" x="281.853074" y="47.672882" style="fill: #444444; stroke: #444444"/>
     <use xlink:href="#mda6852f007" x="283.228964" y="49.601" style="fill: #444444; stroke: #444444"/>
     <use xlink:href="#mda6852f007" x="284.604854" y="47.672882" style="fill: #444444; stroke: #444444"/>
     <use xlink:href="#mda6852f007" x="285.980745" y="47.672882" style="fill: #444444; stroke: #444444"/>
     <use xlink:href="#mda6852f007" x="287.356635" y="47.030176" style="fill: #444444; stroke: #444444"/>
     <use xlink:href="#mda6852f007" x="291.484307" y="46.38747" style="fill: #444444; stroke: #444444"/>
     <use xlink:href="#mda6852f007" x="292.860197" y="45.744763" style="fill: #444444; stroke: #444444"/>
     <use xlink:href="#mda6852f007" x="294.236087" y="49.601" style="fill: #444444; stroke: #444444"/>
     <use xlink:href="#mda6852f007" x="295.611978" y="50.243706" style="fill: #444444; stroke: #444444"/>
     <use xlink:href="#mda6852f007" x="296.987868" y="48.958294" style="fill: #444444; stroke: #444444"/>
     <use xlink:href="#mda6852f007" x="301.115539" y="47.030176" style="fill: #444444; stroke: #444444"/>
     <use xlink:href="#mda6852f007" x="302.49143" y="48.315588" style="fill: #444444; stroke: #444444"/>
     <use xlink:href="#mda6852f007" x="303.86732" y="48.958294" style="fill: #444444; stroke: #444444"/>
     <use xlink:href="#mda6852f007" x="305.243211" y="48.958294" style="fill: #444444; stroke: #444444"/>
     <use xlink:href="#mda6852f007" x="306.619101" y="53.457237" style="fill: #444444; stroke: #444444"/>
     <use xlink:href="#mda6852f007" x="310.746772" y="53.457237" style="fill: #444444; stroke: #444444"/>
     <use xlink:href="#mda6852f007" x="312.122663" y="52.171825" style="fill: #444444; stroke: #444444"/>
     <use xlink:href="#mda6852f007" x="313.498553" y="49.601" style="fill: #444444; stroke: #444444"/>
     <use xlink:href="#mda6852f007" x="314.874443" y="50.886413" style="fill: #444444; stroke: #444444"/>
     <use xlink:href="#mda6852f007" x="316.250334" y="49.601" style="fill: #444444; stroke: #444444"/>
     <use xlink:href="#mda6852f007" x="320.378005" y="48.315588" style="fill: #444444; stroke: #444444"/>
     <use xlink:href="#mda6852f007" x="321.753896" y="51.529119" style="fill: #444444; stroke: #444444"/>
     <use xlink:href="#mda6852f007" x="323.129786" y="51.529119" style="fill: #444444; stroke: #444444"/>
     <use xlink:href="#mda6852f007" x="324.505676" y="50.243706" style="fill: #444444; stroke: #444444"/>
     <use xlink:href="#mda6852f007" x="325.881567" y="48.958294" style="fill: #444444; stroke: #444444"/>
     <use xlink:href="#mda6852f007" x="330.009238" y="47.672882" style="fill: #444444; stroke: #444444"/>
     <use xlink:href="#mda6852f007" x="331.385128" y="48.315588" style="fill: #444444; stroke: #444444"/>
     <use xlink:href="#mda6852f007" x="332.761019" y="49.601" style="fill: #444444; stroke: #444444"/>
     <use xlink:href="#mda6852f007" x="334.136909" y="46.38747" style="fill: #444444; stroke: #444444"/>
     <use xlink:href="#mda6852f007" x="335.5128" y="45.744763" style="fill: #444444; stroke: #444444"/>
     <use xlink:href="#mda6852f007" x="339.640471" y="46.38747" style="fill: #444444; stroke: #444444"/>
     <use xlink:href="#mda6852f007" x="341.016361" y="48.315588" style="fill: #444444; stroke: #444444"/>
     <use xlink:href="#mda6852f007" x="342.392252" y="44.459351" style="fill: #444444; stroke: #444444"/>
     <use xlink:href="#mda6852f007" x="343.768142" y="44.459351" style="fill: #444444; stroke: #444444"/>
     <use xlink:href="#mda6852f007" x="345.144033" y="48.958294" style="fill: #444444; stroke: #444444"/>
     <use xlink:href="#mda6852f007" x="349.271704" y="47.672882" style="fill: #444444; stroke: #444444"/>
     <use xlink:href="#mda6852f007" x="350.647594" y="47.672882" style="fill: #444444; stroke: #444444"/>
     <use xlink:href="#mda6852f007" x="352.023485" y="48.958294" style="fill: #444444; stroke: #444444"/>
     <use xlink:href="#mda6852f007" x="353.399375" y="49.601" style="fill: #444444; stroke: #444444"/>
     <use xlink:href="#mda6852f007" x="354.775265" y="50.243706" style="fill: #444444; stroke: #444444"/>
     <use xlink:href="#mda6852f007" x="358.902937" y="51.529119" style="fill: #444444; stroke: #444444"/>
     <use xlink:href="#mda6852f007" x="360.278827" y="53.457237" style="fill: #444444; stroke: #444444"/>
     <use xlink:href="#mda6852f007" x="361.654717" y="52.814531" style="fill: #444444; stroke: #444444"/>
     <use xlink:href="#mda6852f007" x="363.030608" y="52.814531" style="fill: #444444; stroke: #444444"/>
     <use xlink:href="#mda6852f007" x="364.406498" y="54.099943" style="fill: #444444; stroke: #444444"/>
     <use xlink:href="#mda6852f007" x="368.53417" y="54.099943" style="fill: #444444; stroke: #444444"/>
     <use xlink:href="#mda6852f007" x="369.91006" y="54.099943" style="fill: #444444; stroke: #444444"/>
     <use xlink:href="#mda6852f007" x="371.28595" y="53.457237" style="fill: #444444; stroke: #444444"/>
     <use xlink:href="#mda6852f007" x="372.661841" y="52.814531" style="fill: #444444; stroke: #444444"/>
     <use xlink:href="#mda6852f007" x="374.037731" y="52.814531" style="fill: #444444; stroke: #444444"/>
     <use xlink:href="#mda6852f007" x="378.165402" y="54.742649" style="fill: #444444; stroke: #444444"/>
     <use xlink:href="#mda6852f007" x="379.541293" y="54.742649" style="fill: #444444; stroke: #444444"/>
     <use xlink:href="#mda6852f007" x="380.917183" y="55.385355" style="fill: #444444; stroke: #444444"/>
     <use xlink:href="#mda6852f007" x="382.293074" y="54.742649" style="fill: #444444; stroke: #444444"/>
     <use xlink:href="#mda6852f007" x="383.668964" y="63.097829" style="fill: #444444; stroke: #444444"/>
     <use xlink:href="#mda6852f007" x="387.796635" y="61.169711" style="fill: #444444; stroke: #444444"/>
     <use xlink:href="#mda6852f007" x="389.172526" y="63.097829" style="fill: #444444; stroke: #444444"/>
     <use xlink:href="#mda6852f007" x="390.548416" y="63.740535" style="fill: #444444; stroke: #444444"/>
     <use xlink:href="#mda6852f007" x="391.924307" y="63.097829" style="fill: #444444; stroke: #444444"/>
     <use xlink:href="#mda6852f007" x="393.300197" y="61.169711" style="fill: #444444; stroke: #444444"/>
     <use xlink:href="#mda6852f007" x="397.427868" y="59.884298" style="fill: #444444; stroke: #444444"/>
     <use xlink:href="#mda6852f007" x="398.803759" y="61.169711" style="fill: #444444; stroke: #444444"/>
     <use xlink:href="#mda6852f007" x="400.179649" y="61.812417" style="fill: #444444; stroke: #444444"/>
     <use xlink:href="#mda6852f007" x="401.555539" y="63.097829" style="fill: #444444; stroke: #444444"/>
     <use xlink:href="#mda6852f007" x="402.93143" y="65.025947" style="fill: #444444; stroke: #444444"/>
     <use xlink:href="#mda6852f007" x="407.059101" y="63.740535" style="fill: #444444; stroke: #444444"/>
     <use xlink:href="#mda6852f007" x="408.434991" y="60.527004" style="fill: #444444; stroke: #444444"/>
     <use xlink:href="#mda6852f007" x="409.810882" y="61.169711" style="fill: #444444; stroke: #444444"/>
     <use xlink:href="#mda6852f007" x="411.186772" y="61.169711" style="fill: #444444; stroke: #444444"/>
     <use xlink:href="#mda6852f007" x="412.562663" y="61.812417" style="fill: #444444; stroke: #444444"/>
     <use xlink:href="#mda6852f007" x="416.690334" y="62.455123" style="fill: #444444; stroke: #444444"/>
     <use xlink:href="#mda6852f007" x="418.066224" y="62.455123" style="fill: #444444; stroke: #444444"/>
     <use xlink:href="#mda6852f007" x="419.442115" y="60.527004" style="fill: #444444; stroke: #444444"/>
     <use xlink:href="#mda6852f007" x="420.818005" y="60.527004" style="fill: #444444; stroke: #444444"/>
     <use xlink:href="#mda6852f007" x="422.193896" y="63.097829" style="fill: #444444; stroke: #444444"/>
     <use xlink:href="#mda6852f007" x="426.321567" y="61.169711" style="fill: #444444; stroke: #444444"/>
     <use xlink:href="#mda6852f007" x="427.697457" y="61.169711" style="fill: #444444; stroke: #444444"/>
     <use xlink:href="#mda6852f007" x="429.073348" y="60.527004" style="fill: #444444; stroke: #444444"/>
     <use xlink:href="#mda6852f007" x="430.449238" y="58.598886" style="fill: #444444; stroke: #444444"/>
     <use xlink:href="#mda6852f007" x="431.825128" y="57.95618" style="fill: #444444; stroke: #444444"/>
     <use xlink:href="#mda6852f007" x="435.9528" y="58.598886" style="fill: #444444; stroke: #444444"/>
     <use xlink:href="#mda6852f007" x="437.32869" y="59.884298" style="fill: #444444; stroke: #444444"/>
     <use xlink:href="#mda6852f007" x="438.70458" y="58.598886" style="fill: #444444; stroke: #444444"/>
     <use xlink:href="#mda6852f007" x="440.080471" y="56.670768" style="fill: #444444; stroke: #444444"/>
     <use xlink:href="#mda6852f007" x="441.456361" y="53.457237" style="fill: #444444; stroke: #444444"/>
     <use xlink:href="#mda6852f007" x="445.584033" y="54.742649" style="fill: #444444; stroke: #444444"/>
     <use xlink:href="#mda6852f007" x="446.959923" y="52.814531" style="fill: #444444; stroke: #444444"/>
     <use xlink:href="#mda6852f007" x="448.335813" y="55.385355" style="fill: #444444; stroke: #444444"/>
     <use xlink:href="#mda6852f007" x="449.711704" y="54.099943" style="fill: #444444; stroke: #444444"/>
     <use xlink:href="#mda6852f007" x="451.087594" y="56.028062" style="fill: #444444; stroke: #444444"/>
     <use xlink:href="#mda6852f007" x="455.215265" y="54.742649" style="fill: #444444; stroke: #444444"/>
     <use xlink:href="#mda6852f007" x="456.591156" y="56.028062" style="fill: #444444; stroke: #444444"/>
     <use xlink:href="#mda6852f007" x="457.967046" y="55.385355" style="fill: #444444; stroke: #444444"/>
     <use xlink:href="#mda6852f007" x="459.342937" y="56.028062" style="fill: #444444; stroke: #444444"/>
     <use xlink:href="#mda6852f007" x="460.718827" y="55.385355" style="fill: #444444; stroke: #444444"/>
     <use xlink:href="#mda6852f007" x="464.846498" y="54.099943" style="fill: #444444; stroke: #444444"/>
     <use xlink:href="#mda6852f007" x="466.222389" y="55.385355" style="fill: #444444; stroke: #444444"/>
     <use xlink:href="#mda6852f007" x="467.598279" y="54.099943" style="fill: #444444; stroke: #444444"/>
     <use xlink:href="#mda6852f007" x="468.97417" y="57.313474" style="fill: #444444; stroke: #444444"/>
     <use xlink:href="#mda6852f007" x="470.35006" y="56.670768" style="fill: #444444; stroke: #444444"/>
     <use xlink:href="#mda6852f007" x="474.477731" y="56.028062" style="fill: #444444; stroke: #444444"/>
     <use xlink:href="#mda6852f007" x="475.853622" y="57.95618" style="fill: #444444; stroke: #444444"/>
     <use xlink:href="#mda6852f007" x="477.229512" y="55.385355" style="fill: #444444; stroke: #444444"/>
     <use xlink:href="#mda6852f007" x="478.605402" y="57.313474" style="fill: #444444; stroke: #444444"/>
     <use xlink:href="#mda6852f007" x="479.981293" y="58.598886" style="fill: #444444; stroke: #444444"/>
     <use xlink:href="#mda6852f007" x="484.108964" y="58.598886" style="fill: #444444; stroke: #444444"/>
     <use xlink:href="#mda6852f007" x="485.484854" y="56.670768" style="fill: #444444; stroke: #444444"/>
     <use xlink:href="#mda6852f007" x="486.860745" y="54.099943" style="fill: #444444; stroke: #444444"/>
     <use xlink:href="#mda6852f007" x="488.236635" y="54.099943" style="fill: #444444; stroke: #444444"/>
     <use xlink:href="#mda6852f007" x="489.612526" y="54.099943" style="fill: #444444; stroke: #444444"/>
     <use xlink:href="#mda6852f007" x="493.740197" y="54.742649" style="fill: #444444; stroke: #444444"/>
     <use xlink:href="#mda6852f007" x="495.116087" y="54.099943" style="fill: #444444; stroke: #444444"/>
     <use xlink:href="#mda6852f007" x="496.491978" y="54.742649" style="fill: #444444; stroke: #444444"/>
     <use xlink:href="#mda6852f007" x="497.867868" y="54.742649" style="fill: #444444; stroke: #444444"/>
     <use xlink:href="#mda6852f007" x="499.243759" y="55.385355" style="fill: #444444; stroke: #444444"/>
     <use xlink:href="#mda6852f007" x="503.37143" y="56.028062" style="fill: #444444; stroke: #444444"/>
     <use xlink:href="#mda6852f007" x="504.74732" y="56.670768" style="fill: #444444; stroke: #444444"/>
     <use xlink:href="#mda6852f007" x="506.123211" y="56.028062" style="fill: #444444; stroke: #444444"/>
     <use xlink:href="#mda6852f007" x="507.499101" y="58.598886" style="fill: #444444; stroke: #444444"/>
     <use xlink:href="#mda6852f007" x="508.874991" y="61.169711" style="fill: #444444; stroke: #444444"/>
     <use xlink:href="#mda6852f007" x="513.002663" y="60.527004" style="fill: #444444; stroke: #444444"/>
     <use xlink:href="#mda6852f007" x="514.378553" y="60.527004" style="fill: #444444; stroke: #444444"/>
     <use xlink:href="#mda6852f007" x="515.754443" y="62.455123" style="fill: #444444; stroke: #444444"/>
     <use xlink:href="#mda6852f007" x="517.130334" y="61.169711" style="fill: #444444; stroke: #444444"/>
     <use xlink:href="#mda6852f007" x="518.506224" y="59.884298" style="fill: #444444; stroke: #444444"/>
     <use xlink:href="#mda6852f007" x="522.633896" y="57.95618" style="fill: #444444; stroke: #444444"/>
     <use xlink:href="#mda6852f007" x="524.009786" y="57.313474" style="fill: #444444; stroke: #444444"/>
     <use xlink:href="#mda6852f007" x="525.385676" y="57.313474" style="fill: #444444; stroke: #444444"/>
     <use xlink:href="#mda6852f007" x="526.761567" y="57.313474" style="fill: #444444; stroke: #444444"/>
     <use xlink:href="#mda6852f007" x="528.137457" y="56.028062" style="fill: #444444; stroke: #444444"/>
     <use xlink:href="#mda6852f007" x="532.265128" y="57.313474" style="fill: #444444; stroke: #444444"/>
     <use xlink:href="#mda6852f007" x="533.641019" y="57.95618" style="fill: #444444; stroke: #444444"/>
     <use xlink:href="#mda6852f007" x="535.016909" y="54.099943" style="fill: #444444; stroke: #444444"/>
     <use xlink:href="#mda6852f007" x="536.3928" y="54.742649" style="fill: #444444; stroke: #444444"/>
     <use xlink:href="#mda6852f007" x="537.76869" y="54.099943" style="fill: #444444; stroke: #444444"/>
     <use xlink:href="#mda6852f007" x="541.896361" y="55.385355" style="fill: #444444; stroke: #444444"/>
     <use xlink:href="#mda6852f007" x="543.272252" y="55.385355" style="fill: #444444; stroke: #444444"/>
     <use xlink:href="#mda6852f007" x="544.648142" y="56.028062" style="fill: #444444; stroke: #444444"/>
     <use xlink:href="#mda6852f007" x="546.024033" y="56.670768" style="fill: #444444; stroke: #444444"/>
     <use xlink:href="#mda6852f007" x="547.399923" y="54.099943" style="fill: #444444; stroke: #444444"/>
     <use xlink:href="#mda6852f007" x="551.527594" y="53.457237" style="fill: #444444; stroke: #444444"/>
     <use xlink:href="#mda6852f007" x="552.903485" y="55.385355" style="fill: #444444; stroke: #444444"/>
     <use xlink:href="#mda6852f007" x="554.279375" y="52.171825" style="fill: #444444; stroke: #444444"/>
    </g>
   </g>
   <g id="line2d_32">
    <path d="M 52.079375 109.37267 
L 554.279375 109.37267 
" clip-path="url(#pb14ec25da0)" style="fill: none; stroke: #000000; stroke-linecap: square"/>
   </g>
   <g id="patch_3">
    <path d="M 52.079375 113.518125 
L 52.079375 22.318125 
" style="fill: none; stroke: #000000; stroke-width: 0.8; stroke-linejoin: miter; stroke-linecap: square"/>
   </g>
   <g id="patch_4">
    <path d="M 554.279375 113.518125 
L 554.279375 22.318125 
" style="fill: none; stroke: #000000; stroke-width: 0.8; stroke-linejoin: miter; stroke-linecap: square"/>
   </g>
   <g id="patch_5">
    <path d="M 52.079375 113.518125 
L 554.279375 113.518125 
" style="fill: none; stroke: #000000; stroke-width: 0.8; stroke-linejoin: miter; stroke-linecap: square"/>
   </g>
   <g id="patch_6">
    <path d="M 52.079375 22.318125 
L 554.279375 22.318125 
" style="fill: none; stroke: #000000; stroke-width: 0.8; stroke-linejoin: miter; stroke-linecap: square"/>
   </g>
   <g id="text_17">
    <!-- UST10 – GoC10 Spread (bp) -->
    <g transform="translate(219.479375 16.318125) scale(0.12 -0.12)">
     <defs>
      <path id="DejaVuSans-55" d="M 556 4666 
L 1191 4666 
L 1191 1831 
Q 1191 1081 1462 751 
Q 1734 422 2344 422 
Q 2950 422 3222 751 
Q 3494 1081 3494 1831 
L 3494 4666 
L 4128 4666 
L 4128 1753 
Q 4128 841 3676 375 
Q 3225 -91 2344 -91 
Q 1459 -91 1007 375 
Q 556 841 556 1753 
L 556 4666 
z
" transform="scale(0.015625)"/>
      <path id="DejaVuSans-53" d="M 3425 4513 
L 3425 3897 
Q 3066 4069 2747 4153 
Q 2428 4238 2131 4238 
Q 1616 4238 1336 4038 
Q 1056 3838 1056 3469 
Q 1056 3159 1242 3001 
Q 1428 2844 1947 2747 
L 2328 2669 
Q 3034 2534 3370 2195 
Q 3706 1856 3706 1288 
Q 3706 609 3251 259 
Q 2797 -91 1919 -91 
Q 1588 -91 1214 -16 
Q 841 59 441 206 
L 441 856 
Q 825 641 1194 531 
Q 1563 422 1919 422 
Q 2459 422 2753 634 
Q 3047 847 3047 1241 
Q 3047 1584 2836 1778 
Q 2625 1972 2144 2069 
L 1759 2144 
Q 1053 2284 737 2584 
Q 422 2884 422 3419 
Q 422 4038 858 4394 
Q 1294 4750 2059 4750 
Q 2388 4750 2728 4690 
Q 3069 4631 3425 4513 
z
" transform="scale(0.015625)"/>
      <path id="DejaVuSans-54" d="M -19 4666 
L 3928 4666 
L 3928 4134 
L 2272 4134 
L 2272 0 
L 1638 0 
L 1638 4134 
L -19 4134 
L -19 4666 
z
" transform="scale(0.015625)"/>
      <path id="DejaVuSans-20" transform="scale(0.015625)"/>
      <path id="DejaVuSans-2013" d="M 313 1978 
L 2888 1978 
L 2888 1528 
L 313 1528 
L 313 1978 
z
" transform="scale(0.015625)"/>
      <path id="DejaVuSans-47" d="M 3809 666 
L 3809 1919 
L 2778 1919 
L 2778 2438 
L 4434 2438 
L 4434 434 
Q 4069 175 3628 42 
Q 3188 -91 2688 -91 
Q 1594 -91 976 548 
Q 359 1188 359 2328 
Q 359 3472 976 4111 
Q 1594 4750 2688 4750 
Q 3144 4750 3555 4637 
Q 3966 4525 4313 4306 
L 4313 3634 
Q 3963 3931 3569 4081 
Q 3175 4231 2741 4231 
Q 1884 4231 1454 3753 
Q 1025 3275 1025 2328 
Q 1025 1384 1454 906 
Q 1884 428 2741 428 
Q 3075 428 3337 486 
Q 3600 544 3809 666 
z
" transform="scale(0.015625)"/>
      <path id="DejaVuSans-6f" d="M 1959 3097 
Q 1497 3097 1228 2736 
Q 959 2375 959 1747 
Q 959 1119 1226 758 
Q 1494 397 1959 397 
Q 2419 397 2687 759 
Q 2956 1122 2956 1747 
Q 2956 2369 2687 2733 
Q 2419 3097 1959 3097 
z
M 1959 3584 
Q 2709 3584 3137 3096 
Q 3566 2609 3566 1747 
Q 3566 888 3137 398 
Q 2709 -91 1959 -91 
Q 1206 -91 779 398 
Q 353 888 353 1747 
Q 353 2609 779 3096 
Q 1206 3584 1959 3584 
z
" transform="scale(0.015625)"/>
      <path id="DejaVuSans-43" d="M 4122 4306 
L 4122 3641 
Q 3803 3938 3442 4084 
Q 3081 4231 2675 4231 
Q 1875 4231 1450 3742 
Q 1025 3253 1025 2328 
Q 1025 1406 1450 917 
Q 1875 428 2675 428 
Q 3081 428 3442 575 
Q 3803 722 4122 1019 
L 4122 359 
Q 3791 134 3420 21 
Q 3050 -91 2638 -91 
Q 1578 -91 968 557 
Q 359 1206 359 2328 
Q 359 3453 968 4101 
Q 1578 4750 2638 4750 
Q 3056 4750 3426 4639 
Q 3797 4528 4122 4306 
z
" transform="scale(0.015625)"/>
      <path id="DejaVuSans-72" d="M 2631 2963 
Q 2534 3019 2420 3045 
Q 2306 3072 2169 3072 
Q 1681 3072 1420 2755 
Q 1159 2438 1159 1844 
L 1159 0 
L 581 0 
L 581 3500 
L 1159 3500 
L 1159 2956 
Q 1341 3275 1631 3429 
Q 1922 3584 2338 3584 
Q 2397 3584 2469 3576 
Q 2541 3569 2628 3553 
L 2631 2963 
z
" transform="scale(0.015625)"/>
      <path id="DejaVuSans-65" d="M 3597 1894 
L 3597 1613 
L 953 1613 
Q 991 1019 1311 708 
Q 1631 397 2203 397 
Q 2534 397 2845 478 
Q 3156 559 3463 722 
L 3463 178 
Q 3153 47 2828 -22 
Q 2503 -91 2169 -91 
Q 1331 -91 842 396 
Q 353 884 353 1716 
Q 353 2575 817 3079 
Q 1281 3584 2069 3584 
Q 2775 3584 3186 3129 
Q 3597 2675 3597 1894 
z
M 3022 2063 
Q 3016 2534 2758 2815 
Q 2500 3097 2075 3097 
Q 1594 3097 1305 2825 
Q 1016 2553 972 2059 
L 3022 2063 
z
" transform="scale(0.015625)"/>
      <path id="DejaVuSans-61" d="M 2194 1759 
Q 1497 1759 1228 1600 
Q 959 1441 959 1056 
Q 959 750 1161 570 
Q 1363 391 1709 391 
Q 2188 391 2477 730 
Q 2766 1069 2766 1631 
L 2766 1759 
L 2194 1759 
z
M 3341 1997 
L 3341 0 
L 2766 0 
L 2766 531 
Q 2569 213 2275 61 
Q 1981 -91 1556 -91 
Q 1019 -91 701 211 
Q 384 513 384 1019 
Q 384 1609 779 1909 
Q 1175 2209 1959 2209 
L 2766 2209 
L 2766 2266 
Q 2766 2663 2505 2880 
Q 2244 3097 1772 3097 
Q 1472 3097 1187 3025 
Q 903 2953 641 2809 
L 641 3341 
Q 956 3463 1253 3523 
Q 1550 3584 1831 3584 
Q 2591 3584 2966 3190 
Q 3341 2797 3341 1997 
z
" transform="scale(0.015625)"/>
      <path id="DejaVuSans-64" d="M 2906 2969 
L 2906 4863 
L 3481 4863 
L 3481 0 
L 2906 0 
L 2906 525 
Q 2725 213 2448 61 
Q 2172 -91 1784 -91 
Q 1150 -91 751 415 
Q 353 922 353 1747 
Q 353 2572 751 3078 
Q 1150 3584 1784 3584 
Q 2172 3584 2448 3432 
Q 2725 3281 2906 2969 
z
M 947 1747 
Q 947 1113 1208 752 
Q 1469 391 1925 391 
Q 2381 391 2643 752 
Q 2906 1113 2906 1747 
Q 2906 2381 2643 2742 
Q 2381 3103 1925 3103 
Q 1469 3103 1208 2742 
Q 947 2381 947 1747 
z
" transform="scale(0.015625)"/>
      <path id="DejaVuSans-28" d="M 1984 4856 
Q 1566 4138 1362 3434 
Q 1159 2731 1159 2009 
Q 1159 1288 1364 580 
Q 1569 -128 1984 -844 
L 1484 -844 
Q 1016 -109 783 600 
Q 550 1309 550 2009 
Q 550 2706 781 3412 
Q 1013 4119 1484 4856 
L 1984 4856 
z
" transform="scale(0.015625)"/>
      <path id="DejaVuSans-29" d="M 513 4856 
L 1013 4856 
Q 1481 4119 1714 3412 
Q 1947 2706 1947 2009 
Q 1947 1309 1714 600 
Q 1481 -109 1013 -844 
L 513 -844 
Q 928 -128 1133 580 
Q 1338 1288 1338 2009 
Q 1338 2731 1133 3434 
Q 928 4138 513 4856 
z
" transform="scale(0.015625)"/>
     </defs>
     <use xlink:href="#DejaVuSans-55"/>
     <use xlink:href="#DejaVuSans-53" transform="translate(73.193359 0)"/>
     <use xlink:href="#DejaVuSans-54" transform="translate(136.669922 0)"/>
     <use xlink:href="#DejaVuSans-31" transform="translate(197.753906 0)"/>
     <use xlink:href="#DejaVuSans-30" transform="translate(261.376953 0)"/>
     <use xlink:href="#DejaVuSans-20" transform="translate(325 0)"/>
     <use xlink:href="#DejaVuSans-2013" transform="translate(356.787109 0)"/>
     <use xlink:href="#DejaVuSans-20" transform="translate(406.787109 0)"/>
     <use xlink:href="#DejaVuSans-47" transform="translate(438.574219 0)"/>
     <use xlink:href="#DejaVuSans-6f" transform="translate(516.064453 0)"/>
     <use xlink:href="#DejaVuSans-43" transform="translate(577.246094 0)"/>
     <use xlink:href="#DejaVuSans-31" transform="translate(647.070312 0)"/>
     <use xlink:href="#DejaVuSans-30" transform="translate(710.693359 0)"/>
     <use xlink:href="#DejaVuSans-20" transform="translate(774.316406 0)"/>
     <use xlink:href="#DejaVuSans-53" transform="translate(806.103516 0)"/>
     <use xlink:href="#DejaVuSans-70" transform="translate(869.580078 0)"/>
     <use xlink:href="#DejaVuSans-72" transform="translate(933.056641 0)"/>
     <use xlink:href="#DejaVuSans-65" transform="translate(971.919922 0)"/>
     <use xlink:href="#DejaVuSans-61" transform="translate(1033.443359 0)"/>
     <use xlink:href="#DejaVuSans-64" transform="translate(1094.722656 0)"/>
     <use xlink:href="#DejaVuSans-20" transform="translate(1158.199219 0)"/>
     <use xlink:href="#DejaVuSans-28" transform="translate(1189.986328 0)"/>
     <use xlink:href="#DejaVuSans-62" transform="translate(1229 0)"/>
     <use xlink:href="#DejaVuSans-70" transform="translate(1292.476562 0)"/>
     <use xlink:href="#DejaVuSans-29" transform="translate(1355.953125 0)"/>
    </g>
   </g>
  </g>
  <g id="axes_2">
   <g id="patch_7">
    <path d="M 52.079375 188.638125 
L 554.279375 188.638125 
L 554.279375 156.718125 
L 52.079375 156.718125 
z
" style="fill: #ffffff"/>
   </g>
   <g id="matplotlib.axis_3">
    <g id="xtick_13">
     <g id="line2d_33">
      <path d="M 83.724854 188.638125 
L 83.724854 156.718125 
" clip-path="url(#p03a5d85b30)" style="fill: none; stroke: #b0b0b0; stroke-opacity: 0.15; stroke-width: 0.8; stroke-linecap: square"/>
     </g>
     <g id="line2d_34">
      <g>
       <use xlink:href="#m5c66fe289b" x="83.724854" y="188.638125" style="stroke: #000000; stroke-width: 0.8"/>
      </g>
     </g>
     <g id="text_18">
      <!-- 2025-05 -->
      <g transform="translate(52.709383 230.555942) rotate(-45) scale(0.1 -0.1)">
       <use xlink:href="#DejaVuSans-32"/>
       <use xlink:href="#DejaVuSans-30" transform="translate(63.623047 0)"/>
       <use xlink:href="#DejaVuSans-32" transform="translate(127.246094 0)"/>
       <use xlink:href="#DejaVuSans-35" transform="translate(190.869141 0)"/>
       <use xlink:href="#DejaVuSans-2d" transform="translate(254.492188 0)"/>
       <use xlink:href="#DejaVuSans-30" transform="translate(290.576172 0)"/>
       <use xlink:href="#DejaVuSans-35" transform="translate(354.199219 0)"/>
      </g>
     </g>
    </g>
    <g id="xtick_14">
     <g id="line2d_35">
      <path d="M 126.377457 188.638125 
L 126.377457 156.718125 
" clip-path="url(#p03a5d85b30)" style="fill: none; stroke: #b0b0b0; stroke-opacity: 0.15; stroke-width: 0.8; stroke-linecap: square"/>
     </g>
     <g id="line2d_36">
      <g>
       <use xlink:href="#m5c66fe289b" x="126.377457" y="188.638125" style="stroke: #000000; stroke-width: 0.8"/>
      </g>
     </g>
     <g id="text_19">
      <!-- 2025-06 -->
      <g transform="translate(95.361986 230.555942) rotate(-45) scale(0.1 -0.1)">
       <use xlink:href="#DejaVuSans-32"/>
       <use xlink:href="#DejaVuSans-30" transform="translate(63.623047 0)"/>
       <use xlink:href="#DejaVuSans-32" transform="translate(127.246094 0)"/>
       <use xlink:href="#DejaVuSans-35" transform="translate(190.869141 0)"/>
       <use xlink:href="#DejaVuSans-2d" transform="translate(254.492188 0)"/>
       <use xlink:href="#DejaVuSans-30" transform="translate(290.576172 0)"/>
       <use xlink:href="#DejaVuSans-36" transform="translate(354.199219 0)"/>
      </g>
     </g>
    </g>
    <g id="xtick_15">
     <g id="line2d_37">
      <path d="M 167.65417 188.638125 
L 167.65417 156.718125 
" clip-path="url(#p03a5d85b30)" style="fill: none; stroke: #b0b0b0; stroke-opacity: 0.15; stroke-width: 0.8; stroke-linecap: square"/>
     </g>
     <g id="line2d_38">
      <g>
       <use xlink:href="#m5c66fe289b" x="167.65417" y="188.638125" style="stroke: #000000; stroke-width: 0.8"/>
      </g>
     </g>
     <g id="text_20">
      <!-- 2025-07 -->
      <g transform="translate(136.638698 230.555942) rotate(-45) scale(0.1 -0.1)">
       <use xlink:href="#DejaVuSans-32"/>
       <use xlink:href="#DejaVuSans-30" transform="translate(63.623047 0)"/>
       <use xlink:href="#DejaVuSans-32" transform="translate(127.246094 0)"/>
       <use xlink:href="#DejaVuSans-35" transform="translate(190.869141 0)"/>
       <use xlink:href="#DejaVuSans-2d" transform="translate(254.492188 0)"/>
       <use xlink:href="#DejaVuSans-30" transform="translate(290.576172 0)"/>
       <use xlink:href="#DejaVuSans-37" transform="translate(354.199219 0)"/>
      </g>
     </g>
    </g>
    <g id="xtick_16">
     <g id="line2d_39">
      <path d="M 210.306772 188.638125 
L 210.306772 156.718125 
" clip-path="url(#p03a5d85b30)" style="fill: none; stroke: #b0b0b0; stroke-opacity: 0.15; stroke-width: 0.8; stroke-linecap: square"/>
     </g>
     <g id="line2d_40">
      <g>
       <use xlink:href="#m5c66fe289b" x="210.306772" y="188.638125" style="stroke: #000000; stroke-width: 0.8"/>
      </g>
     </g>
     <g id="text_21">
      <!-- 2025-08 -->
      <g transform="translate(179.291301 230.555942) rotate(-45) scale(0.1 -0.1)">
       <use xlink:href="#DejaVuSans-32"/>
       <use xlink:href="#DejaVuSans-30" transform="translate(63.623047 0)"/>
       <use xlink:href="#DejaVuSans-32" transform="translate(127.246094 0)"/>
       <use xlink:href="#DejaVuSans-35" transform="translate(190.869141 0)"/>
       <use xlink:href="#DejaVuSans-2d" transform="translate(254.492188 0)"/>
       <use xlink:href="#DejaVuSans-30" transform="translate(290.576172 0)"/>
       <use xlink:href="#DejaVuSans-38" transform="translate(354.199219 0)"/>
      </g>
     </g>
    </g>
    <g id="xtick_17">
     <g id="line2d_41">
      <path d="M 252.959375 188.638125 
L 252.959375 156.718125 
" clip-path="url(#p03a5d85b30)" style="fill: none; stroke: #b0b0b0; stroke-opacity: 0.15; stroke-width: 0.8; stroke-linecap: square"/>
     </g>
     <g id="line2d_42">
      <g>
       <use xlink:href="#m5c66fe289b" x="252.959375" y="188.638125" style="stroke: #000000; stroke-width: 0.8"/>
      </g>
     </g>
     <g id="text_22">
      <!-- 2025-09 -->
      <g transform="translate(221.943904 230.555942) rotate(-45) scale(0.1 -0.1)">
       <use xlink:href="#DejaVuSans-32"/>
       <use xlink:href="#DejaVuSans-30" transform="translate(63.623047 0)"/>
       <use xlink:href="#DejaVuSans-32" transform="translate(127.246094 0)"/>
       <use xlink:href="#DejaVuSans-35" transform="translate(190.869141 0)"/>
       <use xlink:href="#DejaVuSans-2d" transform="translate(254.492188 0)"/>
       <use xlink:href="#DejaVuSans-30" transform="translate(290.576172 0)"/>
       <use xlink:href="#DejaVuSans-39" transform="translate(354.199219 0)"/>
      </g>
     </g>
    </g>
    <g id="xtick_18">
     <g id="line2d_43">
      <path d="M 294.236087 188.638125 
L 294.236087 156.718125 
" clip-path="url(#p03a5d85b30)" style="fill: none; stroke: #b0b0b0; stroke-opacity: 0.15; stroke-width: 0.8; stroke-linecap: square"/>
     </g>
     <g id="line2d_44">
      <g>
       <use xlink:href="#m5c66fe289b" x="294.236087" y="188.638125" style="stroke: #000000; stroke-width: 0.8"/>
      </g>
     </g>
     <g id="text_23">
      <!-- 2025-10 -->
      <g transform="translate(263.220616 230.555942) rotate(-45) scale(0.1 -0.1)">
       <use xlink:href="#DejaVuSans-32"/>
       <use xlink:href="#DejaVuSans-30" transform="translate(63.623047 0)"/>
       <use xlink:href="#DejaVuSans-32" transform="translate(127.246094 0)"/>
       <use xlink:href="#DejaVuSans-35" transform="translate(190.869141 0)"/>
       <use xlink:href="#DejaVuSans-2d" transform="translate(254.492188 0)"/>
       <use xlink:href="#DejaVuSans-31" transform="translate(290.576172 0)"/>
       <use xlink:href="#DejaVuSans-30" transform="translate(354.199219 0)"/>
      </g>
     </g>
    </g>
    <g id="xtick_19">
     <g id="line2d_45">
      <path d="M 336.88869 188.638125 
L 336.88869 156.718125 
" clip-path="url(#p03a5d85b30)" style="fill: none; stroke: #b0b0b0; stroke-opacity: 0.15; stroke-width: 0.8; stroke-linecap: square"/>
     </g>
     <g id="line2d_46">
      <g>
       <use xlink:href="#m5c66fe289b" x="336.88869" y="188.638125" style="stroke: #000000; stroke-width: 0.8"/>
      </g>
     </g>
     <g id="text_24">
      <!-- 2025-11 -->
      <g transform="translate(305.873219 230.555942) rotate(-45) scale(0.1 -0.1)">
       <use xlink:href="#DejaVuSans-32"/>
       <use xlink:href="#DejaVuSans-30" transform="translate(63.623047 0)"/>
       <use xlink:href="#DejaVuSans-32" transform="translate(127.246094 0)"/>
       <use xlink:href="#DejaVuSans-35" transform="translate(190.869141 0)"/>
       <use xlink:href="#DejaVuSans-2d" transform="translate(254.492188 0)"/>
       <use xlink:href="#DejaVuSans-31" transform="translate(290.576172 0)"/>
       <use xlink:href="#DejaVuSans-31" transform="translate(354.199219 0)"/>
      </g>
     </g>
    </g>
    <g id="xtick_20">
     <g id="line2d_47">
      <path d="M 378.165402 188.638125 
L 378.165402 156.718125 
" clip-path="url(#p03a5d85b30)" style="fill: none; stroke: #b0b0b0; stroke-opacity: 0.15; stroke-width: 0.8; stroke-linecap: square"/>
     </g>
     <g id="line2d_48">
      <g>
       <use xlink:href="#m5c66fe289b" x="378.165402" y="188.638125" style="stroke: #000000; stroke-width: 0.8"/>
      </g>
     </g>
     <g id="text_25">
      <!-- 2025-12 -->
      <g transform="translate(347.149931 230.555942) rotate(-45) scale(0.1 -0.1)">
       <use xlink:href="#DejaVuSans-32"/>
       <use xlink:href="#DejaVuSans-30" transform="translate(63.623047 0)"/>
       <use xlink:href="#DejaVuSans-32" transform="translate(127.246094 0)"/>
       <use xlink:href="#DejaVuSans-35" transform="translate(190.869141 0)"/>
       <use xlink:href="#DejaVuSans-2d" transform="translate(254.492188 0)"/>
       <use xlink:href="#DejaVuSans-31" transform="translate(290.576172 0)"/>
       <use xlink:href="#DejaVuSans-32" transform="translate(354.199219 0)"/>
      </g>
     </g>
    </g>
    <g id="xtick_21">
     <g id="line2d_49">
      <path d="M 420.818005 188.638125 
L 420.818005 156.718125 
" clip-path="url(#p03a5d85b30)" style="fill: none; stroke: #b0b0b0; stroke-opacity: 0.15; stroke-width: 0.8; stroke-linecap: square"/>
     </g>
     <g id="line2d_50">
      <g>
       <use xlink:href="#m5c66fe289b" x="420.818005" y="188.638125" style="stroke: #000000; stroke-width: 0.8"/>
      </g>
     </g>
     <g id="text_26">
      <!-- 2026-01 -->
      <g transform="translate(389.802534 230.555942) rotate(-45) scale(0.1 -0.1)">
       <use xlink:href="#DejaVuSans-32"/>
       <use xlink:href="#DejaVuSans-30" transform="translate(63.623047 0)"/>
       <use xlink:href="#DejaVuSans-32" transform="translate(127.246094 0)"/>
       <use xlink:href="#DejaVuSans-36" transform="translate(190.869141 0)"/>
       <use xlink:href="#DejaVuSans-2d" transform="translate(254.492188 0)"/>
       <use xlink:href="#DejaVuSans-30" transform="translate(290.576172 0)"/>
       <use xlink:href="#DejaVuSans-31" transform="translate(354.199219 0)"/>
      </g>
     </g>
    </g>
    <g id="xtick_22">
     <g id="line2d_51">
      <path d="M 463.470608 188.638125 
L 463.470608 156.718125 
" clip-path="url(#p03a5d85b30)" style="fill: none; stroke: #b0b0b0; stroke-opacity: 0.15; stroke-width: 0.8; stroke-linecap: square"/>
     </g>
     <g id="line2d_52">
      <g>
       <use xlink:href="#m5c66fe289b" x="463.470608" y="188.638125" style="stroke: #000000; stroke-width: 0.8"/>
      </g>
     </g>
     <g id="text_27">
      <!-- 2026-02 -->
      <g transform="translate(432.455137 230.555942) rotate(-45) scale(0.1 -0.1)">
       <use xlink:href="#DejaVuSans-32"/>
       <use xlink:href="#DejaVuSans-30" transform="translate(63.623047 0)"/>
       <use xlink:href="#DejaVuSans-32" transform="translate(127.246094 0)"/>
       <use xlink:href="#DejaVuSans-36" transform="translate(190.869141 0)"/>
       <use xlink:href="#DejaVuSans-2d" transform="translate(254.492188 0)"/>
       <use xlink:href="#DejaVuSans-30" transform="translate(290.576172 0)"/>
       <use xlink:href="#DejaVuSans-32" transform="translate(354.199219 0)"/>
      </g>
     </g>
    </g>
    <g id="xtick_23">
     <g id="line2d_53">
      <path d="M 501.995539 188.638125 
L 501.995539 156.718125 
" clip-path="url(#p03a5d85b30)" style="fill: none; stroke: #b0b0b0; stroke-opacity: 0.15; stroke-width: 0.8; stroke-linecap: square"/>
     </g>
     <g id="line2d_54">
      <g>
       <use xlink:href="#m5c66fe289b" x="501.995539" y="188.638125" style="stroke: #000000; stroke-width: 0.8"/>
      </g>
     </g>
     <g id="text_28">
      <!-- 2026-03 -->
      <g transform="translate(470.980068 230.555942) rotate(-45) scale(0.1 -0.1)">
       <use xlink:href="#DejaVuSans-32"/>
       <use xlink:href="#DejaVuSans-30" transform="translate(63.623047 0)"/>
       <use xlink:href="#DejaVuSans-32" transform="translate(127.246094 0)"/>
       <use xlink:href="#DejaVuSans-36" transform="translate(190.869141 0)"/>
       <use xlink:href="#DejaVuSans-2d" transform="translate(254.492188 0)"/>
       <use xlink:href="#DejaVuSans-30" transform="translate(290.576172 0)"/>
       <use xlink:href="#DejaVuSans-33" transform="translate(354.199219 0)"/>
      </g>
     </g>
    </g>
    <g id="xtick_24">
     <g id="line2d_55">
      <path d="M 544.648142 188.638125 
L 544.648142 156.718125 
" clip-path="url(#p03a5d85b30)" style="fill: none; stroke: #b0b0b0; stroke-opacity: 0.15; stroke-width: 0.8; stroke-linecap: square"/>
     </g>
     <g id="line2d_56">
      <g>
       <use xlink:href="#m5c66fe289b" x="544.648142" y="188.638125" style="stroke: #000000; stroke-width: 0.8"/>
      </g>
     </g>
     <g id="text_29">
      <!-- 2026-04 -->
      <g transform="translate(513.632671 230.555942) rotate(-45) scale(0.1 -0.1)">
       <use xlink:href="#DejaVuSans-32"/>
       <use xlink:href="#DejaVuSans-30" transform="translate(63.623047 0)"/>
       <use xlink:href="#DejaVuSans-32" transform="translate(127.246094 0)"/>
       <use xlink:href="#DejaVuSans-36" transform="translate(190.869141 0)"/>
       <use xlink:href="#DejaVuSans-2d" transform="translate(254.492188 0)"/>
       <use xlink:href="#DejaVuSans-30" transform="translate(290.576172 0)"/>
       <use xlink:href="#DejaVuSans-34" transform="translate(354.199219 0)"/>
      </g>
     </g>
    </g>
   </g>
   <g id="matplotlib.axis_4">
    <g id="ytick_4">
     <g id="line2d_57">
      <path d="M 52.079375 187.954216 
L 554.279375 187.954216 
" clip-path="url(#p03a5d85b30)" style="fill: none; stroke: #b0b0b0; stroke-opacity: 0.15; stroke-width: 0.8; stroke-linecap: square"/>
     </g>
     <g id="line2d_58">
      <g>
       <use xlink:href="#m62738e798d" x="52.079375" y="187.954216" style="stroke: #000000; stroke-width: 0.8"/>
      </g>
     </g>
     <g id="text_30">
      <!-- 1.35 -->
      <g transform="translate(22.81375 191.753435) scale(0.1 -0.1)">
       <defs>
        <path id="DejaVuSans-2e" d="M 684 794 
L 1344 794 
L 1344 0 
L 684 0 
L 684 794 
z
" transform="scale(0.015625)"/>
       </defs>
       <use xlink:href="#DejaVuSans-31"/>
       <use xlink:href="#DejaVuSans-2e" transform="translate(63.623047 0)"/>
       <use xlink:href="#DejaVuSans-33" transform="translate(95.410156 0)"/>
       <use xlink:href="#DejaVuSans-35" transform="translate(159.033203 0)"/>
      </g>
     </g>
    </g>
    <g id="ytick_5">
     <g id="line2d_59">
      <path d="M 52.079375 166.64865 
L 554.279375 166.64865 
" clip-path="url(#p03a5d85b30)" style="fill: none; stroke: #b0b0b0; stroke-opacity: 0.15; stroke-width: 0.8; stroke-linecap: square"/>
     </g>
     <g id="line2d_60">
      <g>
       <use xlink:href="#m62738e798d" x="52.079375" y="166.64865" style="stroke: #000000; stroke-width: 0.8"/>
      </g>
     </g>
     <g id="text_31">
      <!-- 1.40 -->
      <g transform="translate(22.81375 170.447868) scale(0.1 -0.1)">
       <use xlink:href="#DejaVuSans-31"/>
       <use xlink:href="#DejaVuSans-2e" transform="translate(63.623047 0)"/>
       <use xlink:href="#DejaVuSans-34" transform="translate(95.410156 0)"/>
       <use xlink:href="#DejaVuSans-30" transform="translate(159.033203 0)"/>
      </g>
     </g>
    </g>
    <g id="text_32">
     <!-- USD/CAD -->
     <g transform="translate(16.318125 200.43375) rotate(-90) scale(0.12 -0.12)">
      <defs>
       <path id="DejaVuSans-44" d="M 1259 4147 
L 1259 519 
L 2022 519 
Q 2988 519 3436 956 
Q 3884 1394 3884 2338 
Q 3884 3275 3436 3711 
Q 2988 4147 2022 4147 
L 1259 4147 
z
M 628 4666 
L 1925 4666 
Q 3281 4666 3915 4102 
Q 4550 3538 4550 2338 
Q 4550 1131 3912 565 
Q 3275 0 1925 0 
L 628 0 
L 628 4666 
z
" transform="scale(0.015625)"/>
       <path id="DejaVuSans-2f" d="M 1625 4666 
L 2156 4666 
L 531 -594 
L 0 -594 
L 1625 4666 
z
" transform="scale(0.015625)"/>
       <path id="DejaVuSans-41" d="M 2188 4044 
L 1331 1722 
L 3047 1722 
L 2188 4044 
z
M 1831 4666 
L 2547 4666 
L 4325 0 
L 3669 0 
L 3244 1197 
L 1141 1197 
L 716 0 
L 50 0 
L 1831 4666 
z
" transform="scale(0.015625)"/>
      </defs>
      <use xlink:href="#DejaVuSans-55"/>
      <use xlink:href="#DejaVuSans-53" transform="translate(73.193359 0)"/>
      <use xlink:href="#DejaVuSans-44" transform="translate(136.669922 0)"/>
      <use xlink:href="#DejaVuSans-2f" transform="translate(213.671875 0)"/>
      <use xlink:href="#DejaVuSans-43" transform="translate(247.363281 0)"/>
      <use xlink:href="#DejaVuSans-41" transform="translate(317.1875 0)"/>
      <use xlink:href="#DejaVuSans-44" transform="translate(385.595703 0)"/>
     </g>
    </g>
   </g>
   <g id="line2d_61">
    <path d="M 52.079375 158.169034 
L 53.455265 158.680368 
L 54.831156 166.222538 
L 56.207046 171.122819 
L 60.334717 171.250652 
L 61.710608 169.034873 
L 63.086498 171.676763 
L 64.462389 172.784653 
L 69.96595 174.403876 
L 71.341841 175.256099 
L 72.717731 171.16543 
L 74.093622 171.378485 
L 75.469512 172.699431 
L 79.597183 172.742042 
L 80.973074 172.912486 
L 82.348964 174.872598 
L 83.724854 173.168153 
L 85.100745 175.596988 
L 89.228416 174.744765 
L 90.604307 176.278766 
L 91.980197 176.321377 
L 93.356087 170.313207 
L 94.731978 169.844485 
L 98.859649 166.520816 
L 100.235539 168.438317 
L 101.61143 168.225262 
L 102.98732 167.117372 
L 104.363211 167.03215 
L 108.490882 169.034873 
L 109.866772 169.162706 
L 111.242663 174.233431 
L 112.618553 172.784653 
L 113.994443 177.088377 
M 119.498005 176.193544 
L 120.873896 174.361265 
L 122.249786 174.787376 
L 123.625676 177.429266 
L 127.753348 179.474601 
L 129.129238 178.494545 
L 130.505128 180.795546 
L 131.881019 180.838157 
L 133.256909 180.028546 
L 137.38458 180.497268 
L 138.760471 180.156379 
L 140.136361 181.051213 
L 141.512252 183.053936 
L 142.888142 184.758381 
L 147.015813 185.567993 
L 148.391704 184.247048 
L 149.767594 180.156379 
M 152.519375 177.770155 
L 156.647046 176.321377 
L 158.022937 178.963267 
L 159.398827 177.301433 
L 160.774717 182.45738 
L 162.150608 180.880768 
L 166.278279 182.84088 
L 167.65417 181.179046 
L 169.03006 182.84088 
L 170.40595 185.440159 
M 175.909512 181.818213 
L 177.285402 180.667713 
L 178.661293 179.687656 
L 180.037183 180.19899 
L 181.413074 180.369435 
L 185.540745 179.687656 
L 186.916635 178.878045 
L 188.292526 179.176323 
L 189.668416 177.344044 
L 191.044307 178.963267 
L 195.171978 179.900712 
L 196.547868 183.053936 
L 197.923759 183.309603 
L 199.299649 181.860824 
L 200.675539 178.835434 
L 204.803211 178.664989 
L 206.179101 176.150932 
L 207.554991 174.57432 
L 208.930882 173.253375 
L 210.306772 176.108321 
L 214.434443 176.236155 
L 215.810334 176.06571 
L 217.186224 177.770155 
L 218.562115 177.344044 
L 219.938005 177.216211 
L 224.065676 175.895266 
L 225.441567 176.790099 
L 226.817457 176.704877 
L 228.193348 174.91521 
L 233.696909 174.531709 
L 235.0728 172.656819 
L 236.44869 172.017652 
L 237.82458 170.909763 
L 239.200471 173.253375 
L 244.704033 174.19082 
L 246.079923 174.105598 
L 247.455813 177.301433 
L 248.831704 178.3241 
M 254.335265 175.852654 
L 255.711156 175.724821 
L 257.087046 173.977765 
L 258.462937 174.19082 
L 262.590608 174.318654 
L 263.966498 173.722098 
L 265.342389 173.338598 
L 266.718279 173.892542 
L 268.09417 172.699431 
L 272.221841 175.29871 
L 273.597731 177.514489 
L 274.973622 176.832711 
L 276.349512 175.341321 
L 277.725402 176.363988 
L 281.853074 174.57432 
L 283.228964 173.722098 
L 284.604854 171.16543 
L 285.980745 169.929707 
L 287.356635 168.949651 
L 291.484307 170.739318 
L 295.611978 167.756539 
L 296.987868 168.949651 
L 301.115539 168.992262 
L 303.86732 168.651373 
L 305.243211 166.265149 
L 306.619101 166.776483 
M 312.122663 164.901593 
L 313.498553 165.242482 
L 314.874443 164.731149 
L 316.250334 164.688537 
L 320.378005 165.412927 
L 321.753896 166.222538 
L 323.129786 167.586095 
L 324.505676 167.03215 
L 325.881567 166.094705 
L 330.009238 166.861705 
L 331.385128 169.333151 
L 332.761019 171.208041 
L 334.136909 167.41565 
L 335.5128 166.222538 
L 339.640471 164.560704 
L 341.016361 163.197148 
L 342.392252 162.046647 
L 343.768142 161.237036 
L 345.144033 163.452815 
L 349.271704 165.412927 
M 352.023485 166.64865 
L 353.399375 166.222538 
L 354.775265 165.668594 
L 358.902937 165.455538 
L 360.278827 166.819094 
L 361.654717 164.560704 
L 363.030608 162.728425 
L 364.406498 162.643203 
L 369.91006 161.748369 
L 371.28595 164.475482 
M 374.037731 167.756539 
L 378.165402 167.41565 
L 379.541293 167.159983 
L 380.917183 168.779206 
L 382.293074 169.247929 
L 383.668964 172.699431 
L 387.796635 173.210764 
L 389.172526 173.80732 
L 390.548416 173.722098 
L 391.924307 176.491821 
L 393.300197 175.895266 
L 397.427868 176.662266 
L 398.803759 177.344044 
L 400.179649 175.554377 
L 401.555539 176.790099 
L 402.93143 176.023099 
L 407.059101 177.5571 
L 408.434991 178.878045 
L 409.810882 180.667713 
M 412.562663 181.051213 
L 416.690334 180.284212 
L 418.066224 180.369435 
L 419.442115 178.920656 
M 422.193896 177.812767 
L 426.321567 177.003155 
L 427.697457 175.639599 
L 430.449238 172.443764 
L 431.825128 171.208041 
L 435.9528 171.93243 
L 437.32869 171.54893 
L 438.70458 172.145486 
L 441.456361 170.05754 
M 446.959923 174.276043 
L 448.335813 174.616932 
L 449.711704 175.213487 
L 451.087594 178.3241 
L 455.215265 179.772879 
L 456.591156 183.778325 
L 457.967046 184.758381 
L 459.342937 187.187216 
L 464.846498 180.412046 
L 466.222389 181.818213 
L 467.598279 180.838157 
L 468.97417 180.710324 
L 470.35006 181.818213 
L 474.477731 184.971437 
L 475.853622 186.548049 
L 477.229512 185.014048 
L 478.605402 182.713047 
L 479.981293 182.926103 
M 485.484854 181.477324 
L 488.236635 179.389379 
L 489.612526 179.943323 
L 493.740197 180.071157 
L 495.116087 179.346767 
L 496.491978 180.071157 
L 497.867868 180.156379 
L 499.243759 182.329547 
L 503.37143 179.218934 
L 504.74732 181.051213 
L 506.123211 181.093824 
L 507.499101 179.730268 
L 508.874991 183.735714 
L 514.378553 185.312326 
L 515.754443 183.56527 
L 517.130334 182.926103 
L 518.506224 177.897989 
L 522.633896 180.156379 
L 524.009786 179.176323 
L 525.385676 179.559823 
L 526.761567 178.537156 
L 528.137457 178.111045 
L 532.265128 178.664989 
L 533.641019 176.704877 
L 535.016909 175.213487 
L 536.3928 173.082931 
L 537.76869 171.761986 
L 541.896361 170.014929 
L 543.272252 168.651373 
L 544.648142 171.975041 
L 546.024033 170.185374 
L 547.399923 169.120095 
L 547.399923 169.120095 
" clip-path="url(#p03a5d85b30)" style="fill: none; stroke: #2ca02c; stroke-width: 1.2; stroke-linecap: square"/>
   </g>
   <g id="patch_8">
    <path d="M 52.079375 188.638125 
L 52.079375 156.718125 
" style="fill: none; stroke: #000000; stroke-width: 0.8; stroke-linejoin: miter; stroke-linecap: square"/>
   </g>
   <g id="patch_9">
    <path d="M 554.279375 188.638125 
L 554.279375 156.718125 
" style="fill: none; stroke: #000000; stroke-width: 0.8; stroke-linejoin: miter; stroke-linecap: square"/>
   </g>
   <g id="patch_10">
    <path d="M 52.079375 188.638125 
L 554.279375 188.638125 
" style="fill: none; stroke: #000000; stroke-width: 0.8; stroke-linejoin: miter; stroke-linecap: square"/>
   </g>
   <g id="patch_11">
    <path d="M 52.079375 156.718125 
L 554.279375 156.718125 
" style="fill: none; stroke: #000000; stroke-width: 0.8; stroke-linejoin: miter; stroke-linecap: square"/>
   </g>
  </g>
 </g>
 <defs>
  <clipPath id="pb14ec25da0">
   <rect x="52.079375" y="22.318125" width="502.2" height="91.2"/>
  </clipPath>
  <clipPath id="p03a5d85b30">
   <rect x="52.079375" y="156.718125" width="502.2" height="31.92"/>
  </clipPath>
 </defs>
</svg>
