<?xml version="1.0" encoding="utf-8" standalone="no"?>
<!DOCTYPE svg PUBLIC "-//W3C//DTD SVG 1.1//EN"
  "http://www.w3.org/Graphics/SVG/1.1/DTD/svg11.dtd">
<svg xmlns:xlink="http://www.w3.org/1999/xlink" width="561.865625pt" height="239.454103pt" viewBox="0 0 561.865625 239.454103" xmlns="http://www.w3.org/2000/svg" version="1.1">
 <metadata>
  <rdf:RDF xmlns:dc="http://purl.org/dc/elements/1.1/" xmlns:cc="http://creativecommons.org/ns#" xmlns:rdf="http://www.w3.org/1999/02/22-rdf-syntax-ns#">
   <cc:Work>
    <dc:type rdf:resource="http://purl.org/dc/dcmitype/StillImage"/>
    <dc:date>2026-08-20T14:00:40.251483</dc:date>
    <dc:format>image/svg+xml</dc:format>
    <dc:creator>
     <cc:Agent>
      <dc:title>Matplotlib v3.11.1, https://matplotlib.org/</dc:title>
     </cc:Agent>
    </dc:creator>
   </cc:Work>
  </rdf:RDF>
 </metadata>
 <defs>
  <style type="text/css">*{stroke-linejoin: round; stroke-linecap: butt}</style>
 </defs>
 <g id="figure_1">
  <g id="patch_1">
   <path d="M 0 239.454103 
L 561.865625 239.454103 
L 561.865625 0 
L 0 0 
z
" style="fill: #ffffff"/>
  </g>
  <g id="axes_1">
   <g id="patch_2">
    <path d="M 52.465625 113.518125 
L 554.665625 113.518125 
L 554.665625 22.318125 
L 52.465625 22.318125 
z
" style="fill: #ffffff"/>
   </g>
   <g id="matplotlib.axis_1">
    <g id="xtick_1">
     <g id="line2d_1">
      <path d="M 70.3522 113.518125 
L 70.3522 22.318125 
" clip-path="url(#p00d19f67da)" style="fill: none; stroke: #b0b0b0; stroke-opacity: 0.2; stroke-width: 0.8; stroke-linecap: square"/>
     </g>
     <g id="line2d_2">
      <defs>
       <path id="m5cb848207f" d="M 0 0 
L 0 3.5 
" style="stroke: #000000; stroke-width: 0.8"/>
      </defs>
      <g>
       <use xlink:href="#m5cb848207f" x="70.3522" y="113.518125" style="stroke: #000000; stroke-width: 0.8"/>
      </g>
     </g>
     <g id="text_1">
      <!-- 2025-09 -->
      <g transform="translate(39.108577 155.435389) rotate(-45) scale(0.1 -0.1)">
       <defs>
        <path id="DejaVuSans-15" d="M 1228 531 
L 3431 531 
L 3431 0 
L 469 0 
L 469 531 
Q 828 903 1448 1529 
Q 2069 2156 2228 2338 
Q 2531 2678 2651 2914 
Q 2772 3150 2772 3378 
Q 2772 3750 2511 3984 
Q 2250 4219 1831 4219 
Q 1534 4219 1204 4116 
Q 875 4013 500 3803 
L 500 4441 
Q 881 4594 1212 4672 
Q 1544 4750 1819 4750 
Q 2544 4750 2975 4387 
Q 3406 4025 3406 3419 
Q 3406 3131 3298 2873 
Q 3191 2616 2906 2266 
Q 2828 2175 2409 1742 
Q 1991 1309 1228 531 
z
" transform="scale(0.015625)"/>
        <path id="DejaVuSans-13" d="M 2034 4250 
Q 1547 4250 1301 3770 
Q 1056 3291 1056 2328 
Q 1056 1369 1301 889 
Q 1547 409 2034 409 
Q 2525 409 2770 889 
Q 3016 1369 3016 2328 
Q 3016 3291 2770 3770 
Q 2525 4250 2034 4250 
z
M 2034 4750 
Q 2819 4750 3233 4129 
Q 3647 3509 3647 2328 
Q 3647 1150 3233 529 
Q 2819 -91 2034 -91 
Q 1250 -91 836 529 
Q 422 1150 422 2328 
Q 422 3509 836 4129 
Q 1250 4750 2034 4750 
z
" transform="scale(0.015625)"/>
        <path id="DejaVuSans-18" d="M 691 4666 
L 3169 4666 
L 3169 4134 
L 1269 4134 
L 1269 2991 
Q 1406 3038 1543 3061 
Q 1681 3084 1819 3084 
Q 2600 3084 3056 2656 
Q 3513 2228 3513 1497 
Q 3513 744 3044 326 
Q 2575 -91 1722 -91 
Q 1428 -91 1123 -41 
Q 819 9 494 109 
L 494 744 
Q 775 591 1075 516 
Q 1375 441 1709 441 
Q 2250 441 2565 725 
Q 2881 1009 2881 1497 
Q 2881 1984 2565 2268 
Q 2250 2553 1709 2553 
Q 1456 2553 1204 2497 
Q 953 2441 691 2322 
L 691 4666 
z
" transform="scale(0.015625)"/>
        <path id="DejaVuSans-10" d="M 313 2009 
L 1997 2009 
L 1997 1497 
L 313 1497 
L 313 2009 
z
" transform="scale(0.015625)"/>
        <path id="DejaVuSans-1c" d="M 703 97 
L 703 672 
Q 941 559 1184 500 
Q 1428 441 1663 441 
Q 2288 441 2617 861 
Q 2947 1281 2994 2138 
Q 2813 1869 2534 1725 
Q 2256 1581 1919 1581 
Q 1219 1581 811 2004 
Q 403 2428 403 3163 
Q 403 3881 828 4315 
Q 1253 4750 1959 4750 
Q 2769 4750 3195 4129 
Q 3622 3509 3622 2328 
Q 3622 1225 3098 567 
Q 2575 -91 1691 -91 
Q 1453 -91 1209 -44 
Q 966 3 703 97 
z
M 1959 2075 
Q 2384 2075 2632 2365 
Q 2881 2656 2881 3163 
Q 2881 3666 2632 3958 
Q 2384 4250 1959 4250 
Q 1534 4250 1286 3958 
Q 1038 3666 1038 3163 
Q 1038 2656 1286 2365 
Q 1534 2075 1959 2075 
z
" transform="scale(0.015625)"/>
       </defs>
       <use xlink:href="#DejaVuSans-15"/>
       <use xlink:href="#DejaVuSans-13" transform="translate(63.625 0)"/>
       <use xlink:href="#DejaVuSans-15" transform="translate(127.25 0)"/>
       <use xlink:href="#DejaVuSans-18" transform="translate(190.875 0)"/>
       <use xlink:href="#DejaVuSans-10" transform="translate(254.5 0)"/>
       <use xlink:href="#DejaVuSans-13" transform="translate(290.578125 0)"/>
       <use xlink:href="#DejaVuSans-1c" transform="translate(354.203125 0)"/>
      </g>
     </g>
    </g>
    <g id="xtick_2">
     <g id="line2d_3">
      <path d="M 111.628913 113.518125 
L 111.628913 22.318125 
" clip-path="url(#p00d19f67da)" style="fill: none; stroke: #b0b0b0; stroke-opacity: 0.2; stroke-width: 0.8; stroke-linecap: square"/>
     </g>
     <g id="line2d_4">
      <g>
       <use xlink:href="#m5cb848207f" x="111.628913" y="113.518125" style="stroke: #000000; stroke-width: 0.8"/>
      </g>
     </g>
     <g id="text_2">
      <!-- 2025-10 -->
      <g transform="translate(80.385289 155.435389) rotate(-45) scale(0.1 -0.1)">
       <defs>
        <path id="DejaVuSans-14" d="M 794 531 
L 1825 531 
L 1825 4091 
L 703 3866 
L 703 4441 
L 1819 4666 
L 2450 4666 
L 2450 531 
L 3481 531 
L 3481 0 
L 794 0 
L 794 531 
z
" transform="scale(0.015625)"/>
       </defs>
       <use xlink:href="#DejaVuSans-15"/>
       <use xlink:href="#DejaVuSans-13" transform="translate(63.625 0)"/>
       <use xlink:href="#DejaVuSans-15" transform="translate(127.25 0)"/>
       <use xlink:href="#DejaVuSans-18" transform="translate(190.875 0)"/>
       <use xlink:href="#DejaVuSans-10" transform="translate(254.5 0)"/>
       <use xlink:href="#DejaVuSans-14" transform="translate(290.578125 0)"/>
       <use xlink:href="#DejaVuSans-13" transform="translate(354.203125 0)"/>
      </g>
     </g>
    </g>
    <g id="xtick_3">
     <g id="line2d_5">
      <path d="M 154.281515 113.518125 
L 154.281515 22.318125 
" clip-path="url(#p00d19f67da)" style="fill: none; stroke: #b0b0b0; stroke-opacity: 0.2; stroke-width: 0.8; stroke-linecap: square"/>
     </g>
     <g id="line2d_6">
      <g>
       <use xlink:href="#m5cb848207f" x="154.281515" y="113.518125" style="stroke: #000000; stroke-width: 0.8"/>
      </g>
     </g>
     <g id="text_3">
      <!-- 2025-11 -->
      <g transform="translate(123.037892 155.435389) rotate(-45) scale(0.1 -0.1)">
       <use xlink:href="#DejaVuSans-15"/>
       <use xlink:href="#DejaVuSans-13" transform="translate(63.625 0)"/>
       <use xlink:href="#DejaVuSans-15" transform="translate(127.25 0)"/>
       <use xlink:href="#DejaVuSans-18" transform="translate(190.875 0)"/>
       <use xlink:href="#DejaVuSans-10" transform="translate(254.5 0)"/>
       <use xlink:href="#DejaVuSans-14" transform="translate(290.578125 0)"/>
       <use xlink:href="#DejaVuSans-14" transform="translate(354.203125 0)"/>
      </g>
     </g>
    </g>
    <g id="xtick_4">
     <g id="line2d_7">
      <path d="M 195.558228 113.518125 
L 195.558228 22.318125 
" clip-path="url(#p00d19f67da)" style="fill: none; stroke: #b0b0b0; stroke-opacity: 0.2; stroke-width: 0.8; stroke-linecap: square"/>
     </g>
     <g id="line2d_8">
      <g>
       <use xlink:href="#m5cb848207f" x="195.558228" y="113.518125" style="stroke: #000000; stroke-width: 0.8"/>
      </g>
     </g>
     <g id="text_4">
      <!-- 2025-12 -->
      <g transform="translate(164.314604 155.435389) rotate(-45) scale(0.1 -0.1)">
       <use xlink:href="#DejaVuSans-15"/>
       <use xlink:href="#DejaVuSans-13" transform="translate(63.625 0)"/>
       <use xlink:href="#DejaVuSans-15" transform="translate(127.25 0)"/>
       <use xlink:href="#DejaVuSans-18" transform="translate(190.875 0)"/>
       <use xlink:href="#DejaVuSans-10" transform="translate(254.5 0)"/>
       <use xlink:href="#DejaVuSans-14" transform="translate(290.578125 0)"/>
       <use xlink:href="#DejaVuSans-15" transform="translate(354.203125 0)"/>
      </g>
     </g>
    </g>
    <g id="xtick_5">
     <g id="line2d_9">
      <path d="M 238.21083 113.518125 
L 238.21083 22.318125 
" clip-path="url(#p00d19f67da)" style="fill: none; stroke: #b0b0b0; stroke-opacity: 0.2; stroke-width: 0.8; stroke-linecap: square"/>
     </g>
     <g id="line2d_10">
      <g>
       <use xlink:href="#m5cb848207f" x="238.21083" y="113.518125" style="stroke: #000000; stroke-width: 0.8"/>
      </g>
     </g>
     <g id="text_5">
      <!-- 2026-01 -->
      <g transform="translate(206.967207 155.435389) rotate(-45) scale(0.1 -0.1)">
       <defs>
        <path id="DejaVuSans-19" d="M 2113 2584 
Q 1688 2584 1439 2293 
Q 1191 2003 1191 1497 
Q 1191 994 1439 701 
Q 1688 409 2113 409 
Q 2538 409 2786 701 
Q 3034 994 3034 1497 
Q 3034 2003 2786 2293 
Q 2538 2584 2113 2584 
z
M 3366 4563 
L 3366 3988 
Q 3128 4100 2886 4159 
Q 2644 4219 2406 4219 
Q 1781 4219 1451 3797 
Q 1122 3375 1075 2522 
Q 1259 2794 1537 2939 
Q 1816 3084 2150 3084 
Q 2853 3084 3261 2657 
Q 3669 2231 3669 1497 
Q 3669 778 3244 343 
Q 2819 -91 2113 -91 
Q 1303 -91 875 529 
Q 447 1150 447 2328 
Q 447 3434 972 4092 
Q 1497 4750 2381 4750 
Q 2619 4750 2861 4703 
Q 3103 4656 3366 4563 
z
" transform="scale(0.015625)"/>
       </defs>
       <use xlink:href="#DejaVuSans-15"/>
       <use xlink:href="#DejaVuSans-13" transform="translate(63.625 0)"/>
       <use xlink:href="#DejaVuSans-15" transform="translate(127.25 0)"/>
       <use xlink:href="#DejaVuSans-19" transform="translate(190.875 0)"/>
       <use xlink:href="#DejaVuSans-10" transform="translate(254.5 0)"/>
       <use xlink:href="#DejaVuSans-13" transform="translate(290.578125 0)"/>
       <use xlink:href="#DejaVuSans-14" transform="translate(354.203125 0)"/>
      </g>
     </g>
    </g>
    <g id="xtick_6">
     <g id="line2d_11">
      <path d="M 280.863433 113.518125 
L 280.863433 22.318125 
" clip-path="url(#p00d19f67da)" style="fill: none; stroke: #b0b0b0; stroke-opacity: 0.2; stroke-width: 0.8; stroke-linecap: square"/>
     </g>
     <g id="line2d_12">
      <g>
       <use xlink:href="#m5cb848207f" x="280.863433" y="113.518125" style="stroke: #000000; stroke-width: 0.8"/>
      </g>
     </g>
     <g id="text_6">
      <!-- 2026-02 -->
      <g transform="translate(249.61981 155.435389) rotate(-45) scale(0.1 -0.1)">
       <use xlink:href="#DejaVuSans-15"/>
       <use xlink:href="#DejaVuSans-13" transform="translate(63.625 0)"/>
       <use xlink:href="#DejaVuSans-15" transform="translate(127.25 0)"/>
       <use xlink:href="#DejaVuSans-19" transform="translate(190.875 0)"/>
       <use xlink:href="#DejaVuSans-10" transform="translate(254.5 0)"/>
       <use xlink:href="#DejaVuSans-13" transform="translate(290.578125 0)"/>
       <use xlink:href="#DejaVuSans-15" transform="translate(354.203125 0)"/>
      </g>
     </g>
    </g>
    <g id="xtick_7">
     <g id="line2d_13">
      <path d="M 319.388365 113.518125 
L 319.388365 22.318125 
" clip-path="url(#p00d19f67da)" style="fill: none; stroke: #b0b0b0; stroke-opacity: 0.2; stroke-width: 0.8; stroke-linecap: square"/>
     </g>
     <g id="line2d_14">
      <g>
       <use xlink:href="#m5cb848207f" x="319.388365" y="113.518125" style="stroke: #000000; stroke-width: 0.8"/>
      </g>
     </g>
     <g id="text_7">
      <!-- 2026-03 -->
      <g transform="translate(288.144741 155.435389) rotate(-45) scale(0.1 -0.1)">
       <defs>
        <path id="DejaVuSans-16" d="M 2597 2516 
Q 3050 2419 3304 2112 
Q 3559 1806 3559 1356 
Q 3559 666 3084 287 
Q 2609 -91 1734 -91 
Q 1441 -91 1130 -33 
Q 819 25 488 141 
L 488 750 
Q 750 597 1062 519 
Q 1375 441 1716 441 
Q 2309 441 2620 675 
Q 2931 909 2931 1356 
Q 2931 1769 2642 2001 
Q 2353 2234 1838 2234 
L 1294 2234 
L 1294 2753 
L 1863 2753 
Q 2328 2753 2575 2939 
Q 2822 3125 2822 3475 
Q 2822 3834 2567 4026 
Q 2313 4219 1838 4219 
Q 1578 4219 1281 4162 
Q 984 4106 628 3988 
L 628 4550 
Q 988 4650 1302 4700 
Q 1616 4750 1894 4750 
Q 2613 4750 3031 4423 
Q 3450 4097 3450 3541 
Q 3450 3153 3228 2886 
Q 3006 2619 2597 2516 
z
" transform="scale(0.015625)"/>
       </defs>
       <use xlink:href="#DejaVuSans-15"/>
       <use xlink:href="#DejaVuSans-13" transform="translate(63.625 0)"/>
       <use xlink:href="#DejaVuSans-15" transform="translate(127.25 0)"/>
       <use xlink:href="#DejaVuSans-19" transform="translate(190.875 0)"/>
       <use xlink:href="#DejaVuSans-10" transform="translate(254.5 0)"/>
       <use xlink:href="#DejaVuSans-13" transform="translate(290.578125 0)"/>
       <use xlink:href="#DejaVuSans-16" transform="translate(354.203125 0)"/>
      </g>
     </g>
    </g>
    <g id="xtick_8">
     <g id="line2d_15">
      <path d="M 362.040967 113.518125 
L 362.040967 22.318125 
" clip-path="url(#p00d19f67da)" style="fill: none; stroke: #b0b0b0; stroke-opacity: 0.2; stroke-width: 0.8; stroke-linecap: square"/>
     </g>
     <g id="line2d_16">
      <g>
       <use xlink:href="#m5cb848207f" x="362.040967" y="113.518125" style="stroke: #000000; stroke-width: 0.8"/>
      </g>
     </g>
     <g id="text_8">
      <!-- 2026-04 -->
      <g transform="translate(330.797344 155.435389) rotate(-45) scale(0.1 -0.1)">
       <defs>
        <path id="DejaVuSans-17" d="M 2419 4116 
L 825 1625 
L 2419 1625 
L 2419 4116 
z
M 2253 4666 
L 3047 4666 
L 3047 1625 
L 3713 1625 
L 3713 1100 
L 3047 1100 
L 3047 0 
L 2419 0 
L 2419 1100 
L 313 1100 
L 313 1709 
L 2253 4666 
z
" transform="scale(0.015625)"/>
       </defs>
       <use xlink:href="#DejaVuSans-15"/>
       <use xlink:href="#DejaVuSans-13" transform="translate(63.625 0)"/>
       <use xlink:href="#DejaVuSans-15" transform="translate(127.25 0)"/>
       <use xlink:href="#DejaVuSans-19" transform="translate(190.875 0)"/>
       <use xlink:href="#DejaVuSans-10" transform="translate(254.5 0)"/>
       <use xlink:href="#DejaVuSans-13" transform="translate(290.578125 0)"/>
       <use xlink:href="#DejaVuSans-17" transform="translate(354.203125 0)"/>
      </g>
     </g>
    </g>
    <g id="xtick_9">
     <g id="line2d_17">
      <path d="M 403.31768 113.518125 
L 403.31768 22.318125 
" clip-path="url(#p00d19f67da)" style="fill: none; stroke: #b0b0b0; stroke-opacity: 0.2; stroke-width: 0.8; stroke-linecap: square"/>
     </g>
     <g id="line2d_18">
      <g>
       <use xlink:href="#m5cb848207f" x="403.31768" y="113.518125" style="stroke: #000000; stroke-width: 0.8"/>
      </g>
     </g>
     <g id="text_9">
      <!-- 2026-05 -->
      <g transform="translate(372.074056 155.435389) rotate(-45) scale(0.1 -0.1)">
       <use xlink:href="#DejaVuSans-15"/>
       <use xlink:href="#DejaVuSans-13" transform="translate(63.625 0)"/>
       <use xlink:href="#DejaVuSans-15" transform="translate(127.25 0)"/>
       <use xlink:href="#DejaVuSans-19" transform="translate(190.875 0)"/>
       <use xlink:href="#DejaVuSans-10" transform="translate(254.5 0)"/>
       <use xlink:href="#DejaVuSans-13" transform="translate(290.578125 0)"/>
       <use xlink:href="#DejaVuSans-18" transform="translate(354.203125 0)"/>
      </g>
     </g>
    </g>
    <g id="xtick_10">
     <g id="line2d_19">
      <path d="M 445.970283 113.518125 
L 445.970283 22.318125 
" clip-path="url(#p00d19f67da)" style="fill: none; stroke: #b0b0b0; stroke-opacity: 0.2; stroke-width: 0.8; stroke-linecap: square"/>
     </g>
     <g id="line2d_20">
      <g>
       <use xlink:href="#m5cb848207f" x="445.970283" y="113.518125" style="stroke: #000000; stroke-width: 0.8"/>
      </g>
     </g>
     <g id="text_10">
      <!-- 2026-06 -->
      <g transform="translate(414.726659 155.435389) rotate(-45) scale(0.1 -0.1)">
       <use xlink:href="#DejaVuSans-15"/>
       <use xlink:href="#DejaVuSans-13" transform="translate(63.625 0)"/>
       <use xlink:href="#DejaVuSans-15" transform="translate(127.25 0)"/>
       <use xlink:href="#DejaVuSans-19" transform="translate(190.875 0)"/>
       <use xlink:href="#DejaVuSans-10" transform="translate(254.5 0)"/>
       <use xlink:href="#DejaVuSans-13" transform="translate(290.578125 0)"/>
       <use xlink:href="#DejaVuSans-19" transform="translate(354.203125 0)"/>
      </g>
     </g>
    </g>
    <g id="xtick_11">
     <g id="line2d_21">
      <path d="M 487.246995 113.518125 
L 487.246995 22.318125 
" clip-path="url(#p00d19f67da)" style="fill: none; stroke: #b0b0b0; stroke-opacity: 0.2; stroke-width: 0.8; stroke-linecap: square"/>
     </g>
     <g id="line2d_22">
      <g>
       <use xlink:href="#m5cb848207f" x="487.246995" y="113.518125" style="stroke: #000000; stroke-width: 0.8"/>
      </g>
     </g>
     <g id="text_11">
      <!-- 2026-07 -->
      <g transform="translate(456.003371 155.435389) rotate(-45) scale(0.1 -0.1)">
       <defs>
        <path id="DejaVuSans-1a" d="M 525 4666 
L 3525 4666 
L 3525 4397 
L 1831 0 
L 1172 0 
L 2766 4134 
L 525 4134 
L 525 4666 
z
" transform="scale(0.015625)"/>
       </defs>
       <use xlink:href="#DejaVuSans-15"/>
       <use xlink:href="#DejaVuSans-13" transform="translate(63.625 0)"/>
       <use xlink:href="#DejaVuSans-15" transform="translate(127.25 0)"/>
       <use xlink:href="#DejaVuSans-19" transform="translate(190.875 0)"/>
       <use xlink:href="#DejaVuSans-10" transform="translate(254.5 0)"/>
       <use xlink:href="#DejaVuSans-13" transform="translate(290.578125 0)"/>
       <use xlink:href="#DejaVuSans-1a" transform="translate(354.203125 0)"/>
      </g>
     </g>
    </g>
    <g id="xtick_12">
     <g id="line2d_23">
      <path d="M 529.899598 113.518125 
L 529.899598 22.318125 
" clip-path="url(#p00d19f67da)" style="fill: none; stroke: #b0b0b0; stroke-opacity: 0.2; stroke-width: 0.8; stroke-linecap: square"/>
     </g>
     <g id="line2d_24">
      <g>
       <use xlink:href="#m5cb848207f" x="529.899598" y="113.518125" style="stroke: #000000; stroke-width: 0.8"/>
      </g>
     </g>
     <g id="text_12">
      <!-- 2026-08 -->
      <g transform="translate(498.655974 155.435389) rotate(-45) scale(0.1 -0.1)">
       <defs>
        <path id="DejaVuSans-1b" d="M 2034 2216 
Q 1584 2216 1326 1975 
Q 1069 1734 1069 1313 
Q 1069 891 1326 650 
Q 1584 409 2034 409 
Q 2484 409 2743 651 
Q 3003 894 3003 1313 
Q 3003 1734 2745 1975 
Q 2488 2216 2034 2216 
z
M 1403 2484 
Q 997 2584 770 2862 
Q 544 3141 544 3541 
Q 544 4100 942 4425 
Q 1341 4750 2034 4750 
Q 2731 4750 3128 4425 
Q 3525 4100 3525 3541 
Q 3525 3141 3298 2862 
Q 3072 2584 2669 2484 
Q 3125 2378 3379 2068 
Q 3634 1759 3634 1313 
Q 3634 634 3220 271 
Q 2806 -91 2034 -91 
Q 1263 -91 848 271 
Q 434 634 434 1313 
Q 434 1759 690 2068 
Q 947 2378 1403 2484 
z
M 1172 3481 
Q 1172 3119 1398 2916 
Q 1625 2713 2034 2713 
Q 2441 2713 2670 2916 
Q 2900 3119 2900 3481 
Q 2900 3844 2670 4047 
Q 2441 4250 2034 4250 
Q 1625 4250 1398 4047 
Q 1172 3844 1172 3481 
z
" transform="scale(0.015625)"/>
       </defs>
       <use xlink:href="#DejaVuSans-15"/>
       <use xlink:href="#DejaVuSans-13" transform="translate(63.625 0)"/>
       <use xlink:href="#DejaVuSans-15" transform="translate(127.25 0)"/>
       <use xlink:href="#DejaVuSans-19" transform="translate(190.875 0)"/>
       <use xlink:href="#DejaVuSans-10" transform="translate(254.5 0)"/>
       <use xlink:href="#DejaVuSans-13" transform="translate(290.578125 0)"/>
       <use xlink:href="#DejaVuSans-1b" transform="translate(354.203125 0)"/>
      </g>
     </g>
    </g>
   </g>
   <g id="matplotlib.axis_2">
    <g id="ytick_1">
     <g id="line2d_25">
      <path d="M 52.465625 109.37267 
L 554.665625 109.37267 
" clip-path="url(#p00d19f67da)" style="fill: none; stroke: #b0b0b0; stroke-opacity: 0.2; stroke-width: 0.8; stroke-linecap: square"/>
     </g>
     <g id="line2d_26">
      <defs>
       <path id="m777ae75995" d="M 0 0 
L -3.5 0 
" style="stroke: #000000; stroke-width: 0.8"/>
      </defs>
      <g>
       <use xlink:href="#m777ae75995" x="52.465625" y="109.37267" style="stroke: #000000; stroke-width: 0.8"/>
      </g>
     </g>
     <g id="text_13">
      <!-- 0 -->
      <g transform="translate(39.103125 113.171499) scale(0.1 -0.1)">
       <use xlink:href="#DejaVuSans-13"/>
      </g>
     </g>
    </g>
    <g id="ytick_2">
     <g id="line2d_27">
      <path d="M 52.465625 71.68672 
L 554.665625 71.68672 
" clip-path="url(#p00d19f67da)" style="fill: none; stroke: #b0b0b0; stroke-opacity: 0.2; stroke-width: 0.8; stroke-linecap: square"/>
     </g>
     <g id="line2d_28">
      <g>
       <use xlink:href="#m777ae75995" x="52.465625" y="71.68672" style="stroke: #000000; stroke-width: 0.8"/>
      </g>
     </g>
     <g id="text_14">
      <!-- 50 -->
      <g transform="translate(32.740625 75.485548) scale(0.1 -0.1)">
       <use xlink:href="#DejaVuSans-18"/>
       <use xlink:href="#DejaVuSans-13" transform="translate(63.625 0)"/>
      </g>
     </g>
    </g>
    <g id="ytick_3">
     <g id="line2d_29">
      <path d="M 52.465625 34.00077 
L 554.665625 34.00077 
" clip-path="url(#p00d19f67da)" style="fill: none; stroke: #b0b0b0; stroke-opacity: 0.2; stroke-width: 0.8; stroke-linecap: square"/>
     </g>
     <g id="line2d_30">
      <g>
       <use xlink:href="#m777ae75995" x="52.465625" y="34.00077" style="stroke: #000000; stroke-width: 0.8"/>
      </g>
     </g>
     <g id="text_15">
      <!-- 100 -->
      <g transform="translate(26.378125 37.799598) scale(0.1 -0.1)">
       <use xlink:href="#DejaVuSans-14"/>
       <use xlink:href="#DejaVuSans-13" transform="translate(63.625 0)"/>
       <use xlink:href="#DejaVuSans-13" transform="translate(127.25 0)"/>
      </g>
     </g>
    </g>
    <g id="text_16">
     <!-- bp -->
     <g transform="translate(19.975781 74.266562) rotate(-90) scale(0.1 -0.1)">
      <defs>
       <path id="DejaVuSans-45" d="M 3116 1747 
Q 3116 2381 2855 2742 
Q 2594 3103 2138 3103 
Q 1681 3103 1420 2742 
Q 1159 2381 1159 1747 
Q 1159 1113 1420 752 
Q 1681 391 2138 391 
Q 2594 391 2855 752 
Q 3116 1113 3116 1747 
z
M 1159 2969 
Q 1341 3281 1617 3432 
Q 1894 3584 2278 3584 
Q 2916 3584 3314 3078 
Q 3713 2572 3713 1747 
Q 3713 922 3314 415 
Q 2916 -91 2278 -91 
Q 1894 -91 1617 61 
Q 1341 213 1159 525 
L 1159 0 
L 581 0 
L 581 4863 
L 1159 4863 
L 1159 2969 
z
" transform="scale(0.015625)"/>
       <path id="DejaVuSans-53" d="M 1159 525 
L 1159 -1331 
L 581 -1331 
L 581 3500 
L 1159 3500 
L 1159 2969 
Q 1341 3281 1617 3432 
Q 1894 3584 2278 3584 
Q 2916 3584 3314 3078 
Q 3713 2572 3713 1747 
Q 3713 922 3314 415 
Q 2916 -91 2278 -91 
Q 1894 -91 1617 61 
Q 1341 213 1159 525 
z
M 3116 1747 
Q 3116 2381 2855 2742 
Q 2594 3103 2138 3103 
Q 1681 3103 1420 2742 
Q 1159 2381 1159 1747 
Q 1159 1113 1420 752 
Q 1681 391 2138 391 
Q 2594 391 2855 752 
Q 3116 1113 3116 1747 
z
" transform="scale(0.015625)"/>
      </defs>
      <use xlink:href="#DejaVuSans-45"/>
      <use xlink:href="#DejaVuSans-53" transform="translate(63.484375 0)"/>
     </g>
    </g>
   </g>
   <g id="line2d_31">
    <path d="M 52.465625 44.552836 
L 53.841515 45.306555 
L 55.217406 45.306555 
L 56.593296 46.813993 
L 60.720967 48.321431 
L 62.096858 48.321431 
L 63.472748 49.828869 
L 64.848639 49.07515 
L 66.224529 45.306555 
L 70.3522 45.306555 
L 74.479872 47.567712 
L 75.855762 46.813993 
L 79.983433 46.060274 
L 81.359324 44.552836 
L 82.735214 43.799117 
L 84.111104 45.306555 
L 85.486995 43.045398 
L 92.366447 43.045398 
L 93.742337 40.030522 
L 95.118228 38.523084 
L 99.245899 37.015646 
L 100.621789 39.276803 
L 101.99768 37.015646 
L 103.37357 37.015646 
L 104.749461 36.261927 
L 108.877132 35.508208 
L 110.253022 34.754489 
L 111.628913 39.276803 
L 113.004803 40.030522 
L 114.380693 38.523084 
L 118.508365 36.261927 
L 119.884255 37.769365 
L 121.260146 38.523084 
L 122.636036 38.523084 
L 124.011926 43.799117 
L 128.139598 43.799117 
L 129.515488 42.291679 
L 130.891378 39.276803 
L 132.267269 40.784241 
L 133.643159 39.276803 
L 137.77083 37.769365 
L 139.146721 41.53796 
L 140.522611 41.53796 
L 143.274392 38.523084 
L 147.402063 37.015646 
L 148.777954 37.769365 
L 150.153844 39.276803 
L 151.529735 35.508208 
L 152.905625 34.754489 
L 157.033296 35.508208 
L 158.409187 37.769365 
L 159.785077 33.247051 
L 161.160967 33.247051 
L 162.536858 38.523084 
L 166.664529 37.015646 
L 168.04042 37.015646 
L 169.41631 38.523084 
L 172.168091 40.030522 
L 176.295762 41.53796 
L 177.671652 43.799117 
L 179.047543 43.045398 
L 180.423433 43.045398 
L 181.799324 44.552836 
L 187.302885 44.552836 
L 190.054666 43.045398 
L 191.430557 43.045398 
L 195.558228 45.306555 
L 196.934118 45.306555 
L 198.310009 46.060274 
L 199.685899 45.306555 
L 201.061789 55.104902 
L 205.189461 52.843745 
L 206.565351 55.104902 
L 207.941241 55.858621 
L 209.317132 55.104902 
L 210.693022 52.843745 
L 214.820693 51.336307 
L 216.196584 52.843745 
L 217.572474 53.597464 
L 218.948365 55.104902 
L 220.324255 57.366059 
L 224.451926 55.858621 
L 225.827817 52.090026 
L 227.203707 52.843745 
L 228.579598 52.843745 
L 229.955488 53.597464 
L 234.083159 54.351183 
L 235.45905 54.351183 
L 236.83494 52.090026 
L 238.21083 52.090026 
L 239.586721 55.104902 
L 243.714392 52.843745 
L 245.090283 52.843745 
L 246.466173 52.090026 
L 247.842063 49.828869 
L 249.217954 49.07515 
L 253.345625 49.828869 
L 254.721515 51.336307 
L 256.097406 49.828869 
L 257.473296 47.567712 
L 258.849187 43.799117 
L 262.976858 45.306555 
L 264.352748 43.045398 
L 265.728639 46.060274 
L 267.104529 44.552836 
L 268.48042 46.813993 
L 272.608091 45.306555 
L 273.983981 46.813993 
L 275.359872 46.060274 
L 276.735762 46.813993 
L 278.111652 46.060274 
L 282.239324 44.552836 
L 283.615214 46.060274 
L 284.991104 44.552836 
L 286.366995 48.321431 
L 287.742885 47.567712 
L 291.870557 46.813993 
L 293.246447 49.07515 
L 294.622337 46.060274 
L 295.998228 48.321431 
L 297.374118 49.828869 
L 301.501789 49.828869 
L 302.87768 47.567712 
L 304.25357 44.552836 
L 307.005351 44.552836 
L 311.133022 45.306555 
L 312.508913 44.552836 
L 313.884803 45.306555 
L 315.260693 45.306555 
L 316.636584 46.060274 
L 320.764255 46.813993 
L 322.140146 47.567712 
L 323.516036 46.813993 
L 326.267817 52.843745 
L 330.395488 52.090026 
L 331.771378 52.090026 
L 333.147269 54.351183 
L 335.89905 51.336307 
L 341.402611 48.321431 
L 344.154392 48.321431 
L 345.530283 46.813993 
L 349.657954 48.321431 
L 351.033844 49.07515 
L 352.409735 44.552836 
L 353.785625 45.306555 
L 355.161515 44.552836 
L 359.289187 46.060274 
L 360.665077 46.060274 
L 363.416858 47.567712 
L 364.792748 44.552836 
L 368.92042 43.799117 
L 370.29631 46.060274 
L 371.6722 45.306555 
L 373.048091 46.813993 
L 374.423981 46.060274 
L 378.551652 46.060274 
L 381.303433 47.567712 
L 388.182885 47.567712 
L 389.558776 49.07515 
L 390.934666 47.567712 
L 392.310557 44.552836 
L 393.686447 45.306555 
L 399.190009 45.306555 
L 400.565899 47.567712 
L 403.31768 44.552836 
L 407.445351 46.813993 
L 408.821241 46.813993 
L 410.197132 45.306555 
L 412.948913 40.784241 
L 418.452474 43.799117 
L 419.828365 43.045398 
L 421.204255 40.784241 
L 422.580146 42.291679 
L 426.707817 40.784241 
L 428.083707 36.261927 
L 429.459598 34.754489 
L 430.835488 31.739613 
L 432.211378 31.739613 
L 436.33905 26.46358 
L 437.71494 31.739613 
L 439.09083 33.247051 
L 440.466721 33.247051 
L 441.842611 30.985894 
L 445.970283 30.985894 
L 448.722063 29.478456 
L 450.097954 30.985894 
L 451.473844 28.724737 
L 455.601515 31.739613 
L 456.977406 30.985894 
L 458.353296 29.478456 
L 459.729187 30.985894 
L 461.105077 27.971018 
L 465.232748 29.478456 
L 466.608639 30.232175 
L 467.984529 28.724737 
L 469.36042 27.971018 
L 470.73631 28.724737 
L 474.863981 27.971018 
L 476.239872 29.478456 
L 477.615762 30.232175 
L 478.991652 33.247051 
L 480.367543 34.754489 
L 484.495214 33.247051 
L 485.871104 29.478456 
L 487.246995 26.46358 
L 488.622885 30.985894 
L 489.998776 30.985894 
L 494.126447 29.478456 
L 495.502337 29.478456 
L 496.878228 34.00077 
L 498.254118 32.493332 
L 499.630009 30.232175 
L 503.75768 29.478456 
L 505.13357 33.247051 
L 506.509461 32.493332 
L 507.885351 30.985894 
L 509.261241 34.754489 
L 513.388913 31.739613 
L 514.764803 28.724737 
L 516.140693 28.724737 
L 517.516584 29.478456 
L 518.892474 27.217299 
L 523.020146 27.217299 
L 524.396036 27.971018 
L 525.771926 27.217299 
L 527.147817 27.217299 
L 528.523707 26.46358 
L 532.651378 30.232175 
L 534.027269 27.971018 
L 536.77905 27.971018 
L 538.15494 33.247051 
L 542.282611 34.00077 
L 543.658502 34.00077 
L 545.034392 34.754489 
L 546.410283 33.247051 
L 547.786173 34.00077 
L 551.913844 34.00077 
L 554.665625 32.493332 
L 554.665625 32.493332 
" clip-path="url(#p00d19f67da)" style="fill: none; stroke: #444444; stroke-width: 1.5; stroke-linecap: square"/>
    <defs>
     <path id="m2998fe0726" d="M 0 1 
C 0.265203 1 0.51958 0.894634 0.707107 0.707107 
C 0.894634 0.51958 1 0.265203 1 0 
C 1 -0.265203 0.894634 -0.51958 0.707107 -0.707107 
C 0.51958 -0.894634 0.265203 -1 0 -1 
C -0.265203 -1 -0.51958 -0.894634 -0.707107 -0.707107 
C -0.894634 -0.51958 -1 -0.265203 -1 0 
C -1 0.265203 -0.894634 0.51958 -0.707107 0.707107 
C -0.51958 0.894634 -0.265203 1 0 1 
z
" style="stroke: #444444"/>
    </defs>
    <g clip-path="url(#p00d19f67da)">
     <use xlink:href="#m2998fe0726" x="52.465625" y="44.552836" style="fill: #444444; stroke: #444444"/>
     <use xlink:href="#m2998fe0726" x="53.841515" y="45.306555" style="fill: #444444; stroke: #444444"/>
     <use xlink:href="#m2998fe0726" x="55.217406" y="45.306555" style="fill: #444444; stroke: #444444"/>
     <use xlink:href="#m2998fe0726" x="56.593296" y="46.813993" style="fill: #444444; stroke: #444444"/>
     <use xlink:href="#m2998fe0726" x="60.720967" y="48.321431" style="fill: #444444; stroke: #444444"/>
     <use xlink:href="#m2998fe0726" x="62.096858" y="48.321431" style="fill: #444444; stroke: #444444"/>
     <use xlink:href="#m2998fe0726" x="63.472748" y="49.828869" style="fill: #444444; stroke: #444444"/>
     <use xlink:href="#m2998fe0726" x="64.848639" y="49.07515" style="fill: #444444; stroke: #444444"/>
     <use xlink:href="#m2998fe0726" x="66.224529" y="45.306555" style="fill: #444444; stroke: #444444"/>
     <use xlink:href="#m2998fe0726" x="70.3522" y="45.306555" style="fill: #444444; stroke: #444444"/>
     <use xlink:href="#m2998fe0726" x="71.728091" y="46.060274" style="fill: #444444; stroke: #444444"/>
     <use xlink:href="#m2998fe0726" x="73.103981" y="46.813993" style="fill: #444444; stroke: #444444"/>
     <use xlink:href="#m2998fe0726" x="74.479872" y="47.567712" style="fill: #444444; stroke: #444444"/>
     <use xlink:href="#m2998fe0726" x="75.855762" y="46.813993" style="fill: #444444; stroke: #444444"/>
     <use xlink:href="#m2998fe0726" x="79.983433" y="46.060274" style="fill: #444444; stroke: #444444"/>
     <use xlink:href="#m2998fe0726" x="81.359324" y="44.552836" style="fill: #444444; stroke: #444444"/>
     <use xlink:href="#m2998fe0726" x="82.735214" y="43.799117" style="fill: #444444; stroke: #444444"/>
     <use xlink:href="#m2998fe0726" x="84.111104" y="45.306555" style="fill: #444444; stroke: #444444"/>
     <use xlink:href="#m2998fe0726" x="85.486995" y="43.045398" style="fill: #444444; stroke: #444444"/>
     <use xlink:href="#m2998fe0726" x="89.614666" y="43.045398" style="fill: #444444; stroke: #444444"/>
     <use xlink:href="#m2998fe0726" x="90.990557" y="43.045398" style="fill: #444444; stroke: #444444"/>
     <use xlink:href="#m2998fe0726" x="92.366447" y="43.045398" style="fill: #444444; stroke: #444444"/>
     <use xlink:href="#m2998fe0726" x="93.742337" y="40.030522" style="fill: #444444; stroke: #444444"/>
     <use xlink:href="#m2998fe0726" x="95.118228" y="38.523084" style="fill: #444444; stroke: #444444"/>
     <use xlink:href="#m2998fe0726" x="99.245899" y="37.015646" style="fill: #444444; stroke: #444444"/>
     <use xlink:href="#m2998fe0726" x="100.621789" y="39.276803" style="fill: #444444; stroke: #444444"/>
     <use xlink:href="#m2998fe0726" x="101.99768" y="37.015646" style="fill: #444444; stroke: #444444"/>
     <use xlink:href="#m2998fe0726" x="103.37357" y="37.015646" style="fill: #444444; stroke: #444444"/>
     <use xlink:href="#m2998fe0726" x="104.749461" y="36.261927" style="fill: #444444; stroke: #444444"/>
     <use xlink:href="#m2998fe0726" x="108.877132" y="35.508208" style="fill: #444444; stroke: #444444"/>
     <use xlink:href="#m2998fe0726" x="110.253022" y="34.754489" style="fill: #444444; stroke: #444444"/>
     <use xlink:href="#m2998fe0726" x="111.628913" y="39.276803" style="fill: #444444; stroke: #444444"/>
     <use xlink:href="#m2998fe0726" x="113.004803" y="40.030522" style="fill: #444444; stroke: #444444"/>
     <use xlink:href="#m2998fe0726" x="114.380693" y="38.523084" style="fill: #444444; stroke: #444444"/>
     <use xlink:href="#m2998fe0726" x="118.508365" y="36.261927" style="fill: #444444; stroke: #444444"/>
     <use xlink:href="#m2998fe0726" x="119.884255" y="37.769365" style="fill: #444444; stroke: #444444"/>
     <use xlink:href="#m2998fe0726" x="121.260146" y="38.523084" style="fill: #444444; stroke: #444444"/>
     <use xlink:href="#m2998fe0726" x="122.636036" y="38.523084" style="fill: #444444; stroke: #444444"/>
     <use xlink:href="#m2998fe0726" x="124.011926" y="43.799117" style="fill: #444444; stroke: #444444"/>
     <use xlink:href="#m2998fe0726" x="128.139598" y="43.799117" style="fill: #444444; stroke: #444444"/>
     <use xlink:href="#m2998fe0726" x="129.515488" y="42.291679" style="fill: #444444; stroke: #444444"/>
     <use xlink:href="#m2998fe0726" x="130.891378" y="39.276803" style="fill: #444444; stroke: #444444"/>
     <use xlink:href="#m2998fe0726" x="132.267269" y="40.784241" style="fill: #444444; stroke: #444444"/>
     <use xlink:href="#m2998fe0726" x="133.643159" y="39.276803" style="fill: #444444; stroke: #444444"/>
     <use xlink:href="#m2998fe0726" x="137.77083" y="37.769365" style="fill: #444444; stroke: #444444"/>
     <use xlink:href="#m2998fe0726" x="139.146721" y="41.53796" style="fill: #444444; stroke: #444444"/>
     <use xlink:href="#m2998fe0726" x="140.522611" y="41.53796" style="fill: #444444; stroke: #444444"/>
     <use xlink:href="#m2998fe0726" x="141.898502" y="40.030522" style="fill: #444444; stroke: #444444"/>
     <use xlink:href="#m2998fe0726" x="143.274392" y="38.523084" style="fill: #444444; stroke: #444444"/>
     <use xlink:href="#m2998fe0726" x="147.402063" y="37.015646" style="fill: #444444; stroke: #444444"/>
     <use xlink:href="#m2998fe0726" x="148.777954" y="37.769365" style="fill: #444444; stroke: #444444"/>
     <use xlink:href="#m2998fe0726" x="150.153844" y="39.276803" style="fill: #444444; stroke: #444444"/>
     <use xlink:href="#m2998fe0726" x="151.529735" y="35.508208" style="fill: #444444; stroke: #444444"/>
     <use xlink:href="#m2998fe0726" x="152.905625" y="34.754489" style="fill: #444444; stroke: #444444"/>
     <use xlink:href="#m2998fe0726" x="157.033296" y="35.508208" style="fill: #444444; stroke: #444444"/>
     <use xlink:href="#m2998fe0726" x="158.409187" y="37.769365" style="fill: #444444; stroke: #444444"/>
     <use xlink:href="#m2998fe0726" x="159.785077" y="33.247051" style="fill: #444444; stroke: #444444"/>
     <use xlink:href="#m2998fe0726" x="161.160967" y="33.247051" style="fill: #444444; stroke: #444444"/>
     <use xlink:href="#m2998fe0726" x="162.536858" y="38.523084" style="fill: #444444; stroke: #444444"/>
     <use xlink:href="#m2998fe0726" x="166.664529" y="37.015646" style="fill: #444444; stroke: #444444"/>
     <use xlink:href="#m2998fe0726" x="168.04042" y="37.015646" style="fill: #444444; stroke: #444444"/>
     <use xlink:href="#m2998fe0726" x="169.41631" y="38.523084" style="fill: #444444; stroke: #444444"/>
     <use xlink:href="#m2998fe0726" x="170.7922" y="39.276803" style="fill: #444444; stroke: #444444"/>
     <use xlink:href="#m2998fe0726" x="172.168091" y="40.030522" style="fill: #444444; stroke: #444444"/>
     <use xlink:href="#m2998fe0726" x="176.295762" y="41.53796" style="fill: #444444; stroke: #444444"/>
     <use xlink:href="#m2998fe0726" x="177.671652" y="43.799117" style="fill: #444444; stroke: #444444"/>
     <use xlink:href="#m2998fe0726" x="179.047543" y="43.045398" style="fill: #444444; stroke: #444444"/>
     <use xlink:href="#m2998fe0726" x="180.423433" y="43.045398" style="fill: #444444; stroke: #444444"/>
     <use xlink:href="#m2998fe0726" x="181.799324" y="44.552836" style="fill: #444444; stroke: #444444"/>
     <use xlink:href="#m2998fe0726" x="185.926995" y="44.552836" style="fill: #444444; stroke: #444444"/>
     <use xlink:href="#m2998fe0726" x="187.302885" y="44.552836" style="fill: #444444; stroke: #444444"/>
     <use xlink:href="#m2998fe0726" x="188.678776" y="43.799117" style="fill: #444444; stroke: #444444"/>
     <use xlink:href="#m2998fe0726" x="190.054666" y="43.045398" style="fill: #444444; stroke: #444444"/>
     <use xlink:href="#m2998fe0726" x="191.430557" y="43.045398" style="fill: #444444; stroke: #444444"/>
     <use xlink:href="#m2998fe0726" x="195.558228" y="45.306555" style="fill: #444444; stroke: #444444"/>
     <use xlink:href="#m2998fe0726" x="196.934118" y="45.306555" style="fill: #444444; stroke: #444444"/>
     <use xlink:href="#m2998fe0726" x="198.310009" y="46.060274" style="fill: #444444; stroke: #444444"/>
     <use xlink:href="#m2998fe0726" x="199.685899" y="45.306555" style="fill: #444444; stroke: #444444"/>
     <use xlink:href="#m2998fe0726" x="201.061789" y="55.104902" style="fill: #444444; stroke: #444444"/>
     <use xlink:href="#m2998fe0726" x="205.189461" y="52.843745" style="fill: #444444; stroke: #444444"/>
     <use xlink:href="#m2998fe0726" x="206.565351" y="55.104902" style="fill: #444444; stroke: #444444"/>
     <use xlink:href="#m2998fe0726" x="207.941241" y="55.858621" style="fill: #444444; stroke: #444444"/>
     <use xlink:href="#m2998fe0726" x="209.317132" y="55.104902" style="fill: #444444; stroke: #444444"/>
     <use xlink:href="#m2998fe0726" x="210.693022" y="52.843745" style="fill: #444444; stroke: #444444"/>
     <use xlink:href="#m2998fe0726" x="214.820693" y="51.336307" style="fill: #444444; stroke: #444444"/>
     <use xlink:href="#m2998fe0726" x="216.196584" y="52.843745" style="fill: #444444; stroke: #444444"/>
     <use xlink:href="#m2998fe0726" x="217.572474" y="53.597464" style="fill: #444444; stroke: #444444"/>
     <use xlink:href="#m2998fe0726" x="218.948365" y="55.104902" style="fill: #444444; stroke: #444444"/>
     <use xlink:href="#m2998fe0726" x="220.324255" y="57.366059" style="fill: #444444; stroke: #444444"/>
     <use xlink:href="#m2998fe0726" x="224.451926" y="55.858621" style="fill: #444444; stroke: #444444"/>
     <use xlink:href="#m2998fe0726" x="225.827817" y="52.090026" style="fill: #444444; stroke: #444444"/>
     <use xlink:href="#m2998fe0726" x="227.203707" y="52.843745" style="fill: #444444; stroke: #444444"/>
     <use xlink:href="#m2998fe0726" x="228.579598" y="52.843745" style="fill: #444444; stroke: #444444"/>
     <use xlink:href="#m2998fe0726" x="229.955488" y="53.597464" style="fill: #444444; stroke: #444444"/>
     <use xlink:href="#m2998fe0726" x="234.083159" y="54.351183" style="fill: #444444; stroke: #444444"/>
     <use xlink:href="#m2998fe0726" x="235.45905" y="54.351183" style="fill: #444444; stroke: #444444"/>
     <use xlink:href="#m2998fe0726" x="236.83494" y="52.090026" style="fill: #444444; stroke: #444444"/>
     <use xlink:href="#m2998fe0726" x="238.21083" y="52.090026" style="fill: #444444; stroke: #444444"/>
     <use xlink:href="#m2998fe0726" x="239.586721" y="55.104902" style="fill: #444444; stroke: #444444"/>
     <use xlink:href="#m2998fe0726" x="243.714392" y="52.843745" style="fill: #444444; stroke: #444444"/>
     <use xlink:href="#m2998fe0726" x="245.090283" y="52.843745" style="fill: #444444; stroke: #444444"/>
     <use xlink:href="#m2998fe0726" x="246.466173" y="52.090026" style="fill: #444444; stroke: #444444"/>
     <use xlink:href="#m2998fe0726" x="247.842063" y="49.828869" style="fill: #444444; stroke: #444444"/>
     <use xlink:href="#m2998fe0726" x="249.217954" y="49.07515" style="fill: #444444; stroke: #444444"/>
     <use xlink:href="#m2998fe0726" x="253.345625" y="49.828869" style="fill: #444444; stroke: #444444"/>
     <use xlink:href="#m2998fe0726" x="254.721515" y="51.336307" style="fill: #444444; stroke: #444444"/>
     <use xlink:href="#m2998fe0726" x="256.097406" y="49.828869" style="fill: #444444; stroke: #444444"/>
     <use xlink:href="#m2998fe0726" x="257.473296" y="47.567712" style="fill: #444444; stroke: #444444"/>
     <use xlink:href="#m2998fe0726" x="258.849187" y="43.799117" style="fill: #444444; stroke: #444444"/>
     <use xlink:href="#m2998fe0726" x="262.976858" y="45.306555" style="fill: #444444; stroke: #444444"/>
     <use xlink:href="#m2998fe0726" x="264.352748" y="43.045398" style="fill: #444444; stroke: #444444"/>
     <use xlink:href="#m2998fe0726" x="265.728639" y="46.060274" style="fill: #444444; stroke: #444444"/>
     <use xlink:href="#m2998fe0726" x="267.104529" y="44.552836" style="fill: #444444; stroke: #444444"/>
     <use xlink:href="#m2998fe0726" x="268.48042" y="46.813993" style="fill: #444444; stroke: #444444"/>
     <use xlink:href="#m2998fe0726" x="272.608091" y="45.306555" style="fill: #444444; stroke: #444444"/>
     <use xlink:href="#m2998fe0726" x="273.983981" y="46.813993" style="fill: #444444; stroke: #444444"/>
     <use xlink:href="#m2998fe0726" x="275.359872" y="46.060274" style="fill: #444444; stroke: #444444"/>
     <use xlink:href="#m2998fe0726" x="276.735762" y="46.813993" style="fill: #444444; stroke: #444444"/>
     <use xlink:href="#m2998fe0726" x="278.111652" y="46.060274" style="fill: #444444; stroke: #444444"/>
     <use xlink:href="#m2998fe0726" x="282.239324" y="44.552836" style="fill: #444444; stroke: #444444"/>
     <use xlink:href="#m2998fe0726" x="283.615214" y="46.060274" style="fill: #444444; stroke: #444444"/>
     <use xlink:href="#m2998fe0726" x="284.991104" y="44.552836" style="fill: #444444; stroke: #444444"/>
     <use xlink:href="#m2998fe0726" x="286.366995" y="48.321431" style="fill: #444444; stroke: #444444"/>
     <use xlink:href="#m2998fe0726" x="287.742885" y="47.567712" style="fill: #444444; stroke: #444444"/>
     <use xlink:href="#m2998fe0726" x="291.870557" y="46.813993" style="fill: #444444; stroke: #444444"/>
     <use xlink:href="#m2998fe0726" x="293.246447" y="49.07515" style="fill: #444444; stroke: #444444"/>
     <use xlink:href="#m2998fe0726" x="294.622337" y="46.060274" style="fill: #444444; stroke: #444444"/>
     <use xlink:href="#m2998fe0726" x="295.998228" y="48.321431" style="fill: #444444; stroke: #444444"/>
     <use xlink:href="#m2998fe0726" x="297.374118" y="49.828869" style="fill: #444444; stroke: #444444"/>
     <use xlink:href="#m2998fe0726" x="301.501789" y="49.828869" style="fill: #444444; stroke: #444444"/>
     <use xlink:href="#m2998fe0726" x="302.87768" y="47.567712" style="fill: #444444; stroke: #444444"/>
     <use xlink:href="#m2998fe0726" x="304.25357" y="44.552836" style="fill: #444444; stroke: #444444"/>
     <use xlink:href="#m2998fe0726" x="305.629461" y="44.552836" style="fill: #444444; stroke: #444444"/>
     <use xlink:href="#m2998fe0726" x="307.005351" y="44.552836" style="fill: #444444; stroke: #444444"/>
     <use xlink:href="#m2998fe0726" x="311.133022" y="45.306555" style="fill: #444444; stroke: #444444"/>
     <use xlink:href="#m2998fe0726" x="312.508913" y="44.552836" style="fill: #444444; stroke: #444444"/>
     <use xlink:href="#m2998fe0726" x="313.884803" y="45.306555" style="fill: #444444; stroke: #444444"/>
     <use xlink:href="#m2998fe0726" x="315.260693" y="45.306555" style="fill: #444444; stroke: #444444"/>
     <use xlink:href="#m2998fe0726" x="316.636584" y="46.060274" style="fill: #444444; stroke: #444444"/>
     <use xlink:href="#m2998fe0726" x="320.764255" y="46.813993" style="fill: #444444; stroke: #444444"/>
     <use xlink:href="#m2998fe0726" x="322.140146" y="47.567712" style="fill: #444444; stroke: #444444"/>
     <use xlink:href="#m2998fe0726" x="323.516036" y="46.813993" style="fill: #444444; stroke: #444444"/>
     <use xlink:href="#m2998fe0726" x="324.891926" y="49.828869" style="fill: #444444; stroke: #444444"/>
     <use xlink:href="#m2998fe0726" x="326.267817" y="52.843745" style="fill: #444444; stroke: #444444"/>
     <use xlink:href="#m2998fe0726" x="330.395488" y="52.090026" style="fill: #444444; stroke: #444444"/>
     <use xlink:href="#m2998fe0726" x="331.771378" y="52.090026" style="fill: #444444; stroke: #444444"/>
     <use xlink:href="#m2998fe0726" x="333.147269" y="54.351183" style="fill: #444444; stroke: #444444"/>
     <use xlink:href="#m2998fe0726" x="334.523159" y="52.843745" style="fill: #444444; stroke: #444444"/>
     <use xlink:href="#m2998fe0726" x="335.89905" y="51.336307" style="fill: #444444; stroke: #444444"/>
     <use xlink:href="#m2998fe0726" x="340.026721" y="49.07515" style="fill: #444444; stroke: #444444"/>
     <use xlink:href="#m2998fe0726" x="341.402611" y="48.321431" style="fill: #444444; stroke: #444444"/>
     <use xlink:href="#m2998fe0726" x="342.778502" y="48.321431" style="fill: #444444; stroke: #444444"/>
     <use xlink:href="#m2998fe0726" x="344.154392" y="48.321431" style="fill: #444444; stroke: #444444"/>
     <use xlink:href="#m2998fe0726" x="345.530283" y="46.813993" style="fill: #444444; stroke: #444444"/>
     <use xlink:href="#m2998fe0726" x="349.657954" y="48.321431" style="fill: #444444; stroke: #444444"/>
     <use xlink:href="#m2998fe0726" x="351.033844" y="49.07515" style="fill: #444444; stroke: #444444"/>
     <use xlink:href="#m2998fe0726" x="352.409735" y="44.552836" style="fill: #444444; stroke: #444444"/>
     <use xlink:href="#m2998fe0726" x="353.785625" y="45.306555" style="fill: #444444; stroke: #444444"/>
     <use xlink:href="#m2998fe0726" x="355.161515" y="44.552836" style="fill: #444444; stroke: #444444"/>
     <use xlink:href="#m2998fe0726" x="359.289187" y="46.060274" style="fill: #444444; stroke: #444444"/>
     <use xlink:href="#m2998fe0726" x="360.665077" y="46.060274" style="fill: #444444; stroke: #444444"/>
     <use xlink:href="#m2998fe0726" x="362.040967" y="46.813993" style="fill: #444444; stroke: #444444"/>
     <use xlink:href="#m2998fe0726" x="363.416858" y="47.567712" style="fill: #444444; stroke: #444444"/>
     <use xlink:href="#m2998fe0726" x="364.792748" y="44.552836" style="fill: #444444; stroke: #444444"/>
     <use xlink:href="#m2998fe0726" x="368.92042" y="43.799117" style="fill: #444444; stroke: #444444"/>
     <use xlink:href="#m2998fe0726" x="370.29631" y="46.060274" style="fill: #444444; stroke: #444444"/>
     <use xlink:href="#m2998fe0726" x="371.6722" y="45.306555" style="fill: #444444; stroke: #444444"/>
     <use xlink:href="#m2998fe0726" x="373.048091" y="46.813993" style="fill: #444444; stroke: #444444"/>
     <use xlink:href="#m2998fe0726" x="374.423981" y="46.060274" style="fill: #444444; stroke: #444444"/>
     <use xlink:href="#m2998fe0726" x="378.551652" y="46.060274" style="fill: #444444; stroke: #444444"/>
     <use xlink:href="#m2998fe0726" x="379.927543" y="46.813993" style="fill: #444444; stroke: #444444"/>
     <use xlink:href="#m2998fe0726" x="381.303433" y="47.567712" style="fill: #444444; stroke: #444444"/>
     <use xlink:href="#m2998fe0726" x="382.679324" y="47.567712" style="fill: #444444; stroke: #444444"/>
     <use xlink:href="#m2998fe0726" x="384.055214" y="47.567712" style="fill: #444444; stroke: #444444"/>
     <use xlink:href="#m2998fe0726" x="388.182885" y="47.567712" style="fill: #444444; stroke: #444444"/>
     <use xlink:href="#m2998fe0726" x="389.558776" y="49.07515" style="fill: #444444; stroke: #444444"/>
     <use xlink:href="#m2998fe0726" x="390.934666" y="47.567712" style="fill: #444444; stroke: #444444"/>
     <use xlink:href="#m2998fe0726" x="392.310557" y="44.552836" style="fill: #444444; stroke: #444444"/>
     <use xlink:href="#m2998fe0726" x="393.686447" y="45.306555" style="fill: #444444; stroke: #444444"/>
     <use xlink:href="#m2998fe0726" x="397.814118" y="45.306555" style="fill: #444444; stroke: #444444"/>
     <use xlink:href="#m2998fe0726" x="399.190009" y="45.306555" style="fill: #444444; stroke: #444444"/>
     <use xlink:href="#m2998fe0726" x="400.565899" y="47.567712" style="fill: #444444; stroke: #444444"/>
     <use xlink:href="#m2998fe0726" x="401.941789" y="46.060274" style="fill: #444444; stroke: #444444"/>
     <use xlink:href="#m2998fe0726" x="403.31768" y="44.552836" style="fill: #444444; stroke: #444444"/>
     <use xlink:href="#m2998fe0726" x="407.445351" y="46.813993" style="fill: #444444; stroke: #444444"/>
     <use xlink:href="#m2998fe0726" x="408.821241" y="46.813993" style="fill: #444444; stroke: #444444"/>
     <use xlink:href="#m2998fe0726" x="410.197132" y="45.306555" style="fill: #444444; stroke: #444444"/>
     <use xlink:href="#m2998fe0726" x="411.573022" y="43.045398" style="fill: #444444; stroke: #444444"/>
     <use xlink:href="#m2998fe0726" x="412.948913" y="40.784241" style="fill: #444444; stroke: #444444"/>
     <use xlink:href="#m2998fe0726" x="417.076584" y="43.045398" style="fill: #444444; stroke: #444444"/>
     <use xlink:href="#m2998fe0726" x="418.452474" y="43.799117" style="fill: #444444; stroke: #444444"/>
     <use xlink:href="#m2998fe0726" x="419.828365" y="43.045398" style="fill: #444444; stroke: #444444"/>
     <use xlink:href="#m2998fe0726" x="421.204255" y="40.784241" style="fill: #444444; stroke: #444444"/>
     <use xlink:href="#m2998fe0726" x="422.580146" y="42.291679" style="fill: #444444; stroke: #444444"/>
     <use xlink:href="#m2998fe0726" x="426.707817" y="40.784241" style="fill: #444444; stroke: #444444"/>
     <use xlink:href="#m2998fe0726" x="428.083707" y="36.261927" style="fill: #444444; stroke: #444444"/>
     <use xlink:href="#m2998fe0726" x="429.459598" y="34.754489" style="fill: #444444; stroke: #444444"/>
     <use xlink:href="#m2998fe0726" x="430.835488" y="31.739613" style="fill: #444444; stroke: #444444"/>
     <use xlink:href="#m2998fe0726" x="432.211378" y="31.739613" style="fill: #444444; stroke: #444444"/>
     <use xlink:href="#m2998fe0726" x="436.33905" y="26.46358" style="fill: #444444; stroke: #444444"/>
     <use xlink:href="#m2998fe0726" x="437.71494" y="31.739613" style="fill: #444444; stroke: #444444"/>
     <use xlink:href="#m2998fe0726" x="439.09083" y="33.247051" style="fill: #444444; stroke: #444444"/>
     <use xlink:href="#m2998fe0726" x="440.466721" y="33.247051" style="fill: #444444; stroke: #444444"/>
     <use xlink:href="#m2998fe0726" x="441.842611" y="30.985894" style="fill: #444444; stroke: #444444"/>
     <use xlink:href="#m2998fe0726" x="445.970283" y="30.985894" style="fill: #444444; stroke: #444444"/>
     <use xlink:href="#m2998fe0726" x="447.346173" y="30.232175" style="fill: #444444; stroke: #444444"/>
     <use xlink:href="#m2998fe0726" x="448.722063" y="29.478456" style="fill: #444444; stroke: #444444"/>
     <use xlink:href="#m2998fe0726" x="450.097954" y="30.985894" style="fill: #444444; stroke: #444444"/>
     <use xlink:href="#m2998fe0726" x="451.473844" y="28.724737" style="fill: #444444; stroke: #444444"/>
     <use xlink:href="#m2998fe0726" x="455.601515" y="31.739613" style="fill: #444444; stroke: #444444"/>
     <use xlink:href="#m2998fe0726" x="456.977406" y="30.985894" style="fill: #444444; stroke: #444444"/>
     <use xlink:href="#m2998fe0726" x="458.353296" y="29.478456" style="fill: #444444; stroke: #444444"/>
     <use xlink:href="#m2998fe0726" x="459.729187" y="30.985894" style="fill: #444444; stroke: #444444"/>
     <use xlink:href="#m2998fe0726" x="461.105077" y="27.971018" style="fill: #444444; stroke: #444444"/>
     <use xlink:href="#m2998fe0726" x="465.232748" y="29.478456" style="fill: #444444; stroke: #444444"/>
     <use xlink:href="#m2998fe0726" x="466.608639" y="30.232175" style="fill: #444444; stroke: #444444"/>
     <use xlink:href="#m2998fe0726" x="467.984529" y="28.724737" style="fill: #444444; stroke: #444444"/>
     <use xlink:href="#m2998fe0726" x="469.36042" y="27.971018" style="fill: #444444; stroke: #444444"/>
     <use xlink:href="#m2998fe0726" x="470.73631" y="28.724737" style="fill: #444444; stroke: #444444"/>
     <use xlink:href="#m2998fe0726" x="474.863981" y="27.971018" style="fill: #444444; stroke: #444444"/>
     <use xlink:href="#m2998fe0726" x="476.239872" y="29.478456" style="fill: #444444; stroke: #444444"/>
     <use xlink:href="#m2998fe0726" x="477.615762" y="30.232175" style="fill: #444444; stroke: #444444"/>
     <use xlink:href="#m2998fe0726" x="478.991652" y="33.247051" style="fill: #444444; stroke: #444444"/>
     <use xlink:href="#m2998fe0726" x="480.367543" y="34.754489" style="fill: #444444; stroke: #444444"/>
     <use xlink:href="#m2998fe0726" x="484.495214" y="33.247051" style="fill: #444444; stroke: #444444"/>
     <use xlink:href="#m2998fe0726" x="485.871104" y="29.478456" style="fill: #444444; stroke: #444444"/>
     <use xlink:href="#m2998fe0726" x="487.246995" y="26.46358" style="fill: #444444; stroke: #444444"/>
     <use xlink:href="#m2998fe0726" x="488.622885" y="30.985894" style="fill: #444444; stroke: #444444"/>
     <use xlink:href="#m2998fe0726" x="489.998776" y="30.985894" style="fill: #444444; stroke: #444444"/>
     <use xlink:href="#m2998fe0726" x="494.126447" y="29.478456" style="fill: #444444; stroke: #444444"/>
     <use xlink:href="#m2998fe0726" x="495.502337" y="29.478456" style="fill: #444444; stroke: #444444"/>
     <use xlink:href="#m2998fe0726" x="496.878228" y="34.00077" style="fill: #444444; stroke: #444444"/>
     <use xlink:href="#m2998fe0726" x="498.254118" y="32.493332" style="fill: #444444; stroke: #444444"/>
     <use xlink:href="#m2998fe0726" x="499.630009" y="30.232175" style="fill: #444444; stroke: #444444"/>
     <use xlink:href="#m2998fe0726" x="503.75768" y="29.478456" style="fill: #444444; stroke: #444444"/>
     <use xlink:href="#m2998fe0726" x="505.13357" y="33.247051" style="fill: #444444; stroke: #444444"/>
     <use xlink:href="#m2998fe0726" x="506.509461" y="32.493332" style="fill: #444444; stroke: #444444"/>
     <use xlink:href="#m2998fe0726" x="507.885351" y="30.985894" style="fill: #444444; stroke: #444444"/>
     <use xlink:href="#m2998fe0726" x="509.261241" y="34.754489" style="fill: #444444; stroke: #444444"/>
     <use xlink:href="#m2998fe0726" x="513.388913" y="31.739613" style="fill: #444444; stroke: #444444"/>
     <use xlink:href="#m2998fe0726" x="514.764803" y="28.724737" style="fill: #444444; stroke: #444444"/>
     <use xlink:href="#m2998fe0726" x="516.140693" y="28.724737" style="fill: #444444; stroke: #444444"/>
     <use xlink:href="#m2998fe0726" x="517.516584" y="29.478456" style="fill: #444444; stroke: #444444"/>
     <use xlink:href="#m2998fe0726" x="518.892474" y="27.217299" style="fill: #444444; stroke: #444444"/>
     <use xlink:href="#m2998fe0726" x="523.020146" y="27.217299" style="fill: #444444; stroke: #444444"/>
     <use xlink:href="#m2998fe0726" x="524.396036" y="27.971018" style="fill: #444444; stroke: #444444"/>
     <use xlink:href="#m2998fe0726" x="525.771926" y="27.217299" style="fill: #444444; stroke: #444444"/>
     <use xlink:href="#m2998fe0726" x="527.147817" y="27.217299" style="fill: #444444; stroke: #444444"/>
     <use xlink:href="#m2998fe0726" x="528.523707" y="26.46358" style="fill: #444444; stroke: #444444"/>
     <use xlink:href="#m2998fe0726" x="532.651378" y="30.232175" style="fill: #444444; stroke: #444444"/>
     <use xlink:href="#m2998fe0726" x="534.027269" y="27.971018" style="fill: #444444; stroke: #444444"/>
     <use xlink:href="#m2998fe0726" x="535.403159" y="27.971018" style="fill: #444444; stroke: #444444"/>
     <use xlink:href="#m2998fe0726" x="536.77905" y="27.971018" style="fill: #444444; stroke: #444444"/>
     <use xlink:href="#m2998fe0726" x="538.15494" y="33.247051" style="fill: #444444; stroke: #444444"/>
     <use xlink:href="#m2998fe0726" x="542.282611" y="34.00077" style="fill: #444444; stroke: #444444"/>
     <use xlink:href="#m2998fe0726" x="543.658502" y="34.00077" style="fill: #444444; stroke: #444444"/>
     <use xlink:href="#m2998fe0726" x="545.034392" y="34.754489" style="fill: #444444; stroke: #444444"/>
     <use xlink:href="#m2998fe0726" x="546.410283" y="33.247051" style="fill: #444444; stroke: #444444"/>
     <use xlink:href="#m2998fe0726" x="547.786173" y="34.00077" style="fill: #444444; stroke: #444444"/>
     <use xlink:href="#m2998fe0726" x="551.913844" y="34.00077" style="fill: #444444; stroke: #444444"/>
     <use xlink:href="#m2998fe0726" x="553.289735" y="33.247051" style="fill: #444444; stroke: #444444"/>
     <use xlink:href="#m2998fe0726" x="554.665625" y="32.493332" style="fill: #444444; stroke: #444444"/>
    </g>
   </g>
   <g id="line2d_32">
    <path d="M 52.465625 109.37267 
L 554.665625 109.37267 
" clip-path="url(#p00d19f67da)" style="fill: none; stroke: #000000; stroke-linecap: square"/>
   </g>
   <g id="patch_3">
    <path d="M 52.465625 113.518125 
L 52.465625 22.318125 
" style="fill: none; stroke: #000000; stroke-width: 0.8; stroke-linejoin: miter; stroke-linecap: square"/>
   </g>
   <g id="patch_4">
    <path d="M 554.665625 113.518125 
L 554.665625 22.318125 
" style="fill: none; stroke: #000000; stroke-width: 0.8; stroke-linejoin: miter; stroke-linecap: square"/>
   </g>
   <g id="patch_5">
    <path d="M 52.465625 113.518125 
L 554.665625 113.518125 
" style="fill: none; stroke: #000000; stroke-width: 0.8; stroke-linejoin: miter; stroke-linecap: square"/>
   </g>
   <g id="patch_6">
    <path d="M 52.465625 22.318125 
L 554.665625 22.318125 
" style="fill: none; stroke: #000000; stroke-width: 0.8; stroke-linejoin: miter; stroke-linecap: square"/>
   </g>
   <g id="text_17">
    <!-- UST10 – GoC10 Spread (bp) -->
    <g transform="translate(219.862813 16.318125) scale(0.12 -0.12)">
     <defs>
      <path id="DejaVuSans-38" d="M 556 4666 
L 1191 4666 
L 1191 1831 
Q 1191 1081 1462 751 
Q 1734 422 2344 422 
Q 2950 422 3222 751 
Q 3494 1081 3494 1831 
L 3494 4666 
L 4128 4666 
L 4128 1753 
Q 4128 841 3676 375 
Q 3225 -91 2344 -91 
Q 1459 -91 1007 375 
Q 556 841 556 1753 
L 556 4666 
z
" transform="scale(0.015625)"/>
      <path id="DejaVuSans-36" d="M 3425 4513 
L 3425 3897 
Q 3066 4069 2747 4153 
Q 2428 4238 2131 4238 
Q 1616 4238 1336 4038 
Q 1056 3838 1056 3469 
Q 1056 3159 1242 3001 
Q 1428 2844 1947 2747 
L 2328 2669 
Q 3034 2534 3370 2195 
Q 3706 1856 3706 1288 
Q 3706 609 3251 259 
Q 2797 -91 1919 -91 
Q 1588 -91 1214 -16 
Q 841 59 441 206 
L 441 856 
Q 825 641 1194 531 
Q 1563 422 1919 422 
Q 2459 422 2753 634 
Q 3047 847 3047 1241 
Q 3047 1584 2836 1778 
Q 2625 1972 2144 2069 
L 1759 2144 
Q 1053 2284 737 2584 
Q 422 2884 422 3419 
Q 422 4038 858 4394 
Q 1294 4750 2059 4750 
Q 2388 4750 2728 4690 
Q 3069 4631 3425 4513 
z
" transform="scale(0.015625)"/>
      <path id="DejaVuSans-37" d="M -19 4666 
L 3928 4666 
L 3928 4134 
L 2272 4134 
L 2272 0 
L 1638 0 
L 1638 4134 
L -19 4134 
L -19 4666 
z
" transform="scale(0.015625)"/>
      <path id="DejaVuSans-3" transform="scale(0.015625)"/>
      <path id="DejaVuSans-af5" d="M 313 1978 
L 2888 1978 
L 2888 1528 
L 313 1528 
L 313 1978 
z
" transform="scale(0.015625)"/>
      <path id="DejaVuSans-2a" d="M 3809 666 
L 3809 1919 
L 2778 1919 
L 2778 2438 
L 4434 2438 
L 4434 434 
Q 4069 175 3628 42 
Q 3188 -91 2688 -91 
Q 1594 -91 976 548 
Q 359 1188 359 2328 
Q 359 3472 976 4111 
Q 1594 4750 2688 4750 
Q 3144 4750 3555 4637 
Q 3966 4525 4313 4306 
L 4313 3634 
Q 3963 3931 3569 4081 
Q 3175 4231 2741 4231 
Q 1884 4231 1454 3753 
Q 1025 3275 1025 2328 
Q 1025 1384 1454 906 
Q 1884 428 2741 428 
Q 3075 428 3337 486 
Q 3600 544 3809 666 
z
" transform="scale(0.015625)"/>
      <path id="DejaVuSans-52" d="M 1959 3097 
Q 1497 3097 1228 2736 
Q 959 2375 959 1747 
Q 959 1119 1226 758 
Q 1494 397 1959 397 
Q 2419 397 2687 759 
Q 2956 1122 2956 1747 
Q 2956 2369 2687 2733 
Q 2419 3097 1959 3097 
z
M 1959 3584 
Q 2709 3584 3137 3096 
Q 3566 2609 3566 1747 
Q 3566 888 3137 398 
Q 2709 -91 1959 -91 
Q 1206 -91 779 398 
Q 353 888 353 1747 
Q 353 2609 779 3096 
Q 1206 3584 1959 3584 
z
" transform="scale(0.015625)"/>
      <path id="DejaVuSans-26" d="M 4122 4306 
L 4122 3641 
Q 3803 3938 3442 4084 
Q 3081 4231 2675 4231 
Q 1875 4231 1450 3742 
Q 1025 3253 1025 2328 
Q 1025 1406 1450 917 
Q 1875 428 2675 428 
Q 3081 428 3442 575 
Q 3803 722 4122 1019 
L 4122 359 
Q 3791 134 3420 21 
Q 3050 -91 2638 -91 
Q 1578 -91 968 557 
Q 359 1206 359 2328 
Q 359 3453 968 4101 
Q 1578 4750 2638 4750 
Q 3056 4750 3426 4639 
Q 3797 4528 4122 4306 
z
" transform="scale(0.015625)"/>
      <path id="DejaVuSans-55" d="M 2631 2963 
Q 2534 3019 2420 3045 
Q 2306 3072 2169 3072 
Q 1681 3072 1420 2755 
Q 1159 2438 1159 1844 
L 1159 0 
L 581 0 
L 581 3500 
L 1159 3500 
L 1159 2956 
Q 1341 3275 1631 3429 
Q 1922 3584 2338 3584 
Q 2397 3584 2469 3576 
Q 2541 3569 2628 3553 
L 2631 2963 
z
" transform="scale(0.015625)"/>
      <path id="DejaVuSans-48" d="M 3597 1894 
L 3597 1613 
L 953 1613 
Q 991 1019 1311 708 
Q 1631 397 2203 397 
Q 2534 397 2845 478 
Q 3156 559 3463 722 
L 3463 178 
Q 3153 47 2828 -22 
Q 2503 -91 2169 -91 
Q 1331 -91 842 396 
Q 353 884 353 1716 
Q 353 2575 817 3079 
Q 1281 3584 2069 3584 
Q 2775 3584 3186 3129 
Q 3597 2675 3597 1894 
z
M 3022 2063 
Q 3016 2534 2758 2815 
Q 2500 3097 2075 3097 
Q 1594 3097 1305 2825 
Q 1016 2553 972 2059 
L 3022 2063 
z
" transform="scale(0.015625)"/>
      <path id="DejaVuSans-44" d="M 2194 1759 
Q 1497 1759 1228 1600 
Q 959 1441 959 1056 
Q 959 750 1161 570 
Q 1363 391 1709 391 
Q 2188 391 2477 730 
Q 2766 1069 2766 1631 
L 2766 1759 
L 2194 1759 
z
M 3341 1997 
L 3341 0 
L 2766 0 
L 2766 531 
Q 2569 213 2275 61 
Q 1981 -91 1556 -91 
Q 1019 -91 701 211 
Q 384 513 384 1019 
Q 384 1609 779 1909 
Q 1175 2209 1959 2209 
L 2766 2209 
L 2766 2266 
Q 2766 2663 2505 2880 
Q 2244 3097 1772 3097 
Q 1472 3097 1187 3025 
Q 903 2953 641 2809 
L 641 3341 
Q 956 3463 1253 3523 
Q 1550 3584 1831 3584 
Q 2591 3584 2966 3190 
Q 3341 2797 3341 1997 
z
" transform="scale(0.015625)"/>
      <path id="DejaVuSans-47" d="M 2906 2969 
L 2906 4863 
L 3481 4863 
L 3481 0 
L 2906 0 
L 2906 525 
Q 2725 213 2448 61 
Q 2172 -91 1784 -91 
Q 1150 -91 751 415 
Q 353 922 353 1747 
Q 353 2572 751 3078 
Q 1150 3584 1784 3584 
Q 2172 3584 2448 3432 
Q 2725 3281 2906 2969 
z
M 947 1747 
Q 947 1113 1208 752 
Q 1469 391 1925 391 
Q 2381 391 2643 752 
Q 2906 1113 2906 1747 
Q 2906 2381 2643 2742 
Q 2381 3103 1925 3103 
Q 1469 3103 1208 2742 
Q 947 2381 947 1747 
z
" transform="scale(0.015625)"/>
      <path id="DejaVuSans-b" d="M 1984 4856 
Q 1566 4138 1362 3434 
Q 1159 2731 1159 2009 
Q 1159 1288 1364 580 
Q 1569 -128 1984 -844 
L 1484 -844 
Q 1016 -109 783 600 
Q 550 1309 550 2009 
Q 550 2706 781 3412 
Q 1013 4119 1484 4856 
L 1984 4856 
z
" transform="scale(0.015625)"/>
      <path id="DejaVuSans-c" d="M 513 4856 
L 1013 4856 
Q 1481 4119 1714 3412 
Q 1947 2706 1947 2009 
Q 1947 1309 1714 600 
Q 1481 -109 1013 -844 
L 513 -844 
Q 928 -128 1133 580 
Q 1338 1288 1338 2009 
Q 1338 2731 1133 3434 
Q 928 4138 513 4856 
z
" transform="scale(0.015625)"/>
     </defs>
     <use xlink:href="#DejaVuSans-38"/>
     <use xlink:href="#DejaVuSans-36" transform="translate(73.1875 0)"/>
     <use xlink:href="#DejaVuSans-37" transform="translate(136.671875 0)"/>
     <use xlink:href="#DejaVuSans-14" transform="translate(197.75 0)"/>
     <use xlink:href="#DejaVuSans-13" transform="translate(261.375 0)"/>
     <use xlink:href="#DejaVuSans-3" transform="translate(325 0)"/>
     <use xlink:href="#DejaVuSans-af5" transform="translate(356.78125 0)"/>
     <use xlink:href="#DejaVuSans-3" transform="translate(406.78125 0)"/>
     <use xlink:href="#DejaVuSans-2a" transform="translate(438.5625 0)"/>
     <use xlink:href="#DejaVuSans-52" transform="translate(516.046875 0)"/>
     <use xlink:href="#DejaVuSans-26" transform="translate(577.234375 0)"/>
     <use xlink:href="#DejaVuSans-14" transform="translate(647.0625 0)"/>
     <use xlink:href="#DejaVuSans-13" transform="translate(710.6875 0)"/>
     <use xlink:href="#DejaVuSans-3" transform="translate(774.3125 0)"/>
     <use xlink:href="#DejaVuSans-36" transform="translate(806.09375 0)"/>
     <use xlink:href="#DejaVuSans-53" transform="translate(869.578125 0)"/>
     <use xlink:href="#DejaVuSans-55" transform="translate(933.0625 0)"/>
     <use xlink:href="#DejaVuSans-48" transform="translate(971.96875 0)"/>
     <use xlink:href="#DejaVuSans-44" transform="translate(1033.5 0)"/>
     <use xlink:href="#DejaVuSans-47" transform="translate(1094.78125 0)"/>
     <use xlink:href="#DejaVuSans-3" transform="translate(1158.265625 0)"/>
     <use xlink:href="#DejaVuSans-b" transform="translate(1190.046875 0)"/>
     <use xlink:href="#DejaVuSans-45" transform="translate(1229.0625 0)"/>
     <use xlink:href="#DejaVuSans-53" transform="translate(1292.546875 0)"/>
     <use xlink:href="#DejaVuSans-c" transform="translate(1356.03125 0)"/>
    </g>
   </g>
  </g>
  <g id="axes_2">
   <g id="patch_7">
    <path d="M 52.465625 188.638125 
L 554.665625 188.638125 
L 554.665625 156.718125 
L 52.465625 156.718125 
z
" style="fill: #ffffff"/>
   </g>
   <g id="matplotlib.axis_3">
    <g id="xtick_13">
     <g id="line2d_33">
      <path d="M 70.3522 188.638125 
L 70.3522 156.718125 
" clip-path="url(#p66ae30d82c)" style="fill: none; stroke: #b0b0b0; stroke-opacity: 0.15; stroke-width: 0.8; stroke-linecap: square"/>
     </g>
     <g id="line2d_34">
      <g>
       <use xlink:href="#m5cb848207f" x="70.3522" y="188.638125" style="stroke: #000000; stroke-width: 0.8"/>
      </g>
     </g>
     <g id="text_18">
      <!-- 2025-09 -->
      <g transform="translate(39.108577 230.555389) rotate(-45) scale(0.1 -0.1)">
       <use xlink:href="#DejaVuSans-15"/>
       <use xlink:href="#DejaVuSans-13" transform="translate(63.625 0)"/>
       <use xlink:href="#DejaVuSans-15" transform="translate(127.25 0)"/>
       <use xlink:href="#DejaVuSans-18" transform="translate(190.875 0)"/>
       <use xlink:href="#DejaVuSans-10" transform="translate(254.5 0)"/>
       <use xlink:href="#DejaVuSans-13" transform="translate(290.578125 0)"/>
       <use xlink:href="#DejaVuSans-1c" transform="translate(354.203125 0)"/>
      </g>
     </g>
    </g>
    <g id="xtick_14">
     <g id="line2d_35">
      <path d="M 111.628913 188.638125 
L 111.628913 156.718125 
" clip-path="url(#p66ae30d82c)" style="fill: none; stroke: #b0b0b0; stroke-opacity: 0.15; stroke-width: 0.8; stroke-linecap: square"/>
     </g>
     <g id="line2d_36">
      <g>
       <use xlink:href="#m5cb848207f" x="111.628913" y="188.638125" style="stroke: #000000; stroke-width: 0.8"/>
      </g>
     </g>
     <g id="text_19">
      <!-- 2025-10 -->
      <g transform="translate(80.385289 230.555389) rotate(-45) scale(0.1 -0.1)">
       <use xlink:href="#DejaVuSans-15"/>
       <use xlink:href="#DejaVuSans-13" transform="translate(63.625 0)"/>
       <use xlink:href="#DejaVuSans-15" transform="translate(127.25 0)"/>
       <use xlink:href="#DejaVuSans-18" transform="translate(190.875 0)"/>
       <use xlink:href="#DejaVuSans-10" transform="translate(254.5 0)"/>
       <use xlink:href="#DejaVuSans-14" transform="translate(290.578125 0)"/>
       <use xlink:href="#DejaVuSans-13" transform="translate(354.203125 0)"/>
      </g>
     </g>
    </g>
    <g id="xtick_15">
     <g id="line2d_37">
      <path d="M 154.281515 188.638125 
L 154.281515 156.718125 
" clip-path="url(#p66ae30d82c)" style="fill: none; stroke: #b0b0b0; stroke-opacity: 0.15; stroke-width: 0.8; stroke-linecap: square"/>
     </g>
     <g id="line2d_38">
      <g>
       <use xlink:href="#m5cb848207f" x="154.281515" y="188.638125" style="stroke: #000000; stroke-width: 0.8"/>
      </g>
     </g>
     <g id="text_20">
      <!-- 2025-11 -->
      <g transform="translate(123.037892 230.555389) rotate(-45) scale(0.1 -0.1)">
       <use xlink:href="#DejaVuSans-15"/>
       <use xlink:href="#DejaVuSans-13" transform="translate(63.625 0)"/>
       <use xlink:href="#DejaVuSans-15" transform="translate(127.25 0)"/>
       <use xlink:href="#DejaVuSans-18" transform="translate(190.875 0)"/>
       <use xlink:href="#DejaVuSans-10" transform="translate(254.5 0)"/>
       <use xlink:href="#DejaVuSans-14" transform="translate(290.578125 0)"/>
       <use xlink:href="#DejaVuSans-14" transform="translate(354.203125 0)"/>
      </g>
     </g>
    </g>
    <g id="xtick_16">
     <g id="line2d_39">
      <path d="M 195.558228 188.638125 
L 195.558228 156.718125 
" clip-path="url(#p66ae30d82c)" style="fill: none; stroke: #b0b0b0; stroke-opacity: 0.15; stroke-width: 0.8; stroke-linecap: square"/>
     </g>
     <g id="line2d_40">
      <g>
       <use xlink:href="#m5cb848207f" x="195.558228" y="188.638125" style="stroke: #000000; stroke-width: 0.8"/>
      </g>
     </g>
     <g id="text_21">
      <!-- 2025-12 -->
      <g transform="translate(164.314604 230.555389) rotate(-45) scale(0.1 -0.1)">
       <use xlink:href="#DejaVuSans-15"/>
       <use xlink:href="#DejaVuSans-13" transform="translate(63.625 0)"/>
       <use xlink:href="#DejaVuSans-15" transform="translate(127.25 0)"/>
       <use xlink:href="#DejaVuSans-18" transform="translate(190.875 0)"/>
       <use xlink:href="#DejaVuSans-10" transform="translate(254.5 0)"/>
       <use xlink:href="#DejaVuSans-14" transform="translate(290.578125 0)"/>
       <use xlink:href="#DejaVuSans-15" transform="translate(354.203125 0)"/>
      </g>
     </g>
    </g>
    <g id="xtick_17">
     <g id="line2d_41">
      <path d="M 238.21083 188.638125 
L 238.21083 156.718125 
" clip-path="url(#p66ae30d82c)" style="fill: none; stroke: #b0b0b0; stroke-opacity: 0.15; stroke-width: 0.8; stroke-linecap: square"/>
     </g>
     <g id="line2d_42">
      <g>
       <use xlink:href="#m5cb848207f" x="238.21083" y="188.638125" style="stroke: #000000; stroke-width: 0.8"/>
      </g>
     </g>
     <g id="text_22">
      <!-- 2026-01 -->
      <g transform="translate(206.967207 230.555389) rotate(-45) scale(0.1 -0.1)">
       <use xlink:href="#DejaVuSans-15"/>
       <use xlink:href="#DejaVuSans-13" transform="translate(63.625 0)"/>
       <use xlink:href="#DejaVuSans-15" transform="translate(127.25 0)"/>
       <use xlink:href="#DejaVuSans-19" transform="translate(190.875 0)"/>
       <use xlink:href="#DejaVuSans-10" transform="translate(254.5 0)"/>
       <use xlink:href="#DejaVuSans-13" transform="translate(290.578125 0)"/>
       <use xlink:href="#DejaVuSans-14" transform="translate(354.203125 0)"/>
      </g>
     </g>
    </g>
    <g id="xtick_18">
     <g id="line2d_43">
      <path d="M 280.863433 188.638125 
L 280.863433 156.718125 
" clip-path="url(#p66ae30d82c)" style="fill: none; stroke: #b0b0b0; stroke-opacity: 0.15; stroke-width: 0.8; stroke-linecap: square"/>
     </g>
     <g id="line2d_44">
      <g>
       <use xlink:href="#m5cb848207f" x="280.863433" y="188.638125" style="stroke: #000000; stroke-width: 0.8"/>
      </g>
     </g>
     <g id="text_23">
      <!-- 2026-02 -->
      <g transform="translate(249.61981 230.555389) rotate(-45) scale(0.1 -0.1)">
       <use xlink:href="#DejaVuSans-15"/>
       <use xlink:href="#DejaVuSans-13" transform="translate(63.625 0)"/>
       <use xlink:href="#DejaVuSans-15" transform="translate(127.25 0)"/>
       <use xlink:href="#DejaVuSans-19" transform="translate(190.875 0)"/>
       <use xlink:href="#DejaVuSans-10" transform="translate(254.5 0)"/>
       <use xlink:href="#DejaVuSans-13" transform="translate(290.578125 0)"/>
       <use xlink:href="#DejaVuSans-15" transform="translate(354.203125 0)"/>
      </g>
     </g>
    </g>
    <g id="xtick_19">
     <g id="line2d_45">
      <path d="M 319.388365 188.638125 
L 319.388365 156.718125 
" clip-path="url(#p66ae30d82c)" style="fill: none; stroke: #b0b0b0; stroke-opacity: 0.15; stroke-width: 0.8; stroke-linecap: square"/>
     </g>
     <g id="line2d_46">
      <g>
       <use xlink:href="#m5cb848207f" x="319.388365" y="188.638125" style="stroke: #000000; stroke-width: 0.8"/>
      </g>
     </g>
     <g id="text_24">
      <!-- 2026-03 -->
      <g transform="translate(288.144741 230.555389) rotate(-45) scale(0.1 -0.1)">
       <use xlink:href="#DejaVuSans-15"/>
       <use xlink:href="#DejaVuSans-13" transform="translate(63.625 0)"/>
       <use xlink:href="#DejaVuSans-15" transform="translate(127.25 0)"/>
       <use xlink:href="#DejaVuSans-19" transform="translate(190.875 0)"/>
       <use xlink:href="#DejaVuSans-10" transform="translate(254.5 0)"/>
       <use xlink:href="#DejaVuSans-13" transform="translate(290.578125 0)"/>
       <use xlink:href="#DejaVuSans-16" transform="translate(354.203125 0)"/>
      </g>
     </g>
    </g>
    <g id="xtick_20">
     <g id="line2d_47">
      <path d="M 362.040967 188.638125 
L 362.040967 156.718125 
" clip-path="url(#p66ae30d82c)" style="fill: none; stroke: #b0b0b0; stroke-opacity: 0.15; stroke-width: 0.8; stroke-linecap: square"/>
     </g>
     <g id="line2d_48">
      <g>
       <use xlink:href="#m5cb848207f" x="362.040967" y="188.638125" style="stroke: #000000; stroke-width: 0.8"/>
      </g>
     </g>
     <g id="text_25">
      <!-- 2026-04 -->
      <g transform="translate(330.797344 230.555389) rotate(-45) scale(0.1 -0.1)">
       <use xlink:href="#DejaVuSans-15"/>
       <use xlink:href="#DejaVuSans-13" transform="translate(63.625 0)"/>
       <use xlink:href="#DejaVuSans-15" transform="translate(127.25 0)"/>
       <use xlink:href="#DejaVuSans-19" transform="translate(190.875 0)"/>
       <use xlink:href="#DejaVuSans-10" transform="translate(254.5 0)"/>
       <use xlink:href="#DejaVuSans-13" transform="translate(290.578125 0)"/>
       <use xlink:href="#DejaVuSans-17" transform="translate(354.203125 0)"/>
      </g>
     </g>
    </g>
    <g id="xtick_21">
     <g id="line2d_49">
      <path d="M 403.31768 188.638125 
L 403.31768 156.718125 
" clip-path="url(#p66ae30d82c)" style="fill: none; stroke: #b0b0b0; stroke-opacity: 0.15; stroke-width: 0.8; stroke-linecap: square"/>
     </g>
     <g id="line2d_50">
      <g>
       <use xlink:href="#m5cb848207f" x="403.31768" y="188.638125" style="stroke: #000000; stroke-width: 0.8"/>
      </g>
     </g>
     <g id="text_26">
      <!-- 2026-05 -->
      <g transform="translate(372.074056 230.555389) rotate(-45) scale(0.1 -0.1)">
       <use xlink:href="#DejaVuSans-15"/>
       <use xlink:href="#DejaVuSans-13" transform="translate(63.625 0)"/>
       <use xlink:href="#DejaVuSans-15" transform="translate(127.25 0)"/>
       <use xlink:href="#DejaVuSans-19" transform="translate(190.875 0)"/>
       <use xlink:href="#DejaVuSans-10" transform="translate(254.5 0)"/>
       <use xlink:href="#DejaVuSans-13" transform="translate(290.578125 0)"/>
       <use xlink:href="#DejaVuSans-18" transform="translate(354.203125 0)"/>
      </g>
     </g>
    </g>
    <g id="xtick_22">
     <g id="line2d_51">
      <path d="M 445.970283 188.638125 
L 445.970283 156.718125 
" clip-path="url(#p66ae30d82c)" style="fill: none; stroke: #b0b0b0; stroke-opacity: 0.15; stroke-width: 0.8; stroke-linecap: square"/>
     </g>
     <g id="line2d_52">
      <g>
       <use xlink:href="#m5cb848207f" x="445.970283" y="188.638125" style="stroke: #000000; stroke-width: 0.8"/>
      </g>
     </g>
     <g id="text_27">
      <!-- 2026-06 -->
      <g transform="translate(414.726659 230.555389) rotate(-45) scale(0.1 -0.1)">
       <use xlink:href="#DejaVuSans-15"/>
       <use xlink:href="#DejaVuSans-13" transform="translate(63.625 0)"/>
       <use xlink:href="#DejaVuSans-15" transform="translate(127.25 0)"/>
       <use xlink:href="#DejaVuSans-19" transform="translate(190.875 0)"/>
       <use xlink:href="#DejaVuSans-10" transform="translate(254.5 0)"/>
       <use xlink:href="#DejaVuSans-13" transform="translate(290.578125 0)"/>
       <use xlink:href="#DejaVuSans-19" transform="translate(354.203125 0)"/>
      </g>
     </g>
    </g>
    <g id="xtick_23">
     <g id="line2d_53">
      <path d="M 487.246995 188.638125 
L 487.246995 156.718125 
" clip-path="url(#p66ae30d82c)" style="fill: none; stroke: #b0b0b0; stroke-opacity: 0.15; stroke-width: 0.8; stroke-linecap: square"/>
     </g>
     <g id="line2d_54">
      <g>
       <use xlink:href="#m5cb848207f" x="487.246995" y="188.638125" style="stroke: #000000; stroke-width: 0.8"/>
      </g>
     </g>
     <g id="text_28">
      <!-- 2026-07 -->
      <g transform="translate(456.003371 230.555389) rotate(-45) scale(0.1 -0.1)">
       <use xlink:href="#DejaVuSans-15"/>
       <use xlink:href="#DejaVuSans-13" transform="translate(63.625 0)"/>
       <use xlink:href="#DejaVuSans-15" transform="translate(127.25 0)"/>
       <use xlink:href="#DejaVuSans-19" transform="translate(190.875 0)"/>
       <use xlink:href="#DejaVuSans-10" transform="translate(254.5 0)"/>
       <use xlink:href="#DejaVuSans-13" transform="translate(290.578125 0)"/>
       <use xlink:href="#DejaVuSans-1a" transform="translate(354.203125 0)"/>
      </g>
     </g>
    </g>
    <g id="xtick_24">
     <g id="line2d_55">
      <path d="M 529.899598 188.638125 
L 529.899598 156.718125 
" clip-path="url(#p66ae30d82c)" style="fill: none; stroke: #b0b0b0; stroke-opacity: 0.15; stroke-width: 0.8; stroke-linecap: square"/>
     </g>
     <g id="line2d_56">
      <g>
       <use xlink:href="#m5cb848207f" x="529.899598" y="188.638125" style="stroke: #000000; stroke-width: 0.8"/>
      </g>
     </g>
     <g id="text_29">
      <!-- 2026-08 -->
      <g transform="translate(498.655974 230.555389) rotate(-45) scale(0.1 -0.1)">
       <use xlink:href="#DejaVuSans-15"/>
       <use xlink:href="#DejaVuSans-13" transform="translate(63.625 0)"/>
       <use xlink:href="#DejaVuSans-15" transform="translate(127.25 0)"/>
       <use xlink:href="#DejaVuSans-19" transform="translate(190.875 0)"/>
       <use xlink:href="#DejaVuSans-10" transform="translate(254.5 0)"/>
       <use xlink:href="#DejaVuSans-13" transform="translate(290.578125 0)"/>
       <use xlink:href="#DejaVuSans-1b" transform="translate(354.203125 0)"/>
      </g>
     </g>
    </g>
   </g>
   <g id="matplotlib.axis_4">
    <g id="ytick_4">
     <g id="line2d_57">
      <path d="M 52.465625 187.913679 
L 554.665625 187.913679 
" clip-path="url(#p66ae30d82c)" style="fill: none; stroke: #b0b0b0; stroke-opacity: 0.15; stroke-width: 0.8; stroke-linecap: square"/>
     </g>
     <g id="line2d_58">
      <g>
       <use xlink:href="#m777ae75995" x="52.465625" y="187.913679" style="stroke: #000000; stroke-width: 0.8"/>
      </g>
     </g>
     <g id="text_30">
      <!-- 1.35 -->
      <g transform="translate(23.2 191.712508) scale(0.1 -0.1)">
       <defs>
        <path id="DejaVuSans-11" d="M 684 794 
L 1344 794 
L 1344 0 
L 684 0 
L 684 794 
z
" transform="scale(0.015625)"/>
       </defs>
       <use xlink:href="#DejaVuSans-14"/>
       <use xlink:href="#DejaVuSans-11" transform="translate(63.625 0)"/>
       <use xlink:href="#DejaVuSans-16" transform="translate(95.40625 0)"/>
       <use xlink:href="#DejaVuSans-18" transform="translate(159.03125 0)"/>
      </g>
     </g>
    </g>
    <g id="ytick_5">
     <g id="line2d_59">
      <path d="M 52.465625 167.734137 
L 554.665625 167.734137 
" clip-path="url(#p66ae30d82c)" style="fill: none; stroke: #b0b0b0; stroke-opacity: 0.15; stroke-width: 0.8; stroke-linecap: square"/>
     </g>
     <g id="line2d_60">
      <g>
       <use xlink:href="#m777ae75995" x="52.465625" y="167.734137" style="stroke: #000000; stroke-width: 0.8"/>
      </g>
     </g>
     <g id="text_31">
      <!-- 1.40 -->
      <g transform="translate(23.2 171.532965) scale(0.1 -0.1)">
       <use xlink:href="#DejaVuSans-14"/>
       <use xlink:href="#DejaVuSans-11" transform="translate(63.625 0)"/>
       <use xlink:href="#DejaVuSans-17" transform="translate(95.40625 0)"/>
       <use xlink:href="#DejaVuSans-13" transform="translate(159.03125 0)"/>
      </g>
     </g>
    </g>
    <g id="text_32">
     <!-- USD/CAD -->
     <g transform="translate(16.317188 200.43375) rotate(-90) scale(0.12 -0.12)">
      <defs>
       <path id="DejaVuSans-27" d="M 1259 4147 
L 1259 519 
L 2022 519 
Q 2988 519 3436 956 
Q 3884 1394 3884 2338 
Q 3884 3275 3436 3711 
Q 2988 4147 2022 4147 
L 1259 4147 
z
M 628 4666 
L 1925 4666 
Q 3281 4666 3915 4102 
Q 4550 3538 4550 2338 
Q 4550 1131 3912 565 
Q 3275 0 1925 0 
L 628 0 
L 628 4666 
z
" transform="scale(0.015625)"/>
       <path id="DejaVuSans-12" d="M 1625 4666 
L 2156 4666 
L 531 -594 
L 0 -594 
L 1625 4666 
z
" transform="scale(0.015625)"/>
       <path id="DejaVuSans-24" d="M 2188 4044 
L 1331 1722 
L 3047 1722 
L 2188 4044 
z
M 1831 4666 
L 2547 4666 
L 4325 0 
L 3669 0 
L 3244 1197 
L 1141 1197 
L 716 0 
L 50 0 
L 1831 4666 
z
" transform="scale(0.015625)"/>
      </defs>
      <use xlink:href="#DejaVuSans-38"/>
      <use xlink:href="#DejaVuSans-36" transform="translate(73.1875 0)"/>
      <use xlink:href="#DejaVuSans-27" transform="translate(136.671875 0)"/>
      <use xlink:href="#DejaVuSans-12" transform="translate(213.671875 0)"/>
      <use xlink:href="#DejaVuSans-26" transform="translate(247.359375 0)"/>
      <use xlink:href="#DejaVuSans-24" transform="translate(317.1875 0)"/>
      <use xlink:href="#DejaVuSans-27" transform="translate(385.59375 0)"/>
     </g>
    </g>
   </g>
   <g id="line2d_61">
    <path d="M 52.465625 173.424768 
L 53.841515 172.819382 
L 55.217406 171.770046 
L 56.593296 173.989795 
L 62.096858 174.877695 
L 63.472748 174.796977 
L 64.848639 177.823908 
L 66.224529 178.792526 
M 71.728091 176.451699 
L 73.103981 176.330622 
L 74.479872 174.6759 
L 75.855762 174.877695 
L 79.983433 174.998772 
L 81.359324 174.433745 
L 82.735214 174.070513 
L 84.111104 174.595182 
L 85.486995 173.465127 
L 89.614666 175.927031 
L 90.990557 178.025704 
L 92.366447 177.379958 
L 93.742337 175.96739 
L 95.118228 176.936008 
L 99.245899 175.240927 
L 100.621789 174.433745 
L 101.99768 172.0122 
L 103.37357 170.841787 
L 104.749461 169.913528 
L 108.877132 171.608609 
L 113.004803 168.783473 
L 114.380693 169.913528 
L 118.508365 169.953887 
L 121.260146 169.631014 
L 122.636036 167.370905 
L 124.011926 167.855214 
M 129.515488 166.079415 
L 130.891378 166.402287 
L 132.267269 165.917978 
L 133.643159 165.877619 
L 137.77083 166.563724 
L 139.146721 167.330546 
L 140.522611 168.622037 
L 141.898502 168.097369 
L 143.274392 167.209469 
L 147.402063 167.935933 
L 148.777954 170.276759 
L 150.153844 172.052559 
L 151.529735 168.460601 
L 152.905625 167.330546 
L 157.033296 165.756542 
L 158.409187 164.465051 
L 159.785077 163.375356 
L 161.160967 162.608533 
L 162.536858 164.707206 
L 166.664529 166.563724 
M 169.41631 167.734137 
L 170.7922 167.330546 
L 172.168091 166.805878 
L 176.295762 166.604083 
L 177.671652 167.895573 
L 179.047543 165.756542 
L 180.423433 164.021101 
L 181.799324 163.940383 
L 187.302885 163.092842 
L 188.678776 165.675824 
M 191.430557 168.783473 
L 195.558228 168.460601 
L 196.934118 168.218446 
L 198.310009 169.752091 
L 199.685899 170.196041 
L 201.061789 173.465127 
L 205.189461 173.949436 
L 206.565351 174.514463 
L 207.941241 174.433745 
L 209.317132 177.057086 
L 210.693022 176.492058 
L 214.820693 177.218522 
L 216.196584 177.864267 
L 217.572474 176.169186 
L 218.948365 177.339599 
L 220.324255 176.613136 
L 224.451926 178.066063 
L 225.827817 179.317194 
L 227.203707 181.012276 
M 229.955488 181.375508 
L 234.083159 180.649044 
L 235.45905 180.729762 
L 236.83494 179.357553 
M 239.586721 178.308217 
L 243.714392 177.541395 
L 245.090283 176.249904 
L 247.842063 173.222973 
L 249.217954 172.052559 
L 253.345625 172.738664 
L 254.721515 172.375432 
L 256.097406 172.940459 
L 258.849187 170.962864 
M 264.352748 174.958413 
L 265.728639 175.281286 
L 267.104529 175.846313 
L 268.48042 178.792526 
L 272.608091 180.164735 
L 273.983981 183.958489 
L 275.359872 184.886748 
L 276.735762 187.187216 
L 282.239324 180.770121 
L 283.615214 182.101971 
L 284.991104 181.173712 
L 286.366995 181.052635 
L 287.742885 182.101971 
L 291.870557 185.088544 
L 293.246447 186.58183 
L 294.622337 185.128903 
L 295.998228 182.949512 
L 297.374118 183.151307 
M 302.87768 181.779099 
L 305.629461 179.801503 
L 307.005351 180.326172 
L 311.133022 180.447249 
L 312.508913 179.761144 
L 313.884803 180.447249 
L 315.260693 180.527967 
L 316.636584 182.58628 
L 320.764255 179.640067 
L 322.140146 181.375508 
L 323.516036 181.415867 
L 324.891926 180.124376 
L 326.267817 183.91813 
L 331.771378 185.411416 
L 333.147269 183.756694 
L 334.523159 183.151307 
L 335.89905 178.388935 
L 340.026721 180.527967 
L 341.402611 179.599708 
L 342.778502 179.96294 
L 344.154392 178.994322 
L 345.530283 178.590731 
L 349.657954 179.115399 
L 351.033844 177.258881 
L 352.409735 175.846313 
L 353.785625 173.828359 
L 355.161515 172.577227 
L 359.289187 170.922505 
L 360.665077 169.631014 
L 362.040967 172.779023 
L 363.416858 171.083941 
L 364.792748 170.074964 
L 370.29631 171.56825 
L 371.6722 173.747641 
L 373.048091 175.52344 
L 374.423981 174.6759 
L 378.551652 175.362004 
L 379.927543 177.541395 
L 381.303433 178.227499 
L 382.679324 179.599708 
L 384.055214 181.173712 
L 389.558776 182.182689 
L 390.934666 181.496585 
L 392.310557 180.568326 
L 393.686447 180.85084 
L 397.814118 183.232026 
L 399.190009 181.012276 
L 400.565899 181.012276 
L 401.941789 183.433821 
L 403.31768 184.886748 
L 407.445351 183.554898 
L 408.821241 183.514539 
L 410.197132 183.03023 
L 411.573022 182.424844 
L 412.948913 180.689403 
L 417.076584 181.29479 
L 418.452474 179.357553 
L 419.828365 179.801503 
L 422.580146 177.823908 
L 426.707817 178.146781 
L 428.083707 177.662472 
L 429.459598 177.944986 
L 430.835488 176.290263 
L 432.211378 175.11985 
M 437.71494 175.684877 
L 439.09083 174.635541 
L 440.466721 175.886672 
L 441.842611 176.451699 
L 445.970283 174.312668 
L 447.346173 174.918054 
L 448.722063 172.133277 
L 450.097954 172.213996 
L 451.473844 170.518914 
L 456.977406 169.469578 
L 458.353296 170.68035 
L 459.729187 167.572701 
L 461.105077 168.904551 
L 465.232748 168.379882 
L 466.608639 168.460601 
L 467.984529 166.523365 
L 469.36042 162.003147 
M 474.863981 160.99417 
L 476.239872 159.743038 
L 477.615762 158.169034 
L 478.991652 160.025552 
L 480.367543 160.388784 
L 484.495214 159.258729 
L 485.871104 159.460525 
L 487.246995 159.460525 
L 488.622885 160.388784 
M 494.126447 159.097293 
L 495.502337 159.904475 
L 496.878228 160.065911 
L 498.254118 161.155606 
L 499.630009 162.406738 
L 503.75768 162.164583 
L 505.13357 165.030078 
L 506.509461 165.83726 
L 507.885351 166.402287 
L 509.261241 167.16911 
L 513.388913 165.352951 
L 514.764803 163.819306 
L 516.140693 164.343974 
L 517.516584 164.222897 
L 518.892474 164.586129 
L 523.020146 163.294638 
L 524.396036 164.06146 
L 525.771926 164.263256 
L 527.147817 167.61306 
L 528.523707 166.604083 
L 532.651378 166.160133 
L 534.027269 164.868642 
L 535.403159 167.007674 
L 536.77905 166.563724 
L 538.15494 170.438196 
L 543.658502 170.841787 
L 545.034392 171.003223 
L 546.410283 170.397837 
L 547.786173 172.9001 
L 547.786173 172.9001 
" clip-path="url(#p66ae30d82c)" style="fill: none; stroke: #2ca02c; stroke-width: 1.2; stroke-linecap: square"/>
   </g>
   <g id="patch_8">
    <path d="M 52.465625 188.638125 
L 52.465625 156.718125 
" style="fill: none; stroke: #000000; stroke-width: 0.8; stroke-linejoin: miter; stroke-linecap: square"/>
   </g>
   <g id="patch_9">
    <path d="M 554.665625 188.638125 
L 554.665625 156.718125 
" style="fill: none; stroke: #000000; stroke-width: 0.8; stroke-linejoin: miter; stroke-linecap: square"/>
   </g>
   <g id="patch_10">
    <path d="M 52.465625 188.638125 
L 554.665625 188.638125 
" style="fill: none; stroke: #000000; stroke-width: 0.8; stroke-linejoin: miter; stroke-linecap: square"/>
   </g>
   <g id="patch_11">
    <path d="M 52.465625 156.718125 
L 554.665625 156.718125 
" style="fill: none; stroke: #000000; stroke-width: 0.8; stroke-linejoin: miter; stroke-linecap: square"/>
   </g>
  </g>
 </g>
 <defs>
  <clipPath id="p00d19f67da">
   <rect x="52.465625" y="22.318125" width="502.2" height="91.2"/>
  </clipPath>
  <clipPath id="p66ae30d82c">
   <rect x="52.465625" y="156.718125" width="502.2" height="31.92"/>
  </clipPath>
 </defs>
</svg>
