<?xml version="1.0" encoding="utf-8" standalone="no"?>
<!DOCTYPE svg PUBLIC "-//W3C//DTD SVG 1.1//EN"
  "http://www.w3.org/Graphics/SVG/1.1/DTD/svg11.dtd">
<svg xmlns:xlink="http://www.w3.org/1999/xlink" width="561.479375pt" height="239.226503pt" viewBox="0 0 561.479375 239.226503" xmlns="http://www.w3.org/2000/svg" version="1.1">
 <metadata>
  <rdf:RDF xmlns:dc="http://purl.org/dc/elements/1.1/" xmlns:cc="http://creativecommons.org/ns#" xmlns:rdf="http://www.w3.org/1999/02/22-rdf-syntax-ns#">
   <cc:Work>
    <dc:type rdf:resource="http://purl.org/dc/dcmitype/StillImage"/>
    <dc:date>2026-03-03T14:05:58.429816</dc:date>
    <dc:format>image/svg+xml</dc:format>
    <dc:creator>
     <cc:Agent>
      <dc:title>Matplotlib v3.10.8, https://matplotlib.org/</dc:title>
     </cc:Agent>
    </dc:creator>
   </cc:Work>
  </rdf:RDF>
 </metadata>
 <defs>
  <style type="text/css">*{stroke-linejoin: round; stroke-linecap: butt}</style>
 </defs>
 <g id="figure_1">
  <g id="patch_1">
   <path d="M -0 239.226503 
L 561.479375 239.226503 
L 561.479375 0 
L -0 0 
z
" style="fill: #ffffff"/>
  </g>
  <g id="axes_1">
   <g id="patch_2">
    <path d="M 52.079375 113.518125 
L 554.279375 113.518125 
L 554.279375 22.318125 
L 52.079375 22.318125 
z
" style="fill: #ffffff"/>
   </g>
   <g id="matplotlib.axis_1">
    <g id="xtick_1">
     <g id="line2d_1">
      <path d="M 93.356087 113.518125 
L 93.356087 22.318125 
" clip-path="url(#pd43ffa6eaa)" style="fill: none; stroke: #b0b0b0; stroke-opacity: 0.2; stroke-width: 0.8; stroke-linecap: square"/>
     </g>
     <g id="line2d_2">
      <defs>
       <path id="mf4260c885b" d="M 0 0 
L 0 3.5 
" style="stroke: #000000; stroke-width: 0.8"/>
      </defs>
      <g>
       <use xlink:href="#mf4260c885b" x="93.356087" y="113.518125" style="stroke: #000000; stroke-width: 0.8"/>
      </g>
     </g>
     <g id="text_1">
      <!-- 2025-04 -->
      <g transform="translate(62.340616 155.435942) rotate(-45) scale(0.1 -0.1)">
       <defs>
        <path id="DejaVuSans-32" d="M 1228 531 
L 3431 531 
L 3431 0 
L 469 0 
L 469 531 
Q 828 903 1448 1529 
Q 2069 2156 2228 2338 
Q 2531 2678 2651 2914 
Q 2772 3150 2772 3378 
Q 2772 3750 2511 3984 
Q 2250 4219 1831 4219 
Q 1534 4219 1204 4116 
Q 875 4013 500 3803 
L 500 4441 
Q 881 4594 1212 4672 
Q 1544 4750 1819 4750 
Q 2544 4750 2975 4387 
Q 3406 4025 3406 3419 
Q 3406 3131 3298 2873 
Q 3191 2616 2906 2266 
Q 2828 2175 2409 1742 
Q 1991 1309 1228 531 
z
" transform="scale(0.015625)"/>
        <path id="DejaVuSans-30" d="M 2034 4250 
Q 1547 4250 1301 3770 
Q 1056 3291 1056 2328 
Q 1056 1369 1301 889 
Q 1547 409 2034 409 
Q 2525 409 2770 889 
Q 3016 1369 3016 2328 
Q 3016 3291 2770 3770 
Q 2525 4250 2034 4250 
z
M 2034 4750 
Q 2819 4750 3233 4129 
Q 3647 3509 3647 2328 
Q 3647 1150 3233 529 
Q 2819 -91 2034 -91 
Q 1250 -91 836 529 
Q 422 1150 422 2328 
Q 422 3509 836 4129 
Q 1250 4750 2034 4750 
z
" transform="scale(0.015625)"/>
        <path id="DejaVuSans-35" d="M 691 4666 
L 3169 4666 
L 3169 4134 
L 1269 4134 
L 1269 2991 
Q 1406 3038 1543 3061 
Q 1681 3084 1819 3084 
Q 2600 3084 3056 2656 
Q 3513 2228 3513 1497 
Q 3513 744 3044 326 
Q 2575 -91 1722 -91 
Q 1428 -91 1123 -41 
Q 819 9 494 109 
L 494 744 
Q 775 591 1075 516 
Q 1375 441 1709 441 
Q 2250 441 2565 725 
Q 2881 1009 2881 1497 
Q 2881 1984 2565 2268 
Q 2250 2553 1709 2553 
Q 1456 2553 1204 2497 
Q 953 2441 691 2322 
L 691 4666 
z
" transform="scale(0.015625)"/>
        <path id="DejaVuSans-2d" d="M 313 2009 
L 1997 2009 
L 1997 1497 
L 313 1497 
L 313 2009 
z
" transform="scale(0.015625)"/>
        <path id="DejaVuSans-34" d="M 2419 4116 
L 825 1625 
L 2419 1625 
L 2419 4116 
z
M 2253 4666 
L 3047 4666 
L 3047 1625 
L 3713 1625 
L 3713 1100 
L 3047 1100 
L 3047 0 
L 2419 0 
L 2419 1100 
L 313 1100 
L 313 1709 
L 2253 4666 
z
" transform="scale(0.015625)"/>
       </defs>
       <use xlink:href="#DejaVuSans-32"/>
       <use xlink:href="#DejaVuSans-30" transform="translate(63.623047 0)"/>
       <use xlink:href="#DejaVuSans-32" transform="translate(127.246094 0)"/>
       <use xlink:href="#DejaVuSans-35" transform="translate(190.869141 0)"/>
       <use xlink:href="#DejaVuSans-2d" transform="translate(254.492188 0)"/>
       <use xlink:href="#DejaVuSans-30" transform="translate(290.576172 0)"/>
       <use xlink:href="#DejaVuSans-34" transform="translate(354.199219 0)"/>
      </g>
     </g>
    </g>
    <g id="xtick_2">
     <g id="line2d_3">
      <path d="M 134.6328 113.518125 
L 134.6328 22.318125 
" clip-path="url(#pd43ffa6eaa)" style="fill: none; stroke: #b0b0b0; stroke-opacity: 0.2; stroke-width: 0.8; stroke-linecap: square"/>
     </g>
     <g id="line2d_4">
      <g>
       <use xlink:href="#mf4260c885b" x="134.6328" y="113.518125" style="stroke: #000000; stroke-width: 0.8"/>
      </g>
     </g>
     <g id="text_2">
      <!-- 2025-05 -->
      <g transform="translate(103.617328 155.435942) rotate(-45) scale(0.1 -0.1)">
       <use xlink:href="#DejaVuSans-32"/>
       <use xlink:href="#DejaVuSans-30" transform="translate(63.623047 0)"/>
       <use xlink:href="#DejaVuSans-32" transform="translate(127.246094 0)"/>
       <use xlink:href="#DejaVuSans-35" transform="translate(190.869141 0)"/>
       <use xlink:href="#DejaVuSans-2d" transform="translate(254.492188 0)"/>
       <use xlink:href="#DejaVuSans-30" transform="translate(290.576172 0)"/>
       <use xlink:href="#DejaVuSans-35" transform="translate(354.199219 0)"/>
      </g>
     </g>
    </g>
    <g id="xtick_3">
     <g id="line2d_5">
      <path d="M 177.285402 113.518125 
L 177.285402 22.318125 
" clip-path="url(#pd43ffa6eaa)" style="fill: none; stroke: #b0b0b0; stroke-opacity: 0.2; stroke-width: 0.8; stroke-linecap: square"/>
     </g>
     <g id="line2d_6">
      <g>
       <use xlink:href="#mf4260c885b" x="177.285402" y="113.518125" style="stroke: #000000; stroke-width: 0.8"/>
      </g>
     </g>
     <g id="text_3">
      <!-- 2025-06 -->
      <g transform="translate(146.269931 155.435942) rotate(-45) scale(0.1 -0.1)">
       <defs>
        <path id="DejaVuSans-36" d="M 2113 2584 
Q 1688 2584 1439 2293 
Q 1191 2003 1191 1497 
Q 1191 994 1439 701 
Q 1688 409 2113 409 
Q 2538 409 2786 701 
Q 3034 994 3034 1497 
Q 3034 2003 2786 2293 
Q 2538 2584 2113 2584 
z
M 3366 4563 
L 3366 3988 
Q 3128 4100 2886 4159 
Q 2644 4219 2406 4219 
Q 1781 4219 1451 3797 
Q 1122 3375 1075 2522 
Q 1259 2794 1537 2939 
Q 1816 3084 2150 3084 
Q 2853 3084 3261 2657 
Q 3669 2231 3669 1497 
Q 3669 778 3244 343 
Q 2819 -91 2113 -91 
Q 1303 -91 875 529 
Q 447 1150 447 2328 
Q 447 3434 972 4092 
Q 1497 4750 2381 4750 
Q 2619 4750 2861 4703 
Q 3103 4656 3366 4563 
z
" transform="scale(0.015625)"/>
       </defs>
       <use xlink:href="#DejaVuSans-32"/>
       <use xlink:href="#DejaVuSans-30" transform="translate(63.623047 0)"/>
       <use xlink:href="#DejaVuSans-32" transform="translate(127.246094 0)"/>
       <use xlink:href="#DejaVuSans-35" transform="translate(190.869141 0)"/>
       <use xlink:href="#DejaVuSans-2d" transform="translate(254.492188 0)"/>
       <use xlink:href="#DejaVuSans-30" transform="translate(290.576172 0)"/>
       <use xlink:href="#DejaVuSans-36" transform="translate(354.199219 0)"/>
      </g>
     </g>
    </g>
    <g id="xtick_4">
     <g id="line2d_7">
      <path d="M 218.562115 113.518125 
L 218.562115 22.318125 
" clip-path="url(#pd43ffa6eaa)" style="fill: none; stroke: #b0b0b0; stroke-opacity: 0.2; stroke-width: 0.8; stroke-linecap: square"/>
     </g>
     <g id="line2d_8">
      <g>
       <use xlink:href="#mf4260c885b" x="218.562115" y="113.518125" style="stroke: #000000; stroke-width: 0.8"/>
      </g>
     </g>
     <g id="text_4">
      <!-- 2025-07 -->
      <g transform="translate(187.546644 155.435942) rotate(-45) scale(0.1 -0.1)">
       <defs>
        <path id="DejaVuSans-37" d="M 525 4666 
L 3525 4666 
L 3525 4397 
L 1831 0 
L 1172 0 
L 2766 4134 
L 525 4134 
L 525 4666 
z
" transform="scale(0.015625)"/>
       </defs>
       <use xlink:href="#DejaVuSans-32"/>
       <use xlink:href="#DejaVuSans-30" transform="translate(63.623047 0)"/>
       <use xlink:href="#DejaVuSans-32" transform="translate(127.246094 0)"/>
       <use xlink:href="#DejaVuSans-35" transform="translate(190.869141 0)"/>
       <use xlink:href="#DejaVuSans-2d" transform="translate(254.492188 0)"/>
       <use xlink:href="#DejaVuSans-30" transform="translate(290.576172 0)"/>
       <use xlink:href="#DejaVuSans-37" transform="translate(354.199219 0)"/>
      </g>
     </g>
    </g>
    <g id="xtick_5">
     <g id="line2d_9">
      <path d="M 261.214717 113.518125 
L 261.214717 22.318125 
" clip-path="url(#pd43ffa6eaa)" style="fill: none; stroke: #b0b0b0; stroke-opacity: 0.2; stroke-width: 0.8; stroke-linecap: square"/>
     </g>
     <g id="line2d_10">
      <g>
       <use xlink:href="#mf4260c885b" x="261.214717" y="113.518125" style="stroke: #000000; stroke-width: 0.8"/>
      </g>
     </g>
     <g id="text_5">
      <!-- 2025-08 -->
      <g transform="translate(230.199246 155.435942) rotate(-45) scale(0.1 -0.1)">
       <defs>
        <path id="DejaVuSans-38" d="M 2034 2216 
Q 1584 2216 1326 1975 
Q 1069 1734 1069 1313 
Q 1069 891 1326 650 
Q 1584 409 2034 409 
Q 2484 409 2743 651 
Q 3003 894 3003 1313 
Q 3003 1734 2745 1975 
Q 2488 2216 2034 2216 
z
M 1403 2484 
Q 997 2584 770 2862 
Q 544 3141 544 3541 
Q 544 4100 942 4425 
Q 1341 4750 2034 4750 
Q 2731 4750 3128 4425 
Q 3525 4100 3525 3541 
Q 3525 3141 3298 2862 
Q 3072 2584 2669 2484 
Q 3125 2378 3379 2068 
Q 3634 1759 3634 1313 
Q 3634 634 3220 271 
Q 2806 -91 2034 -91 
Q 1263 -91 848 271 
Q 434 634 434 1313 
Q 434 1759 690 2068 
Q 947 2378 1403 2484 
z
M 1172 3481 
Q 1172 3119 1398 2916 
Q 1625 2713 2034 2713 
Q 2441 2713 2670 2916 
Q 2900 3119 2900 3481 
Q 2900 3844 2670 4047 
Q 2441 4250 2034 4250 
Q 1625 4250 1398 4047 
Q 1172 3844 1172 3481 
z
" transform="scale(0.015625)"/>
       </defs>
       <use xlink:href="#DejaVuSans-32"/>
       <use xlink:href="#DejaVuSans-30" transform="translate(63.623047 0)"/>
       <use xlink:href="#DejaVuSans-32" transform="translate(127.246094 0)"/>
       <use xlink:href="#DejaVuSans-35" transform="translate(190.869141 0)"/>
       <use xlink:href="#DejaVuSans-2d" transform="translate(254.492188 0)"/>
       <use xlink:href="#DejaVuSans-30" transform="translate(290.576172 0)"/>
       <use xlink:href="#DejaVuSans-38" transform="translate(354.199219 0)"/>
      </g>
     </g>
    </g>
    <g id="xtick_6">
     <g id="line2d_11">
      <path d="M 303.86732 113.518125 
L 303.86732 22.318125 
" clip-path="url(#pd43ffa6eaa)" style="fill: none; stroke: #b0b0b0; stroke-opacity: 0.2; stroke-width: 0.8; stroke-linecap: square"/>
     </g>
     <g id="line2d_12">
      <g>
       <use xlink:href="#mf4260c885b" x="303.86732" y="113.518125" style="stroke: #000000; stroke-width: 0.8"/>
      </g>
     </g>
     <g id="text_6">
      <!-- 2025-09 -->
      <g transform="translate(272.851849 155.435942) rotate(-45) scale(0.1 -0.1)">
       <defs>
        <path id="DejaVuSans-39" d="M 703 97 
L 703 672 
Q 941 559 1184 500 
Q 1428 441 1663 441 
Q 2288 441 2617 861 
Q 2947 1281 2994 2138 
Q 2813 1869 2534 1725 
Q 2256 1581 1919 1581 
Q 1219 1581 811 2004 
Q 403 2428 403 3163 
Q 403 3881 828 4315 
Q 1253 4750 1959 4750 
Q 2769 4750 3195 4129 
Q 3622 3509 3622 2328 
Q 3622 1225 3098 567 
Q 2575 -91 1691 -91 
Q 1453 -91 1209 -44 
Q 966 3 703 97 
z
M 1959 2075 
Q 2384 2075 2632 2365 
Q 2881 2656 2881 3163 
Q 2881 3666 2632 3958 
Q 2384 4250 1959 4250 
Q 1534 4250 1286 3958 
Q 1038 3666 1038 3163 
Q 1038 2656 1286 2365 
Q 1534 2075 1959 2075 
z
" transform="scale(0.015625)"/>
       </defs>
       <use xlink:href="#DejaVuSans-32"/>
       <use xlink:href="#DejaVuSans-30" transform="translate(63.623047 0)"/>
       <use xlink:href="#DejaVuSans-32" transform="translate(127.246094 0)"/>
       <use xlink:href="#DejaVuSans-35" transform="translate(190.869141 0)"/>
       <use xlink:href="#DejaVuSans-2d" transform="translate(254.492188 0)"/>
       <use xlink:href="#DejaVuSans-30" transform="translate(290.576172 0)"/>
       <use xlink:href="#DejaVuSans-39" transform="translate(354.199219 0)"/>
      </g>
     </g>
    </g>
    <g id="xtick_7">
     <g id="line2d_13">
      <path d="M 345.144033 113.518125 
L 345.144033 22.318125 
" clip-path="url(#pd43ffa6eaa)" style="fill: none; stroke: #b0b0b0; stroke-opacity: 0.2; stroke-width: 0.8; stroke-linecap: square"/>
     </g>
     <g id="line2d_14">
      <g>
       <use xlink:href="#mf4260c885b" x="345.144033" y="113.518125" style="stroke: #000000; stroke-width: 0.8"/>
      </g>
     </g>
     <g id="text_7">
      <!-- 2025-10 -->
      <g transform="translate(314.128561 155.435942) rotate(-45) scale(0.1 -0.1)">
       <defs>
        <path id="DejaVuSans-31" d="M 794 531 
L 1825 531 
L 1825 4091 
L 703 3866 
L 703 4441 
L 1819 4666 
L 2450 4666 
L 2450 531 
L 3481 531 
L 3481 0 
L 794 0 
L 794 531 
z
" transform="scale(0.015625)"/>
       </defs>
       <use xlink:href="#DejaVuSans-32"/>
       <use xlink:href="#DejaVuSans-30" transform="translate(63.623047 0)"/>
       <use xlink:href="#DejaVuSans-32" transform="translate(127.246094 0)"/>
       <use xlink:href="#DejaVuSans-35" transform="translate(190.869141 0)"/>
       <use xlink:href="#DejaVuSans-2d" transform="translate(254.492188 0)"/>
       <use xlink:href="#DejaVuSans-31" transform="translate(290.576172 0)"/>
       <use xlink:href="#DejaVuSans-30" transform="translate(354.199219 0)"/>
      </g>
     </g>
    </g>
    <g id="xtick_8">
     <g id="line2d_15">
      <path d="M 387.796635 113.518125 
L 387.796635 22.318125 
" clip-path="url(#pd43ffa6eaa)" style="fill: none; stroke: #b0b0b0; stroke-opacity: 0.2; stroke-width: 0.8; stroke-linecap: square"/>
     </g>
     <g id="line2d_16">
      <g>
       <use xlink:href="#mf4260c885b" x="387.796635" y="113.518125" style="stroke: #000000; stroke-width: 0.8"/>
      </g>
     </g>
     <g id="text_8">
      <!-- 2025-11 -->
      <g transform="translate(356.781164 155.435942) rotate(-45) scale(0.1 -0.1)">
       <use xlink:href="#DejaVuSans-32"/>
       <use xlink:href="#DejaVuSans-30" transform="translate(63.623047 0)"/>
       <use xlink:href="#DejaVuSans-32" transform="translate(127.246094 0)"/>
       <use xlink:href="#DejaVuSans-35" transform="translate(190.869141 0)"/>
       <use xlink:href="#DejaVuSans-2d" transform="translate(254.492188 0)"/>
       <use xlink:href="#DejaVuSans-31" transform="translate(290.576172 0)"/>
       <use xlink:href="#DejaVuSans-31" transform="translate(354.199219 0)"/>
      </g>
     </g>
    </g>
    <g id="xtick_9">
     <g id="line2d_17">
      <path d="M 429.073348 113.518125 
L 429.073348 22.318125 
" clip-path="url(#pd43ffa6eaa)" style="fill: none; stroke: #b0b0b0; stroke-opacity: 0.2; stroke-width: 0.8; stroke-linecap: square"/>
     </g>
     <g id="line2d_18">
      <g>
       <use xlink:href="#mf4260c885b" x="429.073348" y="113.518125" style="stroke: #000000; stroke-width: 0.8"/>
      </g>
     </g>
     <g id="text_9">
      <!-- 2025-12 -->
      <g transform="translate(398.057876 155.435942) rotate(-45) scale(0.1 -0.1)">
       <use xlink:href="#DejaVuSans-32"/>
       <use xlink:href="#DejaVuSans-30" transform="translate(63.623047 0)"/>
       <use xlink:href="#DejaVuSans-32" transform="translate(127.246094 0)"/>
       <use xlink:href="#DejaVuSans-35" transform="translate(190.869141 0)"/>
       <use xlink:href="#DejaVuSans-2d" transform="translate(254.492188 0)"/>
       <use xlink:href="#DejaVuSans-31" transform="translate(290.576172 0)"/>
       <use xlink:href="#DejaVuSans-32" transform="translate(354.199219 0)"/>
      </g>
     </g>
    </g>
    <g id="xtick_10">
     <g id="line2d_19">
      <path d="M 471.72595 113.518125 
L 471.72595 22.318125 
" clip-path="url(#pd43ffa6eaa)" style="fill: none; stroke: #b0b0b0; stroke-opacity: 0.2; stroke-width: 0.8; stroke-linecap: square"/>
     </g>
     <g id="line2d_20">
      <g>
       <use xlink:href="#mf4260c885b" x="471.72595" y="113.518125" style="stroke: #000000; stroke-width: 0.8"/>
      </g>
     </g>
     <g id="text_10">
      <!-- 2026-01 -->
      <g transform="translate(440.710479 155.435942) rotate(-45) scale(0.1 -0.1)">
       <use xlink:href="#DejaVuSans-32"/>
       <use xlink:href="#DejaVuSans-30" transform="translate(63.623047 0)"/>
       <use xlink:href="#DejaVuSans-32" transform="translate(127.246094 0)"/>
       <use xlink:href="#DejaVuSans-36" transform="translate(190.869141 0)"/>
       <use xlink:href="#DejaVuSans-2d" transform="translate(254.492188 0)"/>
       <use xlink:href="#DejaVuSans-30" transform="translate(290.576172 0)"/>
       <use xlink:href="#DejaVuSans-31" transform="translate(354.199219 0)"/>
      </g>
     </g>
    </g>
    <g id="xtick_11">
     <g id="line2d_21">
      <path d="M 514.378553 113.518125 
L 514.378553 22.318125 
" clip-path="url(#pd43ffa6eaa)" style="fill: none; stroke: #b0b0b0; stroke-opacity: 0.2; stroke-width: 0.8; stroke-linecap: square"/>
     </g>
     <g id="line2d_22">
      <g>
       <use xlink:href="#mf4260c885b" x="514.378553" y="113.518125" style="stroke: #000000; stroke-width: 0.8"/>
      </g>
     </g>
     <g id="text_11">
      <!-- 2026-02 -->
      <g transform="translate(483.363082 155.435942) rotate(-45) scale(0.1 -0.1)">
       <use xlink:href="#DejaVuSans-32"/>
       <use xlink:href="#DejaVuSans-30" transform="translate(63.623047 0)"/>
       <use xlink:href="#DejaVuSans-32" transform="translate(127.246094 0)"/>
       <use xlink:href="#DejaVuSans-36" transform="translate(190.869141 0)"/>
       <use xlink:href="#DejaVuSans-2d" transform="translate(254.492188 0)"/>
       <use xlink:href="#DejaVuSans-30" transform="translate(290.576172 0)"/>
       <use xlink:href="#DejaVuSans-32" transform="translate(354.199219 0)"/>
      </g>
     </g>
    </g>
    <g id="xtick_12">
     <g id="line2d_23">
      <path d="M 552.903485 113.518125 
L 552.903485 22.318125 
" clip-path="url(#pd43ffa6eaa)" style="fill: none; stroke: #b0b0b0; stroke-opacity: 0.2; stroke-width: 0.8; stroke-linecap: square"/>
     </g>
     <g id="line2d_24">
      <g>
       <use xlink:href="#mf4260c885b" x="552.903485" y="113.518125" style="stroke: #000000; stroke-width: 0.8"/>
      </g>
     </g>
     <g id="text_12">
      <!-- 2026-03 -->
      <g transform="translate(521.888013 155.435942) rotate(-45) scale(0.1 -0.1)">
       <defs>
        <path id="DejaVuSans-33" d="M 2597 2516 
Q 3050 2419 3304 2112 
Q 3559 1806 3559 1356 
Q 3559 666 3084 287 
Q 2609 -91 1734 -91 
Q 1441 -91 1130 -33 
Q 819 25 488 141 
L 488 750 
Q 750 597 1062 519 
Q 1375 441 1716 441 
Q 2309 441 2620 675 
Q 2931 909 2931 1356 
Q 2931 1769 2642 2001 
Q 2353 2234 1838 2234 
L 1294 2234 
L 1294 2753 
L 1863 2753 
Q 2328 2753 2575 2939 
Q 2822 3125 2822 3475 
Q 2822 3834 2567 4026 
Q 2313 4219 1838 4219 
Q 1578 4219 1281 4162 
Q 984 4106 628 3988 
L 628 4550 
Q 988 4650 1302 4700 
Q 1616 4750 1894 4750 
Q 2613 4750 3031 4423 
Q 3450 4097 3450 3541 
Q 3450 3153 3228 2886 
Q 3006 2619 2597 2516 
z
" transform="scale(0.015625)"/>
       </defs>
       <use xlink:href="#DejaVuSans-32"/>
       <use xlink:href="#DejaVuSans-30" transform="translate(63.623047 0)"/>
       <use xlink:href="#DejaVuSans-32" transform="translate(127.246094 0)"/>
       <use xlink:href="#DejaVuSans-36" transform="translate(190.869141 0)"/>
       <use xlink:href="#DejaVuSans-2d" transform="translate(254.492188 0)"/>
       <use xlink:href="#DejaVuSans-30" transform="translate(290.576172 0)"/>
       <use xlink:href="#DejaVuSans-33" transform="translate(354.199219 0)"/>
      </g>
     </g>
    </g>
   </g>
   <g id="matplotlib.axis_2">
    <g id="ytick_1">
     <g id="line2d_25">
      <path d="M 52.079375 109.37267 
L 554.279375 109.37267 
" clip-path="url(#pd43ffa6eaa)" style="fill: none; stroke: #b0b0b0; stroke-opacity: 0.2; stroke-width: 0.8; stroke-linecap: square"/>
     </g>
     <g id="line2d_26">
      <defs>
       <path id="m02d0bd29a7" d="M 0 0 
L -3.5 0 
" style="stroke: #000000; stroke-width: 0.8"/>
      </defs>
      <g>
       <use xlink:href="#m02d0bd29a7" x="52.079375" y="109.37267" style="stroke: #000000; stroke-width: 0.8"/>
      </g>
     </g>
     <g id="text_13">
      <!-- 0 -->
      <g transform="translate(38.716875 113.171889) scale(0.1 -0.1)">
       <use xlink:href="#DejaVuSans-30"/>
      </g>
     </g>
    </g>
    <g id="ytick_2">
     <g id="line2d_27">
      <path d="M 52.079375 79.113878 
L 554.279375 79.113878 
" clip-path="url(#pd43ffa6eaa)" style="fill: none; stroke: #b0b0b0; stroke-opacity: 0.2; stroke-width: 0.8; stroke-linecap: square"/>
     </g>
     <g id="line2d_28">
      <g>
       <use xlink:href="#m02d0bd29a7" x="52.079375" y="79.113878" style="stroke: #000000; stroke-width: 0.8"/>
      </g>
     </g>
     <g id="text_14">
      <!-- 50 -->
      <g transform="translate(32.354375 82.913097) scale(0.1 -0.1)">
       <use xlink:href="#DejaVuSans-35"/>
       <use xlink:href="#DejaVuSans-30" transform="translate(63.623047 0)"/>
      </g>
     </g>
    </g>
    <g id="ytick_3">
     <g id="line2d_29">
      <path d="M 52.079375 48.855086 
L 554.279375 48.855086 
" clip-path="url(#pd43ffa6eaa)" style="fill: none; stroke: #b0b0b0; stroke-opacity: 0.2; stroke-width: 0.8; stroke-linecap: square"/>
     </g>
     <g id="line2d_30">
      <g>
       <use xlink:href="#m02d0bd29a7" x="52.079375" y="48.855086" style="stroke: #000000; stroke-width: 0.8"/>
      </g>
     </g>
     <g id="text_15">
      <!-- 100 -->
      <g transform="translate(25.991875 52.654305) scale(0.1 -0.1)">
       <use xlink:href="#DejaVuSans-31"/>
       <use xlink:href="#DejaVuSans-30" transform="translate(63.623047 0)"/>
       <use xlink:href="#DejaVuSans-30" transform="translate(127.246094 0)"/>
      </g>
     </g>
    </g>
    <g id="text_16">
     <!-- bp -->
     <g transform="translate(19.912187 74.266562) rotate(-90) scale(0.1 -0.1)">
      <defs>
       <path id="DejaVuSans-62" d="M 3116 1747 
Q 3116 2381 2855 2742 
Q 2594 3103 2138 3103 
Q 1681 3103 1420 2742 
Q 1159 2381 1159 1747 
Q 1159 1113 1420 752 
Q 1681 391 2138 391 
Q 2594 391 2855 752 
Q 3116 1113 3116 1747 
z
M 1159 2969 
Q 1341 3281 1617 3432 
Q 1894 3584 2278 3584 
Q 2916 3584 3314 3078 
Q 3713 2572 3713 1747 
Q 3713 922 3314 415 
Q 2916 -91 2278 -91 
Q 1894 -91 1617 61 
Q 1341 213 1159 525 
L 1159 0 
L 581 0 
L 581 4863 
L 1159 4863 
L 1159 2969 
z
" transform="scale(0.015625)"/>
       <path id="DejaVuSans-70" d="M 1159 525 
L 1159 -1331 
L 581 -1331 
L 581 3500 
L 1159 3500 
L 1159 2969 
Q 1341 3281 1617 3432 
Q 1894 3584 2278 3584 
Q 2916 3584 3314 3078 
Q 3713 2572 3713 1747 
Q 3713 922 3314 415 
Q 2916 -91 2278 -91 
Q 1894 -91 1617 61 
Q 1341 213 1159 525 
z
M 3116 1747 
Q 3116 2381 2855 2742 
Q 2594 3103 2138 3103 
Q 1681 3103 1420 2742 
Q 1159 2381 1159 1747 
Q 1159 1113 1420 752 
Q 1681 391 2138 391 
Q 2594 391 2855 752 
Q 3116 1113 3116 1747 
z
" transform="scale(0.015625)"/>
      </defs>
      <use xlink:href="#DejaVuSans-62"/>
      <use xlink:href="#DejaVuSans-70" transform="translate(63.476562 0)"/>
     </g>
    </g>
   </g>
   <g id="line2d_31">
    <path d="M 53.455265 27.673931 
L 54.831156 26.46358 
L 56.207046 28.884283 
L 57.582937 35.541217 
L 58.958827 31.304986 
L 63.086498 34.330866 
L 64.462389 32.515338 
L 67.21417 34.936041 
L 68.59006 33.72569 
L 72.717731 31.304986 
L 74.093622 32.515338 
L 75.469512 33.120514 
L 76.845402 34.330866 
L 82.348964 31.910162 
L 83.724854 33.72569 
L 85.100745 34.936041 
L 86.476635 31.304986 
L 87.852526 33.72569 
L 91.980197 33.120514 
L 93.356087 33.72569 
L 94.731978 33.120514 
L 96.107868 41.592976 
L 97.483759 41.592976 
L 101.61143 42.198152 
L 102.98732 39.172272 
L 104.363211 39.172272 
L 105.739101 37.961921 
L 107.114991 35.541217 
L 111.242663 33.120514 
L 112.618553 34.330866 
L 113.994443 36.146393 
L 116.746224 36.146393 
L 120.873896 37.356745 
L 122.249786 35.541217 
L 123.625676 38.567096 
L 125.001567 40.382624 
L 126.377457 41.592976 
L 130.505128 44.618855 
L 131.881019 44.618855 
L 133.256909 42.803327 
L 134.6328 39.777448 
L 136.00869 39.777448 
L 140.136361 37.356745 
L 141.512252 39.777448 
L 144.264033 38.567096 
L 145.639923 35.541217 
L 149.767594 33.72569 
L 151.143485 32.515338 
L 153.895265 31.304986 
L 155.271156 33.120514 
L 159.398827 31.304986 
L 160.774717 37.356745 
L 162.150608 37.356745 
L 164.902389 38.567096 
L 169.03006 37.356745 
L 170.40595 37.961921 
L 171.781841 34.936041 
L 174.533622 36.146393 
L 178.661293 34.936041 
L 180.037183 37.356745 
L 181.413074 40.382624 
L 182.788964 39.777448 
L 184.164854 38.567096 
L 188.292526 40.9878 
L 189.668416 40.9878 
L 191.044307 44.618855 
L 192.420197 47.039558 
L 193.796087 46.434382 
L 197.923759 45.224031 
L 199.299649 47.644734 
L 200.675539 45.829207 
L 202.05143 45.829207 
L 203.42732 44.013679 
L 207.554991 44.618855 
L 208.930882 46.434382 
L 210.306772 50.670613 
L 211.682663 53.091317 
L 213.058553 50.065438 
L 217.186224 51.275789 
L 218.562115 50.065438 
L 219.938005 52.486141 
L 222.689786 48.855086 
L 226.817457 48.855086 
L 228.193348 49.460262 
L 232.321019 53.091317 
L 236.44869 53.696493 
L 237.82458 54.906844 
L 239.200471 55.51202 
L 240.576361 54.906844 
L 241.952252 56.722372 
L 246.079923 56.722372 
L 247.455813 57.932724 
L 248.831704 58.537899 
L 250.207594 56.117196 
L 251.583485 56.117196 
L 255.711156 54.906844 
L 257.087046 56.722372 
L 258.462937 54.906844 
L 259.838827 53.696493 
L 261.214717 57.932724 
L 265.342389 58.537899 
L 266.718279 58.537899 
L 268.09417 59.143075 
L 269.47006 58.537899 
L 270.84595 55.51202 
L 274.973622 56.117196 
L 276.349512 57.327548 
L 277.725402 57.932724 
L 279.101293 56.117196 
L 280.477183 56.722372 
L 284.604854 57.932724 
L 285.980745 57.327548 
L 287.356635 57.932724 
L 288.732526 57.932724 
L 290.108416 59.143075 
L 294.236087 60.353427 
L 295.611978 60.353427 
L 296.987868 61.563779 
L 298.363759 60.958603 
L 299.739649 57.932724 
L 303.86732 57.932724 
L 307.994991 59.748251 
L 309.370882 59.143075 
L 313.498553 58.537899 
L 314.874443 57.327548 
L 316.250334 56.722372 
L 317.626224 57.932724 
L 319.002115 56.117196 
L 325.881567 56.117196 
L 327.257457 53.696493 
L 328.633348 52.486141 
L 332.761019 51.275789 
L 334.136909 53.091317 
L 335.5128 51.275789 
L 336.88869 51.275789 
L 338.26458 50.670613 
L 342.392252 50.065438 
L 343.768142 49.460262 
L 345.144033 53.091317 
L 346.519923 53.696493 
L 347.895813 52.486141 
L 352.023485 50.670613 
L 353.399375 51.880965 
L 354.775265 52.486141 
L 356.151156 52.486141 
L 357.527046 56.722372 
L 361.654717 56.722372 
L 363.030608 55.51202 
L 364.406498 53.091317 
L 365.782389 54.301668 
L 367.158279 53.091317 
L 371.28595 51.880965 
L 372.661841 54.906844 
L 374.037731 54.906844 
L 376.789512 52.486141 
L 380.917183 51.275789 
L 382.293074 51.880965 
L 383.668964 53.091317 
L 385.044854 50.065438 
L 386.420745 49.460262 
L 390.548416 50.065438 
L 391.924307 51.880965 
L 393.300197 48.24991 
L 394.676087 48.24991 
L 396.051978 52.486141 
L 400.179649 51.275789 
L 401.555539 51.275789 
L 402.93143 52.486141 
L 405.683211 53.696493 
L 409.810882 54.906844 
L 411.186772 56.722372 
L 412.562663 56.117196 
L 413.938553 56.117196 
L 415.314443 57.327548 
L 420.818005 57.327548 
L 423.569786 56.117196 
L 424.945676 56.117196 
L 429.073348 57.932724 
L 430.449238 57.932724 
L 431.825128 58.537899 
L 433.201019 57.932724 
L 434.576909 65.80001 
L 438.70458 63.984482 
L 440.080471 65.80001 
L 441.456361 66.405185 
L 442.832252 65.80001 
L 444.208142 63.984482 
L 448.335813 62.77413 
L 449.711704 63.984482 
L 451.087594 64.589658 
L 452.463485 65.80001 
L 453.839375 67.615537 
L 457.967046 66.405185 
L 459.342937 63.379306 
L 460.718827 63.984482 
L 462.094717 63.984482 
L 463.470608 64.589658 
L 467.598279 65.194834 
L 468.97417 65.194834 
L 470.35006 63.379306 
L 471.72595 63.379306 
L 473.101841 65.80001 
L 477.229512 63.984482 
L 478.605402 63.984482 
L 479.981293 63.379306 
L 481.357183 61.563779 
L 482.733074 60.958603 
L 486.860745 61.563779 
L 488.236635 62.77413 
L 489.612526 61.563779 
L 490.988416 59.748251 
L 492.364307 56.722372 
L 496.491978 57.932724 
L 497.867868 56.117196 
L 499.243759 58.537899 
L 500.619649 57.327548 
L 501.995539 59.143075 
L 506.123211 57.932724 
L 507.499101 59.143075 
L 508.874991 58.537899 
L 510.250882 59.143075 
L 511.626772 58.537899 
L 515.754443 57.327548 
L 517.130334 58.537899 
L 518.506224 57.327548 
L 519.882115 60.353427 
L 521.258005 59.748251 
L 525.385676 59.143075 
L 526.761567 60.958603 
L 528.137457 58.537899 
L 529.513348 60.353427 
L 530.889238 61.563779 
L 535.016909 61.563779 
L 536.3928 59.748251 
L 537.76869 57.327548 
L 540.520471 57.327548 
L 544.648142 57.932724 
L 546.024033 57.327548 
L 547.399923 57.932724 
L 548.775813 57.932724 
L 550.151704 58.537899 
L 554.279375 63.984482 
L 554.279375 63.984482 
" clip-path="url(#pd43ffa6eaa)" style="fill: none; stroke: #444444; stroke-width: 1.5; stroke-linecap: square"/>
    <defs>
     <path id="m3624de86f8" d="M 0 1 
C 0.265203 1 0.51958 0.894634 0.707107 0.707107 
C 0.894634 0.51958 1 0.265203 1 0 
C 1 -0.265203 0.894634 -0.51958 0.707107 -0.707107 
C 0.51958 -0.894634 0.265203 -1 0 -1 
C -0.265203 -1 -0.51958 -0.894634 -0.707107 -0.707107 
C -0.894634 -0.51958 -1 -0.265203 -1 0 
C -1 0.265203 -0.894634 0.51958 -0.707107 0.707107 
C -0.51958 0.894634 -0.265203 1 0 1 
z
" style="stroke: #444444"/>
    </defs>
    <g clip-path="url(#pd43ffa6eaa)">
     <use xlink:href="#m3624de86f8" x="53.455265" y="27.673931" style="fill: #444444; stroke: #444444"/>
     <use xlink:href="#m3624de86f8" x="54.831156" y="26.46358" style="fill: #444444; stroke: #444444"/>
     <use xlink:href="#m3624de86f8" x="56.207046" y="28.884283" style="fill: #444444; stroke: #444444"/>
     <use xlink:href="#m3624de86f8" x="57.582937" y="35.541217" style="fill: #444444; stroke: #444444"/>
     <use xlink:href="#m3624de86f8" x="58.958827" y="31.304986" style="fill: #444444; stroke: #444444"/>
     <use xlink:href="#m3624de86f8" x="63.086498" y="34.330866" style="fill: #444444; stroke: #444444"/>
     <use xlink:href="#m3624de86f8" x="64.462389" y="32.515338" style="fill: #444444; stroke: #444444"/>
     <use xlink:href="#m3624de86f8" x="65.838279" y="33.72569" style="fill: #444444; stroke: #444444"/>
     <use xlink:href="#m3624de86f8" x="67.21417" y="34.936041" style="fill: #444444; stroke: #444444"/>
     <use xlink:href="#m3624de86f8" x="68.59006" y="33.72569" style="fill: #444444; stroke: #444444"/>
     <use xlink:href="#m3624de86f8" x="72.717731" y="31.304986" style="fill: #444444; stroke: #444444"/>
     <use xlink:href="#m3624de86f8" x="74.093622" y="32.515338" style="fill: #444444; stroke: #444444"/>
     <use xlink:href="#m3624de86f8" x="75.469512" y="33.120514" style="fill: #444444; stroke: #444444"/>
     <use xlink:href="#m3624de86f8" x="76.845402" y="34.330866" style="fill: #444444; stroke: #444444"/>
     <use xlink:href="#m3624de86f8" x="78.221293" y="33.72569" style="fill: #444444; stroke: #444444"/>
     <use xlink:href="#m3624de86f8" x="82.348964" y="31.910162" style="fill: #444444; stroke: #444444"/>
     <use xlink:href="#m3624de86f8" x="83.724854" y="33.72569" style="fill: #444444; stroke: #444444"/>
     <use xlink:href="#m3624de86f8" x="85.100745" y="34.936041" style="fill: #444444; stroke: #444444"/>
     <use xlink:href="#m3624de86f8" x="86.476635" y="31.304986" style="fill: #444444; stroke: #444444"/>
     <use xlink:href="#m3624de86f8" x="87.852526" y="33.72569" style="fill: #444444; stroke: #444444"/>
     <use xlink:href="#m3624de86f8" x="91.980197" y="33.120514" style="fill: #444444; stroke: #444444"/>
     <use xlink:href="#m3624de86f8" x="93.356087" y="33.72569" style="fill: #444444; stroke: #444444"/>
     <use xlink:href="#m3624de86f8" x="94.731978" y="33.120514" style="fill: #444444; stroke: #444444"/>
     <use xlink:href="#m3624de86f8" x="96.107868" y="41.592976" style="fill: #444444; stroke: #444444"/>
     <use xlink:href="#m3624de86f8" x="97.483759" y="41.592976" style="fill: #444444; stroke: #444444"/>
     <use xlink:href="#m3624de86f8" x="101.61143" y="42.198152" style="fill: #444444; stroke: #444444"/>
     <use xlink:href="#m3624de86f8" x="102.98732" y="39.172272" style="fill: #444444; stroke: #444444"/>
     <use xlink:href="#m3624de86f8" x="104.363211" y="39.172272" style="fill: #444444; stroke: #444444"/>
     <use xlink:href="#m3624de86f8" x="105.739101" y="37.961921" style="fill: #444444; stroke: #444444"/>
     <use xlink:href="#m3624de86f8" x="107.114991" y="35.541217" style="fill: #444444; stroke: #444444"/>
     <use xlink:href="#m3624de86f8" x="111.242663" y="33.120514" style="fill: #444444; stroke: #444444"/>
     <use xlink:href="#m3624de86f8" x="112.618553" y="34.330866" style="fill: #444444; stroke: #444444"/>
     <use xlink:href="#m3624de86f8" x="113.994443" y="36.146393" style="fill: #444444; stroke: #444444"/>
     <use xlink:href="#m3624de86f8" x="115.370334" y="36.146393" style="fill: #444444; stroke: #444444"/>
     <use xlink:href="#m3624de86f8" x="116.746224" y="36.146393" style="fill: #444444; stroke: #444444"/>
     <use xlink:href="#m3624de86f8" x="120.873896" y="37.356745" style="fill: #444444; stroke: #444444"/>
     <use xlink:href="#m3624de86f8" x="122.249786" y="35.541217" style="fill: #444444; stroke: #444444"/>
     <use xlink:href="#m3624de86f8" x="123.625676" y="38.567096" style="fill: #444444; stroke: #444444"/>
     <use xlink:href="#m3624de86f8" x="125.001567" y="40.382624" style="fill: #444444; stroke: #444444"/>
     <use xlink:href="#m3624de86f8" x="126.377457" y="41.592976" style="fill: #444444; stroke: #444444"/>
     <use xlink:href="#m3624de86f8" x="130.505128" y="44.618855" style="fill: #444444; stroke: #444444"/>
     <use xlink:href="#m3624de86f8" x="131.881019" y="44.618855" style="fill: #444444; stroke: #444444"/>
     <use xlink:href="#m3624de86f8" x="133.256909" y="42.803327" style="fill: #444444; stroke: #444444"/>
     <use xlink:href="#m3624de86f8" x="134.6328" y="39.777448" style="fill: #444444; stroke: #444444"/>
     <use xlink:href="#m3624de86f8" x="136.00869" y="39.777448" style="fill: #444444; stroke: #444444"/>
     <use xlink:href="#m3624de86f8" x="140.136361" y="37.356745" style="fill: #444444; stroke: #444444"/>
     <use xlink:href="#m3624de86f8" x="141.512252" y="39.777448" style="fill: #444444; stroke: #444444"/>
     <use xlink:href="#m3624de86f8" x="142.888142" y="39.172272" style="fill: #444444; stroke: #444444"/>
     <use xlink:href="#m3624de86f8" x="144.264033" y="38.567096" style="fill: #444444; stroke: #444444"/>
     <use xlink:href="#m3624de86f8" x="145.639923" y="35.541217" style="fill: #444444; stroke: #444444"/>
     <use xlink:href="#m3624de86f8" x="149.767594" y="33.72569" style="fill: #444444; stroke: #444444"/>
     <use xlink:href="#m3624de86f8" x="151.143485" y="32.515338" style="fill: #444444; stroke: #444444"/>
     <use xlink:href="#m3624de86f8" x="152.519375" y="31.910162" style="fill: #444444; stroke: #444444"/>
     <use xlink:href="#m3624de86f8" x="153.895265" y="31.304986" style="fill: #444444; stroke: #444444"/>
     <use xlink:href="#m3624de86f8" x="155.271156" y="33.120514" style="fill: #444444; stroke: #444444"/>
     <use xlink:href="#m3624de86f8" x="159.398827" y="31.304986" style="fill: #444444; stroke: #444444"/>
     <use xlink:href="#m3624de86f8" x="160.774717" y="37.356745" style="fill: #444444; stroke: #444444"/>
     <use xlink:href="#m3624de86f8" x="162.150608" y="37.356745" style="fill: #444444; stroke: #444444"/>
     <use xlink:href="#m3624de86f8" x="163.526498" y="37.961921" style="fill: #444444; stroke: #444444"/>
     <use xlink:href="#m3624de86f8" x="164.902389" y="38.567096" style="fill: #444444; stroke: #444444"/>
     <use xlink:href="#m3624de86f8" x="169.03006" y="37.356745" style="fill: #444444; stroke: #444444"/>
     <use xlink:href="#m3624de86f8" x="170.40595" y="37.961921" style="fill: #444444; stroke: #444444"/>
     <use xlink:href="#m3624de86f8" x="171.781841" y="34.936041" style="fill: #444444; stroke: #444444"/>
     <use xlink:href="#m3624de86f8" x="173.157731" y="35.541217" style="fill: #444444; stroke: #444444"/>
     <use xlink:href="#m3624de86f8" x="174.533622" y="36.146393" style="fill: #444444; stroke: #444444"/>
     <use xlink:href="#m3624de86f8" x="178.661293" y="34.936041" style="fill: #444444; stroke: #444444"/>
     <use xlink:href="#m3624de86f8" x="180.037183" y="37.356745" style="fill: #444444; stroke: #444444"/>
     <use xlink:href="#m3624de86f8" x="181.413074" y="40.382624" style="fill: #444444; stroke: #444444"/>
     <use xlink:href="#m3624de86f8" x="182.788964" y="39.777448" style="fill: #444444; stroke: #444444"/>
     <use xlink:href="#m3624de86f8" x="184.164854" y="38.567096" style="fill: #444444; stroke: #444444"/>
     <use xlink:href="#m3624de86f8" x="188.292526" y="40.9878" style="fill: #444444; stroke: #444444"/>
     <use xlink:href="#m3624de86f8" x="189.668416" y="40.9878" style="fill: #444444; stroke: #444444"/>
     <use xlink:href="#m3624de86f8" x="191.044307" y="44.618855" style="fill: #444444; stroke: #444444"/>
     <use xlink:href="#m3624de86f8" x="192.420197" y="47.039558" style="fill: #444444; stroke: #444444"/>
     <use xlink:href="#m3624de86f8" x="193.796087" y="46.434382" style="fill: #444444; stroke: #444444"/>
     <use xlink:href="#m3624de86f8" x="197.923759" y="45.224031" style="fill: #444444; stroke: #444444"/>
     <use xlink:href="#m3624de86f8" x="199.299649" y="47.644734" style="fill: #444444; stroke: #444444"/>
     <use xlink:href="#m3624de86f8" x="200.675539" y="45.829207" style="fill: #444444; stroke: #444444"/>
     <use xlink:href="#m3624de86f8" x="202.05143" y="45.829207" style="fill: #444444; stroke: #444444"/>
     <use xlink:href="#m3624de86f8" x="203.42732" y="44.013679" style="fill: #444444; stroke: #444444"/>
     <use xlink:href="#m3624de86f8" x="207.554991" y="44.618855" style="fill: #444444; stroke: #444444"/>
     <use xlink:href="#m3624de86f8" x="208.930882" y="46.434382" style="fill: #444444; stroke: #444444"/>
     <use xlink:href="#m3624de86f8" x="210.306772" y="50.670613" style="fill: #444444; stroke: #444444"/>
     <use xlink:href="#m3624de86f8" x="211.682663" y="53.091317" style="fill: #444444; stroke: #444444"/>
     <use xlink:href="#m3624de86f8" x="213.058553" y="50.065438" style="fill: #444444; stroke: #444444"/>
     <use xlink:href="#m3624de86f8" x="217.186224" y="51.275789" style="fill: #444444; stroke: #444444"/>
     <use xlink:href="#m3624de86f8" x="218.562115" y="50.065438" style="fill: #444444; stroke: #444444"/>
     <use xlink:href="#m3624de86f8" x="219.938005" y="52.486141" style="fill: #444444; stroke: #444444"/>
     <use xlink:href="#m3624de86f8" x="221.313896" y="50.670613" style="fill: #444444; stroke: #444444"/>
     <use xlink:href="#m3624de86f8" x="222.689786" y="48.855086" style="fill: #444444; stroke: #444444"/>
     <use xlink:href="#m3624de86f8" x="226.817457" y="48.855086" style="fill: #444444; stroke: #444444"/>
     <use xlink:href="#m3624de86f8" x="228.193348" y="49.460262" style="fill: #444444; stroke: #444444"/>
     <use xlink:href="#m3624de86f8" x="229.569238" y="50.670613" style="fill: #444444; stroke: #444444"/>
     <use xlink:href="#m3624de86f8" x="230.945128" y="51.880965" style="fill: #444444; stroke: #444444"/>
     <use xlink:href="#m3624de86f8" x="232.321019" y="53.091317" style="fill: #444444; stroke: #444444"/>
     <use xlink:href="#m3624de86f8" x="236.44869" y="53.696493" style="fill: #444444; stroke: #444444"/>
     <use xlink:href="#m3624de86f8" x="237.82458" y="54.906844" style="fill: #444444; stroke: #444444"/>
     <use xlink:href="#m3624de86f8" x="239.200471" y="55.51202" style="fill: #444444; stroke: #444444"/>
     <use xlink:href="#m3624de86f8" x="240.576361" y="54.906844" style="fill: #444444; stroke: #444444"/>
     <use xlink:href="#m3624de86f8" x="241.952252" y="56.722372" style="fill: #444444; stroke: #444444"/>
     <use xlink:href="#m3624de86f8" x="246.079923" y="56.722372" style="fill: #444444; stroke: #444444"/>
     <use xlink:href="#m3624de86f8" x="247.455813" y="57.932724" style="fill: #444444; stroke: #444444"/>
     <use xlink:href="#m3624de86f8" x="248.831704" y="58.537899" style="fill: #444444; stroke: #444444"/>
     <use xlink:href="#m3624de86f8" x="250.207594" y="56.117196" style="fill: #444444; stroke: #444444"/>
     <use xlink:href="#m3624de86f8" x="251.583485" y="56.117196" style="fill: #444444; stroke: #444444"/>
     <use xlink:href="#m3624de86f8" x="255.711156" y="54.906844" style="fill: #444444; stroke: #444444"/>
     <use xlink:href="#m3624de86f8" x="257.087046" y="56.722372" style="fill: #444444; stroke: #444444"/>
     <use xlink:href="#m3624de86f8" x="258.462937" y="54.906844" style="fill: #444444; stroke: #444444"/>
     <use xlink:href="#m3624de86f8" x="259.838827" y="53.696493" style="fill: #444444; stroke: #444444"/>
     <use xlink:href="#m3624de86f8" x="261.214717" y="57.932724" style="fill: #444444; stroke: #444444"/>
     <use xlink:href="#m3624de86f8" x="265.342389" y="58.537899" style="fill: #444444; stroke: #444444"/>
     <use xlink:href="#m3624de86f8" x="266.718279" y="58.537899" style="fill: #444444; stroke: #444444"/>
     <use xlink:href="#m3624de86f8" x="268.09417" y="59.143075" style="fill: #444444; stroke: #444444"/>
     <use xlink:href="#m3624de86f8" x="269.47006" y="58.537899" style="fill: #444444; stroke: #444444"/>
     <use xlink:href="#m3624de86f8" x="270.84595" y="55.51202" style="fill: #444444; stroke: #444444"/>
     <use xlink:href="#m3624de86f8" x="274.973622" y="56.117196" style="fill: #444444; stroke: #444444"/>
     <use xlink:href="#m3624de86f8" x="276.349512" y="57.327548" style="fill: #444444; stroke: #444444"/>
     <use xlink:href="#m3624de86f8" x="277.725402" y="57.932724" style="fill: #444444; stroke: #444444"/>
     <use xlink:href="#m3624de86f8" x="279.101293" y="56.117196" style="fill: #444444; stroke: #444444"/>
     <use xlink:href="#m3624de86f8" x="280.477183" y="56.722372" style="fill: #444444; stroke: #444444"/>
     <use xlink:href="#m3624de86f8" x="284.604854" y="57.932724" style="fill: #444444; stroke: #444444"/>
     <use xlink:href="#m3624de86f8" x="285.980745" y="57.327548" style="fill: #444444; stroke: #444444"/>
     <use xlink:href="#m3624de86f8" x="287.356635" y="57.932724" style="fill: #444444; stroke: #444444"/>
     <use xlink:href="#m3624de86f8" x="288.732526" y="57.932724" style="fill: #444444; stroke: #444444"/>
     <use xlink:href="#m3624de86f8" x="290.108416" y="59.143075" style="fill: #444444; stroke: #444444"/>
     <use xlink:href="#m3624de86f8" x="294.236087" y="60.353427" style="fill: #444444; stroke: #444444"/>
     <use xlink:href="#m3624de86f8" x="295.611978" y="60.353427" style="fill: #444444; stroke: #444444"/>
     <use xlink:href="#m3624de86f8" x="296.987868" y="61.563779" style="fill: #444444; stroke: #444444"/>
     <use xlink:href="#m3624de86f8" x="298.363759" y="60.958603" style="fill: #444444; stroke: #444444"/>
     <use xlink:href="#m3624de86f8" x="299.739649" y="57.932724" style="fill: #444444; stroke: #444444"/>
     <use xlink:href="#m3624de86f8" x="303.86732" y="57.932724" style="fill: #444444; stroke: #444444"/>
     <use xlink:href="#m3624de86f8" x="305.243211" y="58.537899" style="fill: #444444; stroke: #444444"/>
     <use xlink:href="#m3624de86f8" x="306.619101" y="59.143075" style="fill: #444444; stroke: #444444"/>
     <use xlink:href="#m3624de86f8" x="307.994991" y="59.748251" style="fill: #444444; stroke: #444444"/>
     <use xlink:href="#m3624de86f8" x="309.370882" y="59.143075" style="fill: #444444; stroke: #444444"/>
     <use xlink:href="#m3624de86f8" x="313.498553" y="58.537899" style="fill: #444444; stroke: #444444"/>
     <use xlink:href="#m3624de86f8" x="314.874443" y="57.327548" style="fill: #444444; stroke: #444444"/>
     <use xlink:href="#m3624de86f8" x="316.250334" y="56.722372" style="fill: #444444; stroke: #444444"/>
     <use xlink:href="#m3624de86f8" x="317.626224" y="57.932724" style="fill: #444444; stroke: #444444"/>
     <use xlink:href="#m3624de86f8" x="319.002115" y="56.117196" style="fill: #444444; stroke: #444444"/>
     <use xlink:href="#m3624de86f8" x="323.129786" y="56.117196" style="fill: #444444; stroke: #444444"/>
     <use xlink:href="#m3624de86f8" x="324.505676" y="56.117196" style="fill: #444444; stroke: #444444"/>
     <use xlink:href="#m3624de86f8" x="325.881567" y="56.117196" style="fill: #444444; stroke: #444444"/>
     <use xlink:href="#m3624de86f8" x="327.257457" y="53.696493" style="fill: #444444; stroke: #444444"/>
     <use xlink:href="#m3624de86f8" x="328.633348" y="52.486141" style="fill: #444444; stroke: #444444"/>
     <use xlink:href="#m3624de86f8" x="332.761019" y="51.275789" style="fill: #444444; stroke: #444444"/>
     <use xlink:href="#m3624de86f8" x="334.136909" y="53.091317" style="fill: #444444; stroke: #444444"/>
     <use xlink:href="#m3624de86f8" x="335.5128" y="51.275789" style="fill: #444444; stroke: #444444"/>
     <use xlink:href="#m3624de86f8" x="336.88869" y="51.275789" style="fill: #444444; stroke: #444444"/>
     <use xlink:href="#m3624de86f8" x="338.26458" y="50.670613" style="fill: #444444; stroke: #444444"/>
     <use xlink:href="#m3624de86f8" x="342.392252" y="50.065438" style="fill: #444444; stroke: #444444"/>
     <use xlink:href="#m3624de86f8" x="343.768142" y="49.460262" style="fill: #444444; stroke: #444444"/>
     <use xlink:href="#m3624de86f8" x="345.144033" y="53.091317" style="fill: #444444; stroke: #444444"/>
     <use xlink:href="#m3624de86f8" x="346.519923" y="53.696493" style="fill: #444444; stroke: #444444"/>
     <use xlink:href="#m3624de86f8" x="347.895813" y="52.486141" style="fill: #444444; stroke: #444444"/>
     <use xlink:href="#m3624de86f8" x="352.023485" y="50.670613" style="fill: #444444; stroke: #444444"/>
     <use xlink:href="#m3624de86f8" x="353.399375" y="51.880965" style="fill: #444444; stroke: #444444"/>
     <use xlink:href="#m3624de86f8" x="354.775265" y="52.486141" style="fill: #444444; stroke: #444444"/>
     <use xlink:href="#m3624de86f8" x="356.151156" y="52.486141" style="fill: #444444; stroke: #444444"/>
     <use xlink:href="#m3624de86f8" x="357.527046" y="56.722372" style="fill: #444444; stroke: #444444"/>
     <use xlink:href="#m3624de86f8" x="361.654717" y="56.722372" style="fill: #444444; stroke: #444444"/>
     <use xlink:href="#m3624de86f8" x="363.030608" y="55.51202" style="fill: #444444; stroke: #444444"/>
     <use xlink:href="#m3624de86f8" x="364.406498" y="53.091317" style="fill: #444444; stroke: #444444"/>
     <use xlink:href="#m3624de86f8" x="365.782389" y="54.301668" style="fill: #444444; stroke: #444444"/>
     <use xlink:href="#m3624de86f8" x="367.158279" y="53.091317" style="fill: #444444; stroke: #444444"/>
     <use xlink:href="#m3624de86f8" x="371.28595" y="51.880965" style="fill: #444444; stroke: #444444"/>
     <use xlink:href="#m3624de86f8" x="372.661841" y="54.906844" style="fill: #444444; stroke: #444444"/>
     <use xlink:href="#m3624de86f8" x="374.037731" y="54.906844" style="fill: #444444; stroke: #444444"/>
     <use xlink:href="#m3624de86f8" x="375.413622" y="53.696493" style="fill: #444444; stroke: #444444"/>
     <use xlink:href="#m3624de86f8" x="376.789512" y="52.486141" style="fill: #444444; stroke: #444444"/>
     <use xlink:href="#m3624de86f8" x="380.917183" y="51.275789" style="fill: #444444; stroke: #444444"/>
     <use xlink:href="#m3624de86f8" x="382.293074" y="51.880965" style="fill: #444444; stroke: #444444"/>
     <use xlink:href="#m3624de86f8" x="383.668964" y="53.091317" style="fill: #444444; stroke: #444444"/>
     <use xlink:href="#m3624de86f8" x="385.044854" y="50.065438" style="fill: #444444; stroke: #444444"/>
     <use xlink:href="#m3624de86f8" x="386.420745" y="49.460262" style="fill: #444444; stroke: #444444"/>
     <use xlink:href="#m3624de86f8" x="390.548416" y="50.065438" style="fill: #444444; stroke: #444444"/>
     <use xlink:href="#m3624de86f8" x="391.924307" y="51.880965" style="fill: #444444; stroke: #444444"/>
     <use xlink:href="#m3624de86f8" x="393.300197" y="48.24991" style="fill: #444444; stroke: #444444"/>
     <use xlink:href="#m3624de86f8" x="394.676087" y="48.24991" style="fill: #444444; stroke: #444444"/>
     <use xlink:href="#m3624de86f8" x="396.051978" y="52.486141" style="fill: #444444; stroke: #444444"/>
     <use xlink:href="#m3624de86f8" x="400.179649" y="51.275789" style="fill: #444444; stroke: #444444"/>
     <use xlink:href="#m3624de86f8" x="401.555539" y="51.275789" style="fill: #444444; stroke: #444444"/>
     <use xlink:href="#m3624de86f8" x="402.93143" y="52.486141" style="fill: #444444; stroke: #444444"/>
     <use xlink:href="#m3624de86f8" x="404.30732" y="53.091317" style="fill: #444444; stroke: #444444"/>
     <use xlink:href="#m3624de86f8" x="405.683211" y="53.696493" style="fill: #444444; stroke: #444444"/>
     <use xlink:href="#m3624de86f8" x="409.810882" y="54.906844" style="fill: #444444; stroke: #444444"/>
     <use xlink:href="#m3624de86f8" x="411.186772" y="56.722372" style="fill: #444444; stroke: #444444"/>
     <use xlink:href="#m3624de86f8" x="412.562663" y="56.117196" style="fill: #444444; stroke: #444444"/>
     <use xlink:href="#m3624de86f8" x="413.938553" y="56.117196" style="fill: #444444; stroke: #444444"/>
     <use xlink:href="#m3624de86f8" x="415.314443" y="57.327548" style="fill: #444444; stroke: #444444"/>
     <use xlink:href="#m3624de86f8" x="419.442115" y="57.327548" style="fill: #444444; stroke: #444444"/>
     <use xlink:href="#m3624de86f8" x="420.818005" y="57.327548" style="fill: #444444; stroke: #444444"/>
     <use xlink:href="#m3624de86f8" x="422.193896" y="56.722372" style="fill: #444444; stroke: #444444"/>
     <use xlink:href="#m3624de86f8" x="423.569786" y="56.117196" style="fill: #444444; stroke: #444444"/>
     <use xlink:href="#m3624de86f8" x="424.945676" y="56.117196" style="fill: #444444; stroke: #444444"/>
     <use xlink:href="#m3624de86f8" x="429.073348" y="57.932724" style="fill: #444444; stroke: #444444"/>
     <use xlink:href="#m3624de86f8" x="430.449238" y="57.932724" style="fill: #444444; stroke: #444444"/>
     <use xlink:href="#m3624de86f8" x="431.825128" y="58.537899" style="fill: #444444; stroke: #444444"/>
     <use xlink:href="#m3624de86f8" x="433.201019" y="57.932724" style="fill: #444444; stroke: #444444"/>
     <use xlink:href="#m3624de86f8" x="434.576909" y="65.80001" style="fill: #444444; stroke: #444444"/>
     <use xlink:href="#m3624de86f8" x="438.70458" y="63.984482" style="fill: #444444; stroke: #444444"/>
     <use xlink:href="#m3624de86f8" x="440.080471" y="65.80001" style="fill: #444444; stroke: #444444"/>
     <use xlink:href="#m3624de86f8" x="441.456361" y="66.405185" style="fill: #444444; stroke: #444444"/>
     <use xlink:href="#m3624de86f8" x="442.832252" y="65.80001" style="fill: #444444; stroke: #444444"/>
     <use xlink:href="#m3624de86f8" x="444.208142" y="63.984482" style="fill: #444444; stroke: #444444"/>
     <use xlink:href="#m3624de86f8" x="448.335813" y="62.77413" style="fill: #444444; stroke: #444444"/>
     <use xlink:href="#m3624de86f8" x="449.711704" y="63.984482" style="fill: #444444; stroke: #444444"/>
     <use xlink:href="#m3624de86f8" x="451.087594" y="64.589658" style="fill: #444444; stroke: #444444"/>
     <use xlink:href="#m3624de86f8" x="452.463485" y="65.80001" style="fill: #444444; stroke: #444444"/>
     <use xlink:href="#m3624de86f8" x="453.839375" y="67.615537" style="fill: #444444; stroke: #444444"/>
     <use xlink:href="#m3624de86f8" x="457.967046" y="66.405185" style="fill: #444444; stroke: #444444"/>
     <use xlink:href="#m3624de86f8" x="459.342937" y="63.379306" style="fill: #444444; stroke: #444444"/>
     <use xlink:href="#m3624de86f8" x="460.718827" y="63.984482" style="fill: #444444; stroke: #444444"/>
     <use xlink:href="#m3624de86f8" x="462.094717" y="63.984482" style="fill: #444444; stroke: #444444"/>
     <use xlink:href="#m3624de86f8" x="463.470608" y="64.589658" style="fill: #444444; stroke: #444444"/>
     <use xlink:href="#m3624de86f8" x="467.598279" y="65.194834" style="fill: #444444; stroke: #444444"/>
     <use xlink:href="#m3624de86f8" x="468.97417" y="65.194834" style="fill: #444444; stroke: #444444"/>
     <use xlink:href="#m3624de86f8" x="470.35006" y="63.379306" style="fill: #444444; stroke: #444444"/>
     <use xlink:href="#m3624de86f8" x="471.72595" y="63.379306" style="fill: #444444; stroke: #444444"/>
     <use xlink:href="#m3624de86f8" x="473.101841" y="65.80001" style="fill: #444444; stroke: #444444"/>
     <use xlink:href="#m3624de86f8" x="477.229512" y="63.984482" style="fill: #444444; stroke: #444444"/>
     <use xlink:href="#m3624de86f8" x="478.605402" y="63.984482" style="fill: #444444; stroke: #444444"/>
     <use xlink:href="#m3624de86f8" x="479.981293" y="63.379306" style="fill: #444444; stroke: #444444"/>
     <use xlink:href="#m3624de86f8" x="481.357183" y="61.563779" style="fill: #444444; stroke: #444444"/>
     <use xlink:href="#m3624de86f8" x="482.733074" y="60.958603" style="fill: #444444; stroke: #444444"/>
     <use xlink:href="#m3624de86f8" x="486.860745" y="61.563779" style="fill: #444444; stroke: #444444"/>
     <use xlink:href="#m3624de86f8" x="488.236635" y="62.77413" style="fill: #444444; stroke: #444444"/>
     <use xlink:href="#m3624de86f8" x="489.612526" y="61.563779" style="fill: #444444; stroke: #444444"/>
     <use xlink:href="#m3624de86f8" x="490.988416" y="59.748251" style="fill: #444444; stroke: #444444"/>
     <use xlink:href="#m3624de86f8" x="492.364307" y="56.722372" style="fill: #444444; stroke: #444444"/>
     <use xlink:href="#m3624de86f8" x="496.491978" y="57.932724" style="fill: #444444; stroke: #444444"/>
     <use xlink:href="#m3624de86f8" x="497.867868" y="56.117196" style="fill: #444444; stroke: #444444"/>
     <use xlink:href="#m3624de86f8" x="499.243759" y="58.537899" style="fill: #444444; stroke: #444444"/>
     <use xlink:href="#m3624de86f8" x="500.619649" y="57.327548" style="fill: #444444; stroke: #444444"/>
     <use xlink:href="#m3624de86f8" x="501.995539" y="59.143075" style="fill: #444444; stroke: #444444"/>
     <use xlink:href="#m3624de86f8" x="506.123211" y="57.932724" style="fill: #444444; stroke: #444444"/>
     <use xlink:href="#m3624de86f8" x="507.499101" y="59.143075" style="fill: #444444; stroke: #444444"/>
     <use xlink:href="#m3624de86f8" x="508.874991" y="58.537899" style="fill: #444444; stroke: #444444"/>
     <use xlink:href="#m3624de86f8" x="510.250882" y="59.143075" style="fill: #444444; stroke: #444444"/>
     <use xlink:href="#m3624de86f8" x="511.626772" y="58.537899" style="fill: #444444; stroke: #444444"/>
     <use xlink:href="#m3624de86f8" x="515.754443" y="57.327548" style="fill: #444444; stroke: #444444"/>
     <use xlink:href="#m3624de86f8" x="517.130334" y="58.537899" style="fill: #444444; stroke: #444444"/>
     <use xlink:href="#m3624de86f8" x="518.506224" y="57.327548" style="fill: #444444; stroke: #444444"/>
     <use xlink:href="#m3624de86f8" x="519.882115" y="60.353427" style="fill: #444444; stroke: #444444"/>
     <use xlink:href="#m3624de86f8" x="521.258005" y="59.748251" style="fill: #444444; stroke: #444444"/>
     <use xlink:href="#m3624de86f8" x="525.385676" y="59.143075" style="fill: #444444; stroke: #444444"/>
     <use xlink:href="#m3624de86f8" x="526.761567" y="60.958603" style="fill: #444444; stroke: #444444"/>
     <use xlink:href="#m3624de86f8" x="528.137457" y="58.537899" style="fill: #444444; stroke: #444444"/>
     <use xlink:href="#m3624de86f8" x="529.513348" y="60.353427" style="fill: #444444; stroke: #444444"/>
     <use xlink:href="#m3624de86f8" x="530.889238" y="61.563779" style="fill: #444444; stroke: #444444"/>
     <use xlink:href="#m3624de86f8" x="535.016909" y="61.563779" style="fill: #444444; stroke: #444444"/>
     <use xlink:href="#m3624de86f8" x="536.3928" y="59.748251" style="fill: #444444; stroke: #444444"/>
     <use xlink:href="#m3624de86f8" x="537.76869" y="57.327548" style="fill: #444444; stroke: #444444"/>
     <use xlink:href="#m3624de86f8" x="539.14458" y="57.327548" style="fill: #444444; stroke: #444444"/>
     <use xlink:href="#m3624de86f8" x="540.520471" y="57.327548" style="fill: #444444; stroke: #444444"/>
     <use xlink:href="#m3624de86f8" x="544.648142" y="57.932724" style="fill: #444444; stroke: #444444"/>
     <use xlink:href="#m3624de86f8" x="546.024033" y="57.327548" style="fill: #444444; stroke: #444444"/>
     <use xlink:href="#m3624de86f8" x="547.399923" y="57.932724" style="fill: #444444; stroke: #444444"/>
     <use xlink:href="#m3624de86f8" x="548.775813" y="57.932724" style="fill: #444444; stroke: #444444"/>
     <use xlink:href="#m3624de86f8" x="550.151704" y="58.537899" style="fill: #444444; stroke: #444444"/>
     <use xlink:href="#m3624de86f8" x="554.279375" y="63.984482" style="fill: #444444; stroke: #444444"/>
    </g>
   </g>
   <g id="line2d_32">
    <path d="M 52.079375 109.37267 
L 554.279375 109.37267 
" clip-path="url(#pd43ffa6eaa)" style="fill: none; stroke: #000000; stroke-linecap: square"/>
   </g>
   <g id="patch_3">
    <path d="M 52.079375 113.518125 
L 52.079375 22.318125 
" style="fill: none; stroke: #000000; stroke-width: 0.8; stroke-linejoin: miter; stroke-linecap: square"/>
   </g>
   <g id="patch_4">
    <path d="M 554.279375 113.518125 
L 554.279375 22.318125 
" style="fill: none; stroke: #000000; stroke-width: 0.8; stroke-linejoin: miter; stroke-linecap: square"/>
   </g>
   <g id="patch_5">
    <path d="M 52.079375 113.518125 
L 554.279375 113.518125 
" style="fill: none; stroke: #000000; stroke-width: 0.8; stroke-linejoin: miter; stroke-linecap: square"/>
   </g>
   <g id="patch_6">
    <path d="M 52.079375 22.318125 
L 554.279375 22.318125 
" style="fill: none; stroke: #000000; stroke-width: 0.8; stroke-linejoin: miter; stroke-linecap: square"/>
   </g>
   <g id="text_17">
    <!-- UST10 – GoC10 Spread (bp) -->
    <g transform="translate(219.479375 16.318125) scale(0.12 -0.12)">
     <defs>
      <path id="DejaVuSans-55" d="M 556 4666 
L 1191 4666 
L 1191 1831 
Q 1191 1081 1462 751 
Q 1734 422 2344 422 
Q 2950 422 3222 751 
Q 3494 1081 3494 1831 
L 3494 4666 
L 4128 4666 
L 4128 1753 
Q 4128 841 3676 375 
Q 3225 -91 2344 -91 
Q 1459 -91 1007 375 
Q 556 841 556 1753 
L 556 4666 
z
" transform="scale(0.015625)"/>
      <path id="DejaVuSans-53" d="M 3425 4513 
L 3425 3897 
Q 3066 4069 2747 4153 
Q 2428 4238 2131 4238 
Q 1616 4238 1336 4038 
Q 1056 3838 1056 3469 
Q 1056 3159 1242 3001 
Q 1428 2844 1947 2747 
L 2328 2669 
Q 3034 2534 3370 2195 
Q 3706 1856 3706 1288 
Q 3706 609 3251 259 
Q 2797 -91 1919 -91 
Q 1588 -91 1214 -16 
Q 841 59 441 206 
L 441 856 
Q 825 641 1194 531 
Q 1563 422 1919 422 
Q 2459 422 2753 634 
Q 3047 847 3047 1241 
Q 3047 1584 2836 1778 
Q 2625 1972 2144 2069 
L 1759 2144 
Q 1053 2284 737 2584 
Q 422 2884 422 3419 
Q 422 4038 858 4394 
Q 1294 4750 2059 4750 
Q 2388 4750 2728 4690 
Q 3069 4631 3425 4513 
z
" transform="scale(0.015625)"/>
      <path id="DejaVuSans-54" d="M -19 4666 
L 3928 4666 
L 3928 4134 
L 2272 4134 
L 2272 0 
L 1638 0 
L 1638 4134 
L -19 4134 
L -19 4666 
z
" transform="scale(0.015625)"/>
      <path id="DejaVuSans-20" transform="scale(0.015625)"/>
      <path id="DejaVuSans-2013" d="M 313 1978 
L 2888 1978 
L 2888 1528 
L 313 1528 
L 313 1978 
z
" transform="scale(0.015625)"/>
      <path id="DejaVuSans-47" d="M 3809 666 
L 3809 1919 
L 2778 1919 
L 2778 2438 
L 4434 2438 
L 4434 434 
Q 4069 175 3628 42 
Q 3188 -91 2688 -91 
Q 1594 -91 976 548 
Q 359 1188 359 2328 
Q 359 3472 976 4111 
Q 1594 4750 2688 4750 
Q 3144 4750 3555 4637 
Q 3966 4525 4313 4306 
L 4313 3634 
Q 3963 3931 3569 4081 
Q 3175 4231 2741 4231 
Q 1884 4231 1454 3753 
Q 1025 3275 1025 2328 
Q 1025 1384 1454 906 
Q 1884 428 2741 428 
Q 3075 428 3337 486 
Q 3600 544 3809 666 
z
" transform="scale(0.015625)"/>
      <path id="DejaVuSans-6f" d="M 1959 3097 
Q 1497 3097 1228 2736 
Q 959 2375 959 1747 
Q 959 1119 1226 758 
Q 1494 397 1959 397 
Q 2419 397 2687 759 
Q 2956 1122 2956 1747 
Q 2956 2369 2687 2733 
Q 2419 3097 1959 3097 
z
M 1959 3584 
Q 2709 3584 3137 3096 
Q 3566 2609 3566 1747 
Q 3566 888 3137 398 
Q 2709 -91 1959 -91 
Q 1206 -91 779 398 
Q 353 888 353 1747 
Q 353 2609 779 3096 
Q 1206 3584 1959 3584 
z
" transform="scale(0.015625)"/>
      <path id="DejaVuSans-43" d="M 4122 4306 
L 4122 3641 
Q 3803 3938 3442 4084 
Q 3081 4231 2675 4231 
Q 1875 4231 1450 3742 
Q 1025 3253 1025 2328 
Q 1025 1406 1450 917 
Q 1875 428 2675 428 
Q 3081 428 3442 575 
Q 3803 722 4122 1019 
L 4122 359 
Q 3791 134 3420 21 
Q 3050 -91 2638 -91 
Q 1578 -91 968 557 
Q 359 1206 359 2328 
Q 359 3453 968 4101 
Q 1578 4750 2638 4750 
Q 3056 4750 3426 4639 
Q 3797 4528 4122 4306 
z
" transform="scale(0.015625)"/>
      <path id="DejaVuSans-72" d="M 2631 2963 
Q 2534 3019 2420 3045 
Q 2306 3072 2169 3072 
Q 1681 3072 1420 2755 
Q 1159 2438 1159 1844 
L 1159 0 
L 581 0 
L 581 3500 
L 1159 3500 
L 1159 2956 
Q 1341 3275 1631 3429 
Q 1922 3584 2338 3584 
Q 2397 3584 2469 3576 
Q 2541 3569 2628 3553 
L 2631 2963 
z
" transform="scale(0.015625)"/>
      <path id="DejaVuSans-65" d="M 3597 1894 
L 3597 1613 
L 953 1613 
Q 991 1019 1311 708 
Q 1631 397 2203 397 
Q 2534 397 2845 478 
Q 3156 559 3463 722 
L 3463 178 
Q 3153 47 2828 -22 
Q 2503 -91 2169 -91 
Q 1331 -91 842 396 
Q 353 884 353 1716 
Q 353 2575 817 3079 
Q 1281 3584 2069 3584 
Q 2775 3584 3186 3129 
Q 3597 2675 3597 1894 
z
M 3022 2063 
Q 3016 2534 2758 2815 
Q 2500 3097 2075 3097 
Q 1594 3097 1305 2825 
Q 1016 2553 972 2059 
L 3022 2063 
z
" transform="scale(0.015625)"/>
      <path id="DejaVuSans-61" d="M 2194 1759 
Q 1497 1759 1228 1600 
Q 959 1441 959 1056 
Q 959 750 1161 570 
Q 1363 391 1709 391 
Q 2188 391 2477 730 
Q 2766 1069 2766 1631 
L 2766 1759 
L 2194 1759 
z
M 3341 1997 
L 3341 0 
L 2766 0 
L 2766 531 
Q 2569 213 2275 61 
Q 1981 -91 1556 -91 
Q 1019 -91 701 211 
Q 384 513 384 1019 
Q 384 1609 779 1909 
Q 1175 2209 1959 2209 
L 2766 2209 
L 2766 2266 
Q 2766 2663 2505 2880 
Q 2244 3097 1772 3097 
Q 1472 3097 1187 3025 
Q 903 2953 641 2809 
L 641 3341 
Q 956 3463 1253 3523 
Q 1550 3584 1831 3584 
Q 2591 3584 2966 3190 
Q 3341 2797 3341 1997 
z
" transform="scale(0.015625)"/>
      <path id="DejaVuSans-64" d="M 2906 2969 
L 2906 4863 
L 3481 4863 
L 3481 0 
L 2906 0 
L 2906 525 
Q 2725 213 2448 61 
Q 2172 -91 1784 -91 
Q 1150 -91 751 415 
Q 353 922 353 1747 
Q 353 2572 751 3078 
Q 1150 3584 1784 3584 
Q 2172 3584 2448 3432 
Q 2725 3281 2906 2969 
z
M 947 1747 
Q 947 1113 1208 752 
Q 1469 391 1925 391 
Q 2381 391 2643 752 
Q 2906 1113 2906 1747 
Q 2906 2381 2643 2742 
Q 2381 3103 1925 3103 
Q 1469 3103 1208 2742 
Q 947 2381 947 1747 
z
" transform="scale(0.015625)"/>
      <path id="DejaVuSans-28" d="M 1984 4856 
Q 1566 4138 1362 3434 
Q 1159 2731 1159 2009 
Q 1159 1288 1364 580 
Q 1569 -128 1984 -844 
L 1484 -844 
Q 1016 -109 783 600 
Q 550 1309 550 2009 
Q 550 2706 781 3412 
Q 1013 4119 1484 4856 
L 1984 4856 
z
" transform="scale(0.015625)"/>
      <path id="DejaVuSans-29" d="M 513 4856 
L 1013 4856 
Q 1481 4119 1714 3412 
Q 1947 2706 1947 2009 
Q 1947 1309 1714 600 
Q 1481 -109 1013 -844 
L 513 -844 
Q 928 -128 1133 580 
Q 1338 1288 1338 2009 
Q 1338 2731 1133 3434 
Q 928 4138 513 4856 
z
" transform="scale(0.015625)"/>
     </defs>
     <use xlink:href="#DejaVuSans-55"/>
     <use xlink:href="#DejaVuSans-53" transform="translate(73.193359 0)"/>
     <use xlink:href="#DejaVuSans-54" transform="translate(136.669922 0)"/>
     <use xlink:href="#DejaVuSans-31" transform="translate(197.753906 0)"/>
     <use xlink:href="#DejaVuSans-30" transform="translate(261.376953 0)"/>
     <use xlink:href="#DejaVuSans-20" transform="translate(325 0)"/>
     <use xlink:href="#DejaVuSans-2013" transform="translate(356.787109 0)"/>
     <use xlink:href="#DejaVuSans-20" transform="translate(406.787109 0)"/>
     <use xlink:href="#DejaVuSans-47" transform="translate(438.574219 0)"/>
     <use xlink:href="#DejaVuSans-6f" transform="translate(516.064453 0)"/>
     <use xlink:href="#DejaVuSans-43" transform="translate(577.246094 0)"/>
     <use xlink:href="#DejaVuSans-31" transform="translate(647.070312 0)"/>
     <use xlink:href="#DejaVuSans-30" transform="translate(710.693359 0)"/>
     <use xlink:href="#DejaVuSans-20" transform="translate(774.316406 0)"/>
     <use xlink:href="#DejaVuSans-53" transform="translate(806.103516 0)"/>
     <use xlink:href="#DejaVuSans-70" transform="translate(869.580078 0)"/>
     <use xlink:href="#DejaVuSans-72" transform="translate(933.056641 0)"/>
     <use xlink:href="#DejaVuSans-65" transform="translate(971.919922 0)"/>
     <use xlink:href="#DejaVuSans-61" transform="translate(1033.443359 0)"/>
     <use xlink:href="#DejaVuSans-64" transform="translate(1094.722656 0)"/>
     <use xlink:href="#DejaVuSans-20" transform="translate(1158.199219 0)"/>
     <use xlink:href="#DejaVuSans-28" transform="translate(1189.986328 0)"/>
     <use xlink:href="#DejaVuSans-62" transform="translate(1229 0)"/>
     <use xlink:href="#DejaVuSans-70" transform="translate(1292.476562 0)"/>
     <use xlink:href="#DejaVuSans-29" transform="translate(1355.953125 0)"/>
    </g>
   </g>
  </g>
  <g id="axes_2">
   <g id="patch_7">
    <path d="M 52.079375 188.638125 
L 554.279375 188.638125 
L 554.279375 156.718125 
L 52.079375 156.718125 
z
" style="fill: #ffffff"/>
   </g>
   <g id="matplotlib.axis_3">
    <g id="xtick_13">
     <g id="line2d_33">
      <path d="M 93.356087 188.638125 
L 93.356087 156.718125 
" clip-path="url(#pe625c49b46)" style="fill: none; stroke: #b0b0b0; stroke-opacity: 0.15; stroke-width: 0.8; stroke-linecap: square"/>
     </g>
     <g id="line2d_34">
      <g>
       <use xlink:href="#mf4260c885b" x="93.356087" y="188.638125" style="stroke: #000000; stroke-width: 0.8"/>
      </g>
     </g>
     <g id="text_18">
      <!-- 2025-04 -->
      <g transform="translate(62.340616 230.555942) rotate(-45) scale(0.1 -0.1)">
       <use xlink:href="#DejaVuSans-32"/>
       <use xlink:href="#DejaVuSans-30" transform="translate(63.623047 0)"/>
       <use xlink:href="#DejaVuSans-32" transform="translate(127.246094 0)"/>
       <use xlink:href="#DejaVuSans-35" transform="translate(190.869141 0)"/>
       <use xlink:href="#DejaVuSans-2d" transform="translate(254.492188 0)"/>
       <use xlink:href="#DejaVuSans-30" transform="translate(290.576172 0)"/>
       <use xlink:href="#DejaVuSans-34" transform="translate(354.199219 0)"/>
      </g>
     </g>
    </g>
    <g id="xtick_14">
     <g id="line2d_35">
      <path d="M 134.6328 188.638125 
L 134.6328 156.718125 
" clip-path="url(#pe625c49b46)" style="fill: none; stroke: #b0b0b0; stroke-opacity: 0.15; stroke-width: 0.8; stroke-linecap: square"/>
     </g>
     <g id="line2d_36">
      <g>
       <use xlink:href="#mf4260c885b" x="134.6328" y="188.638125" style="stroke: #000000; stroke-width: 0.8"/>
      </g>
     </g>
     <g id="text_19">
      <!-- 2025-05 -->
      <g transform="translate(103.617328 230.555942) rotate(-45) scale(0.1 -0.1)">
       <use xlink:href="#DejaVuSans-32"/>
       <use xlink:href="#DejaVuSans-30" transform="translate(63.623047 0)"/>
       <use xlink:href="#DejaVuSans-32" transform="translate(127.246094 0)"/>
       <use xlink:href="#DejaVuSans-35" transform="translate(190.869141 0)"/>
       <use xlink:href="#DejaVuSans-2d" transform="translate(254.492188 0)"/>
       <use xlink:href="#DejaVuSans-30" transform="translate(290.576172 0)"/>
       <use xlink:href="#DejaVuSans-35" transform="translate(354.199219 0)"/>
      </g>
     </g>
    </g>
    <g id="xtick_15">
     <g id="line2d_37">
      <path d="M 177.285402 188.638125 
L 177.285402 156.718125 
" clip-path="url(#pe625c49b46)" style="fill: none; stroke: #b0b0b0; stroke-opacity: 0.15; stroke-width: 0.8; stroke-linecap: square"/>
     </g>
     <g id="line2d_38">
      <g>
       <use xlink:href="#mf4260c885b" x="177.285402" y="188.638125" style="stroke: #000000; stroke-width: 0.8"/>
      </g>
     </g>
     <g id="text_20">
      <!-- 2025-06 -->
      <g transform="translate(146.269931 230.555942) rotate(-45) scale(0.1 -0.1)">
       <use xlink:href="#DejaVuSans-32"/>
       <use xlink:href="#DejaVuSans-30" transform="translate(63.623047 0)"/>
       <use xlink:href="#DejaVuSans-32" transform="translate(127.246094 0)"/>
       <use xlink:href="#DejaVuSans-35" transform="translate(190.869141 0)"/>
       <use xlink:href="#DejaVuSans-2d" transform="translate(254.492188 0)"/>
       <use xlink:href="#DejaVuSans-30" transform="translate(290.576172 0)"/>
       <use xlink:href="#DejaVuSans-36" transform="translate(354.199219 0)"/>
      </g>
     </g>
    </g>
    <g id="xtick_16">
     <g id="line2d_39">
      <path d="M 218.562115 188.638125 
L 218.562115 156.718125 
" clip-path="url(#pe625c49b46)" style="fill: none; stroke: #b0b0b0; stroke-opacity: 0.15; stroke-width: 0.8; stroke-linecap: square"/>
     </g>
     <g id="line2d_40">
      <g>
       <use xlink:href="#mf4260c885b" x="218.562115" y="188.638125" style="stroke: #000000; stroke-width: 0.8"/>
      </g>
     </g>
     <g id="text_21">
      <!-- 2025-07 -->
      <g transform="translate(187.546644 230.555942) rotate(-45) scale(0.1 -0.1)">
       <use xlink:href="#DejaVuSans-32"/>
       <use xlink:href="#DejaVuSans-30" transform="translate(63.623047 0)"/>
       <use xlink:href="#DejaVuSans-32" transform="translate(127.246094 0)"/>
       <use xlink:href="#DejaVuSans-35" transform="translate(190.869141 0)"/>
       <use xlink:href="#DejaVuSans-2d" transform="translate(254.492188 0)"/>
       <use xlink:href="#DejaVuSans-30" transform="translate(290.576172 0)"/>
       <use xlink:href="#DejaVuSans-37" transform="translate(354.199219 0)"/>
      </g>
     </g>
    </g>
    <g id="xtick_17">
     <g id="line2d_41">
      <path d="M 261.214717 188.638125 
L 261.214717 156.718125 
" clip-path="url(#pe625c49b46)" style="fill: none; stroke: #b0b0b0; stroke-opacity: 0.15; stroke-width: 0.8; stroke-linecap: square"/>
     </g>
     <g id="line2d_42">
      <g>
       <use xlink:href="#mf4260c885b" x="261.214717" y="188.638125" style="stroke: #000000; stroke-width: 0.8"/>
      </g>
     </g>
     <g id="text_22">
      <!-- 2025-08 -->
      <g transform="translate(230.199246 230.555942) rotate(-45) scale(0.1 -0.1)">
       <use xlink:href="#DejaVuSans-32"/>
       <use xlink:href="#DejaVuSans-30" transform="translate(63.623047 0)"/>
       <use xlink:href="#DejaVuSans-32" transform="translate(127.246094 0)"/>
       <use xlink:href="#DejaVuSans-35" transform="translate(190.869141 0)"/>
       <use xlink:href="#DejaVuSans-2d" transform="translate(254.492188 0)"/>
       <use xlink:href="#DejaVuSans-30" transform="translate(290.576172 0)"/>
       <use xlink:href="#DejaVuSans-38" transform="translate(354.199219 0)"/>
      </g>
     </g>
    </g>
    <g id="xtick_18">
     <g id="line2d_43">
      <path d="M 303.86732 188.638125 
L 303.86732 156.718125 
" clip-path="url(#pe625c49b46)" style="fill: none; stroke: #b0b0b0; stroke-opacity: 0.15; stroke-width: 0.8; stroke-linecap: square"/>
     </g>
     <g id="line2d_44">
      <g>
       <use xlink:href="#mf4260c885b" x="303.86732" y="188.638125" style="stroke: #000000; stroke-width: 0.8"/>
      </g>
     </g>
     <g id="text_23">
      <!-- 2025-09 -->
      <g transform="translate(272.851849 230.555942) rotate(-45) scale(0.1 -0.1)">
       <use xlink:href="#DejaVuSans-32"/>
       <use xlink:href="#DejaVuSans-30" transform="translate(63.623047 0)"/>
       <use xlink:href="#DejaVuSans-32" transform="translate(127.246094 0)"/>
       <use xlink:href="#DejaVuSans-35" transform="translate(190.869141 0)"/>
       <use xlink:href="#DejaVuSans-2d" transform="translate(254.492188 0)"/>
       <use xlink:href="#DejaVuSans-30" transform="translate(290.576172 0)"/>
       <use xlink:href="#DejaVuSans-39" transform="translate(354.199219 0)"/>
      </g>
     </g>
    </g>
    <g id="xtick_19">
     <g id="line2d_45">
      <path d="M 345.144033 188.638125 
L 345.144033 156.718125 
" clip-path="url(#pe625c49b46)" style="fill: none; stroke: #b0b0b0; stroke-opacity: 0.15; stroke-width: 0.8; stroke-linecap: square"/>
     </g>
     <g id="line2d_46">
      <g>
       <use xlink:href="#mf4260c885b" x="345.144033" y="188.638125" style="stroke: #000000; stroke-width: 0.8"/>
      </g>
     </g>
     <g id="text_24">
      <!-- 2025-10 -->
      <g transform="translate(314.128561 230.555942) rotate(-45) scale(0.1 -0.1)">
       <use xlink:href="#DejaVuSans-32"/>
       <use xlink:href="#DejaVuSans-30" transform="translate(63.623047 0)"/>
       <use xlink:href="#DejaVuSans-32" transform="translate(127.246094 0)"/>
       <use xlink:href="#DejaVuSans-35" transform="translate(190.869141 0)"/>
       <use xlink:href="#DejaVuSans-2d" transform="translate(254.492188 0)"/>
       <use xlink:href="#DejaVuSans-31" transform="translate(290.576172 0)"/>
       <use xlink:href="#DejaVuSans-30" transform="translate(354.199219 0)"/>
      </g>
     </g>
    </g>
    <g id="xtick_20">
     <g id="line2d_47">
      <path d="M 387.796635 188.638125 
L 387.796635 156.718125 
" clip-path="url(#pe625c49b46)" style="fill: none; stroke: #b0b0b0; stroke-opacity: 0.15; stroke-width: 0.8; stroke-linecap: square"/>
     </g>
     <g id="line2d_48">
      <g>
       <use xlink:href="#mf4260c885b" x="387.796635" y="188.638125" style="stroke: #000000; stroke-width: 0.8"/>
      </g>
     </g>
     <g id="text_25">
      <!-- 2025-11 -->
      <g transform="translate(356.781164 230.555942) rotate(-45) scale(0.1 -0.1)">
       <use xlink:href="#DejaVuSans-32"/>
       <use xlink:href="#DejaVuSans-30" transform="translate(63.623047 0)"/>
       <use xlink:href="#DejaVuSans-32" transform="translate(127.246094 0)"/>
       <use xlink:href="#DejaVuSans-35" transform="translate(190.869141 0)"/>
       <use xlink:href="#DejaVuSans-2d" transform="translate(254.492188 0)"/>
       <use xlink:href="#DejaVuSans-31" transform="translate(290.576172 0)"/>
       <use xlink:href="#DejaVuSans-31" transform="translate(354.199219 0)"/>
      </g>
     </g>
    </g>
    <g id="xtick_21">
     <g id="line2d_49">
      <path d="M 429.073348 188.638125 
L 429.073348 156.718125 
" clip-path="url(#pe625c49b46)" style="fill: none; stroke: #b0b0b0; stroke-opacity: 0.15; stroke-width: 0.8; stroke-linecap: square"/>
     </g>
     <g id="line2d_50">
      <g>
       <use xlink:href="#mf4260c885b" x="429.073348" y="188.638125" style="stroke: #000000; stroke-width: 0.8"/>
      </g>
     </g>
     <g id="text_26">
      <!-- 2025-12 -->
      <g transform="translate(398.057876 230.555942) rotate(-45) scale(0.1 -0.1)">
       <use xlink:href="#DejaVuSans-32"/>
       <use xlink:href="#DejaVuSans-30" transform="translate(63.623047 0)"/>
       <use xlink:href="#DejaVuSans-32" transform="translate(127.246094 0)"/>
       <use xlink:href="#DejaVuSans-35" transform="translate(190.869141 0)"/>
       <use xlink:href="#DejaVuSans-2d" transform="translate(254.492188 0)"/>
       <use xlink:href="#DejaVuSans-31" transform="translate(290.576172 0)"/>
       <use xlink:href="#DejaVuSans-32" transform="translate(354.199219 0)"/>
      </g>
     </g>
    </g>
    <g id="xtick_22">
     <g id="line2d_51">
      <path d="M 471.72595 188.638125 
L 471.72595 156.718125 
" clip-path="url(#pe625c49b46)" style="fill: none; stroke: #b0b0b0; stroke-opacity: 0.15; stroke-width: 0.8; stroke-linecap: square"/>
     </g>
     <g id="line2d_52">
      <g>
       <use xlink:href="#mf4260c885b" x="471.72595" y="188.638125" style="stroke: #000000; stroke-width: 0.8"/>
      </g>
     </g>
     <g id="text_27">
      <!-- 2026-01 -->
      <g transform="translate(440.710479 230.555942) rotate(-45) scale(0.1 -0.1)">
       <use xlink:href="#DejaVuSans-32"/>
       <use xlink:href="#DejaVuSans-30" transform="translate(63.623047 0)"/>
       <use xlink:href="#DejaVuSans-32" transform="translate(127.246094 0)"/>
       <use xlink:href="#DejaVuSans-36" transform="translate(190.869141 0)"/>
       <use xlink:href="#DejaVuSans-2d" transform="translate(254.492188 0)"/>
       <use xlink:href="#DejaVuSans-30" transform="translate(290.576172 0)"/>
       <use xlink:href="#DejaVuSans-31" transform="translate(354.199219 0)"/>
      </g>
     </g>
    </g>
    <g id="xtick_23">
     <g id="line2d_53">
      <path d="M 514.378553 188.638125 
L 514.378553 156.718125 
" clip-path="url(#pe625c49b46)" style="fill: none; stroke: #b0b0b0; stroke-opacity: 0.15; stroke-width: 0.8; stroke-linecap: square"/>
     </g>
     <g id="line2d_54">
      <g>
       <use xlink:href="#mf4260c885b" x="514.378553" y="188.638125" style="stroke: #000000; stroke-width: 0.8"/>
      </g>
     </g>
     <g id="text_28">
      <!-- 2026-02 -->
      <g transform="translate(483.363082 230.555942) rotate(-45) scale(0.1 -0.1)">
       <use xlink:href="#DejaVuSans-32"/>
       <use xlink:href="#DejaVuSans-30" transform="translate(63.623047 0)"/>
       <use xlink:href="#DejaVuSans-32" transform="translate(127.246094 0)"/>
       <use xlink:href="#DejaVuSans-36" transform="translate(190.869141 0)"/>
       <use xlink:href="#DejaVuSans-2d" transform="translate(254.492188 0)"/>
       <use xlink:href="#DejaVuSans-30" transform="translate(290.576172 0)"/>
       <use xlink:href="#DejaVuSans-32" transform="translate(354.199219 0)"/>
      </g>
     </g>
    </g>
    <g id="xtick_24">
     <g id="line2d_55">
      <path d="M 552.903485 188.638125 
L 552.903485 156.718125 
" clip-path="url(#pe625c49b46)" style="fill: none; stroke: #b0b0b0; stroke-opacity: 0.15; stroke-width: 0.8; stroke-linecap: square"/>
     </g>
     <g id="line2d_56">
      <g>
       <use xlink:href="#mf4260c885b" x="552.903485" y="188.638125" style="stroke: #000000; stroke-width: 0.8"/>
      </g>
     </g>
     <g id="text_29">
      <!-- 2026-03 -->
      <g transform="translate(521.888013 230.555942) rotate(-45) scale(0.1 -0.1)">
       <use xlink:href="#DejaVuSans-32"/>
       <use xlink:href="#DejaVuSans-30" transform="translate(63.623047 0)"/>
       <use xlink:href="#DejaVuSans-32" transform="translate(127.246094 0)"/>
       <use xlink:href="#DejaVuSans-36" transform="translate(190.869141 0)"/>
       <use xlink:href="#DejaVuSans-2d" transform="translate(254.492188 0)"/>
       <use xlink:href="#DejaVuSans-30" transform="translate(290.576172 0)"/>
       <use xlink:href="#DejaVuSans-33" transform="translate(354.199219 0)"/>
      </g>
     </g>
    </g>
   </g>
   <g id="matplotlib.axis_4">
    <g id="ytick_4">
     <g id="line2d_57">
      <path d="M 52.079375 187.711115 
L 554.279375 187.711115 
" clip-path="url(#pe625c49b46)" style="fill: none; stroke: #b0b0b0; stroke-opacity: 0.15; stroke-width: 0.8; stroke-linecap: square"/>
     </g>
     <g id="line2d_58">
      <g>
       <use xlink:href="#m02d0bd29a7" x="52.079375" y="187.711115" style="stroke: #000000; stroke-width: 0.8"/>
      </g>
     </g>
     <g id="text_30">
      <!-- 1.35 -->
      <g transform="translate(22.81375 191.510334) scale(0.1 -0.1)">
       <defs>
        <path id="DejaVuSans-2e" d="M 684 794 
L 1344 794 
L 1344 0 
L 684 0 
L 684 794 
z
" transform="scale(0.015625)"/>
       </defs>
       <use xlink:href="#DejaVuSans-31"/>
       <use xlink:href="#DejaVuSans-2e" transform="translate(63.623047 0)"/>
       <use xlink:href="#DejaVuSans-33" transform="translate(95.410156 0)"/>
       <use xlink:href="#DejaVuSans-35" transform="translate(159.033203 0)"/>
      </g>
     </g>
    </g>
    <g id="ytick_5">
     <g id="line2d_59">
      <path d="M 52.079375 173.158366 
L 554.279375 173.158366 
" clip-path="url(#pe625c49b46)" style="fill: none; stroke: #b0b0b0; stroke-opacity: 0.15; stroke-width: 0.8; stroke-linecap: square"/>
     </g>
     <g id="line2d_60">
      <g>
       <use xlink:href="#m02d0bd29a7" x="52.079375" y="173.158366" style="stroke: #000000; stroke-width: 0.8"/>
      </g>
     </g>
     <g id="text_31">
      <!-- 1.40 -->
      <g transform="translate(22.81375 176.957584) scale(0.1 -0.1)">
       <use xlink:href="#DejaVuSans-31"/>
       <use xlink:href="#DejaVuSans-2e" transform="translate(63.623047 0)"/>
       <use xlink:href="#DejaVuSans-34" transform="translate(95.410156 0)"/>
       <use xlink:href="#DejaVuSans-30" transform="translate(159.033203 0)"/>
      </g>
     </g>
    </g>
    <g id="ytick_6">
     <g id="line2d_61">
      <path d="M 52.079375 158.605617 
L 554.279375 158.605617 
" clip-path="url(#pe625c49b46)" style="fill: none; stroke: #b0b0b0; stroke-opacity: 0.15; stroke-width: 0.8; stroke-linecap: square"/>
     </g>
     <g id="line2d_62">
      <g>
       <use xlink:href="#m02d0bd29a7" x="52.079375" y="158.605617" style="stroke: #000000; stroke-width: 0.8"/>
      </g>
     </g>
     <g id="text_32">
      <!-- 1.45 -->
      <g transform="translate(22.81375 162.404835) scale(0.1 -0.1)">
       <use xlink:href="#DejaVuSans-31"/>
       <use xlink:href="#DejaVuSans-2e" transform="translate(63.623047 0)"/>
       <use xlink:href="#DejaVuSans-34" transform="translate(95.410156 0)"/>
       <use xlink:href="#DejaVuSans-35" transform="translate(159.033203 0)"/>
      </g>
     </g>
    </g>
    <g id="text_33">
     <!-- USD/CAD -->
     <g transform="translate(16.318125 200.43375) rotate(-90) scale(0.12 -0.12)">
      <defs>
       <path id="DejaVuSans-44" d="M 1259 4147 
L 1259 519 
L 2022 519 
Q 2988 519 3436 956 
Q 3884 1394 3884 2338 
Q 3884 3275 3436 3711 
Q 2988 4147 2022 4147 
L 1259 4147 
z
M 628 4666 
L 1925 4666 
Q 3281 4666 3915 4102 
Q 4550 3538 4550 2338 
Q 4550 1131 3912 565 
Q 3275 0 1925 0 
L 628 0 
L 628 4666 
z
" transform="scale(0.015625)"/>
       <path id="DejaVuSans-2f" d="M 1625 4666 
L 2156 4666 
L 531 -594 
L 0 -594 
L 1625 4666 
z
" transform="scale(0.015625)"/>
       <path id="DejaVuSans-41" d="M 2188 4044 
L 1331 1722 
L 3047 1722 
L 2188 4044 
z
M 1831 4666 
L 2547 4666 
L 4325 0 
L 3669 0 
L 3244 1197 
L 1141 1197 
L 716 0 
L 50 0 
L 1831 4666 
z
" transform="scale(0.015625)"/>
      </defs>
      <use xlink:href="#DejaVuSans-55"/>
      <use xlink:href="#DejaVuSans-53" transform="translate(73.193359 0)"/>
      <use xlink:href="#DejaVuSans-44" transform="translate(136.669922 0)"/>
      <use xlink:href="#DejaVuSans-2f" transform="translate(213.671875 0)"/>
      <use xlink:href="#DejaVuSans-43" transform="translate(247.363281 0)"/>
      <use xlink:href="#DejaVuSans-41" transform="translate(317.1875 0)"/>
      <use xlink:href="#DejaVuSans-44" transform="translate(385.595703 0)"/>
     </g>
    </g>
   </g>
   <g id="line2d_63">
    <path d="M 53.455265 161.545272 
L 54.831156 158.169034 
L 56.207046 162.243804 
L 57.582937 164.950615 
L 58.958827 161.952749 
L 63.086498 160.613896 
L 64.462389 159.711626 
L 65.838279 161.603483 
L 67.21417 161.574377 
L 68.59006 162.185593 
L 72.717731 164.484927 
L 75.469512 163.611762 
L 76.845402 163.669973 
L 78.221293 162.796808 
L 82.348964 164.65956 
L 83.724854 164.222978 
L 85.100745 165.765569 
L 86.476635 163.961028 
L 87.852526 164.950615 
L 91.980197 162.127382 
L 93.356087 163.961028 
L 94.731978 164.135661 
L 96.107868 171.353825 
L 97.483759 167.511899 
L 101.61143 166.638734 
L 102.98732 167.366372 
L 104.363211 167.715638 
L 105.739101 172.867311 
L 107.114991 176.214443 
L 111.242663 176.30176 
L 112.618553 174.788274 
L 113.994443 176.592815 
L 115.370334 177.349557 
L 120.873896 178.455566 
L 122.249786 179.037676 
L 123.625676 176.243549 
L 125.001567 176.389076 
L 126.377457 177.291346 
L 131.881019 177.436874 
L 133.256909 178.775727 
L 134.6328 177.611507 
L 136.00869 179.27052 
L 140.136361 178.68841 
L 141.512252 179.736208 
L 142.888142 179.765314 
L 144.264033 175.661439 
L 145.639923 175.341278 
L 149.767594 173.071049 
L 151.143485 174.380797 
L 152.519375 174.235269 
L 153.895265 173.478526 
L 155.271156 173.420315 
L 159.398827 174.788274 
L 160.774717 174.87559 
L 162.150608 178.339144 
L 163.526498 177.349557 
L 164.902389 180.289213 
M 170.40595 179.677997 
L 171.781841 178.426461 
L 173.157731 178.717516 
L 174.533622 180.522057 
L 178.661293 181.919121 
L 180.037183 181.249694 
L 181.413074 182.821391 
L 182.788964 182.850497 
L 184.164854 182.297492 
L 188.292526 182.617653 
L 189.668416 182.384809 
L 191.044307 182.996024 
L 192.420197 184.363983 
L 193.796087 185.528203 
L 197.923759 186.081207 
L 199.299649 185.178937 
L 200.675539 182.384809 
M 203.42732 180.754901 
L 207.554991 179.765314 
L 208.930882 181.569855 
L 210.306772 180.43474 
L 211.682663 183.956506 
L 213.058553 182.879602 
L 217.186224 184.218455 
L 218.562115 183.083341 
L 219.938005 184.218455 
L 221.313896 185.99389 
M 226.817457 183.519923 
L 229.569238 182.064648 
L 230.945128 182.413914 
L 232.321019 182.530336 
L 236.44869 182.064648 
L 237.82458 181.511644 
L 239.200471 181.715382 
L 240.576361 180.463846 
L 241.952252 181.569855 
L 246.079923 182.210176 
L 247.455813 184.363983 
L 248.831704 184.538616 
L 250.207594 183.549029 
L 251.583485 181.482538 
L 255.711156 181.366116 
L 257.087046 179.648892 
L 258.462937 178.571988 
L 259.838827 177.669718 
L 261.214717 179.619786 
L 265.342389 179.707103 
L 266.718279 179.590681 
L 268.09417 180.754901 
L 269.47006 180.463846 
L 270.84595 180.376529 
L 274.973622 179.474259 
L 276.349512 180.085474 
L 277.725402 180.027263 
L 279.101293 178.804832 
L 284.604854 178.542883 
L 285.980745 177.262241 
L 287.356635 176.825659 
L 288.732526 176.068916 
L 290.108416 177.669718 
L 295.611978 178.310039 
L 296.987868 178.251828 
L 298.363759 180.43474 
L 299.739649 181.133272 
M 305.243211 179.445153 
L 306.619101 179.357837 
L 307.994991 178.164511 
L 309.370882 178.310039 
L 313.498553 178.397355 
L 314.874443 177.989878 
L 316.250334 177.727929 
L 317.626224 178.1063 
L 319.002115 177.291346 
L 323.129786 179.066782 
L 324.505676 180.580268 
L 325.881567 180.11458 
L 327.257457 179.095887 
L 328.633348 179.794419 
L 332.761019 178.571988 
L 334.136909 177.989878 
L 335.5128 176.243549 
L 336.88869 175.399489 
L 338.26458 174.730063 
L 342.392252 175.952494 
L 346.519923 173.915109 
L 347.895813 174.730063 
L 352.023485 174.759168 
L 354.775265 174.526324 
L 356.151156 172.896416 
L 357.527046 173.245682 
M 363.030608 171.96504 
L 364.406498 172.197884 
L 365.782389 171.848618 
L 367.158279 171.819513 
L 371.28595 172.314306 
L 372.661841 172.867311 
L 374.037731 173.798687 
L 375.413622 173.420315 
L 376.789512 172.779994 
L 380.917183 173.303893 
L 382.293074 174.992012 
L 383.668964 176.272654 
L 385.044854 173.682265 
L 386.420745 172.867311 
L 390.548416 171.732196 
L 391.924307 170.80082 
L 393.300197 170.014972 
L 394.676087 169.461967 
L 396.051978 170.975453 
L 400.179649 172.314306 
M 402.93143 173.158366 
L 405.683211 172.488939 
L 409.810882 172.343412 
L 411.186772 173.274788 
L 412.562663 171.732196 
L 413.938553 170.48066 
L 415.314443 170.422449 
L 420.818005 169.811233 
L 422.193896 171.673985 
M 424.945676 173.915109 
L 430.449238 173.507632 
L 431.825128 174.613641 
L 433.201019 174.933801 
L 434.576909 177.291346 
L 438.70458 177.640612 
L 440.080471 178.048089 
L 441.456361 177.989878 
L 442.832252 179.881736 
L 444.208142 179.474259 
L 448.335813 179.998158 
L 449.711704 180.463846 
L 451.087594 179.241415 
L 452.463485 180.085474 
L 453.839375 179.561575 
L 457.967046 180.609373 
L 459.342937 181.511644 
L 460.718827 182.734075 
M 463.470608 182.996024 
L 467.598279 182.472125 
L 468.97417 182.530336 
L 470.35006 181.540749 
M 473.101841 180.784006 
L 477.229512 180.231002 
L 478.605402 179.299626 
L 481.357183 177.116713 
L 482.733074 176.272654 
L 486.860745 176.767448 
L 488.236635 176.505498 
L 489.612526 176.912975 
L 492.364307 175.486806 
M 497.867868 178.36825 
L 499.243759 178.601094 
L 500.619649 179.008571 
L 501.995539 181.133272 
L 506.123211 182.122859 
L 507.499101 184.858776 
L 508.874991 185.528203 
L 510.250882 187.187216 
L 515.754443 182.559442 
L 517.130334 183.519923 
L 518.506224 182.850497 
L 519.882115 182.76318 
L 525.385676 185.67373 
L 526.761567 186.750633 
L 528.137457 185.702835 
L 529.513348 184.131139 
L 530.889238 184.276666 
M 536.3928 183.287079 
L 539.14458 181.86091 
L 540.520471 182.239281 
L 544.648142 182.326598 
L 546.024033 181.831804 
L 547.399923 182.326598 
L 548.775813 182.384809 
L 550.151704 183.869189 
L 550.151704 183.869189 
" clip-path="url(#pe625c49b46)" style="fill: none; stroke: #2ca02c; stroke-width: 1.2; stroke-linecap: square"/>
   </g>
   <g id="patch_8">
    <path d="M 52.079375 188.638125 
L 52.079375 156.718125 
" style="fill: none; stroke: #000000; stroke-width: 0.8; stroke-linejoin: miter; stroke-linecap: square"/>
   </g>
   <g id="patch_9">
    <path d="M 554.279375 188.638125 
L 554.279375 156.718125 
" style="fill: none; stroke: #000000; stroke-width: 0.8; stroke-linejoin: miter; stroke-linecap: square"/>
   </g>
   <g id="patch_10">
    <path d="M 52.079375 188.638125 
L 554.279375 188.638125 
" style="fill: none; stroke: #000000; stroke-width: 0.8; stroke-linejoin: miter; stroke-linecap: square"/>
   </g>
   <g id="patch_11">
    <path d="M 52.079375 156.718125 
L 554.279375 156.718125 
" style="fill: none; stroke: #000000; stroke-width: 0.8; stroke-linejoin: miter; stroke-linecap: square"/>
   </g>
  </g>
 </g>
 <defs>
  <clipPath id="pd43ffa6eaa">
   <rect x="52.079375" y="22.318125" width="502.2" height="91.2"/>
  </clipPath>
  <clipPath id="pe625c49b46">
   <rect x="52.079375" y="156.718125" width="502.2" height="31.92"/>
  </clipPath>
 </defs>
</svg>
