<?xml version="1.0" encoding="utf-8" standalone="no"?>
<!DOCTYPE svg PUBLIC "-//W3C//DTD SVG 1.1//EN"
  "http://www.w3.org/Graphics/SVG/1.1/DTD/svg11.dtd">
<svg xmlns:xlink="http://www.w3.org/1999/xlink" width="561.479375pt" height="239.226503pt" viewBox="0 0 561.479375 239.226503" xmlns="http://www.w3.org/2000/svg" version="1.1">
 <metadata>
  <rdf:RDF xmlns:dc="http://purl.org/dc/elements/1.1/" xmlns:cc="http://creativecommons.org/ns#" xmlns:rdf="http://www.w3.org/1999/02/22-rdf-syntax-ns#">
   <cc:Work>
    <dc:type rdf:resource="http://purl.org/dc/dcmitype/StillImage"/>
    <dc:date>2026-02-26T14:15:42.781899</dc:date>
    <dc:format>image/svg+xml</dc:format>
    <dc:creator>
     <cc:Agent>
      <dc:title>Matplotlib v3.10.8, https://matplotlib.org/</dc:title>
     </cc:Agent>
    </dc:creator>
   </cc:Work>
  </rdf:RDF>
 </metadata>
 <defs>
  <style type="text/css">*{stroke-linejoin: round; stroke-linecap: butt}</style>
 </defs>
 <g id="figure_1">
  <g id="patch_1">
   <path d="M -0 239.226503 
L 561.479375 239.226503 
L 561.479375 0 
L -0 0 
z
" style="fill: #ffffff"/>
  </g>
  <g id="axes_1">
   <g id="patch_2">
    <path d="M 52.079375 113.518125 
L 554.279375 113.518125 
L 554.279375 22.318125 
L 52.079375 22.318125 
z
" style="fill: #ffffff"/>
   </g>
   <g id="matplotlib.axis_1">
    <g id="xtick_1">
     <g id="line2d_1">
      <path d="M 57.582937 113.518125 
L 57.582937 22.318125 
" clip-path="url(#p8caf3c8cad)" style="fill: none; stroke: #b0b0b0; stroke-opacity: 0.2; stroke-width: 0.8; stroke-linecap: square"/>
     </g>
     <g id="line2d_2">
      <defs>
       <path id="m4c1bc8c57b" d="M 0 0 
L 0 3.5 
" style="stroke: #000000; stroke-width: 0.8"/>
      </defs>
      <g>
       <use xlink:href="#m4c1bc8c57b" x="57.582937" y="113.518125" style="stroke: #000000; stroke-width: 0.8"/>
      </g>
     </g>
     <g id="text_1">
      <!-- 2025-03 -->
      <g transform="translate(26.567465 155.435942) rotate(-45) scale(0.1 -0.1)">
       <defs>
        <path id="DejaVuSans-32" d="M 1228 531 
L 3431 531 
L 3431 0 
L 469 0 
L 469 531 
Q 828 903 1448 1529 
Q 2069 2156 2228 2338 
Q 2531 2678 2651 2914 
Q 2772 3150 2772 3378 
Q 2772 3750 2511 3984 
Q 2250 4219 1831 4219 
Q 1534 4219 1204 4116 
Q 875 4013 500 3803 
L 500 4441 
Q 881 4594 1212 4672 
Q 1544 4750 1819 4750 
Q 2544 4750 2975 4387 
Q 3406 4025 3406 3419 
Q 3406 3131 3298 2873 
Q 3191 2616 2906 2266 
Q 2828 2175 2409 1742 
Q 1991 1309 1228 531 
z
" transform="scale(0.015625)"/>
        <path id="DejaVuSans-30" d="M 2034 4250 
Q 1547 4250 1301 3770 
Q 1056 3291 1056 2328 
Q 1056 1369 1301 889 
Q 1547 409 2034 409 
Q 2525 409 2770 889 
Q 3016 1369 3016 2328 
Q 3016 3291 2770 3770 
Q 2525 4250 2034 4250 
z
M 2034 4750 
Q 2819 4750 3233 4129 
Q 3647 3509 3647 2328 
Q 3647 1150 3233 529 
Q 2819 -91 2034 -91 
Q 1250 -91 836 529 
Q 422 1150 422 2328 
Q 422 3509 836 4129 
Q 1250 4750 2034 4750 
z
" transform="scale(0.015625)"/>
        <path id="DejaVuSans-35" d="M 691 4666 
L 3169 4666 
L 3169 4134 
L 1269 4134 
L 1269 2991 
Q 1406 3038 1543 3061 
Q 1681 3084 1819 3084 
Q 2600 3084 3056 2656 
Q 3513 2228 3513 1497 
Q 3513 744 3044 326 
Q 2575 -91 1722 -91 
Q 1428 -91 1123 -41 
Q 819 9 494 109 
L 494 744 
Q 775 591 1075 516 
Q 1375 441 1709 441 
Q 2250 441 2565 725 
Q 2881 1009 2881 1497 
Q 2881 1984 2565 2268 
Q 2250 2553 1709 2553 
Q 1456 2553 1204 2497 
Q 953 2441 691 2322 
L 691 4666 
z
" transform="scale(0.015625)"/>
        <path id="DejaVuSans-2d" d="M 313 2009 
L 1997 2009 
L 1997 1497 
L 313 1497 
L 313 2009 
z
" transform="scale(0.015625)"/>
        <path id="DejaVuSans-33" d="M 2597 2516 
Q 3050 2419 3304 2112 
Q 3559 1806 3559 1356 
Q 3559 666 3084 287 
Q 2609 -91 1734 -91 
Q 1441 -91 1130 -33 
Q 819 25 488 141 
L 488 750 
Q 750 597 1062 519 
Q 1375 441 1716 441 
Q 2309 441 2620 675 
Q 2931 909 2931 1356 
Q 2931 1769 2642 2001 
Q 2353 2234 1838 2234 
L 1294 2234 
L 1294 2753 
L 1863 2753 
Q 2328 2753 2575 2939 
Q 2822 3125 2822 3475 
Q 2822 3834 2567 4026 
Q 2313 4219 1838 4219 
Q 1578 4219 1281 4162 
Q 984 4106 628 3988 
L 628 4550 
Q 988 4650 1302 4700 
Q 1616 4750 1894 4750 
Q 2613 4750 3031 4423 
Q 3450 4097 3450 3541 
Q 3450 3153 3228 2886 
Q 3006 2619 2597 2516 
z
" transform="scale(0.015625)"/>
       </defs>
       <use xlink:href="#DejaVuSans-32"/>
       <use xlink:href="#DejaVuSans-30" transform="translate(63.623047 0)"/>
       <use xlink:href="#DejaVuSans-32" transform="translate(127.246094 0)"/>
       <use xlink:href="#DejaVuSans-35" transform="translate(190.869141 0)"/>
       <use xlink:href="#DejaVuSans-2d" transform="translate(254.492188 0)"/>
       <use xlink:href="#DejaVuSans-30" transform="translate(290.576172 0)"/>
       <use xlink:href="#DejaVuSans-33" transform="translate(354.199219 0)"/>
      </g>
     </g>
    </g>
    <g id="xtick_2">
     <g id="line2d_3">
      <path d="M 100.235539 113.518125 
L 100.235539 22.318125 
" clip-path="url(#p8caf3c8cad)" style="fill: none; stroke: #b0b0b0; stroke-opacity: 0.2; stroke-width: 0.8; stroke-linecap: square"/>
     </g>
     <g id="line2d_4">
      <g>
       <use xlink:href="#m4c1bc8c57b" x="100.235539" y="113.518125" style="stroke: #000000; stroke-width: 0.8"/>
      </g>
     </g>
     <g id="text_2">
      <!-- 2025-04 -->
      <g transform="translate(69.220068 155.435942) rotate(-45) scale(0.1 -0.1)">
       <defs>
        <path id="DejaVuSans-34" d="M 2419 4116 
L 825 1625 
L 2419 1625 
L 2419 4116 
z
M 2253 4666 
L 3047 4666 
L 3047 1625 
L 3713 1625 
L 3713 1100 
L 3047 1100 
L 3047 0 
L 2419 0 
L 2419 1100 
L 313 1100 
L 313 1709 
L 2253 4666 
z
" transform="scale(0.015625)"/>
       </defs>
       <use xlink:href="#DejaVuSans-32"/>
       <use xlink:href="#DejaVuSans-30" transform="translate(63.623047 0)"/>
       <use xlink:href="#DejaVuSans-32" transform="translate(127.246094 0)"/>
       <use xlink:href="#DejaVuSans-35" transform="translate(190.869141 0)"/>
       <use xlink:href="#DejaVuSans-2d" transform="translate(254.492188 0)"/>
       <use xlink:href="#DejaVuSans-30" transform="translate(290.576172 0)"/>
       <use xlink:href="#DejaVuSans-34" transform="translate(354.199219 0)"/>
      </g>
     </g>
    </g>
    <g id="xtick_3">
     <g id="line2d_5">
      <path d="M 141.512252 113.518125 
L 141.512252 22.318125 
" clip-path="url(#p8caf3c8cad)" style="fill: none; stroke: #b0b0b0; stroke-opacity: 0.2; stroke-width: 0.8; stroke-linecap: square"/>
     </g>
     <g id="line2d_6">
      <g>
       <use xlink:href="#m4c1bc8c57b" x="141.512252" y="113.518125" style="stroke: #000000; stroke-width: 0.8"/>
      </g>
     </g>
     <g id="text_3">
      <!-- 2025-05 -->
      <g transform="translate(110.496781 155.435942) rotate(-45) scale(0.1 -0.1)">
       <use xlink:href="#DejaVuSans-32"/>
       <use xlink:href="#DejaVuSans-30" transform="translate(63.623047 0)"/>
       <use xlink:href="#DejaVuSans-32" transform="translate(127.246094 0)"/>
       <use xlink:href="#DejaVuSans-35" transform="translate(190.869141 0)"/>
       <use xlink:href="#DejaVuSans-2d" transform="translate(254.492188 0)"/>
       <use xlink:href="#DejaVuSans-30" transform="translate(290.576172 0)"/>
       <use xlink:href="#DejaVuSans-35" transform="translate(354.199219 0)"/>
      </g>
     </g>
    </g>
    <g id="xtick_4">
     <g id="line2d_7">
      <path d="M 184.164854 113.518125 
L 184.164854 22.318125 
" clip-path="url(#p8caf3c8cad)" style="fill: none; stroke: #b0b0b0; stroke-opacity: 0.2; stroke-width: 0.8; stroke-linecap: square"/>
     </g>
     <g id="line2d_8">
      <g>
       <use xlink:href="#m4c1bc8c57b" x="184.164854" y="113.518125" style="stroke: #000000; stroke-width: 0.8"/>
      </g>
     </g>
     <g id="text_4">
      <!-- 2025-06 -->
      <g transform="translate(153.149383 155.435942) rotate(-45) scale(0.1 -0.1)">
       <defs>
        <path id="DejaVuSans-36" d="M 2113 2584 
Q 1688 2584 1439 2293 
Q 1191 2003 1191 1497 
Q 1191 994 1439 701 
Q 1688 409 2113 409 
Q 2538 409 2786 701 
Q 3034 994 3034 1497 
Q 3034 2003 2786 2293 
Q 2538 2584 2113 2584 
z
M 3366 4563 
L 3366 3988 
Q 3128 4100 2886 4159 
Q 2644 4219 2406 4219 
Q 1781 4219 1451 3797 
Q 1122 3375 1075 2522 
Q 1259 2794 1537 2939 
Q 1816 3084 2150 3084 
Q 2853 3084 3261 2657 
Q 3669 2231 3669 1497 
Q 3669 778 3244 343 
Q 2819 -91 2113 -91 
Q 1303 -91 875 529 
Q 447 1150 447 2328 
Q 447 3434 972 4092 
Q 1497 4750 2381 4750 
Q 2619 4750 2861 4703 
Q 3103 4656 3366 4563 
z
" transform="scale(0.015625)"/>
       </defs>
       <use xlink:href="#DejaVuSans-32"/>
       <use xlink:href="#DejaVuSans-30" transform="translate(63.623047 0)"/>
       <use xlink:href="#DejaVuSans-32" transform="translate(127.246094 0)"/>
       <use xlink:href="#DejaVuSans-35" transform="translate(190.869141 0)"/>
       <use xlink:href="#DejaVuSans-2d" transform="translate(254.492188 0)"/>
       <use xlink:href="#DejaVuSans-30" transform="translate(290.576172 0)"/>
       <use xlink:href="#DejaVuSans-36" transform="translate(354.199219 0)"/>
      </g>
     </g>
    </g>
    <g id="xtick_5">
     <g id="line2d_9">
      <path d="M 225.441567 113.518125 
L 225.441567 22.318125 
" clip-path="url(#p8caf3c8cad)" style="fill: none; stroke: #b0b0b0; stroke-opacity: 0.2; stroke-width: 0.8; stroke-linecap: square"/>
     </g>
     <g id="line2d_10">
      <g>
       <use xlink:href="#m4c1bc8c57b" x="225.441567" y="113.518125" style="stroke: #000000; stroke-width: 0.8"/>
      </g>
     </g>
     <g id="text_5">
      <!-- 2025-07 -->
      <g transform="translate(194.426096 155.435942) rotate(-45) scale(0.1 -0.1)">
       <defs>
        <path id="DejaVuSans-37" d="M 525 4666 
L 3525 4666 
L 3525 4397 
L 1831 0 
L 1172 0 
L 2766 4134 
L 525 4134 
L 525 4666 
z
" transform="scale(0.015625)"/>
       </defs>
       <use xlink:href="#DejaVuSans-32"/>
       <use xlink:href="#DejaVuSans-30" transform="translate(63.623047 0)"/>
       <use xlink:href="#DejaVuSans-32" transform="translate(127.246094 0)"/>
       <use xlink:href="#DejaVuSans-35" transform="translate(190.869141 0)"/>
       <use xlink:href="#DejaVuSans-2d" transform="translate(254.492188 0)"/>
       <use xlink:href="#DejaVuSans-30" transform="translate(290.576172 0)"/>
       <use xlink:href="#DejaVuSans-37" transform="translate(354.199219 0)"/>
      </g>
     </g>
    </g>
    <g id="xtick_6">
     <g id="line2d_11">
      <path d="M 268.09417 113.518125 
L 268.09417 22.318125 
" clip-path="url(#p8caf3c8cad)" style="fill: none; stroke: #b0b0b0; stroke-opacity: 0.2; stroke-width: 0.8; stroke-linecap: square"/>
     </g>
     <g id="line2d_12">
      <g>
       <use xlink:href="#m4c1bc8c57b" x="268.09417" y="113.518125" style="stroke: #000000; stroke-width: 0.8"/>
      </g>
     </g>
     <g id="text_6">
      <!-- 2025-08 -->
      <g transform="translate(237.078698 155.435942) rotate(-45) scale(0.1 -0.1)">
       <defs>
        <path id="DejaVuSans-38" d="M 2034 2216 
Q 1584 2216 1326 1975 
Q 1069 1734 1069 1313 
Q 1069 891 1326 650 
Q 1584 409 2034 409 
Q 2484 409 2743 651 
Q 3003 894 3003 1313 
Q 3003 1734 2745 1975 
Q 2488 2216 2034 2216 
z
M 1403 2484 
Q 997 2584 770 2862 
Q 544 3141 544 3541 
Q 544 4100 942 4425 
Q 1341 4750 2034 4750 
Q 2731 4750 3128 4425 
Q 3525 4100 3525 3541 
Q 3525 3141 3298 2862 
Q 3072 2584 2669 2484 
Q 3125 2378 3379 2068 
Q 3634 1759 3634 1313 
Q 3634 634 3220 271 
Q 2806 -91 2034 -91 
Q 1263 -91 848 271 
Q 434 634 434 1313 
Q 434 1759 690 2068 
Q 947 2378 1403 2484 
z
M 1172 3481 
Q 1172 3119 1398 2916 
Q 1625 2713 2034 2713 
Q 2441 2713 2670 2916 
Q 2900 3119 2900 3481 
Q 2900 3844 2670 4047 
Q 2441 4250 2034 4250 
Q 1625 4250 1398 4047 
Q 1172 3844 1172 3481 
z
" transform="scale(0.015625)"/>
       </defs>
       <use xlink:href="#DejaVuSans-32"/>
       <use xlink:href="#DejaVuSans-30" transform="translate(63.623047 0)"/>
       <use xlink:href="#DejaVuSans-32" transform="translate(127.246094 0)"/>
       <use xlink:href="#DejaVuSans-35" transform="translate(190.869141 0)"/>
       <use xlink:href="#DejaVuSans-2d" transform="translate(254.492188 0)"/>
       <use xlink:href="#DejaVuSans-30" transform="translate(290.576172 0)"/>
       <use xlink:href="#DejaVuSans-38" transform="translate(354.199219 0)"/>
      </g>
     </g>
    </g>
    <g id="xtick_7">
     <g id="line2d_13">
      <path d="M 310.746772 113.518125 
L 310.746772 22.318125 
" clip-path="url(#p8caf3c8cad)" style="fill: none; stroke: #b0b0b0; stroke-opacity: 0.2; stroke-width: 0.8; stroke-linecap: square"/>
     </g>
     <g id="line2d_14">
      <g>
       <use xlink:href="#m4c1bc8c57b" x="310.746772" y="113.518125" style="stroke: #000000; stroke-width: 0.8"/>
      </g>
     </g>
     <g id="text_7">
      <!-- 2025-09 -->
      <g transform="translate(279.731301 155.435942) rotate(-45) scale(0.1 -0.1)">
       <defs>
        <path id="DejaVuSans-39" d="M 703 97 
L 703 672 
Q 941 559 1184 500 
Q 1428 441 1663 441 
Q 2288 441 2617 861 
Q 2947 1281 2994 2138 
Q 2813 1869 2534 1725 
Q 2256 1581 1919 1581 
Q 1219 1581 811 2004 
Q 403 2428 403 3163 
Q 403 3881 828 4315 
Q 1253 4750 1959 4750 
Q 2769 4750 3195 4129 
Q 3622 3509 3622 2328 
Q 3622 1225 3098 567 
Q 2575 -91 1691 -91 
Q 1453 -91 1209 -44 
Q 966 3 703 97 
z
M 1959 2075 
Q 2384 2075 2632 2365 
Q 2881 2656 2881 3163 
Q 2881 3666 2632 3958 
Q 2384 4250 1959 4250 
Q 1534 4250 1286 3958 
Q 1038 3666 1038 3163 
Q 1038 2656 1286 2365 
Q 1534 2075 1959 2075 
z
" transform="scale(0.015625)"/>
       </defs>
       <use xlink:href="#DejaVuSans-32"/>
       <use xlink:href="#DejaVuSans-30" transform="translate(63.623047 0)"/>
       <use xlink:href="#DejaVuSans-32" transform="translate(127.246094 0)"/>
       <use xlink:href="#DejaVuSans-35" transform="translate(190.869141 0)"/>
       <use xlink:href="#DejaVuSans-2d" transform="translate(254.492188 0)"/>
       <use xlink:href="#DejaVuSans-30" transform="translate(290.576172 0)"/>
       <use xlink:href="#DejaVuSans-39" transform="translate(354.199219 0)"/>
      </g>
     </g>
    </g>
    <g id="xtick_8">
     <g id="line2d_15">
      <path d="M 352.023485 113.518125 
L 352.023485 22.318125 
" clip-path="url(#p8caf3c8cad)" style="fill: none; stroke: #b0b0b0; stroke-opacity: 0.2; stroke-width: 0.8; stroke-linecap: square"/>
     </g>
     <g id="line2d_16">
      <g>
       <use xlink:href="#m4c1bc8c57b" x="352.023485" y="113.518125" style="stroke: #000000; stroke-width: 0.8"/>
      </g>
     </g>
     <g id="text_8">
      <!-- 2025-10 -->
      <g transform="translate(321.008013 155.435942) rotate(-45) scale(0.1 -0.1)">
       <defs>
        <path id="DejaVuSans-31" d="M 794 531 
L 1825 531 
L 1825 4091 
L 703 3866 
L 703 4441 
L 1819 4666 
L 2450 4666 
L 2450 531 
L 3481 531 
L 3481 0 
L 794 0 
L 794 531 
z
" transform="scale(0.015625)"/>
       </defs>
       <use xlink:href="#DejaVuSans-32"/>
       <use xlink:href="#DejaVuSans-30" transform="translate(63.623047 0)"/>
       <use xlink:href="#DejaVuSans-32" transform="translate(127.246094 0)"/>
       <use xlink:href="#DejaVuSans-35" transform="translate(190.869141 0)"/>
       <use xlink:href="#DejaVuSans-2d" transform="translate(254.492188 0)"/>
       <use xlink:href="#DejaVuSans-31" transform="translate(290.576172 0)"/>
       <use xlink:href="#DejaVuSans-30" transform="translate(354.199219 0)"/>
      </g>
     </g>
    </g>
    <g id="xtick_9">
     <g id="line2d_17">
      <path d="M 394.676087 113.518125 
L 394.676087 22.318125 
" clip-path="url(#p8caf3c8cad)" style="fill: none; stroke: #b0b0b0; stroke-opacity: 0.2; stroke-width: 0.8; stroke-linecap: square"/>
     </g>
     <g id="line2d_18">
      <g>
       <use xlink:href="#m4c1bc8c57b" x="394.676087" y="113.518125" style="stroke: #000000; stroke-width: 0.8"/>
      </g>
     </g>
     <g id="text_9">
      <!-- 2025-11 -->
      <g transform="translate(363.660616 155.435942) rotate(-45) scale(0.1 -0.1)">
       <use xlink:href="#DejaVuSans-32"/>
       <use xlink:href="#DejaVuSans-30" transform="translate(63.623047 0)"/>
       <use xlink:href="#DejaVuSans-32" transform="translate(127.246094 0)"/>
       <use xlink:href="#DejaVuSans-35" transform="translate(190.869141 0)"/>
       <use xlink:href="#DejaVuSans-2d" transform="translate(254.492188 0)"/>
       <use xlink:href="#DejaVuSans-31" transform="translate(290.576172 0)"/>
       <use xlink:href="#DejaVuSans-31" transform="translate(354.199219 0)"/>
      </g>
     </g>
    </g>
    <g id="xtick_10">
     <g id="line2d_19">
      <path d="M 435.9528 113.518125 
L 435.9528 22.318125 
" clip-path="url(#p8caf3c8cad)" style="fill: none; stroke: #b0b0b0; stroke-opacity: 0.2; stroke-width: 0.8; stroke-linecap: square"/>
     </g>
     <g id="line2d_20">
      <g>
       <use xlink:href="#m4c1bc8c57b" x="435.9528" y="113.518125" style="stroke: #000000; stroke-width: 0.8"/>
      </g>
     </g>
     <g id="text_10">
      <!-- 2025-12 -->
      <g transform="translate(404.937328 155.435942) rotate(-45) scale(0.1 -0.1)">
       <use xlink:href="#DejaVuSans-32"/>
       <use xlink:href="#DejaVuSans-30" transform="translate(63.623047 0)"/>
       <use xlink:href="#DejaVuSans-32" transform="translate(127.246094 0)"/>
       <use xlink:href="#DejaVuSans-35" transform="translate(190.869141 0)"/>
       <use xlink:href="#DejaVuSans-2d" transform="translate(254.492188 0)"/>
       <use xlink:href="#DejaVuSans-31" transform="translate(290.576172 0)"/>
       <use xlink:href="#DejaVuSans-32" transform="translate(354.199219 0)"/>
      </g>
     </g>
    </g>
    <g id="xtick_11">
     <g id="line2d_21">
      <path d="M 478.605402 113.518125 
L 478.605402 22.318125 
" clip-path="url(#p8caf3c8cad)" style="fill: none; stroke: #b0b0b0; stroke-opacity: 0.2; stroke-width: 0.8; stroke-linecap: square"/>
     </g>
     <g id="line2d_22">
      <g>
       <use xlink:href="#m4c1bc8c57b" x="478.605402" y="113.518125" style="stroke: #000000; stroke-width: 0.8"/>
      </g>
     </g>
     <g id="text_11">
      <!-- 2026-01 -->
      <g transform="translate(447.589931 155.435942) rotate(-45) scale(0.1 -0.1)">
       <use xlink:href="#DejaVuSans-32"/>
       <use xlink:href="#DejaVuSans-30" transform="translate(63.623047 0)"/>
       <use xlink:href="#DejaVuSans-32" transform="translate(127.246094 0)"/>
       <use xlink:href="#DejaVuSans-36" transform="translate(190.869141 0)"/>
       <use xlink:href="#DejaVuSans-2d" transform="translate(254.492188 0)"/>
       <use xlink:href="#DejaVuSans-30" transform="translate(290.576172 0)"/>
       <use xlink:href="#DejaVuSans-31" transform="translate(354.199219 0)"/>
      </g>
     </g>
    </g>
    <g id="xtick_12">
     <g id="line2d_23">
      <path d="M 521.258005 113.518125 
L 521.258005 22.318125 
" clip-path="url(#p8caf3c8cad)" style="fill: none; stroke: #b0b0b0; stroke-opacity: 0.2; stroke-width: 0.8; stroke-linecap: square"/>
     </g>
     <g id="line2d_24">
      <g>
       <use xlink:href="#m4c1bc8c57b" x="521.258005" y="113.518125" style="stroke: #000000; stroke-width: 0.8"/>
      </g>
     </g>
     <g id="text_12">
      <!-- 2026-02 -->
      <g transform="translate(490.242534 155.435942) rotate(-45) scale(0.1 -0.1)">
       <use xlink:href="#DejaVuSans-32"/>
       <use xlink:href="#DejaVuSans-30" transform="translate(63.623047 0)"/>
       <use xlink:href="#DejaVuSans-32" transform="translate(127.246094 0)"/>
       <use xlink:href="#DejaVuSans-36" transform="translate(190.869141 0)"/>
       <use xlink:href="#DejaVuSans-2d" transform="translate(254.492188 0)"/>
       <use xlink:href="#DejaVuSans-30" transform="translate(290.576172 0)"/>
       <use xlink:href="#DejaVuSans-32" transform="translate(354.199219 0)"/>
      </g>
     </g>
    </g>
   </g>
   <g id="matplotlib.axis_2">
    <g id="ytick_1">
     <g id="line2d_25">
      <path d="M 52.079375 109.37267 
L 554.279375 109.37267 
" clip-path="url(#p8caf3c8cad)" style="fill: none; stroke: #b0b0b0; stroke-opacity: 0.2; stroke-width: 0.8; stroke-linecap: square"/>
     </g>
     <g id="line2d_26">
      <defs>
       <path id="m284c9fbd82" d="M 0 0 
L -3.5 0 
" style="stroke: #000000; stroke-width: 0.8"/>
      </defs>
      <g>
       <use xlink:href="#m284c9fbd82" x="52.079375" y="109.37267" style="stroke: #000000; stroke-width: 0.8"/>
      </g>
     </g>
     <g id="text_13">
      <!-- 0 -->
      <g transform="translate(38.716875 113.171889) scale(0.1 -0.1)">
       <use xlink:href="#DejaVuSans-30"/>
      </g>
     </g>
    </g>
    <g id="ytick_2">
     <g id="line2d_27">
      <path d="M 52.079375 79.113878 
L 554.279375 79.113878 
" clip-path="url(#p8caf3c8cad)" style="fill: none; stroke: #b0b0b0; stroke-opacity: 0.2; stroke-width: 0.8; stroke-linecap: square"/>
     </g>
     <g id="line2d_28">
      <g>
       <use xlink:href="#m284c9fbd82" x="52.079375" y="79.113878" style="stroke: #000000; stroke-width: 0.8"/>
      </g>
     </g>
     <g id="text_14">
      <!-- 50 -->
      <g transform="translate(32.354375 82.913097) scale(0.1 -0.1)">
       <use xlink:href="#DejaVuSans-35"/>
       <use xlink:href="#DejaVuSans-30" transform="translate(63.623047 0)"/>
      </g>
     </g>
    </g>
    <g id="ytick_3">
     <g id="line2d_29">
      <path d="M 52.079375 48.855086 
L 554.279375 48.855086 
" clip-path="url(#p8caf3c8cad)" style="fill: none; stroke: #b0b0b0; stroke-opacity: 0.2; stroke-width: 0.8; stroke-linecap: square"/>
     </g>
     <g id="line2d_30">
      <g>
       <use xlink:href="#m284c9fbd82" x="52.079375" y="48.855086" style="stroke: #000000; stroke-width: 0.8"/>
      </g>
     </g>
     <g id="text_15">
      <!-- 100 -->
      <g transform="translate(25.991875 52.654305) scale(0.1 -0.1)">
       <use xlink:href="#DejaVuSans-31"/>
       <use xlink:href="#DejaVuSans-30" transform="translate(63.623047 0)"/>
       <use xlink:href="#DejaVuSans-30" transform="translate(127.246094 0)"/>
      </g>
     </g>
    </g>
    <g id="text_16">
     <!-- bp -->
     <g transform="translate(19.912187 74.266562) rotate(-90) scale(0.1 -0.1)">
      <defs>
       <path id="DejaVuSans-62" d="M 3116 1747 
Q 3116 2381 2855 2742 
Q 2594 3103 2138 3103 
Q 1681 3103 1420 2742 
Q 1159 2381 1159 1747 
Q 1159 1113 1420 752 
Q 1681 391 2138 391 
Q 2594 391 2855 752 
Q 3116 1113 3116 1747 
z
M 1159 2969 
Q 1341 3281 1617 3432 
Q 1894 3584 2278 3584 
Q 2916 3584 3314 3078 
Q 3713 2572 3713 1747 
Q 3713 922 3314 415 
Q 2916 -91 2278 -91 
Q 1894 -91 1617 61 
Q 1341 213 1159 525 
L 1159 0 
L 581 0 
L 581 4863 
L 1159 4863 
L 1159 2969 
z
" transform="scale(0.015625)"/>
       <path id="DejaVuSans-70" d="M 1159 525 
L 1159 -1331 
L 581 -1331 
L 581 3500 
L 1159 3500 
L 1159 2969 
Q 1341 3281 1617 3432 
Q 1894 3584 2278 3584 
Q 2916 3584 3314 3078 
Q 3713 2572 3713 1747 
Q 3713 922 3314 415 
Q 2916 -91 2278 -91 
Q 1894 -91 1617 61 
Q 1341 213 1159 525 
z
M 3116 1747 
Q 3116 2381 2855 2742 
Q 2594 3103 2138 3103 
Q 1681 3103 1420 2742 
Q 1159 2381 1159 1747 
Q 1159 1113 1420 752 
Q 1681 391 2138 391 
Q 2594 391 2855 752 
Q 3116 1113 3116 1747 
z
" transform="scale(0.015625)"/>
      </defs>
      <use xlink:href="#DejaVuSans-62"/>
      <use xlink:href="#DejaVuSans-70" transform="translate(63.476562 0)"/>
     </g>
    </g>
   </g>
   <g id="line2d_31">
    <path d="M 52.079375 30.094635 
L 53.455265 32.515338 
L 54.831156 29.489459 
L 56.207046 28.279107 
L 60.334717 27.673931 
L 61.710608 26.46358 
L 63.086498 28.884283 
L 64.462389 35.541217 
L 65.838279 31.304986 
L 69.96595 34.330866 
L 71.341841 32.515338 
L 74.093622 34.936041 
L 75.469512 33.72569 
L 79.597183 31.304986 
L 80.973074 32.515338 
L 82.348964 33.120514 
L 83.724854 34.330866 
L 89.228416 31.910162 
L 90.604307 33.72569 
L 91.980197 34.936041 
L 93.356087 31.304986 
L 94.731978 33.72569 
L 98.859649 33.120514 
L 100.235539 33.72569 
L 101.61143 33.120514 
L 102.98732 41.592976 
L 104.363211 41.592976 
L 108.490882 42.198152 
L 109.866772 39.172272 
L 111.242663 39.172272 
L 112.618553 37.961921 
L 113.994443 35.541217 
L 118.122115 33.120514 
L 119.498005 34.330866 
L 120.873896 36.146393 
L 123.625676 36.146393 
L 127.753348 37.356745 
L 129.129238 35.541217 
L 130.505128 38.567096 
L 131.881019 40.382624 
L 133.256909 41.592976 
L 137.38458 44.618855 
L 138.760471 44.618855 
L 140.136361 42.803327 
L 141.512252 39.777448 
L 142.888142 39.777448 
L 147.015813 37.356745 
L 148.391704 39.777448 
L 151.143485 38.567096 
L 152.519375 35.541217 
L 156.647046 33.72569 
L 158.022937 32.515338 
L 160.774717 31.304986 
L 162.150608 33.120514 
L 166.278279 31.304986 
L 167.65417 37.356745 
L 169.03006 37.356745 
L 171.781841 38.567096 
L 175.909512 37.356745 
L 177.285402 37.961921 
L 178.661293 34.936041 
L 181.413074 36.146393 
L 185.540745 34.936041 
L 186.916635 37.356745 
L 188.292526 40.382624 
L 189.668416 39.777448 
L 191.044307 38.567096 
L 195.171978 40.9878 
L 196.547868 40.9878 
L 197.923759 44.618855 
L 199.299649 47.039558 
L 200.675539 46.434382 
L 204.803211 45.224031 
L 206.179101 47.644734 
L 207.554991 45.829207 
L 208.930882 45.829207 
L 210.306772 44.013679 
L 214.434443 44.618855 
L 215.810334 46.434382 
L 217.186224 50.670613 
L 218.562115 53.091317 
L 219.938005 50.065438 
L 224.065676 51.275789 
L 225.441567 50.065438 
L 226.817457 52.486141 
L 229.569238 48.855086 
L 233.696909 48.855086 
L 235.0728 49.460262 
L 239.200471 53.091317 
L 243.328142 53.696493 
L 244.704033 54.906844 
L 246.079923 55.51202 
L 247.455813 54.906844 
L 248.831704 56.722372 
L 252.959375 56.722372 
L 254.335265 57.932724 
L 255.711156 58.537899 
L 257.087046 56.117196 
L 258.462937 56.117196 
L 262.590608 54.906844 
L 263.966498 56.722372 
L 265.342389 54.906844 
L 266.718279 53.696493 
L 268.09417 57.932724 
L 272.221841 58.537899 
L 273.597731 58.537899 
L 274.973622 59.143075 
L 276.349512 58.537899 
L 277.725402 55.51202 
L 281.853074 56.117196 
L 283.228964 57.327548 
L 284.604854 57.932724 
L 285.980745 56.117196 
L 287.356635 56.722372 
L 291.484307 57.932724 
L 292.860197 57.327548 
L 294.236087 57.932724 
L 295.611978 57.932724 
L 296.987868 59.143075 
L 301.115539 60.353427 
L 302.49143 60.353427 
L 303.86732 61.563779 
L 305.243211 60.958603 
L 306.619101 57.932724 
L 310.746772 57.932724 
L 314.874443 59.748251 
L 316.250334 59.143075 
L 320.378005 58.537899 
L 321.753896 57.327548 
L 323.129786 56.722372 
L 324.505676 57.932724 
L 325.881567 56.117196 
L 332.761019 56.117196 
L 334.136909 53.696493 
L 335.5128 52.486141 
L 339.640471 51.275789 
L 341.016361 53.091317 
L 342.392252 51.275789 
L 343.768142 51.275789 
L 345.144033 50.670613 
L 349.271704 50.065438 
L 350.647594 49.460262 
L 352.023485 53.091317 
L 353.399375 53.696493 
L 354.775265 52.486141 
L 358.902937 50.670613 
L 360.278827 51.880965 
L 361.654717 52.486141 
L 363.030608 52.486141 
L 364.406498 56.722372 
L 368.53417 56.722372 
L 369.91006 55.51202 
L 371.28595 53.091317 
L 372.661841 54.301668 
L 374.037731 53.091317 
L 378.165402 51.880965 
L 379.541293 54.906844 
L 380.917183 54.906844 
L 383.668964 52.486141 
L 387.796635 51.275789 
L 389.172526 51.880965 
L 390.548416 53.091317 
L 391.924307 50.065438 
L 393.300197 49.460262 
L 397.427868 50.065438 
L 398.803759 51.880965 
L 400.179649 48.24991 
L 401.555539 48.24991 
L 402.93143 52.486141 
L 407.059101 51.275789 
L 408.434991 51.275789 
L 409.810882 52.486141 
L 412.562663 53.696493 
L 416.690334 54.906844 
L 418.066224 56.722372 
L 419.442115 56.117196 
L 420.818005 56.117196 
L 422.193896 57.327548 
L 427.697457 57.327548 
L 430.449238 56.117196 
L 431.825128 56.117196 
L 435.9528 57.932724 
L 437.32869 57.932724 
L 438.70458 58.537899 
L 440.080471 57.932724 
L 441.456361 65.80001 
L 445.584033 63.984482 
L 446.959923 65.80001 
L 448.335813 66.405185 
L 449.711704 65.80001 
L 451.087594 63.984482 
L 455.215265 62.77413 
L 456.591156 63.984482 
L 457.967046 64.589658 
L 459.342937 65.80001 
L 460.718827 67.615537 
L 464.846498 66.405185 
L 466.222389 63.379306 
L 467.598279 63.984482 
L 468.97417 63.984482 
L 470.35006 64.589658 
L 474.477731 65.194834 
L 475.853622 65.194834 
L 477.229512 63.379306 
L 478.605402 63.379306 
L 479.981293 65.80001 
L 484.108964 63.984482 
L 485.484854 63.984482 
L 486.860745 63.379306 
L 488.236635 61.563779 
L 489.612526 60.958603 
L 493.740197 61.563779 
L 495.116087 62.77413 
L 496.491978 61.563779 
L 497.867868 59.748251 
L 499.243759 56.722372 
L 503.37143 57.932724 
L 504.74732 56.117196 
L 506.123211 58.537899 
L 507.499101 57.327548 
L 508.874991 59.143075 
L 513.002663 57.932724 
L 514.378553 59.143075 
L 515.754443 58.537899 
L 517.130334 59.143075 
L 518.506224 58.537899 
L 522.633896 57.327548 
L 524.009786 58.537899 
L 525.385676 57.327548 
L 526.761567 60.353427 
L 528.137457 59.748251 
L 532.265128 59.143075 
L 533.641019 60.958603 
L 535.016909 58.537899 
L 536.3928 60.353427 
L 537.76869 61.563779 
L 541.896361 61.563779 
L 543.272252 59.748251 
L 544.648142 57.327548 
L 547.399923 57.327548 
L 551.527594 57.932724 
L 552.903485 57.327548 
L 554.279375 58.537899 
L 554.279375 58.537899 
" clip-path="url(#p8caf3c8cad)" style="fill: none; stroke: #444444; stroke-width: 1.5; stroke-linecap: square"/>
    <defs>
     <path id="m374e661c5d" d="M 0 1 
C 0.265203 1 0.51958 0.894634 0.707107 0.707107 
C 0.894634 0.51958 1 0.265203 1 0 
C 1 -0.265203 0.894634 -0.51958 0.707107 -0.707107 
C 0.51958 -0.894634 0.265203 -1 0 -1 
C -0.265203 -1 -0.51958 -0.894634 -0.707107 -0.707107 
C -0.894634 -0.51958 -1 -0.265203 -1 0 
C -1 0.265203 -0.894634 0.51958 -0.707107 0.707107 
C -0.51958 0.894634 -0.265203 1 0 1 
z
" style="stroke: #444444"/>
    </defs>
    <g clip-path="url(#p8caf3c8cad)">
     <use xlink:href="#m374e661c5d" x="52.079375" y="30.094635" style="fill: #444444; stroke: #444444"/>
     <use xlink:href="#m374e661c5d" x="53.455265" y="32.515338" style="fill: #444444; stroke: #444444"/>
     <use xlink:href="#m374e661c5d" x="54.831156" y="29.489459" style="fill: #444444; stroke: #444444"/>
     <use xlink:href="#m374e661c5d" x="56.207046" y="28.279107" style="fill: #444444; stroke: #444444"/>
     <use xlink:href="#m374e661c5d" x="60.334717" y="27.673931" style="fill: #444444; stroke: #444444"/>
     <use xlink:href="#m374e661c5d" x="61.710608" y="26.46358" style="fill: #444444; stroke: #444444"/>
     <use xlink:href="#m374e661c5d" x="63.086498" y="28.884283" style="fill: #444444; stroke: #444444"/>
     <use xlink:href="#m374e661c5d" x="64.462389" y="35.541217" style="fill: #444444; stroke: #444444"/>
     <use xlink:href="#m374e661c5d" x="65.838279" y="31.304986" style="fill: #444444; stroke: #444444"/>
     <use xlink:href="#m374e661c5d" x="69.96595" y="34.330866" style="fill: #444444; stroke: #444444"/>
     <use xlink:href="#m374e661c5d" x="71.341841" y="32.515338" style="fill: #444444; stroke: #444444"/>
     <use xlink:href="#m374e661c5d" x="72.717731" y="33.72569" style="fill: #444444; stroke: #444444"/>
     <use xlink:href="#m374e661c5d" x="74.093622" y="34.936041" style="fill: #444444; stroke: #444444"/>
     <use xlink:href="#m374e661c5d" x="75.469512" y="33.72569" style="fill: #444444; stroke: #444444"/>
     <use xlink:href="#m374e661c5d" x="79.597183" y="31.304986" style="fill: #444444; stroke: #444444"/>
     <use xlink:href="#m374e661c5d" x="80.973074" y="32.515338" style="fill: #444444; stroke: #444444"/>
     <use xlink:href="#m374e661c5d" x="82.348964" y="33.120514" style="fill: #444444; stroke: #444444"/>
     <use xlink:href="#m374e661c5d" x="83.724854" y="34.330866" style="fill: #444444; stroke: #444444"/>
     <use xlink:href="#m374e661c5d" x="85.100745" y="33.72569" style="fill: #444444; stroke: #444444"/>
     <use xlink:href="#m374e661c5d" x="89.228416" y="31.910162" style="fill: #444444; stroke: #444444"/>
     <use xlink:href="#m374e661c5d" x="90.604307" y="33.72569" style="fill: #444444; stroke: #444444"/>
     <use xlink:href="#m374e661c5d" x="91.980197" y="34.936041" style="fill: #444444; stroke: #444444"/>
     <use xlink:href="#m374e661c5d" x="93.356087" y="31.304986" style="fill: #444444; stroke: #444444"/>
     <use xlink:href="#m374e661c5d" x="94.731978" y="33.72569" style="fill: #444444; stroke: #444444"/>
     <use xlink:href="#m374e661c5d" x="98.859649" y="33.120514" style="fill: #444444; stroke: #444444"/>
     <use xlink:href="#m374e661c5d" x="100.235539" y="33.72569" style="fill: #444444; stroke: #444444"/>
     <use xlink:href="#m374e661c5d" x="101.61143" y="33.120514" style="fill: #444444; stroke: #444444"/>
     <use xlink:href="#m374e661c5d" x="102.98732" y="41.592976" style="fill: #444444; stroke: #444444"/>
     <use xlink:href="#m374e661c5d" x="104.363211" y="41.592976" style="fill: #444444; stroke: #444444"/>
     <use xlink:href="#m374e661c5d" x="108.490882" y="42.198152" style="fill: #444444; stroke: #444444"/>
     <use xlink:href="#m374e661c5d" x="109.866772" y="39.172272" style="fill: #444444; stroke: #444444"/>
     <use xlink:href="#m374e661c5d" x="111.242663" y="39.172272" style="fill: #444444; stroke: #444444"/>
     <use xlink:href="#m374e661c5d" x="112.618553" y="37.961921" style="fill: #444444; stroke: #444444"/>
     <use xlink:href="#m374e661c5d" x="113.994443" y="35.541217" style="fill: #444444; stroke: #444444"/>
     <use xlink:href="#m374e661c5d" x="118.122115" y="33.120514" style="fill: #444444; stroke: #444444"/>
     <use xlink:href="#m374e661c5d" x="119.498005" y="34.330866" style="fill: #444444; stroke: #444444"/>
     <use xlink:href="#m374e661c5d" x="120.873896" y="36.146393" style="fill: #444444; stroke: #444444"/>
     <use xlink:href="#m374e661c5d" x="122.249786" y="36.146393" style="fill: #444444; stroke: #444444"/>
     <use xlink:href="#m374e661c5d" x="123.625676" y="36.146393" style="fill: #444444; stroke: #444444"/>
     <use xlink:href="#m374e661c5d" x="127.753348" y="37.356745" style="fill: #444444; stroke: #444444"/>
     <use xlink:href="#m374e661c5d" x="129.129238" y="35.541217" style="fill: #444444; stroke: #444444"/>
     <use xlink:href="#m374e661c5d" x="130.505128" y="38.567096" style="fill: #444444; stroke: #444444"/>
     <use xlink:href="#m374e661c5d" x="131.881019" y="40.382624" style="fill: #444444; stroke: #444444"/>
     <use xlink:href="#m374e661c5d" x="133.256909" y="41.592976" style="fill: #444444; stroke: #444444"/>
     <use xlink:href="#m374e661c5d" x="137.38458" y="44.618855" style="fill: #444444; stroke: #444444"/>
     <use xlink:href="#m374e661c5d" x="138.760471" y="44.618855" style="fill: #444444; stroke: #444444"/>
     <use xlink:href="#m374e661c5d" x="140.136361" y="42.803327" style="fill: #444444; stroke: #444444"/>
     <use xlink:href="#m374e661c5d" x="141.512252" y="39.777448" style="fill: #444444; stroke: #444444"/>
     <use xlink:href="#m374e661c5d" x="142.888142" y="39.777448" style="fill: #444444; stroke: #444444"/>
     <use xlink:href="#m374e661c5d" x="147.015813" y="37.356745" style="fill: #444444; stroke: #444444"/>
     <use xlink:href="#m374e661c5d" x="148.391704" y="39.777448" style="fill: #444444; stroke: #444444"/>
     <use xlink:href="#m374e661c5d" x="149.767594" y="39.172272" style="fill: #444444; stroke: #444444"/>
     <use xlink:href="#m374e661c5d" x="151.143485" y="38.567096" style="fill: #444444; stroke: #444444"/>
     <use xlink:href="#m374e661c5d" x="152.519375" y="35.541217" style="fill: #444444; stroke: #444444"/>
     <use xlink:href="#m374e661c5d" x="156.647046" y="33.72569" style="fill: #444444; stroke: #444444"/>
     <use xlink:href="#m374e661c5d" x="158.022937" y="32.515338" style="fill: #444444; stroke: #444444"/>
     <use xlink:href="#m374e661c5d" x="159.398827" y="31.910162" style="fill: #444444; stroke: #444444"/>
     <use xlink:href="#m374e661c5d" x="160.774717" y="31.304986" style="fill: #444444; stroke: #444444"/>
     <use xlink:href="#m374e661c5d" x="162.150608" y="33.120514" style="fill: #444444; stroke: #444444"/>
     <use xlink:href="#m374e661c5d" x="166.278279" y="31.304986" style="fill: #444444; stroke: #444444"/>
     <use xlink:href="#m374e661c5d" x="167.65417" y="37.356745" style="fill: #444444; stroke: #444444"/>
     <use xlink:href="#m374e661c5d" x="169.03006" y="37.356745" style="fill: #444444; stroke: #444444"/>
     <use xlink:href="#m374e661c5d" x="170.40595" y="37.961921" style="fill: #444444; stroke: #444444"/>
     <use xlink:href="#m374e661c5d" x="171.781841" y="38.567096" style="fill: #444444; stroke: #444444"/>
     <use xlink:href="#m374e661c5d" x="175.909512" y="37.356745" style="fill: #444444; stroke: #444444"/>
     <use xlink:href="#m374e661c5d" x="177.285402" y="37.961921" style="fill: #444444; stroke: #444444"/>
     <use xlink:href="#m374e661c5d" x="178.661293" y="34.936041" style="fill: #444444; stroke: #444444"/>
     <use xlink:href="#m374e661c5d" x="180.037183" y="35.541217" style="fill: #444444; stroke: #444444"/>
     <use xlink:href="#m374e661c5d" x="181.413074" y="36.146393" style="fill: #444444; stroke: #444444"/>
     <use xlink:href="#m374e661c5d" x="185.540745" y="34.936041" style="fill: #444444; stroke: #444444"/>
     <use xlink:href="#m374e661c5d" x="186.916635" y="37.356745" style="fill: #444444; stroke: #444444"/>
     <use xlink:href="#m374e661c5d" x="188.292526" y="40.382624" style="fill: #444444; stroke: #444444"/>
     <use xlink:href="#m374e661c5d" x="189.668416" y="39.777448" style="fill: #444444; stroke: #444444"/>
     <use xlink:href="#m374e661c5d" x="191.044307" y="38.567096" style="fill: #444444; stroke: #444444"/>
     <use xlink:href="#m374e661c5d" x="195.171978" y="40.9878" style="fill: #444444; stroke: #444444"/>
     <use xlink:href="#m374e661c5d" x="196.547868" y="40.9878" style="fill: #444444; stroke: #444444"/>
     <use xlink:href="#m374e661c5d" x="197.923759" y="44.618855" style="fill: #444444; stroke: #444444"/>
     <use xlink:href="#m374e661c5d" x="199.299649" y="47.039558" style="fill: #444444; stroke: #444444"/>
     <use xlink:href="#m374e661c5d" x="200.675539" y="46.434382" style="fill: #444444; stroke: #444444"/>
     <use xlink:href="#m374e661c5d" x="204.803211" y="45.224031" style="fill: #444444; stroke: #444444"/>
     <use xlink:href="#m374e661c5d" x="206.179101" y="47.644734" style="fill: #444444; stroke: #444444"/>
     <use xlink:href="#m374e661c5d" x="207.554991" y="45.829207" style="fill: #444444; stroke: #444444"/>
     <use xlink:href="#m374e661c5d" x="208.930882" y="45.829207" style="fill: #444444; stroke: #444444"/>
     <use xlink:href="#m374e661c5d" x="210.306772" y="44.013679" style="fill: #444444; stroke: #444444"/>
     <use xlink:href="#m374e661c5d" x="214.434443" y="44.618855" style="fill: #444444; stroke: #444444"/>
     <use xlink:href="#m374e661c5d" x="215.810334" y="46.434382" style="fill: #444444; stroke: #444444"/>
     <use xlink:href="#m374e661c5d" x="217.186224" y="50.670613" style="fill: #444444; stroke: #444444"/>
     <use xlink:href="#m374e661c5d" x="218.562115" y="53.091317" style="fill: #444444; stroke: #444444"/>
     <use xlink:href="#m374e661c5d" x="219.938005" y="50.065438" style="fill: #444444; stroke: #444444"/>
     <use xlink:href="#m374e661c5d" x="224.065676" y="51.275789" style="fill: #444444; stroke: #444444"/>
     <use xlink:href="#m374e661c5d" x="225.441567" y="50.065438" style="fill: #444444; stroke: #444444"/>
     <use xlink:href="#m374e661c5d" x="226.817457" y="52.486141" style="fill: #444444; stroke: #444444"/>
     <use xlink:href="#m374e661c5d" x="228.193348" y="50.670613" style="fill: #444444; stroke: #444444"/>
     <use xlink:href="#m374e661c5d" x="229.569238" y="48.855086" style="fill: #444444; stroke: #444444"/>
     <use xlink:href="#m374e661c5d" x="233.696909" y="48.855086" style="fill: #444444; stroke: #444444"/>
     <use xlink:href="#m374e661c5d" x="235.0728" y="49.460262" style="fill: #444444; stroke: #444444"/>
     <use xlink:href="#m374e661c5d" x="236.44869" y="50.670613" style="fill: #444444; stroke: #444444"/>
     <use xlink:href="#m374e661c5d" x="237.82458" y="51.880965" style="fill: #444444; stroke: #444444"/>
     <use xlink:href="#m374e661c5d" x="239.200471" y="53.091317" style="fill: #444444; stroke: #444444"/>
     <use xlink:href="#m374e661c5d" x="243.328142" y="53.696493" style="fill: #444444; stroke: #444444"/>
     <use xlink:href="#m374e661c5d" x="244.704033" y="54.906844" style="fill: #444444; stroke: #444444"/>
     <use xlink:href="#m374e661c5d" x="246.079923" y="55.51202" style="fill: #444444; stroke: #444444"/>
     <use xlink:href="#m374e661c5d" x="247.455813" y="54.906844" style="fill: #444444; stroke: #444444"/>
     <use xlink:href="#m374e661c5d" x="248.831704" y="56.722372" style="fill: #444444; stroke: #444444"/>
     <use xlink:href="#m374e661c5d" x="252.959375" y="56.722372" style="fill: #444444; stroke: #444444"/>
     <use xlink:href="#m374e661c5d" x="254.335265" y="57.932724" style="fill: #444444; stroke: #444444"/>
     <use xlink:href="#m374e661c5d" x="255.711156" y="58.537899" style="fill: #444444; stroke: #444444"/>
     <use xlink:href="#m374e661c5d" x="257.087046" y="56.117196" style="fill: #444444; stroke: #444444"/>
     <use xlink:href="#m374e661c5d" x="258.462937" y="56.117196" style="fill: #444444; stroke: #444444"/>
     <use xlink:href="#m374e661c5d" x="262.590608" y="54.906844" style="fill: #444444; stroke: #444444"/>
     <use xlink:href="#m374e661c5d" x="263.966498" y="56.722372" style="fill: #444444; stroke: #444444"/>
     <use xlink:href="#m374e661c5d" x="265.342389" y="54.906844" style="fill: #444444; stroke: #444444"/>
     <use xlink:href="#m374e661c5d" x="266.718279" y="53.696493" style="fill: #444444; stroke: #444444"/>
     <use xlink:href="#m374e661c5d" x="268.09417" y="57.932724" style="fill: #444444; stroke: #444444"/>
     <use xlink:href="#m374e661c5d" x="272.221841" y="58.537899" style="fill: #444444; stroke: #444444"/>
     <use xlink:href="#m374e661c5d" x="273.597731" y="58.537899" style="fill: #444444; stroke: #444444"/>
     <use xlink:href="#m374e661c5d" x="274.973622" y="59.143075" style="fill: #444444; stroke: #444444"/>
     <use xlink:href="#m374e661c5d" x="276.349512" y="58.537899" style="fill: #444444; stroke: #444444"/>
     <use xlink:href="#m374e661c5d" x="277.725402" y="55.51202" style="fill: #444444; stroke: #444444"/>
     <use xlink:href="#m374e661c5d" x="281.853074" y="56.117196" style="fill: #444444; stroke: #444444"/>
     <use xlink:href="#m374e661c5d" x="283.228964" y="57.327548" style="fill: #444444; stroke: #444444"/>
     <use xlink:href="#m374e661c5d" x="284.604854" y="57.932724" style="fill: #444444; stroke: #444444"/>
     <use xlink:href="#m374e661c5d" x="285.980745" y="56.117196" style="fill: #444444; stroke: #444444"/>
     <use xlink:href="#m374e661c5d" x="287.356635" y="56.722372" style="fill: #444444; stroke: #444444"/>
     <use xlink:href="#m374e661c5d" x="291.484307" y="57.932724" style="fill: #444444; stroke: #444444"/>
     <use xlink:href="#m374e661c5d" x="292.860197" y="57.327548" style="fill: #444444; stroke: #444444"/>
     <use xlink:href="#m374e661c5d" x="294.236087" y="57.932724" style="fill: #444444; stroke: #444444"/>
     <use xlink:href="#m374e661c5d" x="295.611978" y="57.932724" style="fill: #444444; stroke: #444444"/>
     <use xlink:href="#m374e661c5d" x="296.987868" y="59.143075" style="fill: #444444; stroke: #444444"/>
     <use xlink:href="#m374e661c5d" x="301.115539" y="60.353427" style="fill: #444444; stroke: #444444"/>
     <use xlink:href="#m374e661c5d" x="302.49143" y="60.353427" style="fill: #444444; stroke: #444444"/>
     <use xlink:href="#m374e661c5d" x="303.86732" y="61.563779" style="fill: #444444; stroke: #444444"/>
     <use xlink:href="#m374e661c5d" x="305.243211" y="60.958603" style="fill: #444444; stroke: #444444"/>
     <use xlink:href="#m374e661c5d" x="306.619101" y="57.932724" style="fill: #444444; stroke: #444444"/>
     <use xlink:href="#m374e661c5d" x="310.746772" y="57.932724" style="fill: #444444; stroke: #444444"/>
     <use xlink:href="#m374e661c5d" x="312.122663" y="58.537899" style="fill: #444444; stroke: #444444"/>
     <use xlink:href="#m374e661c5d" x="313.498553" y="59.143075" style="fill: #444444; stroke: #444444"/>
     <use xlink:href="#m374e661c5d" x="314.874443" y="59.748251" style="fill: #444444; stroke: #444444"/>
     <use xlink:href="#m374e661c5d" x="316.250334" y="59.143075" style="fill: #444444; stroke: #444444"/>
     <use xlink:href="#m374e661c5d" x="320.378005" y="58.537899" style="fill: #444444; stroke: #444444"/>
     <use xlink:href="#m374e661c5d" x="321.753896" y="57.327548" style="fill: #444444; stroke: #444444"/>
     <use xlink:href="#m374e661c5d" x="323.129786" y="56.722372" style="fill: #444444; stroke: #444444"/>
     <use xlink:href="#m374e661c5d" x="324.505676" y="57.932724" style="fill: #444444; stroke: #444444"/>
     <use xlink:href="#m374e661c5d" x="325.881567" y="56.117196" style="fill: #444444; stroke: #444444"/>
     <use xlink:href="#m374e661c5d" x="330.009238" y="56.117196" style="fill: #444444; stroke: #444444"/>
     <use xlink:href="#m374e661c5d" x="331.385128" y="56.117196" style="fill: #444444; stroke: #444444"/>
     <use xlink:href="#m374e661c5d" x="332.761019" y="56.117196" style="fill: #444444; stroke: #444444"/>
     <use xlink:href="#m374e661c5d" x="334.136909" y="53.696493" style="fill: #444444; stroke: #444444"/>
     <use xlink:href="#m374e661c5d" x="335.5128" y="52.486141" style="fill: #444444; stroke: #444444"/>
     <use xlink:href="#m374e661c5d" x="339.640471" y="51.275789" style="fill: #444444; stroke: #444444"/>
     <use xlink:href="#m374e661c5d" x="341.016361" y="53.091317" style="fill: #444444; stroke: #444444"/>
     <use xlink:href="#m374e661c5d" x="342.392252" y="51.275789" style="fill: #444444; stroke: #444444"/>
     <use xlink:href="#m374e661c5d" x="343.768142" y="51.275789" style="fill: #444444; stroke: #444444"/>
     <use xlink:href="#m374e661c5d" x="345.144033" y="50.670613" style="fill: #444444; stroke: #444444"/>
     <use xlink:href="#m374e661c5d" x="349.271704" y="50.065438" style="fill: #444444; stroke: #444444"/>
     <use xlink:href="#m374e661c5d" x="350.647594" y="49.460262" style="fill: #444444; stroke: #444444"/>
     <use xlink:href="#m374e661c5d" x="352.023485" y="53.091317" style="fill: #444444; stroke: #444444"/>
     <use xlink:href="#m374e661c5d" x="353.399375" y="53.696493" style="fill: #444444; stroke: #444444"/>
     <use xlink:href="#m374e661c5d" x="354.775265" y="52.486141" style="fill: #444444; stroke: #444444"/>
     <use xlink:href="#m374e661c5d" x="358.902937" y="50.670613" style="fill: #444444; stroke: #444444"/>
     <use xlink:href="#m374e661c5d" x="360.278827" y="51.880965" style="fill: #444444; stroke: #444444"/>
     <use xlink:href="#m374e661c5d" x="361.654717" y="52.486141" style="fill: #444444; stroke: #444444"/>
     <use xlink:href="#m374e661c5d" x="363.030608" y="52.486141" style="fill: #444444; stroke: #444444"/>
     <use xlink:href="#m374e661c5d" x="364.406498" y="56.722372" style="fill: #444444; stroke: #444444"/>
     <use xlink:href="#m374e661c5d" x="368.53417" y="56.722372" style="fill: #444444; stroke: #444444"/>
     <use xlink:href="#m374e661c5d" x="369.91006" y="55.51202" style="fill: #444444; stroke: #444444"/>
     <use xlink:href="#m374e661c5d" x="371.28595" y="53.091317" style="fill: #444444; stroke: #444444"/>
     <use xlink:href="#m374e661c5d" x="372.661841" y="54.301668" style="fill: #444444; stroke: #444444"/>
     <use xlink:href="#m374e661c5d" x="374.037731" y="53.091317" style="fill: #444444; stroke: #444444"/>
     <use xlink:href="#m374e661c5d" x="378.165402" y="51.880965" style="fill: #444444; stroke: #444444"/>
     <use xlink:href="#m374e661c5d" x="379.541293" y="54.906844" style="fill: #444444; stroke: #444444"/>
     <use xlink:href="#m374e661c5d" x="380.917183" y="54.906844" style="fill: #444444; stroke: #444444"/>
     <use xlink:href="#m374e661c5d" x="382.293074" y="53.696493" style="fill: #444444; stroke: #444444"/>
     <use xlink:href="#m374e661c5d" x="383.668964" y="52.486141" style="fill: #444444; stroke: #444444"/>
     <use xlink:href="#m374e661c5d" x="387.796635" y="51.275789" style="fill: #444444; stroke: #444444"/>
     <use xlink:href="#m374e661c5d" x="389.172526" y="51.880965" style="fill: #444444; stroke: #444444"/>
     <use xlink:href="#m374e661c5d" x="390.548416" y="53.091317" style="fill: #444444; stroke: #444444"/>
     <use xlink:href="#m374e661c5d" x="391.924307" y="50.065438" style="fill: #444444; stroke: #444444"/>
     <use xlink:href="#m374e661c5d" x="393.300197" y="49.460262" style="fill: #444444; stroke: #444444"/>
     <use xlink:href="#m374e661c5d" x="397.427868" y="50.065438" style="fill: #444444; stroke: #444444"/>
     <use xlink:href="#m374e661c5d" x="398.803759" y="51.880965" style="fill: #444444; stroke: #444444"/>
     <use xlink:href="#m374e661c5d" x="400.179649" y="48.24991" style="fill: #444444; stroke: #444444"/>
     <use xlink:href="#m374e661c5d" x="401.555539" y="48.24991" style="fill: #444444; stroke: #444444"/>
     <use xlink:href="#m374e661c5d" x="402.93143" y="52.486141" style="fill: #444444; stroke: #444444"/>
     <use xlink:href="#m374e661c5d" x="407.059101" y="51.275789" style="fill: #444444; stroke: #444444"/>
     <use xlink:href="#m374e661c5d" x="408.434991" y="51.275789" style="fill: #444444; stroke: #444444"/>
     <use xlink:href="#m374e661c5d" x="409.810882" y="52.486141" style="fill: #444444; stroke: #444444"/>
     <use xlink:href="#m374e661c5d" x="411.186772" y="53.091317" style="fill: #444444; stroke: #444444"/>
     <use xlink:href="#m374e661c5d" x="412.562663" y="53.696493" style="fill: #444444; stroke: #444444"/>
     <use xlink:href="#m374e661c5d" x="416.690334" y="54.906844" style="fill: #444444; stroke: #444444"/>
     <use xlink:href="#m374e661c5d" x="418.066224" y="56.722372" style="fill: #444444; stroke: #444444"/>
     <use xlink:href="#m374e661c5d" x="419.442115" y="56.117196" style="fill: #444444; stroke: #444444"/>
     <use xlink:href="#m374e661c5d" x="420.818005" y="56.117196" style="fill: #444444; stroke: #444444"/>
     <use xlink:href="#m374e661c5d" x="422.193896" y="57.327548" style="fill: #444444; stroke: #444444"/>
     <use xlink:href="#m374e661c5d" x="426.321567" y="57.327548" style="fill: #444444; stroke: #444444"/>
     <use xlink:href="#m374e661c5d" x="427.697457" y="57.327548" style="fill: #444444; stroke: #444444"/>
     <use xlink:href="#m374e661c5d" x="429.073348" y="56.722372" style="fill: #444444; stroke: #444444"/>
     <use xlink:href="#m374e661c5d" x="430.449238" y="56.117196" style="fill: #444444; stroke: #444444"/>
     <use xlink:href="#m374e661c5d" x="431.825128" y="56.117196" style="fill: #444444; stroke: #444444"/>
     <use xlink:href="#m374e661c5d" x="435.9528" y="57.932724" style="fill: #444444; stroke: #444444"/>
     <use xlink:href="#m374e661c5d" x="437.32869" y="57.932724" style="fill: #444444; stroke: #444444"/>
     <use xlink:href="#m374e661c5d" x="438.70458" y="58.537899" style="fill: #444444; stroke: #444444"/>
     <use xlink:href="#m374e661c5d" x="440.080471" y="57.932724" style="fill: #444444; stroke: #444444"/>
     <use xlink:href="#m374e661c5d" x="441.456361" y="65.80001" style="fill: #444444; stroke: #444444"/>
     <use xlink:href="#m374e661c5d" x="445.584033" y="63.984482" style="fill: #444444; stroke: #444444"/>
     <use xlink:href="#m374e661c5d" x="446.959923" y="65.80001" style="fill: #444444; stroke: #444444"/>
     <use xlink:href="#m374e661c5d" x="448.335813" y="66.405185" style="fill: #444444; stroke: #444444"/>
     <use xlink:href="#m374e661c5d" x="449.711704" y="65.80001" style="fill: #444444; stroke: #444444"/>
     <use xlink:href="#m374e661c5d" x="451.087594" y="63.984482" style="fill: #444444; stroke: #444444"/>
     <use xlink:href="#m374e661c5d" x="455.215265" y="62.77413" style="fill: #444444; stroke: #444444"/>
     <use xlink:href="#m374e661c5d" x="456.591156" y="63.984482" style="fill: #444444; stroke: #444444"/>
     <use xlink:href="#m374e661c5d" x="457.967046" y="64.589658" style="fill: #444444; stroke: #444444"/>
     <use xlink:href="#m374e661c5d" x="459.342937" y="65.80001" style="fill: #444444; stroke: #444444"/>
     <use xlink:href="#m374e661c5d" x="460.718827" y="67.615537" style="fill: #444444; stroke: #444444"/>
     <use xlink:href="#m374e661c5d" x="464.846498" y="66.405185" style="fill: #444444; stroke: #444444"/>
     <use xlink:href="#m374e661c5d" x="466.222389" y="63.379306" style="fill: #444444; stroke: #444444"/>
     <use xlink:href="#m374e661c5d" x="467.598279" y="63.984482" style="fill: #444444; stroke: #444444"/>
     <use xlink:href="#m374e661c5d" x="468.97417" y="63.984482" style="fill: #444444; stroke: #444444"/>
     <use xlink:href="#m374e661c5d" x="470.35006" y="64.589658" style="fill: #444444; stroke: #444444"/>
     <use xlink:href="#m374e661c5d" x="474.477731" y="65.194834" style="fill: #444444; stroke: #444444"/>
     <use xlink:href="#m374e661c5d" x="475.853622" y="65.194834" style="fill: #444444; stroke: #444444"/>
     <use xlink:href="#m374e661c5d" x="477.229512" y="63.379306" style="fill: #444444; stroke: #444444"/>
     <use xlink:href="#m374e661c5d" x="478.605402" y="63.379306" style="fill: #444444; stroke: #444444"/>
     <use xlink:href="#m374e661c5d" x="479.981293" y="65.80001" style="fill: #444444; stroke: #444444"/>
     <use xlink:href="#m374e661c5d" x="484.108964" y="63.984482" style="fill: #444444; stroke: #444444"/>
     <use xlink:href="#m374e661c5d" x="485.484854" y="63.984482" style="fill: #444444; stroke: #444444"/>
     <use xlink:href="#m374e661c5d" x="486.860745" y="63.379306" style="fill: #444444; stroke: #444444"/>
     <use xlink:href="#m374e661c5d" x="488.236635" y="61.563779" style="fill: #444444; stroke: #444444"/>
     <use xlink:href="#m374e661c5d" x="489.612526" y="60.958603" style="fill: #444444; stroke: #444444"/>
     <use xlink:href="#m374e661c5d" x="493.740197" y="61.563779" style="fill: #444444; stroke: #444444"/>
     <use xlink:href="#m374e661c5d" x="495.116087" y="62.77413" style="fill: #444444; stroke: #444444"/>
     <use xlink:href="#m374e661c5d" x="496.491978" y="61.563779" style="fill: #444444; stroke: #444444"/>
     <use xlink:href="#m374e661c5d" x="497.867868" y="59.748251" style="fill: #444444; stroke: #444444"/>
     <use xlink:href="#m374e661c5d" x="499.243759" y="56.722372" style="fill: #444444; stroke: #444444"/>
     <use xlink:href="#m374e661c5d" x="503.37143" y="57.932724" style="fill: #444444; stroke: #444444"/>
     <use xlink:href="#m374e661c5d" x="504.74732" y="56.117196" style="fill: #444444; stroke: #444444"/>
     <use xlink:href="#m374e661c5d" x="506.123211" y="58.537899" style="fill: #444444; stroke: #444444"/>
     <use xlink:href="#m374e661c5d" x="507.499101" y="57.327548" style="fill: #444444; stroke: #444444"/>
     <use xlink:href="#m374e661c5d" x="508.874991" y="59.143075" style="fill: #444444; stroke: #444444"/>
     <use xlink:href="#m374e661c5d" x="513.002663" y="57.932724" style="fill: #444444; stroke: #444444"/>
     <use xlink:href="#m374e661c5d" x="514.378553" y="59.143075" style="fill: #444444; stroke: #444444"/>
     <use xlink:href="#m374e661c5d" x="515.754443" y="58.537899" style="fill: #444444; stroke: #444444"/>
     <use xlink:href="#m374e661c5d" x="517.130334" y="59.143075" style="fill: #444444; stroke: #444444"/>
     <use xlink:href="#m374e661c5d" x="518.506224" y="58.537899" style="fill: #444444; stroke: #444444"/>
     <use xlink:href="#m374e661c5d" x="522.633896" y="57.327548" style="fill: #444444; stroke: #444444"/>
     <use xlink:href="#m374e661c5d" x="524.009786" y="58.537899" style="fill: #444444; stroke: #444444"/>
     <use xlink:href="#m374e661c5d" x="525.385676" y="57.327548" style="fill: #444444; stroke: #444444"/>
     <use xlink:href="#m374e661c5d" x="526.761567" y="60.353427" style="fill: #444444; stroke: #444444"/>
     <use xlink:href="#m374e661c5d" x="528.137457" y="59.748251" style="fill: #444444; stroke: #444444"/>
     <use xlink:href="#m374e661c5d" x="532.265128" y="59.143075" style="fill: #444444; stroke: #444444"/>
     <use xlink:href="#m374e661c5d" x="533.641019" y="60.958603" style="fill: #444444; stroke: #444444"/>
     <use xlink:href="#m374e661c5d" x="535.016909" y="58.537899" style="fill: #444444; stroke: #444444"/>
     <use xlink:href="#m374e661c5d" x="536.3928" y="60.353427" style="fill: #444444; stroke: #444444"/>
     <use xlink:href="#m374e661c5d" x="537.76869" y="61.563779" style="fill: #444444; stroke: #444444"/>
     <use xlink:href="#m374e661c5d" x="541.896361" y="61.563779" style="fill: #444444; stroke: #444444"/>
     <use xlink:href="#m374e661c5d" x="543.272252" y="59.748251" style="fill: #444444; stroke: #444444"/>
     <use xlink:href="#m374e661c5d" x="544.648142" y="57.327548" style="fill: #444444; stroke: #444444"/>
     <use xlink:href="#m374e661c5d" x="546.024033" y="57.327548" style="fill: #444444; stroke: #444444"/>
     <use xlink:href="#m374e661c5d" x="547.399923" y="57.327548" style="fill: #444444; stroke: #444444"/>
     <use xlink:href="#m374e661c5d" x="551.527594" y="57.932724" style="fill: #444444; stroke: #444444"/>
     <use xlink:href="#m374e661c5d" x="552.903485" y="57.327548" style="fill: #444444; stroke: #444444"/>
     <use xlink:href="#m374e661c5d" x="554.279375" y="58.537899" style="fill: #444444; stroke: #444444"/>
    </g>
   </g>
   <g id="line2d_32">
    <path d="M 52.079375 109.37267 
L 554.279375 109.37267 
" clip-path="url(#p8caf3c8cad)" style="fill: none; stroke: #000000; stroke-linecap: square"/>
   </g>
   <g id="patch_3">
    <path d="M 52.079375 113.518125 
L 52.079375 22.318125 
" style="fill: none; stroke: #000000; stroke-width: 0.8; stroke-linejoin: miter; stroke-linecap: square"/>
   </g>
   <g id="patch_4">
    <path d="M 554.279375 113.518125 
L 554.279375 22.318125 
" style="fill: none; stroke: #000000; stroke-width: 0.8; stroke-linejoin: miter; stroke-linecap: square"/>
   </g>
   <g id="patch_5">
    <path d="M 52.079375 113.518125 
L 554.279375 113.518125 
" style="fill: none; stroke: #000000; stroke-width: 0.8; stroke-linejoin: miter; stroke-linecap: square"/>
   </g>
   <g id="patch_6">
    <path d="M 52.079375 22.318125 
L 554.279375 22.318125 
" style="fill: none; stroke: #000000; stroke-width: 0.8; stroke-linejoin: miter; stroke-linecap: square"/>
   </g>
   <g id="text_17">
    <!-- UST10  GoC10 Spread (bp) -->
    <g transform="translate(219.479375 16.318125) scale(0.12 -0.12)">
     <defs>
      <path id="DejaVuSans-55" d="M 556 4666 
L 1191 4666 
L 1191 1831 
Q 1191 1081 1462 751 
Q 1734 422 2344 422 
Q 2950 422 3222 751 
Q 3494 1081 3494 1831 
L 3494 4666 
L 4128 4666 
L 4128 1753 
Q 4128 841 3676 375 
Q 3225 -91 2344 -91 
Q 1459 -91 1007 375 
Q 556 841 556 1753 
L 556 4666 
z
" transform="scale(0.015625)"/>
      <path id="DejaVuSans-53" d="M 3425 4513 
L 3425 3897 
Q 3066 4069 2747 4153 
Q 2428 4238 2131 4238 
Q 1616 4238 1336 4038 
Q 1056 3838 1056 3469 
Q 1056 3159 1242 3001 
Q 1428 2844 1947 2747 
L 2328 2669 
Q 3034 2534 3370 2195 
Q 3706 1856 3706 1288 
Q 3706 609 3251 259 
Q 2797 -91 1919 -91 
Q 1588 -91 1214 -16 
Q 841 59 441 206 
L 441 856 
Q 825 641 1194 531 
Q 1563 422 1919 422 
Q 2459 422 2753 634 
Q 3047 847 3047 1241 
Q 3047 1584 2836 1778 
Q 2625 1972 2144 2069 
L 1759 2144 
Q 1053 2284 737 2584 
Q 422 2884 422 3419 
Q 422 4038 858 4394 
Q 1294 4750 2059 4750 
Q 2388 4750 2728 4690 
Q 3069 4631 3425 4513 
z
" transform="scale(0.015625)"/>
      <path id="DejaVuSans-54" d="M -19 4666 
L 3928 4666 
L 3928 4134 
L 2272 4134 
L 2272 0 
L 1638 0 
L 1638 4134 
L -19 4134 
L -19 4666 
z
" transform="scale(0.015625)"/>
      <path id="DejaVuSans-20" transform="scale(0.015625)"/>
      <path id="DejaVuSans-2013" d="M 313 1978 
L 2888 1978 
L 2888 1528 
L 313 1528 
L 313 1978 
z
" transform="scale(0.015625)"/>
      <path id="DejaVuSans-47" d="M 3809 666 
L 3809 1919 
L 2778 1919 
L 2778 2438 
L 4434 2438 
L 4434 434 
Q 4069 175 3628 42 
Q 3188 -91 2688 -91 
Q 1594 -91 976 548 
Q 359 1188 359 2328 
Q 359 3472 976 4111 
Q 1594 4750 2688 4750 
Q 3144 4750 3555 4637 
Q 3966 4525 4313 4306 
L 4313 3634 
Q 3963 3931 3569 4081 
Q 3175 4231 2741 4231 
Q 1884 4231 1454 3753 
Q 1025 3275 1025 2328 
Q 1025 1384 1454 906 
Q 1884 428 2741 428 
Q 3075 428 3337 486 
Q 3600 544 3809 666 
z
" transform="scale(0.015625)"/>
      <path id="DejaVuSans-6f" d="M 1959 3097 
Q 1497 3097 1228 2736 
Q 959 2375 959 1747 
Q 959 1119 1226 758 
Q 1494 397 1959 397 
Q 2419 397 2687 759 
Q 2956 1122 2956 1747 
Q 2956 2369 2687 2733 
Q 2419 3097 1959 3097 
z
M 1959 3584 
Q 2709 3584 3137 3096 
Q 3566 2609 3566 1747 
Q 3566 888 3137 398 
Q 2709 -91 1959 -91 
Q 1206 -91 779 398 
Q 353 888 353 1747 
Q 353 2609 779 3096 
Q 1206 3584 1959 3584 
z
" transform="scale(0.015625)"/>
      <path id="DejaVuSans-43" d="M 4122 4306 
L 4122 3641 
Q 3803 3938 3442 4084 
Q 3081 4231 2675 4231 
Q 1875 4231 1450 3742 
Q 1025 3253 1025 2328 
Q 1025 1406 1450 917 
Q 1875 428 2675 428 
Q 3081 428 3442 575 
Q 3803 722 4122 1019 
L 4122 359 
Q 3791 134 3420 21 
Q 3050 -91 2638 -91 
Q 1578 -91 968 557 
Q 359 1206 359 2328 
Q 359 3453 968 4101 
Q 1578 4750 2638 4750 
Q 3056 4750 3426 4639 
Q 3797 4528 4122 4306 
z
" transform="scale(0.015625)"/>
      <path id="DejaVuSans-72" d="M 2631 2963 
Q 2534 3019 2420 3045 
Q 2306 3072 2169 3072 
Q 1681 3072 1420 2755 
Q 1159 2438 1159 1844 
L 1159 0 
L 581 0 
L 581 3500 
L 1159 3500 
L 1159 2956 
Q 1341 3275 1631 3429 
Q 1922 3584 2338 3584 
Q 2397 3584 2469 3576 
Q 2541 3569 2628 3553 
L 2631 2963 
z
" transform="scale(0.015625)"/>
      <path id="DejaVuSans-65" d="M 3597 1894 
L 3597 1613 
L 953 1613 
Q 991 1019 1311 708 
Q 1631 397 2203 397 
Q 2534 397 2845 478 
Q 3156 559 3463 722 
L 3463 178 
Q 3153 47 2828 -22 
Q 2503 -91 2169 -91 
Q 1331 -91 842 396 
Q 353 884 353 1716 
Q 353 2575 817 3079 
Q 1281 3584 2069 3584 
Q 2775 3584 3186 3129 
Q 3597 2675 3597 1894 
z
M 3022 2063 
Q 3016 2534 2758 2815 
Q 2500 3097 2075 3097 
Q 1594 3097 1305 2825 
Q 1016 2553 972 2059 
L 3022 2063 
z
" transform="scale(0.015625)"/>
      <path id="DejaVuSans-61" d="M 2194 1759 
Q 1497 1759 1228 1600 
Q 959 1441 959 1056 
Q 959 750 1161 570 
Q 1363 391 1709 391 
Q 2188 391 2477 730 
Q 2766 1069 2766 1631 
L 2766 1759 
L 2194 1759 
z
M 3341 1997 
L 3341 0 
L 2766 0 
L 2766 531 
Q 2569 213 2275 61 
Q 1981 -91 1556 -91 
Q 1019 -91 701 211 
Q 384 513 384 1019 
Q 384 1609 779 1909 
Q 1175 2209 1959 2209 
L 2766 2209 
L 2766 2266 
Q 2766 2663 2505 2880 
Q 2244 3097 1772 3097 
Q 1472 3097 1187 3025 
Q 903 2953 641 2809 
L 641 3341 
Q 956 3463 1253 3523 
Q 1550 3584 1831 3584 
Q 2591 3584 2966 3190 
Q 3341 2797 3341 1997 
z
" transform="scale(0.015625)"/>
      <path id="DejaVuSans-64" d="M 2906 2969 
L 2906 4863 
L 3481 4863 
L 3481 0 
L 2906 0 
L 2906 525 
Q 2725 213 2448 61 
Q 2172 -91 1784 -91 
Q 1150 -91 751 415 
Q 353 922 353 1747 
Q 353 2572 751 3078 
Q 1150 3584 1784 3584 
Q 2172 3584 2448 3432 
Q 2725 3281 2906 2969 
z
M 947 1747 
Q 947 1113 1208 752 
Q 1469 391 1925 391 
Q 2381 391 2643 752 
Q 2906 1113 2906 1747 
Q 2906 2381 2643 2742 
Q 2381 3103 1925 3103 
Q 1469 3103 1208 2742 
Q 947 2381 947 1747 
z
" transform="scale(0.015625)"/>
      <path id="DejaVuSans-28" d="M 1984 4856 
Q 1566 4138 1362 3434 
Q 1159 2731 1159 2009 
Q 1159 1288 1364 580 
Q 1569 -128 1984 -844 
L 1484 -844 
Q 1016 -109 783 600 
Q 550 1309 550 2009 
Q 550 2706 781 3412 
Q 1013 4119 1484 4856 
L 1984 4856 
z
" transform="scale(0.015625)"/>
      <path id="DejaVuSans-29" d="M 513 4856 
L 1013 4856 
Q 1481 4119 1714 3412 
Q 1947 2706 1947 2009 
Q 1947 1309 1714 600 
Q 1481 -109 1013 -844 
L 513 -844 
Q 928 -128 1133 580 
Q 1338 1288 1338 2009 
Q 1338 2731 1133 3434 
Q 928 4138 513 4856 
z
" transform="scale(0.015625)"/>
     </defs>
     <use xlink:href="#DejaVuSans-55"/>
     <use xlink:href="#DejaVuSans-53" transform="translate(73.193359 0)"/>
     <use xlink:href="#DejaVuSans-54" transform="translate(136.669922 0)"/>
     <use xlink:href="#DejaVuSans-31" transform="translate(197.753906 0)"/>
     <use xlink:href="#DejaVuSans-30" transform="translate(261.376953 0)"/>
     <use xlink:href="#DejaVuSans-20" transform="translate(325 0)"/>
     <use xlink:href="#DejaVuSans-2013" transform="translate(356.787109 0)"/>
     <use xlink:href="#DejaVuSans-20" transform="translate(406.787109 0)"/>
     <use xlink:href="#DejaVuSans-47" transform="translate(438.574219 0)"/>
     <use xlink:href="#DejaVuSans-6f" transform="translate(516.064453 0)"/>
     <use xlink:href="#DejaVuSans-43" transform="translate(577.246094 0)"/>
     <use xlink:href="#DejaVuSans-31" transform="translate(647.070312 0)"/>
     <use xlink:href="#DejaVuSans-30" transform="translate(710.693359 0)"/>
     <use xlink:href="#DejaVuSans-20" transform="translate(774.316406 0)"/>
     <use xlink:href="#DejaVuSans-53" transform="translate(806.103516 0)"/>
     <use xlink:href="#DejaVuSans-70" transform="translate(869.580078 0)"/>
     <use xlink:href="#DejaVuSans-72" transform="translate(933.056641 0)"/>
     <use xlink:href="#DejaVuSans-65" transform="translate(971.919922 0)"/>
     <use xlink:href="#DejaVuSans-61" transform="translate(1033.443359 0)"/>
     <use xlink:href="#DejaVuSans-64" transform="translate(1094.722656 0)"/>
     <use xlink:href="#DejaVuSans-20" transform="translate(1158.199219 0)"/>
     <use xlink:href="#DejaVuSans-28" transform="translate(1189.986328 0)"/>
     <use xlink:href="#DejaVuSans-62" transform="translate(1229 0)"/>
     <use xlink:href="#DejaVuSans-70" transform="translate(1292.476562 0)"/>
     <use xlink:href="#DejaVuSans-29" transform="translate(1355.953125 0)"/>
    </g>
   </g>
  </g>
  <g id="axes_2">
   <g id="patch_7">
    <path d="M 52.079375 188.638125 
L 554.279375 188.638125 
L 554.279375 156.718125 
L 52.079375 156.718125 
z
" style="fill: #ffffff"/>
   </g>
   <g id="matplotlib.axis_3">
    <g id="xtick_13">
     <g id="line2d_33">
      <path d="M 57.582937 188.638125 
L 57.582937 156.718125 
" clip-path="url(#p0914c60291)" style="fill: none; stroke: #b0b0b0; stroke-opacity: 0.15; stroke-width: 0.8; stroke-linecap: square"/>
     </g>
     <g id="line2d_34">
      <g>
       <use xlink:href="#m4c1bc8c57b" x="57.582937" y="188.638125" style="stroke: #000000; stroke-width: 0.8"/>
      </g>
     </g>
     <g id="text_18">
      <!-- 2025-03 -->
      <g transform="translate(26.567465 230.555942) rotate(-45) scale(0.1 -0.1)">
       <use xlink:href="#DejaVuSans-32"/>
       <use xlink:href="#DejaVuSans-30" transform="translate(63.623047 0)"/>
       <use xlink:href="#DejaVuSans-32" transform="translate(127.246094 0)"/>
       <use xlink:href="#DejaVuSans-35" transform="translate(190.869141 0)"/>
       <use xlink:href="#DejaVuSans-2d" transform="translate(254.492188 0)"/>
       <use xlink:href="#DejaVuSans-30" transform="translate(290.576172 0)"/>
       <use xlink:href="#DejaVuSans-33" transform="translate(354.199219 0)"/>
      </g>
     </g>
    </g>
    <g id="xtick_14">
     <g id="line2d_35">
      <path d="M 100.235539 188.638125 
L 100.235539 156.718125 
" clip-path="url(#p0914c60291)" style="fill: none; stroke: #b0b0b0; stroke-opacity: 0.15; stroke-width: 0.8; stroke-linecap: square"/>
     </g>
     <g id="line2d_36">
      <g>
       <use xlink:href="#m4c1bc8c57b" x="100.235539" y="188.638125" style="stroke: #000000; stroke-width: 0.8"/>
      </g>
     </g>
     <g id="text_19">
      <!-- 2025-04 -->
      <g transform="translate(69.220068 230.555942) rotate(-45) scale(0.1 -0.1)">
       <use xlink:href="#DejaVuSans-32"/>
       <use xlink:href="#DejaVuSans-30" transform="translate(63.623047 0)"/>
       <use xlink:href="#DejaVuSans-32" transform="translate(127.246094 0)"/>
       <use xlink:href="#DejaVuSans-35" transform="translate(190.869141 0)"/>
       <use xlink:href="#DejaVuSans-2d" transform="translate(254.492188 0)"/>
       <use xlink:href="#DejaVuSans-30" transform="translate(290.576172 0)"/>
       <use xlink:href="#DejaVuSans-34" transform="translate(354.199219 0)"/>
      </g>
     </g>
    </g>
    <g id="xtick_15">
     <g id="line2d_37">
      <path d="M 141.512252 188.638125 
L 141.512252 156.718125 
" clip-path="url(#p0914c60291)" style="fill: none; stroke: #b0b0b0; stroke-opacity: 0.15; stroke-width: 0.8; stroke-linecap: square"/>
     </g>
     <g id="line2d_38">
      <g>
       <use xlink:href="#m4c1bc8c57b" x="141.512252" y="188.638125" style="stroke: #000000; stroke-width: 0.8"/>
      </g>
     </g>
     <g id="text_20">
      <!-- 2025-05 -->
      <g transform="translate(110.496781 230.555942) rotate(-45) scale(0.1 -0.1)">
       <use xlink:href="#DejaVuSans-32"/>
       <use xlink:href="#DejaVuSans-30" transform="translate(63.623047 0)"/>
       <use xlink:href="#DejaVuSans-32" transform="translate(127.246094 0)"/>
       <use xlink:href="#DejaVuSans-35" transform="translate(190.869141 0)"/>
       <use xlink:href="#DejaVuSans-2d" transform="translate(254.492188 0)"/>
       <use xlink:href="#DejaVuSans-30" transform="translate(290.576172 0)"/>
       <use xlink:href="#DejaVuSans-35" transform="translate(354.199219 0)"/>
      </g>
     </g>
    </g>
    <g id="xtick_16">
     <g id="line2d_39">
      <path d="M 184.164854 188.638125 
L 184.164854 156.718125 
" clip-path="url(#p0914c60291)" style="fill: none; stroke: #b0b0b0; stroke-opacity: 0.15; stroke-width: 0.8; stroke-linecap: square"/>
     </g>
     <g id="line2d_40">
      <g>
       <use xlink:href="#m4c1bc8c57b" x="184.164854" y="188.638125" style="stroke: #000000; stroke-width: 0.8"/>
      </g>
     </g>
     <g id="text_21">
      <!-- 2025-06 -->
      <g transform="translate(153.149383 230.555942) rotate(-45) scale(0.1 -0.1)">
       <use xlink:href="#DejaVuSans-32"/>
       <use xlink:href="#DejaVuSans-30" transform="translate(63.623047 0)"/>
       <use xlink:href="#DejaVuSans-32" transform="translate(127.246094 0)"/>
       <use xlink:href="#DejaVuSans-35" transform="translate(190.869141 0)"/>
       <use xlink:href="#DejaVuSans-2d" transform="translate(254.492188 0)"/>
       <use xlink:href="#DejaVuSans-30" transform="translate(290.576172 0)"/>
       <use xlink:href="#DejaVuSans-36" transform="translate(354.199219 0)"/>
      </g>
     </g>
    </g>
    <g id="xtick_17">
     <g id="line2d_41">
      <path d="M 225.441567 188.638125 
L 225.441567 156.718125 
" clip-path="url(#p0914c60291)" style="fill: none; stroke: #b0b0b0; stroke-opacity: 0.15; stroke-width: 0.8; stroke-linecap: square"/>
     </g>
     <g id="line2d_42">
      <g>
       <use xlink:href="#m4c1bc8c57b" x="225.441567" y="188.638125" style="stroke: #000000; stroke-width: 0.8"/>
      </g>
     </g>
     <g id="text_22">
      <!-- 2025-07 -->
      <g transform="translate(194.426096 230.555942) rotate(-45) scale(0.1 -0.1)">
       <use xlink:href="#DejaVuSans-32"/>
       <use xlink:href="#DejaVuSans-30" transform="translate(63.623047 0)"/>
       <use xlink:href="#DejaVuSans-32" transform="translate(127.246094 0)"/>
       <use xlink:href="#DejaVuSans-35" transform="translate(190.869141 0)"/>
       <use xlink:href="#DejaVuSans-2d" transform="translate(254.492188 0)"/>
       <use xlink:href="#DejaVuSans-30" transform="translate(290.576172 0)"/>
       <use xlink:href="#DejaVuSans-37" transform="translate(354.199219 0)"/>
      </g>
     </g>
    </g>
    <g id="xtick_18">
     <g id="line2d_43">
      <path d="M 268.09417 188.638125 
L 268.09417 156.718125 
" clip-path="url(#p0914c60291)" style="fill: none; stroke: #b0b0b0; stroke-opacity: 0.15; stroke-width: 0.8; stroke-linecap: square"/>
     </g>
     <g id="line2d_44">
      <g>
       <use xlink:href="#m4c1bc8c57b" x="268.09417" y="188.638125" style="stroke: #000000; stroke-width: 0.8"/>
      </g>
     </g>
     <g id="text_23">
      <!-- 2025-08 -->
      <g transform="translate(237.078698 230.555942) rotate(-45) scale(0.1 -0.1)">
       <use xlink:href="#DejaVuSans-32"/>
       <use xlink:href="#DejaVuSans-30" transform="translate(63.623047 0)"/>
       <use xlink:href="#DejaVuSans-32" transform="translate(127.246094 0)"/>
       <use xlink:href="#DejaVuSans-35" transform="translate(190.869141 0)"/>
       <use xlink:href="#DejaVuSans-2d" transform="translate(254.492188 0)"/>
       <use xlink:href="#DejaVuSans-30" transform="translate(290.576172 0)"/>
       <use xlink:href="#DejaVuSans-38" transform="translate(354.199219 0)"/>
      </g>
     </g>
    </g>
    <g id="xtick_19">
     <g id="line2d_45">
      <path d="M 310.746772 188.638125 
L 310.746772 156.718125 
" clip-path="url(#p0914c60291)" style="fill: none; stroke: #b0b0b0; stroke-opacity: 0.15; stroke-width: 0.8; stroke-linecap: square"/>
     </g>
     <g id="line2d_46">
      <g>
       <use xlink:href="#m4c1bc8c57b" x="310.746772" y="188.638125" style="stroke: #000000; stroke-width: 0.8"/>
      </g>
     </g>
     <g id="text_24">
      <!-- 2025-09 -->
      <g transform="translate(279.731301 230.555942) rotate(-45) scale(0.1 -0.1)">
       <use xlink:href="#DejaVuSans-32"/>
       <use xlink:href="#DejaVuSans-30" transform="translate(63.623047 0)"/>
       <use xlink:href="#DejaVuSans-32" transform="translate(127.246094 0)"/>
       <use xlink:href="#DejaVuSans-35" transform="translate(190.869141 0)"/>
       <use xlink:href="#DejaVuSans-2d" transform="translate(254.492188 0)"/>
       <use xlink:href="#DejaVuSans-30" transform="translate(290.576172 0)"/>
       <use xlink:href="#DejaVuSans-39" transform="translate(354.199219 0)"/>
      </g>
     </g>
    </g>
    <g id="xtick_20">
     <g id="line2d_47">
      <path d="M 352.023485 188.638125 
L 352.023485 156.718125 
" clip-path="url(#p0914c60291)" style="fill: none; stroke: #b0b0b0; stroke-opacity: 0.15; stroke-width: 0.8; stroke-linecap: square"/>
     </g>
     <g id="line2d_48">
      <g>
       <use xlink:href="#m4c1bc8c57b" x="352.023485" y="188.638125" style="stroke: #000000; stroke-width: 0.8"/>
      </g>
     </g>
     <g id="text_25">
      <!-- 2025-10 -->
      <g transform="translate(321.008013 230.555942) rotate(-45) scale(0.1 -0.1)">
       <use xlink:href="#DejaVuSans-32"/>
       <use xlink:href="#DejaVuSans-30" transform="translate(63.623047 0)"/>
       <use xlink:href="#DejaVuSans-32" transform="translate(127.246094 0)"/>
       <use xlink:href="#DejaVuSans-35" transform="translate(190.869141 0)"/>
       <use xlink:href="#DejaVuSans-2d" transform="translate(254.492188 0)"/>
       <use xlink:href="#DejaVuSans-31" transform="translate(290.576172 0)"/>
       <use xlink:href="#DejaVuSans-30" transform="translate(354.199219 0)"/>
      </g>
     </g>
    </g>
    <g id="xtick_21">
     <g id="line2d_49">
      <path d="M 394.676087 188.638125 
L 394.676087 156.718125 
" clip-path="url(#p0914c60291)" style="fill: none; stroke: #b0b0b0; stroke-opacity: 0.15; stroke-width: 0.8; stroke-linecap: square"/>
     </g>
     <g id="line2d_50">
      <g>
       <use xlink:href="#m4c1bc8c57b" x="394.676087" y="188.638125" style="stroke: #000000; stroke-width: 0.8"/>
      </g>
     </g>
     <g id="text_26">
      <!-- 2025-11 -->
      <g transform="translate(363.660616 230.555942) rotate(-45) scale(0.1 -0.1)">
       <use xlink:href="#DejaVuSans-32"/>
       <use xlink:href="#DejaVuSans-30" transform="translate(63.623047 0)"/>
       <use xlink:href="#DejaVuSans-32" transform="translate(127.246094 0)"/>
       <use xlink:href="#DejaVuSans-35" transform="translate(190.869141 0)"/>
       <use xlink:href="#DejaVuSans-2d" transform="translate(254.492188 0)"/>
       <use xlink:href="#DejaVuSans-31" transform="translate(290.576172 0)"/>
       <use xlink:href="#DejaVuSans-31" transform="translate(354.199219 0)"/>
      </g>
     </g>
    </g>
    <g id="xtick_22">
     <g id="line2d_51">
      <path d="M 435.9528 188.638125 
L 435.9528 156.718125 
" clip-path="url(#p0914c60291)" style="fill: none; stroke: #b0b0b0; stroke-opacity: 0.15; stroke-width: 0.8; stroke-linecap: square"/>
     </g>
     <g id="line2d_52">
      <g>
       <use xlink:href="#m4c1bc8c57b" x="435.9528" y="188.638125" style="stroke: #000000; stroke-width: 0.8"/>
      </g>
     </g>
     <g id="text_27">
      <!-- 2025-12 -->
      <g transform="translate(404.937328 230.555942) rotate(-45) scale(0.1 -0.1)">
       <use xlink:href="#DejaVuSans-32"/>
       <use xlink:href="#DejaVuSans-30" transform="translate(63.623047 0)"/>
       <use xlink:href="#DejaVuSans-32" transform="translate(127.246094 0)"/>
       <use xlink:href="#DejaVuSans-35" transform="translate(190.869141 0)"/>
       <use xlink:href="#DejaVuSans-2d" transform="translate(254.492188 0)"/>
       <use xlink:href="#DejaVuSans-31" transform="translate(290.576172 0)"/>
       <use xlink:href="#DejaVuSans-32" transform="translate(354.199219 0)"/>
      </g>
     </g>
    </g>
    <g id="xtick_23">
     <g id="line2d_53">
      <path d="M 478.605402 188.638125 
L 478.605402 156.718125 
" clip-path="url(#p0914c60291)" style="fill: none; stroke: #b0b0b0; stroke-opacity: 0.15; stroke-width: 0.8; stroke-linecap: square"/>
     </g>
     <g id="line2d_54">
      <g>
       <use xlink:href="#m4c1bc8c57b" x="478.605402" y="188.638125" style="stroke: #000000; stroke-width: 0.8"/>
      </g>
     </g>
     <g id="text_28">
      <!-- 2026-01 -->
      <g transform="translate(447.589931 230.555942) rotate(-45) scale(0.1 -0.1)">
       <use xlink:href="#DejaVuSans-32"/>
       <use xlink:href="#DejaVuSans-30" transform="translate(63.623047 0)"/>
       <use xlink:href="#DejaVuSans-32" transform="translate(127.246094 0)"/>
       <use xlink:href="#DejaVuSans-36" transform="translate(190.869141 0)"/>
       <use xlink:href="#DejaVuSans-2d" transform="translate(254.492188 0)"/>
       <use xlink:href="#DejaVuSans-30" transform="translate(290.576172 0)"/>
       <use xlink:href="#DejaVuSans-31" transform="translate(354.199219 0)"/>
      </g>
     </g>
    </g>
    <g id="xtick_24">
     <g id="line2d_55">
      <path d="M 521.258005 188.638125 
L 521.258005 156.718125 
" clip-path="url(#p0914c60291)" style="fill: none; stroke: #b0b0b0; stroke-opacity: 0.15; stroke-width: 0.8; stroke-linecap: square"/>
     </g>
     <g id="line2d_56">
      <g>
       <use xlink:href="#m4c1bc8c57b" x="521.258005" y="188.638125" style="stroke: #000000; stroke-width: 0.8"/>
      </g>
     </g>
     <g id="text_29">
      <!-- 2026-02 -->
      <g transform="translate(490.242534 230.555942) rotate(-45) scale(0.1 -0.1)">
       <use xlink:href="#DejaVuSans-32"/>
       <use xlink:href="#DejaVuSans-30" transform="translate(63.623047 0)"/>
       <use xlink:href="#DejaVuSans-32" transform="translate(127.246094 0)"/>
       <use xlink:href="#DejaVuSans-36" transform="translate(190.869141 0)"/>
       <use xlink:href="#DejaVuSans-2d" transform="translate(254.492188 0)"/>
       <use xlink:href="#DejaVuSans-30" transform="translate(290.576172 0)"/>
       <use xlink:href="#DejaVuSans-32" transform="translate(354.199219 0)"/>
      </g>
     </g>
    </g>
   </g>
   <g id="matplotlib.axis_4">
    <g id="ytick_4">
     <g id="line2d_57">
      <path d="M 52.079375 187.711115 
L 554.279375 187.711115 
" clip-path="url(#p0914c60291)" style="fill: none; stroke: #b0b0b0; stroke-opacity: 0.15; stroke-width: 0.8; stroke-linecap: square"/>
     </g>
     <g id="line2d_58">
      <g>
       <use xlink:href="#m284c9fbd82" x="52.079375" y="187.711115" style="stroke: #000000; stroke-width: 0.8"/>
      </g>
     </g>
     <g id="text_30">
      <!-- 1.35 -->
      <g transform="translate(22.81375 191.510334) scale(0.1 -0.1)">
       <defs>
        <path id="DejaVuSans-2e" d="M 684 794 
L 1344 794 
L 1344 0 
L 684 0 
L 684 794 
z
" transform="scale(0.015625)"/>
       </defs>
       <use xlink:href="#DejaVuSans-31"/>
       <use xlink:href="#DejaVuSans-2e" transform="translate(63.623047 0)"/>
       <use xlink:href="#DejaVuSans-33" transform="translate(95.410156 0)"/>
       <use xlink:href="#DejaVuSans-35" transform="translate(159.033203 0)"/>
      </g>
     </g>
    </g>
    <g id="ytick_5">
     <g id="line2d_59">
      <path d="M 52.079375 173.158366 
L 554.279375 173.158366 
" clip-path="url(#p0914c60291)" style="fill: none; stroke: #b0b0b0; stroke-opacity: 0.15; stroke-width: 0.8; stroke-linecap: square"/>
     </g>
     <g id="line2d_60">
      <g>
       <use xlink:href="#m284c9fbd82" x="52.079375" y="173.158366" style="stroke: #000000; stroke-width: 0.8"/>
      </g>
     </g>
     <g id="text_31">
      <!-- 1.40 -->
      <g transform="translate(22.81375 176.957584) scale(0.1 -0.1)">
       <use xlink:href="#DejaVuSans-31"/>
       <use xlink:href="#DejaVuSans-2e" transform="translate(63.623047 0)"/>
       <use xlink:href="#DejaVuSans-34" transform="translate(95.410156 0)"/>
       <use xlink:href="#DejaVuSans-30" transform="translate(159.033203 0)"/>
      </g>
     </g>
    </g>
    <g id="ytick_6">
     <g id="line2d_61">
      <path d="M 52.079375 158.605617 
L 554.279375 158.605617 
" clip-path="url(#p0914c60291)" style="fill: none; stroke: #b0b0b0; stroke-opacity: 0.15; stroke-width: 0.8; stroke-linecap: square"/>
     </g>
     <g id="line2d_62">
      <g>
       <use xlink:href="#m284c9fbd82" x="52.079375" y="158.605617" style="stroke: #000000; stroke-width: 0.8"/>
      </g>
     </g>
     <g id="text_32">
      <!-- 1.45 -->
      <g transform="translate(22.81375 162.404835) scale(0.1 -0.1)">
       <use xlink:href="#DejaVuSans-31"/>
       <use xlink:href="#DejaVuSans-2e" transform="translate(63.623047 0)"/>
       <use xlink:href="#DejaVuSans-34" transform="translate(95.410156 0)"/>
       <use xlink:href="#DejaVuSans-35" transform="translate(159.033203 0)"/>
      </g>
     </g>
    </g>
    <g id="text_33">
     <!-- USD/CAD -->
     <g transform="translate(16.318125 200.43375) rotate(-90) scale(0.12 -0.12)">
      <defs>
       <path id="DejaVuSans-44" d="M 1259 4147 
L 1259 519 
L 2022 519 
Q 2988 519 3436 956 
Q 3884 1394 3884 2338 
Q 3884 3275 3436 3711 
Q 2988 4147 2022 4147 
L 1259 4147 
z
M 628 4666 
L 1925 4666 
Q 3281 4666 3915 4102 
Q 4550 3538 4550 2338 
Q 4550 1131 3912 565 
Q 3275 0 1925 0 
L 628 0 
L 628 4666 
z
" transform="scale(0.015625)"/>
       <path id="DejaVuSans-2f" d="M 1625 4666 
L 2156 4666 
L 531 -594 
L 0 -594 
L 1625 4666 
z
" transform="scale(0.015625)"/>
       <path id="DejaVuSans-41" d="M 2188 4044 
L 1331 1722 
L 3047 1722 
L 2188 4044 
z
M 1831 4666 
L 2547 4666 
L 4325 0 
L 3669 0 
L 3244 1197 
L 1141 1197 
L 716 0 
L 50 0 
L 1831 4666 
z
" transform="scale(0.015625)"/>
      </defs>
      <use xlink:href="#DejaVuSans-55"/>
      <use xlink:href="#DejaVuSans-53" transform="translate(73.193359 0)"/>
      <use xlink:href="#DejaVuSans-44" transform="translate(136.669922 0)"/>
      <use xlink:href="#DejaVuSans-2f" transform="translate(213.671875 0)"/>
      <use xlink:href="#DejaVuSans-43" transform="translate(247.363281 0)"/>
      <use xlink:href="#DejaVuSans-41" transform="translate(317.1875 0)"/>
      <use xlink:href="#DejaVuSans-44" transform="translate(385.595703 0)"/>
     </g>
    </g>
   </g>
   <g id="line2d_63">
    <path d="M 52.079375 164.426716 
L 53.455265 163.087863 
L 54.831156 160.963162 
L 56.207046 160.555685 
L 60.334717 161.545272 
L 61.710608 158.169034 
L 63.086498 162.243804 
L 64.462389 164.950615 
L 65.838279 161.952749 
L 69.96595 160.613896 
L 71.341841 159.711626 
L 72.717731 161.603483 
L 74.093622 161.574377 
L 75.469512 162.185593 
L 79.597183 164.484927 
L 82.348964 163.611762 
L 83.724854 163.669973 
L 85.100745 162.796808 
L 89.228416 164.65956 
L 90.604307 164.222978 
L 91.980197 165.765569 
L 93.356087 163.961028 
L 94.731978 164.950615 
L 98.859649 162.127382 
L 100.235539 163.961028 
L 101.61143 164.135661 
L 102.98732 171.353825 
L 104.363211 167.511899 
L 108.490882 166.638734 
L 109.866772 167.366372 
L 111.242663 167.715638 
L 112.618553 172.867311 
L 113.994443 176.214443 
L 118.122115 176.30176 
L 119.498005 174.788274 
L 120.873896 176.592815 
L 122.249786 177.349557 
L 127.753348 178.455566 
L 129.129238 179.037676 
L 130.505128 176.243549 
L 131.881019 176.389076 
L 133.256909 177.291346 
L 138.760471 177.436874 
L 140.136361 178.775727 
L 141.512252 177.611507 
L 142.888142 179.27052 
L 147.015813 178.68841 
L 148.391704 179.736208 
L 149.767594 179.765314 
L 151.143485 175.661439 
L 152.519375 175.341278 
L 156.647046 173.071049 
L 158.022937 174.380797 
L 159.398827 174.235269 
L 160.774717 173.478526 
L 162.150608 173.420315 
L 166.278279 174.788274 
L 167.65417 174.87559 
L 169.03006 178.339144 
L 170.40595 177.349557 
L 171.781841 180.289213 
M 177.285402 179.677997 
L 178.661293 178.426461 
L 180.037183 178.717516 
L 181.413074 180.522057 
L 185.540745 181.919121 
L 186.916635 181.249694 
L 188.292526 182.821391 
L 189.668416 182.850497 
L 191.044307 182.297492 
L 195.171978 182.617653 
L 196.547868 182.384809 
L 197.923759 182.996024 
L 199.299649 184.363983 
L 200.675539 185.528203 
L 204.803211 186.081207 
L 206.179101 185.178937 
L 207.554991 182.384809 
M 210.306772 180.754901 
L 214.434443 179.765314 
L 215.810334 181.569855 
L 217.186224 180.43474 
L 218.562115 183.956506 
L 219.938005 182.879602 
L 224.065676 184.218455 
L 225.441567 183.083341 
L 226.817457 184.218455 
L 228.193348 185.99389 
M 233.696909 183.519923 
L 236.44869 182.064648 
L 237.82458 182.413914 
L 239.200471 182.530336 
L 243.328142 182.064648 
L 244.704033 181.511644 
L 246.079923 181.715382 
L 247.455813 180.463846 
L 248.831704 181.569855 
L 252.959375 182.210176 
L 254.335265 184.363983 
L 255.711156 184.538616 
L 257.087046 183.549029 
L 258.462937 181.482538 
L 262.590608 181.366116 
L 263.966498 179.648892 
L 265.342389 178.571988 
L 266.718279 177.669718 
L 268.09417 179.619786 
L 272.221841 179.707103 
L 273.597731 179.590681 
L 274.973622 180.754901 
L 276.349512 180.463846 
L 277.725402 180.376529 
L 281.853074 179.474259 
L 283.228964 180.085474 
L 284.604854 180.027263 
L 285.980745 178.804832 
L 291.484307 178.542883 
L 292.860197 177.262241 
L 294.236087 176.825659 
L 295.611978 176.068916 
L 296.987868 177.669718 
L 302.49143 178.310039 
L 303.86732 178.251828 
L 305.243211 180.43474 
L 306.619101 181.133272 
M 312.122663 179.445153 
L 313.498553 179.357837 
L 314.874443 178.164511 
L 316.250334 178.310039 
L 320.378005 178.397355 
L 321.753896 177.989878 
L 323.129786 177.727929 
L 324.505676 178.1063 
L 325.881567 177.291346 
L 330.009238 179.066782 
L 331.385128 180.580268 
L 332.761019 180.11458 
L 334.136909 179.095887 
L 335.5128 179.794419 
L 339.640471 178.571988 
L 341.016361 177.989878 
L 342.392252 176.243549 
L 343.768142 175.399489 
L 345.144033 174.730063 
L 349.271704 175.952494 
L 353.399375 173.915109 
L 354.775265 174.730063 
L 358.902937 174.759168 
L 361.654717 174.526324 
L 363.030608 172.896416 
L 364.406498 173.245682 
M 369.91006 171.96504 
L 371.28595 172.197884 
L 372.661841 171.848618 
L 374.037731 171.819513 
L 378.165402 172.314306 
L 379.541293 172.867311 
L 380.917183 173.798687 
L 382.293074 173.420315 
L 383.668964 172.779994 
L 387.796635 173.303893 
L 389.172526 174.992012 
L 390.548416 176.272654 
L 391.924307 173.682265 
L 393.300197 172.867311 
L 397.427868 171.732196 
L 398.803759 170.80082 
L 400.179649 170.014972 
L 401.555539 169.461967 
L 402.93143 170.975453 
L 407.059101 172.314306 
M 409.810882 173.158366 
L 412.562663 172.488939 
L 416.690334 172.343412 
L 418.066224 173.274788 
L 419.442115 171.732196 
L 420.818005 170.48066 
L 422.193896 170.422449 
L 427.697457 169.811233 
L 429.073348 171.673985 
M 431.825128 173.915109 
L 437.32869 173.507632 
L 438.70458 174.613641 
L 440.080471 174.933801 
L 441.456361 177.291346 
L 445.584033 177.640612 
L 446.959923 178.048089 
L 448.335813 177.989878 
L 449.711704 179.881736 
L 451.087594 179.474259 
L 455.215265 179.998158 
L 456.591156 180.463846 
L 457.967046 179.241415 
L 459.342937 180.085474 
L 460.718827 179.561575 
L 464.846498 180.609373 
L 466.222389 181.511644 
L 467.598279 182.734075 
M 470.35006 182.996024 
L 474.477731 182.472125 
L 475.853622 182.530336 
L 477.229512 181.540749 
M 479.981293 180.784006 
L 484.108964 180.231002 
L 485.484854 179.299626 
L 488.236635 177.116713 
L 489.612526 176.272654 
L 493.740197 176.767448 
L 495.116087 176.505498 
L 496.491978 176.912975 
L 499.243759 175.486806 
M 504.74732 178.36825 
L 506.123211 178.601094 
L 507.499101 179.008571 
L 508.874991 181.133272 
L 513.002663 182.122859 
L 514.378553 184.858776 
L 515.754443 185.528203 
L 517.130334 187.187216 
L 522.633896 182.559442 
L 524.009786 183.519923 
L 525.385676 182.850497 
L 526.761567 182.76318 
L 532.265128 185.67373 
L 533.641019 186.750633 
L 535.016909 185.702835 
L 536.3928 184.131139 
L 537.76869 184.276666 
M 543.272252 183.287079 
L 546.024033 181.86091 
L 547.399923 182.239281 
L 547.399923 182.239281 
" clip-path="url(#p0914c60291)" style="fill: none; stroke: #2ca02c; stroke-width: 1.2; stroke-linecap: square"/>
   </g>
   <g id="patch_8">
    <path d="M 52.079375 188.638125 
L 52.079375 156.718125 
" style="fill: none; stroke: #000000; stroke-width: 0.8; stroke-linejoin: miter; stroke-linecap: square"/>
   </g>
   <g id="patch_9">
    <path d="M 554.279375 188.638125 
L 554.279375 156.718125 
" style="fill: none; stroke: #000000; stroke-width: 0.8; stroke-linejoin: miter; stroke-linecap: square"/>
   </g>
   <g id="patch_10">
    <path d="M 52.079375 188.638125 
L 554.279375 188.638125 
" style="fill: none; stroke: #000000; stroke-width: 0.8; stroke-linejoin: miter; stroke-linecap: square"/>
   </g>
   <g id="patch_11">
    <path d="M 52.079375 156.718125 
L 554.279375 156.718125 
" style="fill: none; stroke: #000000; stroke-width: 0.8; stroke-linejoin: miter; stroke-linecap: square"/>
   </g>
  </g>
 </g>
 <defs>
  <clipPath id="p8caf3c8cad">
   <rect x="52.079375" y="22.318125" width="502.2" height="91.2"/>
  </clipPath>
  <clipPath id="p0914c60291">
   <rect x="52.079375" y="156.718125" width="502.2" height="31.92"/>
  </clipPath>
 </defs>
</svg>
