<?xml version="1.0" encoding="utf-8" standalone="no"?>
<!DOCTYPE svg PUBLIC "-//W3C//DTD SVG 1.1//EN"
  "http://www.w3.org/Graphics/SVG/1.1/DTD/svg11.dtd">
<svg xmlns:xlink="http://www.w3.org/1999/xlink" width="561.479375pt" height="239.226503pt" viewBox="0 0 561.479375 239.226503" xmlns="http://www.w3.org/2000/svg" version="1.1">
 <metadata>
  <rdf:RDF xmlns:dc="http://purl.org/dc/elements/1.1/" xmlns:cc="http://creativecommons.org/ns#" xmlns:rdf="http://www.w3.org/1999/02/22-rdf-syntax-ns#">
   <cc:Work>
    <dc:type rdf:resource="http://purl.org/dc/dcmitype/StillImage"/>
    <dc:date>2026-02-10T14:39:14.338908</dc:date>
    <dc:format>image/svg+xml</dc:format>
    <dc:creator>
     <cc:Agent>
      <dc:title>Matplotlib v3.10.8, https://matplotlib.org/</dc:title>
     </cc:Agent>
    </dc:creator>
   </cc:Work>
  </rdf:RDF>
 </metadata>
 <defs>
  <style type="text/css">*{stroke-linejoin: round; stroke-linecap: butt}</style>
 </defs>
 <g id="figure_1">
  <g id="patch_1">
   <path d="M -0 239.226503 
L 561.479375 239.226503 
L 561.479375 0 
L -0 0 
z
" style="fill: #ffffff"/>
  </g>
  <g id="axes_1">
   <g id="patch_2">
    <path d="M 52.079375 113.518125 
L 554.279375 113.518125 
L 554.279375 22.318125 
L 52.079375 22.318125 
z
" style="fill: #ffffff"/>
   </g>
   <g id="matplotlib.axis_1">
    <g id="xtick_1">
     <g id="line2d_1">
      <path d="M 83.724854 113.518125 
L 83.724854 22.318125 
" clip-path="url(#pdd5b98bd1f)" style="fill: none; stroke: #b0b0b0; stroke-opacity: 0.2; stroke-width: 0.8; stroke-linecap: square"/>
     </g>
     <g id="line2d_2">
      <defs>
       <path id="m03352b424e" d="M 0 0 
L 0 3.5 
" style="stroke: #000000; stroke-width: 0.8"/>
      </defs>
      <g>
       <use xlink:href="#m03352b424e" x="83.724854" y="113.518125" style="stroke: #000000; stroke-width: 0.8"/>
      </g>
     </g>
     <g id="text_1">
      <!-- 2025-03 -->
      <g transform="translate(52.709383 155.435942) rotate(-45) scale(0.1 -0.1)">
       <defs>
        <path id="DejaVuSans-32" d="M 1228 531 
L 3431 531 
L 3431 0 
L 469 0 
L 469 531 
Q 828 903 1448 1529 
Q 2069 2156 2228 2338 
Q 2531 2678 2651 2914 
Q 2772 3150 2772 3378 
Q 2772 3750 2511 3984 
Q 2250 4219 1831 4219 
Q 1534 4219 1204 4116 
Q 875 4013 500 3803 
L 500 4441 
Q 881 4594 1212 4672 
Q 1544 4750 1819 4750 
Q 2544 4750 2975 4387 
Q 3406 4025 3406 3419 
Q 3406 3131 3298 2873 
Q 3191 2616 2906 2266 
Q 2828 2175 2409 1742 
Q 1991 1309 1228 531 
z
" transform="scale(0.015625)"/>
        <path id="DejaVuSans-30" d="M 2034 4250 
Q 1547 4250 1301 3770 
Q 1056 3291 1056 2328 
Q 1056 1369 1301 889 
Q 1547 409 2034 409 
Q 2525 409 2770 889 
Q 3016 1369 3016 2328 
Q 3016 3291 2770 3770 
Q 2525 4250 2034 4250 
z
M 2034 4750 
Q 2819 4750 3233 4129 
Q 3647 3509 3647 2328 
Q 3647 1150 3233 529 
Q 2819 -91 2034 -91 
Q 1250 -91 836 529 
Q 422 1150 422 2328 
Q 422 3509 836 4129 
Q 1250 4750 2034 4750 
z
" transform="scale(0.015625)"/>
        <path id="DejaVuSans-35" d="M 691 4666 
L 3169 4666 
L 3169 4134 
L 1269 4134 
L 1269 2991 
Q 1406 3038 1543 3061 
Q 1681 3084 1819 3084 
Q 2600 3084 3056 2656 
Q 3513 2228 3513 1497 
Q 3513 744 3044 326 
Q 2575 -91 1722 -91 
Q 1428 -91 1123 -41 
Q 819 9 494 109 
L 494 744 
Q 775 591 1075 516 
Q 1375 441 1709 441 
Q 2250 441 2565 725 
Q 2881 1009 2881 1497 
Q 2881 1984 2565 2268 
Q 2250 2553 1709 2553 
Q 1456 2553 1204 2497 
Q 953 2441 691 2322 
L 691 4666 
z
" transform="scale(0.015625)"/>
        <path id="DejaVuSans-2d" d="M 313 2009 
L 1997 2009 
L 1997 1497 
L 313 1497 
L 313 2009 
z
" transform="scale(0.015625)"/>
        <path id="DejaVuSans-33" d="M 2597 2516 
Q 3050 2419 3304 2112 
Q 3559 1806 3559 1356 
Q 3559 666 3084 287 
Q 2609 -91 1734 -91 
Q 1441 -91 1130 -33 
Q 819 25 488 141 
L 488 750 
Q 750 597 1062 519 
Q 1375 441 1716 441 
Q 2309 441 2620 675 
Q 2931 909 2931 1356 
Q 2931 1769 2642 2001 
Q 2353 2234 1838 2234 
L 1294 2234 
L 1294 2753 
L 1863 2753 
Q 2328 2753 2575 2939 
Q 2822 3125 2822 3475 
Q 2822 3834 2567 4026 
Q 2313 4219 1838 4219 
Q 1578 4219 1281 4162 
Q 984 4106 628 3988 
L 628 4550 
Q 988 4650 1302 4700 
Q 1616 4750 1894 4750 
Q 2613 4750 3031 4423 
Q 3450 4097 3450 3541 
Q 3450 3153 3228 2886 
Q 3006 2619 2597 2516 
z
" transform="scale(0.015625)"/>
       </defs>
       <use xlink:href="#DejaVuSans-32"/>
       <use xlink:href="#DejaVuSans-30" transform="translate(63.623047 0)"/>
       <use xlink:href="#DejaVuSans-32" transform="translate(127.246094 0)"/>
       <use xlink:href="#DejaVuSans-35" transform="translate(190.869141 0)"/>
       <use xlink:href="#DejaVuSans-2d" transform="translate(254.492188 0)"/>
       <use xlink:href="#DejaVuSans-30" transform="translate(290.576172 0)"/>
       <use xlink:href="#DejaVuSans-33" transform="translate(354.199219 0)"/>
      </g>
     </g>
    </g>
    <g id="xtick_2">
     <g id="line2d_3">
      <path d="M 126.377457 113.518125 
L 126.377457 22.318125 
" clip-path="url(#pdd5b98bd1f)" style="fill: none; stroke: #b0b0b0; stroke-opacity: 0.2; stroke-width: 0.8; stroke-linecap: square"/>
     </g>
     <g id="line2d_4">
      <g>
       <use xlink:href="#m03352b424e" x="126.377457" y="113.518125" style="stroke: #000000; stroke-width: 0.8"/>
      </g>
     </g>
     <g id="text_2">
      <!-- 2025-04 -->
      <g transform="translate(95.361986 155.435942) rotate(-45) scale(0.1 -0.1)">
       <defs>
        <path id="DejaVuSans-34" d="M 2419 4116 
L 825 1625 
L 2419 1625 
L 2419 4116 
z
M 2253 4666 
L 3047 4666 
L 3047 1625 
L 3713 1625 
L 3713 1100 
L 3047 1100 
L 3047 0 
L 2419 0 
L 2419 1100 
L 313 1100 
L 313 1709 
L 2253 4666 
z
" transform="scale(0.015625)"/>
       </defs>
       <use xlink:href="#DejaVuSans-32"/>
       <use xlink:href="#DejaVuSans-30" transform="translate(63.623047 0)"/>
       <use xlink:href="#DejaVuSans-32" transform="translate(127.246094 0)"/>
       <use xlink:href="#DejaVuSans-35" transform="translate(190.869141 0)"/>
       <use xlink:href="#DejaVuSans-2d" transform="translate(254.492188 0)"/>
       <use xlink:href="#DejaVuSans-30" transform="translate(290.576172 0)"/>
       <use xlink:href="#DejaVuSans-34" transform="translate(354.199219 0)"/>
      </g>
     </g>
    </g>
    <g id="xtick_3">
     <g id="line2d_5">
      <path d="M 167.65417 113.518125 
L 167.65417 22.318125 
" clip-path="url(#pdd5b98bd1f)" style="fill: none; stroke: #b0b0b0; stroke-opacity: 0.2; stroke-width: 0.8; stroke-linecap: square"/>
     </g>
     <g id="line2d_6">
      <g>
       <use xlink:href="#m03352b424e" x="167.65417" y="113.518125" style="stroke: #000000; stroke-width: 0.8"/>
      </g>
     </g>
     <g id="text_3">
      <!-- 2025-05 -->
      <g transform="translate(136.638698 155.435942) rotate(-45) scale(0.1 -0.1)">
       <use xlink:href="#DejaVuSans-32"/>
       <use xlink:href="#DejaVuSans-30" transform="translate(63.623047 0)"/>
       <use xlink:href="#DejaVuSans-32" transform="translate(127.246094 0)"/>
       <use xlink:href="#DejaVuSans-35" transform="translate(190.869141 0)"/>
       <use xlink:href="#DejaVuSans-2d" transform="translate(254.492188 0)"/>
       <use xlink:href="#DejaVuSans-30" transform="translate(290.576172 0)"/>
       <use xlink:href="#DejaVuSans-35" transform="translate(354.199219 0)"/>
      </g>
     </g>
    </g>
    <g id="xtick_4">
     <g id="line2d_7">
      <path d="M 210.306772 113.518125 
L 210.306772 22.318125 
" clip-path="url(#pdd5b98bd1f)" style="fill: none; stroke: #b0b0b0; stroke-opacity: 0.2; stroke-width: 0.8; stroke-linecap: square"/>
     </g>
     <g id="line2d_8">
      <g>
       <use xlink:href="#m03352b424e" x="210.306772" y="113.518125" style="stroke: #000000; stroke-width: 0.8"/>
      </g>
     </g>
     <g id="text_4">
      <!-- 2025-06 -->
      <g transform="translate(179.291301 155.435942) rotate(-45) scale(0.1 -0.1)">
       <defs>
        <path id="DejaVuSans-36" d="M 2113 2584 
Q 1688 2584 1439 2293 
Q 1191 2003 1191 1497 
Q 1191 994 1439 701 
Q 1688 409 2113 409 
Q 2538 409 2786 701 
Q 3034 994 3034 1497 
Q 3034 2003 2786 2293 
Q 2538 2584 2113 2584 
z
M 3366 4563 
L 3366 3988 
Q 3128 4100 2886 4159 
Q 2644 4219 2406 4219 
Q 1781 4219 1451 3797 
Q 1122 3375 1075 2522 
Q 1259 2794 1537 2939 
Q 1816 3084 2150 3084 
Q 2853 3084 3261 2657 
Q 3669 2231 3669 1497 
Q 3669 778 3244 343 
Q 2819 -91 2113 -91 
Q 1303 -91 875 529 
Q 447 1150 447 2328 
Q 447 3434 972 4092 
Q 1497 4750 2381 4750 
Q 2619 4750 2861 4703 
Q 3103 4656 3366 4563 
z
" transform="scale(0.015625)"/>
       </defs>
       <use xlink:href="#DejaVuSans-32"/>
       <use xlink:href="#DejaVuSans-30" transform="translate(63.623047 0)"/>
       <use xlink:href="#DejaVuSans-32" transform="translate(127.246094 0)"/>
       <use xlink:href="#DejaVuSans-35" transform="translate(190.869141 0)"/>
       <use xlink:href="#DejaVuSans-2d" transform="translate(254.492188 0)"/>
       <use xlink:href="#DejaVuSans-30" transform="translate(290.576172 0)"/>
       <use xlink:href="#DejaVuSans-36" transform="translate(354.199219 0)"/>
      </g>
     </g>
    </g>
    <g id="xtick_5">
     <g id="line2d_9">
      <path d="M 251.583485 113.518125 
L 251.583485 22.318125 
" clip-path="url(#pdd5b98bd1f)" style="fill: none; stroke: #b0b0b0; stroke-opacity: 0.2; stroke-width: 0.8; stroke-linecap: square"/>
     </g>
     <g id="line2d_10">
      <g>
       <use xlink:href="#m03352b424e" x="251.583485" y="113.518125" style="stroke: #000000; stroke-width: 0.8"/>
      </g>
     </g>
     <g id="text_5">
      <!-- 2025-07 -->
      <g transform="translate(220.568013 155.435942) rotate(-45) scale(0.1 -0.1)">
       <defs>
        <path id="DejaVuSans-37" d="M 525 4666 
L 3525 4666 
L 3525 4397 
L 1831 0 
L 1172 0 
L 2766 4134 
L 525 4134 
L 525 4666 
z
" transform="scale(0.015625)"/>
       </defs>
       <use xlink:href="#DejaVuSans-32"/>
       <use xlink:href="#DejaVuSans-30" transform="translate(63.623047 0)"/>
       <use xlink:href="#DejaVuSans-32" transform="translate(127.246094 0)"/>
       <use xlink:href="#DejaVuSans-35" transform="translate(190.869141 0)"/>
       <use xlink:href="#DejaVuSans-2d" transform="translate(254.492188 0)"/>
       <use xlink:href="#DejaVuSans-30" transform="translate(290.576172 0)"/>
       <use xlink:href="#DejaVuSans-37" transform="translate(354.199219 0)"/>
      </g>
     </g>
    </g>
    <g id="xtick_6">
     <g id="line2d_11">
      <path d="M 294.236087 113.518125 
L 294.236087 22.318125 
" clip-path="url(#pdd5b98bd1f)" style="fill: none; stroke: #b0b0b0; stroke-opacity: 0.2; stroke-width: 0.8; stroke-linecap: square"/>
     </g>
     <g id="line2d_12">
      <g>
       <use xlink:href="#m03352b424e" x="294.236087" y="113.518125" style="stroke: #000000; stroke-width: 0.8"/>
      </g>
     </g>
     <g id="text_6">
      <!-- 2025-08 -->
      <g transform="translate(263.220616 155.435942) rotate(-45) scale(0.1 -0.1)">
       <defs>
        <path id="DejaVuSans-38" d="M 2034 2216 
Q 1584 2216 1326 1975 
Q 1069 1734 1069 1313 
Q 1069 891 1326 650 
Q 1584 409 2034 409 
Q 2484 409 2743 651 
Q 3003 894 3003 1313 
Q 3003 1734 2745 1975 
Q 2488 2216 2034 2216 
z
M 1403 2484 
Q 997 2584 770 2862 
Q 544 3141 544 3541 
Q 544 4100 942 4425 
Q 1341 4750 2034 4750 
Q 2731 4750 3128 4425 
Q 3525 4100 3525 3541 
Q 3525 3141 3298 2862 
Q 3072 2584 2669 2484 
Q 3125 2378 3379 2068 
Q 3634 1759 3634 1313 
Q 3634 634 3220 271 
Q 2806 -91 2034 -91 
Q 1263 -91 848 271 
Q 434 634 434 1313 
Q 434 1759 690 2068 
Q 947 2378 1403 2484 
z
M 1172 3481 
Q 1172 3119 1398 2916 
Q 1625 2713 2034 2713 
Q 2441 2713 2670 2916 
Q 2900 3119 2900 3481 
Q 2900 3844 2670 4047 
Q 2441 4250 2034 4250 
Q 1625 4250 1398 4047 
Q 1172 3844 1172 3481 
z
" transform="scale(0.015625)"/>
       </defs>
       <use xlink:href="#DejaVuSans-32"/>
       <use xlink:href="#DejaVuSans-30" transform="translate(63.623047 0)"/>
       <use xlink:href="#DejaVuSans-32" transform="translate(127.246094 0)"/>
       <use xlink:href="#DejaVuSans-35" transform="translate(190.869141 0)"/>
       <use xlink:href="#DejaVuSans-2d" transform="translate(254.492188 0)"/>
       <use xlink:href="#DejaVuSans-30" transform="translate(290.576172 0)"/>
       <use xlink:href="#DejaVuSans-38" transform="translate(354.199219 0)"/>
      </g>
     </g>
    </g>
    <g id="xtick_7">
     <g id="line2d_13">
      <path d="M 336.88869 113.518125 
L 336.88869 22.318125 
" clip-path="url(#pdd5b98bd1f)" style="fill: none; stroke: #b0b0b0; stroke-opacity: 0.2; stroke-width: 0.8; stroke-linecap: square"/>
     </g>
     <g id="line2d_14">
      <g>
       <use xlink:href="#m03352b424e" x="336.88869" y="113.518125" style="stroke: #000000; stroke-width: 0.8"/>
      </g>
     </g>
     <g id="text_7">
      <!-- 2025-09 -->
      <g transform="translate(305.873219 155.435942) rotate(-45) scale(0.1 -0.1)">
       <defs>
        <path id="DejaVuSans-39" d="M 703 97 
L 703 672 
Q 941 559 1184 500 
Q 1428 441 1663 441 
Q 2288 441 2617 861 
Q 2947 1281 2994 2138 
Q 2813 1869 2534 1725 
Q 2256 1581 1919 1581 
Q 1219 1581 811 2004 
Q 403 2428 403 3163 
Q 403 3881 828 4315 
Q 1253 4750 1959 4750 
Q 2769 4750 3195 4129 
Q 3622 3509 3622 2328 
Q 3622 1225 3098 567 
Q 2575 -91 1691 -91 
Q 1453 -91 1209 -44 
Q 966 3 703 97 
z
M 1959 2075 
Q 2384 2075 2632 2365 
Q 2881 2656 2881 3163 
Q 2881 3666 2632 3958 
Q 2384 4250 1959 4250 
Q 1534 4250 1286 3958 
Q 1038 3666 1038 3163 
Q 1038 2656 1286 2365 
Q 1534 2075 1959 2075 
z
" transform="scale(0.015625)"/>
       </defs>
       <use xlink:href="#DejaVuSans-32"/>
       <use xlink:href="#DejaVuSans-30" transform="translate(63.623047 0)"/>
       <use xlink:href="#DejaVuSans-32" transform="translate(127.246094 0)"/>
       <use xlink:href="#DejaVuSans-35" transform="translate(190.869141 0)"/>
       <use xlink:href="#DejaVuSans-2d" transform="translate(254.492188 0)"/>
       <use xlink:href="#DejaVuSans-30" transform="translate(290.576172 0)"/>
       <use xlink:href="#DejaVuSans-39" transform="translate(354.199219 0)"/>
      </g>
     </g>
    </g>
    <g id="xtick_8">
     <g id="line2d_15">
      <path d="M 378.165402 113.518125 
L 378.165402 22.318125 
" clip-path="url(#pdd5b98bd1f)" style="fill: none; stroke: #b0b0b0; stroke-opacity: 0.2; stroke-width: 0.8; stroke-linecap: square"/>
     </g>
     <g id="line2d_16">
      <g>
       <use xlink:href="#m03352b424e" x="378.165402" y="113.518125" style="stroke: #000000; stroke-width: 0.8"/>
      </g>
     </g>
     <g id="text_8">
      <!-- 2025-10 -->
      <g transform="translate(347.149931 155.435942) rotate(-45) scale(0.1 -0.1)">
       <defs>
        <path id="DejaVuSans-31" d="M 794 531 
L 1825 531 
L 1825 4091 
L 703 3866 
L 703 4441 
L 1819 4666 
L 2450 4666 
L 2450 531 
L 3481 531 
L 3481 0 
L 794 0 
L 794 531 
z
" transform="scale(0.015625)"/>
       </defs>
       <use xlink:href="#DejaVuSans-32"/>
       <use xlink:href="#DejaVuSans-30" transform="translate(63.623047 0)"/>
       <use xlink:href="#DejaVuSans-32" transform="translate(127.246094 0)"/>
       <use xlink:href="#DejaVuSans-35" transform="translate(190.869141 0)"/>
       <use xlink:href="#DejaVuSans-2d" transform="translate(254.492188 0)"/>
       <use xlink:href="#DejaVuSans-31" transform="translate(290.576172 0)"/>
       <use xlink:href="#DejaVuSans-30" transform="translate(354.199219 0)"/>
      </g>
     </g>
    </g>
    <g id="xtick_9">
     <g id="line2d_17">
      <path d="M 420.818005 113.518125 
L 420.818005 22.318125 
" clip-path="url(#pdd5b98bd1f)" style="fill: none; stroke: #b0b0b0; stroke-opacity: 0.2; stroke-width: 0.8; stroke-linecap: square"/>
     </g>
     <g id="line2d_18">
      <g>
       <use xlink:href="#m03352b424e" x="420.818005" y="113.518125" style="stroke: #000000; stroke-width: 0.8"/>
      </g>
     </g>
     <g id="text_9">
      <!-- 2025-11 -->
      <g transform="translate(389.802534 155.435942) rotate(-45) scale(0.1 -0.1)">
       <use xlink:href="#DejaVuSans-32"/>
       <use xlink:href="#DejaVuSans-30" transform="translate(63.623047 0)"/>
       <use xlink:href="#DejaVuSans-32" transform="translate(127.246094 0)"/>
       <use xlink:href="#DejaVuSans-35" transform="translate(190.869141 0)"/>
       <use xlink:href="#DejaVuSans-2d" transform="translate(254.492188 0)"/>
       <use xlink:href="#DejaVuSans-31" transform="translate(290.576172 0)"/>
       <use xlink:href="#DejaVuSans-31" transform="translate(354.199219 0)"/>
      </g>
     </g>
    </g>
    <g id="xtick_10">
     <g id="line2d_19">
      <path d="M 462.094717 113.518125 
L 462.094717 22.318125 
" clip-path="url(#pdd5b98bd1f)" style="fill: none; stroke: #b0b0b0; stroke-opacity: 0.2; stroke-width: 0.8; stroke-linecap: square"/>
     </g>
     <g id="line2d_20">
      <g>
       <use xlink:href="#m03352b424e" x="462.094717" y="113.518125" style="stroke: #000000; stroke-width: 0.8"/>
      </g>
     </g>
     <g id="text_10">
      <!-- 2025-12 -->
      <g transform="translate(431.079246 155.435942) rotate(-45) scale(0.1 -0.1)">
       <use xlink:href="#DejaVuSans-32"/>
       <use xlink:href="#DejaVuSans-30" transform="translate(63.623047 0)"/>
       <use xlink:href="#DejaVuSans-32" transform="translate(127.246094 0)"/>
       <use xlink:href="#DejaVuSans-35" transform="translate(190.869141 0)"/>
       <use xlink:href="#DejaVuSans-2d" transform="translate(254.492188 0)"/>
       <use xlink:href="#DejaVuSans-31" transform="translate(290.576172 0)"/>
       <use xlink:href="#DejaVuSans-32" transform="translate(354.199219 0)"/>
      </g>
     </g>
    </g>
    <g id="xtick_11">
     <g id="line2d_21">
      <path d="M 504.74732 113.518125 
L 504.74732 22.318125 
" clip-path="url(#pdd5b98bd1f)" style="fill: none; stroke: #b0b0b0; stroke-opacity: 0.2; stroke-width: 0.8; stroke-linecap: square"/>
     </g>
     <g id="line2d_22">
      <g>
       <use xlink:href="#m03352b424e" x="504.74732" y="113.518125" style="stroke: #000000; stroke-width: 0.8"/>
      </g>
     </g>
     <g id="text_11">
      <!-- 2026-01 -->
      <g transform="translate(473.731849 155.435942) rotate(-45) scale(0.1 -0.1)">
       <use xlink:href="#DejaVuSans-32"/>
       <use xlink:href="#DejaVuSans-30" transform="translate(63.623047 0)"/>
       <use xlink:href="#DejaVuSans-32" transform="translate(127.246094 0)"/>
       <use xlink:href="#DejaVuSans-36" transform="translate(190.869141 0)"/>
       <use xlink:href="#DejaVuSans-2d" transform="translate(254.492188 0)"/>
       <use xlink:href="#DejaVuSans-30" transform="translate(290.576172 0)"/>
       <use xlink:href="#DejaVuSans-31" transform="translate(354.199219 0)"/>
      </g>
     </g>
    </g>
    <g id="xtick_12">
     <g id="line2d_23">
      <path d="M 547.399923 113.518125 
L 547.399923 22.318125 
" clip-path="url(#pdd5b98bd1f)" style="fill: none; stroke: #b0b0b0; stroke-opacity: 0.2; stroke-width: 0.8; stroke-linecap: square"/>
     </g>
     <g id="line2d_24">
      <g>
       <use xlink:href="#m03352b424e" x="547.399923" y="113.518125" style="stroke: #000000; stroke-width: 0.8"/>
      </g>
     </g>
     <g id="text_12">
      <!-- 2026-02 -->
      <g transform="translate(516.384452 155.435942) rotate(-45) scale(0.1 -0.1)">
       <use xlink:href="#DejaVuSans-32"/>
       <use xlink:href="#DejaVuSans-30" transform="translate(63.623047 0)"/>
       <use xlink:href="#DejaVuSans-32" transform="translate(127.246094 0)"/>
       <use xlink:href="#DejaVuSans-36" transform="translate(190.869141 0)"/>
       <use xlink:href="#DejaVuSans-2d" transform="translate(254.492188 0)"/>
       <use xlink:href="#DejaVuSans-30" transform="translate(290.576172 0)"/>
       <use xlink:href="#DejaVuSans-32" transform="translate(354.199219 0)"/>
      </g>
     </g>
    </g>
   </g>
   <g id="matplotlib.axis_2">
    <g id="ytick_1">
     <g id="line2d_25">
      <path d="M 52.079375 109.37267 
L 554.279375 109.37267 
" clip-path="url(#pdd5b98bd1f)" style="fill: none; stroke: #b0b0b0; stroke-opacity: 0.2; stroke-width: 0.8; stroke-linecap: square"/>
     </g>
     <g id="line2d_26">
      <defs>
       <path id="mb0768bbe15" d="M 0 0 
L -3.5 0 
" style="stroke: #000000; stroke-width: 0.8"/>
      </defs>
      <g>
       <use xlink:href="#mb0768bbe15" x="52.079375" y="109.37267" style="stroke: #000000; stroke-width: 0.8"/>
      </g>
     </g>
     <g id="text_13">
      <!-- 0 -->
      <g transform="translate(38.716875 113.171889) scale(0.1 -0.1)">
       <use xlink:href="#DejaVuSans-30"/>
      </g>
     </g>
    </g>
    <g id="ytick_2">
     <g id="line2d_27">
      <path d="M 52.079375 81.550828 
L 554.279375 81.550828 
" clip-path="url(#pdd5b98bd1f)" style="fill: none; stroke: #b0b0b0; stroke-opacity: 0.2; stroke-width: 0.8; stroke-linecap: square"/>
     </g>
     <g id="line2d_28">
      <g>
       <use xlink:href="#mb0768bbe15" x="52.079375" y="81.550828" style="stroke: #000000; stroke-width: 0.8"/>
      </g>
     </g>
     <g id="text_14">
      <!-- 50 -->
      <g transform="translate(32.354375 85.350047) scale(0.1 -0.1)">
       <use xlink:href="#DejaVuSans-35"/>
       <use xlink:href="#DejaVuSans-30" transform="translate(63.623047 0)"/>
      </g>
     </g>
    </g>
    <g id="ytick_3">
     <g id="line2d_29">
      <path d="M 52.079375 53.728985 
L 554.279375 53.728985 
" clip-path="url(#pdd5b98bd1f)" style="fill: none; stroke: #b0b0b0; stroke-opacity: 0.2; stroke-width: 0.8; stroke-linecap: square"/>
     </g>
     <g id="line2d_30">
      <g>
       <use xlink:href="#mb0768bbe15" x="52.079375" y="53.728985" style="stroke: #000000; stroke-width: 0.8"/>
      </g>
     </g>
     <g id="text_15">
      <!-- 100 -->
      <g transform="translate(25.991875 57.528204) scale(0.1 -0.1)">
       <use xlink:href="#DejaVuSans-31"/>
       <use xlink:href="#DejaVuSans-30" transform="translate(63.623047 0)"/>
       <use xlink:href="#DejaVuSans-30" transform="translate(127.246094 0)"/>
      </g>
     </g>
    </g>
    <g id="ytick_4">
     <g id="line2d_31">
      <path d="M 52.079375 25.907143 
L 554.279375 25.907143 
" clip-path="url(#pdd5b98bd1f)" style="fill: none; stroke: #b0b0b0; stroke-opacity: 0.2; stroke-width: 0.8; stroke-linecap: square"/>
     </g>
     <g id="line2d_32">
      <g>
       <use xlink:href="#mb0768bbe15" x="52.079375" y="25.907143" style="stroke: #000000; stroke-width: 0.8"/>
      </g>
     </g>
     <g id="text_16">
      <!-- 150 -->
      <g transform="translate(25.991875 29.706361) scale(0.1 -0.1)">
       <use xlink:href="#DejaVuSans-31"/>
       <use xlink:href="#DejaVuSans-35" transform="translate(63.623047 0)"/>
       <use xlink:href="#DejaVuSans-30" transform="translate(127.246094 0)"/>
      </g>
     </g>
    </g>
    <g id="text_17">
     <!-- bp -->
     <g transform="translate(19.912187 74.266562) rotate(-90) scale(0.1 -0.1)">
      <defs>
       <path id="DejaVuSans-62" d="M 3116 1747 
Q 3116 2381 2855 2742 
Q 2594 3103 2138 3103 
Q 1681 3103 1420 2742 
Q 1159 2381 1159 1747 
Q 1159 1113 1420 752 
Q 1681 391 2138 391 
Q 2594 391 2855 752 
Q 3116 1113 3116 1747 
z
M 1159 2969 
Q 1341 3281 1617 3432 
Q 1894 3584 2278 3584 
Q 2916 3584 3314 3078 
Q 3713 2572 3713 1747 
Q 3713 922 3314 415 
Q 2916 -91 2278 -91 
Q 1894 -91 1617 61 
Q 1341 213 1159 525 
L 1159 0 
L 581 0 
L 581 4863 
L 1159 4863 
L 1159 2969 
z
" transform="scale(0.015625)"/>
       <path id="DejaVuSans-70" d="M 1159 525 
L 1159 -1331 
L 581 -1331 
L 581 3500 
L 1159 3500 
L 1159 2969 
Q 1341 3281 1617 3432 
Q 1894 3584 2278 3584 
Q 2916 3584 3314 3078 
Q 3713 2572 3713 1747 
Q 3713 922 3314 415 
Q 2916 -91 2278 -91 
Q 1894 -91 1617 61 
Q 1341 213 1159 525 
z
M 3116 1747 
Q 3116 2381 2855 2742 
Q 2594 3103 2138 3103 
Q 1681 3103 1420 2742 
Q 1159 2381 1159 1747 
Q 1159 1113 1420 752 
Q 1681 391 2138 391 
Q 2594 391 2855 752 
Q 3116 1113 3116 1747 
z
" transform="scale(0.015625)"/>
      </defs>
      <use xlink:href="#DejaVuSans-62"/>
      <use xlink:href="#DejaVuSans-70" transform="translate(63.476562 0)"/>
     </g>
    </g>
   </g>
   <g id="line2d_33">
    <path d="M 52.079375 26.46358 
L 53.455265 30.358638 
L 57.582937 28.689327 
L 58.958827 29.245764 
L 60.334717 29.245764 
L 61.710608 30.358638 
L 63.086498 32.584385 
L 67.21417 32.584385 
L 68.59006 33.697259 
L 69.96595 34.253695 
L 71.341841 38.148753 
L 72.717731 35.923006 
L 76.845402 35.366569 
L 78.221293 36.479443 
L 79.597183 38.70519 
L 80.973074 35.923006 
L 82.348964 34.810132 
L 86.476635 34.253695 
L 87.852526 33.140822 
L 89.228416 35.366569 
L 90.604307 41.487375 
L 91.980197 37.592317 
L 96.107868 40.374501 
L 97.483759 38.70519 
L 100.235539 40.930938 
L 101.61143 39.818064 
L 105.739101 37.592317 
L 107.114991 38.70519 
L 108.490882 39.261627 
L 109.866772 40.374501 
L 115.370334 38.148753 
L 116.746224 39.818064 
L 118.122115 40.930938 
L 119.498005 37.592317 
L 120.873896 39.818064 
L 125.001567 39.261627 
L 126.377457 39.818064 
L 127.753348 39.261627 
L 129.129238 47.051743 
L 130.505128 47.051743 
L 134.6328 47.60818 
L 136.00869 44.825996 
L 137.38458 44.825996 
L 138.760471 43.713122 
L 140.136361 41.487375 
L 144.264033 39.261627 
L 145.639923 40.374501 
L 147.015813 42.043811 
L 149.767594 42.043811 
L 153.895265 43.156685 
L 155.271156 41.487375 
L 156.647046 44.269559 
L 158.022937 45.938869 
L 159.398827 47.051743 
L 163.526498 49.833927 
L 164.902389 49.833927 
L 166.278279 48.164617 
L 167.65417 45.382433 
L 169.03006 45.382433 
L 173.157731 43.156685 
L 174.533622 45.382433 
L 177.285402 44.269559 
L 178.661293 41.487375 
L 182.788964 39.818064 
L 184.164854 38.70519 
L 186.916635 37.592317 
L 188.292526 39.261627 
L 192.420197 37.592317 
L 193.796087 43.156685 
L 195.171978 43.156685 
L 197.923759 44.269559 
L 202.05143 43.156685 
L 203.42732 43.713122 
L 204.803211 40.930938 
L 207.554991 42.043811 
L 211.682663 40.930938 
L 213.058553 43.156685 
L 214.434443 45.938869 
L 215.810334 45.382433 
L 217.186224 44.269559 
L 221.313896 46.495306 
L 222.689786 46.495306 
L 224.065676 49.833927 
L 225.441567 52.059675 
L 226.817457 51.503238 
L 230.945128 50.390364 
L 232.321019 52.616112 
L 233.696909 50.946801 
L 235.0728 50.946801 
L 236.44869 49.27749 
L 240.576361 49.833927 
L 241.952252 51.503238 
L 243.328142 55.398296 
L 244.704033 57.624043 
L 246.079923 54.841859 
L 250.207594 55.954733 
L 251.583485 54.841859 
L 252.959375 57.067606 
L 255.711156 53.728985 
L 259.838827 53.728985 
L 261.214717 54.285422 
L 265.342389 57.624043 
L 269.47006 58.18048 
L 270.84595 59.293354 
L 272.221841 59.849791 
L 273.597731 59.293354 
L 274.973622 60.962664 
L 279.101293 60.962664 
L 280.477183 62.075538 
L 281.853074 62.631975 
L 283.228964 60.406228 
L 284.604854 60.406228 
L 288.732526 59.293354 
L 290.108416 60.962664 
L 291.484307 59.293354 
L 292.860197 58.18048 
L 294.236087 62.075538 
L 298.363759 62.631975 
L 299.739649 62.631975 
L 301.115539 63.188412 
L 302.49143 62.631975 
L 303.86732 59.849791 
L 307.994991 60.406228 
L 309.370882 61.519101 
L 310.746772 62.075538 
L 312.122663 60.406228 
L 313.498553 60.962664 
L 317.626224 62.075538 
L 319.002115 61.519101 
L 320.378005 62.075538 
L 321.753896 62.075538 
L 323.129786 63.188412 
L 327.257457 64.301285 
L 328.633348 64.301285 
L 330.009238 65.414159 
L 331.385128 64.857722 
L 332.761019 62.075538 
L 336.88869 62.075538 
L 341.016361 63.744849 
L 342.392252 63.188412 
L 346.519923 62.631975 
L 347.895813 61.519101 
L 349.271704 60.962664 
L 350.647594 62.075538 
L 352.023485 60.406228 
L 358.902937 60.406228 
L 360.278827 58.18048 
L 361.654717 57.067606 
L 365.782389 55.954733 
L 367.158279 57.624043 
L 368.53417 55.954733 
L 369.91006 55.954733 
L 371.28595 55.398296 
L 375.413622 54.841859 
L 376.789512 54.285422 
L 378.165402 57.624043 
L 379.541293 58.18048 
L 380.917183 57.067606 
L 385.044854 55.398296 
L 386.420745 56.51117 
L 387.796635 57.067606 
L 389.172526 57.067606 
L 390.548416 60.962664 
L 394.676087 60.962664 
L 396.051978 59.849791 
L 397.427868 57.624043 
L 398.803759 58.736917 
L 400.179649 57.624043 
L 404.30732 56.51117 
L 405.683211 59.293354 
L 407.059101 59.293354 
L 409.810882 57.067606 
L 413.938553 55.954733 
L 415.314443 56.51117 
L 416.690334 57.624043 
L 418.066224 54.841859 
L 419.442115 54.285422 
L 423.569786 54.841859 
L 424.945676 56.51117 
L 426.321567 53.172548 
L 427.697457 53.172548 
L 429.073348 57.067606 
L 433.201019 55.954733 
L 434.576909 55.954733 
L 435.9528 57.067606 
L 438.70458 58.18048 
L 442.832252 59.293354 
L 444.208142 60.962664 
L 445.584033 60.406228 
L 446.959923 60.406228 
L 448.335813 61.519101 
L 453.839375 61.519101 
L 456.591156 60.406228 
L 457.967046 60.406228 
L 462.094717 62.075538 
L 463.470608 62.075538 
L 464.846498 62.631975 
L 466.222389 62.075538 
L 467.598279 69.309217 
L 471.72595 67.639907 
L 473.101841 69.309217 
L 474.477731 69.865654 
L 475.853622 69.309217 
L 477.229512 67.639907 
L 481.357183 66.527033 
L 482.733074 67.639907 
L 484.108964 68.196343 
L 485.484854 69.309217 
L 486.860745 70.978528 
L 490.988416 69.865654 
L 492.364307 67.08347 
L 493.740197 67.639907 
L 495.116087 67.639907 
L 496.491978 68.196343 
L 500.619649 68.75278 
L 501.995539 68.75278 
L 503.37143 67.08347 
L 504.74732 67.08347 
L 506.123211 69.309217 
L 510.250882 67.639907 
L 511.626772 67.639907 
L 513.002663 67.08347 
L 514.378553 65.414159 
L 515.754443 64.857722 
L 519.882115 65.414159 
L 521.258005 66.527033 
L 522.633896 65.414159 
L 524.009786 63.744849 
L 525.385676 60.962664 
L 529.513348 62.075538 
L 530.889238 60.406228 
L 532.265128 62.631975 
L 533.641019 61.519101 
L 535.016909 63.188412 
L 539.14458 62.075538 
L 540.520471 63.188412 
L 541.896361 62.631975 
L 543.272252 63.188412 
L 544.648142 62.631975 
L 548.775813 61.519101 
L 550.151704 62.631975 
L 551.527594 61.519101 
L 552.903485 64.301285 
L 554.279375 63.744849 
L 554.279375 63.744849 
" clip-path="url(#pdd5b98bd1f)" style="fill: none; stroke: #444444; stroke-width: 1.5; stroke-linecap: square"/>
    <defs>
     <path id="m9412193313" d="M 0 1 
C 0.265203 1 0.51958 0.894634 0.707107 0.707107 
C 0.894634 0.51958 1 0.265203 1 0 
C 1 -0.265203 0.894634 -0.51958 0.707107 -0.707107 
C 0.51958 -0.894634 0.265203 -1 0 -1 
C -0.265203 -1 -0.51958 -0.894634 -0.707107 -0.707107 
C -0.894634 -0.51958 -1 -0.265203 -1 0 
C -1 0.265203 -0.894634 0.51958 -0.707107 0.707107 
C -0.51958 0.894634 -0.265203 1 0 1 
z
" style="stroke: #444444"/>
    </defs>
    <g clip-path="url(#pdd5b98bd1f)">
     <use xlink:href="#m9412193313" x="52.079375" y="26.46358" style="fill: #444444; stroke: #444444"/>
     <use xlink:href="#m9412193313" x="53.455265" y="30.358638" style="fill: #444444; stroke: #444444"/>
     <use xlink:href="#m9412193313" x="57.582937" y="28.689327" style="fill: #444444; stroke: #444444"/>
     <use xlink:href="#m9412193313" x="58.958827" y="29.245764" style="fill: #444444; stroke: #444444"/>
     <use xlink:href="#m9412193313" x="60.334717" y="29.245764" style="fill: #444444; stroke: #444444"/>
     <use xlink:href="#m9412193313" x="61.710608" y="30.358638" style="fill: #444444; stroke: #444444"/>
     <use xlink:href="#m9412193313" x="63.086498" y="32.584385" style="fill: #444444; stroke: #444444"/>
     <use xlink:href="#m9412193313" x="67.21417" y="32.584385" style="fill: #444444; stroke: #444444"/>
     <use xlink:href="#m9412193313" x="68.59006" y="33.697259" style="fill: #444444; stroke: #444444"/>
     <use xlink:href="#m9412193313" x="69.96595" y="34.253695" style="fill: #444444; stroke: #444444"/>
     <use xlink:href="#m9412193313" x="71.341841" y="38.148753" style="fill: #444444; stroke: #444444"/>
     <use xlink:href="#m9412193313" x="72.717731" y="35.923006" style="fill: #444444; stroke: #444444"/>
     <use xlink:href="#m9412193313" x="76.845402" y="35.366569" style="fill: #444444; stroke: #444444"/>
     <use xlink:href="#m9412193313" x="78.221293" y="36.479443" style="fill: #444444; stroke: #444444"/>
     <use xlink:href="#m9412193313" x="79.597183" y="38.70519" style="fill: #444444; stroke: #444444"/>
     <use xlink:href="#m9412193313" x="80.973074" y="35.923006" style="fill: #444444; stroke: #444444"/>
     <use xlink:href="#m9412193313" x="82.348964" y="34.810132" style="fill: #444444; stroke: #444444"/>
     <use xlink:href="#m9412193313" x="86.476635" y="34.253695" style="fill: #444444; stroke: #444444"/>
     <use xlink:href="#m9412193313" x="87.852526" y="33.140822" style="fill: #444444; stroke: #444444"/>
     <use xlink:href="#m9412193313" x="89.228416" y="35.366569" style="fill: #444444; stroke: #444444"/>
     <use xlink:href="#m9412193313" x="90.604307" y="41.487375" style="fill: #444444; stroke: #444444"/>
     <use xlink:href="#m9412193313" x="91.980197" y="37.592317" style="fill: #444444; stroke: #444444"/>
     <use xlink:href="#m9412193313" x="96.107868" y="40.374501" style="fill: #444444; stroke: #444444"/>
     <use xlink:href="#m9412193313" x="97.483759" y="38.70519" style="fill: #444444; stroke: #444444"/>
     <use xlink:href="#m9412193313" x="98.859649" y="39.818064" style="fill: #444444; stroke: #444444"/>
     <use xlink:href="#m9412193313" x="100.235539" y="40.930938" style="fill: #444444; stroke: #444444"/>
     <use xlink:href="#m9412193313" x="101.61143" y="39.818064" style="fill: #444444; stroke: #444444"/>
     <use xlink:href="#m9412193313" x="105.739101" y="37.592317" style="fill: #444444; stroke: #444444"/>
     <use xlink:href="#m9412193313" x="107.114991" y="38.70519" style="fill: #444444; stroke: #444444"/>
     <use xlink:href="#m9412193313" x="108.490882" y="39.261627" style="fill: #444444; stroke: #444444"/>
     <use xlink:href="#m9412193313" x="109.866772" y="40.374501" style="fill: #444444; stroke: #444444"/>
     <use xlink:href="#m9412193313" x="111.242663" y="39.818064" style="fill: #444444; stroke: #444444"/>
     <use xlink:href="#m9412193313" x="115.370334" y="38.148753" style="fill: #444444; stroke: #444444"/>
     <use xlink:href="#m9412193313" x="116.746224" y="39.818064" style="fill: #444444; stroke: #444444"/>
     <use xlink:href="#m9412193313" x="118.122115" y="40.930938" style="fill: #444444; stroke: #444444"/>
     <use xlink:href="#m9412193313" x="119.498005" y="37.592317" style="fill: #444444; stroke: #444444"/>
     <use xlink:href="#m9412193313" x="120.873896" y="39.818064" style="fill: #444444; stroke: #444444"/>
     <use xlink:href="#m9412193313" x="125.001567" y="39.261627" style="fill: #444444; stroke: #444444"/>
     <use xlink:href="#m9412193313" x="126.377457" y="39.818064" style="fill: #444444; stroke: #444444"/>
     <use xlink:href="#m9412193313" x="127.753348" y="39.261627" style="fill: #444444; stroke: #444444"/>
     <use xlink:href="#m9412193313" x="129.129238" y="47.051743" style="fill: #444444; stroke: #444444"/>
     <use xlink:href="#m9412193313" x="130.505128" y="47.051743" style="fill: #444444; stroke: #444444"/>
     <use xlink:href="#m9412193313" x="134.6328" y="47.60818" style="fill: #444444; stroke: #444444"/>
     <use xlink:href="#m9412193313" x="136.00869" y="44.825996" style="fill: #444444; stroke: #444444"/>
     <use xlink:href="#m9412193313" x="137.38458" y="44.825996" style="fill: #444444; stroke: #444444"/>
     <use xlink:href="#m9412193313" x="138.760471" y="43.713122" style="fill: #444444; stroke: #444444"/>
     <use xlink:href="#m9412193313" x="140.136361" y="41.487375" style="fill: #444444; stroke: #444444"/>
     <use xlink:href="#m9412193313" x="144.264033" y="39.261627" style="fill: #444444; stroke: #444444"/>
     <use xlink:href="#m9412193313" x="145.639923" y="40.374501" style="fill: #444444; stroke: #444444"/>
     <use xlink:href="#m9412193313" x="147.015813" y="42.043811" style="fill: #444444; stroke: #444444"/>
     <use xlink:href="#m9412193313" x="148.391704" y="42.043811" style="fill: #444444; stroke: #444444"/>
     <use xlink:href="#m9412193313" x="149.767594" y="42.043811" style="fill: #444444; stroke: #444444"/>
     <use xlink:href="#m9412193313" x="153.895265" y="43.156685" style="fill: #444444; stroke: #444444"/>
     <use xlink:href="#m9412193313" x="155.271156" y="41.487375" style="fill: #444444; stroke: #444444"/>
     <use xlink:href="#m9412193313" x="156.647046" y="44.269559" style="fill: #444444; stroke: #444444"/>
     <use xlink:href="#m9412193313" x="158.022937" y="45.938869" style="fill: #444444; stroke: #444444"/>
     <use xlink:href="#m9412193313" x="159.398827" y="47.051743" style="fill: #444444; stroke: #444444"/>
     <use xlink:href="#m9412193313" x="163.526498" y="49.833927" style="fill: #444444; stroke: #444444"/>
     <use xlink:href="#m9412193313" x="164.902389" y="49.833927" style="fill: #444444; stroke: #444444"/>
     <use xlink:href="#m9412193313" x="166.278279" y="48.164617" style="fill: #444444; stroke: #444444"/>
     <use xlink:href="#m9412193313" x="167.65417" y="45.382433" style="fill: #444444; stroke: #444444"/>
     <use xlink:href="#m9412193313" x="169.03006" y="45.382433" style="fill: #444444; stroke: #444444"/>
     <use xlink:href="#m9412193313" x="173.157731" y="43.156685" style="fill: #444444; stroke: #444444"/>
     <use xlink:href="#m9412193313" x="174.533622" y="45.382433" style="fill: #444444; stroke: #444444"/>
     <use xlink:href="#m9412193313" x="175.909512" y="44.825996" style="fill: #444444; stroke: #444444"/>
     <use xlink:href="#m9412193313" x="177.285402" y="44.269559" style="fill: #444444; stroke: #444444"/>
     <use xlink:href="#m9412193313" x="178.661293" y="41.487375" style="fill: #444444; stroke: #444444"/>
     <use xlink:href="#m9412193313" x="182.788964" y="39.818064" style="fill: #444444; stroke: #444444"/>
     <use xlink:href="#m9412193313" x="184.164854" y="38.70519" style="fill: #444444; stroke: #444444"/>
     <use xlink:href="#m9412193313" x="185.540745" y="38.148753" style="fill: #444444; stroke: #444444"/>
     <use xlink:href="#m9412193313" x="186.916635" y="37.592317" style="fill: #444444; stroke: #444444"/>
     <use xlink:href="#m9412193313" x="188.292526" y="39.261627" style="fill: #444444; stroke: #444444"/>
     <use xlink:href="#m9412193313" x="192.420197" y="37.592317" style="fill: #444444; stroke: #444444"/>
     <use xlink:href="#m9412193313" x="193.796087" y="43.156685" style="fill: #444444; stroke: #444444"/>
     <use xlink:href="#m9412193313" x="195.171978" y="43.156685" style="fill: #444444; stroke: #444444"/>
     <use xlink:href="#m9412193313" x="196.547868" y="43.713122" style="fill: #444444; stroke: #444444"/>
     <use xlink:href="#m9412193313" x="197.923759" y="44.269559" style="fill: #444444; stroke: #444444"/>
     <use xlink:href="#m9412193313" x="202.05143" y="43.156685" style="fill: #444444; stroke: #444444"/>
     <use xlink:href="#m9412193313" x="203.42732" y="43.713122" style="fill: #444444; stroke: #444444"/>
     <use xlink:href="#m9412193313" x="204.803211" y="40.930938" style="fill: #444444; stroke: #444444"/>
     <use xlink:href="#m9412193313" x="206.179101" y="41.487375" style="fill: #444444; stroke: #444444"/>
     <use xlink:href="#m9412193313" x="207.554991" y="42.043811" style="fill: #444444; stroke: #444444"/>
     <use xlink:href="#m9412193313" x="211.682663" y="40.930938" style="fill: #444444; stroke: #444444"/>
     <use xlink:href="#m9412193313" x="213.058553" y="43.156685" style="fill: #444444; stroke: #444444"/>
     <use xlink:href="#m9412193313" x="214.434443" y="45.938869" style="fill: #444444; stroke: #444444"/>
     <use xlink:href="#m9412193313" x="215.810334" y="45.382433" style="fill: #444444; stroke: #444444"/>
     <use xlink:href="#m9412193313" x="217.186224" y="44.269559" style="fill: #444444; stroke: #444444"/>
     <use xlink:href="#m9412193313" x="221.313896" y="46.495306" style="fill: #444444; stroke: #444444"/>
     <use xlink:href="#m9412193313" x="222.689786" y="46.495306" style="fill: #444444; stroke: #444444"/>
     <use xlink:href="#m9412193313" x="224.065676" y="49.833927" style="fill: #444444; stroke: #444444"/>
     <use xlink:href="#m9412193313" x="225.441567" y="52.059675" style="fill: #444444; stroke: #444444"/>
     <use xlink:href="#m9412193313" x="226.817457" y="51.503238" style="fill: #444444; stroke: #444444"/>
     <use xlink:href="#m9412193313" x="230.945128" y="50.390364" style="fill: #444444; stroke: #444444"/>
     <use xlink:href="#m9412193313" x="232.321019" y="52.616112" style="fill: #444444; stroke: #444444"/>
     <use xlink:href="#m9412193313" x="233.696909" y="50.946801" style="fill: #444444; stroke: #444444"/>
     <use xlink:href="#m9412193313" x="235.0728" y="50.946801" style="fill: #444444; stroke: #444444"/>
     <use xlink:href="#m9412193313" x="236.44869" y="49.27749" style="fill: #444444; stroke: #444444"/>
     <use xlink:href="#m9412193313" x="240.576361" y="49.833927" style="fill: #444444; stroke: #444444"/>
     <use xlink:href="#m9412193313" x="241.952252" y="51.503238" style="fill: #444444; stroke: #444444"/>
     <use xlink:href="#m9412193313" x="243.328142" y="55.398296" style="fill: #444444; stroke: #444444"/>
     <use xlink:href="#m9412193313" x="244.704033" y="57.624043" style="fill: #444444; stroke: #444444"/>
     <use xlink:href="#m9412193313" x="246.079923" y="54.841859" style="fill: #444444; stroke: #444444"/>
     <use xlink:href="#m9412193313" x="250.207594" y="55.954733" style="fill: #444444; stroke: #444444"/>
     <use xlink:href="#m9412193313" x="251.583485" y="54.841859" style="fill: #444444; stroke: #444444"/>
     <use xlink:href="#m9412193313" x="252.959375" y="57.067606" style="fill: #444444; stroke: #444444"/>
     <use xlink:href="#m9412193313" x="254.335265" y="55.398296" style="fill: #444444; stroke: #444444"/>
     <use xlink:href="#m9412193313" x="255.711156" y="53.728985" style="fill: #444444; stroke: #444444"/>
     <use xlink:href="#m9412193313" x="259.838827" y="53.728985" style="fill: #444444; stroke: #444444"/>
     <use xlink:href="#m9412193313" x="261.214717" y="54.285422" style="fill: #444444; stroke: #444444"/>
     <use xlink:href="#m9412193313" x="262.590608" y="55.398296" style="fill: #444444; stroke: #444444"/>
     <use xlink:href="#m9412193313" x="263.966498" y="56.51117" style="fill: #444444; stroke: #444444"/>
     <use xlink:href="#m9412193313" x="265.342389" y="57.624043" style="fill: #444444; stroke: #444444"/>
     <use xlink:href="#m9412193313" x="269.47006" y="58.18048" style="fill: #444444; stroke: #444444"/>
     <use xlink:href="#m9412193313" x="270.84595" y="59.293354" style="fill: #444444; stroke: #444444"/>
     <use xlink:href="#m9412193313" x="272.221841" y="59.849791" style="fill: #444444; stroke: #444444"/>
     <use xlink:href="#m9412193313" x="273.597731" y="59.293354" style="fill: #444444; stroke: #444444"/>
     <use xlink:href="#m9412193313" x="274.973622" y="60.962664" style="fill: #444444; stroke: #444444"/>
     <use xlink:href="#m9412193313" x="279.101293" y="60.962664" style="fill: #444444; stroke: #444444"/>
     <use xlink:href="#m9412193313" x="280.477183" y="62.075538" style="fill: #444444; stroke: #444444"/>
     <use xlink:href="#m9412193313" x="281.853074" y="62.631975" style="fill: #444444; stroke: #444444"/>
     <use xlink:href="#m9412193313" x="283.228964" y="60.406228" style="fill: #444444; stroke: #444444"/>
     <use xlink:href="#m9412193313" x="284.604854" y="60.406228" style="fill: #444444; stroke: #444444"/>
     <use xlink:href="#m9412193313" x="288.732526" y="59.293354" style="fill: #444444; stroke: #444444"/>
     <use xlink:href="#m9412193313" x="290.108416" y="60.962664" style="fill: #444444; stroke: #444444"/>
     <use xlink:href="#m9412193313" x="291.484307" y="59.293354" style="fill: #444444; stroke: #444444"/>
     <use xlink:href="#m9412193313" x="292.860197" y="58.18048" style="fill: #444444; stroke: #444444"/>
     <use xlink:href="#m9412193313" x="294.236087" y="62.075538" style="fill: #444444; stroke: #444444"/>
     <use xlink:href="#m9412193313" x="298.363759" y="62.631975" style="fill: #444444; stroke: #444444"/>
     <use xlink:href="#m9412193313" x="299.739649" y="62.631975" style="fill: #444444; stroke: #444444"/>
     <use xlink:href="#m9412193313" x="301.115539" y="63.188412" style="fill: #444444; stroke: #444444"/>
     <use xlink:href="#m9412193313" x="302.49143" y="62.631975" style="fill: #444444; stroke: #444444"/>
     <use xlink:href="#m9412193313" x="303.86732" y="59.849791" style="fill: #444444; stroke: #444444"/>
     <use xlink:href="#m9412193313" x="307.994991" y="60.406228" style="fill: #444444; stroke: #444444"/>
     <use xlink:href="#m9412193313" x="309.370882" y="61.519101" style="fill: #444444; stroke: #444444"/>
     <use xlink:href="#m9412193313" x="310.746772" y="62.075538" style="fill: #444444; stroke: #444444"/>
     <use xlink:href="#m9412193313" x="312.122663" y="60.406228" style="fill: #444444; stroke: #444444"/>
     <use xlink:href="#m9412193313" x="313.498553" y="60.962664" style="fill: #444444; stroke: #444444"/>
     <use xlink:href="#m9412193313" x="317.626224" y="62.075538" style="fill: #444444; stroke: #444444"/>
     <use xlink:href="#m9412193313" x="319.002115" y="61.519101" style="fill: #444444; stroke: #444444"/>
     <use xlink:href="#m9412193313" x="320.378005" y="62.075538" style="fill: #444444; stroke: #444444"/>
     <use xlink:href="#m9412193313" x="321.753896" y="62.075538" style="fill: #444444; stroke: #444444"/>
     <use xlink:href="#m9412193313" x="323.129786" y="63.188412" style="fill: #444444; stroke: #444444"/>
     <use xlink:href="#m9412193313" x="327.257457" y="64.301285" style="fill: #444444; stroke: #444444"/>
     <use xlink:href="#m9412193313" x="328.633348" y="64.301285" style="fill: #444444; stroke: #444444"/>
     <use xlink:href="#m9412193313" x="330.009238" y="65.414159" style="fill: #444444; stroke: #444444"/>
     <use xlink:href="#m9412193313" x="331.385128" y="64.857722" style="fill: #444444; stroke: #444444"/>
     <use xlink:href="#m9412193313" x="332.761019" y="62.075538" style="fill: #444444; stroke: #444444"/>
     <use xlink:href="#m9412193313" x="336.88869" y="62.075538" style="fill: #444444; stroke: #444444"/>
     <use xlink:href="#m9412193313" x="338.26458" y="62.631975" style="fill: #444444; stroke: #444444"/>
     <use xlink:href="#m9412193313" x="339.640471" y="63.188412" style="fill: #444444; stroke: #444444"/>
     <use xlink:href="#m9412193313" x="341.016361" y="63.744849" style="fill: #444444; stroke: #444444"/>
     <use xlink:href="#m9412193313" x="342.392252" y="63.188412" style="fill: #444444; stroke: #444444"/>
     <use xlink:href="#m9412193313" x="346.519923" y="62.631975" style="fill: #444444; stroke: #444444"/>
     <use xlink:href="#m9412193313" x="347.895813" y="61.519101" style="fill: #444444; stroke: #444444"/>
     <use xlink:href="#m9412193313" x="349.271704" y="60.962664" style="fill: #444444; stroke: #444444"/>
     <use xlink:href="#m9412193313" x="350.647594" y="62.075538" style="fill: #444444; stroke: #444444"/>
     <use xlink:href="#m9412193313" x="352.023485" y="60.406228" style="fill: #444444; stroke: #444444"/>
     <use xlink:href="#m9412193313" x="356.151156" y="60.406228" style="fill: #444444; stroke: #444444"/>
     <use xlink:href="#m9412193313" x="357.527046" y="60.406228" style="fill: #444444; stroke: #444444"/>
     <use xlink:href="#m9412193313" x="358.902937" y="60.406228" style="fill: #444444; stroke: #444444"/>
     <use xlink:href="#m9412193313" x="360.278827" y="58.18048" style="fill: #444444; stroke: #444444"/>
     <use xlink:href="#m9412193313" x="361.654717" y="57.067606" style="fill: #444444; stroke: #444444"/>
     <use xlink:href="#m9412193313" x="365.782389" y="55.954733" style="fill: #444444; stroke: #444444"/>
     <use xlink:href="#m9412193313" x="367.158279" y="57.624043" style="fill: #444444; stroke: #444444"/>
     <use xlink:href="#m9412193313" x="368.53417" y="55.954733" style="fill: #444444; stroke: #444444"/>
     <use xlink:href="#m9412193313" x="369.91006" y="55.954733" style="fill: #444444; stroke: #444444"/>
     <use xlink:href="#m9412193313" x="371.28595" y="55.398296" style="fill: #444444; stroke: #444444"/>
     <use xlink:href="#m9412193313" x="375.413622" y="54.841859" style="fill: #444444; stroke: #444444"/>
     <use xlink:href="#m9412193313" x="376.789512" y="54.285422" style="fill: #444444; stroke: #444444"/>
     <use xlink:href="#m9412193313" x="378.165402" y="57.624043" style="fill: #444444; stroke: #444444"/>
     <use xlink:href="#m9412193313" x="379.541293" y="58.18048" style="fill: #444444; stroke: #444444"/>
     <use xlink:href="#m9412193313" x="380.917183" y="57.067606" style="fill: #444444; stroke: #444444"/>
     <use xlink:href="#m9412193313" x="385.044854" y="55.398296" style="fill: #444444; stroke: #444444"/>
     <use xlink:href="#m9412193313" x="386.420745" y="56.51117" style="fill: #444444; stroke: #444444"/>
     <use xlink:href="#m9412193313" x="387.796635" y="57.067606" style="fill: #444444; stroke: #444444"/>
     <use xlink:href="#m9412193313" x="389.172526" y="57.067606" style="fill: #444444; stroke: #444444"/>
     <use xlink:href="#m9412193313" x="390.548416" y="60.962664" style="fill: #444444; stroke: #444444"/>
     <use xlink:href="#m9412193313" x="394.676087" y="60.962664" style="fill: #444444; stroke: #444444"/>
     <use xlink:href="#m9412193313" x="396.051978" y="59.849791" style="fill: #444444; stroke: #444444"/>
     <use xlink:href="#m9412193313" x="397.427868" y="57.624043" style="fill: #444444; stroke: #444444"/>
     <use xlink:href="#m9412193313" x="398.803759" y="58.736917" style="fill: #444444; stroke: #444444"/>
     <use xlink:href="#m9412193313" x="400.179649" y="57.624043" style="fill: #444444; stroke: #444444"/>
     <use xlink:href="#m9412193313" x="404.30732" y="56.51117" style="fill: #444444; stroke: #444444"/>
     <use xlink:href="#m9412193313" x="405.683211" y="59.293354" style="fill: #444444; stroke: #444444"/>
     <use xlink:href="#m9412193313" x="407.059101" y="59.293354" style="fill: #444444; stroke: #444444"/>
     <use xlink:href="#m9412193313" x="408.434991" y="58.18048" style="fill: #444444; stroke: #444444"/>
     <use xlink:href="#m9412193313" x="409.810882" y="57.067606" style="fill: #444444; stroke: #444444"/>
     <use xlink:href="#m9412193313" x="413.938553" y="55.954733" style="fill: #444444; stroke: #444444"/>
     <use xlink:href="#m9412193313" x="415.314443" y="56.51117" style="fill: #444444; stroke: #444444"/>
     <use xlink:href="#m9412193313" x="416.690334" y="57.624043" style="fill: #444444; stroke: #444444"/>
     <use xlink:href="#m9412193313" x="418.066224" y="54.841859" style="fill: #444444; stroke: #444444"/>
     <use xlink:href="#m9412193313" x="419.442115" y="54.285422" style="fill: #444444; stroke: #444444"/>
     <use xlink:href="#m9412193313" x="423.569786" y="54.841859" style="fill: #444444; stroke: #444444"/>
     <use xlink:href="#m9412193313" x="424.945676" y="56.51117" style="fill: #444444; stroke: #444444"/>
     <use xlink:href="#m9412193313" x="426.321567" y="53.172548" style="fill: #444444; stroke: #444444"/>
     <use xlink:href="#m9412193313" x="427.697457" y="53.172548" style="fill: #444444; stroke: #444444"/>
     <use xlink:href="#m9412193313" x="429.073348" y="57.067606" style="fill: #444444; stroke: #444444"/>
     <use xlink:href="#m9412193313" x="433.201019" y="55.954733" style="fill: #444444; stroke: #444444"/>
     <use xlink:href="#m9412193313" x="434.576909" y="55.954733" style="fill: #444444; stroke: #444444"/>
     <use xlink:href="#m9412193313" x="435.9528" y="57.067606" style="fill: #444444; stroke: #444444"/>
     <use xlink:href="#m9412193313" x="437.32869" y="57.624043" style="fill: #444444; stroke: #444444"/>
     <use xlink:href="#m9412193313" x="438.70458" y="58.18048" style="fill: #444444; stroke: #444444"/>
     <use xlink:href="#m9412193313" x="442.832252" y="59.293354" style="fill: #444444; stroke: #444444"/>
     <use xlink:href="#m9412193313" x="444.208142" y="60.962664" style="fill: #444444; stroke: #444444"/>
     <use xlink:href="#m9412193313" x="445.584033" y="60.406228" style="fill: #444444; stroke: #444444"/>
     <use xlink:href="#m9412193313" x="446.959923" y="60.406228" style="fill: #444444; stroke: #444444"/>
     <use xlink:href="#m9412193313" x="448.335813" y="61.519101" style="fill: #444444; stroke: #444444"/>
     <use xlink:href="#m9412193313" x="452.463485" y="61.519101" style="fill: #444444; stroke: #444444"/>
     <use xlink:href="#m9412193313" x="453.839375" y="61.519101" style="fill: #444444; stroke: #444444"/>
     <use xlink:href="#m9412193313" x="455.215265" y="60.962664" style="fill: #444444; stroke: #444444"/>
     <use xlink:href="#m9412193313" x="456.591156" y="60.406228" style="fill: #444444; stroke: #444444"/>
     <use xlink:href="#m9412193313" x="457.967046" y="60.406228" style="fill: #444444; stroke: #444444"/>
     <use xlink:href="#m9412193313" x="462.094717" y="62.075538" style="fill: #444444; stroke: #444444"/>
     <use xlink:href="#m9412193313" x="463.470608" y="62.075538" style="fill: #444444; stroke: #444444"/>
     <use xlink:href="#m9412193313" x="464.846498" y="62.631975" style="fill: #444444; stroke: #444444"/>
     <use xlink:href="#m9412193313" x="466.222389" y="62.075538" style="fill: #444444; stroke: #444444"/>
     <use xlink:href="#m9412193313" x="467.598279" y="69.309217" style="fill: #444444; stroke: #444444"/>
     <use xlink:href="#m9412193313" x="471.72595" y="67.639907" style="fill: #444444; stroke: #444444"/>
     <use xlink:href="#m9412193313" x="473.101841" y="69.309217" style="fill: #444444; stroke: #444444"/>
     <use xlink:href="#m9412193313" x="474.477731" y="69.865654" style="fill: #444444; stroke: #444444"/>
     <use xlink:href="#m9412193313" x="475.853622" y="69.309217" style="fill: #444444; stroke: #444444"/>
     <use xlink:href="#m9412193313" x="477.229512" y="67.639907" style="fill: #444444; stroke: #444444"/>
     <use xlink:href="#m9412193313" x="481.357183" y="66.527033" style="fill: #444444; stroke: #444444"/>
     <use xlink:href="#m9412193313" x="482.733074" y="67.639907" style="fill: #444444; stroke: #444444"/>
     <use xlink:href="#m9412193313" x="484.108964" y="68.196343" style="fill: #444444; stroke: #444444"/>
     <use xlink:href="#m9412193313" x="485.484854" y="69.309217" style="fill: #444444; stroke: #444444"/>
     <use xlink:href="#m9412193313" x="486.860745" y="70.978528" style="fill: #444444; stroke: #444444"/>
     <use xlink:href="#m9412193313" x="490.988416" y="69.865654" style="fill: #444444; stroke: #444444"/>
     <use xlink:href="#m9412193313" x="492.364307" y="67.08347" style="fill: #444444; stroke: #444444"/>
     <use xlink:href="#m9412193313" x="493.740197" y="67.639907" style="fill: #444444; stroke: #444444"/>
     <use xlink:href="#m9412193313" x="495.116087" y="67.639907" style="fill: #444444; stroke: #444444"/>
     <use xlink:href="#m9412193313" x="496.491978" y="68.196343" style="fill: #444444; stroke: #444444"/>
     <use xlink:href="#m9412193313" x="500.619649" y="68.75278" style="fill: #444444; stroke: #444444"/>
     <use xlink:href="#m9412193313" x="501.995539" y="68.75278" style="fill: #444444; stroke: #444444"/>
     <use xlink:href="#m9412193313" x="503.37143" y="67.08347" style="fill: #444444; stroke: #444444"/>
     <use xlink:href="#m9412193313" x="504.74732" y="67.08347" style="fill: #444444; stroke: #444444"/>
     <use xlink:href="#m9412193313" x="506.123211" y="69.309217" style="fill: #444444; stroke: #444444"/>
     <use xlink:href="#m9412193313" x="510.250882" y="67.639907" style="fill: #444444; stroke: #444444"/>
     <use xlink:href="#m9412193313" x="511.626772" y="67.639907" style="fill: #444444; stroke: #444444"/>
     <use xlink:href="#m9412193313" x="513.002663" y="67.08347" style="fill: #444444; stroke: #444444"/>
     <use xlink:href="#m9412193313" x="514.378553" y="65.414159" style="fill: #444444; stroke: #444444"/>
     <use xlink:href="#m9412193313" x="515.754443" y="64.857722" style="fill: #444444; stroke: #444444"/>
     <use xlink:href="#m9412193313" x="519.882115" y="65.414159" style="fill: #444444; stroke: #444444"/>
     <use xlink:href="#m9412193313" x="521.258005" y="66.527033" style="fill: #444444; stroke: #444444"/>
     <use xlink:href="#m9412193313" x="522.633896" y="65.414159" style="fill: #444444; stroke: #444444"/>
     <use xlink:href="#m9412193313" x="524.009786" y="63.744849" style="fill: #444444; stroke: #444444"/>
     <use xlink:href="#m9412193313" x="525.385676" y="60.962664" style="fill: #444444; stroke: #444444"/>
     <use xlink:href="#m9412193313" x="529.513348" y="62.075538" style="fill: #444444; stroke: #444444"/>
     <use xlink:href="#m9412193313" x="530.889238" y="60.406228" style="fill: #444444; stroke: #444444"/>
     <use xlink:href="#m9412193313" x="532.265128" y="62.631975" style="fill: #444444; stroke: #444444"/>
     <use xlink:href="#m9412193313" x="533.641019" y="61.519101" style="fill: #444444; stroke: #444444"/>
     <use xlink:href="#m9412193313" x="535.016909" y="63.188412" style="fill: #444444; stroke: #444444"/>
     <use xlink:href="#m9412193313" x="539.14458" y="62.075538" style="fill: #444444; stroke: #444444"/>
     <use xlink:href="#m9412193313" x="540.520471" y="63.188412" style="fill: #444444; stroke: #444444"/>
     <use xlink:href="#m9412193313" x="541.896361" y="62.631975" style="fill: #444444; stroke: #444444"/>
     <use xlink:href="#m9412193313" x="543.272252" y="63.188412" style="fill: #444444; stroke: #444444"/>
     <use xlink:href="#m9412193313" x="544.648142" y="62.631975" style="fill: #444444; stroke: #444444"/>
     <use xlink:href="#m9412193313" x="548.775813" y="61.519101" style="fill: #444444; stroke: #444444"/>
     <use xlink:href="#m9412193313" x="550.151704" y="62.631975" style="fill: #444444; stroke: #444444"/>
     <use xlink:href="#m9412193313" x="551.527594" y="61.519101" style="fill: #444444; stroke: #444444"/>
     <use xlink:href="#m9412193313" x="552.903485" y="64.301285" style="fill: #444444; stroke: #444444"/>
     <use xlink:href="#m9412193313" x="554.279375" y="63.744849" style="fill: #444444; stroke: #444444"/>
    </g>
   </g>
   <g id="line2d_34">
    <path d="M 52.079375 109.37267 
L 554.279375 109.37267 
" clip-path="url(#pdd5b98bd1f)" style="fill: none; stroke: #000000; stroke-linecap: square"/>
   </g>
   <g id="patch_3">
    <path d="M 52.079375 113.518125 
L 52.079375 22.318125 
" style="fill: none; stroke: #000000; stroke-width: 0.8; stroke-linejoin: miter; stroke-linecap: square"/>
   </g>
   <g id="patch_4">
    <path d="M 554.279375 113.518125 
L 554.279375 22.318125 
" style="fill: none; stroke: #000000; stroke-width: 0.8; stroke-linejoin: miter; stroke-linecap: square"/>
   </g>
   <g id="patch_5">
    <path d="M 52.079375 113.518125 
L 554.279375 113.518125 
" style="fill: none; stroke: #000000; stroke-width: 0.8; stroke-linejoin: miter; stroke-linecap: square"/>
   </g>
   <g id="patch_6">
    <path d="M 52.079375 22.318125 
L 554.279375 22.318125 
" style="fill: none; stroke: #000000; stroke-width: 0.8; stroke-linejoin: miter; stroke-linecap: square"/>
   </g>
   <g id="text_18">
    <!-- UST10  GoC10 Spread (bp) -->
    <g transform="translate(219.479375 16.318125) scale(0.12 -0.12)">
     <defs>
      <path id="DejaVuSans-55" d="M 556 4666 
L 1191 4666 
L 1191 1831 
Q 1191 1081 1462 751 
Q 1734 422 2344 422 
Q 2950 422 3222 751 
Q 3494 1081 3494 1831 
L 3494 4666 
L 4128 4666 
L 4128 1753 
Q 4128 841 3676 375 
Q 3225 -91 2344 -91 
Q 1459 -91 1007 375 
Q 556 841 556 1753 
L 556 4666 
z
" transform="scale(0.015625)"/>
      <path id="DejaVuSans-53" d="M 3425 4513 
L 3425 3897 
Q 3066 4069 2747 4153 
Q 2428 4238 2131 4238 
Q 1616 4238 1336 4038 
Q 1056 3838 1056 3469 
Q 1056 3159 1242 3001 
Q 1428 2844 1947 2747 
L 2328 2669 
Q 3034 2534 3370 2195 
Q 3706 1856 3706 1288 
Q 3706 609 3251 259 
Q 2797 -91 1919 -91 
Q 1588 -91 1214 -16 
Q 841 59 441 206 
L 441 856 
Q 825 641 1194 531 
Q 1563 422 1919 422 
Q 2459 422 2753 634 
Q 3047 847 3047 1241 
Q 3047 1584 2836 1778 
Q 2625 1972 2144 2069 
L 1759 2144 
Q 1053 2284 737 2584 
Q 422 2884 422 3419 
Q 422 4038 858 4394 
Q 1294 4750 2059 4750 
Q 2388 4750 2728 4690 
Q 3069 4631 3425 4513 
z
" transform="scale(0.015625)"/>
      <path id="DejaVuSans-54" d="M -19 4666 
L 3928 4666 
L 3928 4134 
L 2272 4134 
L 2272 0 
L 1638 0 
L 1638 4134 
L -19 4134 
L -19 4666 
z
" transform="scale(0.015625)"/>
      <path id="DejaVuSans-20" transform="scale(0.015625)"/>
      <path id="DejaVuSans-2013" d="M 313 1978 
L 2888 1978 
L 2888 1528 
L 313 1528 
L 313 1978 
z
" transform="scale(0.015625)"/>
      <path id="DejaVuSans-47" d="M 3809 666 
L 3809 1919 
L 2778 1919 
L 2778 2438 
L 4434 2438 
L 4434 434 
Q 4069 175 3628 42 
Q 3188 -91 2688 -91 
Q 1594 -91 976 548 
Q 359 1188 359 2328 
Q 359 3472 976 4111 
Q 1594 4750 2688 4750 
Q 3144 4750 3555 4637 
Q 3966 4525 4313 4306 
L 4313 3634 
Q 3963 3931 3569 4081 
Q 3175 4231 2741 4231 
Q 1884 4231 1454 3753 
Q 1025 3275 1025 2328 
Q 1025 1384 1454 906 
Q 1884 428 2741 428 
Q 3075 428 3337 486 
Q 3600 544 3809 666 
z
" transform="scale(0.015625)"/>
      <path id="DejaVuSans-6f" d="M 1959 3097 
Q 1497 3097 1228 2736 
Q 959 2375 959 1747 
Q 959 1119 1226 758 
Q 1494 397 1959 397 
Q 2419 397 2687 759 
Q 2956 1122 2956 1747 
Q 2956 2369 2687 2733 
Q 2419 3097 1959 3097 
z
M 1959 3584 
Q 2709 3584 3137 3096 
Q 3566 2609 3566 1747 
Q 3566 888 3137 398 
Q 2709 -91 1959 -91 
Q 1206 -91 779 398 
Q 353 888 353 1747 
Q 353 2609 779 3096 
Q 1206 3584 1959 3584 
z
" transform="scale(0.015625)"/>
      <path id="DejaVuSans-43" d="M 4122 4306 
L 4122 3641 
Q 3803 3938 3442 4084 
Q 3081 4231 2675 4231 
Q 1875 4231 1450 3742 
Q 1025 3253 1025 2328 
Q 1025 1406 1450 917 
Q 1875 428 2675 428 
Q 3081 428 3442 575 
Q 3803 722 4122 1019 
L 4122 359 
Q 3791 134 3420 21 
Q 3050 -91 2638 -91 
Q 1578 -91 968 557 
Q 359 1206 359 2328 
Q 359 3453 968 4101 
Q 1578 4750 2638 4750 
Q 3056 4750 3426 4639 
Q 3797 4528 4122 4306 
z
" transform="scale(0.015625)"/>
      <path id="DejaVuSans-72" d="M 2631 2963 
Q 2534 3019 2420 3045 
Q 2306 3072 2169 3072 
Q 1681 3072 1420 2755 
Q 1159 2438 1159 1844 
L 1159 0 
L 581 0 
L 581 3500 
L 1159 3500 
L 1159 2956 
Q 1341 3275 1631 3429 
Q 1922 3584 2338 3584 
Q 2397 3584 2469 3576 
Q 2541 3569 2628 3553 
L 2631 2963 
z
" transform="scale(0.015625)"/>
      <path id="DejaVuSans-65" d="M 3597 1894 
L 3597 1613 
L 953 1613 
Q 991 1019 1311 708 
Q 1631 397 2203 397 
Q 2534 397 2845 478 
Q 3156 559 3463 722 
L 3463 178 
Q 3153 47 2828 -22 
Q 2503 -91 2169 -91 
Q 1331 -91 842 396 
Q 353 884 353 1716 
Q 353 2575 817 3079 
Q 1281 3584 2069 3584 
Q 2775 3584 3186 3129 
Q 3597 2675 3597 1894 
z
M 3022 2063 
Q 3016 2534 2758 2815 
Q 2500 3097 2075 3097 
Q 1594 3097 1305 2825 
Q 1016 2553 972 2059 
L 3022 2063 
z
" transform="scale(0.015625)"/>
      <path id="DejaVuSans-61" d="M 2194 1759 
Q 1497 1759 1228 1600 
Q 959 1441 959 1056 
Q 959 750 1161 570 
Q 1363 391 1709 391 
Q 2188 391 2477 730 
Q 2766 1069 2766 1631 
L 2766 1759 
L 2194 1759 
z
M 3341 1997 
L 3341 0 
L 2766 0 
L 2766 531 
Q 2569 213 2275 61 
Q 1981 -91 1556 -91 
Q 1019 -91 701 211 
Q 384 513 384 1019 
Q 384 1609 779 1909 
Q 1175 2209 1959 2209 
L 2766 2209 
L 2766 2266 
Q 2766 2663 2505 2880 
Q 2244 3097 1772 3097 
Q 1472 3097 1187 3025 
Q 903 2953 641 2809 
L 641 3341 
Q 956 3463 1253 3523 
Q 1550 3584 1831 3584 
Q 2591 3584 2966 3190 
Q 3341 2797 3341 1997 
z
" transform="scale(0.015625)"/>
      <path id="DejaVuSans-64" d="M 2906 2969 
L 2906 4863 
L 3481 4863 
L 3481 0 
L 2906 0 
L 2906 525 
Q 2725 213 2448 61 
Q 2172 -91 1784 -91 
Q 1150 -91 751 415 
Q 353 922 353 1747 
Q 353 2572 751 3078 
Q 1150 3584 1784 3584 
Q 2172 3584 2448 3432 
Q 2725 3281 2906 2969 
z
M 947 1747 
Q 947 1113 1208 752 
Q 1469 391 1925 391 
Q 2381 391 2643 752 
Q 2906 1113 2906 1747 
Q 2906 2381 2643 2742 
Q 2381 3103 1925 3103 
Q 1469 3103 1208 2742 
Q 947 2381 947 1747 
z
" transform="scale(0.015625)"/>
      <path id="DejaVuSans-28" d="M 1984 4856 
Q 1566 4138 1362 3434 
Q 1159 2731 1159 2009 
Q 1159 1288 1364 580 
Q 1569 -128 1984 -844 
L 1484 -844 
Q 1016 -109 783 600 
Q 550 1309 550 2009 
Q 550 2706 781 3412 
Q 1013 4119 1484 4856 
L 1984 4856 
z
" transform="scale(0.015625)"/>
      <path id="DejaVuSans-29" d="M 513 4856 
L 1013 4856 
Q 1481 4119 1714 3412 
Q 1947 2706 1947 2009 
Q 1947 1309 1714 600 
Q 1481 -109 1013 -844 
L 513 -844 
Q 928 -128 1133 580 
Q 1338 1288 1338 2009 
Q 1338 2731 1133 3434 
Q 928 4138 513 4856 
z
" transform="scale(0.015625)"/>
     </defs>
     <use xlink:href="#DejaVuSans-55"/>
     <use xlink:href="#DejaVuSans-53" transform="translate(73.193359 0)"/>
     <use xlink:href="#DejaVuSans-54" transform="translate(136.669922 0)"/>
     <use xlink:href="#DejaVuSans-31" transform="translate(197.753906 0)"/>
     <use xlink:href="#DejaVuSans-30" transform="translate(261.376953 0)"/>
     <use xlink:href="#DejaVuSans-20" transform="translate(325 0)"/>
     <use xlink:href="#DejaVuSans-2013" transform="translate(356.787109 0)"/>
     <use xlink:href="#DejaVuSans-20" transform="translate(406.787109 0)"/>
     <use xlink:href="#DejaVuSans-47" transform="translate(438.574219 0)"/>
     <use xlink:href="#DejaVuSans-6f" transform="translate(516.064453 0)"/>
     <use xlink:href="#DejaVuSans-43" transform="translate(577.246094 0)"/>
     <use xlink:href="#DejaVuSans-31" transform="translate(647.070312 0)"/>
     <use xlink:href="#DejaVuSans-30" transform="translate(710.693359 0)"/>
     <use xlink:href="#DejaVuSans-20" transform="translate(774.316406 0)"/>
     <use xlink:href="#DejaVuSans-53" transform="translate(806.103516 0)"/>
     <use xlink:href="#DejaVuSans-70" transform="translate(869.580078 0)"/>
     <use xlink:href="#DejaVuSans-72" transform="translate(933.056641 0)"/>
     <use xlink:href="#DejaVuSans-65" transform="translate(971.919922 0)"/>
     <use xlink:href="#DejaVuSans-61" transform="translate(1033.443359 0)"/>
     <use xlink:href="#DejaVuSans-64" transform="translate(1094.722656 0)"/>
     <use xlink:href="#DejaVuSans-20" transform="translate(1158.199219 0)"/>
     <use xlink:href="#DejaVuSans-28" transform="translate(1189.986328 0)"/>
     <use xlink:href="#DejaVuSans-62" transform="translate(1229 0)"/>
     <use xlink:href="#DejaVuSans-70" transform="translate(1292.476562 0)"/>
     <use xlink:href="#DejaVuSans-29" transform="translate(1355.953125 0)"/>
    </g>
   </g>
  </g>
  <g id="axes_2">
   <g id="patch_7">
    <path d="M 52.079375 188.638125 
L 554.279375 188.638125 
L 554.279375 156.718125 
L 52.079375 156.718125 
z
" style="fill: #ffffff"/>
   </g>
   <g id="matplotlib.axis_3">
    <g id="xtick_13">
     <g id="line2d_35">
      <path d="M 83.724854 188.638125 
L 83.724854 156.718125 
" clip-path="url(#pad75a136d1)" style="fill: none; stroke: #b0b0b0; stroke-opacity: 0.15; stroke-width: 0.8; stroke-linecap: square"/>
     </g>
     <g id="line2d_36">
      <g>
       <use xlink:href="#m03352b424e" x="83.724854" y="188.638125" style="stroke: #000000; stroke-width: 0.8"/>
      </g>
     </g>
     <g id="text_19">
      <!-- 2025-03 -->
      <g transform="translate(52.709383 230.555942) rotate(-45) scale(0.1 -0.1)">
       <use xlink:href="#DejaVuSans-32"/>
       <use xlink:href="#DejaVuSans-30" transform="translate(63.623047 0)"/>
       <use xlink:href="#DejaVuSans-32" transform="translate(127.246094 0)"/>
       <use xlink:href="#DejaVuSans-35" transform="translate(190.869141 0)"/>
       <use xlink:href="#DejaVuSans-2d" transform="translate(254.492188 0)"/>
       <use xlink:href="#DejaVuSans-30" transform="translate(290.576172 0)"/>
       <use xlink:href="#DejaVuSans-33" transform="translate(354.199219 0)"/>
      </g>
     </g>
    </g>
    <g id="xtick_14">
     <g id="line2d_37">
      <path d="M 126.377457 188.638125 
L 126.377457 156.718125 
" clip-path="url(#pad75a136d1)" style="fill: none; stroke: #b0b0b0; stroke-opacity: 0.15; stroke-width: 0.8; stroke-linecap: square"/>
     </g>
     <g id="line2d_38">
      <g>
       <use xlink:href="#m03352b424e" x="126.377457" y="188.638125" style="stroke: #000000; stroke-width: 0.8"/>
      </g>
     </g>
     <g id="text_20">
      <!-- 2025-04 -->
      <g transform="translate(95.361986 230.555942) rotate(-45) scale(0.1 -0.1)">
       <use xlink:href="#DejaVuSans-32"/>
       <use xlink:href="#DejaVuSans-30" transform="translate(63.623047 0)"/>
       <use xlink:href="#DejaVuSans-32" transform="translate(127.246094 0)"/>
       <use xlink:href="#DejaVuSans-35" transform="translate(190.869141 0)"/>
       <use xlink:href="#DejaVuSans-2d" transform="translate(254.492188 0)"/>
       <use xlink:href="#DejaVuSans-30" transform="translate(290.576172 0)"/>
       <use xlink:href="#DejaVuSans-34" transform="translate(354.199219 0)"/>
      </g>
     </g>
    </g>
    <g id="xtick_15">
     <g id="line2d_39">
      <path d="M 167.65417 188.638125 
L 167.65417 156.718125 
" clip-path="url(#pad75a136d1)" style="fill: none; stroke: #b0b0b0; stroke-opacity: 0.15; stroke-width: 0.8; stroke-linecap: square"/>
     </g>
     <g id="line2d_40">
      <g>
       <use xlink:href="#m03352b424e" x="167.65417" y="188.638125" style="stroke: #000000; stroke-width: 0.8"/>
      </g>
     </g>
     <g id="text_21">
      <!-- 2025-05 -->
      <g transform="translate(136.638698 230.555942) rotate(-45) scale(0.1 -0.1)">
       <use xlink:href="#DejaVuSans-32"/>
       <use xlink:href="#DejaVuSans-30" transform="translate(63.623047 0)"/>
       <use xlink:href="#DejaVuSans-32" transform="translate(127.246094 0)"/>
       <use xlink:href="#DejaVuSans-35" transform="translate(190.869141 0)"/>
       <use xlink:href="#DejaVuSans-2d" transform="translate(254.492188 0)"/>
       <use xlink:href="#DejaVuSans-30" transform="translate(290.576172 0)"/>
       <use xlink:href="#DejaVuSans-35" transform="translate(354.199219 0)"/>
      </g>
     </g>
    </g>
    <g id="xtick_16">
     <g id="line2d_41">
      <path d="M 210.306772 188.638125 
L 210.306772 156.718125 
" clip-path="url(#pad75a136d1)" style="fill: none; stroke: #b0b0b0; stroke-opacity: 0.15; stroke-width: 0.8; stroke-linecap: square"/>
     </g>
     <g id="line2d_42">
      <g>
       <use xlink:href="#m03352b424e" x="210.306772" y="188.638125" style="stroke: #000000; stroke-width: 0.8"/>
      </g>
     </g>
     <g id="text_22">
      <!-- 2025-06 -->
      <g transform="translate(179.291301 230.555942) rotate(-45) scale(0.1 -0.1)">
       <use xlink:href="#DejaVuSans-32"/>
       <use xlink:href="#DejaVuSans-30" transform="translate(63.623047 0)"/>
       <use xlink:href="#DejaVuSans-32" transform="translate(127.246094 0)"/>
       <use xlink:href="#DejaVuSans-35" transform="translate(190.869141 0)"/>
       <use xlink:href="#DejaVuSans-2d" transform="translate(254.492188 0)"/>
       <use xlink:href="#DejaVuSans-30" transform="translate(290.576172 0)"/>
       <use xlink:href="#DejaVuSans-36" transform="translate(354.199219 0)"/>
      </g>
     </g>
    </g>
    <g id="xtick_17">
     <g id="line2d_43">
      <path d="M 251.583485 188.638125 
L 251.583485 156.718125 
" clip-path="url(#pad75a136d1)" style="fill: none; stroke: #b0b0b0; stroke-opacity: 0.15; stroke-width: 0.8; stroke-linecap: square"/>
     </g>
     <g id="line2d_44">
      <g>
       <use xlink:href="#m03352b424e" x="251.583485" y="188.638125" style="stroke: #000000; stroke-width: 0.8"/>
      </g>
     </g>
     <g id="text_23">
      <!-- 2025-07 -->
      <g transform="translate(220.568013 230.555942) rotate(-45) scale(0.1 -0.1)">
       <use xlink:href="#DejaVuSans-32"/>
       <use xlink:href="#DejaVuSans-30" transform="translate(63.623047 0)"/>
       <use xlink:href="#DejaVuSans-32" transform="translate(127.246094 0)"/>
       <use xlink:href="#DejaVuSans-35" transform="translate(190.869141 0)"/>
       <use xlink:href="#DejaVuSans-2d" transform="translate(254.492188 0)"/>
       <use xlink:href="#DejaVuSans-30" transform="translate(290.576172 0)"/>
       <use xlink:href="#DejaVuSans-37" transform="translate(354.199219 0)"/>
      </g>
     </g>
    </g>
    <g id="xtick_18">
     <g id="line2d_45">
      <path d="M 294.236087 188.638125 
L 294.236087 156.718125 
" clip-path="url(#pad75a136d1)" style="fill: none; stroke: #b0b0b0; stroke-opacity: 0.15; stroke-width: 0.8; stroke-linecap: square"/>
     </g>
     <g id="line2d_46">
      <g>
       <use xlink:href="#m03352b424e" x="294.236087" y="188.638125" style="stroke: #000000; stroke-width: 0.8"/>
      </g>
     </g>
     <g id="text_24">
      <!-- 2025-08 -->
      <g transform="translate(263.220616 230.555942) rotate(-45) scale(0.1 -0.1)">
       <use xlink:href="#DejaVuSans-32"/>
       <use xlink:href="#DejaVuSans-30" transform="translate(63.623047 0)"/>
       <use xlink:href="#DejaVuSans-32" transform="translate(127.246094 0)"/>
       <use xlink:href="#DejaVuSans-35" transform="translate(190.869141 0)"/>
       <use xlink:href="#DejaVuSans-2d" transform="translate(254.492188 0)"/>
       <use xlink:href="#DejaVuSans-30" transform="translate(290.576172 0)"/>
       <use xlink:href="#DejaVuSans-38" transform="translate(354.199219 0)"/>
      </g>
     </g>
    </g>
    <g id="xtick_19">
     <g id="line2d_47">
      <path d="M 336.88869 188.638125 
L 336.88869 156.718125 
" clip-path="url(#pad75a136d1)" style="fill: none; stroke: #b0b0b0; stroke-opacity: 0.15; stroke-width: 0.8; stroke-linecap: square"/>
     </g>
     <g id="line2d_48">
      <g>
       <use xlink:href="#m03352b424e" x="336.88869" y="188.638125" style="stroke: #000000; stroke-width: 0.8"/>
      </g>
     </g>
     <g id="text_25">
      <!-- 2025-09 -->
      <g transform="translate(305.873219 230.555942) rotate(-45) scale(0.1 -0.1)">
       <use xlink:href="#DejaVuSans-32"/>
       <use xlink:href="#DejaVuSans-30" transform="translate(63.623047 0)"/>
       <use xlink:href="#DejaVuSans-32" transform="translate(127.246094 0)"/>
       <use xlink:href="#DejaVuSans-35" transform="translate(190.869141 0)"/>
       <use xlink:href="#DejaVuSans-2d" transform="translate(254.492188 0)"/>
       <use xlink:href="#DejaVuSans-30" transform="translate(290.576172 0)"/>
       <use xlink:href="#DejaVuSans-39" transform="translate(354.199219 0)"/>
      </g>
     </g>
    </g>
    <g id="xtick_20">
     <g id="line2d_49">
      <path d="M 378.165402 188.638125 
L 378.165402 156.718125 
" clip-path="url(#pad75a136d1)" style="fill: none; stroke: #b0b0b0; stroke-opacity: 0.15; stroke-width: 0.8; stroke-linecap: square"/>
     </g>
     <g id="line2d_50">
      <g>
       <use xlink:href="#m03352b424e" x="378.165402" y="188.638125" style="stroke: #000000; stroke-width: 0.8"/>
      </g>
     </g>
     <g id="text_26">
      <!-- 2025-10 -->
      <g transform="translate(347.149931 230.555942) rotate(-45) scale(0.1 -0.1)">
       <use xlink:href="#DejaVuSans-32"/>
       <use xlink:href="#DejaVuSans-30" transform="translate(63.623047 0)"/>
       <use xlink:href="#DejaVuSans-32" transform="translate(127.246094 0)"/>
       <use xlink:href="#DejaVuSans-35" transform="translate(190.869141 0)"/>
       <use xlink:href="#DejaVuSans-2d" transform="translate(254.492188 0)"/>
       <use xlink:href="#DejaVuSans-31" transform="translate(290.576172 0)"/>
       <use xlink:href="#DejaVuSans-30" transform="translate(354.199219 0)"/>
      </g>
     </g>
    </g>
    <g id="xtick_21">
     <g id="line2d_51">
      <path d="M 420.818005 188.638125 
L 420.818005 156.718125 
" clip-path="url(#pad75a136d1)" style="fill: none; stroke: #b0b0b0; stroke-opacity: 0.15; stroke-width: 0.8; stroke-linecap: square"/>
     </g>
     <g id="line2d_52">
      <g>
       <use xlink:href="#m03352b424e" x="420.818005" y="188.638125" style="stroke: #000000; stroke-width: 0.8"/>
      </g>
     </g>
     <g id="text_27">
      <!-- 2025-11 -->
      <g transform="translate(389.802534 230.555942) rotate(-45) scale(0.1 -0.1)">
       <use xlink:href="#DejaVuSans-32"/>
       <use xlink:href="#DejaVuSans-30" transform="translate(63.623047 0)"/>
       <use xlink:href="#DejaVuSans-32" transform="translate(127.246094 0)"/>
       <use xlink:href="#DejaVuSans-35" transform="translate(190.869141 0)"/>
       <use xlink:href="#DejaVuSans-2d" transform="translate(254.492188 0)"/>
       <use xlink:href="#DejaVuSans-31" transform="translate(290.576172 0)"/>
       <use xlink:href="#DejaVuSans-31" transform="translate(354.199219 0)"/>
      </g>
     </g>
    </g>
    <g id="xtick_22">
     <g id="line2d_53">
      <path d="M 462.094717 188.638125 
L 462.094717 156.718125 
" clip-path="url(#pad75a136d1)" style="fill: none; stroke: #b0b0b0; stroke-opacity: 0.15; stroke-width: 0.8; stroke-linecap: square"/>
     </g>
     <g id="line2d_54">
      <g>
       <use xlink:href="#m03352b424e" x="462.094717" y="188.638125" style="stroke: #000000; stroke-width: 0.8"/>
      </g>
     </g>
     <g id="text_28">
      <!-- 2025-12 -->
      <g transform="translate(431.079246 230.555942) rotate(-45) scale(0.1 -0.1)">
       <use xlink:href="#DejaVuSans-32"/>
       <use xlink:href="#DejaVuSans-30" transform="translate(63.623047 0)"/>
       <use xlink:href="#DejaVuSans-32" transform="translate(127.246094 0)"/>
       <use xlink:href="#DejaVuSans-35" transform="translate(190.869141 0)"/>
       <use xlink:href="#DejaVuSans-2d" transform="translate(254.492188 0)"/>
       <use xlink:href="#DejaVuSans-31" transform="translate(290.576172 0)"/>
       <use xlink:href="#DejaVuSans-32" transform="translate(354.199219 0)"/>
      </g>
     </g>
    </g>
    <g id="xtick_23">
     <g id="line2d_55">
      <path d="M 504.74732 188.638125 
L 504.74732 156.718125 
" clip-path="url(#pad75a136d1)" style="fill: none; stroke: #b0b0b0; stroke-opacity: 0.15; stroke-width: 0.8; stroke-linecap: square"/>
     </g>
     <g id="line2d_56">
      <g>
       <use xlink:href="#m03352b424e" x="504.74732" y="188.638125" style="stroke: #000000; stroke-width: 0.8"/>
      </g>
     </g>
     <g id="text_29">
      <!-- 2026-01 -->
      <g transform="translate(473.731849 230.555942) rotate(-45) scale(0.1 -0.1)">
       <use xlink:href="#DejaVuSans-32"/>
       <use xlink:href="#DejaVuSans-30" transform="translate(63.623047 0)"/>
       <use xlink:href="#DejaVuSans-32" transform="translate(127.246094 0)"/>
       <use xlink:href="#DejaVuSans-36" transform="translate(190.869141 0)"/>
       <use xlink:href="#DejaVuSans-2d" transform="translate(254.492188 0)"/>
       <use xlink:href="#DejaVuSans-30" transform="translate(290.576172 0)"/>
       <use xlink:href="#DejaVuSans-31" transform="translate(354.199219 0)"/>
      </g>
     </g>
    </g>
    <g id="xtick_24">
     <g id="line2d_57">
      <path d="M 547.399923 188.638125 
L 547.399923 156.718125 
" clip-path="url(#pad75a136d1)" style="fill: none; stroke: #b0b0b0; stroke-opacity: 0.15; stroke-width: 0.8; stroke-linecap: square"/>
     </g>
     <g id="line2d_58">
      <g>
       <use xlink:href="#m03352b424e" x="547.399923" y="188.638125" style="stroke: #000000; stroke-width: 0.8"/>
      </g>
     </g>
     <g id="text_30">
      <!-- 2026-02 -->
      <g transform="translate(516.384452 230.555942) rotate(-45) scale(0.1 -0.1)">
       <use xlink:href="#DejaVuSans-32"/>
       <use xlink:href="#DejaVuSans-30" transform="translate(63.623047 0)"/>
       <use xlink:href="#DejaVuSans-32" transform="translate(127.246094 0)"/>
       <use xlink:href="#DejaVuSans-36" transform="translate(190.869141 0)"/>
       <use xlink:href="#DejaVuSans-2d" transform="translate(254.492188 0)"/>
       <use xlink:href="#DejaVuSans-30" transform="translate(290.576172 0)"/>
       <use xlink:href="#DejaVuSans-32" transform="translate(354.199219 0)"/>
      </g>
     </g>
    </g>
   </g>
   <g id="matplotlib.axis_4">
    <g id="ytick_5">
     <g id="line2d_59">
      <path d="M 52.079375 187.711115 
L 554.279375 187.711115 
" clip-path="url(#pad75a136d1)" style="fill: none; stroke: #b0b0b0; stroke-opacity: 0.15; stroke-width: 0.8; stroke-linecap: square"/>
     </g>
     <g id="line2d_60">
      <g>
       <use xlink:href="#mb0768bbe15" x="52.079375" y="187.711115" style="stroke: #000000; stroke-width: 0.8"/>
      </g>
     </g>
     <g id="text_31">
      <!-- 1.35 -->
      <g transform="translate(22.81375 191.510334) scale(0.1 -0.1)">
       <defs>
        <path id="DejaVuSans-2e" d="M 684 794 
L 1344 794 
L 1344 0 
L 684 0 
L 684 794 
z
" transform="scale(0.015625)"/>
       </defs>
       <use xlink:href="#DejaVuSans-31"/>
       <use xlink:href="#DejaVuSans-2e" transform="translate(63.623047 0)"/>
       <use xlink:href="#DejaVuSans-33" transform="translate(95.410156 0)"/>
       <use xlink:href="#DejaVuSans-35" transform="translate(159.033203 0)"/>
      </g>
     </g>
    </g>
    <g id="ytick_6">
     <g id="line2d_61">
      <path d="M 52.079375 173.158366 
L 554.279375 173.158366 
" clip-path="url(#pad75a136d1)" style="fill: none; stroke: #b0b0b0; stroke-opacity: 0.15; stroke-width: 0.8; stroke-linecap: square"/>
     </g>
     <g id="line2d_62">
      <g>
       <use xlink:href="#mb0768bbe15" x="52.079375" y="173.158366" style="stroke: #000000; stroke-width: 0.8"/>
      </g>
     </g>
     <g id="text_32">
      <!-- 1.40 -->
      <g transform="translate(22.81375 176.957584) scale(0.1 -0.1)">
       <use xlink:href="#DejaVuSans-31"/>
       <use xlink:href="#DejaVuSans-2e" transform="translate(63.623047 0)"/>
       <use xlink:href="#DejaVuSans-34" transform="translate(95.410156 0)"/>
       <use xlink:href="#DejaVuSans-30" transform="translate(159.033203 0)"/>
      </g>
     </g>
    </g>
    <g id="ytick_7">
     <g id="line2d_63">
      <path d="M 52.079375 158.605617 
L 554.279375 158.605617 
" clip-path="url(#pad75a136d1)" style="fill: none; stroke: #b0b0b0; stroke-opacity: 0.15; stroke-width: 0.8; stroke-linecap: square"/>
     </g>
     <g id="line2d_64">
      <g>
       <use xlink:href="#mb0768bbe15" x="52.079375" y="158.605617" style="stroke: #000000; stroke-width: 0.8"/>
      </g>
     </g>
     <g id="text_33">
      <!-- 1.45 -->
      <g transform="translate(22.81375 162.404835) scale(0.1 -0.1)">
       <use xlink:href="#DejaVuSans-31"/>
       <use xlink:href="#DejaVuSans-2e" transform="translate(63.623047 0)"/>
       <use xlink:href="#DejaVuSans-34" transform="translate(95.410156 0)"/>
       <use xlink:href="#DejaVuSans-35" transform="translate(159.033203 0)"/>
      </g>
     </g>
    </g>
    <g id="text_34">
     <!-- USD/CAD -->
     <g transform="translate(16.318125 200.43375) rotate(-90) scale(0.12 -0.12)">
      <defs>
       <path id="DejaVuSans-44" d="M 1259 4147 
L 1259 519 
L 2022 519 
Q 2988 519 3436 956 
Q 3884 1394 3884 2338 
Q 3884 3275 3436 3711 
Q 2988 4147 2022 4147 
L 1259 4147 
z
M 628 4666 
L 1925 4666 
Q 3281 4666 3915 4102 
Q 4550 3538 4550 2338 
Q 4550 1131 3912 565 
Q 3275 0 1925 0 
L 628 0 
L 628 4666 
z
" transform="scale(0.015625)"/>
       <path id="DejaVuSans-2f" d="M 1625 4666 
L 2156 4666 
L 531 -594 
L 0 -594 
L 1625 4666 
z
" transform="scale(0.015625)"/>
       <path id="DejaVuSans-41" d="M 2188 4044 
L 1331 1722 
L 3047 1722 
L 2188 4044 
z
M 1831 4666 
L 2547 4666 
L 4325 0 
L 3669 0 
L 3244 1197 
L 1141 1197 
L 716 0 
L 50 0 
L 1831 4666 
z
" transform="scale(0.015625)"/>
      </defs>
      <use xlink:href="#DejaVuSans-55"/>
      <use xlink:href="#DejaVuSans-53" transform="translate(73.193359 0)"/>
      <use xlink:href="#DejaVuSans-44" transform="translate(136.669922 0)"/>
      <use xlink:href="#DejaVuSans-2f" transform="translate(213.671875 0)"/>
      <use xlink:href="#DejaVuSans-43" transform="translate(247.363281 0)"/>
      <use xlink:href="#DejaVuSans-41" transform="translate(317.1875 0)"/>
      <use xlink:href="#DejaVuSans-44" transform="translate(385.595703 0)"/>
     </g>
    </g>
   </g>
   <g id="line2d_65">
    <path d="M 52.079375 164.019239 
L 53.455265 164.106556 
L 57.582937 163.931923 
L 58.958827 164.193872 
L 60.334717 164.775982 
L 63.086498 168.210431 
M 68.59006 167.657427 
L 69.96595 166.318574 
L 71.341841 167.482794 
L 72.717731 167.453688 
L 76.845402 166.638734 
L 78.221293 164.426716 
L 79.597183 163.087863 
L 80.973074 160.963162 
L 82.348964 160.555685 
L 86.476635 161.545272 
L 87.852526 158.169034 
L 89.228416 162.243804 
L 90.604307 164.950615 
L 91.980197 161.952749 
L 96.107868 160.613896 
L 97.483759 159.711626 
L 98.859649 161.603483 
L 100.235539 161.574377 
L 101.61143 162.185593 
L 105.739101 164.484927 
L 108.490882 163.611762 
L 109.866772 163.669973 
L 111.242663 162.796808 
L 115.370334 164.65956 
L 116.746224 164.222978 
L 118.122115 165.765569 
L 119.498005 163.961028 
L 120.873896 164.950615 
L 125.001567 162.127382 
L 126.377457 163.961028 
L 127.753348 164.135661 
L 129.129238 171.353825 
L 130.505128 167.511899 
L 134.6328 166.638734 
L 136.00869 167.366372 
L 137.38458 167.715638 
L 138.760471 172.867311 
L 140.136361 176.214443 
L 144.264033 176.30176 
L 145.639923 174.788274 
L 147.015813 176.592815 
L 148.391704 177.349557 
L 153.895265 178.455566 
L 155.271156 179.037676 
L 156.647046 176.243549 
L 158.022937 176.389076 
L 159.398827 177.291346 
L 164.902389 177.436874 
L 166.278279 178.775727 
L 167.65417 177.611507 
L 169.03006 179.27052 
L 173.157731 178.68841 
L 174.533622 179.736208 
L 175.909512 179.765314 
L 177.285402 175.661439 
L 178.661293 175.341278 
L 182.788964 173.071049 
L 184.164854 174.380797 
L 185.540745 174.235269 
L 186.916635 173.478526 
L 188.292526 173.420315 
L 192.420197 174.788274 
L 193.796087 174.87559 
L 195.171978 178.339144 
L 196.547868 177.349557 
L 197.923759 180.289213 
M 203.42732 179.677997 
L 204.803211 178.426461 
L 206.179101 178.717516 
L 207.554991 180.522057 
L 211.682663 181.919121 
L 213.058553 181.249694 
L 214.434443 182.821391 
L 215.810334 182.850497 
L 217.186224 182.297492 
L 221.313896 182.617653 
L 222.689786 182.384809 
L 224.065676 182.996024 
L 225.441567 184.363983 
L 226.817457 185.528203 
L 230.945128 186.081207 
L 232.321019 185.178937 
L 233.696909 182.384809 
M 236.44869 180.754901 
L 240.576361 179.765314 
L 241.952252 181.569855 
L 243.328142 180.43474 
L 244.704033 183.956506 
L 246.079923 182.879602 
L 250.207594 184.218455 
L 251.583485 183.083341 
L 252.959375 184.218455 
L 254.335265 185.99389 
M 259.838827 183.519923 
L 262.590608 182.064648 
L 263.966498 182.413914 
L 265.342389 182.530336 
L 269.47006 182.064648 
L 270.84595 181.511644 
L 272.221841 181.715382 
L 273.597731 180.463846 
L 274.973622 181.569855 
L 279.101293 182.210176 
L 280.477183 184.363983 
L 281.853074 184.538616 
L 283.228964 183.549029 
L 284.604854 181.482538 
L 288.732526 181.366116 
L 290.108416 179.648892 
L 291.484307 178.571988 
L 292.860197 177.669718 
L 294.236087 179.619786 
L 298.363759 179.707103 
L 299.739649 179.590681 
L 301.115539 180.754901 
L 302.49143 180.463846 
L 303.86732 180.376529 
L 307.994991 179.474259 
L 309.370882 180.085474 
L 310.746772 180.027263 
L 312.122663 178.804832 
L 317.626224 178.542883 
L 319.002115 177.262241 
L 320.378005 176.825659 
L 321.753896 176.068916 
L 323.129786 177.669718 
L 328.633348 178.310039 
L 330.009238 178.251828 
L 331.385128 180.43474 
L 332.761019 181.133272 
M 338.26458 179.445153 
L 339.640471 179.357837 
L 341.016361 178.164511 
L 342.392252 178.310039 
L 346.519923 178.397355 
L 347.895813 177.989878 
L 349.271704 177.727929 
L 350.647594 178.1063 
L 352.023485 177.291346 
L 356.151156 179.066782 
L 357.527046 180.580268 
L 358.902937 180.11458 
L 360.278827 179.095887 
L 361.654717 179.794419 
L 365.782389 178.571988 
L 367.158279 177.989878 
L 368.53417 176.243549 
L 369.91006 175.399489 
L 371.28595 174.730063 
L 375.413622 175.952494 
L 379.541293 173.915109 
L 380.917183 174.730063 
L 385.044854 174.759168 
L 387.796635 174.526324 
L 389.172526 172.896416 
L 390.548416 173.245682 
M 396.051978 171.96504 
L 397.427868 172.197884 
L 398.803759 171.848618 
L 400.179649 171.819513 
L 404.30732 172.314306 
L 405.683211 172.867311 
L 407.059101 173.798687 
L 408.434991 173.420315 
L 409.810882 172.779994 
L 413.938553 173.303893 
L 415.314443 174.992012 
L 416.690334 176.272654 
L 418.066224 173.682265 
L 419.442115 172.867311 
L 423.569786 171.732196 
L 424.945676 170.80082 
L 426.321567 170.014972 
L 427.697457 169.461967 
L 429.073348 170.975453 
L 433.201019 172.314306 
M 435.9528 173.158366 
L 438.70458 172.488939 
L 442.832252 172.343412 
L 444.208142 173.274788 
L 445.584033 171.732196 
L 446.959923 170.48066 
L 448.335813 170.422449 
L 453.839375 169.811233 
L 455.215265 171.673985 
M 457.967046 173.915109 
L 463.470608 173.507632 
L 464.846498 174.613641 
L 466.222389 174.933801 
L 467.598279 177.291346 
L 471.72595 177.640612 
L 473.101841 178.048089 
L 474.477731 177.989878 
L 475.853622 179.881736 
L 477.229512 179.474259 
L 481.357183 179.998158 
L 482.733074 180.463846 
L 484.108964 179.241415 
L 485.484854 180.085474 
L 486.860745 179.561575 
L 490.988416 180.609373 
L 492.364307 181.511644 
L 493.740197 182.734075 
M 496.491978 182.996024 
L 500.619649 182.472125 
L 501.995539 182.530336 
L 503.37143 181.540749 
M 506.123211 180.784006 
L 510.250882 180.231002 
L 511.626772 179.299626 
L 514.378553 177.116713 
L 515.754443 176.272654 
L 519.882115 176.767448 
L 521.258005 176.505498 
L 522.633896 176.912975 
L 525.385676 175.486806 
M 530.889238 178.36825 
L 532.265128 178.601094 
L 533.641019 179.008571 
L 535.016909 181.133272 
L 539.14458 182.122859 
L 540.520471 184.858776 
L 541.896361 185.528203 
L 543.272252 187.187216 
L 548.775813 182.559442 
L 550.151704 183.519923 
L 551.527594 182.850497 
L 552.903485 182.76318 
L 554.279375 183.519923 
L 554.279375 183.519923 
" clip-path="url(#pad75a136d1)" style="fill: none; stroke: #2ca02c; stroke-width: 1.2; stroke-linecap: square"/>
   </g>
   <g id="patch_8">
    <path d="M 52.079375 188.638125 
L 52.079375 156.718125 
" style="fill: none; stroke: #000000; stroke-width: 0.8; stroke-linejoin: miter; stroke-linecap: square"/>
   </g>
   <g id="patch_9">
    <path d="M 554.279375 188.638125 
L 554.279375 156.718125 
" style="fill: none; stroke: #000000; stroke-width: 0.8; stroke-linejoin: miter; stroke-linecap: square"/>
   </g>
   <g id="patch_10">
    <path d="M 52.079375 188.638125 
L 554.279375 188.638125 
" style="fill: none; stroke: #000000; stroke-width: 0.8; stroke-linejoin: miter; stroke-linecap: square"/>
   </g>
   <g id="patch_11">
    <path d="M 52.079375 156.718125 
L 554.279375 156.718125 
" style="fill: none; stroke: #000000; stroke-width: 0.8; stroke-linejoin: miter; stroke-linecap: square"/>
   </g>
  </g>
 </g>
 <defs>
  <clipPath id="pdd5b98bd1f">
   <rect x="52.079375" y="22.318125" width="502.2" height="91.2"/>
  </clipPath>
  <clipPath id="pad75a136d1">
   <rect x="52.079375" y="156.718125" width="502.2" height="31.92"/>
  </clipPath>
 </defs>
</svg>
