<?xml version="1.0" encoding="utf-8" standalone="no"?>
<!DOCTYPE svg PUBLIC "-//W3C//DTD SVG 1.1//EN"
  "http://www.w3.org/Graphics/SVG/1.1/DTD/svg11.dtd">
<svg xmlns:xlink="http://www.w3.org/1999/xlink" width="561.865625pt" height="239.454103pt" viewBox="0 0 561.865625 239.454103" xmlns="http://www.w3.org/2000/svg" version="1.1">
 <metadata>
  <rdf:RDF xmlns:dc="http://purl.org/dc/elements/1.1/" xmlns:cc="http://creativecommons.org/ns#" xmlns:rdf="http://www.w3.org/1999/02/22-rdf-syntax-ns#">
   <cc:Work>
    <dc:type rdf:resource="http://purl.org/dc/dcmitype/StillImage"/>
    <dc:date>2026-06-29T16:42:40.006294</dc:date>
    <dc:format>image/svg+xml</dc:format>
    <dc:creator>
     <cc:Agent>
      <dc:title>Matplotlib v3.11.0, https://matplotlib.org/</dc:title>
     </cc:Agent>
    </dc:creator>
   </cc:Work>
  </rdf:RDF>
 </metadata>
 <defs>
  <style type="text/css">*{stroke-linejoin: round; stroke-linecap: butt}</style>
 </defs>
 <g id="figure_1">
  <g id="patch_1">
   <path d="M 0 239.454103 
L 561.865625 239.454103 
L 561.865625 0 
L 0 0 
z
" style="fill: #ffffff"/>
  </g>
  <g id="axes_1">
   <g id="patch_2">
    <path d="M 52.465625 113.518125 
L 554.665625 113.518125 
L 554.665625 22.318125 
L 52.465625 22.318125 
z
" style="fill: #ffffff"/>
   </g>
   <g id="matplotlib.axis_1">
    <g id="xtick_1">
     <g id="line2d_1">
      <path d="M 59.345077 113.518125 
L 59.345077 22.318125 
" clip-path="url(#p9ec95712c8)" style="fill: none; stroke: #b0b0b0; stroke-opacity: 0.2; stroke-width: 0.8; stroke-linecap: square"/>
     </g>
     <g id="line2d_2">
      <defs>
       <path id="mdbe7bd6d02" d="M 0 0 
L 0 3.5 
" style="stroke: #000000; stroke-width: 0.8"/>
      </defs>
      <g>
       <use xlink:href="#mdbe7bd6d02" x="59.345077" y="113.518125" style="stroke: #000000; stroke-width: 0.8"/>
      </g>
     </g>
     <g id="text_1">
      <!-- 2025-07 -->
      <g transform="translate(28.101453 155.435389) rotate(-45) scale(0.1 -0.1)">
       <defs>
        <path id="DejaVuSans-15" d="M 1228 531 
L 3431 531 
L 3431 0 
L 469 0 
L 469 531 
Q 828 903 1448 1529 
Q 2069 2156 2228 2338 
Q 2531 2678 2651 2914 
Q 2772 3150 2772 3378 
Q 2772 3750 2511 3984 
Q 2250 4219 1831 4219 
Q 1534 4219 1204 4116 
Q 875 4013 500 3803 
L 500 4441 
Q 881 4594 1212 4672 
Q 1544 4750 1819 4750 
Q 2544 4750 2975 4387 
Q 3406 4025 3406 3419 
Q 3406 3131 3298 2873 
Q 3191 2616 2906 2266 
Q 2828 2175 2409 1742 
Q 1991 1309 1228 531 
z
" transform="scale(0.015625)"/>
        <path id="DejaVuSans-13" d="M 2034 4250 
Q 1547 4250 1301 3770 
Q 1056 3291 1056 2328 
Q 1056 1369 1301 889 
Q 1547 409 2034 409 
Q 2525 409 2770 889 
Q 3016 1369 3016 2328 
Q 3016 3291 2770 3770 
Q 2525 4250 2034 4250 
z
M 2034 4750 
Q 2819 4750 3233 4129 
Q 3647 3509 3647 2328 
Q 3647 1150 3233 529 
Q 2819 -91 2034 -91 
Q 1250 -91 836 529 
Q 422 1150 422 2328 
Q 422 3509 836 4129 
Q 1250 4750 2034 4750 
z
" transform="scale(0.015625)"/>
        <path id="DejaVuSans-18" d="M 691 4666 
L 3169 4666 
L 3169 4134 
L 1269 4134 
L 1269 2991 
Q 1406 3038 1543 3061 
Q 1681 3084 1819 3084 
Q 2600 3084 3056 2656 
Q 3513 2228 3513 1497 
Q 3513 744 3044 326 
Q 2575 -91 1722 -91 
Q 1428 -91 1123 -41 
Q 819 9 494 109 
L 494 744 
Q 775 591 1075 516 
Q 1375 441 1709 441 
Q 2250 441 2565 725 
Q 2881 1009 2881 1497 
Q 2881 1984 2565 2268 
Q 2250 2553 1709 2553 
Q 1456 2553 1204 2497 
Q 953 2441 691 2322 
L 691 4666 
z
" transform="scale(0.015625)"/>
        <path id="DejaVuSans-10" d="M 313 2009 
L 1997 2009 
L 1997 1497 
L 313 1497 
L 313 2009 
z
" transform="scale(0.015625)"/>
        <path id="DejaVuSans-1a" d="M 525 4666 
L 3525 4666 
L 3525 4397 
L 1831 0 
L 1172 0 
L 2766 4134 
L 525 4134 
L 525 4666 
z
" transform="scale(0.015625)"/>
       </defs>
       <use xlink:href="#DejaVuSans-15"/>
       <use xlink:href="#DejaVuSans-13" transform="translate(63.625 0)"/>
       <use xlink:href="#DejaVuSans-15" transform="translate(127.25 0)"/>
       <use xlink:href="#DejaVuSans-18" transform="translate(190.875 0)"/>
       <use xlink:href="#DejaVuSans-10" transform="translate(254.5 0)"/>
       <use xlink:href="#DejaVuSans-13" transform="translate(290.578125 0)"/>
       <use xlink:href="#DejaVuSans-1a" transform="translate(354.203125 0)"/>
      </g>
     </g>
    </g>
    <g id="xtick_2">
     <g id="line2d_3">
      <path d="M 101.99768 113.518125 
L 101.99768 22.318125 
" clip-path="url(#p9ec95712c8)" style="fill: none; stroke: #b0b0b0; stroke-opacity: 0.2; stroke-width: 0.8; stroke-linecap: square"/>
     </g>
     <g id="line2d_4">
      <g>
       <use xlink:href="#mdbe7bd6d02" x="101.99768" y="113.518125" style="stroke: #000000; stroke-width: 0.8"/>
      </g>
     </g>
     <g id="text_2">
      <!-- 2025-08 -->
      <g transform="translate(70.754056 155.435389) rotate(-45) scale(0.1 -0.1)">
       <defs>
        <path id="DejaVuSans-1b" d="M 2034 2216 
Q 1584 2216 1326 1975 
Q 1069 1734 1069 1313 
Q 1069 891 1326 650 
Q 1584 409 2034 409 
Q 2484 409 2743 651 
Q 3003 894 3003 1313 
Q 3003 1734 2745 1975 
Q 2488 2216 2034 2216 
z
M 1403 2484 
Q 997 2584 770 2862 
Q 544 3141 544 3541 
Q 544 4100 942 4425 
Q 1341 4750 2034 4750 
Q 2731 4750 3128 4425 
Q 3525 4100 3525 3541 
Q 3525 3141 3298 2862 
Q 3072 2584 2669 2484 
Q 3125 2378 3379 2068 
Q 3634 1759 3634 1313 
Q 3634 634 3220 271 
Q 2806 -91 2034 -91 
Q 1263 -91 848 271 
Q 434 634 434 1313 
Q 434 1759 690 2068 
Q 947 2378 1403 2484 
z
M 1172 3481 
Q 1172 3119 1398 2916 
Q 1625 2713 2034 2713 
Q 2441 2713 2670 2916 
Q 2900 3119 2900 3481 
Q 2900 3844 2670 4047 
Q 2441 4250 2034 4250 
Q 1625 4250 1398 4047 
Q 1172 3844 1172 3481 
z
" transform="scale(0.015625)"/>
       </defs>
       <use xlink:href="#DejaVuSans-15"/>
       <use xlink:href="#DejaVuSans-13" transform="translate(63.625 0)"/>
       <use xlink:href="#DejaVuSans-15" transform="translate(127.25 0)"/>
       <use xlink:href="#DejaVuSans-18" transform="translate(190.875 0)"/>
       <use xlink:href="#DejaVuSans-10" transform="translate(254.5 0)"/>
       <use xlink:href="#DejaVuSans-13" transform="translate(290.578125 0)"/>
       <use xlink:href="#DejaVuSans-1b" transform="translate(354.203125 0)"/>
      </g>
     </g>
    </g>
    <g id="xtick_3">
     <g id="line2d_5">
      <path d="M 144.650283 113.518125 
L 144.650283 22.318125 
" clip-path="url(#p9ec95712c8)" style="fill: none; stroke: #b0b0b0; stroke-opacity: 0.2; stroke-width: 0.8; stroke-linecap: square"/>
     </g>
     <g id="line2d_6">
      <g>
       <use xlink:href="#mdbe7bd6d02" x="144.650283" y="113.518125" style="stroke: #000000; stroke-width: 0.8"/>
      </g>
     </g>
     <g id="text_3">
      <!-- 2025-09 -->
      <g transform="translate(113.406659 155.435389) rotate(-45) scale(0.1 -0.1)">
       <defs>
        <path id="DejaVuSans-1c" d="M 703 97 
L 703 672 
Q 941 559 1184 500 
Q 1428 441 1663 441 
Q 2288 441 2617 861 
Q 2947 1281 2994 2138 
Q 2813 1869 2534 1725 
Q 2256 1581 1919 1581 
Q 1219 1581 811 2004 
Q 403 2428 403 3163 
Q 403 3881 828 4315 
Q 1253 4750 1959 4750 
Q 2769 4750 3195 4129 
Q 3622 3509 3622 2328 
Q 3622 1225 3098 567 
Q 2575 -91 1691 -91 
Q 1453 -91 1209 -44 
Q 966 3 703 97 
z
M 1959 2075 
Q 2384 2075 2632 2365 
Q 2881 2656 2881 3163 
Q 2881 3666 2632 3958 
Q 2384 4250 1959 4250 
Q 1534 4250 1286 3958 
Q 1038 3666 1038 3163 
Q 1038 2656 1286 2365 
Q 1534 2075 1959 2075 
z
" transform="scale(0.015625)"/>
       </defs>
       <use xlink:href="#DejaVuSans-15"/>
       <use xlink:href="#DejaVuSans-13" transform="translate(63.625 0)"/>
       <use xlink:href="#DejaVuSans-15" transform="translate(127.25 0)"/>
       <use xlink:href="#DejaVuSans-18" transform="translate(190.875 0)"/>
       <use xlink:href="#DejaVuSans-10" transform="translate(254.5 0)"/>
       <use xlink:href="#DejaVuSans-13" transform="translate(290.578125 0)"/>
       <use xlink:href="#DejaVuSans-1c" transform="translate(354.203125 0)"/>
      </g>
     </g>
    </g>
    <g id="xtick_4">
     <g id="line2d_7">
      <path d="M 185.926995 113.518125 
L 185.926995 22.318125 
" clip-path="url(#p9ec95712c8)" style="fill: none; stroke: #b0b0b0; stroke-opacity: 0.2; stroke-width: 0.8; stroke-linecap: square"/>
     </g>
     <g id="line2d_8">
      <g>
       <use xlink:href="#mdbe7bd6d02" x="185.926995" y="113.518125" style="stroke: #000000; stroke-width: 0.8"/>
      </g>
     </g>
     <g id="text_4">
      <!-- 2025-10 -->
      <g transform="translate(154.683371 155.435389) rotate(-45) scale(0.1 -0.1)">
       <defs>
        <path id="DejaVuSans-14" d="M 794 531 
L 1825 531 
L 1825 4091 
L 703 3866 
L 703 4441 
L 1819 4666 
L 2450 4666 
L 2450 531 
L 3481 531 
L 3481 0 
L 794 0 
L 794 531 
z
" transform="scale(0.015625)"/>
       </defs>
       <use xlink:href="#DejaVuSans-15"/>
       <use xlink:href="#DejaVuSans-13" transform="translate(63.625 0)"/>
       <use xlink:href="#DejaVuSans-15" transform="translate(127.25 0)"/>
       <use xlink:href="#DejaVuSans-18" transform="translate(190.875 0)"/>
       <use xlink:href="#DejaVuSans-10" transform="translate(254.5 0)"/>
       <use xlink:href="#DejaVuSans-14" transform="translate(290.578125 0)"/>
       <use xlink:href="#DejaVuSans-13" transform="translate(354.203125 0)"/>
      </g>
     </g>
    </g>
    <g id="xtick_5">
     <g id="line2d_9">
      <path d="M 228.579598 113.518125 
L 228.579598 22.318125 
" clip-path="url(#p9ec95712c8)" style="fill: none; stroke: #b0b0b0; stroke-opacity: 0.2; stroke-width: 0.8; stroke-linecap: square"/>
     </g>
     <g id="line2d_10">
      <g>
       <use xlink:href="#mdbe7bd6d02" x="228.579598" y="113.518125" style="stroke: #000000; stroke-width: 0.8"/>
      </g>
     </g>
     <g id="text_5">
      <!-- 2025-11 -->
      <g transform="translate(197.335974 155.435389) rotate(-45) scale(0.1 -0.1)">
       <use xlink:href="#DejaVuSans-15"/>
       <use xlink:href="#DejaVuSans-13" transform="translate(63.625 0)"/>
       <use xlink:href="#DejaVuSans-15" transform="translate(127.25 0)"/>
       <use xlink:href="#DejaVuSans-18" transform="translate(190.875 0)"/>
       <use xlink:href="#DejaVuSans-10" transform="translate(254.5 0)"/>
       <use xlink:href="#DejaVuSans-14" transform="translate(290.578125 0)"/>
       <use xlink:href="#DejaVuSans-14" transform="translate(354.203125 0)"/>
      </g>
     </g>
    </g>
    <g id="xtick_6">
     <g id="line2d_11">
      <path d="M 269.85631 113.518125 
L 269.85631 22.318125 
" clip-path="url(#p9ec95712c8)" style="fill: none; stroke: #b0b0b0; stroke-opacity: 0.2; stroke-width: 0.8; stroke-linecap: square"/>
     </g>
     <g id="line2d_12">
      <g>
       <use xlink:href="#mdbe7bd6d02" x="269.85631" y="113.518125" style="stroke: #000000; stroke-width: 0.8"/>
      </g>
     </g>
     <g id="text_6">
      <!-- 2025-12 -->
      <g transform="translate(238.612686 155.435389) rotate(-45) scale(0.1 -0.1)">
       <use xlink:href="#DejaVuSans-15"/>
       <use xlink:href="#DejaVuSans-13" transform="translate(63.625 0)"/>
       <use xlink:href="#DejaVuSans-15" transform="translate(127.25 0)"/>
       <use xlink:href="#DejaVuSans-18" transform="translate(190.875 0)"/>
       <use xlink:href="#DejaVuSans-10" transform="translate(254.5 0)"/>
       <use xlink:href="#DejaVuSans-14" transform="translate(290.578125 0)"/>
       <use xlink:href="#DejaVuSans-15" transform="translate(354.203125 0)"/>
      </g>
     </g>
    </g>
    <g id="xtick_7">
     <g id="line2d_13">
      <path d="M 312.508913 113.518125 
L 312.508913 22.318125 
" clip-path="url(#p9ec95712c8)" style="fill: none; stroke: #b0b0b0; stroke-opacity: 0.2; stroke-width: 0.8; stroke-linecap: square"/>
     </g>
     <g id="line2d_14">
      <g>
       <use xlink:href="#mdbe7bd6d02" x="312.508913" y="113.518125" style="stroke: #000000; stroke-width: 0.8"/>
      </g>
     </g>
     <g id="text_7">
      <!-- 2026-01 -->
      <g transform="translate(281.265289 155.435389) rotate(-45) scale(0.1 -0.1)">
       <defs>
        <path id="DejaVuSans-19" d="M 2113 2584 
Q 1688 2584 1439 2293 
Q 1191 2003 1191 1497 
Q 1191 994 1439 701 
Q 1688 409 2113 409 
Q 2538 409 2786 701 
Q 3034 994 3034 1497 
Q 3034 2003 2786 2293 
Q 2538 2584 2113 2584 
z
M 3366 4563 
L 3366 3988 
Q 3128 4100 2886 4159 
Q 2644 4219 2406 4219 
Q 1781 4219 1451 3797 
Q 1122 3375 1075 2522 
Q 1259 2794 1537 2939 
Q 1816 3084 2150 3084 
Q 2853 3084 3261 2657 
Q 3669 2231 3669 1497 
Q 3669 778 3244 343 
Q 2819 -91 2113 -91 
Q 1303 -91 875 529 
Q 447 1150 447 2328 
Q 447 3434 972 4092 
Q 1497 4750 2381 4750 
Q 2619 4750 2861 4703 
Q 3103 4656 3366 4563 
z
" transform="scale(0.015625)"/>
       </defs>
       <use xlink:href="#DejaVuSans-15"/>
       <use xlink:href="#DejaVuSans-13" transform="translate(63.625 0)"/>
       <use xlink:href="#DejaVuSans-15" transform="translate(127.25 0)"/>
       <use xlink:href="#DejaVuSans-19" transform="translate(190.875 0)"/>
       <use xlink:href="#DejaVuSans-10" transform="translate(254.5 0)"/>
       <use xlink:href="#DejaVuSans-13" transform="translate(290.578125 0)"/>
       <use xlink:href="#DejaVuSans-14" transform="translate(354.203125 0)"/>
      </g>
     </g>
    </g>
    <g id="xtick_8">
     <g id="line2d_15">
      <path d="M 355.161515 113.518125 
L 355.161515 22.318125 
" clip-path="url(#p9ec95712c8)" style="fill: none; stroke: #b0b0b0; stroke-opacity: 0.2; stroke-width: 0.8; stroke-linecap: square"/>
     </g>
     <g id="line2d_16">
      <g>
       <use xlink:href="#mdbe7bd6d02" x="355.161515" y="113.518125" style="stroke: #000000; stroke-width: 0.8"/>
      </g>
     </g>
     <g id="text_8">
      <!-- 2026-02 -->
      <g transform="translate(323.917892 155.435389) rotate(-45) scale(0.1 -0.1)">
       <use xlink:href="#DejaVuSans-15"/>
       <use xlink:href="#DejaVuSans-13" transform="translate(63.625 0)"/>
       <use xlink:href="#DejaVuSans-15" transform="translate(127.25 0)"/>
       <use xlink:href="#DejaVuSans-19" transform="translate(190.875 0)"/>
       <use xlink:href="#DejaVuSans-10" transform="translate(254.5 0)"/>
       <use xlink:href="#DejaVuSans-13" transform="translate(290.578125 0)"/>
       <use xlink:href="#DejaVuSans-15" transform="translate(354.203125 0)"/>
      </g>
     </g>
    </g>
    <g id="xtick_9">
     <g id="line2d_17">
      <path d="M 393.686447 113.518125 
L 393.686447 22.318125 
" clip-path="url(#p9ec95712c8)" style="fill: none; stroke: #b0b0b0; stroke-opacity: 0.2; stroke-width: 0.8; stroke-linecap: square"/>
     </g>
     <g id="line2d_18">
      <g>
       <use xlink:href="#mdbe7bd6d02" x="393.686447" y="113.518125" style="stroke: #000000; stroke-width: 0.8"/>
      </g>
     </g>
     <g id="text_9">
      <!-- 2026-03 -->
      <g transform="translate(362.442823 155.435389) rotate(-45) scale(0.1 -0.1)">
       <defs>
        <path id="DejaVuSans-16" d="M 2597 2516 
Q 3050 2419 3304 2112 
Q 3559 1806 3559 1356 
Q 3559 666 3084 287 
Q 2609 -91 1734 -91 
Q 1441 -91 1130 -33 
Q 819 25 488 141 
L 488 750 
Q 750 597 1062 519 
Q 1375 441 1716 441 
Q 2309 441 2620 675 
Q 2931 909 2931 1356 
Q 2931 1769 2642 2001 
Q 2353 2234 1838 2234 
L 1294 2234 
L 1294 2753 
L 1863 2753 
Q 2328 2753 2575 2939 
Q 2822 3125 2822 3475 
Q 2822 3834 2567 4026 
Q 2313 4219 1838 4219 
Q 1578 4219 1281 4162 
Q 984 4106 628 3988 
L 628 4550 
Q 988 4650 1302 4700 
Q 1616 4750 1894 4750 
Q 2613 4750 3031 4423 
Q 3450 4097 3450 3541 
Q 3450 3153 3228 2886 
Q 3006 2619 2597 2516 
z
" transform="scale(0.015625)"/>
       </defs>
       <use xlink:href="#DejaVuSans-15"/>
       <use xlink:href="#DejaVuSans-13" transform="translate(63.625 0)"/>
       <use xlink:href="#DejaVuSans-15" transform="translate(127.25 0)"/>
       <use xlink:href="#DejaVuSans-19" transform="translate(190.875 0)"/>
       <use xlink:href="#DejaVuSans-10" transform="translate(254.5 0)"/>
       <use xlink:href="#DejaVuSans-13" transform="translate(290.578125 0)"/>
       <use xlink:href="#DejaVuSans-16" transform="translate(354.203125 0)"/>
      </g>
     </g>
    </g>
    <g id="xtick_10">
     <g id="line2d_19">
      <path d="M 436.33905 113.518125 
L 436.33905 22.318125 
" clip-path="url(#p9ec95712c8)" style="fill: none; stroke: #b0b0b0; stroke-opacity: 0.2; stroke-width: 0.8; stroke-linecap: square"/>
     </g>
     <g id="line2d_20">
      <g>
       <use xlink:href="#mdbe7bd6d02" x="436.33905" y="113.518125" style="stroke: #000000; stroke-width: 0.8"/>
      </g>
     </g>
     <g id="text_10">
      <!-- 2026-04 -->
      <g transform="translate(405.095426 155.435389) rotate(-45) scale(0.1 -0.1)">
       <defs>
        <path id="DejaVuSans-17" d="M 2419 4116 
L 825 1625 
L 2419 1625 
L 2419 4116 
z
M 2253 4666 
L 3047 4666 
L 3047 1625 
L 3713 1625 
L 3713 1100 
L 3047 1100 
L 3047 0 
L 2419 0 
L 2419 1100 
L 313 1100 
L 313 1709 
L 2253 4666 
z
" transform="scale(0.015625)"/>
       </defs>
       <use xlink:href="#DejaVuSans-15"/>
       <use xlink:href="#DejaVuSans-13" transform="translate(63.625 0)"/>
       <use xlink:href="#DejaVuSans-15" transform="translate(127.25 0)"/>
       <use xlink:href="#DejaVuSans-19" transform="translate(190.875 0)"/>
       <use xlink:href="#DejaVuSans-10" transform="translate(254.5 0)"/>
       <use xlink:href="#DejaVuSans-13" transform="translate(290.578125 0)"/>
       <use xlink:href="#DejaVuSans-17" transform="translate(354.203125 0)"/>
      </g>
     </g>
    </g>
    <g id="xtick_11">
     <g id="line2d_21">
      <path d="M 477.615762 113.518125 
L 477.615762 22.318125 
" clip-path="url(#p9ec95712c8)" style="fill: none; stroke: #b0b0b0; stroke-opacity: 0.2; stroke-width: 0.8; stroke-linecap: square"/>
     </g>
     <g id="line2d_22">
      <g>
       <use xlink:href="#mdbe7bd6d02" x="477.615762" y="113.518125" style="stroke: #000000; stroke-width: 0.8"/>
      </g>
     </g>
     <g id="text_11">
      <!-- 2026-05 -->
      <g transform="translate(446.372138 155.435389) rotate(-45) scale(0.1 -0.1)">
       <use xlink:href="#DejaVuSans-15"/>
       <use xlink:href="#DejaVuSans-13" transform="translate(63.625 0)"/>
       <use xlink:href="#DejaVuSans-15" transform="translate(127.25 0)"/>
       <use xlink:href="#DejaVuSans-19" transform="translate(190.875 0)"/>
       <use xlink:href="#DejaVuSans-10" transform="translate(254.5 0)"/>
       <use xlink:href="#DejaVuSans-13" transform="translate(290.578125 0)"/>
       <use xlink:href="#DejaVuSans-18" transform="translate(354.203125 0)"/>
      </g>
     </g>
    </g>
    <g id="xtick_12">
     <g id="line2d_23">
      <path d="M 520.268365 113.518125 
L 520.268365 22.318125 
" clip-path="url(#p9ec95712c8)" style="fill: none; stroke: #b0b0b0; stroke-opacity: 0.2; stroke-width: 0.8; stroke-linecap: square"/>
     </g>
     <g id="line2d_24">
      <g>
       <use xlink:href="#mdbe7bd6d02" x="520.268365" y="113.518125" style="stroke: #000000; stroke-width: 0.8"/>
      </g>
     </g>
     <g id="text_12">
      <!-- 2026-06 -->
      <g transform="translate(489.024741 155.435389) rotate(-45) scale(0.1 -0.1)">
       <use xlink:href="#DejaVuSans-15"/>
       <use xlink:href="#DejaVuSans-13" transform="translate(63.625 0)"/>
       <use xlink:href="#DejaVuSans-15" transform="translate(127.25 0)"/>
       <use xlink:href="#DejaVuSans-19" transform="translate(190.875 0)"/>
       <use xlink:href="#DejaVuSans-10" transform="translate(254.5 0)"/>
       <use xlink:href="#DejaVuSans-13" transform="translate(290.578125 0)"/>
       <use xlink:href="#DejaVuSans-19" transform="translate(354.203125 0)"/>
      </g>
     </g>
    </g>
   </g>
   <g id="matplotlib.axis_2">
    <g id="ytick_1">
     <g id="line2d_25">
      <path d="M 52.465625 109.37267 
L 554.665625 109.37267 
" clip-path="url(#p9ec95712c8)" style="fill: none; stroke: #b0b0b0; stroke-opacity: 0.2; stroke-width: 0.8; stroke-linecap: square"/>
     </g>
     <g id="line2d_26">
      <defs>
       <path id="mcc6a5d8092" d="M 0 0 
L -3.5 0 
" style="stroke: #000000; stroke-width: 0.8"/>
      </defs>
      <g>
       <use xlink:href="#mcc6a5d8092" x="52.465625" y="109.37267" style="stroke: #000000; stroke-width: 0.8"/>
      </g>
     </g>
     <g id="text_13">
      <!-- 0 -->
      <g transform="translate(39.103125 113.171499) scale(0.1 -0.1)">
       <use xlink:href="#DejaVuSans-13"/>
      </g>
     </g>
    </g>
    <g id="ytick_2">
     <g id="line2d_27">
      <path d="M 52.465625 71.68672 
L 554.665625 71.68672 
" clip-path="url(#p9ec95712c8)" style="fill: none; stroke: #b0b0b0; stroke-opacity: 0.2; stroke-width: 0.8; stroke-linecap: square"/>
     </g>
     <g id="line2d_28">
      <g>
       <use xlink:href="#mcc6a5d8092" x="52.465625" y="71.68672" style="stroke: #000000; stroke-width: 0.8"/>
      </g>
     </g>
     <g id="text_14">
      <!-- 50 -->
      <g transform="translate(32.740625 75.485548) scale(0.1 -0.1)">
       <use xlink:href="#DejaVuSans-18"/>
       <use xlink:href="#DejaVuSans-13" transform="translate(63.625 0)"/>
      </g>
     </g>
    </g>
    <g id="ytick_3">
     <g id="line2d_29">
      <path d="M 52.465625 34.00077 
L 554.665625 34.00077 
" clip-path="url(#p9ec95712c8)" style="fill: none; stroke: #b0b0b0; stroke-opacity: 0.2; stroke-width: 0.8; stroke-linecap: square"/>
     </g>
     <g id="line2d_30">
      <g>
       <use xlink:href="#mcc6a5d8092" x="52.465625" y="34.00077" style="stroke: #000000; stroke-width: 0.8"/>
      </g>
     </g>
     <g id="text_15">
      <!-- 100 -->
      <g transform="translate(26.378125 37.799598) scale(0.1 -0.1)">
       <use xlink:href="#DejaVuSans-14"/>
       <use xlink:href="#DejaVuSans-13" transform="translate(63.625 0)"/>
       <use xlink:href="#DejaVuSans-13" transform="translate(127.25 0)"/>
      </g>
     </g>
    </g>
    <g id="text_16">
     <!-- bp -->
     <g transform="translate(19.975781 74.266562) rotate(-90) scale(0.1 -0.1)">
      <defs>
       <path id="DejaVuSans-45" d="M 3116 1747 
Q 3116 2381 2855 2742 
Q 2594 3103 2138 3103 
Q 1681 3103 1420 2742 
Q 1159 2381 1159 1747 
Q 1159 1113 1420 752 
Q 1681 391 2138 391 
Q 2594 391 2855 752 
Q 3116 1113 3116 1747 
z
M 1159 2969 
Q 1341 3281 1617 3432 
Q 1894 3584 2278 3584 
Q 2916 3584 3314 3078 
Q 3713 2572 3713 1747 
Q 3713 922 3314 415 
Q 2916 -91 2278 -91 
Q 1894 -91 1617 61 
Q 1341 213 1159 525 
L 1159 0 
L 581 0 
L 581 4863 
L 1159 4863 
L 1159 2969 
z
" transform="scale(0.015625)"/>
       <path id="DejaVuSans-53" d="M 1159 525 
L 1159 -1331 
L 581 -1331 
L 581 3500 
L 1159 3500 
L 1159 2969 
Q 1341 3281 1617 3432 
Q 1894 3584 2278 3584 
Q 2916 3584 3314 3078 
Q 3713 2572 3713 1747 
Q 3713 922 3314 415 
Q 2916 -91 2278 -91 
Q 1894 -91 1617 61 
Q 1341 213 1159 525 
z
M 3116 1747 
Q 3116 2381 2855 2742 
Q 2594 3103 2138 3103 
Q 1681 3103 1420 2742 
Q 1159 2381 1159 1747 
Q 1159 1113 1420 752 
Q 1681 391 2138 391 
Q 2594 391 2855 752 
Q 3116 1113 3116 1747 
z
" transform="scale(0.015625)"/>
      </defs>
      <use xlink:href="#DejaVuSans-45"/>
      <use xlink:href="#DejaVuSans-53" transform="translate(63.484375 0)"/>
     </g>
    </g>
   </g>
   <g id="line2d_31">
    <path d="M 52.465625 39.276803 
L 53.841515 35.508208 
L 57.969187 37.015646 
L 59.345077 35.508208 
L 60.720967 38.523084 
L 63.472748 34.00077 
L 67.60042 34.00077 
L 68.97631 34.754489 
L 73.103981 39.276803 
L 77.231652 40.030522 
L 78.607543 41.53796 
L 79.983433 42.291679 
L 81.359324 41.53796 
L 82.735214 43.799117 
L 86.862885 43.799117 
L 88.238776 45.306555 
L 89.614666 46.060274 
L 90.990557 43.045398 
L 92.366447 43.045398 
L 96.494118 41.53796 
L 97.870009 43.799117 
L 99.245899 41.53796 
L 100.621789 40.030522 
L 101.99768 45.306555 
L 106.125351 46.060274 
L 107.501241 46.060274 
L 108.877132 46.813993 
L 110.253022 46.060274 
L 111.628913 42.291679 
L 115.756584 43.045398 
L 117.132474 44.552836 
L 118.508365 45.306555 
L 119.884255 43.045398 
L 121.260146 43.799117 
L 125.387817 45.306555 
L 126.763707 44.552836 
L 128.139598 45.306555 
L 129.515488 45.306555 
L 130.891378 46.813993 
L 135.01905 48.321431 
L 136.39494 48.321431 
L 137.77083 49.828869 
L 139.146721 49.07515 
L 140.522611 45.306555 
L 144.650283 45.306555 
L 148.777954 47.567712 
L 150.153844 46.813993 
L 154.281515 46.060274 
L 155.657406 44.552836 
L 157.033296 43.799117 
L 158.409187 45.306555 
L 159.785077 43.045398 
L 166.664529 43.045398 
L 168.04042 40.030522 
L 169.41631 38.523084 
L 173.543981 37.015646 
L 174.919872 39.276803 
L 176.295762 37.015646 
L 177.671652 37.015646 
L 179.047543 36.261927 
L 183.175214 35.508208 
L 184.551104 34.754489 
L 185.926995 39.276803 
L 187.302885 40.030522 
L 188.678776 38.523084 
L 192.806447 36.261927 
L 194.182337 37.769365 
L 195.558228 38.523084 
L 196.934118 38.523084 
L 198.310009 43.799117 
L 202.43768 43.799117 
L 203.81357 42.291679 
L 205.189461 39.276803 
L 206.565351 40.784241 
L 207.941241 39.276803 
L 212.068913 37.769365 
L 213.444803 41.53796 
L 214.820693 41.53796 
L 217.572474 38.523084 
L 221.700146 37.015646 
L 223.076036 37.769365 
L 224.451926 39.276803 
L 225.827817 35.508208 
L 227.203707 34.754489 
L 231.331378 35.508208 
L 232.707269 37.769365 
L 234.083159 33.247051 
L 235.45905 33.247051 
L 236.83494 38.523084 
L 240.962611 37.015646 
L 242.338502 37.015646 
L 243.714392 38.523084 
L 246.466173 40.030522 
L 250.593844 41.53796 
L 251.969735 43.799117 
L 253.345625 43.045398 
L 254.721515 43.045398 
L 256.097406 44.552836 
L 261.600967 44.552836 
L 264.352748 43.045398 
L 265.728639 43.045398 
L 269.85631 45.306555 
L 271.2322 45.306555 
L 272.608091 46.060274 
L 273.983981 45.306555 
L 275.359872 55.104902 
L 279.487543 52.843745 
L 280.863433 55.104902 
L 282.239324 55.858621 
L 283.615214 55.104902 
L 284.991104 52.843745 
L 289.118776 51.336307 
L 290.494666 52.843745 
L 291.870557 53.597464 
L 293.246447 55.104902 
L 294.622337 57.366059 
L 298.750009 55.858621 
L 300.125899 52.090026 
L 301.501789 52.843745 
L 302.87768 52.843745 
L 304.25357 53.597464 
L 308.381241 54.351183 
L 309.757132 54.351183 
L 311.133022 52.090026 
L 312.508913 52.090026 
L 313.884803 55.104902 
L 318.012474 52.843745 
L 319.388365 52.843745 
L 320.764255 52.090026 
L 322.140146 49.828869 
L 323.516036 49.07515 
L 327.643707 49.828869 
L 329.019598 51.336307 
L 330.395488 49.828869 
L 331.771378 47.567712 
L 333.147269 43.799117 
L 337.27494 45.306555 
L 338.65083 43.045398 
L 340.026721 46.060274 
L 341.402611 44.552836 
L 342.778502 46.813993 
L 346.906173 45.306555 
L 348.282063 46.813993 
L 349.657954 46.060274 
L 351.033844 46.813993 
L 352.409735 46.060274 
L 356.537406 44.552836 
L 357.913296 46.060274 
L 359.289187 44.552836 
L 360.665077 48.321431 
L 362.040967 47.567712 
L 366.168639 46.813993 
L 367.544529 49.07515 
L 368.92042 46.060274 
L 370.29631 48.321431 
L 371.6722 49.828869 
L 375.799872 49.828869 
L 377.175762 47.567712 
L 378.551652 44.552836 
L 381.303433 44.552836 
L 385.431104 45.306555 
L 386.806995 44.552836 
L 388.182885 45.306555 
L 389.558776 45.306555 
L 390.934666 46.060274 
L 395.062337 46.813993 
L 396.438228 47.567712 
L 397.814118 46.813993 
L 400.565899 52.843745 
L 404.69357 52.090026 
L 406.069461 52.090026 
L 407.445351 54.351183 
L 410.197132 51.336307 
L 415.700693 48.321431 
L 418.452474 48.321431 
L 419.828365 46.813993 
L 423.956036 48.321431 
L 425.331926 49.07515 
L 426.707817 44.552836 
L 428.083707 45.306555 
L 429.459598 44.552836 
L 433.587269 46.060274 
L 434.963159 46.060274 
L 437.71494 47.567712 
L 439.09083 44.552836 
L 443.218502 43.799117 
L 444.594392 46.060274 
L 445.970283 45.306555 
L 447.346173 46.813993 
L 448.722063 46.060274 
L 452.849735 46.060274 
L 455.601515 47.567712 
L 462.480967 47.567712 
L 463.856858 49.07515 
L 465.232748 47.567712 
L 466.608639 44.552836 
L 467.984529 45.306555 
L 473.488091 45.306555 
L 474.863981 47.567712 
L 477.615762 44.552836 
L 481.743433 46.813993 
L 483.119324 46.813993 
L 484.495214 45.306555 
L 487.246995 40.784241 
L 492.750557 43.799117 
L 494.126447 43.045398 
L 495.502337 40.784241 
L 496.878228 42.291679 
L 501.005899 40.784241 
L 502.381789 36.261927 
L 503.75768 34.754489 
L 505.13357 31.739613 
L 506.509461 31.739613 
L 510.637132 26.46358 
L 512.013022 31.739613 
L 513.388913 33.247051 
L 514.764803 33.247051 
L 516.140693 30.985894 
L 520.268365 30.985894 
L 523.020146 29.478456 
L 524.396036 30.985894 
L 525.771926 28.724737 
L 529.899598 31.739613 
L 531.275488 30.985894 
L 532.651378 29.478456 
L 534.027269 30.985894 
L 535.403159 27.971018 
L 539.53083 29.478456 
L 540.906721 30.232175 
L 542.282611 28.724737 
L 543.658502 27.971018 
L 545.034392 28.724737 
L 549.162063 27.971018 
L 550.537954 29.478456 
L 551.913844 30.232175 
L 553.289735 33.247051 
L 554.665625 33.247051 
L 554.665625 33.247051 
" clip-path="url(#p9ec95712c8)" style="fill: none; stroke: #444444; stroke-width: 1.5; stroke-linecap: square"/>
    <defs>
     <path id="m61debb590f" d="M 0 1 
C 0.265203 1 0.51958 0.894634 0.707107 0.707107 
C 0.894634 0.51958 1 0.265203 1 0 
C 1 -0.265203 0.894634 -0.51958 0.707107 -0.707107 
C 0.51958 -0.894634 0.265203 -1 0 -1 
C -0.265203 -1 -0.51958 -0.894634 -0.707107 -0.707107 
C -0.894634 -0.51958 -1 -0.265203 -1 0 
C -1 0.265203 -0.894634 0.51958 -0.707107 0.707107 
C -0.51958 0.894634 -0.265203 1 0 1 
z
" style="stroke: #444444"/>
    </defs>
    <g clip-path="url(#p9ec95712c8)">
     <use xlink:href="#m61debb590f" x="52.465625" y="39.276803" style="fill: #444444; stroke: #444444"/>
     <use xlink:href="#m61debb590f" x="53.841515" y="35.508208" style="fill: #444444; stroke: #444444"/>
     <use xlink:href="#m61debb590f" x="57.969187" y="37.015646" style="fill: #444444; stroke: #444444"/>
     <use xlink:href="#m61debb590f" x="59.345077" y="35.508208" style="fill: #444444; stroke: #444444"/>
     <use xlink:href="#m61debb590f" x="60.720967" y="38.523084" style="fill: #444444; stroke: #444444"/>
     <use xlink:href="#m61debb590f" x="62.096858" y="36.261927" style="fill: #444444; stroke: #444444"/>
     <use xlink:href="#m61debb590f" x="63.472748" y="34.00077" style="fill: #444444; stroke: #444444"/>
     <use xlink:href="#m61debb590f" x="67.60042" y="34.00077" style="fill: #444444; stroke: #444444"/>
     <use xlink:href="#m61debb590f" x="68.97631" y="34.754489" style="fill: #444444; stroke: #444444"/>
     <use xlink:href="#m61debb590f" x="70.3522" y="36.261927" style="fill: #444444; stroke: #444444"/>
     <use xlink:href="#m61debb590f" x="71.728091" y="37.769365" style="fill: #444444; stroke: #444444"/>
     <use xlink:href="#m61debb590f" x="73.103981" y="39.276803" style="fill: #444444; stroke: #444444"/>
     <use xlink:href="#m61debb590f" x="77.231652" y="40.030522" style="fill: #444444; stroke: #444444"/>
     <use xlink:href="#m61debb590f" x="78.607543" y="41.53796" style="fill: #444444; stroke: #444444"/>
     <use xlink:href="#m61debb590f" x="79.983433" y="42.291679" style="fill: #444444; stroke: #444444"/>
     <use xlink:href="#m61debb590f" x="81.359324" y="41.53796" style="fill: #444444; stroke: #444444"/>
     <use xlink:href="#m61debb590f" x="82.735214" y="43.799117" style="fill: #444444; stroke: #444444"/>
     <use xlink:href="#m61debb590f" x="86.862885" y="43.799117" style="fill: #444444; stroke: #444444"/>
     <use xlink:href="#m61debb590f" x="88.238776" y="45.306555" style="fill: #444444; stroke: #444444"/>
     <use xlink:href="#m61debb590f" x="89.614666" y="46.060274" style="fill: #444444; stroke: #444444"/>
     <use xlink:href="#m61debb590f" x="90.990557" y="43.045398" style="fill: #444444; stroke: #444444"/>
     <use xlink:href="#m61debb590f" x="92.366447" y="43.045398" style="fill: #444444; stroke: #444444"/>
     <use xlink:href="#m61debb590f" x="96.494118" y="41.53796" style="fill: #444444; stroke: #444444"/>
     <use xlink:href="#m61debb590f" x="97.870009" y="43.799117" style="fill: #444444; stroke: #444444"/>
     <use xlink:href="#m61debb590f" x="99.245899" y="41.53796" style="fill: #444444; stroke: #444444"/>
     <use xlink:href="#m61debb590f" x="100.621789" y="40.030522" style="fill: #444444; stroke: #444444"/>
     <use xlink:href="#m61debb590f" x="101.99768" y="45.306555" style="fill: #444444; stroke: #444444"/>
     <use xlink:href="#m61debb590f" x="106.125351" y="46.060274" style="fill: #444444; stroke: #444444"/>
     <use xlink:href="#m61debb590f" x="107.501241" y="46.060274" style="fill: #444444; stroke: #444444"/>
     <use xlink:href="#m61debb590f" x="108.877132" y="46.813993" style="fill: #444444; stroke: #444444"/>
     <use xlink:href="#m61debb590f" x="110.253022" y="46.060274" style="fill: #444444; stroke: #444444"/>
     <use xlink:href="#m61debb590f" x="111.628913" y="42.291679" style="fill: #444444; stroke: #444444"/>
     <use xlink:href="#m61debb590f" x="115.756584" y="43.045398" style="fill: #444444; stroke: #444444"/>
     <use xlink:href="#m61debb590f" x="117.132474" y="44.552836" style="fill: #444444; stroke: #444444"/>
     <use xlink:href="#m61debb590f" x="118.508365" y="45.306555" style="fill: #444444; stroke: #444444"/>
     <use xlink:href="#m61debb590f" x="119.884255" y="43.045398" style="fill: #444444; stroke: #444444"/>
     <use xlink:href="#m61debb590f" x="121.260146" y="43.799117" style="fill: #444444; stroke: #444444"/>
     <use xlink:href="#m61debb590f" x="125.387817" y="45.306555" style="fill: #444444; stroke: #444444"/>
     <use xlink:href="#m61debb590f" x="126.763707" y="44.552836" style="fill: #444444; stroke: #444444"/>
     <use xlink:href="#m61debb590f" x="128.139598" y="45.306555" style="fill: #444444; stroke: #444444"/>
     <use xlink:href="#m61debb590f" x="129.515488" y="45.306555" style="fill: #444444; stroke: #444444"/>
     <use xlink:href="#m61debb590f" x="130.891378" y="46.813993" style="fill: #444444; stroke: #444444"/>
     <use xlink:href="#m61debb590f" x="135.01905" y="48.321431" style="fill: #444444; stroke: #444444"/>
     <use xlink:href="#m61debb590f" x="136.39494" y="48.321431" style="fill: #444444; stroke: #444444"/>
     <use xlink:href="#m61debb590f" x="137.77083" y="49.828869" style="fill: #444444; stroke: #444444"/>
     <use xlink:href="#m61debb590f" x="139.146721" y="49.07515" style="fill: #444444; stroke: #444444"/>
     <use xlink:href="#m61debb590f" x="140.522611" y="45.306555" style="fill: #444444; stroke: #444444"/>
     <use xlink:href="#m61debb590f" x="144.650283" y="45.306555" style="fill: #444444; stroke: #444444"/>
     <use xlink:href="#m61debb590f" x="146.026173" y="46.060274" style="fill: #444444; stroke: #444444"/>
     <use xlink:href="#m61debb590f" x="147.402063" y="46.813993" style="fill: #444444; stroke: #444444"/>
     <use xlink:href="#m61debb590f" x="148.777954" y="47.567712" style="fill: #444444; stroke: #444444"/>
     <use xlink:href="#m61debb590f" x="150.153844" y="46.813993" style="fill: #444444; stroke: #444444"/>
     <use xlink:href="#m61debb590f" x="154.281515" y="46.060274" style="fill: #444444; stroke: #444444"/>
     <use xlink:href="#m61debb590f" x="155.657406" y="44.552836" style="fill: #444444; stroke: #444444"/>
     <use xlink:href="#m61debb590f" x="157.033296" y="43.799117" style="fill: #444444; stroke: #444444"/>
     <use xlink:href="#m61debb590f" x="158.409187" y="45.306555" style="fill: #444444; stroke: #444444"/>
     <use xlink:href="#m61debb590f" x="159.785077" y="43.045398" style="fill: #444444; stroke: #444444"/>
     <use xlink:href="#m61debb590f" x="163.912748" y="43.045398" style="fill: #444444; stroke: #444444"/>
     <use xlink:href="#m61debb590f" x="165.288639" y="43.045398" style="fill: #444444; stroke: #444444"/>
     <use xlink:href="#m61debb590f" x="166.664529" y="43.045398" style="fill: #444444; stroke: #444444"/>
     <use xlink:href="#m61debb590f" x="168.04042" y="40.030522" style="fill: #444444; stroke: #444444"/>
     <use xlink:href="#m61debb590f" x="169.41631" y="38.523084" style="fill: #444444; stroke: #444444"/>
     <use xlink:href="#m61debb590f" x="173.543981" y="37.015646" style="fill: #444444; stroke: #444444"/>
     <use xlink:href="#m61debb590f" x="174.919872" y="39.276803" style="fill: #444444; stroke: #444444"/>
     <use xlink:href="#m61debb590f" x="176.295762" y="37.015646" style="fill: #444444; stroke: #444444"/>
     <use xlink:href="#m61debb590f" x="177.671652" y="37.015646" style="fill: #444444; stroke: #444444"/>
     <use xlink:href="#m61debb590f" x="179.047543" y="36.261927" style="fill: #444444; stroke: #444444"/>
     <use xlink:href="#m61debb590f" x="183.175214" y="35.508208" style="fill: #444444; stroke: #444444"/>
     <use xlink:href="#m61debb590f" x="184.551104" y="34.754489" style="fill: #444444; stroke: #444444"/>
     <use xlink:href="#m61debb590f" x="185.926995" y="39.276803" style="fill: #444444; stroke: #444444"/>
     <use xlink:href="#m61debb590f" x="187.302885" y="40.030522" style="fill: #444444; stroke: #444444"/>
     <use xlink:href="#m61debb590f" x="188.678776" y="38.523084" style="fill: #444444; stroke: #444444"/>
     <use xlink:href="#m61debb590f" x="192.806447" y="36.261927" style="fill: #444444; stroke: #444444"/>
     <use xlink:href="#m61debb590f" x="194.182337" y="37.769365" style="fill: #444444; stroke: #444444"/>
     <use xlink:href="#m61debb590f" x="195.558228" y="38.523084" style="fill: #444444; stroke: #444444"/>
     <use xlink:href="#m61debb590f" x="196.934118" y="38.523084" style="fill: #444444; stroke: #444444"/>
     <use xlink:href="#m61debb590f" x="198.310009" y="43.799117" style="fill: #444444; stroke: #444444"/>
     <use xlink:href="#m61debb590f" x="202.43768" y="43.799117" style="fill: #444444; stroke: #444444"/>
     <use xlink:href="#m61debb590f" x="203.81357" y="42.291679" style="fill: #444444; stroke: #444444"/>
     <use xlink:href="#m61debb590f" x="205.189461" y="39.276803" style="fill: #444444; stroke: #444444"/>
     <use xlink:href="#m61debb590f" x="206.565351" y="40.784241" style="fill: #444444; stroke: #444444"/>
     <use xlink:href="#m61debb590f" x="207.941241" y="39.276803" style="fill: #444444; stroke: #444444"/>
     <use xlink:href="#m61debb590f" x="212.068913" y="37.769365" style="fill: #444444; stroke: #444444"/>
     <use xlink:href="#m61debb590f" x="213.444803" y="41.53796" style="fill: #444444; stroke: #444444"/>
     <use xlink:href="#m61debb590f" x="214.820693" y="41.53796" style="fill: #444444; stroke: #444444"/>
     <use xlink:href="#m61debb590f" x="216.196584" y="40.030522" style="fill: #444444; stroke: #444444"/>
     <use xlink:href="#m61debb590f" x="217.572474" y="38.523084" style="fill: #444444; stroke: #444444"/>
     <use xlink:href="#m61debb590f" x="221.700146" y="37.015646" style="fill: #444444; stroke: #444444"/>
     <use xlink:href="#m61debb590f" x="223.076036" y="37.769365" style="fill: #444444; stroke: #444444"/>
     <use xlink:href="#m61debb590f" x="224.451926" y="39.276803" style="fill: #444444; stroke: #444444"/>
     <use xlink:href="#m61debb590f" x="225.827817" y="35.508208" style="fill: #444444; stroke: #444444"/>
     <use xlink:href="#m61debb590f" x="227.203707" y="34.754489" style="fill: #444444; stroke: #444444"/>
     <use xlink:href="#m61debb590f" x="231.331378" y="35.508208" style="fill: #444444; stroke: #444444"/>
     <use xlink:href="#m61debb590f" x="232.707269" y="37.769365" style="fill: #444444; stroke: #444444"/>
     <use xlink:href="#m61debb590f" x="234.083159" y="33.247051" style="fill: #444444; stroke: #444444"/>
     <use xlink:href="#m61debb590f" x="235.45905" y="33.247051" style="fill: #444444; stroke: #444444"/>
     <use xlink:href="#m61debb590f" x="236.83494" y="38.523084" style="fill: #444444; stroke: #444444"/>
     <use xlink:href="#m61debb590f" x="240.962611" y="37.015646" style="fill: #444444; stroke: #444444"/>
     <use xlink:href="#m61debb590f" x="242.338502" y="37.015646" style="fill: #444444; stroke: #444444"/>
     <use xlink:href="#m61debb590f" x="243.714392" y="38.523084" style="fill: #444444; stroke: #444444"/>
     <use xlink:href="#m61debb590f" x="245.090283" y="39.276803" style="fill: #444444; stroke: #444444"/>
     <use xlink:href="#m61debb590f" x="246.466173" y="40.030522" style="fill: #444444; stroke: #444444"/>
     <use xlink:href="#m61debb590f" x="250.593844" y="41.53796" style="fill: #444444; stroke: #444444"/>
     <use xlink:href="#m61debb590f" x="251.969735" y="43.799117" style="fill: #444444; stroke: #444444"/>
     <use xlink:href="#m61debb590f" x="253.345625" y="43.045398" style="fill: #444444; stroke: #444444"/>
     <use xlink:href="#m61debb590f" x="254.721515" y="43.045398" style="fill: #444444; stroke: #444444"/>
     <use xlink:href="#m61debb590f" x="256.097406" y="44.552836" style="fill: #444444; stroke: #444444"/>
     <use xlink:href="#m61debb590f" x="260.225077" y="44.552836" style="fill: #444444; stroke: #444444"/>
     <use xlink:href="#m61debb590f" x="261.600967" y="44.552836" style="fill: #444444; stroke: #444444"/>
     <use xlink:href="#m61debb590f" x="262.976858" y="43.799117" style="fill: #444444; stroke: #444444"/>
     <use xlink:href="#m61debb590f" x="264.352748" y="43.045398" style="fill: #444444; stroke: #444444"/>
     <use xlink:href="#m61debb590f" x="265.728639" y="43.045398" style="fill: #444444; stroke: #444444"/>
     <use xlink:href="#m61debb590f" x="269.85631" y="45.306555" style="fill: #444444; stroke: #444444"/>
     <use xlink:href="#m61debb590f" x="271.2322" y="45.306555" style="fill: #444444; stroke: #444444"/>
     <use xlink:href="#m61debb590f" x="272.608091" y="46.060274" style="fill: #444444; stroke: #444444"/>
     <use xlink:href="#m61debb590f" x="273.983981" y="45.306555" style="fill: #444444; stroke: #444444"/>
     <use xlink:href="#m61debb590f" x="275.359872" y="55.104902" style="fill: #444444; stroke: #444444"/>
     <use xlink:href="#m61debb590f" x="279.487543" y="52.843745" style="fill: #444444; stroke: #444444"/>
     <use xlink:href="#m61debb590f" x="280.863433" y="55.104902" style="fill: #444444; stroke: #444444"/>
     <use xlink:href="#m61debb590f" x="282.239324" y="55.858621" style="fill: #444444; stroke: #444444"/>
     <use xlink:href="#m61debb590f" x="283.615214" y="55.104902" style="fill: #444444; stroke: #444444"/>
     <use xlink:href="#m61debb590f" x="284.991104" y="52.843745" style="fill: #444444; stroke: #444444"/>
     <use xlink:href="#m61debb590f" x="289.118776" y="51.336307" style="fill: #444444; stroke: #444444"/>
     <use xlink:href="#m61debb590f" x="290.494666" y="52.843745" style="fill: #444444; stroke: #444444"/>
     <use xlink:href="#m61debb590f" x="291.870557" y="53.597464" style="fill: #444444; stroke: #444444"/>
     <use xlink:href="#m61debb590f" x="293.246447" y="55.104902" style="fill: #444444; stroke: #444444"/>
     <use xlink:href="#m61debb590f" x="294.622337" y="57.366059" style="fill: #444444; stroke: #444444"/>
     <use xlink:href="#m61debb590f" x="298.750009" y="55.858621" style="fill: #444444; stroke: #444444"/>
     <use xlink:href="#m61debb590f" x="300.125899" y="52.090026" style="fill: #444444; stroke: #444444"/>
     <use xlink:href="#m61debb590f" x="301.501789" y="52.843745" style="fill: #444444; stroke: #444444"/>
     <use xlink:href="#m61debb590f" x="302.87768" y="52.843745" style="fill: #444444; stroke: #444444"/>
     <use xlink:href="#m61debb590f" x="304.25357" y="53.597464" style="fill: #444444; stroke: #444444"/>
     <use xlink:href="#m61debb590f" x="308.381241" y="54.351183" style="fill: #444444; stroke: #444444"/>
     <use xlink:href="#m61debb590f" x="309.757132" y="54.351183" style="fill: #444444; stroke: #444444"/>
     <use xlink:href="#m61debb590f" x="311.133022" y="52.090026" style="fill: #444444; stroke: #444444"/>
     <use xlink:href="#m61debb590f" x="312.508913" y="52.090026" style="fill: #444444; stroke: #444444"/>
     <use xlink:href="#m61debb590f" x="313.884803" y="55.104902" style="fill: #444444; stroke: #444444"/>
     <use xlink:href="#m61debb590f" x="318.012474" y="52.843745" style="fill: #444444; stroke: #444444"/>
     <use xlink:href="#m61debb590f" x="319.388365" y="52.843745" style="fill: #444444; stroke: #444444"/>
     <use xlink:href="#m61debb590f" x="320.764255" y="52.090026" style="fill: #444444; stroke: #444444"/>
     <use xlink:href="#m61debb590f" x="322.140146" y="49.828869" style="fill: #444444; stroke: #444444"/>
     <use xlink:href="#m61debb590f" x="323.516036" y="49.07515" style="fill: #444444; stroke: #444444"/>
     <use xlink:href="#m61debb590f" x="327.643707" y="49.828869" style="fill: #444444; stroke: #444444"/>
     <use xlink:href="#m61debb590f" x="329.019598" y="51.336307" style="fill: #444444; stroke: #444444"/>
     <use xlink:href="#m61debb590f" x="330.395488" y="49.828869" style="fill: #444444; stroke: #444444"/>
     <use xlink:href="#m61debb590f" x="331.771378" y="47.567712" style="fill: #444444; stroke: #444444"/>
     <use xlink:href="#m61debb590f" x="333.147269" y="43.799117" style="fill: #444444; stroke: #444444"/>
     <use xlink:href="#m61debb590f" x="337.27494" y="45.306555" style="fill: #444444; stroke: #444444"/>
     <use xlink:href="#m61debb590f" x="338.65083" y="43.045398" style="fill: #444444; stroke: #444444"/>
     <use xlink:href="#m61debb590f" x="340.026721" y="46.060274" style="fill: #444444; stroke: #444444"/>
     <use xlink:href="#m61debb590f" x="341.402611" y="44.552836" style="fill: #444444; stroke: #444444"/>
     <use xlink:href="#m61debb590f" x="342.778502" y="46.813993" style="fill: #444444; stroke: #444444"/>
     <use xlink:href="#m61debb590f" x="346.906173" y="45.306555" style="fill: #444444; stroke: #444444"/>
     <use xlink:href="#m61debb590f" x="348.282063" y="46.813993" style="fill: #444444; stroke: #444444"/>
     <use xlink:href="#m61debb590f" x="349.657954" y="46.060274" style="fill: #444444; stroke: #444444"/>
     <use xlink:href="#m61debb590f" x="351.033844" y="46.813993" style="fill: #444444; stroke: #444444"/>
     <use xlink:href="#m61debb590f" x="352.409735" y="46.060274" style="fill: #444444; stroke: #444444"/>
     <use xlink:href="#m61debb590f" x="356.537406" y="44.552836" style="fill: #444444; stroke: #444444"/>
     <use xlink:href="#m61debb590f" x="357.913296" y="46.060274" style="fill: #444444; stroke: #444444"/>
     <use xlink:href="#m61debb590f" x="359.289187" y="44.552836" style="fill: #444444; stroke: #444444"/>
     <use xlink:href="#m61debb590f" x="360.665077" y="48.321431" style="fill: #444444; stroke: #444444"/>
     <use xlink:href="#m61debb590f" x="362.040967" y="47.567712" style="fill: #444444; stroke: #444444"/>
     <use xlink:href="#m61debb590f" x="366.168639" y="46.813993" style="fill: #444444; stroke: #444444"/>
     <use xlink:href="#m61debb590f" x="367.544529" y="49.07515" style="fill: #444444; stroke: #444444"/>
     <use xlink:href="#m61debb590f" x="368.92042" y="46.060274" style="fill: #444444; stroke: #444444"/>
     <use xlink:href="#m61debb590f" x="370.29631" y="48.321431" style="fill: #444444; stroke: #444444"/>
     <use xlink:href="#m61debb590f" x="371.6722" y="49.828869" style="fill: #444444; stroke: #444444"/>
     <use xlink:href="#m61debb590f" x="375.799872" y="49.828869" style="fill: #444444; stroke: #444444"/>
     <use xlink:href="#m61debb590f" x="377.175762" y="47.567712" style="fill: #444444; stroke: #444444"/>
     <use xlink:href="#m61debb590f" x="378.551652" y="44.552836" style="fill: #444444; stroke: #444444"/>
     <use xlink:href="#m61debb590f" x="379.927543" y="44.552836" style="fill: #444444; stroke: #444444"/>
     <use xlink:href="#m61debb590f" x="381.303433" y="44.552836" style="fill: #444444; stroke: #444444"/>
     <use xlink:href="#m61debb590f" x="385.431104" y="45.306555" style="fill: #444444; stroke: #444444"/>
     <use xlink:href="#m61debb590f" x="386.806995" y="44.552836" style="fill: #444444; stroke: #444444"/>
     <use xlink:href="#m61debb590f" x="388.182885" y="45.306555" style="fill: #444444; stroke: #444444"/>
     <use xlink:href="#m61debb590f" x="389.558776" y="45.306555" style="fill: #444444; stroke: #444444"/>
     <use xlink:href="#m61debb590f" x="390.934666" y="46.060274" style="fill: #444444; stroke: #444444"/>
     <use xlink:href="#m61debb590f" x="395.062337" y="46.813993" style="fill: #444444; stroke: #444444"/>
     <use xlink:href="#m61debb590f" x="396.438228" y="47.567712" style="fill: #444444; stroke: #444444"/>
     <use xlink:href="#m61debb590f" x="397.814118" y="46.813993" style="fill: #444444; stroke: #444444"/>
     <use xlink:href="#m61debb590f" x="399.190009" y="49.828869" style="fill: #444444; stroke: #444444"/>
     <use xlink:href="#m61debb590f" x="400.565899" y="52.843745" style="fill: #444444; stroke: #444444"/>
     <use xlink:href="#m61debb590f" x="404.69357" y="52.090026" style="fill: #444444; stroke: #444444"/>
     <use xlink:href="#m61debb590f" x="406.069461" y="52.090026" style="fill: #444444; stroke: #444444"/>
     <use xlink:href="#m61debb590f" x="407.445351" y="54.351183" style="fill: #444444; stroke: #444444"/>
     <use xlink:href="#m61debb590f" x="408.821241" y="52.843745" style="fill: #444444; stroke: #444444"/>
     <use xlink:href="#m61debb590f" x="410.197132" y="51.336307" style="fill: #444444; stroke: #444444"/>
     <use xlink:href="#m61debb590f" x="414.324803" y="49.07515" style="fill: #444444; stroke: #444444"/>
     <use xlink:href="#m61debb590f" x="415.700693" y="48.321431" style="fill: #444444; stroke: #444444"/>
     <use xlink:href="#m61debb590f" x="417.076584" y="48.321431" style="fill: #444444; stroke: #444444"/>
     <use xlink:href="#m61debb590f" x="418.452474" y="48.321431" style="fill: #444444; stroke: #444444"/>
     <use xlink:href="#m61debb590f" x="419.828365" y="46.813993" style="fill: #444444; stroke: #444444"/>
     <use xlink:href="#m61debb590f" x="423.956036" y="48.321431" style="fill: #444444; stroke: #444444"/>
     <use xlink:href="#m61debb590f" x="425.331926" y="49.07515" style="fill: #444444; stroke: #444444"/>
     <use xlink:href="#m61debb590f" x="426.707817" y="44.552836" style="fill: #444444; stroke: #444444"/>
     <use xlink:href="#m61debb590f" x="428.083707" y="45.306555" style="fill: #444444; stroke: #444444"/>
     <use xlink:href="#m61debb590f" x="429.459598" y="44.552836" style="fill: #444444; stroke: #444444"/>
     <use xlink:href="#m61debb590f" x="433.587269" y="46.060274" style="fill: #444444; stroke: #444444"/>
     <use xlink:href="#m61debb590f" x="434.963159" y="46.060274" style="fill: #444444; stroke: #444444"/>
     <use xlink:href="#m61debb590f" x="436.33905" y="46.813993" style="fill: #444444; stroke: #444444"/>
     <use xlink:href="#m61debb590f" x="437.71494" y="47.567712" style="fill: #444444; stroke: #444444"/>
     <use xlink:href="#m61debb590f" x="439.09083" y="44.552836" style="fill: #444444; stroke: #444444"/>
     <use xlink:href="#m61debb590f" x="443.218502" y="43.799117" style="fill: #444444; stroke: #444444"/>
     <use xlink:href="#m61debb590f" x="444.594392" y="46.060274" style="fill: #444444; stroke: #444444"/>
     <use xlink:href="#m61debb590f" x="445.970283" y="45.306555" style="fill: #444444; stroke: #444444"/>
     <use xlink:href="#m61debb590f" x="447.346173" y="46.813993" style="fill: #444444; stroke: #444444"/>
     <use xlink:href="#m61debb590f" x="448.722063" y="46.060274" style="fill: #444444; stroke: #444444"/>
     <use xlink:href="#m61debb590f" x="452.849735" y="46.060274" style="fill: #444444; stroke: #444444"/>
     <use xlink:href="#m61debb590f" x="454.225625" y="46.813993" style="fill: #444444; stroke: #444444"/>
     <use xlink:href="#m61debb590f" x="455.601515" y="47.567712" style="fill: #444444; stroke: #444444"/>
     <use xlink:href="#m61debb590f" x="456.977406" y="47.567712" style="fill: #444444; stroke: #444444"/>
     <use xlink:href="#m61debb590f" x="458.353296" y="47.567712" style="fill: #444444; stroke: #444444"/>
     <use xlink:href="#m61debb590f" x="462.480967" y="47.567712" style="fill: #444444; stroke: #444444"/>
     <use xlink:href="#m61debb590f" x="463.856858" y="49.07515" style="fill: #444444; stroke: #444444"/>
     <use xlink:href="#m61debb590f" x="465.232748" y="47.567712" style="fill: #444444; stroke: #444444"/>
     <use xlink:href="#m61debb590f" x="466.608639" y="44.552836" style="fill: #444444; stroke: #444444"/>
     <use xlink:href="#m61debb590f" x="467.984529" y="45.306555" style="fill: #444444; stroke: #444444"/>
     <use xlink:href="#m61debb590f" x="472.1122" y="45.306555" style="fill: #444444; stroke: #444444"/>
     <use xlink:href="#m61debb590f" x="473.488091" y="45.306555" style="fill: #444444; stroke: #444444"/>
     <use xlink:href="#m61debb590f" x="474.863981" y="47.567712" style="fill: #444444; stroke: #444444"/>
     <use xlink:href="#m61debb590f" x="476.239872" y="46.060274" style="fill: #444444; stroke: #444444"/>
     <use xlink:href="#m61debb590f" x="477.615762" y="44.552836" style="fill: #444444; stroke: #444444"/>
     <use xlink:href="#m61debb590f" x="481.743433" y="46.813993" style="fill: #444444; stroke: #444444"/>
     <use xlink:href="#m61debb590f" x="483.119324" y="46.813993" style="fill: #444444; stroke: #444444"/>
     <use xlink:href="#m61debb590f" x="484.495214" y="45.306555" style="fill: #444444; stroke: #444444"/>
     <use xlink:href="#m61debb590f" x="485.871104" y="43.045398" style="fill: #444444; stroke: #444444"/>
     <use xlink:href="#m61debb590f" x="487.246995" y="40.784241" style="fill: #444444; stroke: #444444"/>
     <use xlink:href="#m61debb590f" x="491.374666" y="43.045398" style="fill: #444444; stroke: #444444"/>
     <use xlink:href="#m61debb590f" x="492.750557" y="43.799117" style="fill: #444444; stroke: #444444"/>
     <use xlink:href="#m61debb590f" x="494.126447" y="43.045398" style="fill: #444444; stroke: #444444"/>
     <use xlink:href="#m61debb590f" x="495.502337" y="40.784241" style="fill: #444444; stroke: #444444"/>
     <use xlink:href="#m61debb590f" x="496.878228" y="42.291679" style="fill: #444444; stroke: #444444"/>
     <use xlink:href="#m61debb590f" x="501.005899" y="40.784241" style="fill: #444444; stroke: #444444"/>
     <use xlink:href="#m61debb590f" x="502.381789" y="36.261927" style="fill: #444444; stroke: #444444"/>
     <use xlink:href="#m61debb590f" x="503.75768" y="34.754489" style="fill: #444444; stroke: #444444"/>
     <use xlink:href="#m61debb590f" x="505.13357" y="31.739613" style="fill: #444444; stroke: #444444"/>
     <use xlink:href="#m61debb590f" x="506.509461" y="31.739613" style="fill: #444444; stroke: #444444"/>
     <use xlink:href="#m61debb590f" x="510.637132" y="26.46358" style="fill: #444444; stroke: #444444"/>
     <use xlink:href="#m61debb590f" x="512.013022" y="31.739613" style="fill: #444444; stroke: #444444"/>
     <use xlink:href="#m61debb590f" x="513.388913" y="33.247051" style="fill: #444444; stroke: #444444"/>
     <use xlink:href="#m61debb590f" x="514.764803" y="33.247051" style="fill: #444444; stroke: #444444"/>
     <use xlink:href="#m61debb590f" x="516.140693" y="30.985894" style="fill: #444444; stroke: #444444"/>
     <use xlink:href="#m61debb590f" x="520.268365" y="30.985894" style="fill: #444444; stroke: #444444"/>
     <use xlink:href="#m61debb590f" x="521.644255" y="30.232175" style="fill: #444444; stroke: #444444"/>
     <use xlink:href="#m61debb590f" x="523.020146" y="29.478456" style="fill: #444444; stroke: #444444"/>
     <use xlink:href="#m61debb590f" x="524.396036" y="30.985894" style="fill: #444444; stroke: #444444"/>
     <use xlink:href="#m61debb590f" x="525.771926" y="28.724737" style="fill: #444444; stroke: #444444"/>
     <use xlink:href="#m61debb590f" x="529.899598" y="31.739613" style="fill: #444444; stroke: #444444"/>
     <use xlink:href="#m61debb590f" x="531.275488" y="30.985894" style="fill: #444444; stroke: #444444"/>
     <use xlink:href="#m61debb590f" x="532.651378" y="29.478456" style="fill: #444444; stroke: #444444"/>
     <use xlink:href="#m61debb590f" x="534.027269" y="30.985894" style="fill: #444444; stroke: #444444"/>
     <use xlink:href="#m61debb590f" x="535.403159" y="27.971018" style="fill: #444444; stroke: #444444"/>
     <use xlink:href="#m61debb590f" x="539.53083" y="29.478456" style="fill: #444444; stroke: #444444"/>
     <use xlink:href="#m61debb590f" x="540.906721" y="30.232175" style="fill: #444444; stroke: #444444"/>
     <use xlink:href="#m61debb590f" x="542.282611" y="28.724737" style="fill: #444444; stroke: #444444"/>
     <use xlink:href="#m61debb590f" x="543.658502" y="27.971018" style="fill: #444444; stroke: #444444"/>
     <use xlink:href="#m61debb590f" x="545.034392" y="28.724737" style="fill: #444444; stroke: #444444"/>
     <use xlink:href="#m61debb590f" x="549.162063" y="27.971018" style="fill: #444444; stroke: #444444"/>
     <use xlink:href="#m61debb590f" x="550.537954" y="29.478456" style="fill: #444444; stroke: #444444"/>
     <use xlink:href="#m61debb590f" x="551.913844" y="30.232175" style="fill: #444444; stroke: #444444"/>
     <use xlink:href="#m61debb590f" x="553.289735" y="33.247051" style="fill: #444444; stroke: #444444"/>
     <use xlink:href="#m61debb590f" x="554.665625" y="33.247051" style="fill: #444444; stroke: #444444"/>
    </g>
   </g>
   <g id="line2d_32">
    <path d="M 52.465625 109.37267 
L 554.665625 109.37267 
" clip-path="url(#p9ec95712c8)" style="fill: none; stroke: #000000; stroke-linecap: square"/>
   </g>
   <g id="patch_3">
    <path d="M 52.465625 113.518125 
L 52.465625 22.318125 
" style="fill: none; stroke: #000000; stroke-width: 0.8; stroke-linejoin: miter; stroke-linecap: square"/>
   </g>
   <g id="patch_4">
    <path d="M 554.665625 113.518125 
L 554.665625 22.318125 
" style="fill: none; stroke: #000000; stroke-width: 0.8; stroke-linejoin: miter; stroke-linecap: square"/>
   </g>
   <g id="patch_5">
    <path d="M 52.465625 113.518125 
L 554.665625 113.518125 
" style="fill: none; stroke: #000000; stroke-width: 0.8; stroke-linejoin: miter; stroke-linecap: square"/>
   </g>
   <g id="patch_6">
    <path d="M 52.465625 22.318125 
L 554.665625 22.318125 
" style="fill: none; stroke: #000000; stroke-width: 0.8; stroke-linejoin: miter; stroke-linecap: square"/>
   </g>
   <g id="text_17">
    <!-- UST10 – GoC10 Spread (bp) -->
    <g transform="translate(219.862813 16.318125) scale(0.12 -0.12)">
     <defs>
      <path id="DejaVuSans-38" d="M 556 4666 
L 1191 4666 
L 1191 1831 
Q 1191 1081 1462 751 
Q 1734 422 2344 422 
Q 2950 422 3222 751 
Q 3494 1081 3494 1831 
L 3494 4666 
L 4128 4666 
L 4128 1753 
Q 4128 841 3676 375 
Q 3225 -91 2344 -91 
Q 1459 -91 1007 375 
Q 556 841 556 1753 
L 556 4666 
z
" transform="scale(0.015625)"/>
      <path id="DejaVuSans-36" d="M 3425 4513 
L 3425 3897 
Q 3066 4069 2747 4153 
Q 2428 4238 2131 4238 
Q 1616 4238 1336 4038 
Q 1056 3838 1056 3469 
Q 1056 3159 1242 3001 
Q 1428 2844 1947 2747 
L 2328 2669 
Q 3034 2534 3370 2195 
Q 3706 1856 3706 1288 
Q 3706 609 3251 259 
Q 2797 -91 1919 -91 
Q 1588 -91 1214 -16 
Q 841 59 441 206 
L 441 856 
Q 825 641 1194 531 
Q 1563 422 1919 422 
Q 2459 422 2753 634 
Q 3047 847 3047 1241 
Q 3047 1584 2836 1778 
Q 2625 1972 2144 2069 
L 1759 2144 
Q 1053 2284 737 2584 
Q 422 2884 422 3419 
Q 422 4038 858 4394 
Q 1294 4750 2059 4750 
Q 2388 4750 2728 4690 
Q 3069 4631 3425 4513 
z
" transform="scale(0.015625)"/>
      <path id="DejaVuSans-37" d="M -19 4666 
L 3928 4666 
L 3928 4134 
L 2272 4134 
L 2272 0 
L 1638 0 
L 1638 4134 
L -19 4134 
L -19 4666 
z
" transform="scale(0.015625)"/>
      <path id="DejaVuSans-3" transform="scale(0.015625)"/>
      <path id="DejaVuSans-af5" d="M 313 1978 
L 2888 1978 
L 2888 1528 
L 313 1528 
L 313 1978 
z
" transform="scale(0.015625)"/>
      <path id="DejaVuSans-2a" d="M 3809 666 
L 3809 1919 
L 2778 1919 
L 2778 2438 
L 4434 2438 
L 4434 434 
Q 4069 175 3628 42 
Q 3188 -91 2688 -91 
Q 1594 -91 976 548 
Q 359 1188 359 2328 
Q 359 3472 976 4111 
Q 1594 4750 2688 4750 
Q 3144 4750 3555 4637 
Q 3966 4525 4313 4306 
L 4313 3634 
Q 3963 3931 3569 4081 
Q 3175 4231 2741 4231 
Q 1884 4231 1454 3753 
Q 1025 3275 1025 2328 
Q 1025 1384 1454 906 
Q 1884 428 2741 428 
Q 3075 428 3337 486 
Q 3600 544 3809 666 
z
" transform="scale(0.015625)"/>
      <path id="DejaVuSans-52" d="M 1959 3097 
Q 1497 3097 1228 2736 
Q 959 2375 959 1747 
Q 959 1119 1226 758 
Q 1494 397 1959 397 
Q 2419 397 2687 759 
Q 2956 1122 2956 1747 
Q 2956 2369 2687 2733 
Q 2419 3097 1959 3097 
z
M 1959 3584 
Q 2709 3584 3137 3096 
Q 3566 2609 3566 1747 
Q 3566 888 3137 398 
Q 2709 -91 1959 -91 
Q 1206 -91 779 398 
Q 353 888 353 1747 
Q 353 2609 779 3096 
Q 1206 3584 1959 3584 
z
" transform="scale(0.015625)"/>
      <path id="DejaVuSans-26" d="M 4122 4306 
L 4122 3641 
Q 3803 3938 3442 4084 
Q 3081 4231 2675 4231 
Q 1875 4231 1450 3742 
Q 1025 3253 1025 2328 
Q 1025 1406 1450 917 
Q 1875 428 2675 428 
Q 3081 428 3442 575 
Q 3803 722 4122 1019 
L 4122 359 
Q 3791 134 3420 21 
Q 3050 -91 2638 -91 
Q 1578 -91 968 557 
Q 359 1206 359 2328 
Q 359 3453 968 4101 
Q 1578 4750 2638 4750 
Q 3056 4750 3426 4639 
Q 3797 4528 4122 4306 
z
" transform="scale(0.015625)"/>
      <path id="DejaVuSans-55" d="M 2631 2963 
Q 2534 3019 2420 3045 
Q 2306 3072 2169 3072 
Q 1681 3072 1420 2755 
Q 1159 2438 1159 1844 
L 1159 0 
L 581 0 
L 581 3500 
L 1159 3500 
L 1159 2956 
Q 1341 3275 1631 3429 
Q 1922 3584 2338 3584 
Q 2397 3584 2469 3576 
Q 2541 3569 2628 3553 
L 2631 2963 
z
" transform="scale(0.015625)"/>
      <path id="DejaVuSans-48" d="M 3597 1894 
L 3597 1613 
L 953 1613 
Q 991 1019 1311 708 
Q 1631 397 2203 397 
Q 2534 397 2845 478 
Q 3156 559 3463 722 
L 3463 178 
Q 3153 47 2828 -22 
Q 2503 -91 2169 -91 
Q 1331 -91 842 396 
Q 353 884 353 1716 
Q 353 2575 817 3079 
Q 1281 3584 2069 3584 
Q 2775 3584 3186 3129 
Q 3597 2675 3597 1894 
z
M 3022 2063 
Q 3016 2534 2758 2815 
Q 2500 3097 2075 3097 
Q 1594 3097 1305 2825 
Q 1016 2553 972 2059 
L 3022 2063 
z
" transform="scale(0.015625)"/>
      <path id="DejaVuSans-44" d="M 2194 1759 
Q 1497 1759 1228 1600 
Q 959 1441 959 1056 
Q 959 750 1161 570 
Q 1363 391 1709 391 
Q 2188 391 2477 730 
Q 2766 1069 2766 1631 
L 2766 1759 
L 2194 1759 
z
M 3341 1997 
L 3341 0 
L 2766 0 
L 2766 531 
Q 2569 213 2275 61 
Q 1981 -91 1556 -91 
Q 1019 -91 701 211 
Q 384 513 384 1019 
Q 384 1609 779 1909 
Q 1175 2209 1959 2209 
L 2766 2209 
L 2766 2266 
Q 2766 2663 2505 2880 
Q 2244 3097 1772 3097 
Q 1472 3097 1187 3025 
Q 903 2953 641 2809 
L 641 3341 
Q 956 3463 1253 3523 
Q 1550 3584 1831 3584 
Q 2591 3584 2966 3190 
Q 3341 2797 3341 1997 
z
" transform="scale(0.015625)"/>
      <path id="DejaVuSans-47" d="M 2906 2969 
L 2906 4863 
L 3481 4863 
L 3481 0 
L 2906 0 
L 2906 525 
Q 2725 213 2448 61 
Q 2172 -91 1784 -91 
Q 1150 -91 751 415 
Q 353 922 353 1747 
Q 353 2572 751 3078 
Q 1150 3584 1784 3584 
Q 2172 3584 2448 3432 
Q 2725 3281 2906 2969 
z
M 947 1747 
Q 947 1113 1208 752 
Q 1469 391 1925 391 
Q 2381 391 2643 752 
Q 2906 1113 2906 1747 
Q 2906 2381 2643 2742 
Q 2381 3103 1925 3103 
Q 1469 3103 1208 2742 
Q 947 2381 947 1747 
z
" transform="scale(0.015625)"/>
      <path id="DejaVuSans-b" d="M 1984 4856 
Q 1566 4138 1362 3434 
Q 1159 2731 1159 2009 
Q 1159 1288 1364 580 
Q 1569 -128 1984 -844 
L 1484 -844 
Q 1016 -109 783 600 
Q 550 1309 550 2009 
Q 550 2706 781 3412 
Q 1013 4119 1484 4856 
L 1984 4856 
z
" transform="scale(0.015625)"/>
      <path id="DejaVuSans-c" d="M 513 4856 
L 1013 4856 
Q 1481 4119 1714 3412 
Q 1947 2706 1947 2009 
Q 1947 1309 1714 600 
Q 1481 -109 1013 -844 
L 513 -844 
Q 928 -128 1133 580 
Q 1338 1288 1338 2009 
Q 1338 2731 1133 3434 
Q 928 4138 513 4856 
z
" transform="scale(0.015625)"/>
     </defs>
     <use xlink:href="#DejaVuSans-38"/>
     <use xlink:href="#DejaVuSans-36" transform="translate(73.1875 0)"/>
     <use xlink:href="#DejaVuSans-37" transform="translate(136.671875 0)"/>
     <use xlink:href="#DejaVuSans-14" transform="translate(197.75 0)"/>
     <use xlink:href="#DejaVuSans-13" transform="translate(261.375 0)"/>
     <use xlink:href="#DejaVuSans-3" transform="translate(325 0)"/>
     <use xlink:href="#DejaVuSans-af5" transform="translate(356.78125 0)"/>
     <use xlink:href="#DejaVuSans-3" transform="translate(406.78125 0)"/>
     <use xlink:href="#DejaVuSans-2a" transform="translate(438.5625 0)"/>
     <use xlink:href="#DejaVuSans-52" transform="translate(516.046875 0)"/>
     <use xlink:href="#DejaVuSans-26" transform="translate(577.234375 0)"/>
     <use xlink:href="#DejaVuSans-14" transform="translate(647.0625 0)"/>
     <use xlink:href="#DejaVuSans-13" transform="translate(710.6875 0)"/>
     <use xlink:href="#DejaVuSans-3" transform="translate(774.3125 0)"/>
     <use xlink:href="#DejaVuSans-36" transform="translate(806.09375 0)"/>
     <use xlink:href="#DejaVuSans-53" transform="translate(869.578125 0)"/>
     <use xlink:href="#DejaVuSans-55" transform="translate(933.0625 0)"/>
     <use xlink:href="#DejaVuSans-48" transform="translate(971.96875 0)"/>
     <use xlink:href="#DejaVuSans-44" transform="translate(1033.5 0)"/>
     <use xlink:href="#DejaVuSans-47" transform="translate(1094.78125 0)"/>
     <use xlink:href="#DejaVuSans-3" transform="translate(1158.265625 0)"/>
     <use xlink:href="#DejaVuSans-b" transform="translate(1190.046875 0)"/>
     <use xlink:href="#DejaVuSans-45" transform="translate(1229.0625 0)"/>
     <use xlink:href="#DejaVuSans-53" transform="translate(1292.546875 0)"/>
     <use xlink:href="#DejaVuSans-c" transform="translate(1356.03125 0)"/>
    </g>
   </g>
  </g>
  <g id="axes_2">
   <g id="patch_7">
    <path d="M 52.465625 188.638125 
L 554.665625 188.638125 
L 554.665625 156.718125 
L 52.465625 156.718125 
z
" style="fill: #ffffff"/>
   </g>
   <g id="matplotlib.axis_3">
    <g id="xtick_13">
     <g id="line2d_33">
      <path d="M 59.345077 188.638125 
L 59.345077 156.718125 
" clip-path="url(#p5c65189cbc)" style="fill: none; stroke: #b0b0b0; stroke-opacity: 0.15; stroke-width: 0.8; stroke-linecap: square"/>
     </g>
     <g id="line2d_34">
      <g>
       <use xlink:href="#mdbe7bd6d02" x="59.345077" y="188.638125" style="stroke: #000000; stroke-width: 0.8"/>
      </g>
     </g>
     <g id="text_18">
      <!-- 2025-07 -->
      <g transform="translate(28.101453 230.555389) rotate(-45) scale(0.1 -0.1)">
       <use xlink:href="#DejaVuSans-15"/>
       <use xlink:href="#DejaVuSans-13" transform="translate(63.625 0)"/>
       <use xlink:href="#DejaVuSans-15" transform="translate(127.25 0)"/>
       <use xlink:href="#DejaVuSans-18" transform="translate(190.875 0)"/>
       <use xlink:href="#DejaVuSans-10" transform="translate(254.5 0)"/>
       <use xlink:href="#DejaVuSans-13" transform="translate(290.578125 0)"/>
       <use xlink:href="#DejaVuSans-1a" transform="translate(354.203125 0)"/>
      </g>
     </g>
    </g>
    <g id="xtick_14">
     <g id="line2d_35">
      <path d="M 101.99768 188.638125 
L 101.99768 156.718125 
" clip-path="url(#p5c65189cbc)" style="fill: none; stroke: #b0b0b0; stroke-opacity: 0.15; stroke-width: 0.8; stroke-linecap: square"/>
     </g>
     <g id="line2d_36">
      <g>
       <use xlink:href="#mdbe7bd6d02" x="101.99768" y="188.638125" style="stroke: #000000; stroke-width: 0.8"/>
      </g>
     </g>
     <g id="text_19">
      <!-- 2025-08 -->
      <g transform="translate(70.754056 230.555389) rotate(-45) scale(0.1 -0.1)">
       <use xlink:href="#DejaVuSans-15"/>
       <use xlink:href="#DejaVuSans-13" transform="translate(63.625 0)"/>
       <use xlink:href="#DejaVuSans-15" transform="translate(127.25 0)"/>
       <use xlink:href="#DejaVuSans-18" transform="translate(190.875 0)"/>
       <use xlink:href="#DejaVuSans-10" transform="translate(254.5 0)"/>
       <use xlink:href="#DejaVuSans-13" transform="translate(290.578125 0)"/>
       <use xlink:href="#DejaVuSans-1b" transform="translate(354.203125 0)"/>
      </g>
     </g>
    </g>
    <g id="xtick_15">
     <g id="line2d_37">
      <path d="M 144.650283 188.638125 
L 144.650283 156.718125 
" clip-path="url(#p5c65189cbc)" style="fill: none; stroke: #b0b0b0; stroke-opacity: 0.15; stroke-width: 0.8; stroke-linecap: square"/>
     </g>
     <g id="line2d_38">
      <g>
       <use xlink:href="#mdbe7bd6d02" x="144.650283" y="188.638125" style="stroke: #000000; stroke-width: 0.8"/>
      </g>
     </g>
     <g id="text_20">
      <!-- 2025-09 -->
      <g transform="translate(113.406659 230.555389) rotate(-45) scale(0.1 -0.1)">
       <use xlink:href="#DejaVuSans-15"/>
       <use xlink:href="#DejaVuSans-13" transform="translate(63.625 0)"/>
       <use xlink:href="#DejaVuSans-15" transform="translate(127.25 0)"/>
       <use xlink:href="#DejaVuSans-18" transform="translate(190.875 0)"/>
       <use xlink:href="#DejaVuSans-10" transform="translate(254.5 0)"/>
       <use xlink:href="#DejaVuSans-13" transform="translate(290.578125 0)"/>
       <use xlink:href="#DejaVuSans-1c" transform="translate(354.203125 0)"/>
      </g>
     </g>
    </g>
    <g id="xtick_16">
     <g id="line2d_39">
      <path d="M 185.926995 188.638125 
L 185.926995 156.718125 
" clip-path="url(#p5c65189cbc)" style="fill: none; stroke: #b0b0b0; stroke-opacity: 0.15; stroke-width: 0.8; stroke-linecap: square"/>
     </g>
     <g id="line2d_40">
      <g>
       <use xlink:href="#mdbe7bd6d02" x="185.926995" y="188.638125" style="stroke: #000000; stroke-width: 0.8"/>
      </g>
     </g>
     <g id="text_21">
      <!-- 2025-10 -->
      <g transform="translate(154.683371 230.555389) rotate(-45) scale(0.1 -0.1)">
       <use xlink:href="#DejaVuSans-15"/>
       <use xlink:href="#DejaVuSans-13" transform="translate(63.625 0)"/>
       <use xlink:href="#DejaVuSans-15" transform="translate(127.25 0)"/>
       <use xlink:href="#DejaVuSans-18" transform="translate(190.875 0)"/>
       <use xlink:href="#DejaVuSans-10" transform="translate(254.5 0)"/>
       <use xlink:href="#DejaVuSans-14" transform="translate(290.578125 0)"/>
       <use xlink:href="#DejaVuSans-13" transform="translate(354.203125 0)"/>
      </g>
     </g>
    </g>
    <g id="xtick_17">
     <g id="line2d_41">
      <path d="M 228.579598 188.638125 
L 228.579598 156.718125 
" clip-path="url(#p5c65189cbc)" style="fill: none; stroke: #b0b0b0; stroke-opacity: 0.15; stroke-width: 0.8; stroke-linecap: square"/>
     </g>
     <g id="line2d_42">
      <g>
       <use xlink:href="#mdbe7bd6d02" x="228.579598" y="188.638125" style="stroke: #000000; stroke-width: 0.8"/>
      </g>
     </g>
     <g id="text_22">
      <!-- 2025-11 -->
      <g transform="translate(197.335974 230.555389) rotate(-45) scale(0.1 -0.1)">
       <use xlink:href="#DejaVuSans-15"/>
       <use xlink:href="#DejaVuSans-13" transform="translate(63.625 0)"/>
       <use xlink:href="#DejaVuSans-15" transform="translate(127.25 0)"/>
       <use xlink:href="#DejaVuSans-18" transform="translate(190.875 0)"/>
       <use xlink:href="#DejaVuSans-10" transform="translate(254.5 0)"/>
       <use xlink:href="#DejaVuSans-14" transform="translate(290.578125 0)"/>
       <use xlink:href="#DejaVuSans-14" transform="translate(354.203125 0)"/>
      </g>
     </g>
    </g>
    <g id="xtick_18">
     <g id="line2d_43">
      <path d="M 269.85631 188.638125 
L 269.85631 156.718125 
" clip-path="url(#p5c65189cbc)" style="fill: none; stroke: #b0b0b0; stroke-opacity: 0.15; stroke-width: 0.8; stroke-linecap: square"/>
     </g>
     <g id="line2d_44">
      <g>
       <use xlink:href="#mdbe7bd6d02" x="269.85631" y="188.638125" style="stroke: #000000; stroke-width: 0.8"/>
      </g>
     </g>
     <g id="text_23">
      <!-- 2025-12 -->
      <g transform="translate(238.612686 230.555389) rotate(-45) scale(0.1 -0.1)">
       <use xlink:href="#DejaVuSans-15"/>
       <use xlink:href="#DejaVuSans-13" transform="translate(63.625 0)"/>
       <use xlink:href="#DejaVuSans-15" transform="translate(127.25 0)"/>
       <use xlink:href="#DejaVuSans-18" transform="translate(190.875 0)"/>
       <use xlink:href="#DejaVuSans-10" transform="translate(254.5 0)"/>
       <use xlink:href="#DejaVuSans-14" transform="translate(290.578125 0)"/>
       <use xlink:href="#DejaVuSans-15" transform="translate(354.203125 0)"/>
      </g>
     </g>
    </g>
    <g id="xtick_19">
     <g id="line2d_45">
      <path d="M 312.508913 188.638125 
L 312.508913 156.718125 
" clip-path="url(#p5c65189cbc)" style="fill: none; stroke: #b0b0b0; stroke-opacity: 0.15; stroke-width: 0.8; stroke-linecap: square"/>
     </g>
     <g id="line2d_46">
      <g>
       <use xlink:href="#mdbe7bd6d02" x="312.508913" y="188.638125" style="stroke: #000000; stroke-width: 0.8"/>
      </g>
     </g>
     <g id="text_24">
      <!-- 2026-01 -->
      <g transform="translate(281.265289 230.555389) rotate(-45) scale(0.1 -0.1)">
       <use xlink:href="#DejaVuSans-15"/>
       <use xlink:href="#DejaVuSans-13" transform="translate(63.625 0)"/>
       <use xlink:href="#DejaVuSans-15" transform="translate(127.25 0)"/>
       <use xlink:href="#DejaVuSans-19" transform="translate(190.875 0)"/>
       <use xlink:href="#DejaVuSans-10" transform="translate(254.5 0)"/>
       <use xlink:href="#DejaVuSans-13" transform="translate(290.578125 0)"/>
       <use xlink:href="#DejaVuSans-14" transform="translate(354.203125 0)"/>
      </g>
     </g>
    </g>
    <g id="xtick_20">
     <g id="line2d_47">
      <path d="M 355.161515 188.638125 
L 355.161515 156.718125 
" clip-path="url(#p5c65189cbc)" style="fill: none; stroke: #b0b0b0; stroke-opacity: 0.15; stroke-width: 0.8; stroke-linecap: square"/>
     </g>
     <g id="line2d_48">
      <g>
       <use xlink:href="#mdbe7bd6d02" x="355.161515" y="188.638125" style="stroke: #000000; stroke-width: 0.8"/>
      </g>
     </g>
     <g id="text_25">
      <!-- 2026-02 -->
      <g transform="translate(323.917892 230.555389) rotate(-45) scale(0.1 -0.1)">
       <use xlink:href="#DejaVuSans-15"/>
       <use xlink:href="#DejaVuSans-13" transform="translate(63.625 0)"/>
       <use xlink:href="#DejaVuSans-15" transform="translate(127.25 0)"/>
       <use xlink:href="#DejaVuSans-19" transform="translate(190.875 0)"/>
       <use xlink:href="#DejaVuSans-10" transform="translate(254.5 0)"/>
       <use xlink:href="#DejaVuSans-13" transform="translate(290.578125 0)"/>
       <use xlink:href="#DejaVuSans-15" transform="translate(354.203125 0)"/>
      </g>
     </g>
    </g>
    <g id="xtick_21">
     <g id="line2d_49">
      <path d="M 393.686447 188.638125 
L 393.686447 156.718125 
" clip-path="url(#p5c65189cbc)" style="fill: none; stroke: #b0b0b0; stroke-opacity: 0.15; stroke-width: 0.8; stroke-linecap: square"/>
     </g>
     <g id="line2d_50">
      <g>
       <use xlink:href="#mdbe7bd6d02" x="393.686447" y="188.638125" style="stroke: #000000; stroke-width: 0.8"/>
      </g>
     </g>
     <g id="text_26">
      <!-- 2026-03 -->
      <g transform="translate(362.442823 230.555389) rotate(-45) scale(0.1 -0.1)">
       <use xlink:href="#DejaVuSans-15"/>
       <use xlink:href="#DejaVuSans-13" transform="translate(63.625 0)"/>
       <use xlink:href="#DejaVuSans-15" transform="translate(127.25 0)"/>
       <use xlink:href="#DejaVuSans-19" transform="translate(190.875 0)"/>
       <use xlink:href="#DejaVuSans-10" transform="translate(254.5 0)"/>
       <use xlink:href="#DejaVuSans-13" transform="translate(290.578125 0)"/>
       <use xlink:href="#DejaVuSans-16" transform="translate(354.203125 0)"/>
      </g>
     </g>
    </g>
    <g id="xtick_22">
     <g id="line2d_51">
      <path d="M 436.33905 188.638125 
L 436.33905 156.718125 
" clip-path="url(#p5c65189cbc)" style="fill: none; stroke: #b0b0b0; stroke-opacity: 0.15; stroke-width: 0.8; stroke-linecap: square"/>
     </g>
     <g id="line2d_52">
      <g>
       <use xlink:href="#mdbe7bd6d02" x="436.33905" y="188.638125" style="stroke: #000000; stroke-width: 0.8"/>
      </g>
     </g>
     <g id="text_27">
      <!-- 2026-04 -->
      <g transform="translate(405.095426 230.555389) rotate(-45) scale(0.1 -0.1)">
       <use xlink:href="#DejaVuSans-15"/>
       <use xlink:href="#DejaVuSans-13" transform="translate(63.625 0)"/>
       <use xlink:href="#DejaVuSans-15" transform="translate(127.25 0)"/>
       <use xlink:href="#DejaVuSans-19" transform="translate(190.875 0)"/>
       <use xlink:href="#DejaVuSans-10" transform="translate(254.5 0)"/>
       <use xlink:href="#DejaVuSans-13" transform="translate(290.578125 0)"/>
       <use xlink:href="#DejaVuSans-17" transform="translate(354.203125 0)"/>
      </g>
     </g>
    </g>
    <g id="xtick_23">
     <g id="line2d_53">
      <path d="M 477.615762 188.638125 
L 477.615762 156.718125 
" clip-path="url(#p5c65189cbc)" style="fill: none; stroke: #b0b0b0; stroke-opacity: 0.15; stroke-width: 0.8; stroke-linecap: square"/>
     </g>
     <g id="line2d_54">
      <g>
       <use xlink:href="#mdbe7bd6d02" x="477.615762" y="188.638125" style="stroke: #000000; stroke-width: 0.8"/>
      </g>
     </g>
     <g id="text_28">
      <!-- 2026-05 -->
      <g transform="translate(446.372138 230.555389) rotate(-45) scale(0.1 -0.1)">
       <use xlink:href="#DejaVuSans-15"/>
       <use xlink:href="#DejaVuSans-13" transform="translate(63.625 0)"/>
       <use xlink:href="#DejaVuSans-15" transform="translate(127.25 0)"/>
       <use xlink:href="#DejaVuSans-19" transform="translate(190.875 0)"/>
       <use xlink:href="#DejaVuSans-10" transform="translate(254.5 0)"/>
       <use xlink:href="#DejaVuSans-13" transform="translate(290.578125 0)"/>
       <use xlink:href="#DejaVuSans-18" transform="translate(354.203125 0)"/>
      </g>
     </g>
    </g>
    <g id="xtick_24">
     <g id="line2d_55">
      <path d="M 520.268365 188.638125 
L 520.268365 156.718125 
" clip-path="url(#p5c65189cbc)" style="fill: none; stroke: #b0b0b0; stroke-opacity: 0.15; stroke-width: 0.8; stroke-linecap: square"/>
     </g>
     <g id="line2d_56">
      <g>
       <use xlink:href="#mdbe7bd6d02" x="520.268365" y="188.638125" style="stroke: #000000; stroke-width: 0.8"/>
      </g>
     </g>
     <g id="text_29">
      <!-- 2026-06 -->
      <g transform="translate(489.024741 230.555389) rotate(-45) scale(0.1 -0.1)">
       <use xlink:href="#DejaVuSans-15"/>
       <use xlink:href="#DejaVuSans-13" transform="translate(63.625 0)"/>
       <use xlink:href="#DejaVuSans-15" transform="translate(127.25 0)"/>
       <use xlink:href="#DejaVuSans-19" transform="translate(190.875 0)"/>
       <use xlink:href="#DejaVuSans-10" transform="translate(254.5 0)"/>
       <use xlink:href="#DejaVuSans-13" transform="translate(290.578125 0)"/>
       <use xlink:href="#DejaVuSans-19" transform="translate(354.203125 0)"/>
      </g>
     </g>
    </g>
   </g>
   <g id="matplotlib.axis_4">
    <g id="ytick_4">
     <g id="line2d_57">
      <path d="M 52.465625 188.024279 
L 554.665625 188.024279 
" clip-path="url(#p5c65189cbc)" style="fill: none; stroke: #b0b0b0; stroke-opacity: 0.15; stroke-width: 0.8; stroke-linecap: square"/>
     </g>
     <g id="line2d_58">
      <g>
       <use xlink:href="#mcc6a5d8092" x="52.465625" y="188.024279" style="stroke: #000000; stroke-width: 0.8"/>
      </g>
     </g>
     <g id="text_30">
      <!-- 1.35 -->
      <g transform="translate(23.2 191.823107) scale(0.1 -0.1)">
       <defs>
        <path id="DejaVuSans-11" d="M 684 794 
L 1344 794 
L 1344 0 
L 684 0 
L 684 794 
z
" transform="scale(0.015625)"/>
       </defs>
       <use xlink:href="#DejaVuSans-14"/>
       <use xlink:href="#DejaVuSans-11" transform="translate(63.625 0)"/>
       <use xlink:href="#DejaVuSans-16" transform="translate(95.40625 0)"/>
       <use xlink:href="#DejaVuSans-18" transform="translate(159.03125 0)"/>
      </g>
     </g>
    </g>
    <g id="ytick_5">
     <g id="line2d_59">
      <path d="M 52.465625 164.772531 
L 554.665625 164.772531 
" clip-path="url(#p5c65189cbc)" style="fill: none; stroke: #b0b0b0; stroke-opacity: 0.15; stroke-width: 0.8; stroke-linecap: square"/>
     </g>
     <g id="line2d_60">
      <g>
       <use xlink:href="#mcc6a5d8092" x="52.465625" y="164.772531" style="stroke: #000000; stroke-width: 0.8"/>
      </g>
     </g>
     <g id="text_31">
      <!-- 1.40 -->
      <g transform="translate(23.2 168.571359) scale(0.1 -0.1)">
       <use xlink:href="#DejaVuSans-14"/>
       <use xlink:href="#DejaVuSans-11" transform="translate(63.625 0)"/>
       <use xlink:href="#DejaVuSans-17" transform="translate(95.40625 0)"/>
       <use xlink:href="#DejaVuSans-13" transform="translate(159.03125 0)"/>
      </g>
     </g>
    </g>
    <g id="text_32">
     <!-- USD/CAD -->
     <g transform="translate(16.317188 200.43375) rotate(-90) scale(0.12 -0.12)">
      <defs>
       <path id="DejaVuSans-27" d="M 1259 4147 
L 1259 519 
L 2022 519 
Q 2988 519 3436 956 
Q 3884 1394 3884 2338 
Q 3884 3275 3436 3711 
Q 2988 4147 2022 4147 
L 1259 4147 
z
M 628 4666 
L 1925 4666 
Q 3281 4666 3915 4102 
Q 4550 3538 4550 2338 
Q 4550 1131 3912 565 
Q 3275 0 1925 0 
L 628 0 
L 628 4666 
z
" transform="scale(0.015625)"/>
       <path id="DejaVuSans-12" d="M 1625 4666 
L 2156 4666 
L 531 -594 
L 0 -594 
L 1625 4666 
z
" transform="scale(0.015625)"/>
       <path id="DejaVuSans-24" d="M 2188 4044 
L 1331 1722 
L 3047 1722 
L 2188 4044 
z
M 1831 4666 
L 2547 4666 
L 4325 0 
L 3669 0 
L 3244 1197 
L 1141 1197 
L 716 0 
L 50 0 
L 1831 4666 
z
" transform="scale(0.015625)"/>
      </defs>
      <use xlink:href="#DejaVuSans-38"/>
      <use xlink:href="#DejaVuSans-36" transform="translate(73.1875 0)"/>
      <use xlink:href="#DejaVuSans-27" transform="translate(136.671875 0)"/>
      <use xlink:href="#DejaVuSans-12" transform="translate(213.671875 0)"/>
      <use xlink:href="#DejaVuSans-26" transform="translate(247.359375 0)"/>
      <use xlink:href="#DejaVuSans-24" transform="translate(317.1875 0)"/>
      <use xlink:href="#DejaVuSans-27" transform="translate(385.59375 0)"/>
     </g>
    </g>
   </g>
   <g id="line2d_61">
    <path d="M 52.465625 182.025328 
L 53.841515 180.304698 
L 57.969187 182.443859 
L 59.345077 180.630223 
L 60.720967 182.443859 
L 62.096858 185.280573 
M 67.60042 181.327775 
L 68.97631 180.072181 
L 70.3522 179.002601 
L 71.728091 179.560642 
L 73.103981 179.746656 
L 77.231652 179.002601 
L 78.607543 178.119034 
L 79.983433 178.444559 
L 81.359324 176.444908 
L 82.735214 178.212041 
L 86.862885 179.235118 
L 88.238776 182.676377 
L 89.614666 182.955398 
L 90.990557 181.374279 
L 92.366447 178.072531 
L 96.494118 177.886517 
L 97.870009 175.14281 
L 99.245899 173.422181 
L 100.621789 171.980573 
L 101.99768 175.096307 
L 106.125351 175.235817 
L 107.501241 175.049803 
L 108.877132 176.909943 
L 110.253022 176.444908 
L 111.628913 176.305398 
L 115.756584 174.863789 
L 117.132474 175.840363 
L 118.508365 175.747356 
L 119.884255 173.794209 
L 125.387817 173.375677 
L 126.763707 171.329524 
L 128.139598 170.631971 
L 129.515488 169.42288 
L 130.891378 171.980573 
L 136.39494 173.003649 
L 137.77083 172.910642 
L 139.146721 176.398405 
L 140.522611 177.514489 
M 146.026173 174.817286 
L 147.402063 174.677775 
L 148.777954 172.771132 
L 150.153844 173.003649 
L 154.281515 173.14316 
L 155.657406 172.492111 
L 157.033296 172.07358 
L 158.409187 172.678125 
L 159.785077 171.376027 
L 163.912748 174.21274 
L 165.288639 176.630922 
L 166.664529 175.886866 
L 168.04042 174.259244 
L 169.41631 175.375328 
L 173.543981 173.422181 
L 174.919872 172.492111 
L 176.295762 169.701901 
L 177.671652 168.3533 
L 179.047543 167.283719 
L 183.175214 169.236866 
L 187.302885 165.981622 
L 188.678776 167.283719 
L 192.806447 167.330223 
L 195.558228 166.958195 
L 196.934118 164.353999 
L 198.310009 164.912041 
M 203.81357 162.865887 
L 205.189461 163.237915 
L 206.565351 162.679873 
L 207.941241 162.63337 
L 212.068913 163.423929 
L 213.444803 164.307496 
L 214.820693 165.795608 
L 216.196584 165.191062 
L 217.572474 164.167985 
L 221.700146 165.005048 
L 223.076036 167.702251 
L 224.451926 169.748405 
L 225.827817 165.609594 
L 227.203707 164.307496 
L 231.331378 162.493859 
L 232.707269 161.005747 
L 234.083159 159.750153 
L 235.45905 158.866587 
L 236.83494 161.284768 
L 240.962611 163.423929 
M 243.714392 164.772531 
L 245.090283 164.307496 
L 246.466173 163.70295 
L 250.593844 163.470433 
L 251.969735 164.958545 
L 253.345625 162.493859 
L 254.721515 160.494209 
L 256.097406 160.401202 
L 261.600967 159.424628 
L 262.976858 162.400852 
M 265.728639 165.981622 
L 269.85631 165.609594 
L 271.2322 165.330573 
L 272.608091 167.097705 
L 273.983981 167.609244 
L 275.359872 171.376027 
L 279.487543 171.934069 
L 280.863433 172.585118 
L 282.239324 172.492111 
L 283.615214 175.514838 
L 284.991104 174.863789 
L 289.118776 175.700852 
L 290.494666 176.444908 
L 291.870557 174.491761 
L 293.246447 175.840363 
L 294.622337 175.0033 
L 298.750009 176.677426 
L 300.125899 178.119034 
L 301.501789 180.072181 
M 304.25357 180.490712 
L 308.381241 179.653649 
L 309.757132 179.746656 
L 311.133022 178.165538 
M 313.884803 176.956447 
L 318.012474 176.07288 
L 319.388365 174.584768 
L 322.140146 171.097006 
L 323.516036 169.748405 
L 327.643707 170.538964 
L 329.019598 170.120433 
L 330.395488 170.771482 
L 333.147269 168.49281 
M 338.65083 173.096656 
L 340.026721 173.468684 
L 341.402611 174.119733 
L 342.778502 177.514489 
L 346.906173 179.095608 
L 348.282063 183.466936 
L 349.657954 184.536517 
L 351.033844 187.187216 
L 356.537406 179.79316 
L 357.913296 181.327775 
L 359.289187 180.258195 
L 360.665077 180.118684 
L 362.040967 181.327775 
L 366.168639 184.769034 
L 367.544529 186.489663 
L 368.92042 184.815538 
L 370.29631 182.304349 
L 371.6722 182.536866 
M 377.175762 180.955747 
L 379.927543 178.677076 
L 381.303433 179.281622 
L 385.431104 179.421132 
L 386.806995 178.630573 
L 388.182885 179.421132 
L 389.558776 179.514139 
L 390.934666 181.885817 
L 395.062337 178.491062 
L 396.438228 180.490712 
L 397.814118 180.537216 
L 399.190009 179.049104 
L 400.565899 183.420433 
L 406.069461 185.141062 
L 407.445351 183.234419 
L 408.821241 182.536866 
L 410.197132 177.049454 
L 414.324803 179.514139 
L 415.700693 178.444559 
L 417.076584 178.86309 
L 418.452474 177.747006 
L 419.828365 177.281971 
L 423.956036 177.886517 
L 425.331926 175.747356 
L 426.707817 174.119733 
L 428.083707 171.794559 
L 429.459598 170.35295 
L 433.587269 168.446307 
L 434.963159 166.958195 
L 436.33905 170.585468 
L 437.71494 168.632321 
L 439.09083 167.469733 
L 444.594392 169.190363 
L 445.970283 171.701552 
L 447.346173 173.747705 
L 448.722063 172.771132 
L 452.849735 173.561691 
L 454.225625 176.07288 
L 455.601515 176.86344 
L 456.977406 178.444559 
L 458.353296 180.258195 
L 463.856858 181.420782 
L 465.232748 180.630223 
L 466.608639 179.560642 
L 467.984529 179.886167 
L 472.1122 182.629873 
L 473.488091 180.072181 
L 474.863981 180.072181 
L 476.239872 182.862391 
L 477.615762 184.536517 
L 481.743433 183.001901 
L 483.119324 182.955398 
L 484.495214 182.397356 
L 485.871104 181.699803 
L 487.246995 179.700153 
L 491.374666 180.397705 
L 492.750557 178.165538 
L 494.126447 178.677076 
L 496.878228 176.398405 
L 501.005899 176.770433 
L 502.381789 176.212391 
L 503.75768 176.537915 
L 505.13357 174.631272 
L 506.509461 173.28267 
M 512.013022 173.933719 
L 513.388913 172.724628 
L 514.764803 174.166237 
L 516.140693 174.817286 
L 520.268365 172.352601 
L 521.644255 173.050153 
L 523.020146 169.841412 
L 524.396036 169.934419 
L 525.771926 167.981272 
L 531.275488 166.772181 
L 532.651378 168.167286 
L 534.027269 164.586517 
L 535.403159 166.121132 
L 539.53083 165.516587 
L 540.906721 165.609594 
L 542.282611 163.377426 
L 543.658502 158.169034 
L 543.658502 158.169034 
" clip-path="url(#p5c65189cbc)" style="fill: none; stroke: #2ca02c; stroke-width: 1.2; stroke-linecap: square"/>
   </g>
   <g id="patch_8">
    <path d="M 52.465625 188.638125 
L 52.465625 156.718125 
" style="fill: none; stroke: #000000; stroke-width: 0.8; stroke-linejoin: miter; stroke-linecap: square"/>
   </g>
   <g id="patch_9">
    <path d="M 554.665625 188.638125 
L 554.665625 156.718125 
" style="fill: none; stroke: #000000; stroke-width: 0.8; stroke-linejoin: miter; stroke-linecap: square"/>
   </g>
   <g id="patch_10">
    <path d="M 52.465625 188.638125 
L 554.665625 188.638125 
" style="fill: none; stroke: #000000; stroke-width: 0.8; stroke-linejoin: miter; stroke-linecap: square"/>
   </g>
   <g id="patch_11">
    <path d="M 52.465625 156.718125 
L 554.665625 156.718125 
" style="fill: none; stroke: #000000; stroke-width: 0.8; stroke-linejoin: miter; stroke-linecap: square"/>
   </g>
  </g>
 </g>
 <defs>
  <clipPath id="p9ec95712c8">
   <rect x="52.465625" y="22.318125" width="502.2" height="91.2"/>
  </clipPath>
  <clipPath id="p5c65189cbc">
   <rect x="52.465625" y="156.718125" width="502.2" height="31.92"/>
  </clipPath>
 </defs>
</svg>
