<?xml version="1.0" encoding="utf-8" standalone="no"?>
<!DOCTYPE svg PUBLIC "-//W3C//DTD SVG 1.1//EN"
  "http://www.w3.org/Graphics/SVG/1.1/DTD/svg11.dtd">
<svg xmlns:xlink="http://www.w3.org/1999/xlink" width="561.479375pt" height="239.226503pt" viewBox="0 0 561.479375 239.226503" xmlns="http://www.w3.org/2000/svg" version="1.1">
 <metadata>
  <rdf:RDF xmlns:dc="http://purl.org/dc/elements/1.1/" xmlns:cc="http://creativecommons.org/ns#" xmlns:rdf="http://www.w3.org/1999/02/22-rdf-syntax-ns#">
   <cc:Work>
    <dc:type rdf:resource="http://purl.org/dc/dcmitype/StillImage"/>
    <dc:date>2025-10-15T13:43:59.563722</dc:date>
    <dc:format>image/svg+xml</dc:format>
    <dc:creator>
     <cc:Agent>
      <dc:title>Matplotlib v3.10.7, https://matplotlib.org/</dc:title>
     </cc:Agent>
    </dc:creator>
   </cc:Work>
  </rdf:RDF>
 </metadata>
 <defs>
  <style type="text/css">*{stroke-linejoin: round; stroke-linecap: butt}</style>
 </defs>
 <g id="figure_1">
  <g id="patch_1">
   <path d="M -0 239.226503 
L 561.479375 239.226503 
L 561.479375 0 
L -0 0 
z
" style="fill: #ffffff"/>
  </g>
  <g id="axes_1">
   <g id="patch_2">
    <path d="M 52.079375 113.518125 
L 554.279375 113.518125 
L 554.279375 22.318125 
L 52.079375 22.318125 
z
" style="fill: #ffffff"/>
   </g>
   <g id="matplotlib.axis_1">
    <g id="xtick_1">
     <g id="line2d_1">
      <path d="M 76.845402 113.518125 
L 76.845402 22.318125 
" clip-path="url(#p203bef321f)" style="fill: none; stroke: #b0b0b0; stroke-opacity: 0.2; stroke-width: 0.8; stroke-linecap: square"/>
     </g>
     <g id="line2d_2">
      <defs>
       <path id="m674f4c0a0d" d="M 0 0 
L 0 3.5 
" style="stroke: #000000; stroke-width: 0.8"/>
      </defs>
      <g>
       <use xlink:href="#m674f4c0a0d" x="76.845402" y="113.518125" style="stroke: #000000; stroke-width: 0.8"/>
      </g>
     </g>
     <g id="text_1">
      <!-- 2024-11 -->
      <g transform="translate(45.829931 155.435942) rotate(-45) scale(0.1 -0.1)">
       <defs>
        <path id="DejaVuSans-32" d="M 1228 531 
L 3431 531 
L 3431 0 
L 469 0 
L 469 531 
Q 828 903 1448 1529 
Q 2069 2156 2228 2338 
Q 2531 2678 2651 2914 
Q 2772 3150 2772 3378 
Q 2772 3750 2511 3984 
Q 2250 4219 1831 4219 
Q 1534 4219 1204 4116 
Q 875 4013 500 3803 
L 500 4441 
Q 881 4594 1212 4672 
Q 1544 4750 1819 4750 
Q 2544 4750 2975 4387 
Q 3406 4025 3406 3419 
Q 3406 3131 3298 2873 
Q 3191 2616 2906 2266 
Q 2828 2175 2409 1742 
Q 1991 1309 1228 531 
z
" transform="scale(0.015625)"/>
        <path id="DejaVuSans-30" d="M 2034 4250 
Q 1547 4250 1301 3770 
Q 1056 3291 1056 2328 
Q 1056 1369 1301 889 
Q 1547 409 2034 409 
Q 2525 409 2770 889 
Q 3016 1369 3016 2328 
Q 3016 3291 2770 3770 
Q 2525 4250 2034 4250 
z
M 2034 4750 
Q 2819 4750 3233 4129 
Q 3647 3509 3647 2328 
Q 3647 1150 3233 529 
Q 2819 -91 2034 -91 
Q 1250 -91 836 529 
Q 422 1150 422 2328 
Q 422 3509 836 4129 
Q 1250 4750 2034 4750 
z
" transform="scale(0.015625)"/>
        <path id="DejaVuSans-34" d="M 2419 4116 
L 825 1625 
L 2419 1625 
L 2419 4116 
z
M 2253 4666 
L 3047 4666 
L 3047 1625 
L 3713 1625 
L 3713 1100 
L 3047 1100 
L 3047 0 
L 2419 0 
L 2419 1100 
L 313 1100 
L 313 1709 
L 2253 4666 
z
" transform="scale(0.015625)"/>
        <path id="DejaVuSans-2d" d="M 313 2009 
L 1997 2009 
L 1997 1497 
L 313 1497 
L 313 2009 
z
" transform="scale(0.015625)"/>
        <path id="DejaVuSans-31" d="M 794 531 
L 1825 531 
L 1825 4091 
L 703 3866 
L 703 4441 
L 1819 4666 
L 2450 4666 
L 2450 531 
L 3481 531 
L 3481 0 
L 794 0 
L 794 531 
z
" transform="scale(0.015625)"/>
       </defs>
       <use xlink:href="#DejaVuSans-32"/>
       <use xlink:href="#DejaVuSans-30" transform="translate(63.623047 0)"/>
       <use xlink:href="#DejaVuSans-32" transform="translate(127.246094 0)"/>
       <use xlink:href="#DejaVuSans-34" transform="translate(190.869141 0)"/>
       <use xlink:href="#DejaVuSans-2d" transform="translate(254.492188 0)"/>
       <use xlink:href="#DejaVuSans-31" transform="translate(290.576172 0)"/>
       <use xlink:href="#DejaVuSans-31" transform="translate(354.199219 0)"/>
      </g>
     </g>
    </g>
    <g id="xtick_2">
     <g id="line2d_3">
      <path d="M 118.122115 113.518125 
L 118.122115 22.318125 
" clip-path="url(#p203bef321f)" style="fill: none; stroke: #b0b0b0; stroke-opacity: 0.2; stroke-width: 0.8; stroke-linecap: square"/>
     </g>
     <g id="line2d_4">
      <g>
       <use xlink:href="#m674f4c0a0d" x="118.122115" y="113.518125" style="stroke: #000000; stroke-width: 0.8"/>
      </g>
     </g>
     <g id="text_2">
      <!-- 2024-12 -->
      <g transform="translate(87.106644 155.435942) rotate(-45) scale(0.1 -0.1)">
       <use xlink:href="#DejaVuSans-32"/>
       <use xlink:href="#DejaVuSans-30" transform="translate(63.623047 0)"/>
       <use xlink:href="#DejaVuSans-32" transform="translate(127.246094 0)"/>
       <use xlink:href="#DejaVuSans-34" transform="translate(190.869141 0)"/>
       <use xlink:href="#DejaVuSans-2d" transform="translate(254.492188 0)"/>
       <use xlink:href="#DejaVuSans-31" transform="translate(290.576172 0)"/>
       <use xlink:href="#DejaVuSans-32" transform="translate(354.199219 0)"/>
      </g>
     </g>
    </g>
    <g id="xtick_3">
     <g id="line2d_5">
      <path d="M 160.774717 113.518125 
L 160.774717 22.318125 
" clip-path="url(#p203bef321f)" style="fill: none; stroke: #b0b0b0; stroke-opacity: 0.2; stroke-width: 0.8; stroke-linecap: square"/>
     </g>
     <g id="line2d_6">
      <g>
       <use xlink:href="#m674f4c0a0d" x="160.774717" y="113.518125" style="stroke: #000000; stroke-width: 0.8"/>
      </g>
     </g>
     <g id="text_3">
      <!-- 2025-01 -->
      <g transform="translate(129.759246 155.435942) rotate(-45) scale(0.1 -0.1)">
       <defs>
        <path id="DejaVuSans-35" d="M 691 4666 
L 3169 4666 
L 3169 4134 
L 1269 4134 
L 1269 2991 
Q 1406 3038 1543 3061 
Q 1681 3084 1819 3084 
Q 2600 3084 3056 2656 
Q 3513 2228 3513 1497 
Q 3513 744 3044 326 
Q 2575 -91 1722 -91 
Q 1428 -91 1123 -41 
Q 819 9 494 109 
L 494 744 
Q 775 591 1075 516 
Q 1375 441 1709 441 
Q 2250 441 2565 725 
Q 2881 1009 2881 1497 
Q 2881 1984 2565 2268 
Q 2250 2553 1709 2553 
Q 1456 2553 1204 2497 
Q 953 2441 691 2322 
L 691 4666 
z
" transform="scale(0.015625)"/>
       </defs>
       <use xlink:href="#DejaVuSans-32"/>
       <use xlink:href="#DejaVuSans-30" transform="translate(63.623047 0)"/>
       <use xlink:href="#DejaVuSans-32" transform="translate(127.246094 0)"/>
       <use xlink:href="#DejaVuSans-35" transform="translate(190.869141 0)"/>
       <use xlink:href="#DejaVuSans-2d" transform="translate(254.492188 0)"/>
       <use xlink:href="#DejaVuSans-30" transform="translate(290.576172 0)"/>
       <use xlink:href="#DejaVuSans-31" transform="translate(354.199219 0)"/>
      </g>
     </g>
    </g>
    <g id="xtick_4">
     <g id="line2d_7">
      <path d="M 203.42732 113.518125 
L 203.42732 22.318125 
" clip-path="url(#p203bef321f)" style="fill: none; stroke: #b0b0b0; stroke-opacity: 0.2; stroke-width: 0.8; stroke-linecap: square"/>
     </g>
     <g id="line2d_8">
      <g>
       <use xlink:href="#m674f4c0a0d" x="203.42732" y="113.518125" style="stroke: #000000; stroke-width: 0.8"/>
      </g>
     </g>
     <g id="text_4">
      <!-- 2025-02 -->
      <g transform="translate(172.411849 155.435942) rotate(-45) scale(0.1 -0.1)">
       <use xlink:href="#DejaVuSans-32"/>
       <use xlink:href="#DejaVuSans-30" transform="translate(63.623047 0)"/>
       <use xlink:href="#DejaVuSans-32" transform="translate(127.246094 0)"/>
       <use xlink:href="#DejaVuSans-35" transform="translate(190.869141 0)"/>
       <use xlink:href="#DejaVuSans-2d" transform="translate(254.492188 0)"/>
       <use xlink:href="#DejaVuSans-30" transform="translate(290.576172 0)"/>
       <use xlink:href="#DejaVuSans-32" transform="translate(354.199219 0)"/>
      </g>
     </g>
    </g>
    <g id="xtick_5">
     <g id="line2d_9">
      <path d="M 241.952252 113.518125 
L 241.952252 22.318125 
" clip-path="url(#p203bef321f)" style="fill: none; stroke: #b0b0b0; stroke-opacity: 0.2; stroke-width: 0.8; stroke-linecap: square"/>
     </g>
     <g id="line2d_10">
      <g>
       <use xlink:href="#m674f4c0a0d" x="241.952252" y="113.518125" style="stroke: #000000; stroke-width: 0.8"/>
      </g>
     </g>
     <g id="text_5">
      <!-- 2025-03 -->
      <g transform="translate(210.936781 155.435942) rotate(-45) scale(0.1 -0.1)">
       <defs>
        <path id="DejaVuSans-33" d="M 2597 2516 
Q 3050 2419 3304 2112 
Q 3559 1806 3559 1356 
Q 3559 666 3084 287 
Q 2609 -91 1734 -91 
Q 1441 -91 1130 -33 
Q 819 25 488 141 
L 488 750 
Q 750 597 1062 519 
Q 1375 441 1716 441 
Q 2309 441 2620 675 
Q 2931 909 2931 1356 
Q 2931 1769 2642 2001 
Q 2353 2234 1838 2234 
L 1294 2234 
L 1294 2753 
L 1863 2753 
Q 2328 2753 2575 2939 
Q 2822 3125 2822 3475 
Q 2822 3834 2567 4026 
Q 2313 4219 1838 4219 
Q 1578 4219 1281 4162 
Q 984 4106 628 3988 
L 628 4550 
Q 988 4650 1302 4700 
Q 1616 4750 1894 4750 
Q 2613 4750 3031 4423 
Q 3450 4097 3450 3541 
Q 3450 3153 3228 2886 
Q 3006 2619 2597 2516 
z
" transform="scale(0.015625)"/>
       </defs>
       <use xlink:href="#DejaVuSans-32"/>
       <use xlink:href="#DejaVuSans-30" transform="translate(63.623047 0)"/>
       <use xlink:href="#DejaVuSans-32" transform="translate(127.246094 0)"/>
       <use xlink:href="#DejaVuSans-35" transform="translate(190.869141 0)"/>
       <use xlink:href="#DejaVuSans-2d" transform="translate(254.492188 0)"/>
       <use xlink:href="#DejaVuSans-30" transform="translate(290.576172 0)"/>
       <use xlink:href="#DejaVuSans-33" transform="translate(354.199219 0)"/>
      </g>
     </g>
    </g>
    <g id="xtick_6">
     <g id="line2d_11">
      <path d="M 284.604854 113.518125 
L 284.604854 22.318125 
" clip-path="url(#p203bef321f)" style="fill: none; stroke: #b0b0b0; stroke-opacity: 0.2; stroke-width: 0.8; stroke-linecap: square"/>
     </g>
     <g id="line2d_12">
      <g>
       <use xlink:href="#m674f4c0a0d" x="284.604854" y="113.518125" style="stroke: #000000; stroke-width: 0.8"/>
      </g>
     </g>
     <g id="text_6">
      <!-- 2025-04 -->
      <g transform="translate(253.589383 155.435942) rotate(-45) scale(0.1 -0.1)">
       <use xlink:href="#DejaVuSans-32"/>
       <use xlink:href="#DejaVuSans-30" transform="translate(63.623047 0)"/>
       <use xlink:href="#DejaVuSans-32" transform="translate(127.246094 0)"/>
       <use xlink:href="#DejaVuSans-35" transform="translate(190.869141 0)"/>
       <use xlink:href="#DejaVuSans-2d" transform="translate(254.492188 0)"/>
       <use xlink:href="#DejaVuSans-30" transform="translate(290.576172 0)"/>
       <use xlink:href="#DejaVuSans-34" transform="translate(354.199219 0)"/>
      </g>
     </g>
    </g>
    <g id="xtick_7">
     <g id="line2d_13">
      <path d="M 325.881567 113.518125 
L 325.881567 22.318125 
" clip-path="url(#p203bef321f)" style="fill: none; stroke: #b0b0b0; stroke-opacity: 0.2; stroke-width: 0.8; stroke-linecap: square"/>
     </g>
     <g id="line2d_14">
      <g>
       <use xlink:href="#m674f4c0a0d" x="325.881567" y="113.518125" style="stroke: #000000; stroke-width: 0.8"/>
      </g>
     </g>
     <g id="text_7">
      <!-- 2025-05 -->
      <g transform="translate(294.866096 155.435942) rotate(-45) scale(0.1 -0.1)">
       <use xlink:href="#DejaVuSans-32"/>
       <use xlink:href="#DejaVuSans-30" transform="translate(63.623047 0)"/>
       <use xlink:href="#DejaVuSans-32" transform="translate(127.246094 0)"/>
       <use xlink:href="#DejaVuSans-35" transform="translate(190.869141 0)"/>
       <use xlink:href="#DejaVuSans-2d" transform="translate(254.492188 0)"/>
       <use xlink:href="#DejaVuSans-30" transform="translate(290.576172 0)"/>
       <use xlink:href="#DejaVuSans-35" transform="translate(354.199219 0)"/>
      </g>
     </g>
    </g>
    <g id="xtick_8">
     <g id="line2d_15">
      <path d="M 368.53417 113.518125 
L 368.53417 22.318125 
" clip-path="url(#p203bef321f)" style="fill: none; stroke: #b0b0b0; stroke-opacity: 0.2; stroke-width: 0.8; stroke-linecap: square"/>
     </g>
     <g id="line2d_16">
      <g>
       <use xlink:href="#m674f4c0a0d" x="368.53417" y="113.518125" style="stroke: #000000; stroke-width: 0.8"/>
      </g>
     </g>
     <g id="text_8">
      <!-- 2025-06 -->
      <g transform="translate(337.518698 155.435942) rotate(-45) scale(0.1 -0.1)">
       <defs>
        <path id="DejaVuSans-36" d="M 2113 2584 
Q 1688 2584 1439 2293 
Q 1191 2003 1191 1497 
Q 1191 994 1439 701 
Q 1688 409 2113 409 
Q 2538 409 2786 701 
Q 3034 994 3034 1497 
Q 3034 2003 2786 2293 
Q 2538 2584 2113 2584 
z
M 3366 4563 
L 3366 3988 
Q 3128 4100 2886 4159 
Q 2644 4219 2406 4219 
Q 1781 4219 1451 3797 
Q 1122 3375 1075 2522 
Q 1259 2794 1537 2939 
Q 1816 3084 2150 3084 
Q 2853 3084 3261 2657 
Q 3669 2231 3669 1497 
Q 3669 778 3244 343 
Q 2819 -91 2113 -91 
Q 1303 -91 875 529 
Q 447 1150 447 2328 
Q 447 3434 972 4092 
Q 1497 4750 2381 4750 
Q 2619 4750 2861 4703 
Q 3103 4656 3366 4563 
z
" transform="scale(0.015625)"/>
       </defs>
       <use xlink:href="#DejaVuSans-32"/>
       <use xlink:href="#DejaVuSans-30" transform="translate(63.623047 0)"/>
       <use xlink:href="#DejaVuSans-32" transform="translate(127.246094 0)"/>
       <use xlink:href="#DejaVuSans-35" transform="translate(190.869141 0)"/>
       <use xlink:href="#DejaVuSans-2d" transform="translate(254.492188 0)"/>
       <use xlink:href="#DejaVuSans-30" transform="translate(290.576172 0)"/>
       <use xlink:href="#DejaVuSans-36" transform="translate(354.199219 0)"/>
      </g>
     </g>
    </g>
    <g id="xtick_9">
     <g id="line2d_17">
      <path d="M 409.810882 113.518125 
L 409.810882 22.318125 
" clip-path="url(#p203bef321f)" style="fill: none; stroke: #b0b0b0; stroke-opacity: 0.2; stroke-width: 0.8; stroke-linecap: square"/>
     </g>
     <g id="line2d_18">
      <g>
       <use xlink:href="#m674f4c0a0d" x="409.810882" y="113.518125" style="stroke: #000000; stroke-width: 0.8"/>
      </g>
     </g>
     <g id="text_9">
      <!-- 2025-07 -->
      <g transform="translate(378.795411 155.435942) rotate(-45) scale(0.1 -0.1)">
       <defs>
        <path id="DejaVuSans-37" d="M 525 4666 
L 3525 4666 
L 3525 4397 
L 1831 0 
L 1172 0 
L 2766 4134 
L 525 4134 
L 525 4666 
z
" transform="scale(0.015625)"/>
       </defs>
       <use xlink:href="#DejaVuSans-32"/>
       <use xlink:href="#DejaVuSans-30" transform="translate(63.623047 0)"/>
       <use xlink:href="#DejaVuSans-32" transform="translate(127.246094 0)"/>
       <use xlink:href="#DejaVuSans-35" transform="translate(190.869141 0)"/>
       <use xlink:href="#DejaVuSans-2d" transform="translate(254.492188 0)"/>
       <use xlink:href="#DejaVuSans-30" transform="translate(290.576172 0)"/>
       <use xlink:href="#DejaVuSans-37" transform="translate(354.199219 0)"/>
      </g>
     </g>
    </g>
    <g id="xtick_10">
     <g id="line2d_19">
      <path d="M 452.463485 113.518125 
L 452.463485 22.318125 
" clip-path="url(#p203bef321f)" style="fill: none; stroke: #b0b0b0; stroke-opacity: 0.2; stroke-width: 0.8; stroke-linecap: square"/>
     </g>
     <g id="line2d_20">
      <g>
       <use xlink:href="#m674f4c0a0d" x="452.463485" y="113.518125" style="stroke: #000000; stroke-width: 0.8"/>
      </g>
     </g>
     <g id="text_10">
      <!-- 2025-08 -->
      <g transform="translate(421.448013 155.435942) rotate(-45) scale(0.1 -0.1)">
       <defs>
        <path id="DejaVuSans-38" d="M 2034 2216 
Q 1584 2216 1326 1975 
Q 1069 1734 1069 1313 
Q 1069 891 1326 650 
Q 1584 409 2034 409 
Q 2484 409 2743 651 
Q 3003 894 3003 1313 
Q 3003 1734 2745 1975 
Q 2488 2216 2034 2216 
z
M 1403 2484 
Q 997 2584 770 2862 
Q 544 3141 544 3541 
Q 544 4100 942 4425 
Q 1341 4750 2034 4750 
Q 2731 4750 3128 4425 
Q 3525 4100 3525 3541 
Q 3525 3141 3298 2862 
Q 3072 2584 2669 2484 
Q 3125 2378 3379 2068 
Q 3634 1759 3634 1313 
Q 3634 634 3220 271 
Q 2806 -91 2034 -91 
Q 1263 -91 848 271 
Q 434 634 434 1313 
Q 434 1759 690 2068 
Q 947 2378 1403 2484 
z
M 1172 3481 
Q 1172 3119 1398 2916 
Q 1625 2713 2034 2713 
Q 2441 2713 2670 2916 
Q 2900 3119 2900 3481 
Q 2900 3844 2670 4047 
Q 2441 4250 2034 4250 
Q 1625 4250 1398 4047 
Q 1172 3844 1172 3481 
z
" transform="scale(0.015625)"/>
       </defs>
       <use xlink:href="#DejaVuSans-32"/>
       <use xlink:href="#DejaVuSans-30" transform="translate(63.623047 0)"/>
       <use xlink:href="#DejaVuSans-32" transform="translate(127.246094 0)"/>
       <use xlink:href="#DejaVuSans-35" transform="translate(190.869141 0)"/>
       <use xlink:href="#DejaVuSans-2d" transform="translate(254.492188 0)"/>
       <use xlink:href="#DejaVuSans-30" transform="translate(290.576172 0)"/>
       <use xlink:href="#DejaVuSans-38" transform="translate(354.199219 0)"/>
      </g>
     </g>
    </g>
    <g id="xtick_11">
     <g id="line2d_21">
      <path d="M 495.116087 113.518125 
L 495.116087 22.318125 
" clip-path="url(#p203bef321f)" style="fill: none; stroke: #b0b0b0; stroke-opacity: 0.2; stroke-width: 0.8; stroke-linecap: square"/>
     </g>
     <g id="line2d_22">
      <g>
       <use xlink:href="#m674f4c0a0d" x="495.116087" y="113.518125" style="stroke: #000000; stroke-width: 0.8"/>
      </g>
     </g>
     <g id="text_11">
      <!-- 2025-09 -->
      <g transform="translate(464.100616 155.435942) rotate(-45) scale(0.1 -0.1)">
       <defs>
        <path id="DejaVuSans-39" d="M 703 97 
L 703 672 
Q 941 559 1184 500 
Q 1428 441 1663 441 
Q 2288 441 2617 861 
Q 2947 1281 2994 2138 
Q 2813 1869 2534 1725 
Q 2256 1581 1919 1581 
Q 1219 1581 811 2004 
Q 403 2428 403 3163 
Q 403 3881 828 4315 
Q 1253 4750 1959 4750 
Q 2769 4750 3195 4129 
Q 3622 3509 3622 2328 
Q 3622 1225 3098 567 
Q 2575 -91 1691 -91 
Q 1453 -91 1209 -44 
Q 966 3 703 97 
z
M 1959 2075 
Q 2384 2075 2632 2365 
Q 2881 2656 2881 3163 
Q 2881 3666 2632 3958 
Q 2384 4250 1959 4250 
Q 1534 4250 1286 3958 
Q 1038 3666 1038 3163 
Q 1038 2656 1286 2365 
Q 1534 2075 1959 2075 
z
" transform="scale(0.015625)"/>
       </defs>
       <use xlink:href="#DejaVuSans-32"/>
       <use xlink:href="#DejaVuSans-30" transform="translate(63.623047 0)"/>
       <use xlink:href="#DejaVuSans-32" transform="translate(127.246094 0)"/>
       <use xlink:href="#DejaVuSans-35" transform="translate(190.869141 0)"/>
       <use xlink:href="#DejaVuSans-2d" transform="translate(254.492188 0)"/>
       <use xlink:href="#DejaVuSans-30" transform="translate(290.576172 0)"/>
       <use xlink:href="#DejaVuSans-39" transform="translate(354.199219 0)"/>
      </g>
     </g>
    </g>
    <g id="xtick_12">
     <g id="line2d_23">
      <path d="M 536.3928 113.518125 
L 536.3928 22.318125 
" clip-path="url(#p203bef321f)" style="fill: none; stroke: #b0b0b0; stroke-opacity: 0.2; stroke-width: 0.8; stroke-linecap: square"/>
     </g>
     <g id="line2d_24">
      <g>
       <use xlink:href="#m674f4c0a0d" x="536.3928" y="113.518125" style="stroke: #000000; stroke-width: 0.8"/>
      </g>
     </g>
     <g id="text_12">
      <!-- 2025-10 -->
      <g transform="translate(505.377328 155.435942) rotate(-45) scale(0.1 -0.1)">
       <use xlink:href="#DejaVuSans-32"/>
       <use xlink:href="#DejaVuSans-30" transform="translate(63.623047 0)"/>
       <use xlink:href="#DejaVuSans-32" transform="translate(127.246094 0)"/>
       <use xlink:href="#DejaVuSans-35" transform="translate(190.869141 0)"/>
       <use xlink:href="#DejaVuSans-2d" transform="translate(254.492188 0)"/>
       <use xlink:href="#DejaVuSans-31" transform="translate(290.576172 0)"/>
       <use xlink:href="#DejaVuSans-30" transform="translate(354.199219 0)"/>
      </g>
     </g>
    </g>
   </g>
   <g id="matplotlib.axis_2">
    <g id="ytick_1">
     <g id="line2d_25">
      <path d="M 52.079375 109.37267 
L 554.279375 109.37267 
" clip-path="url(#p203bef321f)" style="fill: none; stroke: #b0b0b0; stroke-opacity: 0.2; stroke-width: 0.8; stroke-linecap: square"/>
     </g>
     <g id="line2d_26">
      <defs>
       <path id="meb7b884fbf" d="M 0 0 
L -3.5 0 
" style="stroke: #000000; stroke-width: 0.8"/>
      </defs>
      <g>
       <use xlink:href="#meb7b884fbf" x="52.079375" y="109.37267" style="stroke: #000000; stroke-width: 0.8"/>
      </g>
     </g>
     <g id="text_13">
      <!-- 0 -->
      <g transform="translate(38.716875 113.171889) scale(0.1 -0.1)">
       <use xlink:href="#DejaVuSans-30"/>
      </g>
     </g>
    </g>
    <g id="ytick_2">
     <g id="line2d_27">
      <path d="M 52.079375 83.135616 
L 554.279375 83.135616 
" clip-path="url(#p203bef321f)" style="fill: none; stroke: #b0b0b0; stroke-opacity: 0.2; stroke-width: 0.8; stroke-linecap: square"/>
     </g>
     <g id="line2d_28">
      <g>
       <use xlink:href="#meb7b884fbf" x="52.079375" y="83.135616" style="stroke: #000000; stroke-width: 0.8"/>
      </g>
     </g>
     <g id="text_14">
      <!-- 50 -->
      <g transform="translate(32.354375 86.934835) scale(0.1 -0.1)">
       <use xlink:href="#DejaVuSans-35"/>
       <use xlink:href="#DejaVuSans-30" transform="translate(63.623047 0)"/>
      </g>
     </g>
    </g>
    <g id="ytick_3">
     <g id="line2d_29">
      <path d="M 52.079375 56.898562 
L 554.279375 56.898562 
" clip-path="url(#p203bef321f)" style="fill: none; stroke: #b0b0b0; stroke-opacity: 0.2; stroke-width: 0.8; stroke-linecap: square"/>
     </g>
     <g id="line2d_30">
      <g>
       <use xlink:href="#meb7b884fbf" x="52.079375" y="56.898562" style="stroke: #000000; stroke-width: 0.8"/>
      </g>
     </g>
     <g id="text_15">
      <!-- 100 -->
      <g transform="translate(25.991875 60.697781) scale(0.1 -0.1)">
       <use xlink:href="#DejaVuSans-31"/>
       <use xlink:href="#DejaVuSans-30" transform="translate(63.623047 0)"/>
       <use xlink:href="#DejaVuSans-30" transform="translate(127.246094 0)"/>
      </g>
     </g>
    </g>
    <g id="ytick_4">
     <g id="line2d_31">
      <path d="M 52.079375 30.661508 
L 554.279375 30.661508 
" clip-path="url(#p203bef321f)" style="fill: none; stroke: #b0b0b0; stroke-opacity: 0.2; stroke-width: 0.8; stroke-linecap: square"/>
     </g>
     <g id="line2d_32">
      <g>
       <use xlink:href="#meb7b884fbf" x="52.079375" y="30.661508" style="stroke: #000000; stroke-width: 0.8"/>
      </g>
     </g>
     <g id="text_16">
      <!-- 150 -->
      <g transform="translate(25.991875 34.460727) scale(0.1 -0.1)">
       <use xlink:href="#DejaVuSans-31"/>
       <use xlink:href="#DejaVuSans-35" transform="translate(63.623047 0)"/>
       <use xlink:href="#DejaVuSans-30" transform="translate(127.246094 0)"/>
      </g>
     </g>
    </g>
    <g id="text_17">
     <!-- bp -->
     <g transform="translate(19.912187 74.266562) rotate(-90) scale(0.1 -0.1)">
      <defs>
       <path id="DejaVuSans-62" d="M 3116 1747 
Q 3116 2381 2855 2742 
Q 2594 3103 2138 3103 
Q 1681 3103 1420 2742 
Q 1159 2381 1159 1747 
Q 1159 1113 1420 752 
Q 1681 391 2138 391 
Q 2594 391 2855 752 
Q 3116 1113 3116 1747 
z
M 1159 2969 
Q 1341 3281 1617 3432 
Q 1894 3584 2278 3584 
Q 2916 3584 3314 3078 
Q 3713 2572 3713 1747 
Q 3713 922 3314 415 
Q 2916 -91 2278 -91 
Q 1894 -91 1617 61 
Q 1341 213 1159 525 
L 1159 0 
L 581 0 
L 581 4863 
L 1159 4863 
L 1159 2969 
z
" transform="scale(0.015625)"/>
       <path id="DejaVuSans-70" d="M 1159 525 
L 1159 -1331 
L 581 -1331 
L 581 3500 
L 1159 3500 
L 1159 2969 
Q 1341 3281 1617 3432 
Q 1894 3584 2278 3584 
Q 2916 3584 3314 3078 
Q 3713 2572 3713 1747 
Q 3713 922 3314 415 
Q 2916 -91 2278 -91 
Q 1894 -91 1617 61 
Q 1341 213 1159 525 
z
M 3116 1747 
Q 3116 2381 2855 2742 
Q 2594 3103 2138 3103 
Q 1681 3103 1420 2742 
Q 1159 2381 1159 1747 
Q 1159 1113 1420 752 
Q 1681 391 2138 391 
Q 2594 391 2855 752 
Q 3116 1113 3116 1747 
z
" transform="scale(0.015625)"/>
      </defs>
      <use xlink:href="#DejaVuSans-62"/>
      <use xlink:href="#DejaVuSans-70" transform="translate(63.476562 0)"/>
     </g>
    </g>
   </g>
   <g id="line2d_33">
    <path d="M 52.079375 63.720196 
L 53.455265 62.145973 
L 56.207046 60.047009 
L 57.582937 59.522268 
L 61.710608 58.472786 
L 64.462389 57.423303 
L 65.838279 57.948044 
L 71.341841 55.84908 
L 72.717731 55.84908 
L 75.469512 53.750116 
L 76.845402 52.175893 
L 80.973074 53.225375 
L 82.348964 56.373821 
L 83.724854 51.12641 
L 85.100745 52.175893 
L 86.476635 50.601669 
L 90.604307 50.601669 
L 91.980197 47.977964 
L 93.356087 50.076928 
L 94.731978 49.027446 
L 96.107868 48.502705 
L 100.235539 49.027446 
L 101.61143 53.225375 
L 102.98732 55.324339 
L 104.363211 58.472786 
L 105.739101 58.472786 
L 109.866772 58.997527 
L 111.242663 55.324339 
L 112.618553 55.84908 
L 113.994443 55.324339 
L 115.370334 51.12641 
L 119.498005 50.076928 
L 120.873896 51.12641 
L 122.249786 50.601669 
L 123.625676 51.651151 
L 125.001567 47.977964 
L 129.129238 47.977964 
L 130.505128 46.403741 
L 131.881019 47.453223 
L 133.256909 47.453223 
L 134.6328 44.829517 
L 138.760471 45.879 
L 140.136361 43.255294 
L 141.512252 42.205812 
L 142.888142 44.829517 
L 148.391704 40.631589 
L 149.767594 41.15633 
L 151.143485 41.15633 
L 152.519375 41.681071 
L 153.895265 40.106848 
L 158.022937 40.631589 
L 159.398827 38.532624 
L 162.150608 38.532624 
L 163.526498 37.483142 
L 167.65417 36.43366 
L 170.40595 38.532624 
L 173.157731 39.582107 
L 177.285402 41.681071 
L 178.661293 44.304776 
L 180.037183 43.780035 
L 181.413074 42.730553 
L 182.788964 40.631589 
L 186.916635 39.582107 
L 188.292526 40.106848 
L 189.668416 41.15633 
L 191.044307 39.582107 
L 192.420197 38.532624 
L 196.547868 39.057366 
L 197.923759 38.532624 
L 199.299649 37.483142 
L 200.675539 35.384178 
L 202.05143 30.136767 
L 206.179101 26.46358 
L 207.554991 29.612026 
L 208.930882 31.71099 
L 210.306772 31.186249 
L 211.682663 34.859437 
L 215.810334 33.285214 
L 217.186224 33.809955 
L 218.562115 33.809955 
L 219.938005 34.859437 
L 221.313896 36.958401 
L 225.441567 36.958401 
L 226.817457 38.007883 
L 228.193348 38.532624 
L 229.569238 42.205812 
L 230.945128 40.106848 
L 235.0728 39.582107 
L 236.44869 40.631589 
L 237.82458 42.730553 
L 239.200471 40.106848 
L 240.576361 39.057366 
L 244.704033 38.532624 
L 246.079923 37.483142 
L 247.455813 39.582107 
L 248.831704 45.354258 
L 250.207594 41.681071 
L 254.335265 44.304776 
L 255.711156 42.730553 
L 258.462937 44.829517 
L 259.838827 43.780035 
L 263.966498 41.681071 
L 265.342389 42.730553 
L 266.718279 43.255294 
L 268.09417 44.304776 
L 273.597731 42.205812 
L 274.973622 43.780035 
L 276.349512 44.829517 
L 277.725402 41.681071 
L 279.101293 43.780035 
L 283.228964 43.255294 
L 284.604854 43.780035 
L 285.980745 43.255294 
L 287.356635 50.601669 
L 288.732526 50.601669 
L 292.860197 51.12641 
L 294.236087 48.502705 
L 295.611978 48.502705 
L 296.987868 47.453223 
L 298.363759 45.354258 
L 302.49143 43.255294 
L 303.86732 44.304776 
L 305.243211 45.879 
L 307.994991 45.879 
L 312.122663 46.928482 
L 313.498553 45.354258 
L 314.874443 47.977964 
L 316.250334 49.552187 
L 317.626224 50.601669 
L 321.753896 53.225375 
L 323.129786 53.225375 
L 324.505676 51.651151 
L 325.881567 49.027446 
L 327.257457 49.027446 
L 331.385128 46.928482 
L 332.761019 49.027446 
L 335.5128 47.977964 
L 336.88869 45.354258 
L 341.016361 43.780035 
L 342.392252 42.730553 
L 345.144033 41.681071 
L 346.519923 43.255294 
L 350.647594 41.681071 
L 352.023485 46.928482 
L 353.399375 46.928482 
L 356.151156 47.977964 
L 360.278827 46.928482 
L 361.654717 47.453223 
L 363.030608 44.829517 
L 365.782389 45.879 
L 369.91006 44.829517 
L 371.28595 46.928482 
L 372.661841 49.552187 
L 374.037731 49.027446 
L 375.413622 47.977964 
L 379.541293 50.076928 
L 380.917183 50.076928 
L 382.293074 53.225375 
L 383.668964 55.324339 
L 385.044854 54.799598 
L 389.172526 53.750116 
L 390.548416 55.84908 
L 391.924307 54.274857 
L 393.300197 54.274857 
L 394.676087 52.700634 
L 398.803759 53.225375 
L 400.179649 54.799598 
L 401.555539 58.472786 
L 402.93143 60.57175 
L 404.30732 57.948044 
L 408.434991 58.997527 
L 409.810882 57.948044 
L 411.186772 60.047009 
L 413.938553 56.898562 
L 418.066224 56.898562 
L 419.442115 57.423303 
L 423.569786 60.57175 
L 427.697457 61.096491 
L 429.073348 62.145973 
L 430.449238 62.670714 
L 431.825128 62.145973 
L 433.201019 63.720196 
L 437.32869 63.720196 
L 438.70458 64.769679 
L 440.080471 65.29442 
L 441.456361 63.195455 
L 442.832252 63.195455 
L 446.959923 62.145973 
L 448.335813 63.720196 
L 449.711704 62.145973 
L 451.087594 61.096491 
L 452.463485 64.769679 
L 456.591156 65.29442 
L 457.967046 65.29442 
L 459.342937 65.819161 
L 460.718827 65.29442 
L 462.094717 62.670714 
L 466.222389 63.195455 
L 467.598279 64.244937 
L 468.97417 64.769679 
L 470.35006 63.195455 
L 471.72595 63.720196 
L 475.853622 64.769679 
L 477.229512 64.244937 
L 478.605402 64.769679 
L 479.981293 64.769679 
L 481.357183 65.819161 
L 485.484854 66.868643 
L 486.860745 66.868643 
L 488.236635 67.918125 
L 489.612526 67.393384 
L 490.988416 64.769679 
L 495.116087 64.769679 
L 499.243759 66.343902 
L 500.619649 65.819161 
L 504.74732 65.29442 
L 506.123211 64.244937 
L 507.499101 63.720196 
L 508.874991 64.769679 
L 510.250882 63.195455 
L 517.130334 63.195455 
L 518.506224 61.096491 
L 519.882115 60.047009 
L 524.009786 58.997527 
L 525.385676 60.57175 
L 526.761567 58.997527 
L 528.137457 58.997527 
L 529.513348 58.472786 
L 533.641019 57.948044 
L 535.016909 57.423303 
L 536.3928 60.57175 
L 537.76869 61.096491 
L 539.14458 60.047009 
L 543.272252 58.472786 
L 544.648142 59.522268 
L 546.024033 60.047009 
L 547.399923 60.047009 
L 548.775813 63.720196 
L 554.279375 61.621232 
L 554.279375 61.621232 
" clip-path="url(#p203bef321f)" style="fill: none; stroke: #444444; stroke-width: 1.5; stroke-linecap: square"/>
    <defs>
     <path id="md828cbd50a" d="M 0 1 
C 0.265203 1 0.51958 0.894634 0.707107 0.707107 
C 0.894634 0.51958 1 0.265203 1 0 
C 1 -0.265203 0.894634 -0.51958 0.707107 -0.707107 
C 0.51958 -0.894634 0.265203 -1 0 -1 
C -0.265203 -1 -0.51958 -0.894634 -0.707107 -0.707107 
C -0.894634 -0.51958 -1 -0.265203 -1 0 
C -1 0.265203 -0.894634 0.51958 -0.707107 0.707107 
C -0.51958 0.894634 -0.265203 1 0 1 
z
" style="stroke: #444444"/>
    </defs>
    <g clip-path="url(#p203bef321f)">
     <use xlink:href="#md828cbd50a" x="52.079375" y="63.720196" style="fill: #444444; stroke: #444444"/>
     <use xlink:href="#md828cbd50a" x="53.455265" y="62.145973" style="fill: #444444; stroke: #444444"/>
     <use xlink:href="#md828cbd50a" x="54.831156" y="61.096491" style="fill: #444444; stroke: #444444"/>
     <use xlink:href="#md828cbd50a" x="56.207046" y="60.047009" style="fill: #444444; stroke: #444444"/>
     <use xlink:href="#md828cbd50a" x="57.582937" y="59.522268" style="fill: #444444; stroke: #444444"/>
     <use xlink:href="#md828cbd50a" x="61.710608" y="58.472786" style="fill: #444444; stroke: #444444"/>
     <use xlink:href="#md828cbd50a" x="63.086498" y="57.948044" style="fill: #444444; stroke: #444444"/>
     <use xlink:href="#md828cbd50a" x="64.462389" y="57.423303" style="fill: #444444; stroke: #444444"/>
     <use xlink:href="#md828cbd50a" x="65.838279" y="57.948044" style="fill: #444444; stroke: #444444"/>
     <use xlink:href="#md828cbd50a" x="67.21417" y="57.423303" style="fill: #444444; stroke: #444444"/>
     <use xlink:href="#md828cbd50a" x="71.341841" y="55.84908" style="fill: #444444; stroke: #444444"/>
     <use xlink:href="#md828cbd50a" x="72.717731" y="55.84908" style="fill: #444444; stroke: #444444"/>
     <use xlink:href="#md828cbd50a" x="74.093622" y="54.799598" style="fill: #444444; stroke: #444444"/>
     <use xlink:href="#md828cbd50a" x="75.469512" y="53.750116" style="fill: #444444; stroke: #444444"/>
     <use xlink:href="#md828cbd50a" x="76.845402" y="52.175893" style="fill: #444444; stroke: #444444"/>
     <use xlink:href="#md828cbd50a" x="80.973074" y="53.225375" style="fill: #444444; stroke: #444444"/>
     <use xlink:href="#md828cbd50a" x="82.348964" y="56.373821" style="fill: #444444; stroke: #444444"/>
     <use xlink:href="#md828cbd50a" x="83.724854" y="51.12641" style="fill: #444444; stroke: #444444"/>
     <use xlink:href="#md828cbd50a" x="85.100745" y="52.175893" style="fill: #444444; stroke: #444444"/>
     <use xlink:href="#md828cbd50a" x="86.476635" y="50.601669" style="fill: #444444; stroke: #444444"/>
     <use xlink:href="#md828cbd50a" x="90.604307" y="50.601669" style="fill: #444444; stroke: #444444"/>
     <use xlink:href="#md828cbd50a" x="91.980197" y="47.977964" style="fill: #444444; stroke: #444444"/>
     <use xlink:href="#md828cbd50a" x="93.356087" y="50.076928" style="fill: #444444; stroke: #444444"/>
     <use xlink:href="#md828cbd50a" x="94.731978" y="49.027446" style="fill: #444444; stroke: #444444"/>
     <use xlink:href="#md828cbd50a" x="96.107868" y="48.502705" style="fill: #444444; stroke: #444444"/>
     <use xlink:href="#md828cbd50a" x="100.235539" y="49.027446" style="fill: #444444; stroke: #444444"/>
     <use xlink:href="#md828cbd50a" x="101.61143" y="53.225375" style="fill: #444444; stroke: #444444"/>
     <use xlink:href="#md828cbd50a" x="102.98732" y="55.324339" style="fill: #444444; stroke: #444444"/>
     <use xlink:href="#md828cbd50a" x="104.363211" y="58.472786" style="fill: #444444; stroke: #444444"/>
     <use xlink:href="#md828cbd50a" x="105.739101" y="58.472786" style="fill: #444444; stroke: #444444"/>
     <use xlink:href="#md828cbd50a" x="109.866772" y="58.997527" style="fill: #444444; stroke: #444444"/>
     <use xlink:href="#md828cbd50a" x="111.242663" y="55.324339" style="fill: #444444; stroke: #444444"/>
     <use xlink:href="#md828cbd50a" x="112.618553" y="55.84908" style="fill: #444444; stroke: #444444"/>
     <use xlink:href="#md828cbd50a" x="113.994443" y="55.324339" style="fill: #444444; stroke: #444444"/>
     <use xlink:href="#md828cbd50a" x="115.370334" y="51.12641" style="fill: #444444; stroke: #444444"/>
     <use xlink:href="#md828cbd50a" x="119.498005" y="50.076928" style="fill: #444444; stroke: #444444"/>
     <use xlink:href="#md828cbd50a" x="120.873896" y="51.12641" style="fill: #444444; stroke: #444444"/>
     <use xlink:href="#md828cbd50a" x="122.249786" y="50.601669" style="fill: #444444; stroke: #444444"/>
     <use xlink:href="#md828cbd50a" x="123.625676" y="51.651151" style="fill: #444444; stroke: #444444"/>
     <use xlink:href="#md828cbd50a" x="125.001567" y="47.977964" style="fill: #444444; stroke: #444444"/>
     <use xlink:href="#md828cbd50a" x="129.129238" y="47.977964" style="fill: #444444; stroke: #444444"/>
     <use xlink:href="#md828cbd50a" x="130.505128" y="46.403741" style="fill: #444444; stroke: #444444"/>
     <use xlink:href="#md828cbd50a" x="131.881019" y="47.453223" style="fill: #444444; stroke: #444444"/>
     <use xlink:href="#md828cbd50a" x="133.256909" y="47.453223" style="fill: #444444; stroke: #444444"/>
     <use xlink:href="#md828cbd50a" x="134.6328" y="44.829517" style="fill: #444444; stroke: #444444"/>
     <use xlink:href="#md828cbd50a" x="138.760471" y="45.879" style="fill: #444444; stroke: #444444"/>
     <use xlink:href="#md828cbd50a" x="140.136361" y="43.255294" style="fill: #444444; stroke: #444444"/>
     <use xlink:href="#md828cbd50a" x="141.512252" y="42.205812" style="fill: #444444; stroke: #444444"/>
     <use xlink:href="#md828cbd50a" x="142.888142" y="44.829517" style="fill: #444444; stroke: #444444"/>
     <use xlink:href="#md828cbd50a" x="144.264033" y="43.780035" style="fill: #444444; stroke: #444444"/>
     <use xlink:href="#md828cbd50a" x="148.391704" y="40.631589" style="fill: #444444; stroke: #444444"/>
     <use xlink:href="#md828cbd50a" x="149.767594" y="41.15633" style="fill: #444444; stroke: #444444"/>
     <use xlink:href="#md828cbd50a" x="151.143485" y="41.15633" style="fill: #444444; stroke: #444444"/>
     <use xlink:href="#md828cbd50a" x="152.519375" y="41.681071" style="fill: #444444; stroke: #444444"/>
     <use xlink:href="#md828cbd50a" x="153.895265" y="40.106848" style="fill: #444444; stroke: #444444"/>
     <use xlink:href="#md828cbd50a" x="158.022937" y="40.631589" style="fill: #444444; stroke: #444444"/>
     <use xlink:href="#md828cbd50a" x="159.398827" y="38.532624" style="fill: #444444; stroke: #444444"/>
     <use xlink:href="#md828cbd50a" x="160.774717" y="38.532624" style="fill: #444444; stroke: #444444"/>
     <use xlink:href="#md828cbd50a" x="162.150608" y="38.532624" style="fill: #444444; stroke: #444444"/>
     <use xlink:href="#md828cbd50a" x="163.526498" y="37.483142" style="fill: #444444; stroke: #444444"/>
     <use xlink:href="#md828cbd50a" x="167.65417" y="36.43366" style="fill: #444444; stroke: #444444"/>
     <use xlink:href="#md828cbd50a" x="169.03006" y="37.483142" style="fill: #444444; stroke: #444444"/>
     <use xlink:href="#md828cbd50a" x="170.40595" y="38.532624" style="fill: #444444; stroke: #444444"/>
     <use xlink:href="#md828cbd50a" x="171.781841" y="39.057366" style="fill: #444444; stroke: #444444"/>
     <use xlink:href="#md828cbd50a" x="173.157731" y="39.582107" style="fill: #444444; stroke: #444444"/>
     <use xlink:href="#md828cbd50a" x="177.285402" y="41.681071" style="fill: #444444; stroke: #444444"/>
     <use xlink:href="#md828cbd50a" x="178.661293" y="44.304776" style="fill: #444444; stroke: #444444"/>
     <use xlink:href="#md828cbd50a" x="180.037183" y="43.780035" style="fill: #444444; stroke: #444444"/>
     <use xlink:href="#md828cbd50a" x="181.413074" y="42.730553" style="fill: #444444; stroke: #444444"/>
     <use xlink:href="#md828cbd50a" x="182.788964" y="40.631589" style="fill: #444444; stroke: #444444"/>
     <use xlink:href="#md828cbd50a" x="186.916635" y="39.582107" style="fill: #444444; stroke: #444444"/>
     <use xlink:href="#md828cbd50a" x="188.292526" y="40.106848" style="fill: #444444; stroke: #444444"/>
     <use xlink:href="#md828cbd50a" x="189.668416" y="41.15633" style="fill: #444444; stroke: #444444"/>
     <use xlink:href="#md828cbd50a" x="191.044307" y="39.582107" style="fill: #444444; stroke: #444444"/>
     <use xlink:href="#md828cbd50a" x="192.420197" y="38.532624" style="fill: #444444; stroke: #444444"/>
     <use xlink:href="#md828cbd50a" x="196.547868" y="39.057366" style="fill: #444444; stroke: #444444"/>
     <use xlink:href="#md828cbd50a" x="197.923759" y="38.532624" style="fill: #444444; stroke: #444444"/>
     <use xlink:href="#md828cbd50a" x="199.299649" y="37.483142" style="fill: #444444; stroke: #444444"/>
     <use xlink:href="#md828cbd50a" x="200.675539" y="35.384178" style="fill: #444444; stroke: #444444"/>
     <use xlink:href="#md828cbd50a" x="202.05143" y="30.136767" style="fill: #444444; stroke: #444444"/>
     <use xlink:href="#md828cbd50a" x="206.179101" y="26.46358" style="fill: #444444; stroke: #444444"/>
     <use xlink:href="#md828cbd50a" x="207.554991" y="29.612026" style="fill: #444444; stroke: #444444"/>
     <use xlink:href="#md828cbd50a" x="208.930882" y="31.71099" style="fill: #444444; stroke: #444444"/>
     <use xlink:href="#md828cbd50a" x="210.306772" y="31.186249" style="fill: #444444; stroke: #444444"/>
     <use xlink:href="#md828cbd50a" x="211.682663" y="34.859437" style="fill: #444444; stroke: #444444"/>
     <use xlink:href="#md828cbd50a" x="215.810334" y="33.285214" style="fill: #444444; stroke: #444444"/>
     <use xlink:href="#md828cbd50a" x="217.186224" y="33.809955" style="fill: #444444; stroke: #444444"/>
     <use xlink:href="#md828cbd50a" x="218.562115" y="33.809955" style="fill: #444444; stroke: #444444"/>
     <use xlink:href="#md828cbd50a" x="219.938005" y="34.859437" style="fill: #444444; stroke: #444444"/>
     <use xlink:href="#md828cbd50a" x="221.313896" y="36.958401" style="fill: #444444; stroke: #444444"/>
     <use xlink:href="#md828cbd50a" x="225.441567" y="36.958401" style="fill: #444444; stroke: #444444"/>
     <use xlink:href="#md828cbd50a" x="226.817457" y="38.007883" style="fill: #444444; stroke: #444444"/>
     <use xlink:href="#md828cbd50a" x="228.193348" y="38.532624" style="fill: #444444; stroke: #444444"/>
     <use xlink:href="#md828cbd50a" x="229.569238" y="42.205812" style="fill: #444444; stroke: #444444"/>
     <use xlink:href="#md828cbd50a" x="230.945128" y="40.106848" style="fill: #444444; stroke: #444444"/>
     <use xlink:href="#md828cbd50a" x="235.0728" y="39.582107" style="fill: #444444; stroke: #444444"/>
     <use xlink:href="#md828cbd50a" x="236.44869" y="40.631589" style="fill: #444444; stroke: #444444"/>
     <use xlink:href="#md828cbd50a" x="237.82458" y="42.730553" style="fill: #444444; stroke: #444444"/>
     <use xlink:href="#md828cbd50a" x="239.200471" y="40.106848" style="fill: #444444; stroke: #444444"/>
     <use xlink:href="#md828cbd50a" x="240.576361" y="39.057366" style="fill: #444444; stroke: #444444"/>
     <use xlink:href="#md828cbd50a" x="244.704033" y="38.532624" style="fill: #444444; stroke: #444444"/>
     <use xlink:href="#md828cbd50a" x="246.079923" y="37.483142" style="fill: #444444; stroke: #444444"/>
     <use xlink:href="#md828cbd50a" x="247.455813" y="39.582107" style="fill: #444444; stroke: #444444"/>
     <use xlink:href="#md828cbd50a" x="248.831704" y="45.354258" style="fill: #444444; stroke: #444444"/>
     <use xlink:href="#md828cbd50a" x="250.207594" y="41.681071" style="fill: #444444; stroke: #444444"/>
     <use xlink:href="#md828cbd50a" x="254.335265" y="44.304776" style="fill: #444444; stroke: #444444"/>
     <use xlink:href="#md828cbd50a" x="255.711156" y="42.730553" style="fill: #444444; stroke: #444444"/>
     <use xlink:href="#md828cbd50a" x="257.087046" y="43.780035" style="fill: #444444; stroke: #444444"/>
     <use xlink:href="#md828cbd50a" x="258.462937" y="44.829517" style="fill: #444444; stroke: #444444"/>
     <use xlink:href="#md828cbd50a" x="259.838827" y="43.780035" style="fill: #444444; stroke: #444444"/>
     <use xlink:href="#md828cbd50a" x="263.966498" y="41.681071" style="fill: #444444; stroke: #444444"/>
     <use xlink:href="#md828cbd50a" x="265.342389" y="42.730553" style="fill: #444444; stroke: #444444"/>
     <use xlink:href="#md828cbd50a" x="266.718279" y="43.255294" style="fill: #444444; stroke: #444444"/>
     <use xlink:href="#md828cbd50a" x="268.09417" y="44.304776" style="fill: #444444; stroke: #444444"/>
     <use xlink:href="#md828cbd50a" x="269.47006" y="43.780035" style="fill: #444444; stroke: #444444"/>
     <use xlink:href="#md828cbd50a" x="273.597731" y="42.205812" style="fill: #444444; stroke: #444444"/>
     <use xlink:href="#md828cbd50a" x="274.973622" y="43.780035" style="fill: #444444; stroke: #444444"/>
     <use xlink:href="#md828cbd50a" x="276.349512" y="44.829517" style="fill: #444444; stroke: #444444"/>
     <use xlink:href="#md828cbd50a" x="277.725402" y="41.681071" style="fill: #444444; stroke: #444444"/>
     <use xlink:href="#md828cbd50a" x="279.101293" y="43.780035" style="fill: #444444; stroke: #444444"/>
     <use xlink:href="#md828cbd50a" x="283.228964" y="43.255294" style="fill: #444444; stroke: #444444"/>
     <use xlink:href="#md828cbd50a" x="284.604854" y="43.780035" style="fill: #444444; stroke: #444444"/>
     <use xlink:href="#md828cbd50a" x="285.980745" y="43.255294" style="fill: #444444; stroke: #444444"/>
     <use xlink:href="#md828cbd50a" x="287.356635" y="50.601669" style="fill: #444444; stroke: #444444"/>
     <use xlink:href="#md828cbd50a" x="288.732526" y="50.601669" style="fill: #444444; stroke: #444444"/>
     <use xlink:href="#md828cbd50a" x="292.860197" y="51.12641" style="fill: #444444; stroke: #444444"/>
     <use xlink:href="#md828cbd50a" x="294.236087" y="48.502705" style="fill: #444444; stroke: #444444"/>
     <use xlink:href="#md828cbd50a" x="295.611978" y="48.502705" style="fill: #444444; stroke: #444444"/>
     <use xlink:href="#md828cbd50a" x="296.987868" y="47.453223" style="fill: #444444; stroke: #444444"/>
     <use xlink:href="#md828cbd50a" x="298.363759" y="45.354258" style="fill: #444444; stroke: #444444"/>
     <use xlink:href="#md828cbd50a" x="302.49143" y="43.255294" style="fill: #444444; stroke: #444444"/>
     <use xlink:href="#md828cbd50a" x="303.86732" y="44.304776" style="fill: #444444; stroke: #444444"/>
     <use xlink:href="#md828cbd50a" x="305.243211" y="45.879" style="fill: #444444; stroke: #444444"/>
     <use xlink:href="#md828cbd50a" x="306.619101" y="45.879" style="fill: #444444; stroke: #444444"/>
     <use xlink:href="#md828cbd50a" x="307.994991" y="45.879" style="fill: #444444; stroke: #444444"/>
     <use xlink:href="#md828cbd50a" x="312.122663" y="46.928482" style="fill: #444444; stroke: #444444"/>
     <use xlink:href="#md828cbd50a" x="313.498553" y="45.354258" style="fill: #444444; stroke: #444444"/>
     <use xlink:href="#md828cbd50a" x="314.874443" y="47.977964" style="fill: #444444; stroke: #444444"/>
     <use xlink:href="#md828cbd50a" x="316.250334" y="49.552187" style="fill: #444444; stroke: #444444"/>
     <use xlink:href="#md828cbd50a" x="317.626224" y="50.601669" style="fill: #444444; stroke: #444444"/>
     <use xlink:href="#md828cbd50a" x="321.753896" y="53.225375" style="fill: #444444; stroke: #444444"/>
     <use xlink:href="#md828cbd50a" x="323.129786" y="53.225375" style="fill: #444444; stroke: #444444"/>
     <use xlink:href="#md828cbd50a" x="324.505676" y="51.651151" style="fill: #444444; stroke: #444444"/>
     <use xlink:href="#md828cbd50a" x="325.881567" y="49.027446" style="fill: #444444; stroke: #444444"/>
     <use xlink:href="#md828cbd50a" x="327.257457" y="49.027446" style="fill: #444444; stroke: #444444"/>
     <use xlink:href="#md828cbd50a" x="331.385128" y="46.928482" style="fill: #444444; stroke: #444444"/>
     <use xlink:href="#md828cbd50a" x="332.761019" y="49.027446" style="fill: #444444; stroke: #444444"/>
     <use xlink:href="#md828cbd50a" x="334.136909" y="48.502705" style="fill: #444444; stroke: #444444"/>
     <use xlink:href="#md828cbd50a" x="335.5128" y="47.977964" style="fill: #444444; stroke: #444444"/>
     <use xlink:href="#md828cbd50a" x="336.88869" y="45.354258" style="fill: #444444; stroke: #444444"/>
     <use xlink:href="#md828cbd50a" x="341.016361" y="43.780035" style="fill: #444444; stroke: #444444"/>
     <use xlink:href="#md828cbd50a" x="342.392252" y="42.730553" style="fill: #444444; stroke: #444444"/>
     <use xlink:href="#md828cbd50a" x="343.768142" y="42.205812" style="fill: #444444; stroke: #444444"/>
     <use xlink:href="#md828cbd50a" x="345.144033" y="41.681071" style="fill: #444444; stroke: #444444"/>
     <use xlink:href="#md828cbd50a" x="346.519923" y="43.255294" style="fill: #444444; stroke: #444444"/>
     <use xlink:href="#md828cbd50a" x="350.647594" y="41.681071" style="fill: #444444; stroke: #444444"/>
     <use xlink:href="#md828cbd50a" x="352.023485" y="46.928482" style="fill: #444444; stroke: #444444"/>
     <use xlink:href="#md828cbd50a" x="353.399375" y="46.928482" style="fill: #444444; stroke: #444444"/>
     <use xlink:href="#md828cbd50a" x="354.775265" y="47.453223" style="fill: #444444; stroke: #444444"/>
     <use xlink:href="#md828cbd50a" x="356.151156" y="47.977964" style="fill: #444444; stroke: #444444"/>
     <use xlink:href="#md828cbd50a" x="360.278827" y="46.928482" style="fill: #444444; stroke: #444444"/>
     <use xlink:href="#md828cbd50a" x="361.654717" y="47.453223" style="fill: #444444; stroke: #444444"/>
     <use xlink:href="#md828cbd50a" x="363.030608" y="44.829517" style="fill: #444444; stroke: #444444"/>
     <use xlink:href="#md828cbd50a" x="364.406498" y="45.354258" style="fill: #444444; stroke: #444444"/>
     <use xlink:href="#md828cbd50a" x="365.782389" y="45.879" style="fill: #444444; stroke: #444444"/>
     <use xlink:href="#md828cbd50a" x="369.91006" y="44.829517" style="fill: #444444; stroke: #444444"/>
     <use xlink:href="#md828cbd50a" x="371.28595" y="46.928482" style="fill: #444444; stroke: #444444"/>
     <use xlink:href="#md828cbd50a" x="372.661841" y="49.552187" style="fill: #444444; stroke: #444444"/>
     <use xlink:href="#md828cbd50a" x="374.037731" y="49.027446" style="fill: #444444; stroke: #444444"/>
     <use xlink:href="#md828cbd50a" x="375.413622" y="47.977964" style="fill: #444444; stroke: #444444"/>
     <use xlink:href="#md828cbd50a" x="379.541293" y="50.076928" style="fill: #444444; stroke: #444444"/>
     <use xlink:href="#md828cbd50a" x="380.917183" y="50.076928" style="fill: #444444; stroke: #444444"/>
     <use xlink:href="#md828cbd50a" x="382.293074" y="53.225375" style="fill: #444444; stroke: #444444"/>
     <use xlink:href="#md828cbd50a" x="383.668964" y="55.324339" style="fill: #444444; stroke: #444444"/>
     <use xlink:href="#md828cbd50a" x="385.044854" y="54.799598" style="fill: #444444; stroke: #444444"/>
     <use xlink:href="#md828cbd50a" x="389.172526" y="53.750116" style="fill: #444444; stroke: #444444"/>
     <use xlink:href="#md828cbd50a" x="390.548416" y="55.84908" style="fill: #444444; stroke: #444444"/>
     <use xlink:href="#md828cbd50a" x="391.924307" y="54.274857" style="fill: #444444; stroke: #444444"/>
     <use xlink:href="#md828cbd50a" x="393.300197" y="54.274857" style="fill: #444444; stroke: #444444"/>
     <use xlink:href="#md828cbd50a" x="394.676087" y="52.700634" style="fill: #444444; stroke: #444444"/>
     <use xlink:href="#md828cbd50a" x="398.803759" y="53.225375" style="fill: #444444; stroke: #444444"/>
     <use xlink:href="#md828cbd50a" x="400.179649" y="54.799598" style="fill: #444444; stroke: #444444"/>
     <use xlink:href="#md828cbd50a" x="401.555539" y="58.472786" style="fill: #444444; stroke: #444444"/>
     <use xlink:href="#md828cbd50a" x="402.93143" y="60.57175" style="fill: #444444; stroke: #444444"/>
     <use xlink:href="#md828cbd50a" x="404.30732" y="57.948044" style="fill: #444444; stroke: #444444"/>
     <use xlink:href="#md828cbd50a" x="408.434991" y="58.997527" style="fill: #444444; stroke: #444444"/>
     <use xlink:href="#md828cbd50a" x="409.810882" y="57.948044" style="fill: #444444; stroke: #444444"/>
     <use xlink:href="#md828cbd50a" x="411.186772" y="60.047009" style="fill: #444444; stroke: #444444"/>
     <use xlink:href="#md828cbd50a" x="412.562663" y="58.472786" style="fill: #444444; stroke: #444444"/>
     <use xlink:href="#md828cbd50a" x="413.938553" y="56.898562" style="fill: #444444; stroke: #444444"/>
     <use xlink:href="#md828cbd50a" x="418.066224" y="56.898562" style="fill: #444444; stroke: #444444"/>
     <use xlink:href="#md828cbd50a" x="419.442115" y="57.423303" style="fill: #444444; stroke: #444444"/>
     <use xlink:href="#md828cbd50a" x="420.818005" y="58.472786" style="fill: #444444; stroke: #444444"/>
     <use xlink:href="#md828cbd50a" x="422.193896" y="59.522268" style="fill: #444444; stroke: #444444"/>
     <use xlink:href="#md828cbd50a" x="423.569786" y="60.57175" style="fill: #444444; stroke: #444444"/>
     <use xlink:href="#md828cbd50a" x="427.697457" y="61.096491" style="fill: #444444; stroke: #444444"/>
     <use xlink:href="#md828cbd50a" x="429.073348" y="62.145973" style="fill: #444444; stroke: #444444"/>
     <use xlink:href="#md828cbd50a" x="430.449238" y="62.670714" style="fill: #444444; stroke: #444444"/>
     <use xlink:href="#md828cbd50a" x="431.825128" y="62.145973" style="fill: #444444; stroke: #444444"/>
     <use xlink:href="#md828cbd50a" x="433.201019" y="63.720196" style="fill: #444444; stroke: #444444"/>
     <use xlink:href="#md828cbd50a" x="437.32869" y="63.720196" style="fill: #444444; stroke: #444444"/>
     <use xlink:href="#md828cbd50a" x="438.70458" y="64.769679" style="fill: #444444; stroke: #444444"/>
     <use xlink:href="#md828cbd50a" x="440.080471" y="65.29442" style="fill: #444444; stroke: #444444"/>
     <use xlink:href="#md828cbd50a" x="441.456361" y="63.195455" style="fill: #444444; stroke: #444444"/>
     <use xlink:href="#md828cbd50a" x="442.832252" y="63.195455" style="fill: #444444; stroke: #444444"/>
     <use xlink:href="#md828cbd50a" x="446.959923" y="62.145973" style="fill: #444444; stroke: #444444"/>
     <use xlink:href="#md828cbd50a" x="448.335813" y="63.720196" style="fill: #444444; stroke: #444444"/>
     <use xlink:href="#md828cbd50a" x="449.711704" y="62.145973" style="fill: #444444; stroke: #444444"/>
     <use xlink:href="#md828cbd50a" x="451.087594" y="61.096491" style="fill: #444444; stroke: #444444"/>
     <use xlink:href="#md828cbd50a" x="452.463485" y="64.769679" style="fill: #444444; stroke: #444444"/>
     <use xlink:href="#md828cbd50a" x="456.591156" y="65.29442" style="fill: #444444; stroke: #444444"/>
     <use xlink:href="#md828cbd50a" x="457.967046" y="65.29442" style="fill: #444444; stroke: #444444"/>
     <use xlink:href="#md828cbd50a" x="459.342937" y="65.819161" style="fill: #444444; stroke: #444444"/>
     <use xlink:href="#md828cbd50a" x="460.718827" y="65.29442" style="fill: #444444; stroke: #444444"/>
     <use xlink:href="#md828cbd50a" x="462.094717" y="62.670714" style="fill: #444444; stroke: #444444"/>
     <use xlink:href="#md828cbd50a" x="466.222389" y="63.195455" style="fill: #444444; stroke: #444444"/>
     <use xlink:href="#md828cbd50a" x="467.598279" y="64.244937" style="fill: #444444; stroke: #444444"/>
     <use xlink:href="#md828cbd50a" x="468.97417" y="64.769679" style="fill: #444444; stroke: #444444"/>
     <use xlink:href="#md828cbd50a" x="470.35006" y="63.195455" style="fill: #444444; stroke: #444444"/>
     <use xlink:href="#md828cbd50a" x="471.72595" y="63.720196" style="fill: #444444; stroke: #444444"/>
     <use xlink:href="#md828cbd50a" x="475.853622" y="64.769679" style="fill: #444444; stroke: #444444"/>
     <use xlink:href="#md828cbd50a" x="477.229512" y="64.244937" style="fill: #444444; stroke: #444444"/>
     <use xlink:href="#md828cbd50a" x="478.605402" y="64.769679" style="fill: #444444; stroke: #444444"/>
     <use xlink:href="#md828cbd50a" x="479.981293" y="64.769679" style="fill: #444444; stroke: #444444"/>
     <use xlink:href="#md828cbd50a" x="481.357183" y="65.819161" style="fill: #444444; stroke: #444444"/>
     <use xlink:href="#md828cbd50a" x="485.484854" y="66.868643" style="fill: #444444; stroke: #444444"/>
     <use xlink:href="#md828cbd50a" x="486.860745" y="66.868643" style="fill: #444444; stroke: #444444"/>
     <use xlink:href="#md828cbd50a" x="488.236635" y="67.918125" style="fill: #444444; stroke: #444444"/>
     <use xlink:href="#md828cbd50a" x="489.612526" y="67.393384" style="fill: #444444; stroke: #444444"/>
     <use xlink:href="#md828cbd50a" x="490.988416" y="64.769679" style="fill: #444444; stroke: #444444"/>
     <use xlink:href="#md828cbd50a" x="495.116087" y="64.769679" style="fill: #444444; stroke: #444444"/>
     <use xlink:href="#md828cbd50a" x="496.491978" y="65.29442" style="fill: #444444; stroke: #444444"/>
     <use xlink:href="#md828cbd50a" x="497.867868" y="65.819161" style="fill: #444444; stroke: #444444"/>
     <use xlink:href="#md828cbd50a" x="499.243759" y="66.343902" style="fill: #444444; stroke: #444444"/>
     <use xlink:href="#md828cbd50a" x="500.619649" y="65.819161" style="fill: #444444; stroke: #444444"/>
     <use xlink:href="#md828cbd50a" x="504.74732" y="65.29442" style="fill: #444444; stroke: #444444"/>
     <use xlink:href="#md828cbd50a" x="506.123211" y="64.244937" style="fill: #444444; stroke: #444444"/>
     <use xlink:href="#md828cbd50a" x="507.499101" y="63.720196" style="fill: #444444; stroke: #444444"/>
     <use xlink:href="#md828cbd50a" x="508.874991" y="64.769679" style="fill: #444444; stroke: #444444"/>
     <use xlink:href="#md828cbd50a" x="510.250882" y="63.195455" style="fill: #444444; stroke: #444444"/>
     <use xlink:href="#md828cbd50a" x="514.378553" y="63.195455" style="fill: #444444; stroke: #444444"/>
     <use xlink:href="#md828cbd50a" x="515.754443" y="63.195455" style="fill: #444444; stroke: #444444"/>
     <use xlink:href="#md828cbd50a" x="517.130334" y="63.195455" style="fill: #444444; stroke: #444444"/>
     <use xlink:href="#md828cbd50a" x="518.506224" y="61.096491" style="fill: #444444; stroke: #444444"/>
     <use xlink:href="#md828cbd50a" x="519.882115" y="60.047009" style="fill: #444444; stroke: #444444"/>
     <use xlink:href="#md828cbd50a" x="524.009786" y="58.997527" style="fill: #444444; stroke: #444444"/>
     <use xlink:href="#md828cbd50a" x="525.385676" y="60.57175" style="fill: #444444; stroke: #444444"/>
     <use xlink:href="#md828cbd50a" x="526.761567" y="58.997527" style="fill: #444444; stroke: #444444"/>
     <use xlink:href="#md828cbd50a" x="528.137457" y="58.997527" style="fill: #444444; stroke: #444444"/>
     <use xlink:href="#md828cbd50a" x="529.513348" y="58.472786" style="fill: #444444; stroke: #444444"/>
     <use xlink:href="#md828cbd50a" x="533.641019" y="57.948044" style="fill: #444444; stroke: #444444"/>
     <use xlink:href="#md828cbd50a" x="535.016909" y="57.423303" style="fill: #444444; stroke: #444444"/>
     <use xlink:href="#md828cbd50a" x="536.3928" y="60.57175" style="fill: #444444; stroke: #444444"/>
     <use xlink:href="#md828cbd50a" x="537.76869" y="61.096491" style="fill: #444444; stroke: #444444"/>
     <use xlink:href="#md828cbd50a" x="539.14458" y="60.047009" style="fill: #444444; stroke: #444444"/>
     <use xlink:href="#md828cbd50a" x="543.272252" y="58.472786" style="fill: #444444; stroke: #444444"/>
     <use xlink:href="#md828cbd50a" x="544.648142" y="59.522268" style="fill: #444444; stroke: #444444"/>
     <use xlink:href="#md828cbd50a" x="546.024033" y="60.047009" style="fill: #444444; stroke: #444444"/>
     <use xlink:href="#md828cbd50a" x="547.399923" y="60.047009" style="fill: #444444; stroke: #444444"/>
     <use xlink:href="#md828cbd50a" x="548.775813" y="63.720196" style="fill: #444444; stroke: #444444"/>
     <use xlink:href="#md828cbd50a" x="554.279375" y="61.621232" style="fill: #444444; stroke: #444444"/>
    </g>
   </g>
   <g id="line2d_34">
    <path d="M 52.079375 109.37267 
L 554.279375 109.37267 
" clip-path="url(#p203bef321f)" style="fill: none; stroke: #000000; stroke-linecap: square"/>
   </g>
   <g id="patch_3">
    <path d="M 52.079375 113.518125 
L 52.079375 22.318125 
" style="fill: none; stroke: #000000; stroke-width: 0.8; stroke-linejoin: miter; stroke-linecap: square"/>
   </g>
   <g id="patch_4">
    <path d="M 554.279375 113.518125 
L 554.279375 22.318125 
" style="fill: none; stroke: #000000; stroke-width: 0.8; stroke-linejoin: miter; stroke-linecap: square"/>
   </g>
   <g id="patch_5">
    <path d="M 52.079375 113.518125 
L 554.279375 113.518125 
" style="fill: none; stroke: #000000; stroke-width: 0.8; stroke-linejoin: miter; stroke-linecap: square"/>
   </g>
   <g id="patch_6">
    <path d="M 52.079375 22.318125 
L 554.279375 22.318125 
" style="fill: none; stroke: #000000; stroke-width: 0.8; stroke-linejoin: miter; stroke-linecap: square"/>
   </g>
   <g id="text_18">
    <!-- UST10  GoC10 Spread (bp) -->
    <g transform="translate(219.479375 16.318125) scale(0.12 -0.12)">
     <defs>
      <path id="DejaVuSans-55" d="M 556 4666 
L 1191 4666 
L 1191 1831 
Q 1191 1081 1462 751 
Q 1734 422 2344 422 
Q 2950 422 3222 751 
Q 3494 1081 3494 1831 
L 3494 4666 
L 4128 4666 
L 4128 1753 
Q 4128 841 3676 375 
Q 3225 -91 2344 -91 
Q 1459 -91 1007 375 
Q 556 841 556 1753 
L 556 4666 
z
" transform="scale(0.015625)"/>
      <path id="DejaVuSans-53" d="M 3425 4513 
L 3425 3897 
Q 3066 4069 2747 4153 
Q 2428 4238 2131 4238 
Q 1616 4238 1336 4038 
Q 1056 3838 1056 3469 
Q 1056 3159 1242 3001 
Q 1428 2844 1947 2747 
L 2328 2669 
Q 3034 2534 3370 2195 
Q 3706 1856 3706 1288 
Q 3706 609 3251 259 
Q 2797 -91 1919 -91 
Q 1588 -91 1214 -16 
Q 841 59 441 206 
L 441 856 
Q 825 641 1194 531 
Q 1563 422 1919 422 
Q 2459 422 2753 634 
Q 3047 847 3047 1241 
Q 3047 1584 2836 1778 
Q 2625 1972 2144 2069 
L 1759 2144 
Q 1053 2284 737 2584 
Q 422 2884 422 3419 
Q 422 4038 858 4394 
Q 1294 4750 2059 4750 
Q 2388 4750 2728 4690 
Q 3069 4631 3425 4513 
z
" transform="scale(0.015625)"/>
      <path id="DejaVuSans-54" d="M -19 4666 
L 3928 4666 
L 3928 4134 
L 2272 4134 
L 2272 0 
L 1638 0 
L 1638 4134 
L -19 4134 
L -19 4666 
z
" transform="scale(0.015625)"/>
      <path id="DejaVuSans-20" transform="scale(0.015625)"/>
      <path id="DejaVuSans-2013" d="M 313 1978 
L 2888 1978 
L 2888 1528 
L 313 1528 
L 313 1978 
z
" transform="scale(0.015625)"/>
      <path id="DejaVuSans-47" d="M 3809 666 
L 3809 1919 
L 2778 1919 
L 2778 2438 
L 4434 2438 
L 4434 434 
Q 4069 175 3628 42 
Q 3188 -91 2688 -91 
Q 1594 -91 976 548 
Q 359 1188 359 2328 
Q 359 3472 976 4111 
Q 1594 4750 2688 4750 
Q 3144 4750 3555 4637 
Q 3966 4525 4313 4306 
L 4313 3634 
Q 3963 3931 3569 4081 
Q 3175 4231 2741 4231 
Q 1884 4231 1454 3753 
Q 1025 3275 1025 2328 
Q 1025 1384 1454 906 
Q 1884 428 2741 428 
Q 3075 428 3337 486 
Q 3600 544 3809 666 
z
" transform="scale(0.015625)"/>
      <path id="DejaVuSans-6f" d="M 1959 3097 
Q 1497 3097 1228 2736 
Q 959 2375 959 1747 
Q 959 1119 1226 758 
Q 1494 397 1959 397 
Q 2419 397 2687 759 
Q 2956 1122 2956 1747 
Q 2956 2369 2687 2733 
Q 2419 3097 1959 3097 
z
M 1959 3584 
Q 2709 3584 3137 3096 
Q 3566 2609 3566 1747 
Q 3566 888 3137 398 
Q 2709 -91 1959 -91 
Q 1206 -91 779 398 
Q 353 888 353 1747 
Q 353 2609 779 3096 
Q 1206 3584 1959 3584 
z
" transform="scale(0.015625)"/>
      <path id="DejaVuSans-43" d="M 4122 4306 
L 4122 3641 
Q 3803 3938 3442 4084 
Q 3081 4231 2675 4231 
Q 1875 4231 1450 3742 
Q 1025 3253 1025 2328 
Q 1025 1406 1450 917 
Q 1875 428 2675 428 
Q 3081 428 3442 575 
Q 3803 722 4122 1019 
L 4122 359 
Q 3791 134 3420 21 
Q 3050 -91 2638 -91 
Q 1578 -91 968 557 
Q 359 1206 359 2328 
Q 359 3453 968 4101 
Q 1578 4750 2638 4750 
Q 3056 4750 3426 4639 
Q 3797 4528 4122 4306 
z
" transform="scale(0.015625)"/>
      <path id="DejaVuSans-72" d="M 2631 2963 
Q 2534 3019 2420 3045 
Q 2306 3072 2169 3072 
Q 1681 3072 1420 2755 
Q 1159 2438 1159 1844 
L 1159 0 
L 581 0 
L 581 3500 
L 1159 3500 
L 1159 2956 
Q 1341 3275 1631 3429 
Q 1922 3584 2338 3584 
Q 2397 3584 2469 3576 
Q 2541 3569 2628 3553 
L 2631 2963 
z
" transform="scale(0.015625)"/>
      <path id="DejaVuSans-65" d="M 3597 1894 
L 3597 1613 
L 953 1613 
Q 991 1019 1311 708 
Q 1631 397 2203 397 
Q 2534 397 2845 478 
Q 3156 559 3463 722 
L 3463 178 
Q 3153 47 2828 -22 
Q 2503 -91 2169 -91 
Q 1331 -91 842 396 
Q 353 884 353 1716 
Q 353 2575 817 3079 
Q 1281 3584 2069 3584 
Q 2775 3584 3186 3129 
Q 3597 2675 3597 1894 
z
M 3022 2063 
Q 3016 2534 2758 2815 
Q 2500 3097 2075 3097 
Q 1594 3097 1305 2825 
Q 1016 2553 972 2059 
L 3022 2063 
z
" transform="scale(0.015625)"/>
      <path id="DejaVuSans-61" d="M 2194 1759 
Q 1497 1759 1228 1600 
Q 959 1441 959 1056 
Q 959 750 1161 570 
Q 1363 391 1709 391 
Q 2188 391 2477 730 
Q 2766 1069 2766 1631 
L 2766 1759 
L 2194 1759 
z
M 3341 1997 
L 3341 0 
L 2766 0 
L 2766 531 
Q 2569 213 2275 61 
Q 1981 -91 1556 -91 
Q 1019 -91 701 211 
Q 384 513 384 1019 
Q 384 1609 779 1909 
Q 1175 2209 1959 2209 
L 2766 2209 
L 2766 2266 
Q 2766 2663 2505 2880 
Q 2244 3097 1772 3097 
Q 1472 3097 1187 3025 
Q 903 2953 641 2809 
L 641 3341 
Q 956 3463 1253 3523 
Q 1550 3584 1831 3584 
Q 2591 3584 2966 3190 
Q 3341 2797 3341 1997 
z
" transform="scale(0.015625)"/>
      <path id="DejaVuSans-64" d="M 2906 2969 
L 2906 4863 
L 3481 4863 
L 3481 0 
L 2906 0 
L 2906 525 
Q 2725 213 2448 61 
Q 2172 -91 1784 -91 
Q 1150 -91 751 415 
Q 353 922 353 1747 
Q 353 2572 751 3078 
Q 1150 3584 1784 3584 
Q 2172 3584 2448 3432 
Q 2725 3281 2906 2969 
z
M 947 1747 
Q 947 1113 1208 752 
Q 1469 391 1925 391 
Q 2381 391 2643 752 
Q 2906 1113 2906 1747 
Q 2906 2381 2643 2742 
Q 2381 3103 1925 3103 
Q 1469 3103 1208 2742 
Q 947 2381 947 1747 
z
" transform="scale(0.015625)"/>
      <path id="DejaVuSans-28" d="M 1984 4856 
Q 1566 4138 1362 3434 
Q 1159 2731 1159 2009 
Q 1159 1288 1364 580 
Q 1569 -128 1984 -844 
L 1484 -844 
Q 1016 -109 783 600 
Q 550 1309 550 2009 
Q 550 2706 781 3412 
Q 1013 4119 1484 4856 
L 1984 4856 
z
" transform="scale(0.015625)"/>
      <path id="DejaVuSans-29" d="M 513 4856 
L 1013 4856 
Q 1481 4119 1714 3412 
Q 1947 2706 1947 2009 
Q 1947 1309 1714 600 
Q 1481 -109 1013 -844 
L 513 -844 
Q 928 -128 1133 580 
Q 1338 1288 1338 2009 
Q 1338 2731 1133 3434 
Q 928 4138 513 4856 
z
" transform="scale(0.015625)"/>
     </defs>
     <use xlink:href="#DejaVuSans-55"/>
     <use xlink:href="#DejaVuSans-53" transform="translate(73.193359 0)"/>
     <use xlink:href="#DejaVuSans-54" transform="translate(136.669922 0)"/>
     <use xlink:href="#DejaVuSans-31" transform="translate(197.753906 0)"/>
     <use xlink:href="#DejaVuSans-30" transform="translate(261.376953 0)"/>
     <use xlink:href="#DejaVuSans-20" transform="translate(325 0)"/>
     <use xlink:href="#DejaVuSans-2013" transform="translate(356.787109 0)"/>
     <use xlink:href="#DejaVuSans-20" transform="translate(406.787109 0)"/>
     <use xlink:href="#DejaVuSans-47" transform="translate(438.574219 0)"/>
     <use xlink:href="#DejaVuSans-6f" transform="translate(516.064453 0)"/>
     <use xlink:href="#DejaVuSans-43" transform="translate(577.246094 0)"/>
     <use xlink:href="#DejaVuSans-31" transform="translate(647.070312 0)"/>
     <use xlink:href="#DejaVuSans-30" transform="translate(710.693359 0)"/>
     <use xlink:href="#DejaVuSans-20" transform="translate(774.316406 0)"/>
     <use xlink:href="#DejaVuSans-53" transform="translate(806.103516 0)"/>
     <use xlink:href="#DejaVuSans-70" transform="translate(869.580078 0)"/>
     <use xlink:href="#DejaVuSans-72" transform="translate(933.056641 0)"/>
     <use xlink:href="#DejaVuSans-65" transform="translate(971.919922 0)"/>
     <use xlink:href="#DejaVuSans-61" transform="translate(1033.443359 0)"/>
     <use xlink:href="#DejaVuSans-64" transform="translate(1094.722656 0)"/>
     <use xlink:href="#DejaVuSans-20" transform="translate(1158.199219 0)"/>
     <use xlink:href="#DejaVuSans-28" transform="translate(1189.986328 0)"/>
     <use xlink:href="#DejaVuSans-62" transform="translate(1229 0)"/>
     <use xlink:href="#DejaVuSans-70" transform="translate(1292.476562 0)"/>
     <use xlink:href="#DejaVuSans-29" transform="translate(1355.953125 0)"/>
    </g>
   </g>
  </g>
  <g id="axes_2">
   <g id="patch_7">
    <path d="M 52.079375 188.638125 
L 554.279375 188.638125 
L 554.279375 156.718125 
L 52.079375 156.718125 
z
" style="fill: #ffffff"/>
   </g>
   <g id="matplotlib.axis_3">
    <g id="xtick_13">
     <g id="line2d_35">
      <path d="M 76.845402 188.638125 
L 76.845402 156.718125 
" clip-path="url(#p1a8c2ea348)" style="fill: none; stroke: #b0b0b0; stroke-opacity: 0.15; stroke-width: 0.8; stroke-linecap: square"/>
     </g>
     <g id="line2d_36">
      <g>
       <use xlink:href="#m674f4c0a0d" x="76.845402" y="188.638125" style="stroke: #000000; stroke-width: 0.8"/>
      </g>
     </g>
     <g id="text_19">
      <!-- 2024-11 -->
      <g transform="translate(45.829931 230.555942) rotate(-45) scale(0.1 -0.1)">
       <use xlink:href="#DejaVuSans-32"/>
       <use xlink:href="#DejaVuSans-30" transform="translate(63.623047 0)"/>
       <use xlink:href="#DejaVuSans-32" transform="translate(127.246094 0)"/>
       <use xlink:href="#DejaVuSans-34" transform="translate(190.869141 0)"/>
       <use xlink:href="#DejaVuSans-2d" transform="translate(254.492188 0)"/>
       <use xlink:href="#DejaVuSans-31" transform="translate(290.576172 0)"/>
       <use xlink:href="#DejaVuSans-31" transform="translate(354.199219 0)"/>
      </g>
     </g>
    </g>
    <g id="xtick_14">
     <g id="line2d_37">
      <path d="M 118.122115 188.638125 
L 118.122115 156.718125 
" clip-path="url(#p1a8c2ea348)" style="fill: none; stroke: #b0b0b0; stroke-opacity: 0.15; stroke-width: 0.8; stroke-linecap: square"/>
     </g>
     <g id="line2d_38">
      <g>
       <use xlink:href="#m674f4c0a0d" x="118.122115" y="188.638125" style="stroke: #000000; stroke-width: 0.8"/>
      </g>
     </g>
     <g id="text_20">
      <!-- 2024-12 -->
      <g transform="translate(87.106644 230.555942) rotate(-45) scale(0.1 -0.1)">
       <use xlink:href="#DejaVuSans-32"/>
       <use xlink:href="#DejaVuSans-30" transform="translate(63.623047 0)"/>
       <use xlink:href="#DejaVuSans-32" transform="translate(127.246094 0)"/>
       <use xlink:href="#DejaVuSans-34" transform="translate(190.869141 0)"/>
       <use xlink:href="#DejaVuSans-2d" transform="translate(254.492188 0)"/>
       <use xlink:href="#DejaVuSans-31" transform="translate(290.576172 0)"/>
       <use xlink:href="#DejaVuSans-32" transform="translate(354.199219 0)"/>
      </g>
     </g>
    </g>
    <g id="xtick_15">
     <g id="line2d_39">
      <path d="M 160.774717 188.638125 
L 160.774717 156.718125 
" clip-path="url(#p1a8c2ea348)" style="fill: none; stroke: #b0b0b0; stroke-opacity: 0.15; stroke-width: 0.8; stroke-linecap: square"/>
     </g>
     <g id="line2d_40">
      <g>
       <use xlink:href="#m674f4c0a0d" x="160.774717" y="188.638125" style="stroke: #000000; stroke-width: 0.8"/>
      </g>
     </g>
     <g id="text_21">
      <!-- 2025-01 -->
      <g transform="translate(129.759246 230.555942) rotate(-45) scale(0.1 -0.1)">
       <use xlink:href="#DejaVuSans-32"/>
       <use xlink:href="#DejaVuSans-30" transform="translate(63.623047 0)"/>
       <use xlink:href="#DejaVuSans-32" transform="translate(127.246094 0)"/>
       <use xlink:href="#DejaVuSans-35" transform="translate(190.869141 0)"/>
       <use xlink:href="#DejaVuSans-2d" transform="translate(254.492188 0)"/>
       <use xlink:href="#DejaVuSans-30" transform="translate(290.576172 0)"/>
       <use xlink:href="#DejaVuSans-31" transform="translate(354.199219 0)"/>
      </g>
     </g>
    </g>
    <g id="xtick_16">
     <g id="line2d_41">
      <path d="M 203.42732 188.638125 
L 203.42732 156.718125 
" clip-path="url(#p1a8c2ea348)" style="fill: none; stroke: #b0b0b0; stroke-opacity: 0.15; stroke-width: 0.8; stroke-linecap: square"/>
     </g>
     <g id="line2d_42">
      <g>
       <use xlink:href="#m674f4c0a0d" x="203.42732" y="188.638125" style="stroke: #000000; stroke-width: 0.8"/>
      </g>
     </g>
     <g id="text_22">
      <!-- 2025-02 -->
      <g transform="translate(172.411849 230.555942) rotate(-45) scale(0.1 -0.1)">
       <use xlink:href="#DejaVuSans-32"/>
       <use xlink:href="#DejaVuSans-30" transform="translate(63.623047 0)"/>
       <use xlink:href="#DejaVuSans-32" transform="translate(127.246094 0)"/>
       <use xlink:href="#DejaVuSans-35" transform="translate(190.869141 0)"/>
       <use xlink:href="#DejaVuSans-2d" transform="translate(254.492188 0)"/>
       <use xlink:href="#DejaVuSans-30" transform="translate(290.576172 0)"/>
       <use xlink:href="#DejaVuSans-32" transform="translate(354.199219 0)"/>
      </g>
     </g>
    </g>
    <g id="xtick_17">
     <g id="line2d_43">
      <path d="M 241.952252 188.638125 
L 241.952252 156.718125 
" clip-path="url(#p1a8c2ea348)" style="fill: none; stroke: #b0b0b0; stroke-opacity: 0.15; stroke-width: 0.8; stroke-linecap: square"/>
     </g>
     <g id="line2d_44">
      <g>
       <use xlink:href="#m674f4c0a0d" x="241.952252" y="188.638125" style="stroke: #000000; stroke-width: 0.8"/>
      </g>
     </g>
     <g id="text_23">
      <!-- 2025-03 -->
      <g transform="translate(210.936781 230.555942) rotate(-45) scale(0.1 -0.1)">
       <use xlink:href="#DejaVuSans-32"/>
       <use xlink:href="#DejaVuSans-30" transform="translate(63.623047 0)"/>
       <use xlink:href="#DejaVuSans-32" transform="translate(127.246094 0)"/>
       <use xlink:href="#DejaVuSans-35" transform="translate(190.869141 0)"/>
       <use xlink:href="#DejaVuSans-2d" transform="translate(254.492188 0)"/>
       <use xlink:href="#DejaVuSans-30" transform="translate(290.576172 0)"/>
       <use xlink:href="#DejaVuSans-33" transform="translate(354.199219 0)"/>
      </g>
     </g>
    </g>
    <g id="xtick_18">
     <g id="line2d_45">
      <path d="M 284.604854 188.638125 
L 284.604854 156.718125 
" clip-path="url(#p1a8c2ea348)" style="fill: none; stroke: #b0b0b0; stroke-opacity: 0.15; stroke-width: 0.8; stroke-linecap: square"/>
     </g>
     <g id="line2d_46">
      <g>
       <use xlink:href="#m674f4c0a0d" x="284.604854" y="188.638125" style="stroke: #000000; stroke-width: 0.8"/>
      </g>
     </g>
     <g id="text_24">
      <!-- 2025-04 -->
      <g transform="translate(253.589383 230.555942) rotate(-45) scale(0.1 -0.1)">
       <use xlink:href="#DejaVuSans-32"/>
       <use xlink:href="#DejaVuSans-30" transform="translate(63.623047 0)"/>
       <use xlink:href="#DejaVuSans-32" transform="translate(127.246094 0)"/>
       <use xlink:href="#DejaVuSans-35" transform="translate(190.869141 0)"/>
       <use xlink:href="#DejaVuSans-2d" transform="translate(254.492188 0)"/>
       <use xlink:href="#DejaVuSans-30" transform="translate(290.576172 0)"/>
       <use xlink:href="#DejaVuSans-34" transform="translate(354.199219 0)"/>
      </g>
     </g>
    </g>
    <g id="xtick_19">
     <g id="line2d_47">
      <path d="M 325.881567 188.638125 
L 325.881567 156.718125 
" clip-path="url(#p1a8c2ea348)" style="fill: none; stroke: #b0b0b0; stroke-opacity: 0.15; stroke-width: 0.8; stroke-linecap: square"/>
     </g>
     <g id="line2d_48">
      <g>
       <use xlink:href="#m674f4c0a0d" x="325.881567" y="188.638125" style="stroke: #000000; stroke-width: 0.8"/>
      </g>
     </g>
     <g id="text_25">
      <!-- 2025-05 -->
      <g transform="translate(294.866096 230.555942) rotate(-45) scale(0.1 -0.1)">
       <use xlink:href="#DejaVuSans-32"/>
       <use xlink:href="#DejaVuSans-30" transform="translate(63.623047 0)"/>
       <use xlink:href="#DejaVuSans-32" transform="translate(127.246094 0)"/>
       <use xlink:href="#DejaVuSans-35" transform="translate(190.869141 0)"/>
       <use xlink:href="#DejaVuSans-2d" transform="translate(254.492188 0)"/>
       <use xlink:href="#DejaVuSans-30" transform="translate(290.576172 0)"/>
       <use xlink:href="#DejaVuSans-35" transform="translate(354.199219 0)"/>
      </g>
     </g>
    </g>
    <g id="xtick_20">
     <g id="line2d_49">
      <path d="M 368.53417 188.638125 
L 368.53417 156.718125 
" clip-path="url(#p1a8c2ea348)" style="fill: none; stroke: #b0b0b0; stroke-opacity: 0.15; stroke-width: 0.8; stroke-linecap: square"/>
     </g>
     <g id="line2d_50">
      <g>
       <use xlink:href="#m674f4c0a0d" x="368.53417" y="188.638125" style="stroke: #000000; stroke-width: 0.8"/>
      </g>
     </g>
     <g id="text_26">
      <!-- 2025-06 -->
      <g transform="translate(337.518698 230.555942) rotate(-45) scale(0.1 -0.1)">
       <use xlink:href="#DejaVuSans-32"/>
       <use xlink:href="#DejaVuSans-30" transform="translate(63.623047 0)"/>
       <use xlink:href="#DejaVuSans-32" transform="translate(127.246094 0)"/>
       <use xlink:href="#DejaVuSans-35" transform="translate(190.869141 0)"/>
       <use xlink:href="#DejaVuSans-2d" transform="translate(254.492188 0)"/>
       <use xlink:href="#DejaVuSans-30" transform="translate(290.576172 0)"/>
       <use xlink:href="#DejaVuSans-36" transform="translate(354.199219 0)"/>
      </g>
     </g>
    </g>
    <g id="xtick_21">
     <g id="line2d_51">
      <path d="M 409.810882 188.638125 
L 409.810882 156.718125 
" clip-path="url(#p1a8c2ea348)" style="fill: none; stroke: #b0b0b0; stroke-opacity: 0.15; stroke-width: 0.8; stroke-linecap: square"/>
     </g>
     <g id="line2d_52">
      <g>
       <use xlink:href="#m674f4c0a0d" x="409.810882" y="188.638125" style="stroke: #000000; stroke-width: 0.8"/>
      </g>
     </g>
     <g id="text_27">
      <!-- 2025-07 -->
      <g transform="translate(378.795411 230.555942) rotate(-45) scale(0.1 -0.1)">
       <use xlink:href="#DejaVuSans-32"/>
       <use xlink:href="#DejaVuSans-30" transform="translate(63.623047 0)"/>
       <use xlink:href="#DejaVuSans-32" transform="translate(127.246094 0)"/>
       <use xlink:href="#DejaVuSans-35" transform="translate(190.869141 0)"/>
       <use xlink:href="#DejaVuSans-2d" transform="translate(254.492188 0)"/>
       <use xlink:href="#DejaVuSans-30" transform="translate(290.576172 0)"/>
       <use xlink:href="#DejaVuSans-37" transform="translate(354.199219 0)"/>
      </g>
     </g>
    </g>
    <g id="xtick_22">
     <g id="line2d_53">
      <path d="M 452.463485 188.638125 
L 452.463485 156.718125 
" clip-path="url(#p1a8c2ea348)" style="fill: none; stroke: #b0b0b0; stroke-opacity: 0.15; stroke-width: 0.8; stroke-linecap: square"/>
     </g>
     <g id="line2d_54">
      <g>
       <use xlink:href="#m674f4c0a0d" x="452.463485" y="188.638125" style="stroke: #000000; stroke-width: 0.8"/>
      </g>
     </g>
     <g id="text_28">
      <!-- 2025-08 -->
      <g transform="translate(421.448013 230.555942) rotate(-45) scale(0.1 -0.1)">
       <use xlink:href="#DejaVuSans-32"/>
       <use xlink:href="#DejaVuSans-30" transform="translate(63.623047 0)"/>
       <use xlink:href="#DejaVuSans-32" transform="translate(127.246094 0)"/>
       <use xlink:href="#DejaVuSans-35" transform="translate(190.869141 0)"/>
       <use xlink:href="#DejaVuSans-2d" transform="translate(254.492188 0)"/>
       <use xlink:href="#DejaVuSans-30" transform="translate(290.576172 0)"/>
       <use xlink:href="#DejaVuSans-38" transform="translate(354.199219 0)"/>
      </g>
     </g>
    </g>
    <g id="xtick_23">
     <g id="line2d_55">
      <path d="M 495.116087 188.638125 
L 495.116087 156.718125 
" clip-path="url(#p1a8c2ea348)" style="fill: none; stroke: #b0b0b0; stroke-opacity: 0.15; stroke-width: 0.8; stroke-linecap: square"/>
     </g>
     <g id="line2d_56">
      <g>
       <use xlink:href="#m674f4c0a0d" x="495.116087" y="188.638125" style="stroke: #000000; stroke-width: 0.8"/>
      </g>
     </g>
     <g id="text_29">
      <!-- 2025-09 -->
      <g transform="translate(464.100616 230.555942) rotate(-45) scale(0.1 -0.1)">
       <use xlink:href="#DejaVuSans-32"/>
       <use xlink:href="#DejaVuSans-30" transform="translate(63.623047 0)"/>
       <use xlink:href="#DejaVuSans-32" transform="translate(127.246094 0)"/>
       <use xlink:href="#DejaVuSans-35" transform="translate(190.869141 0)"/>
       <use xlink:href="#DejaVuSans-2d" transform="translate(254.492188 0)"/>
       <use xlink:href="#DejaVuSans-30" transform="translate(290.576172 0)"/>
       <use xlink:href="#DejaVuSans-39" transform="translate(354.199219 0)"/>
      </g>
     </g>
    </g>
    <g id="xtick_24">
     <g id="line2d_57">
      <path d="M 536.3928 188.638125 
L 536.3928 156.718125 
" clip-path="url(#p1a8c2ea348)" style="fill: none; stroke: #b0b0b0; stroke-opacity: 0.15; stroke-width: 0.8; stroke-linecap: square"/>
     </g>
     <g id="line2d_58">
      <g>
       <use xlink:href="#m674f4c0a0d" x="536.3928" y="188.638125" style="stroke: #000000; stroke-width: 0.8"/>
      </g>
     </g>
     <g id="text_30">
      <!-- 2025-10 -->
      <g transform="translate(505.377328 230.555942) rotate(-45) scale(0.1 -0.1)">
       <use xlink:href="#DejaVuSans-32"/>
       <use xlink:href="#DejaVuSans-30" transform="translate(63.623047 0)"/>
       <use xlink:href="#DejaVuSans-32" transform="translate(127.246094 0)"/>
       <use xlink:href="#DejaVuSans-35" transform="translate(190.869141 0)"/>
       <use xlink:href="#DejaVuSans-2d" transform="translate(254.492188 0)"/>
       <use xlink:href="#DejaVuSans-31" transform="translate(290.576172 0)"/>
       <use xlink:href="#DejaVuSans-30" transform="translate(354.199219 0)"/>
      </g>
     </g>
    </g>
   </g>
   <g id="matplotlib.axis_4">
    <g id="ytick_5">
     <g id="line2d_59">
      <path d="M 52.079375 174.85796 
L 554.279375 174.85796 
" clip-path="url(#p1a8c2ea348)" style="fill: none; stroke: #b0b0b0; stroke-opacity: 0.15; stroke-width: 0.8; stroke-linecap: square"/>
     </g>
     <g id="line2d_60">
      <g>
       <use xlink:href="#meb7b884fbf" x="52.079375" y="174.85796" style="stroke: #000000; stroke-width: 0.8"/>
      </g>
     </g>
     <g id="text_31">
      <!-- 1.40 -->
      <g transform="translate(22.81375 178.657178) scale(0.1 -0.1)">
       <defs>
        <path id="DejaVuSans-2e" d="M 684 794 
L 1344 794 
L 1344 0 
L 684 0 
L 684 794 
z
" transform="scale(0.015625)"/>
       </defs>
       <use xlink:href="#DejaVuSans-31"/>
       <use xlink:href="#DejaVuSans-2e" transform="translate(63.623047 0)"/>
       <use xlink:href="#DejaVuSans-34" transform="translate(95.410156 0)"/>
       <use xlink:href="#DejaVuSans-30" transform="translate(159.033203 0)"/>
      </g>
     </g>
    </g>
    <g id="ytick_6">
     <g id="line2d_61">
      <path d="M 52.079375 160.973662 
L 554.279375 160.973662 
" clip-path="url(#p1a8c2ea348)" style="fill: none; stroke: #b0b0b0; stroke-opacity: 0.15; stroke-width: 0.8; stroke-linecap: square"/>
     </g>
     <g id="line2d_62">
      <g>
       <use xlink:href="#meb7b884fbf" x="52.079375" y="160.973662" style="stroke: #000000; stroke-width: 0.8"/>
      </g>
     </g>
     <g id="text_32">
      <!-- 1.45 -->
      <g transform="translate(22.81375 164.772881) scale(0.1 -0.1)">
       <use xlink:href="#DejaVuSans-31"/>
       <use xlink:href="#DejaVuSans-2e" transform="translate(63.623047 0)"/>
       <use xlink:href="#DejaVuSans-34" transform="translate(95.410156 0)"/>
       <use xlink:href="#DejaVuSans-35" transform="translate(159.033203 0)"/>
      </g>
     </g>
    </g>
    <g id="text_33">
     <!-- USD/CAD -->
     <g transform="translate(16.318125 200.43375) rotate(-90) scale(0.12 -0.12)">
      <defs>
       <path id="DejaVuSans-44" d="M 1259 4147 
L 1259 519 
L 2022 519 
Q 2988 519 3436 956 
Q 3884 1394 3884 2338 
Q 3884 3275 3436 3711 
Q 2988 4147 2022 4147 
L 1259 4147 
z
M 628 4666 
L 1925 4666 
Q 3281 4666 3915 4102 
Q 4550 3538 4550 2338 
Q 4550 1131 3912 565 
Q 3275 0 1925 0 
L 628 0 
L 628 4666 
z
" transform="scale(0.015625)"/>
       <path id="DejaVuSans-2f" d="M 1625 4666 
L 2156 4666 
L 531 -594 
L 0 -594 
L 1625 4666 
z
" transform="scale(0.015625)"/>
       <path id="DejaVuSans-41" d="M 2188 4044 
L 1331 1722 
L 3047 1722 
L 2188 4044 
z
M 1831 4666 
L 2547 4666 
L 4325 0 
L 3669 0 
L 3244 1197 
L 1141 1197 
L 716 0 
L 50 0 
L 1831 4666 
z
" transform="scale(0.015625)"/>
      </defs>
      <use xlink:href="#DejaVuSans-55"/>
      <use xlink:href="#DejaVuSans-53" transform="translate(73.193359 0)"/>
      <use xlink:href="#DejaVuSans-44" transform="translate(136.669922 0)"/>
      <use xlink:href="#DejaVuSans-2f" transform="translate(213.671875 0)"/>
      <use xlink:href="#DejaVuSans-43" transform="translate(247.363281 0)"/>
      <use xlink:href="#DejaVuSans-41" transform="translate(317.1875 0)"/>
      <use xlink:href="#DejaVuSans-44" transform="translate(385.595703 0)"/>
     </g>
    </g>
   </g>
   <g id="line2d_63">
    <path d="M 53.455265 180.328373 
L 54.831156 181.189199 
L 56.207046 180.661596 
L 61.710608 179.106555 
L 63.086498 179.578621 
L 64.462389 179.356472 
L 67.21417 178.134654 
L 72.717731 177.384902 
L 74.093622 177.329365 
L 75.469512 176.551844 
L 76.845402 176.940604 
L 80.973074 177.690356 
L 82.348964 179.023249 
L 83.724854 176.82953 
L 85.100745 178.578951 
L 86.476635 177.051679 
M 91.980197 176.079778 
L 93.356087 175.274489 
L 94.731978 174.163745 
L 96.107868 172.747546 
L 100.235539 174.080439 
L 101.61143 175.385563 
L 102.98732 174.996803 
L 104.363211 175.968704 
L 105.739101 175.274489 
L 109.866772 174.774654 
L 111.242663 173.247381 
L 112.618553 174.080439 
M 115.370334 174.469199 
L 119.498005 172.941927 
L 120.873896 173.053001 
L 122.249786 172.941927 
L 123.625676 173.886059 
L 125.001567 170.859282 
L 129.129238 171.525728 
L 130.505128 170.414985 
L 131.881019 171.359117 
L 133.256909 169.887381 
L 134.6328 168.193497 
L 138.760471 168.471183 
L 140.136361 166.194158 
L 141.512252 165.55548 
L 142.888142 164.694654 
L 144.264033 165.027877 
L 148.391704 164.028208 
L 149.767594 164.222588 
M 152.519375 163.639447 
L 153.895265 162.834158 
L 158.022937 164.472505 
L 159.398827 163.750522 
M 162.150608 163.139613 
L 163.526498 162.223249 
L 167.65417 164.889034 
L 169.03006 165.388869 
L 170.40595 164.444737 
L 171.781841 163.917133 
L 173.157731 162.723084 
L 177.285402 163.445067 
L 178.661293 164.611348 
L 180.037183 165.416637 
L 181.413074 164.389199 
L 182.788964 163.19515 
M 188.292526 165.749861 
L 189.668416 164.833497 
L 191.044307 164.889034 
L 192.420197 165.666555 
L 196.547868 164.083745 
L 197.923759 163.97267 
L 199.299649 162.861927 
L 200.675539 163.445067 
L 206.179101 158.169034 
L 207.554991 166.027546 
L 208.930882 167.082753 
L 210.306772 166.138621 
L 211.682663 166.221927 
L 215.810334 166.055315 
L 217.186224 166.305232 
L 218.562115 166.860604 
L 221.313896 170.137299 
M 226.817457 169.609695 
L 228.193348 168.33234 
L 229.569238 169.443084 
L 230.945128 169.415315 
L 235.0728 168.637794 
L 236.44869 166.527381 
L 237.82458 165.250026 
L 239.200471 163.222918 
L 240.576361 162.834158 
L 244.704033 163.77829 
L 246.079923 160.557133 
L 247.455813 164.444737 
L 248.831704 167.027216 
L 250.207594 164.167051 
L 254.335265 162.889695 
L 255.711156 162.028869 
L 257.087046 163.833827 
L 258.462937 163.806059 
L 259.838827 164.389199 
L 263.966498 166.582918 
L 266.718279 165.749861 
L 268.09417 165.805398 
L 269.47006 164.97234 
L 273.597731 166.74953 
L 274.973622 166.333001 
L 276.349512 167.804737 
L 277.725402 166.083084 
L 279.101293 167.027216 
L 283.228964 164.333662 
L 284.604854 166.083084 
L 285.980745 166.249695 
L 287.356635 173.136307 
L 288.732526 169.470852 
L 292.860197 168.637794 
L 294.236087 169.332009 
L 295.611978 169.665232 
L 296.987868 174.580274 
L 298.363759 177.773662 
L 302.49143 177.856968 
L 303.86732 176.413001 
L 305.243211 178.134654 
L 306.619101 178.856637 
L 312.122663 179.911844 
L 313.498553 180.467216 
L 314.874443 177.801431 
L 316.250334 177.940274 
L 317.626224 178.8011 
L 323.129786 178.939943 
L 324.505676 180.217299 
L 325.881567 179.106555 
L 327.257457 180.689365 
L 331.385128 180.133993 
L 332.761019 181.133662 
L 334.136909 181.161431 
L 335.5128 177.246059 
L 336.88869 176.940604 
L 341.016361 174.774654 
L 342.392252 176.024241 
L 343.768142 175.885398 
L 345.144033 175.163414 
L 346.519923 175.107877 
L 350.647594 176.413001 
L 352.023485 176.496307 
L 353.399375 179.80077 
L 354.775265 178.856637 
L 356.151156 181.661265 
M 361.654717 181.078125 
L 363.030608 179.884075 
L 364.406498 180.161761 
L 365.782389 181.883414 
L 369.91006 183.216307 
L 371.28595 182.577629 
L 372.661841 184.077133 
L 374.037731 184.104902 
L 375.413622 183.577299 
L 379.541293 183.882753 
L 380.917183 183.660604 
L 382.293074 184.243745 
L 383.668964 185.548869 
L 385.044854 186.659613 
L 389.172526 187.187216 
L 390.548416 186.326389 
L 391.924307 183.660604 
M 394.676087 182.105563 
L 398.803759 181.161431 
L 400.179649 182.883084 
L 401.555539 181.800108 
L 402.93143 185.160108 
L 404.30732 184.13267 
L 408.434991 185.410026 
L 409.810882 184.327051 
L 411.186772 185.410026 
L 412.562663 187.10391 
M 418.066224 184.74358 
L 420.818005 183.35515 
L 422.193896 183.688373 
L 423.569786 183.799447 
L 427.697457 183.35515 
L 429.073348 182.827546 
L 430.449238 183.021927 
L 431.825128 181.827877 
L 433.201019 182.883084 
L 437.32869 183.493993 
L 438.70458 185.548869 
L 440.080471 185.71548 
L 441.456361 184.771348 
L 442.832252 182.799778 
L 446.959923 182.688704 
L 448.335813 181.050356 
L 449.711704 180.022918 
L 451.087594 179.162092 
L 452.463485 181.022588 
L 456.591156 181.105894 
L 457.967046 180.994819 
L 459.342937 182.105563 
L 460.718827 181.827877 
L 462.094717 181.744571 
L 466.222389 180.883745 
L 467.598279 181.466885 
L 468.97417 181.411348 
L 470.35006 180.245067 
L 475.853622 179.99515 
L 477.229512 178.773332 
L 478.605402 178.356803 
L 479.981293 177.634819 
L 481.357183 179.162092 
L 486.860745 179.773001 
L 488.236635 179.717464 
L 489.612526 181.800108 
L 490.988416 182.466555 
M 496.491978 180.855976 
L 497.867868 180.77267 
L 499.243759 179.634158 
L 500.619649 179.773001 
L 504.74732 179.856307 
L 506.123211 179.467546 
L 507.499101 179.217629 
L 508.874991 179.578621 
L 510.250882 178.8011 
L 514.378553 180.494985 
L 515.754443 181.938951 
L 517.130334 181.494654 
L 518.506224 180.522753 
L 519.882115 181.189199 
L 524.009786 180.022918 
L 525.385676 179.467546 
L 526.761567 177.801431 
L 528.137457 176.996142 
L 529.513348 176.357464 
L 533.641019 177.523745 
L 537.76869 175.579943 
L 539.14458 176.357464 
L 543.272252 176.385232 
L 546.024033 176.163084 
L 547.399923 174.608042 
L 548.775813 174.941265 
L 548.775813 174.941265 
" clip-path="url(#p1a8c2ea348)" style="fill: none; stroke: #2ca02c; stroke-width: 1.2; stroke-linecap: square"/>
   </g>
   <g id="patch_8">
    <path d="M 52.079375 188.638125 
L 52.079375 156.718125 
" style="fill: none; stroke: #000000; stroke-width: 0.8; stroke-linejoin: miter; stroke-linecap: square"/>
   </g>
   <g id="patch_9">
    <path d="M 554.279375 188.638125 
L 554.279375 156.718125 
" style="fill: none; stroke: #000000; stroke-width: 0.8; stroke-linejoin: miter; stroke-linecap: square"/>
   </g>
   <g id="patch_10">
    <path d="M 52.079375 188.638125 
L 554.279375 188.638125 
" style="fill: none; stroke: #000000; stroke-width: 0.8; stroke-linejoin: miter; stroke-linecap: square"/>
   </g>
   <g id="patch_11">
    <path d="M 52.079375 156.718125 
L 554.279375 156.718125 
" style="fill: none; stroke: #000000; stroke-width: 0.8; stroke-linejoin: miter; stroke-linecap: square"/>
   </g>
  </g>
 </g>
 <defs>
  <clipPath id="p203bef321f">
   <rect x="52.079375" y="22.318125" width="502.2" height="91.2"/>
  </clipPath>
  <clipPath id="p1a8c2ea348">
   <rect x="52.079375" y="156.718125" width="502.2" height="31.92"/>
  </clipPath>
 </defs>
</svg>
