<?xml version="1.0" encoding="utf-8" standalone="no"?>
<!DOCTYPE svg PUBLIC "-//W3C//DTD SVG 1.1//EN"
  "http://www.w3.org/Graphics/SVG/1.1/DTD/svg11.dtd">
<svg xmlns:xlink="http://www.w3.org/1999/xlink" width="561.865625pt" height="239.454103pt" viewBox="0 0 561.865625 239.454103" xmlns="http://www.w3.org/2000/svg" version="1.1">
 <metadata>
  <rdf:RDF xmlns:dc="http://purl.org/dc/elements/1.1/" xmlns:cc="http://creativecommons.org/ns#" xmlns:rdf="http://www.w3.org/1999/02/22-rdf-syntax-ns#">
   <cc:Work>
    <dc:type rdf:resource="http://purl.org/dc/dcmitype/StillImage"/>
    <dc:date>2026-06-23T16:06:45.025031</dc:date>
    <dc:format>image/svg+xml</dc:format>
    <dc:creator>
     <cc:Agent>
      <dc:title>Matplotlib v3.11.0, https://matplotlib.org/</dc:title>
     </cc:Agent>
    </dc:creator>
   </cc:Work>
  </rdf:RDF>
 </metadata>
 <defs>
  <style type="text/css">*{stroke-linejoin: round; stroke-linecap: butt}</style>
 </defs>
 <g id="figure_1">
  <g id="patch_1">
   <path d="M 0 239.454103 
L 561.865625 239.454103 
L 561.865625 0 
L 0 0 
z
" style="fill: #ffffff"/>
  </g>
  <g id="axes_1">
   <g id="patch_2">
    <path d="M 52.465625 113.518125 
L 554.665625 113.518125 
L 554.665625 22.318125 
L 52.465625 22.318125 
z
" style="fill: #ffffff"/>
   </g>
   <g id="matplotlib.axis_1">
    <g id="xtick_1">
     <g id="line2d_1">
      <path d="M 64.848639 113.518125 
L 64.848639 22.318125 
" clip-path="url(#p857ad87873)" style="fill: none; stroke: #b0b0b0; stroke-opacity: 0.2; stroke-width: 0.8; stroke-linecap: square"/>
     </g>
     <g id="line2d_2">
      <defs>
       <path id="m79420abd6e" d="M 0 0 
L 0 3.5 
" style="stroke: #000000; stroke-width: 0.8"/>
      </defs>
      <g>
       <use xlink:href="#m79420abd6e" x="64.848639" y="113.518125" style="stroke: #000000; stroke-width: 0.8"/>
      </g>
     </g>
     <g id="text_1">
      <!-- 2025-07 -->
      <g transform="translate(33.605015 155.435389) rotate(-45) scale(0.1 -0.1)">
       <defs>
        <path id="DejaVuSans-15" d="M 1228 531 
L 3431 531 
L 3431 0 
L 469 0 
L 469 531 
Q 828 903 1448 1529 
Q 2069 2156 2228 2338 
Q 2531 2678 2651 2914 
Q 2772 3150 2772 3378 
Q 2772 3750 2511 3984 
Q 2250 4219 1831 4219 
Q 1534 4219 1204 4116 
Q 875 4013 500 3803 
L 500 4441 
Q 881 4594 1212 4672 
Q 1544 4750 1819 4750 
Q 2544 4750 2975 4387 
Q 3406 4025 3406 3419 
Q 3406 3131 3298 2873 
Q 3191 2616 2906 2266 
Q 2828 2175 2409 1742 
Q 1991 1309 1228 531 
z
" transform="scale(0.015625)"/>
        <path id="DejaVuSans-13" d="M 2034 4250 
Q 1547 4250 1301 3770 
Q 1056 3291 1056 2328 
Q 1056 1369 1301 889 
Q 1547 409 2034 409 
Q 2525 409 2770 889 
Q 3016 1369 3016 2328 
Q 3016 3291 2770 3770 
Q 2525 4250 2034 4250 
z
M 2034 4750 
Q 2819 4750 3233 4129 
Q 3647 3509 3647 2328 
Q 3647 1150 3233 529 
Q 2819 -91 2034 -91 
Q 1250 -91 836 529 
Q 422 1150 422 2328 
Q 422 3509 836 4129 
Q 1250 4750 2034 4750 
z
" transform="scale(0.015625)"/>
        <path id="DejaVuSans-18" d="M 691 4666 
L 3169 4666 
L 3169 4134 
L 1269 4134 
L 1269 2991 
Q 1406 3038 1543 3061 
Q 1681 3084 1819 3084 
Q 2600 3084 3056 2656 
Q 3513 2228 3513 1497 
Q 3513 744 3044 326 
Q 2575 -91 1722 -91 
Q 1428 -91 1123 -41 
Q 819 9 494 109 
L 494 744 
Q 775 591 1075 516 
Q 1375 441 1709 441 
Q 2250 441 2565 725 
Q 2881 1009 2881 1497 
Q 2881 1984 2565 2268 
Q 2250 2553 1709 2553 
Q 1456 2553 1204 2497 
Q 953 2441 691 2322 
L 691 4666 
z
" transform="scale(0.015625)"/>
        <path id="DejaVuSans-10" d="M 313 2009 
L 1997 2009 
L 1997 1497 
L 313 1497 
L 313 2009 
z
" transform="scale(0.015625)"/>
        <path id="DejaVuSans-1a" d="M 525 4666 
L 3525 4666 
L 3525 4397 
L 1831 0 
L 1172 0 
L 2766 4134 
L 525 4134 
L 525 4666 
z
" transform="scale(0.015625)"/>
       </defs>
       <use xlink:href="#DejaVuSans-15"/>
       <use xlink:href="#DejaVuSans-13" transform="translate(63.625 0)"/>
       <use xlink:href="#DejaVuSans-15" transform="translate(127.25 0)"/>
       <use xlink:href="#DejaVuSans-18" transform="translate(190.875 0)"/>
       <use xlink:href="#DejaVuSans-10" transform="translate(254.5 0)"/>
       <use xlink:href="#DejaVuSans-13" transform="translate(290.578125 0)"/>
       <use xlink:href="#DejaVuSans-1a" transform="translate(354.203125 0)"/>
      </g>
     </g>
    </g>
    <g id="xtick_2">
     <g id="line2d_3">
      <path d="M 107.501241 113.518125 
L 107.501241 22.318125 
" clip-path="url(#p857ad87873)" style="fill: none; stroke: #b0b0b0; stroke-opacity: 0.2; stroke-width: 0.8; stroke-linecap: square"/>
     </g>
     <g id="line2d_4">
      <g>
       <use xlink:href="#m79420abd6e" x="107.501241" y="113.518125" style="stroke: #000000; stroke-width: 0.8"/>
      </g>
     </g>
     <g id="text_2">
      <!-- 2025-08 -->
      <g transform="translate(76.257618 155.435389) rotate(-45) scale(0.1 -0.1)">
       <defs>
        <path id="DejaVuSans-1b" d="M 2034 2216 
Q 1584 2216 1326 1975 
Q 1069 1734 1069 1313 
Q 1069 891 1326 650 
Q 1584 409 2034 409 
Q 2484 409 2743 651 
Q 3003 894 3003 1313 
Q 3003 1734 2745 1975 
Q 2488 2216 2034 2216 
z
M 1403 2484 
Q 997 2584 770 2862 
Q 544 3141 544 3541 
Q 544 4100 942 4425 
Q 1341 4750 2034 4750 
Q 2731 4750 3128 4425 
Q 3525 4100 3525 3541 
Q 3525 3141 3298 2862 
Q 3072 2584 2669 2484 
Q 3125 2378 3379 2068 
Q 3634 1759 3634 1313 
Q 3634 634 3220 271 
Q 2806 -91 2034 -91 
Q 1263 -91 848 271 
Q 434 634 434 1313 
Q 434 1759 690 2068 
Q 947 2378 1403 2484 
z
M 1172 3481 
Q 1172 3119 1398 2916 
Q 1625 2713 2034 2713 
Q 2441 2713 2670 2916 
Q 2900 3119 2900 3481 
Q 2900 3844 2670 4047 
Q 2441 4250 2034 4250 
Q 1625 4250 1398 4047 
Q 1172 3844 1172 3481 
z
" transform="scale(0.015625)"/>
       </defs>
       <use xlink:href="#DejaVuSans-15"/>
       <use xlink:href="#DejaVuSans-13" transform="translate(63.625 0)"/>
       <use xlink:href="#DejaVuSans-15" transform="translate(127.25 0)"/>
       <use xlink:href="#DejaVuSans-18" transform="translate(190.875 0)"/>
       <use xlink:href="#DejaVuSans-10" transform="translate(254.5 0)"/>
       <use xlink:href="#DejaVuSans-13" transform="translate(290.578125 0)"/>
       <use xlink:href="#DejaVuSans-1b" transform="translate(354.203125 0)"/>
      </g>
     </g>
    </g>
    <g id="xtick_3">
     <g id="line2d_5">
      <path d="M 150.153844 113.518125 
L 150.153844 22.318125 
" clip-path="url(#p857ad87873)" style="fill: none; stroke: #b0b0b0; stroke-opacity: 0.2; stroke-width: 0.8; stroke-linecap: square"/>
     </g>
     <g id="line2d_6">
      <g>
       <use xlink:href="#m79420abd6e" x="150.153844" y="113.518125" style="stroke: #000000; stroke-width: 0.8"/>
      </g>
     </g>
     <g id="text_3">
      <!-- 2025-09 -->
      <g transform="translate(118.910221 155.435389) rotate(-45) scale(0.1 -0.1)">
       <defs>
        <path id="DejaVuSans-1c" d="M 703 97 
L 703 672 
Q 941 559 1184 500 
Q 1428 441 1663 441 
Q 2288 441 2617 861 
Q 2947 1281 2994 2138 
Q 2813 1869 2534 1725 
Q 2256 1581 1919 1581 
Q 1219 1581 811 2004 
Q 403 2428 403 3163 
Q 403 3881 828 4315 
Q 1253 4750 1959 4750 
Q 2769 4750 3195 4129 
Q 3622 3509 3622 2328 
Q 3622 1225 3098 567 
Q 2575 -91 1691 -91 
Q 1453 -91 1209 -44 
Q 966 3 703 97 
z
M 1959 2075 
Q 2384 2075 2632 2365 
Q 2881 2656 2881 3163 
Q 2881 3666 2632 3958 
Q 2384 4250 1959 4250 
Q 1534 4250 1286 3958 
Q 1038 3666 1038 3163 
Q 1038 2656 1286 2365 
Q 1534 2075 1959 2075 
z
" transform="scale(0.015625)"/>
       </defs>
       <use xlink:href="#DejaVuSans-15"/>
       <use xlink:href="#DejaVuSans-13" transform="translate(63.625 0)"/>
       <use xlink:href="#DejaVuSans-15" transform="translate(127.25 0)"/>
       <use xlink:href="#DejaVuSans-18" transform="translate(190.875 0)"/>
       <use xlink:href="#DejaVuSans-10" transform="translate(254.5 0)"/>
       <use xlink:href="#DejaVuSans-13" transform="translate(290.578125 0)"/>
       <use xlink:href="#DejaVuSans-1c" transform="translate(354.203125 0)"/>
      </g>
     </g>
    </g>
    <g id="xtick_4">
     <g id="line2d_7">
      <path d="M 191.430557 113.518125 
L 191.430557 22.318125 
" clip-path="url(#p857ad87873)" style="fill: none; stroke: #b0b0b0; stroke-opacity: 0.2; stroke-width: 0.8; stroke-linecap: square"/>
     </g>
     <g id="line2d_8">
      <g>
       <use xlink:href="#m79420abd6e" x="191.430557" y="113.518125" style="stroke: #000000; stroke-width: 0.8"/>
      </g>
     </g>
     <g id="text_4">
      <!-- 2025-10 -->
      <g transform="translate(160.186933 155.435389) rotate(-45) scale(0.1 -0.1)">
       <defs>
        <path id="DejaVuSans-14" d="M 794 531 
L 1825 531 
L 1825 4091 
L 703 3866 
L 703 4441 
L 1819 4666 
L 2450 4666 
L 2450 531 
L 3481 531 
L 3481 0 
L 794 0 
L 794 531 
z
" transform="scale(0.015625)"/>
       </defs>
       <use xlink:href="#DejaVuSans-15"/>
       <use xlink:href="#DejaVuSans-13" transform="translate(63.625 0)"/>
       <use xlink:href="#DejaVuSans-15" transform="translate(127.25 0)"/>
       <use xlink:href="#DejaVuSans-18" transform="translate(190.875 0)"/>
       <use xlink:href="#DejaVuSans-10" transform="translate(254.5 0)"/>
       <use xlink:href="#DejaVuSans-14" transform="translate(290.578125 0)"/>
       <use xlink:href="#DejaVuSans-13" transform="translate(354.203125 0)"/>
      </g>
     </g>
    </g>
    <g id="xtick_5">
     <g id="line2d_9">
      <path d="M 234.083159 113.518125 
L 234.083159 22.318125 
" clip-path="url(#p857ad87873)" style="fill: none; stroke: #b0b0b0; stroke-opacity: 0.2; stroke-width: 0.8; stroke-linecap: square"/>
     </g>
     <g id="line2d_10">
      <g>
       <use xlink:href="#m79420abd6e" x="234.083159" y="113.518125" style="stroke: #000000; stroke-width: 0.8"/>
      </g>
     </g>
     <g id="text_5">
      <!-- 2025-11 -->
      <g transform="translate(202.839536 155.435389) rotate(-45) scale(0.1 -0.1)">
       <use xlink:href="#DejaVuSans-15"/>
       <use xlink:href="#DejaVuSans-13" transform="translate(63.625 0)"/>
       <use xlink:href="#DejaVuSans-15" transform="translate(127.25 0)"/>
       <use xlink:href="#DejaVuSans-18" transform="translate(190.875 0)"/>
       <use xlink:href="#DejaVuSans-10" transform="translate(254.5 0)"/>
       <use xlink:href="#DejaVuSans-14" transform="translate(290.578125 0)"/>
       <use xlink:href="#DejaVuSans-14" transform="translate(354.203125 0)"/>
      </g>
     </g>
    </g>
    <g id="xtick_6">
     <g id="line2d_11">
      <path d="M 275.359872 113.518125 
L 275.359872 22.318125 
" clip-path="url(#p857ad87873)" style="fill: none; stroke: #b0b0b0; stroke-opacity: 0.2; stroke-width: 0.8; stroke-linecap: square"/>
     </g>
     <g id="line2d_12">
      <g>
       <use xlink:href="#m79420abd6e" x="275.359872" y="113.518125" style="stroke: #000000; stroke-width: 0.8"/>
      </g>
     </g>
     <g id="text_6">
      <!-- 2025-12 -->
      <g transform="translate(244.116248 155.435389) rotate(-45) scale(0.1 -0.1)">
       <use xlink:href="#DejaVuSans-15"/>
       <use xlink:href="#DejaVuSans-13" transform="translate(63.625 0)"/>
       <use xlink:href="#DejaVuSans-15" transform="translate(127.25 0)"/>
       <use xlink:href="#DejaVuSans-18" transform="translate(190.875 0)"/>
       <use xlink:href="#DejaVuSans-10" transform="translate(254.5 0)"/>
       <use xlink:href="#DejaVuSans-14" transform="translate(290.578125 0)"/>
       <use xlink:href="#DejaVuSans-15" transform="translate(354.203125 0)"/>
      </g>
     </g>
    </g>
    <g id="xtick_7">
     <g id="line2d_13">
      <path d="M 318.012474 113.518125 
L 318.012474 22.318125 
" clip-path="url(#p857ad87873)" style="fill: none; stroke: #b0b0b0; stroke-opacity: 0.2; stroke-width: 0.8; stroke-linecap: square"/>
     </g>
     <g id="line2d_14">
      <g>
       <use xlink:href="#m79420abd6e" x="318.012474" y="113.518125" style="stroke: #000000; stroke-width: 0.8"/>
      </g>
     </g>
     <g id="text_7">
      <!-- 2026-01 -->
      <g transform="translate(286.768851 155.435389) rotate(-45) scale(0.1 -0.1)">
       <defs>
        <path id="DejaVuSans-19" d="M 2113 2584 
Q 1688 2584 1439 2293 
Q 1191 2003 1191 1497 
Q 1191 994 1439 701 
Q 1688 409 2113 409 
Q 2538 409 2786 701 
Q 3034 994 3034 1497 
Q 3034 2003 2786 2293 
Q 2538 2584 2113 2584 
z
M 3366 4563 
L 3366 3988 
Q 3128 4100 2886 4159 
Q 2644 4219 2406 4219 
Q 1781 4219 1451 3797 
Q 1122 3375 1075 2522 
Q 1259 2794 1537 2939 
Q 1816 3084 2150 3084 
Q 2853 3084 3261 2657 
Q 3669 2231 3669 1497 
Q 3669 778 3244 343 
Q 2819 -91 2113 -91 
Q 1303 -91 875 529 
Q 447 1150 447 2328 
Q 447 3434 972 4092 
Q 1497 4750 2381 4750 
Q 2619 4750 2861 4703 
Q 3103 4656 3366 4563 
z
" transform="scale(0.015625)"/>
       </defs>
       <use xlink:href="#DejaVuSans-15"/>
       <use xlink:href="#DejaVuSans-13" transform="translate(63.625 0)"/>
       <use xlink:href="#DejaVuSans-15" transform="translate(127.25 0)"/>
       <use xlink:href="#DejaVuSans-19" transform="translate(190.875 0)"/>
       <use xlink:href="#DejaVuSans-10" transform="translate(254.5 0)"/>
       <use xlink:href="#DejaVuSans-13" transform="translate(290.578125 0)"/>
       <use xlink:href="#DejaVuSans-14" transform="translate(354.203125 0)"/>
      </g>
     </g>
    </g>
    <g id="xtick_8">
     <g id="line2d_15">
      <path d="M 360.665077 113.518125 
L 360.665077 22.318125 
" clip-path="url(#p857ad87873)" style="fill: none; stroke: #b0b0b0; stroke-opacity: 0.2; stroke-width: 0.8; stroke-linecap: square"/>
     </g>
     <g id="line2d_16">
      <g>
       <use xlink:href="#m79420abd6e" x="360.665077" y="113.518125" style="stroke: #000000; stroke-width: 0.8"/>
      </g>
     </g>
     <g id="text_8">
      <!-- 2026-02 -->
      <g transform="translate(329.421453 155.435389) rotate(-45) scale(0.1 -0.1)">
       <use xlink:href="#DejaVuSans-15"/>
       <use xlink:href="#DejaVuSans-13" transform="translate(63.625 0)"/>
       <use xlink:href="#DejaVuSans-15" transform="translate(127.25 0)"/>
       <use xlink:href="#DejaVuSans-19" transform="translate(190.875 0)"/>
       <use xlink:href="#DejaVuSans-10" transform="translate(254.5 0)"/>
       <use xlink:href="#DejaVuSans-13" transform="translate(290.578125 0)"/>
       <use xlink:href="#DejaVuSans-15" transform="translate(354.203125 0)"/>
      </g>
     </g>
    </g>
    <g id="xtick_9">
     <g id="line2d_17">
      <path d="M 399.190009 113.518125 
L 399.190009 22.318125 
" clip-path="url(#p857ad87873)" style="fill: none; stroke: #b0b0b0; stroke-opacity: 0.2; stroke-width: 0.8; stroke-linecap: square"/>
     </g>
     <g id="line2d_18">
      <g>
       <use xlink:href="#m79420abd6e" x="399.190009" y="113.518125" style="stroke: #000000; stroke-width: 0.8"/>
      </g>
     </g>
     <g id="text_9">
      <!-- 2026-03 -->
      <g transform="translate(367.946385 155.435389) rotate(-45) scale(0.1 -0.1)">
       <defs>
        <path id="DejaVuSans-16" d="M 2597 2516 
Q 3050 2419 3304 2112 
Q 3559 1806 3559 1356 
Q 3559 666 3084 287 
Q 2609 -91 1734 -91 
Q 1441 -91 1130 -33 
Q 819 25 488 141 
L 488 750 
Q 750 597 1062 519 
Q 1375 441 1716 441 
Q 2309 441 2620 675 
Q 2931 909 2931 1356 
Q 2931 1769 2642 2001 
Q 2353 2234 1838 2234 
L 1294 2234 
L 1294 2753 
L 1863 2753 
Q 2328 2753 2575 2939 
Q 2822 3125 2822 3475 
Q 2822 3834 2567 4026 
Q 2313 4219 1838 4219 
Q 1578 4219 1281 4162 
Q 984 4106 628 3988 
L 628 4550 
Q 988 4650 1302 4700 
Q 1616 4750 1894 4750 
Q 2613 4750 3031 4423 
Q 3450 4097 3450 3541 
Q 3450 3153 3228 2886 
Q 3006 2619 2597 2516 
z
" transform="scale(0.015625)"/>
       </defs>
       <use xlink:href="#DejaVuSans-15"/>
       <use xlink:href="#DejaVuSans-13" transform="translate(63.625 0)"/>
       <use xlink:href="#DejaVuSans-15" transform="translate(127.25 0)"/>
       <use xlink:href="#DejaVuSans-19" transform="translate(190.875 0)"/>
       <use xlink:href="#DejaVuSans-10" transform="translate(254.5 0)"/>
       <use xlink:href="#DejaVuSans-13" transform="translate(290.578125 0)"/>
       <use xlink:href="#DejaVuSans-16" transform="translate(354.203125 0)"/>
      </g>
     </g>
    </g>
    <g id="xtick_10">
     <g id="line2d_19">
      <path d="M 441.842611 113.518125 
L 441.842611 22.318125 
" clip-path="url(#p857ad87873)" style="fill: none; stroke: #b0b0b0; stroke-opacity: 0.2; stroke-width: 0.8; stroke-linecap: square"/>
     </g>
     <g id="line2d_20">
      <g>
       <use xlink:href="#m79420abd6e" x="441.842611" y="113.518125" style="stroke: #000000; stroke-width: 0.8"/>
      </g>
     </g>
     <g id="text_10">
      <!-- 2026-04 -->
      <g transform="translate(410.598988 155.435389) rotate(-45) scale(0.1 -0.1)">
       <defs>
        <path id="DejaVuSans-17" d="M 2419 4116 
L 825 1625 
L 2419 1625 
L 2419 4116 
z
M 2253 4666 
L 3047 4666 
L 3047 1625 
L 3713 1625 
L 3713 1100 
L 3047 1100 
L 3047 0 
L 2419 0 
L 2419 1100 
L 313 1100 
L 313 1709 
L 2253 4666 
z
" transform="scale(0.015625)"/>
       </defs>
       <use xlink:href="#DejaVuSans-15"/>
       <use xlink:href="#DejaVuSans-13" transform="translate(63.625 0)"/>
       <use xlink:href="#DejaVuSans-15" transform="translate(127.25 0)"/>
       <use xlink:href="#DejaVuSans-19" transform="translate(190.875 0)"/>
       <use xlink:href="#DejaVuSans-10" transform="translate(254.5 0)"/>
       <use xlink:href="#DejaVuSans-13" transform="translate(290.578125 0)"/>
       <use xlink:href="#DejaVuSans-17" transform="translate(354.203125 0)"/>
      </g>
     </g>
    </g>
    <g id="xtick_11">
     <g id="line2d_21">
      <path d="M 483.119324 113.518125 
L 483.119324 22.318125 
" clip-path="url(#p857ad87873)" style="fill: none; stroke: #b0b0b0; stroke-opacity: 0.2; stroke-width: 0.8; stroke-linecap: square"/>
     </g>
     <g id="line2d_22">
      <g>
       <use xlink:href="#m79420abd6e" x="483.119324" y="113.518125" style="stroke: #000000; stroke-width: 0.8"/>
      </g>
     </g>
     <g id="text_11">
      <!-- 2026-05 -->
      <g transform="translate(451.8757 155.435389) rotate(-45) scale(0.1 -0.1)">
       <use xlink:href="#DejaVuSans-15"/>
       <use xlink:href="#DejaVuSans-13" transform="translate(63.625 0)"/>
       <use xlink:href="#DejaVuSans-15" transform="translate(127.25 0)"/>
       <use xlink:href="#DejaVuSans-19" transform="translate(190.875 0)"/>
       <use xlink:href="#DejaVuSans-10" transform="translate(254.5 0)"/>
       <use xlink:href="#DejaVuSans-13" transform="translate(290.578125 0)"/>
       <use xlink:href="#DejaVuSans-18" transform="translate(354.203125 0)"/>
      </g>
     </g>
    </g>
    <g id="xtick_12">
     <g id="line2d_23">
      <path d="M 525.771926 113.518125 
L 525.771926 22.318125 
" clip-path="url(#p857ad87873)" style="fill: none; stroke: #b0b0b0; stroke-opacity: 0.2; stroke-width: 0.8; stroke-linecap: square"/>
     </g>
     <g id="line2d_24">
      <g>
       <use xlink:href="#m79420abd6e" x="525.771926" y="113.518125" style="stroke: #000000; stroke-width: 0.8"/>
      </g>
     </g>
     <g id="text_12">
      <!-- 2026-06 -->
      <g transform="translate(494.528303 155.435389) rotate(-45) scale(0.1 -0.1)">
       <use xlink:href="#DejaVuSans-15"/>
       <use xlink:href="#DejaVuSans-13" transform="translate(63.625 0)"/>
       <use xlink:href="#DejaVuSans-15" transform="translate(127.25 0)"/>
       <use xlink:href="#DejaVuSans-19" transform="translate(190.875 0)"/>
       <use xlink:href="#DejaVuSans-10" transform="translate(254.5 0)"/>
       <use xlink:href="#DejaVuSans-13" transform="translate(290.578125 0)"/>
       <use xlink:href="#DejaVuSans-19" transform="translate(354.203125 0)"/>
      </g>
     </g>
    </g>
   </g>
   <g id="matplotlib.axis_2">
    <g id="ytick_1">
     <g id="line2d_25">
      <path d="M 52.465625 109.37267 
L 554.665625 109.37267 
" clip-path="url(#p857ad87873)" style="fill: none; stroke: #b0b0b0; stroke-opacity: 0.2; stroke-width: 0.8; stroke-linecap: square"/>
     </g>
     <g id="line2d_26">
      <defs>
       <path id="ma135e20396" d="M 0 0 
L -3.5 0 
" style="stroke: #000000; stroke-width: 0.8"/>
      </defs>
      <g>
       <use xlink:href="#ma135e20396" x="52.465625" y="109.37267" style="stroke: #000000; stroke-width: 0.8"/>
      </g>
     </g>
     <g id="text_13">
      <!-- 0 -->
      <g transform="translate(39.103125 113.171499) scale(0.1 -0.1)">
       <use xlink:href="#DejaVuSans-13"/>
      </g>
     </g>
    </g>
    <g id="ytick_2">
     <g id="line2d_27">
      <path d="M 52.465625 71.68672 
L 554.665625 71.68672 
" clip-path="url(#p857ad87873)" style="fill: none; stroke: #b0b0b0; stroke-opacity: 0.2; stroke-width: 0.8; stroke-linecap: square"/>
     </g>
     <g id="line2d_28">
      <g>
       <use xlink:href="#ma135e20396" x="52.465625" y="71.68672" style="stroke: #000000; stroke-width: 0.8"/>
      </g>
     </g>
     <g id="text_14">
      <!-- 50 -->
      <g transform="translate(32.740625 75.485548) scale(0.1 -0.1)">
       <use xlink:href="#DejaVuSans-18"/>
       <use xlink:href="#DejaVuSans-13" transform="translate(63.625 0)"/>
      </g>
     </g>
    </g>
    <g id="ytick_3">
     <g id="line2d_29">
      <path d="M 52.465625 34.00077 
L 554.665625 34.00077 
" clip-path="url(#p857ad87873)" style="fill: none; stroke: #b0b0b0; stroke-opacity: 0.2; stroke-width: 0.8; stroke-linecap: square"/>
     </g>
     <g id="line2d_30">
      <g>
       <use xlink:href="#ma135e20396" x="52.465625" y="34.00077" style="stroke: #000000; stroke-width: 0.8"/>
      </g>
     </g>
     <g id="text_15">
      <!-- 100 -->
      <g transform="translate(26.378125 37.799598) scale(0.1 -0.1)">
       <use xlink:href="#DejaVuSans-14"/>
       <use xlink:href="#DejaVuSans-13" transform="translate(63.625 0)"/>
       <use xlink:href="#DejaVuSans-13" transform="translate(127.25 0)"/>
      </g>
     </g>
    </g>
    <g id="text_16">
     <!-- bp -->
     <g transform="translate(19.975781 74.266562) rotate(-90) scale(0.1 -0.1)">
      <defs>
       <path id="DejaVuSans-45" d="M 3116 1747 
Q 3116 2381 2855 2742 
Q 2594 3103 2138 3103 
Q 1681 3103 1420 2742 
Q 1159 2381 1159 1747 
Q 1159 1113 1420 752 
Q 1681 391 2138 391 
Q 2594 391 2855 752 
Q 3116 1113 3116 1747 
z
M 1159 2969 
Q 1341 3281 1617 3432 
Q 1894 3584 2278 3584 
Q 2916 3584 3314 3078 
Q 3713 2572 3713 1747 
Q 3713 922 3314 415 
Q 2916 -91 2278 -91 
Q 1894 -91 1617 61 
Q 1341 213 1159 525 
L 1159 0 
L 581 0 
L 581 4863 
L 1159 4863 
L 1159 2969 
z
" transform="scale(0.015625)"/>
       <path id="DejaVuSans-53" d="M 1159 525 
L 1159 -1331 
L 581 -1331 
L 581 3500 
L 1159 3500 
L 1159 2969 
Q 1341 3281 1617 3432 
Q 1894 3584 2278 3584 
Q 2916 3584 3314 3078 
Q 3713 2572 3713 1747 
Q 3713 922 3314 415 
Q 2916 -91 2278 -91 
Q 1894 -91 1617 61 
Q 1341 213 1159 525 
z
M 3116 1747 
Q 3116 2381 2855 2742 
Q 2594 3103 2138 3103 
Q 1681 3103 1420 2742 
Q 1159 2381 1159 1747 
Q 1159 1113 1420 752 
Q 1681 391 2138 391 
Q 2594 391 2855 752 
Q 3116 1113 3116 1747 
z
" transform="scale(0.015625)"/>
      </defs>
      <use xlink:href="#DejaVuSans-45"/>
      <use xlink:href="#DejaVuSans-53" transform="translate(63.484375 0)"/>
     </g>
    </g>
   </g>
   <g id="line2d_31">
    <path d="M 53.841515 28.724737 
L 55.217406 30.985894 
L 56.593296 36.261927 
L 57.969187 39.276803 
L 59.345077 35.508208 
L 63.472748 37.015646 
L 64.848639 35.508208 
L 66.224529 38.523084 
L 68.97631 34.00077 
L 73.103981 34.00077 
L 74.479872 34.754489 
L 78.607543 39.276803 
L 82.735214 40.030522 
L 84.111104 41.53796 
L 85.486995 42.291679 
L 86.862885 41.53796 
L 88.238776 43.799117 
L 92.366447 43.799117 
L 93.742337 45.306555 
L 95.118228 46.060274 
L 96.494118 43.045398 
L 97.870009 43.045398 
L 101.99768 41.53796 
L 103.37357 43.799117 
L 104.749461 41.53796 
L 106.125351 40.030522 
L 107.501241 45.306555 
L 111.628913 46.060274 
L 113.004803 46.060274 
L 114.380693 46.813993 
L 115.756584 46.060274 
L 117.132474 42.291679 
L 121.260146 43.045398 
L 122.636036 44.552836 
L 124.011926 45.306555 
L 125.387817 43.045398 
L 126.763707 43.799117 
L 130.891378 45.306555 
L 132.267269 44.552836 
L 133.643159 45.306555 
L 135.01905 45.306555 
L 136.39494 46.813993 
L 140.522611 48.321431 
L 141.898502 48.321431 
L 143.274392 49.828869 
L 144.650283 49.07515 
L 146.026173 45.306555 
L 150.153844 45.306555 
L 154.281515 47.567712 
L 155.657406 46.813993 
L 159.785077 46.060274 
L 161.160967 44.552836 
L 162.536858 43.799117 
L 163.912748 45.306555 
L 165.288639 43.045398 
L 172.168091 43.045398 
L 173.543981 40.030522 
L 174.919872 38.523084 
L 179.047543 37.015646 
L 180.423433 39.276803 
L 181.799324 37.015646 
L 183.175214 37.015646 
L 184.551104 36.261927 
L 188.678776 35.508208 
L 190.054666 34.754489 
L 191.430557 39.276803 
L 192.806447 40.030522 
L 194.182337 38.523084 
L 198.310009 36.261927 
L 199.685899 37.769365 
L 201.061789 38.523084 
L 202.43768 38.523084 
L 203.81357 43.799117 
L 207.941241 43.799117 
L 209.317132 42.291679 
L 210.693022 39.276803 
L 212.068913 40.784241 
L 213.444803 39.276803 
L 217.572474 37.769365 
L 218.948365 41.53796 
L 220.324255 41.53796 
L 223.076036 38.523084 
L 227.203707 37.015646 
L 228.579598 37.769365 
L 229.955488 39.276803 
L 231.331378 35.508208 
L 232.707269 34.754489 
L 236.83494 35.508208 
L 238.21083 37.769365 
L 239.586721 33.247051 
L 240.962611 33.247051 
L 242.338502 38.523084 
L 246.466173 37.015646 
L 247.842063 37.015646 
L 249.217954 38.523084 
L 251.969735 40.030522 
L 256.097406 41.53796 
L 257.473296 43.799117 
L 258.849187 43.045398 
L 260.225077 43.045398 
L 261.600967 44.552836 
L 267.104529 44.552836 
L 269.85631 43.045398 
L 271.2322 43.045398 
L 275.359872 45.306555 
L 276.735762 45.306555 
L 278.111652 46.060274 
L 279.487543 45.306555 
L 280.863433 55.104902 
L 284.991104 52.843745 
L 286.366995 55.104902 
L 287.742885 55.858621 
L 289.118776 55.104902 
L 290.494666 52.843745 
L 294.622337 51.336307 
L 295.998228 52.843745 
L 297.374118 53.597464 
L 298.750009 55.104902 
L 300.125899 57.366059 
L 304.25357 55.858621 
L 305.629461 52.090026 
L 307.005351 52.843745 
L 308.381241 52.843745 
L 309.757132 53.597464 
L 313.884803 54.351183 
L 315.260693 54.351183 
L 316.636584 52.090026 
L 318.012474 52.090026 
L 319.388365 55.104902 
L 323.516036 52.843745 
L 324.891926 52.843745 
L 326.267817 52.090026 
L 327.643707 49.828869 
L 329.019598 49.07515 
L 333.147269 49.828869 
L 334.523159 51.336307 
L 335.89905 49.828869 
L 337.27494 47.567712 
L 338.65083 43.799117 
L 342.778502 45.306555 
L 344.154392 43.045398 
L 345.530283 46.060274 
L 346.906173 44.552836 
L 348.282063 46.813993 
L 352.409735 45.306555 
L 353.785625 46.813993 
L 355.161515 46.060274 
L 356.537406 46.813993 
L 357.913296 46.060274 
L 362.040967 44.552836 
L 363.416858 46.060274 
L 364.792748 44.552836 
L 366.168639 48.321431 
L 367.544529 47.567712 
L 371.6722 46.813993 
L 373.048091 49.07515 
L 374.423981 46.060274 
L 375.799872 48.321431 
L 377.175762 49.828869 
L 381.303433 49.828869 
L 382.679324 47.567712 
L 384.055214 44.552836 
L 386.806995 44.552836 
L 390.934666 45.306555 
L 392.310557 44.552836 
L 393.686447 45.306555 
L 395.062337 45.306555 
L 396.438228 46.060274 
L 400.565899 46.813993 
L 401.941789 47.567712 
L 403.31768 46.813993 
L 406.069461 52.843745 
L 410.197132 52.090026 
L 411.573022 52.090026 
L 412.948913 54.351183 
L 415.700693 51.336307 
L 421.204255 48.321431 
L 423.956036 48.321431 
L 425.331926 46.813993 
L 429.459598 48.321431 
L 430.835488 49.07515 
L 432.211378 44.552836 
L 433.587269 45.306555 
L 434.963159 44.552836 
L 439.09083 46.060274 
L 440.466721 46.060274 
L 443.218502 47.567712 
L 444.594392 44.552836 
L 448.722063 43.799117 
L 450.097954 46.060274 
L 451.473844 45.306555 
L 452.849735 46.813993 
L 454.225625 46.060274 
L 458.353296 46.060274 
L 461.105077 47.567712 
L 467.984529 47.567712 
L 469.36042 49.07515 
L 470.73631 47.567712 
L 472.1122 44.552836 
L 473.488091 45.306555 
L 478.991652 45.306555 
L 480.367543 47.567712 
L 483.119324 44.552836 
L 487.246995 46.813993 
L 488.622885 46.813993 
L 489.998776 45.306555 
L 492.750557 40.784241 
L 498.254118 43.799117 
L 499.630009 43.045398 
L 501.005899 40.784241 
L 502.381789 42.291679 
L 506.509461 40.784241 
L 507.885351 36.261927 
L 509.261241 34.754489 
L 510.637132 31.739613 
L 512.013022 31.739613 
L 516.140693 26.46358 
L 517.516584 31.739613 
L 518.892474 33.247051 
L 520.268365 33.247051 
L 521.644255 30.985894 
L 525.771926 30.985894 
L 528.523707 29.478456 
L 529.899598 30.985894 
L 531.275488 28.724737 
L 535.403159 31.739613 
L 536.77905 30.985894 
L 538.15494 29.478456 
L 539.53083 30.985894 
L 540.906721 27.971018 
L 545.034392 29.478456 
L 546.410283 30.232175 
L 547.786173 28.724737 
L 549.162063 27.971018 
L 550.537954 28.724737 
L 554.665625 31.739613 
L 554.665625 31.739613 
" clip-path="url(#p857ad87873)" style="fill: none; stroke: #444444; stroke-width: 1.5; stroke-linecap: square"/>
    <defs>
     <path id="m0af8953884" d="M 0 1 
C 0.265203 1 0.51958 0.894634 0.707107 0.707107 
C 0.894634 0.51958 1 0.265203 1 0 
C 1 -0.265203 0.894634 -0.51958 0.707107 -0.707107 
C 0.51958 -0.894634 0.265203 -1 0 -1 
C -0.265203 -1 -0.51958 -0.894634 -0.707107 -0.707107 
C -0.894634 -0.51958 -1 -0.265203 -1 0 
C -1 0.265203 -0.894634 0.51958 -0.707107 0.707107 
C -0.51958 0.894634 -0.265203 1 0 1 
z
" style="stroke: #444444"/>
    </defs>
    <g clip-path="url(#p857ad87873)">
     <use xlink:href="#m0af8953884" x="53.841515" y="28.724737" style="fill: #444444; stroke: #444444"/>
     <use xlink:href="#m0af8953884" x="55.217406" y="30.985894" style="fill: #444444; stroke: #444444"/>
     <use xlink:href="#m0af8953884" x="56.593296" y="36.261927" style="fill: #444444; stroke: #444444"/>
     <use xlink:href="#m0af8953884" x="57.969187" y="39.276803" style="fill: #444444; stroke: #444444"/>
     <use xlink:href="#m0af8953884" x="59.345077" y="35.508208" style="fill: #444444; stroke: #444444"/>
     <use xlink:href="#m0af8953884" x="63.472748" y="37.015646" style="fill: #444444; stroke: #444444"/>
     <use xlink:href="#m0af8953884" x="64.848639" y="35.508208" style="fill: #444444; stroke: #444444"/>
     <use xlink:href="#m0af8953884" x="66.224529" y="38.523084" style="fill: #444444; stroke: #444444"/>
     <use xlink:href="#m0af8953884" x="67.60042" y="36.261927" style="fill: #444444; stroke: #444444"/>
     <use xlink:href="#m0af8953884" x="68.97631" y="34.00077" style="fill: #444444; stroke: #444444"/>
     <use xlink:href="#m0af8953884" x="73.103981" y="34.00077" style="fill: #444444; stroke: #444444"/>
     <use xlink:href="#m0af8953884" x="74.479872" y="34.754489" style="fill: #444444; stroke: #444444"/>
     <use xlink:href="#m0af8953884" x="75.855762" y="36.261927" style="fill: #444444; stroke: #444444"/>
     <use xlink:href="#m0af8953884" x="77.231652" y="37.769365" style="fill: #444444; stroke: #444444"/>
     <use xlink:href="#m0af8953884" x="78.607543" y="39.276803" style="fill: #444444; stroke: #444444"/>
     <use xlink:href="#m0af8953884" x="82.735214" y="40.030522" style="fill: #444444; stroke: #444444"/>
     <use xlink:href="#m0af8953884" x="84.111104" y="41.53796" style="fill: #444444; stroke: #444444"/>
     <use xlink:href="#m0af8953884" x="85.486995" y="42.291679" style="fill: #444444; stroke: #444444"/>
     <use xlink:href="#m0af8953884" x="86.862885" y="41.53796" style="fill: #444444; stroke: #444444"/>
     <use xlink:href="#m0af8953884" x="88.238776" y="43.799117" style="fill: #444444; stroke: #444444"/>
     <use xlink:href="#m0af8953884" x="92.366447" y="43.799117" style="fill: #444444; stroke: #444444"/>
     <use xlink:href="#m0af8953884" x="93.742337" y="45.306555" style="fill: #444444; stroke: #444444"/>
     <use xlink:href="#m0af8953884" x="95.118228" y="46.060274" style="fill: #444444; stroke: #444444"/>
     <use xlink:href="#m0af8953884" x="96.494118" y="43.045398" style="fill: #444444; stroke: #444444"/>
     <use xlink:href="#m0af8953884" x="97.870009" y="43.045398" style="fill: #444444; stroke: #444444"/>
     <use xlink:href="#m0af8953884" x="101.99768" y="41.53796" style="fill: #444444; stroke: #444444"/>
     <use xlink:href="#m0af8953884" x="103.37357" y="43.799117" style="fill: #444444; stroke: #444444"/>
     <use xlink:href="#m0af8953884" x="104.749461" y="41.53796" style="fill: #444444; stroke: #444444"/>
     <use xlink:href="#m0af8953884" x="106.125351" y="40.030522" style="fill: #444444; stroke: #444444"/>
     <use xlink:href="#m0af8953884" x="107.501241" y="45.306555" style="fill: #444444; stroke: #444444"/>
     <use xlink:href="#m0af8953884" x="111.628913" y="46.060274" style="fill: #444444; stroke: #444444"/>
     <use xlink:href="#m0af8953884" x="113.004803" y="46.060274" style="fill: #444444; stroke: #444444"/>
     <use xlink:href="#m0af8953884" x="114.380693" y="46.813993" style="fill: #444444; stroke: #444444"/>
     <use xlink:href="#m0af8953884" x="115.756584" y="46.060274" style="fill: #444444; stroke: #444444"/>
     <use xlink:href="#m0af8953884" x="117.132474" y="42.291679" style="fill: #444444; stroke: #444444"/>
     <use xlink:href="#m0af8953884" x="121.260146" y="43.045398" style="fill: #444444; stroke: #444444"/>
     <use xlink:href="#m0af8953884" x="122.636036" y="44.552836" style="fill: #444444; stroke: #444444"/>
     <use xlink:href="#m0af8953884" x="124.011926" y="45.306555" style="fill: #444444; stroke: #444444"/>
     <use xlink:href="#m0af8953884" x="125.387817" y="43.045398" style="fill: #444444; stroke: #444444"/>
     <use xlink:href="#m0af8953884" x="126.763707" y="43.799117" style="fill: #444444; stroke: #444444"/>
     <use xlink:href="#m0af8953884" x="130.891378" y="45.306555" style="fill: #444444; stroke: #444444"/>
     <use xlink:href="#m0af8953884" x="132.267269" y="44.552836" style="fill: #444444; stroke: #444444"/>
     <use xlink:href="#m0af8953884" x="133.643159" y="45.306555" style="fill: #444444; stroke: #444444"/>
     <use xlink:href="#m0af8953884" x="135.01905" y="45.306555" style="fill: #444444; stroke: #444444"/>
     <use xlink:href="#m0af8953884" x="136.39494" y="46.813993" style="fill: #444444; stroke: #444444"/>
     <use xlink:href="#m0af8953884" x="140.522611" y="48.321431" style="fill: #444444; stroke: #444444"/>
     <use xlink:href="#m0af8953884" x="141.898502" y="48.321431" style="fill: #444444; stroke: #444444"/>
     <use xlink:href="#m0af8953884" x="143.274392" y="49.828869" style="fill: #444444; stroke: #444444"/>
     <use xlink:href="#m0af8953884" x="144.650283" y="49.07515" style="fill: #444444; stroke: #444444"/>
     <use xlink:href="#m0af8953884" x="146.026173" y="45.306555" style="fill: #444444; stroke: #444444"/>
     <use xlink:href="#m0af8953884" x="150.153844" y="45.306555" style="fill: #444444; stroke: #444444"/>
     <use xlink:href="#m0af8953884" x="151.529735" y="46.060274" style="fill: #444444; stroke: #444444"/>
     <use xlink:href="#m0af8953884" x="152.905625" y="46.813993" style="fill: #444444; stroke: #444444"/>
     <use xlink:href="#m0af8953884" x="154.281515" y="47.567712" style="fill: #444444; stroke: #444444"/>
     <use xlink:href="#m0af8953884" x="155.657406" y="46.813993" style="fill: #444444; stroke: #444444"/>
     <use xlink:href="#m0af8953884" x="159.785077" y="46.060274" style="fill: #444444; stroke: #444444"/>
     <use xlink:href="#m0af8953884" x="161.160967" y="44.552836" style="fill: #444444; stroke: #444444"/>
     <use xlink:href="#m0af8953884" x="162.536858" y="43.799117" style="fill: #444444; stroke: #444444"/>
     <use xlink:href="#m0af8953884" x="163.912748" y="45.306555" style="fill: #444444; stroke: #444444"/>
     <use xlink:href="#m0af8953884" x="165.288639" y="43.045398" style="fill: #444444; stroke: #444444"/>
     <use xlink:href="#m0af8953884" x="169.41631" y="43.045398" style="fill: #444444; stroke: #444444"/>
     <use xlink:href="#m0af8953884" x="170.7922" y="43.045398" style="fill: #444444; stroke: #444444"/>
     <use xlink:href="#m0af8953884" x="172.168091" y="43.045398" style="fill: #444444; stroke: #444444"/>
     <use xlink:href="#m0af8953884" x="173.543981" y="40.030522" style="fill: #444444; stroke: #444444"/>
     <use xlink:href="#m0af8953884" x="174.919872" y="38.523084" style="fill: #444444; stroke: #444444"/>
     <use xlink:href="#m0af8953884" x="179.047543" y="37.015646" style="fill: #444444; stroke: #444444"/>
     <use xlink:href="#m0af8953884" x="180.423433" y="39.276803" style="fill: #444444; stroke: #444444"/>
     <use xlink:href="#m0af8953884" x="181.799324" y="37.015646" style="fill: #444444; stroke: #444444"/>
     <use xlink:href="#m0af8953884" x="183.175214" y="37.015646" style="fill: #444444; stroke: #444444"/>
     <use xlink:href="#m0af8953884" x="184.551104" y="36.261927" style="fill: #444444; stroke: #444444"/>
     <use xlink:href="#m0af8953884" x="188.678776" y="35.508208" style="fill: #444444; stroke: #444444"/>
     <use xlink:href="#m0af8953884" x="190.054666" y="34.754489" style="fill: #444444; stroke: #444444"/>
     <use xlink:href="#m0af8953884" x="191.430557" y="39.276803" style="fill: #444444; stroke: #444444"/>
     <use xlink:href="#m0af8953884" x="192.806447" y="40.030522" style="fill: #444444; stroke: #444444"/>
     <use xlink:href="#m0af8953884" x="194.182337" y="38.523084" style="fill: #444444; stroke: #444444"/>
     <use xlink:href="#m0af8953884" x="198.310009" y="36.261927" style="fill: #444444; stroke: #444444"/>
     <use xlink:href="#m0af8953884" x="199.685899" y="37.769365" style="fill: #444444; stroke: #444444"/>
     <use xlink:href="#m0af8953884" x="201.061789" y="38.523084" style="fill: #444444; stroke: #444444"/>
     <use xlink:href="#m0af8953884" x="202.43768" y="38.523084" style="fill: #444444; stroke: #444444"/>
     <use xlink:href="#m0af8953884" x="203.81357" y="43.799117" style="fill: #444444; stroke: #444444"/>
     <use xlink:href="#m0af8953884" x="207.941241" y="43.799117" style="fill: #444444; stroke: #444444"/>
     <use xlink:href="#m0af8953884" x="209.317132" y="42.291679" style="fill: #444444; stroke: #444444"/>
     <use xlink:href="#m0af8953884" x="210.693022" y="39.276803" style="fill: #444444; stroke: #444444"/>
     <use xlink:href="#m0af8953884" x="212.068913" y="40.784241" style="fill: #444444; stroke: #444444"/>
     <use xlink:href="#m0af8953884" x="213.444803" y="39.276803" style="fill: #444444; stroke: #444444"/>
     <use xlink:href="#m0af8953884" x="217.572474" y="37.769365" style="fill: #444444; stroke: #444444"/>
     <use xlink:href="#m0af8953884" x="218.948365" y="41.53796" style="fill: #444444; stroke: #444444"/>
     <use xlink:href="#m0af8953884" x="220.324255" y="41.53796" style="fill: #444444; stroke: #444444"/>
     <use xlink:href="#m0af8953884" x="221.700146" y="40.030522" style="fill: #444444; stroke: #444444"/>
     <use xlink:href="#m0af8953884" x="223.076036" y="38.523084" style="fill: #444444; stroke: #444444"/>
     <use xlink:href="#m0af8953884" x="227.203707" y="37.015646" style="fill: #444444; stroke: #444444"/>
     <use xlink:href="#m0af8953884" x="228.579598" y="37.769365" style="fill: #444444; stroke: #444444"/>
     <use xlink:href="#m0af8953884" x="229.955488" y="39.276803" style="fill: #444444; stroke: #444444"/>
     <use xlink:href="#m0af8953884" x="231.331378" y="35.508208" style="fill: #444444; stroke: #444444"/>
     <use xlink:href="#m0af8953884" x="232.707269" y="34.754489" style="fill: #444444; stroke: #444444"/>
     <use xlink:href="#m0af8953884" x="236.83494" y="35.508208" style="fill: #444444; stroke: #444444"/>
     <use xlink:href="#m0af8953884" x="238.21083" y="37.769365" style="fill: #444444; stroke: #444444"/>
     <use xlink:href="#m0af8953884" x="239.586721" y="33.247051" style="fill: #444444; stroke: #444444"/>
     <use xlink:href="#m0af8953884" x="240.962611" y="33.247051" style="fill: #444444; stroke: #444444"/>
     <use xlink:href="#m0af8953884" x="242.338502" y="38.523084" style="fill: #444444; stroke: #444444"/>
     <use xlink:href="#m0af8953884" x="246.466173" y="37.015646" style="fill: #444444; stroke: #444444"/>
     <use xlink:href="#m0af8953884" x="247.842063" y="37.015646" style="fill: #444444; stroke: #444444"/>
     <use xlink:href="#m0af8953884" x="249.217954" y="38.523084" style="fill: #444444; stroke: #444444"/>
     <use xlink:href="#m0af8953884" x="250.593844" y="39.276803" style="fill: #444444; stroke: #444444"/>
     <use xlink:href="#m0af8953884" x="251.969735" y="40.030522" style="fill: #444444; stroke: #444444"/>
     <use xlink:href="#m0af8953884" x="256.097406" y="41.53796" style="fill: #444444; stroke: #444444"/>
     <use xlink:href="#m0af8953884" x="257.473296" y="43.799117" style="fill: #444444; stroke: #444444"/>
     <use xlink:href="#m0af8953884" x="258.849187" y="43.045398" style="fill: #444444; stroke: #444444"/>
     <use xlink:href="#m0af8953884" x="260.225077" y="43.045398" style="fill: #444444; stroke: #444444"/>
     <use xlink:href="#m0af8953884" x="261.600967" y="44.552836" style="fill: #444444; stroke: #444444"/>
     <use xlink:href="#m0af8953884" x="265.728639" y="44.552836" style="fill: #444444; stroke: #444444"/>
     <use xlink:href="#m0af8953884" x="267.104529" y="44.552836" style="fill: #444444; stroke: #444444"/>
     <use xlink:href="#m0af8953884" x="268.48042" y="43.799117" style="fill: #444444; stroke: #444444"/>
     <use xlink:href="#m0af8953884" x="269.85631" y="43.045398" style="fill: #444444; stroke: #444444"/>
     <use xlink:href="#m0af8953884" x="271.2322" y="43.045398" style="fill: #444444; stroke: #444444"/>
     <use xlink:href="#m0af8953884" x="275.359872" y="45.306555" style="fill: #444444; stroke: #444444"/>
     <use xlink:href="#m0af8953884" x="276.735762" y="45.306555" style="fill: #444444; stroke: #444444"/>
     <use xlink:href="#m0af8953884" x="278.111652" y="46.060274" style="fill: #444444; stroke: #444444"/>
     <use xlink:href="#m0af8953884" x="279.487543" y="45.306555" style="fill: #444444; stroke: #444444"/>
     <use xlink:href="#m0af8953884" x="280.863433" y="55.104902" style="fill: #444444; stroke: #444444"/>
     <use xlink:href="#m0af8953884" x="284.991104" y="52.843745" style="fill: #444444; stroke: #444444"/>
     <use xlink:href="#m0af8953884" x="286.366995" y="55.104902" style="fill: #444444; stroke: #444444"/>
     <use xlink:href="#m0af8953884" x="287.742885" y="55.858621" style="fill: #444444; stroke: #444444"/>
     <use xlink:href="#m0af8953884" x="289.118776" y="55.104902" style="fill: #444444; stroke: #444444"/>
     <use xlink:href="#m0af8953884" x="290.494666" y="52.843745" style="fill: #444444; stroke: #444444"/>
     <use xlink:href="#m0af8953884" x="294.622337" y="51.336307" style="fill: #444444; stroke: #444444"/>
     <use xlink:href="#m0af8953884" x="295.998228" y="52.843745" style="fill: #444444; stroke: #444444"/>
     <use xlink:href="#m0af8953884" x="297.374118" y="53.597464" style="fill: #444444; stroke: #444444"/>
     <use xlink:href="#m0af8953884" x="298.750009" y="55.104902" style="fill: #444444; stroke: #444444"/>
     <use xlink:href="#m0af8953884" x="300.125899" y="57.366059" style="fill: #444444; stroke: #444444"/>
     <use xlink:href="#m0af8953884" x="304.25357" y="55.858621" style="fill: #444444; stroke: #444444"/>
     <use xlink:href="#m0af8953884" x="305.629461" y="52.090026" style="fill: #444444; stroke: #444444"/>
     <use xlink:href="#m0af8953884" x="307.005351" y="52.843745" style="fill: #444444; stroke: #444444"/>
     <use xlink:href="#m0af8953884" x="308.381241" y="52.843745" style="fill: #444444; stroke: #444444"/>
     <use xlink:href="#m0af8953884" x="309.757132" y="53.597464" style="fill: #444444; stroke: #444444"/>
     <use xlink:href="#m0af8953884" x="313.884803" y="54.351183" style="fill: #444444; stroke: #444444"/>
     <use xlink:href="#m0af8953884" x="315.260693" y="54.351183" style="fill: #444444; stroke: #444444"/>
     <use xlink:href="#m0af8953884" x="316.636584" y="52.090026" style="fill: #444444; stroke: #444444"/>
     <use xlink:href="#m0af8953884" x="318.012474" y="52.090026" style="fill: #444444; stroke: #444444"/>
     <use xlink:href="#m0af8953884" x="319.388365" y="55.104902" style="fill: #444444; stroke: #444444"/>
     <use xlink:href="#m0af8953884" x="323.516036" y="52.843745" style="fill: #444444; stroke: #444444"/>
     <use xlink:href="#m0af8953884" x="324.891926" y="52.843745" style="fill: #444444; stroke: #444444"/>
     <use xlink:href="#m0af8953884" x="326.267817" y="52.090026" style="fill: #444444; stroke: #444444"/>
     <use xlink:href="#m0af8953884" x="327.643707" y="49.828869" style="fill: #444444; stroke: #444444"/>
     <use xlink:href="#m0af8953884" x="329.019598" y="49.07515" style="fill: #444444; stroke: #444444"/>
     <use xlink:href="#m0af8953884" x="333.147269" y="49.828869" style="fill: #444444; stroke: #444444"/>
     <use xlink:href="#m0af8953884" x="334.523159" y="51.336307" style="fill: #444444; stroke: #444444"/>
     <use xlink:href="#m0af8953884" x="335.89905" y="49.828869" style="fill: #444444; stroke: #444444"/>
     <use xlink:href="#m0af8953884" x="337.27494" y="47.567712" style="fill: #444444; stroke: #444444"/>
     <use xlink:href="#m0af8953884" x="338.65083" y="43.799117" style="fill: #444444; stroke: #444444"/>
     <use xlink:href="#m0af8953884" x="342.778502" y="45.306555" style="fill: #444444; stroke: #444444"/>
     <use xlink:href="#m0af8953884" x="344.154392" y="43.045398" style="fill: #444444; stroke: #444444"/>
     <use xlink:href="#m0af8953884" x="345.530283" y="46.060274" style="fill: #444444; stroke: #444444"/>
     <use xlink:href="#m0af8953884" x="346.906173" y="44.552836" style="fill: #444444; stroke: #444444"/>
     <use xlink:href="#m0af8953884" x="348.282063" y="46.813993" style="fill: #444444; stroke: #444444"/>
     <use xlink:href="#m0af8953884" x="352.409735" y="45.306555" style="fill: #444444; stroke: #444444"/>
     <use xlink:href="#m0af8953884" x="353.785625" y="46.813993" style="fill: #444444; stroke: #444444"/>
     <use xlink:href="#m0af8953884" x="355.161515" y="46.060274" style="fill: #444444; stroke: #444444"/>
     <use xlink:href="#m0af8953884" x="356.537406" y="46.813993" style="fill: #444444; stroke: #444444"/>
     <use xlink:href="#m0af8953884" x="357.913296" y="46.060274" style="fill: #444444; stroke: #444444"/>
     <use xlink:href="#m0af8953884" x="362.040967" y="44.552836" style="fill: #444444; stroke: #444444"/>
     <use xlink:href="#m0af8953884" x="363.416858" y="46.060274" style="fill: #444444; stroke: #444444"/>
     <use xlink:href="#m0af8953884" x="364.792748" y="44.552836" style="fill: #444444; stroke: #444444"/>
     <use xlink:href="#m0af8953884" x="366.168639" y="48.321431" style="fill: #444444; stroke: #444444"/>
     <use xlink:href="#m0af8953884" x="367.544529" y="47.567712" style="fill: #444444; stroke: #444444"/>
     <use xlink:href="#m0af8953884" x="371.6722" y="46.813993" style="fill: #444444; stroke: #444444"/>
     <use xlink:href="#m0af8953884" x="373.048091" y="49.07515" style="fill: #444444; stroke: #444444"/>
     <use xlink:href="#m0af8953884" x="374.423981" y="46.060274" style="fill: #444444; stroke: #444444"/>
     <use xlink:href="#m0af8953884" x="375.799872" y="48.321431" style="fill: #444444; stroke: #444444"/>
     <use xlink:href="#m0af8953884" x="377.175762" y="49.828869" style="fill: #444444; stroke: #444444"/>
     <use xlink:href="#m0af8953884" x="381.303433" y="49.828869" style="fill: #444444; stroke: #444444"/>
     <use xlink:href="#m0af8953884" x="382.679324" y="47.567712" style="fill: #444444; stroke: #444444"/>
     <use xlink:href="#m0af8953884" x="384.055214" y="44.552836" style="fill: #444444; stroke: #444444"/>
     <use xlink:href="#m0af8953884" x="385.431104" y="44.552836" style="fill: #444444; stroke: #444444"/>
     <use xlink:href="#m0af8953884" x="386.806995" y="44.552836" style="fill: #444444; stroke: #444444"/>
     <use xlink:href="#m0af8953884" x="390.934666" y="45.306555" style="fill: #444444; stroke: #444444"/>
     <use xlink:href="#m0af8953884" x="392.310557" y="44.552836" style="fill: #444444; stroke: #444444"/>
     <use xlink:href="#m0af8953884" x="393.686447" y="45.306555" style="fill: #444444; stroke: #444444"/>
     <use xlink:href="#m0af8953884" x="395.062337" y="45.306555" style="fill: #444444; stroke: #444444"/>
     <use xlink:href="#m0af8953884" x="396.438228" y="46.060274" style="fill: #444444; stroke: #444444"/>
     <use xlink:href="#m0af8953884" x="400.565899" y="46.813993" style="fill: #444444; stroke: #444444"/>
     <use xlink:href="#m0af8953884" x="401.941789" y="47.567712" style="fill: #444444; stroke: #444444"/>
     <use xlink:href="#m0af8953884" x="403.31768" y="46.813993" style="fill: #444444; stroke: #444444"/>
     <use xlink:href="#m0af8953884" x="404.69357" y="49.828869" style="fill: #444444; stroke: #444444"/>
     <use xlink:href="#m0af8953884" x="406.069461" y="52.843745" style="fill: #444444; stroke: #444444"/>
     <use xlink:href="#m0af8953884" x="410.197132" y="52.090026" style="fill: #444444; stroke: #444444"/>
     <use xlink:href="#m0af8953884" x="411.573022" y="52.090026" style="fill: #444444; stroke: #444444"/>
     <use xlink:href="#m0af8953884" x="412.948913" y="54.351183" style="fill: #444444; stroke: #444444"/>
     <use xlink:href="#m0af8953884" x="414.324803" y="52.843745" style="fill: #444444; stroke: #444444"/>
     <use xlink:href="#m0af8953884" x="415.700693" y="51.336307" style="fill: #444444; stroke: #444444"/>
     <use xlink:href="#m0af8953884" x="419.828365" y="49.07515" style="fill: #444444; stroke: #444444"/>
     <use xlink:href="#m0af8953884" x="421.204255" y="48.321431" style="fill: #444444; stroke: #444444"/>
     <use xlink:href="#m0af8953884" x="422.580146" y="48.321431" style="fill: #444444; stroke: #444444"/>
     <use xlink:href="#m0af8953884" x="423.956036" y="48.321431" style="fill: #444444; stroke: #444444"/>
     <use xlink:href="#m0af8953884" x="425.331926" y="46.813993" style="fill: #444444; stroke: #444444"/>
     <use xlink:href="#m0af8953884" x="429.459598" y="48.321431" style="fill: #444444; stroke: #444444"/>
     <use xlink:href="#m0af8953884" x="430.835488" y="49.07515" style="fill: #444444; stroke: #444444"/>
     <use xlink:href="#m0af8953884" x="432.211378" y="44.552836" style="fill: #444444; stroke: #444444"/>
     <use xlink:href="#m0af8953884" x="433.587269" y="45.306555" style="fill: #444444; stroke: #444444"/>
     <use xlink:href="#m0af8953884" x="434.963159" y="44.552836" style="fill: #444444; stroke: #444444"/>
     <use xlink:href="#m0af8953884" x="439.09083" y="46.060274" style="fill: #444444; stroke: #444444"/>
     <use xlink:href="#m0af8953884" x="440.466721" y="46.060274" style="fill: #444444; stroke: #444444"/>
     <use xlink:href="#m0af8953884" x="441.842611" y="46.813993" style="fill: #444444; stroke: #444444"/>
     <use xlink:href="#m0af8953884" x="443.218502" y="47.567712" style="fill: #444444; stroke: #444444"/>
     <use xlink:href="#m0af8953884" x="444.594392" y="44.552836" style="fill: #444444; stroke: #444444"/>
     <use xlink:href="#m0af8953884" x="448.722063" y="43.799117" style="fill: #444444; stroke: #444444"/>
     <use xlink:href="#m0af8953884" x="450.097954" y="46.060274" style="fill: #444444; stroke: #444444"/>
     <use xlink:href="#m0af8953884" x="451.473844" y="45.306555" style="fill: #444444; stroke: #444444"/>
     <use xlink:href="#m0af8953884" x="452.849735" y="46.813993" style="fill: #444444; stroke: #444444"/>
     <use xlink:href="#m0af8953884" x="454.225625" y="46.060274" style="fill: #444444; stroke: #444444"/>
     <use xlink:href="#m0af8953884" x="458.353296" y="46.060274" style="fill: #444444; stroke: #444444"/>
     <use xlink:href="#m0af8953884" x="459.729187" y="46.813993" style="fill: #444444; stroke: #444444"/>
     <use xlink:href="#m0af8953884" x="461.105077" y="47.567712" style="fill: #444444; stroke: #444444"/>
     <use xlink:href="#m0af8953884" x="462.480967" y="47.567712" style="fill: #444444; stroke: #444444"/>
     <use xlink:href="#m0af8953884" x="463.856858" y="47.567712" style="fill: #444444; stroke: #444444"/>
     <use xlink:href="#m0af8953884" x="467.984529" y="47.567712" style="fill: #444444; stroke: #444444"/>
     <use xlink:href="#m0af8953884" x="469.36042" y="49.07515" style="fill: #444444; stroke: #444444"/>
     <use xlink:href="#m0af8953884" x="470.73631" y="47.567712" style="fill: #444444; stroke: #444444"/>
     <use xlink:href="#m0af8953884" x="472.1122" y="44.552836" style="fill: #444444; stroke: #444444"/>
     <use xlink:href="#m0af8953884" x="473.488091" y="45.306555" style="fill: #444444; stroke: #444444"/>
     <use xlink:href="#m0af8953884" x="477.615762" y="45.306555" style="fill: #444444; stroke: #444444"/>
     <use xlink:href="#m0af8953884" x="478.991652" y="45.306555" style="fill: #444444; stroke: #444444"/>
     <use xlink:href="#m0af8953884" x="480.367543" y="47.567712" style="fill: #444444; stroke: #444444"/>
     <use xlink:href="#m0af8953884" x="481.743433" y="46.060274" style="fill: #444444; stroke: #444444"/>
     <use xlink:href="#m0af8953884" x="483.119324" y="44.552836" style="fill: #444444; stroke: #444444"/>
     <use xlink:href="#m0af8953884" x="487.246995" y="46.813993" style="fill: #444444; stroke: #444444"/>
     <use xlink:href="#m0af8953884" x="488.622885" y="46.813993" style="fill: #444444; stroke: #444444"/>
     <use xlink:href="#m0af8953884" x="489.998776" y="45.306555" style="fill: #444444; stroke: #444444"/>
     <use xlink:href="#m0af8953884" x="491.374666" y="43.045398" style="fill: #444444; stroke: #444444"/>
     <use xlink:href="#m0af8953884" x="492.750557" y="40.784241" style="fill: #444444; stroke: #444444"/>
     <use xlink:href="#m0af8953884" x="496.878228" y="43.045398" style="fill: #444444; stroke: #444444"/>
     <use xlink:href="#m0af8953884" x="498.254118" y="43.799117" style="fill: #444444; stroke: #444444"/>
     <use xlink:href="#m0af8953884" x="499.630009" y="43.045398" style="fill: #444444; stroke: #444444"/>
     <use xlink:href="#m0af8953884" x="501.005899" y="40.784241" style="fill: #444444; stroke: #444444"/>
     <use xlink:href="#m0af8953884" x="502.381789" y="42.291679" style="fill: #444444; stroke: #444444"/>
     <use xlink:href="#m0af8953884" x="506.509461" y="40.784241" style="fill: #444444; stroke: #444444"/>
     <use xlink:href="#m0af8953884" x="507.885351" y="36.261927" style="fill: #444444; stroke: #444444"/>
     <use xlink:href="#m0af8953884" x="509.261241" y="34.754489" style="fill: #444444; stroke: #444444"/>
     <use xlink:href="#m0af8953884" x="510.637132" y="31.739613" style="fill: #444444; stroke: #444444"/>
     <use xlink:href="#m0af8953884" x="512.013022" y="31.739613" style="fill: #444444; stroke: #444444"/>
     <use xlink:href="#m0af8953884" x="516.140693" y="26.46358" style="fill: #444444; stroke: #444444"/>
     <use xlink:href="#m0af8953884" x="517.516584" y="31.739613" style="fill: #444444; stroke: #444444"/>
     <use xlink:href="#m0af8953884" x="518.892474" y="33.247051" style="fill: #444444; stroke: #444444"/>
     <use xlink:href="#m0af8953884" x="520.268365" y="33.247051" style="fill: #444444; stroke: #444444"/>
     <use xlink:href="#m0af8953884" x="521.644255" y="30.985894" style="fill: #444444; stroke: #444444"/>
     <use xlink:href="#m0af8953884" x="525.771926" y="30.985894" style="fill: #444444; stroke: #444444"/>
     <use xlink:href="#m0af8953884" x="527.147817" y="30.232175" style="fill: #444444; stroke: #444444"/>
     <use xlink:href="#m0af8953884" x="528.523707" y="29.478456" style="fill: #444444; stroke: #444444"/>
     <use xlink:href="#m0af8953884" x="529.899598" y="30.985894" style="fill: #444444; stroke: #444444"/>
     <use xlink:href="#m0af8953884" x="531.275488" y="28.724737" style="fill: #444444; stroke: #444444"/>
     <use xlink:href="#m0af8953884" x="535.403159" y="31.739613" style="fill: #444444; stroke: #444444"/>
     <use xlink:href="#m0af8953884" x="536.77905" y="30.985894" style="fill: #444444; stroke: #444444"/>
     <use xlink:href="#m0af8953884" x="538.15494" y="29.478456" style="fill: #444444; stroke: #444444"/>
     <use xlink:href="#m0af8953884" x="539.53083" y="30.985894" style="fill: #444444; stroke: #444444"/>
     <use xlink:href="#m0af8953884" x="540.906721" y="27.971018" style="fill: #444444; stroke: #444444"/>
     <use xlink:href="#m0af8953884" x="545.034392" y="29.478456" style="fill: #444444; stroke: #444444"/>
     <use xlink:href="#m0af8953884" x="546.410283" y="30.232175" style="fill: #444444; stroke: #444444"/>
     <use xlink:href="#m0af8953884" x="547.786173" y="28.724737" style="fill: #444444; stroke: #444444"/>
     <use xlink:href="#m0af8953884" x="549.162063" y="27.971018" style="fill: #444444; stroke: #444444"/>
     <use xlink:href="#m0af8953884" x="550.537954" y="28.724737" style="fill: #444444; stroke: #444444"/>
     <use xlink:href="#m0af8953884" x="554.665625" y="31.739613" style="fill: #444444; stroke: #444444"/>
    </g>
   </g>
   <g id="line2d_32">
    <path d="M 52.465625 109.37267 
L 554.665625 109.37267 
" clip-path="url(#p857ad87873)" style="fill: none; stroke: #000000; stroke-linecap: square"/>
   </g>
   <g id="patch_3">
    <path d="M 52.465625 113.518125 
L 52.465625 22.318125 
" style="fill: none; stroke: #000000; stroke-width: 0.8; stroke-linejoin: miter; stroke-linecap: square"/>
   </g>
   <g id="patch_4">
    <path d="M 554.665625 113.518125 
L 554.665625 22.318125 
" style="fill: none; stroke: #000000; stroke-width: 0.8; stroke-linejoin: miter; stroke-linecap: square"/>
   </g>
   <g id="patch_5">
    <path d="M 52.465625 113.518125 
L 554.665625 113.518125 
" style="fill: none; stroke: #000000; stroke-width: 0.8; stroke-linejoin: miter; stroke-linecap: square"/>
   </g>
   <g id="patch_6">
    <path d="M 52.465625 22.318125 
L 554.665625 22.318125 
" style="fill: none; stroke: #000000; stroke-width: 0.8; stroke-linejoin: miter; stroke-linecap: square"/>
   </g>
   <g id="text_17">
    <!-- UST10 – GoC10 Spread (bp) -->
    <g transform="translate(219.862813 16.318125) scale(0.12 -0.12)">
     <defs>
      <path id="DejaVuSans-38" d="M 556 4666 
L 1191 4666 
L 1191 1831 
Q 1191 1081 1462 751 
Q 1734 422 2344 422 
Q 2950 422 3222 751 
Q 3494 1081 3494 1831 
L 3494 4666 
L 4128 4666 
L 4128 1753 
Q 4128 841 3676 375 
Q 3225 -91 2344 -91 
Q 1459 -91 1007 375 
Q 556 841 556 1753 
L 556 4666 
z
" transform="scale(0.015625)"/>
      <path id="DejaVuSans-36" d="M 3425 4513 
L 3425 3897 
Q 3066 4069 2747 4153 
Q 2428 4238 2131 4238 
Q 1616 4238 1336 4038 
Q 1056 3838 1056 3469 
Q 1056 3159 1242 3001 
Q 1428 2844 1947 2747 
L 2328 2669 
Q 3034 2534 3370 2195 
Q 3706 1856 3706 1288 
Q 3706 609 3251 259 
Q 2797 -91 1919 -91 
Q 1588 -91 1214 -16 
Q 841 59 441 206 
L 441 856 
Q 825 641 1194 531 
Q 1563 422 1919 422 
Q 2459 422 2753 634 
Q 3047 847 3047 1241 
Q 3047 1584 2836 1778 
Q 2625 1972 2144 2069 
L 1759 2144 
Q 1053 2284 737 2584 
Q 422 2884 422 3419 
Q 422 4038 858 4394 
Q 1294 4750 2059 4750 
Q 2388 4750 2728 4690 
Q 3069 4631 3425 4513 
z
" transform="scale(0.015625)"/>
      <path id="DejaVuSans-37" d="M -19 4666 
L 3928 4666 
L 3928 4134 
L 2272 4134 
L 2272 0 
L 1638 0 
L 1638 4134 
L -19 4134 
L -19 4666 
z
" transform="scale(0.015625)"/>
      <path id="DejaVuSans-3" transform="scale(0.015625)"/>
      <path id="DejaVuSans-af5" d="M 313 1978 
L 2888 1978 
L 2888 1528 
L 313 1528 
L 313 1978 
z
" transform="scale(0.015625)"/>
      <path id="DejaVuSans-2a" d="M 3809 666 
L 3809 1919 
L 2778 1919 
L 2778 2438 
L 4434 2438 
L 4434 434 
Q 4069 175 3628 42 
Q 3188 -91 2688 -91 
Q 1594 -91 976 548 
Q 359 1188 359 2328 
Q 359 3472 976 4111 
Q 1594 4750 2688 4750 
Q 3144 4750 3555 4637 
Q 3966 4525 4313 4306 
L 4313 3634 
Q 3963 3931 3569 4081 
Q 3175 4231 2741 4231 
Q 1884 4231 1454 3753 
Q 1025 3275 1025 2328 
Q 1025 1384 1454 906 
Q 1884 428 2741 428 
Q 3075 428 3337 486 
Q 3600 544 3809 666 
z
" transform="scale(0.015625)"/>
      <path id="DejaVuSans-52" d="M 1959 3097 
Q 1497 3097 1228 2736 
Q 959 2375 959 1747 
Q 959 1119 1226 758 
Q 1494 397 1959 397 
Q 2419 397 2687 759 
Q 2956 1122 2956 1747 
Q 2956 2369 2687 2733 
Q 2419 3097 1959 3097 
z
M 1959 3584 
Q 2709 3584 3137 3096 
Q 3566 2609 3566 1747 
Q 3566 888 3137 398 
Q 2709 -91 1959 -91 
Q 1206 -91 779 398 
Q 353 888 353 1747 
Q 353 2609 779 3096 
Q 1206 3584 1959 3584 
z
" transform="scale(0.015625)"/>
      <path id="DejaVuSans-26" d="M 4122 4306 
L 4122 3641 
Q 3803 3938 3442 4084 
Q 3081 4231 2675 4231 
Q 1875 4231 1450 3742 
Q 1025 3253 1025 2328 
Q 1025 1406 1450 917 
Q 1875 428 2675 428 
Q 3081 428 3442 575 
Q 3803 722 4122 1019 
L 4122 359 
Q 3791 134 3420 21 
Q 3050 -91 2638 -91 
Q 1578 -91 968 557 
Q 359 1206 359 2328 
Q 359 3453 968 4101 
Q 1578 4750 2638 4750 
Q 3056 4750 3426 4639 
Q 3797 4528 4122 4306 
z
" transform="scale(0.015625)"/>
      <path id="DejaVuSans-55" d="M 2631 2963 
Q 2534 3019 2420 3045 
Q 2306 3072 2169 3072 
Q 1681 3072 1420 2755 
Q 1159 2438 1159 1844 
L 1159 0 
L 581 0 
L 581 3500 
L 1159 3500 
L 1159 2956 
Q 1341 3275 1631 3429 
Q 1922 3584 2338 3584 
Q 2397 3584 2469 3576 
Q 2541 3569 2628 3553 
L 2631 2963 
z
" transform="scale(0.015625)"/>
      <path id="DejaVuSans-48" d="M 3597 1894 
L 3597 1613 
L 953 1613 
Q 991 1019 1311 708 
Q 1631 397 2203 397 
Q 2534 397 2845 478 
Q 3156 559 3463 722 
L 3463 178 
Q 3153 47 2828 -22 
Q 2503 -91 2169 -91 
Q 1331 -91 842 396 
Q 353 884 353 1716 
Q 353 2575 817 3079 
Q 1281 3584 2069 3584 
Q 2775 3584 3186 3129 
Q 3597 2675 3597 1894 
z
M 3022 2063 
Q 3016 2534 2758 2815 
Q 2500 3097 2075 3097 
Q 1594 3097 1305 2825 
Q 1016 2553 972 2059 
L 3022 2063 
z
" transform="scale(0.015625)"/>
      <path id="DejaVuSans-44" d="M 2194 1759 
Q 1497 1759 1228 1600 
Q 959 1441 959 1056 
Q 959 750 1161 570 
Q 1363 391 1709 391 
Q 2188 391 2477 730 
Q 2766 1069 2766 1631 
L 2766 1759 
L 2194 1759 
z
M 3341 1997 
L 3341 0 
L 2766 0 
L 2766 531 
Q 2569 213 2275 61 
Q 1981 -91 1556 -91 
Q 1019 -91 701 211 
Q 384 513 384 1019 
Q 384 1609 779 1909 
Q 1175 2209 1959 2209 
L 2766 2209 
L 2766 2266 
Q 2766 2663 2505 2880 
Q 2244 3097 1772 3097 
Q 1472 3097 1187 3025 
Q 903 2953 641 2809 
L 641 3341 
Q 956 3463 1253 3523 
Q 1550 3584 1831 3584 
Q 2591 3584 2966 3190 
Q 3341 2797 3341 1997 
z
" transform="scale(0.015625)"/>
      <path id="DejaVuSans-47" d="M 2906 2969 
L 2906 4863 
L 3481 4863 
L 3481 0 
L 2906 0 
L 2906 525 
Q 2725 213 2448 61 
Q 2172 -91 1784 -91 
Q 1150 -91 751 415 
Q 353 922 353 1747 
Q 353 2572 751 3078 
Q 1150 3584 1784 3584 
Q 2172 3584 2448 3432 
Q 2725 3281 2906 2969 
z
M 947 1747 
Q 947 1113 1208 752 
Q 1469 391 1925 391 
Q 2381 391 2643 752 
Q 2906 1113 2906 1747 
Q 2906 2381 2643 2742 
Q 2381 3103 1925 3103 
Q 1469 3103 1208 2742 
Q 947 2381 947 1747 
z
" transform="scale(0.015625)"/>
      <path id="DejaVuSans-b" d="M 1984 4856 
Q 1566 4138 1362 3434 
Q 1159 2731 1159 2009 
Q 1159 1288 1364 580 
Q 1569 -128 1984 -844 
L 1484 -844 
Q 1016 -109 783 600 
Q 550 1309 550 2009 
Q 550 2706 781 3412 
Q 1013 4119 1484 4856 
L 1984 4856 
z
" transform="scale(0.015625)"/>
      <path id="DejaVuSans-c" d="M 513 4856 
L 1013 4856 
Q 1481 4119 1714 3412 
Q 1947 2706 1947 2009 
Q 1947 1309 1714 600 
Q 1481 -109 1013 -844 
L 513 -844 
Q 928 -128 1133 580 
Q 1338 1288 1338 2009 
Q 1338 2731 1133 3434 
Q 928 4138 513 4856 
z
" transform="scale(0.015625)"/>
     </defs>
     <use xlink:href="#DejaVuSans-38"/>
     <use xlink:href="#DejaVuSans-36" transform="translate(73.1875 0)"/>
     <use xlink:href="#DejaVuSans-37" transform="translate(136.671875 0)"/>
     <use xlink:href="#DejaVuSans-14" transform="translate(197.75 0)"/>
     <use xlink:href="#DejaVuSans-13" transform="translate(261.375 0)"/>
     <use xlink:href="#DejaVuSans-3" transform="translate(325 0)"/>
     <use xlink:href="#DejaVuSans-af5" transform="translate(356.78125 0)"/>
     <use xlink:href="#DejaVuSans-3" transform="translate(406.78125 0)"/>
     <use xlink:href="#DejaVuSans-2a" transform="translate(438.5625 0)"/>
     <use xlink:href="#DejaVuSans-52" transform="translate(516.046875 0)"/>
     <use xlink:href="#DejaVuSans-26" transform="translate(577.234375 0)"/>
     <use xlink:href="#DejaVuSans-14" transform="translate(647.0625 0)"/>
     <use xlink:href="#DejaVuSans-13" transform="translate(710.6875 0)"/>
     <use xlink:href="#DejaVuSans-3" transform="translate(774.3125 0)"/>
     <use xlink:href="#DejaVuSans-36" transform="translate(806.09375 0)"/>
     <use xlink:href="#DejaVuSans-53" transform="translate(869.578125 0)"/>
     <use xlink:href="#DejaVuSans-55" transform="translate(933.0625 0)"/>
     <use xlink:href="#DejaVuSans-48" transform="translate(971.96875 0)"/>
     <use xlink:href="#DejaVuSans-44" transform="translate(1033.5 0)"/>
     <use xlink:href="#DejaVuSans-47" transform="translate(1094.78125 0)"/>
     <use xlink:href="#DejaVuSans-3" transform="translate(1158.265625 0)"/>
     <use xlink:href="#DejaVuSans-b" transform="translate(1190.046875 0)"/>
     <use xlink:href="#DejaVuSans-45" transform="translate(1229.0625 0)"/>
     <use xlink:href="#DejaVuSans-53" transform="translate(1292.546875 0)"/>
     <use xlink:href="#DejaVuSans-c" transform="translate(1356.03125 0)"/>
    </g>
   </g>
  </g>
  <g id="axes_2">
   <g id="patch_7">
    <path d="M 52.465625 188.638125 
L 554.665625 188.638125 
L 554.665625 156.718125 
L 52.465625 156.718125 
z
" style="fill: #ffffff"/>
   </g>
   <g id="matplotlib.axis_3">
    <g id="xtick_13">
     <g id="line2d_33">
      <path d="M 64.848639 188.638125 
L 64.848639 156.718125 
" clip-path="url(#pbd58aefbce)" style="fill: none; stroke: #b0b0b0; stroke-opacity: 0.15; stroke-width: 0.8; stroke-linecap: square"/>
     </g>
     <g id="line2d_34">
      <g>
       <use xlink:href="#m79420abd6e" x="64.848639" y="188.638125" style="stroke: #000000; stroke-width: 0.8"/>
      </g>
     </g>
     <g id="text_18">
      <!-- 2025-07 -->
      <g transform="translate(33.605015 230.555389) rotate(-45) scale(0.1 -0.1)">
       <use xlink:href="#DejaVuSans-15"/>
       <use xlink:href="#DejaVuSans-13" transform="translate(63.625 0)"/>
       <use xlink:href="#DejaVuSans-15" transform="translate(127.25 0)"/>
       <use xlink:href="#DejaVuSans-18" transform="translate(190.875 0)"/>
       <use xlink:href="#DejaVuSans-10" transform="translate(254.5 0)"/>
       <use xlink:href="#DejaVuSans-13" transform="translate(290.578125 0)"/>
       <use xlink:href="#DejaVuSans-1a" transform="translate(354.203125 0)"/>
      </g>
     </g>
    </g>
    <g id="xtick_14">
     <g id="line2d_35">
      <path d="M 107.501241 188.638125 
L 107.501241 156.718125 
" clip-path="url(#pbd58aefbce)" style="fill: none; stroke: #b0b0b0; stroke-opacity: 0.15; stroke-width: 0.8; stroke-linecap: square"/>
     </g>
     <g id="line2d_36">
      <g>
       <use xlink:href="#m79420abd6e" x="107.501241" y="188.638125" style="stroke: #000000; stroke-width: 0.8"/>
      </g>
     </g>
     <g id="text_19">
      <!-- 2025-08 -->
      <g transform="translate(76.257618 230.555389) rotate(-45) scale(0.1 -0.1)">
       <use xlink:href="#DejaVuSans-15"/>
       <use xlink:href="#DejaVuSans-13" transform="translate(63.625 0)"/>
       <use xlink:href="#DejaVuSans-15" transform="translate(127.25 0)"/>
       <use xlink:href="#DejaVuSans-18" transform="translate(190.875 0)"/>
       <use xlink:href="#DejaVuSans-10" transform="translate(254.5 0)"/>
       <use xlink:href="#DejaVuSans-13" transform="translate(290.578125 0)"/>
       <use xlink:href="#DejaVuSans-1b" transform="translate(354.203125 0)"/>
      </g>
     </g>
    </g>
    <g id="xtick_15">
     <g id="line2d_37">
      <path d="M 150.153844 188.638125 
L 150.153844 156.718125 
" clip-path="url(#pbd58aefbce)" style="fill: none; stroke: #b0b0b0; stroke-opacity: 0.15; stroke-width: 0.8; stroke-linecap: square"/>
     </g>
     <g id="line2d_38">
      <g>
       <use xlink:href="#m79420abd6e" x="150.153844" y="188.638125" style="stroke: #000000; stroke-width: 0.8"/>
      </g>
     </g>
     <g id="text_20">
      <!-- 2025-09 -->
      <g transform="translate(118.910221 230.555389) rotate(-45) scale(0.1 -0.1)">
       <use xlink:href="#DejaVuSans-15"/>
       <use xlink:href="#DejaVuSans-13" transform="translate(63.625 0)"/>
       <use xlink:href="#DejaVuSans-15" transform="translate(127.25 0)"/>
       <use xlink:href="#DejaVuSans-18" transform="translate(190.875 0)"/>
       <use xlink:href="#DejaVuSans-10" transform="translate(254.5 0)"/>
       <use xlink:href="#DejaVuSans-13" transform="translate(290.578125 0)"/>
       <use xlink:href="#DejaVuSans-1c" transform="translate(354.203125 0)"/>
      </g>
     </g>
    </g>
    <g id="xtick_16">
     <g id="line2d_39">
      <path d="M 191.430557 188.638125 
L 191.430557 156.718125 
" clip-path="url(#pbd58aefbce)" style="fill: none; stroke: #b0b0b0; stroke-opacity: 0.15; stroke-width: 0.8; stroke-linecap: square"/>
     </g>
     <g id="line2d_40">
      <g>
       <use xlink:href="#m79420abd6e" x="191.430557" y="188.638125" style="stroke: #000000; stroke-width: 0.8"/>
      </g>
     </g>
     <g id="text_21">
      <!-- 2025-10 -->
      <g transform="translate(160.186933 230.555389) rotate(-45) scale(0.1 -0.1)">
       <use xlink:href="#DejaVuSans-15"/>
       <use xlink:href="#DejaVuSans-13" transform="translate(63.625 0)"/>
       <use xlink:href="#DejaVuSans-15" transform="translate(127.25 0)"/>
       <use xlink:href="#DejaVuSans-18" transform="translate(190.875 0)"/>
       <use xlink:href="#DejaVuSans-10" transform="translate(254.5 0)"/>
       <use xlink:href="#DejaVuSans-14" transform="translate(290.578125 0)"/>
       <use xlink:href="#DejaVuSans-13" transform="translate(354.203125 0)"/>
      </g>
     </g>
    </g>
    <g id="xtick_17">
     <g id="line2d_41">
      <path d="M 234.083159 188.638125 
L 234.083159 156.718125 
" clip-path="url(#pbd58aefbce)" style="fill: none; stroke: #b0b0b0; stroke-opacity: 0.15; stroke-width: 0.8; stroke-linecap: square"/>
     </g>
     <g id="line2d_42">
      <g>
       <use xlink:href="#m79420abd6e" x="234.083159" y="188.638125" style="stroke: #000000; stroke-width: 0.8"/>
      </g>
     </g>
     <g id="text_22">
      <!-- 2025-11 -->
      <g transform="translate(202.839536 230.555389) rotate(-45) scale(0.1 -0.1)">
       <use xlink:href="#DejaVuSans-15"/>
       <use xlink:href="#DejaVuSans-13" transform="translate(63.625 0)"/>
       <use xlink:href="#DejaVuSans-15" transform="translate(127.25 0)"/>
       <use xlink:href="#DejaVuSans-18" transform="translate(190.875 0)"/>
       <use xlink:href="#DejaVuSans-10" transform="translate(254.5 0)"/>
       <use xlink:href="#DejaVuSans-14" transform="translate(290.578125 0)"/>
       <use xlink:href="#DejaVuSans-14" transform="translate(354.203125 0)"/>
      </g>
     </g>
    </g>
    <g id="xtick_18">
     <g id="line2d_43">
      <path d="M 275.359872 188.638125 
L 275.359872 156.718125 
" clip-path="url(#pbd58aefbce)" style="fill: none; stroke: #b0b0b0; stroke-opacity: 0.15; stroke-width: 0.8; stroke-linecap: square"/>
     </g>
     <g id="line2d_44">
      <g>
       <use xlink:href="#m79420abd6e" x="275.359872" y="188.638125" style="stroke: #000000; stroke-width: 0.8"/>
      </g>
     </g>
     <g id="text_23">
      <!-- 2025-12 -->
      <g transform="translate(244.116248 230.555389) rotate(-45) scale(0.1 -0.1)">
       <use xlink:href="#DejaVuSans-15"/>
       <use xlink:href="#DejaVuSans-13" transform="translate(63.625 0)"/>
       <use xlink:href="#DejaVuSans-15" transform="translate(127.25 0)"/>
       <use xlink:href="#DejaVuSans-18" transform="translate(190.875 0)"/>
       <use xlink:href="#DejaVuSans-10" transform="translate(254.5 0)"/>
       <use xlink:href="#DejaVuSans-14" transform="translate(290.578125 0)"/>
       <use xlink:href="#DejaVuSans-15" transform="translate(354.203125 0)"/>
      </g>
     </g>
    </g>
    <g id="xtick_19">
     <g id="line2d_45">
      <path d="M 318.012474 188.638125 
L 318.012474 156.718125 
" clip-path="url(#pbd58aefbce)" style="fill: none; stroke: #b0b0b0; stroke-opacity: 0.15; stroke-width: 0.8; stroke-linecap: square"/>
     </g>
     <g id="line2d_46">
      <g>
       <use xlink:href="#m79420abd6e" x="318.012474" y="188.638125" style="stroke: #000000; stroke-width: 0.8"/>
      </g>
     </g>
     <g id="text_24">
      <!-- 2026-01 -->
      <g transform="translate(286.768851 230.555389) rotate(-45) scale(0.1 -0.1)">
       <use xlink:href="#DejaVuSans-15"/>
       <use xlink:href="#DejaVuSans-13" transform="translate(63.625 0)"/>
       <use xlink:href="#DejaVuSans-15" transform="translate(127.25 0)"/>
       <use xlink:href="#DejaVuSans-19" transform="translate(190.875 0)"/>
       <use xlink:href="#DejaVuSans-10" transform="translate(254.5 0)"/>
       <use xlink:href="#DejaVuSans-13" transform="translate(290.578125 0)"/>
       <use xlink:href="#DejaVuSans-14" transform="translate(354.203125 0)"/>
      </g>
     </g>
    </g>
    <g id="xtick_20">
     <g id="line2d_47">
      <path d="M 360.665077 188.638125 
L 360.665077 156.718125 
" clip-path="url(#pbd58aefbce)" style="fill: none; stroke: #b0b0b0; stroke-opacity: 0.15; stroke-width: 0.8; stroke-linecap: square"/>
     </g>
     <g id="line2d_48">
      <g>
       <use xlink:href="#m79420abd6e" x="360.665077" y="188.638125" style="stroke: #000000; stroke-width: 0.8"/>
      </g>
     </g>
     <g id="text_25">
      <!-- 2026-02 -->
      <g transform="translate(329.421453 230.555389) rotate(-45) scale(0.1 -0.1)">
       <use xlink:href="#DejaVuSans-15"/>
       <use xlink:href="#DejaVuSans-13" transform="translate(63.625 0)"/>
       <use xlink:href="#DejaVuSans-15" transform="translate(127.25 0)"/>
       <use xlink:href="#DejaVuSans-19" transform="translate(190.875 0)"/>
       <use xlink:href="#DejaVuSans-10" transform="translate(254.5 0)"/>
       <use xlink:href="#DejaVuSans-13" transform="translate(290.578125 0)"/>
       <use xlink:href="#DejaVuSans-15" transform="translate(354.203125 0)"/>
      </g>
     </g>
    </g>
    <g id="xtick_21">
     <g id="line2d_49">
      <path d="M 399.190009 188.638125 
L 399.190009 156.718125 
" clip-path="url(#pbd58aefbce)" style="fill: none; stroke: #b0b0b0; stroke-opacity: 0.15; stroke-width: 0.8; stroke-linecap: square"/>
     </g>
     <g id="line2d_50">
      <g>
       <use xlink:href="#m79420abd6e" x="399.190009" y="188.638125" style="stroke: #000000; stroke-width: 0.8"/>
      </g>
     </g>
     <g id="text_26">
      <!-- 2026-03 -->
      <g transform="translate(367.946385 230.555389) rotate(-45) scale(0.1 -0.1)">
       <use xlink:href="#DejaVuSans-15"/>
       <use xlink:href="#DejaVuSans-13" transform="translate(63.625 0)"/>
       <use xlink:href="#DejaVuSans-15" transform="translate(127.25 0)"/>
       <use xlink:href="#DejaVuSans-19" transform="translate(190.875 0)"/>
       <use xlink:href="#DejaVuSans-10" transform="translate(254.5 0)"/>
       <use xlink:href="#DejaVuSans-13" transform="translate(290.578125 0)"/>
       <use xlink:href="#DejaVuSans-16" transform="translate(354.203125 0)"/>
      </g>
     </g>
    </g>
    <g id="xtick_22">
     <g id="line2d_51">
      <path d="M 441.842611 188.638125 
L 441.842611 156.718125 
" clip-path="url(#pbd58aefbce)" style="fill: none; stroke: #b0b0b0; stroke-opacity: 0.15; stroke-width: 0.8; stroke-linecap: square"/>
     </g>
     <g id="line2d_52">
      <g>
       <use xlink:href="#m79420abd6e" x="441.842611" y="188.638125" style="stroke: #000000; stroke-width: 0.8"/>
      </g>
     </g>
     <g id="text_27">
      <!-- 2026-04 -->
      <g transform="translate(410.598988 230.555389) rotate(-45) scale(0.1 -0.1)">
       <use xlink:href="#DejaVuSans-15"/>
       <use xlink:href="#DejaVuSans-13" transform="translate(63.625 0)"/>
       <use xlink:href="#DejaVuSans-15" transform="translate(127.25 0)"/>
       <use xlink:href="#DejaVuSans-19" transform="translate(190.875 0)"/>
       <use xlink:href="#DejaVuSans-10" transform="translate(254.5 0)"/>
       <use xlink:href="#DejaVuSans-13" transform="translate(290.578125 0)"/>
       <use xlink:href="#DejaVuSans-17" transform="translate(354.203125 0)"/>
      </g>
     </g>
    </g>
    <g id="xtick_23">
     <g id="line2d_53">
      <path d="M 483.119324 188.638125 
L 483.119324 156.718125 
" clip-path="url(#pbd58aefbce)" style="fill: none; stroke: #b0b0b0; stroke-opacity: 0.15; stroke-width: 0.8; stroke-linecap: square"/>
     </g>
     <g id="line2d_54">
      <g>
       <use xlink:href="#m79420abd6e" x="483.119324" y="188.638125" style="stroke: #000000; stroke-width: 0.8"/>
      </g>
     </g>
     <g id="text_28">
      <!-- 2026-05 -->
      <g transform="translate(451.8757 230.555389) rotate(-45) scale(0.1 -0.1)">
       <use xlink:href="#DejaVuSans-15"/>
       <use xlink:href="#DejaVuSans-13" transform="translate(63.625 0)"/>
       <use xlink:href="#DejaVuSans-15" transform="translate(127.25 0)"/>
       <use xlink:href="#DejaVuSans-19" transform="translate(190.875 0)"/>
       <use xlink:href="#DejaVuSans-10" transform="translate(254.5 0)"/>
       <use xlink:href="#DejaVuSans-13" transform="translate(290.578125 0)"/>
       <use xlink:href="#DejaVuSans-18" transform="translate(354.203125 0)"/>
      </g>
     </g>
    </g>
    <g id="xtick_24">
     <g id="line2d_55">
      <path d="M 525.771926 188.638125 
L 525.771926 156.718125 
" clip-path="url(#pbd58aefbce)" style="fill: none; stroke: #b0b0b0; stroke-opacity: 0.15; stroke-width: 0.8; stroke-linecap: square"/>
     </g>
     <g id="line2d_56">
      <g>
       <use xlink:href="#m79420abd6e" x="525.771926" y="188.638125" style="stroke: #000000; stroke-width: 0.8"/>
      </g>
     </g>
     <g id="text_29">
      <!-- 2026-06 -->
      <g transform="translate(494.528303 230.555389) rotate(-45) scale(0.1 -0.1)">
       <use xlink:href="#DejaVuSans-15"/>
       <use xlink:href="#DejaVuSans-13" transform="translate(63.625 0)"/>
       <use xlink:href="#DejaVuSans-15" transform="translate(127.25 0)"/>
       <use xlink:href="#DejaVuSans-19" transform="translate(190.875 0)"/>
       <use xlink:href="#DejaVuSans-10" transform="translate(254.5 0)"/>
       <use xlink:href="#DejaVuSans-13" transform="translate(290.578125 0)"/>
       <use xlink:href="#DejaVuSans-19" transform="translate(354.203125 0)"/>
      </g>
     </g>
    </g>
   </g>
   <g id="matplotlib.axis_4">
    <g id="ytick_4">
     <g id="line2d_57">
      <path d="M 52.465625 188.024279 
L 554.665625 188.024279 
" clip-path="url(#pbd58aefbce)" style="fill: none; stroke: #b0b0b0; stroke-opacity: 0.15; stroke-width: 0.8; stroke-linecap: square"/>
     </g>
     <g id="line2d_58">
      <g>
       <use xlink:href="#ma135e20396" x="52.465625" y="188.024279" style="stroke: #000000; stroke-width: 0.8"/>
      </g>
     </g>
     <g id="text_30">
      <!-- 1.35 -->
      <g transform="translate(23.2 191.823107) scale(0.1 -0.1)">
       <defs>
        <path id="DejaVuSans-11" d="M 684 794 
L 1344 794 
L 1344 0 
L 684 0 
L 684 794 
z
" transform="scale(0.015625)"/>
       </defs>
       <use xlink:href="#DejaVuSans-14"/>
       <use xlink:href="#DejaVuSans-11" transform="translate(63.625 0)"/>
       <use xlink:href="#DejaVuSans-16" transform="translate(95.40625 0)"/>
       <use xlink:href="#DejaVuSans-18" transform="translate(159.03125 0)"/>
      </g>
     </g>
    </g>
    <g id="ytick_5">
     <g id="line2d_59">
      <path d="M 52.465625 164.772531 
L 554.665625 164.772531 
" clip-path="url(#pbd58aefbce)" style="fill: none; stroke: #b0b0b0; stroke-opacity: 0.15; stroke-width: 0.8; stroke-linecap: square"/>
     </g>
     <g id="line2d_60">
      <g>
       <use xlink:href="#ma135e20396" x="52.465625" y="164.772531" style="stroke: #000000; stroke-width: 0.8"/>
      </g>
     </g>
     <g id="text_31">
      <!-- 1.40 -->
      <g transform="translate(23.2 168.571359) scale(0.1 -0.1)">
       <use xlink:href="#DejaVuSans-14"/>
       <use xlink:href="#DejaVuSans-11" transform="translate(63.625 0)"/>
       <use xlink:href="#DejaVuSans-17" transform="translate(95.40625 0)"/>
       <use xlink:href="#DejaVuSans-13" transform="translate(159.03125 0)"/>
      </g>
     </g>
    </g>
    <g id="text_32">
     <!-- USD/CAD -->
     <g transform="translate(16.317188 200.43375) rotate(-90) scale(0.12 -0.12)">
      <defs>
       <path id="DejaVuSans-27" d="M 1259 4147 
L 1259 519 
L 2022 519 
Q 2988 519 3436 956 
Q 3884 1394 3884 2338 
Q 3884 3275 3436 3711 
Q 2988 4147 2022 4147 
L 1259 4147 
z
M 628 4666 
L 1925 4666 
Q 3281 4666 3915 4102 
Q 4550 3538 4550 2338 
Q 4550 1131 3912 565 
Q 3275 0 1925 0 
L 628 0 
L 628 4666 
z
" transform="scale(0.015625)"/>
       <path id="DejaVuSans-12" d="M 1625 4666 
L 2156 4666 
L 531 -594 
L 0 -594 
L 1625 4666 
z
" transform="scale(0.015625)"/>
       <path id="DejaVuSans-24" d="M 2188 4044 
L 1331 1722 
L 3047 1722 
L 2188 4044 
z
M 1831 4666 
L 2547 4666 
L 4325 0 
L 3669 0 
L 3244 1197 
L 1141 1197 
L 716 0 
L 50 0 
L 1831 4666 
z
" transform="scale(0.015625)"/>
      </defs>
      <use xlink:href="#DejaVuSans-38"/>
      <use xlink:href="#DejaVuSans-36" transform="translate(73.1875 0)"/>
      <use xlink:href="#DejaVuSans-27" transform="translate(136.671875 0)"/>
      <use xlink:href="#DejaVuSans-12" transform="translate(213.671875 0)"/>
      <use xlink:href="#DejaVuSans-26" transform="translate(247.359375 0)"/>
      <use xlink:href="#DejaVuSans-24" transform="translate(317.1875 0)"/>
      <use xlink:href="#DejaVuSans-27" transform="translate(385.59375 0)"/>
     </g>
    </g>
   </g>
   <g id="line2d_61">
    <path d="M 53.841515 175.328824 
L 55.217406 178.212041 
L 56.593296 176.398405 
L 57.969187 182.025328 
L 59.345077 180.304698 
L 63.472748 182.443859 
L 64.848639 180.630223 
L 66.224529 182.443859 
L 67.60042 185.280573 
M 73.103981 181.327775 
L 74.479872 180.072181 
L 75.855762 179.002601 
L 77.231652 179.560642 
L 78.607543 179.746656 
L 82.735214 179.002601 
L 84.111104 178.119034 
L 85.486995 178.444559 
L 86.862885 176.444908 
L 88.238776 178.212041 
L 92.366447 179.235118 
L 93.742337 182.676377 
L 95.118228 182.955398 
L 96.494118 181.374279 
L 97.870009 178.072531 
L 101.99768 177.886517 
L 103.37357 175.14281 
L 104.749461 173.422181 
L 106.125351 171.980573 
L 107.501241 175.096307 
L 111.628913 175.235817 
L 113.004803 175.049803 
L 114.380693 176.909943 
L 115.756584 176.444908 
L 117.132474 176.305398 
L 121.260146 174.863789 
L 122.636036 175.840363 
L 124.011926 175.747356 
L 125.387817 173.794209 
L 130.891378 173.375677 
L 132.267269 171.329524 
L 133.643159 170.631971 
L 135.01905 169.42288 
L 136.39494 171.980573 
L 141.898502 173.003649 
L 143.274392 172.910642 
L 144.650283 176.398405 
L 146.026173 177.514489 
M 151.529735 174.817286 
L 152.905625 174.677775 
L 154.281515 172.771132 
L 155.657406 173.003649 
L 159.785077 173.14316 
L 161.160967 172.492111 
L 162.536858 172.07358 
L 163.912748 172.678125 
L 165.288639 171.376027 
L 169.41631 174.21274 
L 170.7922 176.630922 
L 172.168091 175.886866 
L 173.543981 174.259244 
L 174.919872 175.375328 
L 179.047543 173.422181 
L 180.423433 172.492111 
L 181.799324 169.701901 
L 183.175214 168.3533 
L 184.551104 167.283719 
L 188.678776 169.236866 
L 192.806447 165.981622 
L 194.182337 167.283719 
L 198.310009 167.330223 
L 201.061789 166.958195 
L 202.43768 164.353999 
L 203.81357 164.912041 
M 209.317132 162.865887 
L 210.693022 163.237915 
L 212.068913 162.679873 
L 213.444803 162.63337 
L 217.572474 163.423929 
L 218.948365 164.307496 
L 220.324255 165.795608 
L 221.700146 165.191062 
L 223.076036 164.167985 
L 227.203707 165.005048 
L 228.579598 167.702251 
L 229.955488 169.748405 
L 231.331378 165.609594 
L 232.707269 164.307496 
L 236.83494 162.493859 
L 238.21083 161.005747 
L 239.586721 159.750153 
L 240.962611 158.866587 
L 242.338502 161.284768 
L 246.466173 163.423929 
M 249.217954 164.772531 
L 250.593844 164.307496 
L 251.969735 163.70295 
L 256.097406 163.470433 
L 257.473296 164.958545 
L 258.849187 162.493859 
L 260.225077 160.494209 
L 261.600967 160.401202 
L 267.104529 159.424628 
L 268.48042 162.400852 
M 271.2322 165.981622 
L 275.359872 165.609594 
L 276.735762 165.330573 
L 278.111652 167.097705 
L 279.487543 167.609244 
L 280.863433 171.376027 
L 284.991104 171.934069 
L 286.366995 172.585118 
L 287.742885 172.492111 
L 289.118776 175.514838 
L 290.494666 174.863789 
L 294.622337 175.700852 
L 295.998228 176.444908 
L 297.374118 174.491761 
L 298.750009 175.840363 
L 300.125899 175.0033 
L 304.25357 176.677426 
L 305.629461 178.119034 
L 307.005351 180.072181 
M 309.757132 180.490712 
L 313.884803 179.653649 
L 315.260693 179.746656 
L 316.636584 178.165538 
M 319.388365 176.956447 
L 323.516036 176.07288 
L 324.891926 174.584768 
L 327.643707 171.097006 
L 329.019598 169.748405 
L 333.147269 170.538964 
L 334.523159 170.120433 
L 335.89905 170.771482 
L 338.65083 168.49281 
M 344.154392 173.096656 
L 345.530283 173.468684 
L 346.906173 174.119733 
L 348.282063 177.514489 
L 352.409735 179.095608 
L 353.785625 183.466936 
L 355.161515 184.536517 
L 356.537406 187.187216 
L 362.040967 179.79316 
L 363.416858 181.327775 
L 364.792748 180.258195 
L 366.168639 180.118684 
L 367.544529 181.327775 
L 371.6722 184.769034 
L 373.048091 186.489663 
L 374.423981 184.815538 
L 375.799872 182.304349 
L 377.175762 182.536866 
M 382.679324 180.955747 
L 385.431104 178.677076 
L 386.806995 179.281622 
L 390.934666 179.421132 
L 392.310557 178.630573 
L 393.686447 179.421132 
L 395.062337 179.514139 
L 396.438228 181.885817 
L 400.565899 178.491062 
L 401.941789 180.490712 
L 403.31768 180.537216 
L 404.69357 179.049104 
L 406.069461 183.420433 
L 411.573022 185.141062 
L 412.948913 183.234419 
L 414.324803 182.536866 
L 415.700693 177.049454 
L 419.828365 179.514139 
L 421.204255 178.444559 
L 422.580146 178.86309 
L 423.956036 177.747006 
L 425.331926 177.281971 
L 429.459598 177.886517 
L 430.835488 175.747356 
L 432.211378 174.119733 
L 433.587269 171.794559 
L 434.963159 170.35295 
L 439.09083 168.446307 
L 440.466721 166.958195 
L 441.842611 170.585468 
L 443.218502 168.632321 
L 444.594392 167.469733 
L 450.097954 169.190363 
L 451.473844 171.701552 
L 452.849735 173.747705 
L 454.225625 172.771132 
L 458.353296 173.561691 
L 459.729187 176.07288 
L 461.105077 176.86344 
L 462.480967 178.444559 
L 463.856858 180.258195 
L 469.36042 181.420782 
L 470.73631 180.630223 
L 472.1122 179.560642 
L 473.488091 179.886167 
L 477.615762 182.629873 
L 478.991652 180.072181 
L 480.367543 180.072181 
L 481.743433 182.862391 
L 483.119324 184.536517 
L 487.246995 183.001901 
L 488.622885 182.955398 
L 489.998776 182.397356 
L 491.374666 181.699803 
L 492.750557 179.700153 
L 496.878228 180.397705 
L 498.254118 178.165538 
L 499.630009 178.677076 
L 502.381789 176.398405 
L 506.509461 176.770433 
L 507.885351 176.212391 
L 509.261241 176.537915 
L 510.637132 174.631272 
L 512.013022 173.28267 
M 517.516584 173.933719 
L 518.892474 172.724628 
L 520.268365 174.166237 
L 521.644255 174.817286 
L 525.771926 172.352601 
L 527.147817 173.050153 
L 528.523707 169.841412 
L 529.899598 169.934419 
L 531.275488 167.981272 
L 536.77905 166.772181 
L 538.15494 168.167286 
L 539.53083 164.586517 
L 540.906721 166.121132 
L 545.034392 165.516587 
L 546.410283 165.609594 
L 547.786173 163.377426 
L 549.162063 158.169034 
L 549.162063 158.169034 
" clip-path="url(#pbd58aefbce)" style="fill: none; stroke: #2ca02c; stroke-width: 1.2; stroke-linecap: square"/>
   </g>
   <g id="patch_8">
    <path d="M 52.465625 188.638125 
L 52.465625 156.718125 
" style="fill: none; stroke: #000000; stroke-width: 0.8; stroke-linejoin: miter; stroke-linecap: square"/>
   </g>
   <g id="patch_9">
    <path d="M 554.665625 188.638125 
L 554.665625 156.718125 
" style="fill: none; stroke: #000000; stroke-width: 0.8; stroke-linejoin: miter; stroke-linecap: square"/>
   </g>
   <g id="patch_10">
    <path d="M 52.465625 188.638125 
L 554.665625 188.638125 
" style="fill: none; stroke: #000000; stroke-width: 0.8; stroke-linejoin: miter; stroke-linecap: square"/>
   </g>
   <g id="patch_11">
    <path d="M 52.465625 156.718125 
L 554.665625 156.718125 
" style="fill: none; stroke: #000000; stroke-width: 0.8; stroke-linejoin: miter; stroke-linecap: square"/>
   </g>
  </g>
 </g>
 <defs>
  <clipPath id="p857ad87873">
   <rect x="52.465625" y="22.318125" width="502.2" height="91.2"/>
  </clipPath>
  <clipPath id="pbd58aefbce">
   <rect x="52.465625" y="156.718125" width="502.2" height="31.92"/>
  </clipPath>
 </defs>
</svg>
