<?xml version="1.0" encoding="utf-8" standalone="no"?>
<!DOCTYPE svg PUBLIC "-//W3C//DTD SVG 1.1//EN"
  "http://www.w3.org/Graphics/SVG/1.1/DTD/svg11.dtd">
<svg xmlns:xlink="http://www.w3.org/1999/xlink" width="561.479375pt" height="239.226503pt" viewBox="0 0 561.479375 239.226503" xmlns="http://www.w3.org/2000/svg" version="1.1">
 <metadata>
  <rdf:RDF xmlns:dc="http://purl.org/dc/elements/1.1/" xmlns:cc="http://creativecommons.org/ns#" xmlns:rdf="http://www.w3.org/1999/02/22-rdf-syntax-ns#">
   <cc:Work>
    <dc:type rdf:resource="http://purl.org/dc/dcmitype/StillImage"/>
    <dc:date>2026-04-20T14:58:53.173596</dc:date>
    <dc:format>image/svg+xml</dc:format>
    <dc:creator>
     <cc:Agent>
      <dc:title>Matplotlib v3.10.8, https://matplotlib.org/</dc:title>
     </cc:Agent>
    </dc:creator>
   </cc:Work>
  </rdf:RDF>
 </metadata>
 <defs>
  <style type="text/css">*{stroke-linejoin: round; stroke-linecap: butt}</style>
 </defs>
 <g id="figure_1">
  <g id="patch_1">
   <path d="M -0 239.226503 
L 561.479375 239.226503 
L 561.479375 -0 
L -0 -0 
z
" style="fill: #ffffff"/>
  </g>
  <g id="axes_1">
   <g id="patch_2">
    <path d="M 52.079375 113.518125 
L 554.279375 113.518125 
L 554.279375 22.318125 
L 52.079375 22.318125 
z
" style="fill: #ffffff"/>
   </g>
   <g id="matplotlib.axis_1">
    <g id="xtick_1">
     <g id="line2d_1">
      <path d="M 71.341841 113.518125 
L 71.341841 22.318125 
" clip-path="url(#p45dcd05733)" style="fill: none; stroke: #b0b0b0; stroke-opacity: 0.2; stroke-width: 0.8; stroke-linecap: square"/>
     </g>
     <g id="line2d_2">
      <defs>
       <path id="me79e24fce3" d="M 0 0 
L 0 3.5 
" style="stroke: #000000; stroke-width: 0.8"/>
      </defs>
      <g>
       <use xlink:href="#me79e24fce3" x="71.341841" y="113.518125" style="stroke: #000000; stroke-width: 0.8"/>
      </g>
     </g>
     <g id="text_1">
      <!-- 2025-05 -->
      <g transform="translate(40.32637 155.435942) rotate(-45) scale(0.1 -0.1)">
       <defs>
        <path id="DejaVuSans-32" d="M 1228 531 
L 3431 531 
L 3431 0 
L 469 0 
L 469 531 
Q 828 903 1448 1529 
Q 2069 2156 2228 2338 
Q 2531 2678 2651 2914 
Q 2772 3150 2772 3378 
Q 2772 3750 2511 3984 
Q 2250 4219 1831 4219 
Q 1534 4219 1204 4116 
Q 875 4013 500 3803 
L 500 4441 
Q 881 4594 1212 4672 
Q 1544 4750 1819 4750 
Q 2544 4750 2975 4387 
Q 3406 4025 3406 3419 
Q 3406 3131 3298 2873 
Q 3191 2616 2906 2266 
Q 2828 2175 2409 1742 
Q 1991 1309 1228 531 
z
" transform="scale(0.015625)"/>
        <path id="DejaVuSans-30" d="M 2034 4250 
Q 1547 4250 1301 3770 
Q 1056 3291 1056 2328 
Q 1056 1369 1301 889 
Q 1547 409 2034 409 
Q 2525 409 2770 889 
Q 3016 1369 3016 2328 
Q 3016 3291 2770 3770 
Q 2525 4250 2034 4250 
z
M 2034 4750 
Q 2819 4750 3233 4129 
Q 3647 3509 3647 2328 
Q 3647 1150 3233 529 
Q 2819 -91 2034 -91 
Q 1250 -91 836 529 
Q 422 1150 422 2328 
Q 422 3509 836 4129 
Q 1250 4750 2034 4750 
z
" transform="scale(0.015625)"/>
        <path id="DejaVuSans-35" d="M 691 4666 
L 3169 4666 
L 3169 4134 
L 1269 4134 
L 1269 2991 
Q 1406 3038 1543 3061 
Q 1681 3084 1819 3084 
Q 2600 3084 3056 2656 
Q 3513 2228 3513 1497 
Q 3513 744 3044 326 
Q 2575 -91 1722 -91 
Q 1428 -91 1123 -41 
Q 819 9 494 109 
L 494 744 
Q 775 591 1075 516 
Q 1375 441 1709 441 
Q 2250 441 2565 725 
Q 2881 1009 2881 1497 
Q 2881 1984 2565 2268 
Q 2250 2553 1709 2553 
Q 1456 2553 1204 2497 
Q 953 2441 691 2322 
L 691 4666 
z
" transform="scale(0.015625)"/>
        <path id="DejaVuSans-2d" d="M 313 2009 
L 1997 2009 
L 1997 1497 
L 313 1497 
L 313 2009 
z
" transform="scale(0.015625)"/>
       </defs>
       <use xlink:href="#DejaVuSans-32"/>
       <use xlink:href="#DejaVuSans-30" transform="translate(63.623047 0)"/>
       <use xlink:href="#DejaVuSans-32" transform="translate(127.246094 0)"/>
       <use xlink:href="#DejaVuSans-35" transform="translate(190.869141 0)"/>
       <use xlink:href="#DejaVuSans-2d" transform="translate(254.492188 0)"/>
       <use xlink:href="#DejaVuSans-30" transform="translate(290.576172 0)"/>
       <use xlink:href="#DejaVuSans-35" transform="translate(354.199219 0)"/>
      </g>
     </g>
    </g>
    <g id="xtick_2">
     <g id="line2d_3">
      <path d="M 113.994443 113.518125 
L 113.994443 22.318125 
" clip-path="url(#p45dcd05733)" style="fill: none; stroke: #b0b0b0; stroke-opacity: 0.2; stroke-width: 0.8; stroke-linecap: square"/>
     </g>
     <g id="line2d_4">
      <g>
       <use xlink:href="#me79e24fce3" x="113.994443" y="113.518125" style="stroke: #000000; stroke-width: 0.8"/>
      </g>
     </g>
     <g id="text_2">
      <!-- 2025-06 -->
      <g transform="translate(82.978972 155.435942) rotate(-45) scale(0.1 -0.1)">
       <defs>
        <path id="DejaVuSans-36" d="M 2113 2584 
Q 1688 2584 1439 2293 
Q 1191 2003 1191 1497 
Q 1191 994 1439 701 
Q 1688 409 2113 409 
Q 2538 409 2786 701 
Q 3034 994 3034 1497 
Q 3034 2003 2786 2293 
Q 2538 2584 2113 2584 
z
M 3366 4563 
L 3366 3988 
Q 3128 4100 2886 4159 
Q 2644 4219 2406 4219 
Q 1781 4219 1451 3797 
Q 1122 3375 1075 2522 
Q 1259 2794 1537 2939 
Q 1816 3084 2150 3084 
Q 2853 3084 3261 2657 
Q 3669 2231 3669 1497 
Q 3669 778 3244 343 
Q 2819 -91 2113 -91 
Q 1303 -91 875 529 
Q 447 1150 447 2328 
Q 447 3434 972 4092 
Q 1497 4750 2381 4750 
Q 2619 4750 2861 4703 
Q 3103 4656 3366 4563 
z
" transform="scale(0.015625)"/>
       </defs>
       <use xlink:href="#DejaVuSans-32"/>
       <use xlink:href="#DejaVuSans-30" transform="translate(63.623047 0)"/>
       <use xlink:href="#DejaVuSans-32" transform="translate(127.246094 0)"/>
       <use xlink:href="#DejaVuSans-35" transform="translate(190.869141 0)"/>
       <use xlink:href="#DejaVuSans-2d" transform="translate(254.492188 0)"/>
       <use xlink:href="#DejaVuSans-30" transform="translate(290.576172 0)"/>
       <use xlink:href="#DejaVuSans-36" transform="translate(354.199219 0)"/>
      </g>
     </g>
    </g>
    <g id="xtick_3">
     <g id="line2d_5">
      <path d="M 155.271156 113.518125 
L 155.271156 22.318125 
" clip-path="url(#p45dcd05733)" style="fill: none; stroke: #b0b0b0; stroke-opacity: 0.2; stroke-width: 0.8; stroke-linecap: square"/>
     </g>
     <g id="line2d_6">
      <g>
       <use xlink:href="#me79e24fce3" x="155.271156" y="113.518125" style="stroke: #000000; stroke-width: 0.8"/>
      </g>
     </g>
     <g id="text_3">
      <!-- 2025-07 -->
      <g transform="translate(124.255685 155.435942) rotate(-45) scale(0.1 -0.1)">
       <defs>
        <path id="DejaVuSans-37" d="M 525 4666 
L 3525 4666 
L 3525 4397 
L 1831 0 
L 1172 0 
L 2766 4134 
L 525 4134 
L 525 4666 
z
" transform="scale(0.015625)"/>
       </defs>
       <use xlink:href="#DejaVuSans-32"/>
       <use xlink:href="#DejaVuSans-30" transform="translate(63.623047 0)"/>
       <use xlink:href="#DejaVuSans-32" transform="translate(127.246094 0)"/>
       <use xlink:href="#DejaVuSans-35" transform="translate(190.869141 0)"/>
       <use xlink:href="#DejaVuSans-2d" transform="translate(254.492188 0)"/>
       <use xlink:href="#DejaVuSans-30" transform="translate(290.576172 0)"/>
       <use xlink:href="#DejaVuSans-37" transform="translate(354.199219 0)"/>
      </g>
     </g>
    </g>
    <g id="xtick_4">
     <g id="line2d_7">
      <path d="M 197.923759 113.518125 
L 197.923759 22.318125 
" clip-path="url(#p45dcd05733)" style="fill: none; stroke: #b0b0b0; stroke-opacity: 0.2; stroke-width: 0.8; stroke-linecap: square"/>
     </g>
     <g id="line2d_8">
      <g>
       <use xlink:href="#me79e24fce3" x="197.923759" y="113.518125" style="stroke: #000000; stroke-width: 0.8"/>
      </g>
     </g>
     <g id="text_4">
      <!-- 2025-08 -->
      <g transform="translate(166.908287 155.435942) rotate(-45) scale(0.1 -0.1)">
       <defs>
        <path id="DejaVuSans-38" d="M 2034 2216 
Q 1584 2216 1326 1975 
Q 1069 1734 1069 1313 
Q 1069 891 1326 650 
Q 1584 409 2034 409 
Q 2484 409 2743 651 
Q 3003 894 3003 1313 
Q 3003 1734 2745 1975 
Q 2488 2216 2034 2216 
z
M 1403 2484 
Q 997 2584 770 2862 
Q 544 3141 544 3541 
Q 544 4100 942 4425 
Q 1341 4750 2034 4750 
Q 2731 4750 3128 4425 
Q 3525 4100 3525 3541 
Q 3525 3141 3298 2862 
Q 3072 2584 2669 2484 
Q 3125 2378 3379 2068 
Q 3634 1759 3634 1313 
Q 3634 634 3220 271 
Q 2806 -91 2034 -91 
Q 1263 -91 848 271 
Q 434 634 434 1313 
Q 434 1759 690 2068 
Q 947 2378 1403 2484 
z
M 1172 3481 
Q 1172 3119 1398 2916 
Q 1625 2713 2034 2713 
Q 2441 2713 2670 2916 
Q 2900 3119 2900 3481 
Q 2900 3844 2670 4047 
Q 2441 4250 2034 4250 
Q 1625 4250 1398 4047 
Q 1172 3844 1172 3481 
z
" transform="scale(0.015625)"/>
       </defs>
       <use xlink:href="#DejaVuSans-32"/>
       <use xlink:href="#DejaVuSans-30" transform="translate(63.623047 0)"/>
       <use xlink:href="#DejaVuSans-32" transform="translate(127.246094 0)"/>
       <use xlink:href="#DejaVuSans-35" transform="translate(190.869141 0)"/>
       <use xlink:href="#DejaVuSans-2d" transform="translate(254.492188 0)"/>
       <use xlink:href="#DejaVuSans-30" transform="translate(290.576172 0)"/>
       <use xlink:href="#DejaVuSans-38" transform="translate(354.199219 0)"/>
      </g>
     </g>
    </g>
    <g id="xtick_5">
     <g id="line2d_9">
      <path d="M 240.576361 113.518125 
L 240.576361 22.318125 
" clip-path="url(#p45dcd05733)" style="fill: none; stroke: #b0b0b0; stroke-opacity: 0.2; stroke-width: 0.8; stroke-linecap: square"/>
     </g>
     <g id="line2d_10">
      <g>
       <use xlink:href="#me79e24fce3" x="240.576361" y="113.518125" style="stroke: #000000; stroke-width: 0.8"/>
      </g>
     </g>
     <g id="text_5">
      <!-- 2025-09 -->
      <g transform="translate(209.56089 155.435942) rotate(-45) scale(0.1 -0.1)">
       <defs>
        <path id="DejaVuSans-39" d="M 703 97 
L 703 672 
Q 941 559 1184 500 
Q 1428 441 1663 441 
Q 2288 441 2617 861 
Q 2947 1281 2994 2138 
Q 2813 1869 2534 1725 
Q 2256 1581 1919 1581 
Q 1219 1581 811 2004 
Q 403 2428 403 3163 
Q 403 3881 828 4315 
Q 1253 4750 1959 4750 
Q 2769 4750 3195 4129 
Q 3622 3509 3622 2328 
Q 3622 1225 3098 567 
Q 2575 -91 1691 -91 
Q 1453 -91 1209 -44 
Q 966 3 703 97 
z
M 1959 2075 
Q 2384 2075 2632 2365 
Q 2881 2656 2881 3163 
Q 2881 3666 2632 3958 
Q 2384 4250 1959 4250 
Q 1534 4250 1286 3958 
Q 1038 3666 1038 3163 
Q 1038 2656 1286 2365 
Q 1534 2075 1959 2075 
z
" transform="scale(0.015625)"/>
       </defs>
       <use xlink:href="#DejaVuSans-32"/>
       <use xlink:href="#DejaVuSans-30" transform="translate(63.623047 0)"/>
       <use xlink:href="#DejaVuSans-32" transform="translate(127.246094 0)"/>
       <use xlink:href="#DejaVuSans-35" transform="translate(190.869141 0)"/>
       <use xlink:href="#DejaVuSans-2d" transform="translate(254.492188 0)"/>
       <use xlink:href="#DejaVuSans-30" transform="translate(290.576172 0)"/>
       <use xlink:href="#DejaVuSans-39" transform="translate(354.199219 0)"/>
      </g>
     </g>
    </g>
    <g id="xtick_6">
     <g id="line2d_11">
      <path d="M 281.853074 113.518125 
L 281.853074 22.318125 
" clip-path="url(#p45dcd05733)" style="fill: none; stroke: #b0b0b0; stroke-opacity: 0.2; stroke-width: 0.8; stroke-linecap: square"/>
     </g>
     <g id="line2d_12">
      <g>
       <use xlink:href="#me79e24fce3" x="281.853074" y="113.518125" style="stroke: #000000; stroke-width: 0.8"/>
      </g>
     </g>
     <g id="text_6">
      <!-- 2025-10 -->
      <g transform="translate(250.837602 155.435942) rotate(-45) scale(0.1 -0.1)">
       <defs>
        <path id="DejaVuSans-31" d="M 794 531 
L 1825 531 
L 1825 4091 
L 703 3866 
L 703 4441 
L 1819 4666 
L 2450 4666 
L 2450 531 
L 3481 531 
L 3481 0 
L 794 0 
L 794 531 
z
" transform="scale(0.015625)"/>
       </defs>
       <use xlink:href="#DejaVuSans-32"/>
       <use xlink:href="#DejaVuSans-30" transform="translate(63.623047 0)"/>
       <use xlink:href="#DejaVuSans-32" transform="translate(127.246094 0)"/>
       <use xlink:href="#DejaVuSans-35" transform="translate(190.869141 0)"/>
       <use xlink:href="#DejaVuSans-2d" transform="translate(254.492188 0)"/>
       <use xlink:href="#DejaVuSans-31" transform="translate(290.576172 0)"/>
       <use xlink:href="#DejaVuSans-30" transform="translate(354.199219 0)"/>
      </g>
     </g>
    </g>
    <g id="xtick_7">
     <g id="line2d_13">
      <path d="M 324.505676 113.518125 
L 324.505676 22.318125 
" clip-path="url(#p45dcd05733)" style="fill: none; stroke: #b0b0b0; stroke-opacity: 0.2; stroke-width: 0.8; stroke-linecap: square"/>
     </g>
     <g id="line2d_14">
      <g>
       <use xlink:href="#me79e24fce3" x="324.505676" y="113.518125" style="stroke: #000000; stroke-width: 0.8"/>
      </g>
     </g>
     <g id="text_7">
      <!-- 2025-11 -->
      <g transform="translate(293.490205 155.435942) rotate(-45) scale(0.1 -0.1)">
       <use xlink:href="#DejaVuSans-32"/>
       <use xlink:href="#DejaVuSans-30" transform="translate(63.623047 0)"/>
       <use xlink:href="#DejaVuSans-32" transform="translate(127.246094 0)"/>
       <use xlink:href="#DejaVuSans-35" transform="translate(190.869141 0)"/>
       <use xlink:href="#DejaVuSans-2d" transform="translate(254.492188 0)"/>
       <use xlink:href="#DejaVuSans-31" transform="translate(290.576172 0)"/>
       <use xlink:href="#DejaVuSans-31" transform="translate(354.199219 0)"/>
      </g>
     </g>
    </g>
    <g id="xtick_8">
     <g id="line2d_15">
      <path d="M 365.782389 113.518125 
L 365.782389 22.318125 
" clip-path="url(#p45dcd05733)" style="fill: none; stroke: #b0b0b0; stroke-opacity: 0.2; stroke-width: 0.8; stroke-linecap: square"/>
     </g>
     <g id="line2d_16">
      <g>
       <use xlink:href="#me79e24fce3" x="365.782389" y="113.518125" style="stroke: #000000; stroke-width: 0.8"/>
      </g>
     </g>
     <g id="text_8">
      <!-- 2025-12 -->
      <g transform="translate(334.766918 155.435942) rotate(-45) scale(0.1 -0.1)">
       <use xlink:href="#DejaVuSans-32"/>
       <use xlink:href="#DejaVuSans-30" transform="translate(63.623047 0)"/>
       <use xlink:href="#DejaVuSans-32" transform="translate(127.246094 0)"/>
       <use xlink:href="#DejaVuSans-35" transform="translate(190.869141 0)"/>
       <use xlink:href="#DejaVuSans-2d" transform="translate(254.492188 0)"/>
       <use xlink:href="#DejaVuSans-31" transform="translate(290.576172 0)"/>
       <use xlink:href="#DejaVuSans-32" transform="translate(354.199219 0)"/>
      </g>
     </g>
    </g>
    <g id="xtick_9">
     <g id="line2d_17">
      <path d="M 408.434991 113.518125 
L 408.434991 22.318125 
" clip-path="url(#p45dcd05733)" style="fill: none; stroke: #b0b0b0; stroke-opacity: 0.2; stroke-width: 0.8; stroke-linecap: square"/>
     </g>
     <g id="line2d_18">
      <g>
       <use xlink:href="#me79e24fce3" x="408.434991" y="113.518125" style="stroke: #000000; stroke-width: 0.8"/>
      </g>
     </g>
     <g id="text_9">
      <!-- 2026-01 -->
      <g transform="translate(377.41952 155.435942) rotate(-45) scale(0.1 -0.1)">
       <use xlink:href="#DejaVuSans-32"/>
       <use xlink:href="#DejaVuSans-30" transform="translate(63.623047 0)"/>
       <use xlink:href="#DejaVuSans-32" transform="translate(127.246094 0)"/>
       <use xlink:href="#DejaVuSans-36" transform="translate(190.869141 0)"/>
       <use xlink:href="#DejaVuSans-2d" transform="translate(254.492188 0)"/>
       <use xlink:href="#DejaVuSans-30" transform="translate(290.576172 0)"/>
       <use xlink:href="#DejaVuSans-31" transform="translate(354.199219 0)"/>
      </g>
     </g>
    </g>
    <g id="xtick_10">
     <g id="line2d_19">
      <path d="M 451.087594 113.518125 
L 451.087594 22.318125 
" clip-path="url(#p45dcd05733)" style="fill: none; stroke: #b0b0b0; stroke-opacity: 0.2; stroke-width: 0.8; stroke-linecap: square"/>
     </g>
     <g id="line2d_20">
      <g>
       <use xlink:href="#me79e24fce3" x="451.087594" y="113.518125" style="stroke: #000000; stroke-width: 0.8"/>
      </g>
     </g>
     <g id="text_10">
      <!-- 2026-02 -->
      <g transform="translate(420.072123 155.435942) rotate(-45) scale(0.1 -0.1)">
       <use xlink:href="#DejaVuSans-32"/>
       <use xlink:href="#DejaVuSans-30" transform="translate(63.623047 0)"/>
       <use xlink:href="#DejaVuSans-32" transform="translate(127.246094 0)"/>
       <use xlink:href="#DejaVuSans-36" transform="translate(190.869141 0)"/>
       <use xlink:href="#DejaVuSans-2d" transform="translate(254.492188 0)"/>
       <use xlink:href="#DejaVuSans-30" transform="translate(290.576172 0)"/>
       <use xlink:href="#DejaVuSans-32" transform="translate(354.199219 0)"/>
      </g>
     </g>
    </g>
    <g id="xtick_11">
     <g id="line2d_21">
      <path d="M 489.612526 113.518125 
L 489.612526 22.318125 
" clip-path="url(#p45dcd05733)" style="fill: none; stroke: #b0b0b0; stroke-opacity: 0.2; stroke-width: 0.8; stroke-linecap: square"/>
     </g>
     <g id="line2d_22">
      <g>
       <use xlink:href="#me79e24fce3" x="489.612526" y="113.518125" style="stroke: #000000; stroke-width: 0.8"/>
      </g>
     </g>
     <g id="text_11">
      <!-- 2026-03 -->
      <g transform="translate(458.597054 155.435942) rotate(-45) scale(0.1 -0.1)">
       <defs>
        <path id="DejaVuSans-33" d="M 2597 2516 
Q 3050 2419 3304 2112 
Q 3559 1806 3559 1356 
Q 3559 666 3084 287 
Q 2609 -91 1734 -91 
Q 1441 -91 1130 -33 
Q 819 25 488 141 
L 488 750 
Q 750 597 1062 519 
Q 1375 441 1716 441 
Q 2309 441 2620 675 
Q 2931 909 2931 1356 
Q 2931 1769 2642 2001 
Q 2353 2234 1838 2234 
L 1294 2234 
L 1294 2753 
L 1863 2753 
Q 2328 2753 2575 2939 
Q 2822 3125 2822 3475 
Q 2822 3834 2567 4026 
Q 2313 4219 1838 4219 
Q 1578 4219 1281 4162 
Q 984 4106 628 3988 
L 628 4550 
Q 988 4650 1302 4700 
Q 1616 4750 1894 4750 
Q 2613 4750 3031 4423 
Q 3450 4097 3450 3541 
Q 3450 3153 3228 2886 
Q 3006 2619 2597 2516 
z
" transform="scale(0.015625)"/>
       </defs>
       <use xlink:href="#DejaVuSans-32"/>
       <use xlink:href="#DejaVuSans-30" transform="translate(63.623047 0)"/>
       <use xlink:href="#DejaVuSans-32" transform="translate(127.246094 0)"/>
       <use xlink:href="#DejaVuSans-36" transform="translate(190.869141 0)"/>
       <use xlink:href="#DejaVuSans-2d" transform="translate(254.492188 0)"/>
       <use xlink:href="#DejaVuSans-30" transform="translate(290.576172 0)"/>
       <use xlink:href="#DejaVuSans-33" transform="translate(354.199219 0)"/>
      </g>
     </g>
    </g>
    <g id="xtick_12">
     <g id="line2d_23">
      <path d="M 532.265128 113.518125 
L 532.265128 22.318125 
" clip-path="url(#p45dcd05733)" style="fill: none; stroke: #b0b0b0; stroke-opacity: 0.2; stroke-width: 0.8; stroke-linecap: square"/>
     </g>
     <g id="line2d_24">
      <g>
       <use xlink:href="#me79e24fce3" x="532.265128" y="113.518125" style="stroke: #000000; stroke-width: 0.8"/>
      </g>
     </g>
     <g id="text_12">
      <!-- 2026-04 -->
      <g transform="translate(501.249657 155.435942) rotate(-45) scale(0.1 -0.1)">
       <defs>
        <path id="DejaVuSans-34" d="M 2419 4116 
L 825 1625 
L 2419 1625 
L 2419 4116 
z
M 2253 4666 
L 3047 4666 
L 3047 1625 
L 3713 1625 
L 3713 1100 
L 3047 1100 
L 3047 0 
L 2419 0 
L 2419 1100 
L 313 1100 
L 313 1709 
L 2253 4666 
z
" transform="scale(0.015625)"/>
       </defs>
       <use xlink:href="#DejaVuSans-32"/>
       <use xlink:href="#DejaVuSans-30" transform="translate(63.623047 0)"/>
       <use xlink:href="#DejaVuSans-32" transform="translate(127.246094 0)"/>
       <use xlink:href="#DejaVuSans-36" transform="translate(190.869141 0)"/>
       <use xlink:href="#DejaVuSans-2d" transform="translate(254.492188 0)"/>
       <use xlink:href="#DejaVuSans-30" transform="translate(290.576172 0)"/>
       <use xlink:href="#DejaVuSans-34" transform="translate(354.199219 0)"/>
      </g>
     </g>
    </g>
   </g>
   <g id="matplotlib.axis_2">
    <g id="ytick_1">
     <g id="line2d_25">
      <path d="M 52.079375 109.37267 
L 554.279375 109.37267 
" clip-path="url(#p45dcd05733)" style="fill: none; stroke: #b0b0b0; stroke-opacity: 0.2; stroke-width: 0.8; stroke-linecap: square"/>
     </g>
     <g id="line2d_26">
      <defs>
       <path id="mf2bdd51ea3" d="M 0 0 
L -3.5 0 
" style="stroke: #000000; stroke-width: 0.8"/>
      </defs>
      <g>
       <use xlink:href="#mf2bdd51ea3" x="52.079375" y="109.37267" style="stroke: #000000; stroke-width: 0.8"/>
      </g>
     </g>
     <g id="text_13">
      <!-- 0 -->
      <g transform="translate(38.716875 113.171889) scale(0.1 -0.1)">
       <use xlink:href="#DejaVuSans-30"/>
      </g>
     </g>
    </g>
    <g id="ytick_2">
     <g id="line2d_27">
      <path d="M 52.079375 77.237364 
L 554.279375 77.237364 
" clip-path="url(#p45dcd05733)" style="fill: none; stroke: #b0b0b0; stroke-opacity: 0.2; stroke-width: 0.8; stroke-linecap: square"/>
     </g>
     <g id="line2d_28">
      <g>
       <use xlink:href="#mf2bdd51ea3" x="52.079375" y="77.237364" style="stroke: #000000; stroke-width: 0.8"/>
      </g>
     </g>
     <g id="text_14">
      <!-- 50 -->
      <g transform="translate(32.354375 81.036583) scale(0.1 -0.1)">
       <use xlink:href="#DejaVuSans-35"/>
       <use xlink:href="#DejaVuSans-30" transform="translate(63.623047 0)"/>
      </g>
     </g>
    </g>
    <g id="ytick_3">
     <g id="line2d_29">
      <path d="M 52.079375 45.102057 
L 554.279375 45.102057 
" clip-path="url(#p45dcd05733)" style="fill: none; stroke: #b0b0b0; stroke-opacity: 0.2; stroke-width: 0.8; stroke-linecap: square"/>
     </g>
     <g id="line2d_30">
      <g>
       <use xlink:href="#mf2bdd51ea3" x="52.079375" y="45.102057" style="stroke: #000000; stroke-width: 0.8"/>
      </g>
     </g>
     <g id="text_15">
      <!-- 100 -->
      <g transform="translate(25.991875 48.901276) scale(0.1 -0.1)">
       <use xlink:href="#DejaVuSans-31"/>
       <use xlink:href="#DejaVuSans-30" transform="translate(63.623047 0)"/>
       <use xlink:href="#DejaVuSans-30" transform="translate(127.246094 0)"/>
      </g>
     </g>
    </g>
    <g id="text_16">
     <!-- bp -->
     <g transform="translate(19.912187 74.266562) rotate(-90) scale(0.1 -0.1)">
      <defs>
       <path id="DejaVuSans-62" d="M 3116 1747 
Q 3116 2381 2855 2742 
Q 2594 3103 2138 3103 
Q 1681 3103 1420 2742 
Q 1159 2381 1159 1747 
Q 1159 1113 1420 752 
Q 1681 391 2138 391 
Q 2594 391 2855 752 
Q 3116 1113 3116 1747 
z
M 1159 2969 
Q 1341 3281 1617 3432 
Q 1894 3584 2278 3584 
Q 2916 3584 3314 3078 
Q 3713 2572 3713 1747 
Q 3713 922 3314 415 
Q 2916 -91 2278 -91 
Q 1894 -91 1617 61 
Q 1341 213 1159 525 
L 1159 0 
L 581 0 
L 581 4863 
L 1159 4863 
L 1159 2969 
z
" transform="scale(0.015625)"/>
       <path id="DejaVuSans-70" d="M 1159 525 
L 1159 -1331 
L 581 -1331 
L 581 3500 
L 1159 3500 
L 1159 2969 
Q 1341 3281 1617 3432 
Q 1894 3584 2278 3584 
Q 2916 3584 3314 3078 
Q 3713 2572 3713 1747 
Q 3713 922 3314 415 
Q 2916 -91 2278 -91 
Q 1894 -91 1617 61 
Q 1341 213 1159 525 
z
M 3116 1747 
Q 3116 2381 2855 2742 
Q 2594 3103 2138 3103 
Q 1681 3103 1420 2742 
Q 1159 2381 1159 1747 
Q 1159 1113 1420 752 
Q 1681 391 2138 391 
Q 2594 391 2855 752 
Q 3116 1113 3116 1747 
z
" transform="scale(0.015625)"/>
      </defs>
      <use xlink:href="#DejaVuSans-62"/>
      <use xlink:href="#DejaVuSans-70" transform="translate(63.476562 0)"/>
     </g>
    </g>
   </g>
   <g id="line2d_31">
    <path d="M 52.079375 31.605229 
L 53.455265 31.605229 
L 57.582937 32.890641 
L 58.958827 30.962522 
L 60.334717 34.176053 
L 61.710608 36.104172 
L 63.086498 37.389584 
L 67.21417 40.603114 
L 68.59006 40.603114 
L 69.96595 38.674996 
L 71.341841 35.461465 
L 72.717731 35.461465 
L 76.845402 32.890641 
L 78.221293 35.461465 
L 80.973074 34.176053 
L 82.348964 30.962522 
L 86.476635 29.034404 
L 87.852526 27.748992 
L 90.604307 26.46358 
L 91.980197 28.391698 
L 96.107868 26.46358 
L 97.483759 32.890641 
L 98.859649 32.890641 
L 101.61143 34.176053 
L 105.739101 32.890641 
L 107.114991 33.533347 
L 108.490882 30.319816 
L 111.242663 31.605229 
L 115.370334 30.319816 
L 116.746224 32.890641 
L 118.122115 36.104172 
L 119.498005 35.461465 
L 120.873896 34.176053 
L 125.001567 36.746878 
L 126.377457 36.746878 
L 127.753348 40.603114 
L 129.129238 43.173939 
L 130.505128 42.531233 
L 134.6328 41.245821 
L 136.00869 43.816645 
L 137.38458 41.888527 
L 138.760471 41.888527 
L 140.136361 39.960408 
L 144.264033 40.603114 
L 145.639923 42.531233 
L 147.015813 47.030176 
L 148.391704 49.601 
L 149.767594 46.38747 
L 153.895265 47.672882 
L 155.271156 46.38747 
L 156.647046 48.958294 
L 159.398827 45.102057 
L 163.526498 45.102057 
L 164.902389 45.744763 
L 169.03006 49.601 
L 173.157731 50.243706 
L 174.533622 51.529119 
L 175.909512 52.171825 
L 177.285402 51.529119 
L 178.661293 53.457237 
L 182.788964 53.457237 
L 184.164854 54.742649 
L 185.540745 55.385355 
L 186.916635 52.814531 
L 188.292526 52.814531 
L 192.420197 51.529119 
L 193.796087 53.457237 
L 195.171978 51.529119 
L 196.547868 50.243706 
L 197.923759 54.742649 
L 202.05143 55.385355 
L 203.42732 55.385355 
L 204.803211 56.028062 
L 206.179101 55.385355 
L 207.554991 52.171825 
L 211.682663 52.814531 
L 213.058553 54.099943 
L 214.434443 54.742649 
L 215.810334 52.814531 
L 217.186224 53.457237 
L 221.313896 54.742649 
L 222.689786 54.099943 
L 224.065676 54.742649 
L 225.441567 54.742649 
L 226.817457 56.028062 
L 230.945128 57.313474 
L 232.321019 57.313474 
L 233.696909 58.598886 
L 235.0728 57.95618 
L 236.44869 54.742649 
L 240.576361 54.742649 
L 244.704033 56.670768 
L 246.079923 56.028062 
L 250.207594 55.385355 
L 251.583485 54.099943 
L 252.959375 53.457237 
L 254.335265 54.742649 
L 255.711156 52.814531 
L 262.590608 52.814531 
L 263.966498 50.243706 
L 265.342389 48.958294 
L 269.47006 47.672882 
L 270.84595 49.601 
L 272.221841 47.672882 
L 273.597731 47.672882 
L 274.973622 47.030176 
L 279.101293 46.38747 
L 280.477183 45.744763 
L 281.853074 49.601 
L 283.228964 50.243706 
L 284.604854 48.958294 
L 288.732526 47.030176 
L 290.108416 48.315588 
L 291.484307 48.958294 
L 292.860197 48.958294 
L 294.236087 53.457237 
L 298.363759 53.457237 
L 299.739649 52.171825 
L 301.115539 49.601 
L 302.49143 50.886413 
L 303.86732 49.601 
L 307.994991 48.315588 
L 309.370882 51.529119 
L 310.746772 51.529119 
L 313.498553 48.958294 
L 317.626224 47.672882 
L 319.002115 48.315588 
L 320.378005 49.601 
L 321.753896 46.38747 
L 323.129786 45.744763 
L 327.257457 46.38747 
L 328.633348 48.315588 
L 330.009238 44.459351 
L 331.385128 44.459351 
L 332.761019 48.958294 
L 336.88869 47.672882 
L 338.26458 47.672882 
L 339.640471 48.958294 
L 342.392252 50.243706 
L 346.519923 51.529119 
L 347.895813 53.457237 
L 349.271704 52.814531 
L 350.647594 52.814531 
L 352.023485 54.099943 
L 357.527046 54.099943 
L 360.278827 52.814531 
L 361.654717 52.814531 
L 365.782389 54.742649 
L 367.158279 54.742649 
L 368.53417 55.385355 
L 369.91006 54.742649 
L 371.28595 63.097829 
L 375.413622 61.169711 
L 376.789512 63.097829 
L 378.165402 63.740535 
L 379.541293 63.097829 
L 380.917183 61.169711 
L 385.044854 59.884298 
L 386.420745 61.169711 
L 387.796635 61.812417 
L 389.172526 63.097829 
L 390.548416 65.025947 
L 394.676087 63.740535 
L 396.051978 60.527004 
L 397.427868 61.169711 
L 398.803759 61.169711 
L 400.179649 61.812417 
L 404.30732 62.455123 
L 405.683211 62.455123 
L 407.059101 60.527004 
L 408.434991 60.527004 
L 409.810882 63.097829 
L 413.938553 61.169711 
L 415.314443 61.169711 
L 416.690334 60.527004 
L 418.066224 58.598886 
L 419.442115 57.95618 
L 423.569786 58.598886 
L 424.945676 59.884298 
L 426.321567 58.598886 
L 427.697457 56.670768 
L 429.073348 53.457237 
L 433.201019 54.742649 
L 434.576909 52.814531 
L 435.9528 55.385355 
L 437.32869 54.099943 
L 438.70458 56.028062 
L 442.832252 54.742649 
L 444.208142 56.028062 
L 445.584033 55.385355 
L 446.959923 56.028062 
L 448.335813 55.385355 
L 452.463485 54.099943 
L 453.839375 55.385355 
L 455.215265 54.099943 
L 456.591156 57.313474 
L 457.967046 56.670768 
L 462.094717 56.028062 
L 463.470608 57.95618 
L 464.846498 55.385355 
L 466.222389 57.313474 
L 467.598279 58.598886 
L 471.72595 58.598886 
L 473.101841 56.670768 
L 474.477731 54.099943 
L 477.229512 54.099943 
L 481.357183 54.742649 
L 482.733074 54.099943 
L 484.108964 54.742649 
L 485.484854 54.742649 
L 486.860745 55.385355 
L 490.988416 56.028062 
L 492.364307 56.670768 
L 493.740197 56.028062 
L 496.491978 61.169711 
L 500.619649 60.527004 
L 501.995539 60.527004 
L 503.37143 62.455123 
L 506.123211 59.884298 
L 511.626772 57.313474 
L 514.378553 57.313474 
L 515.754443 56.028062 
L 519.882115 57.313474 
L 521.258005 57.95618 
L 522.633896 54.099943 
L 524.009786 54.742649 
L 525.385676 54.099943 
L 529.513348 55.385355 
L 530.889238 55.385355 
L 533.641019 56.670768 
L 535.016909 54.099943 
L 539.14458 53.457237 
L 540.520471 55.385355 
L 541.896361 54.742649 
L 543.272252 56.028062 
L 544.648142 55.385355 
L 548.775813 55.385355 
L 551.527594 56.670768 
L 552.903485 56.670768 
L 554.279375 52.814531 
L 554.279375 52.814531 
" clip-path="url(#p45dcd05733)" style="fill: none; stroke: #444444; stroke-width: 1.5; stroke-linecap: square"/>
    <defs>
     <path id="m756fbafbfa" d="M 0 1 
C 0.265203 1 0.51958 0.894634 0.707107 0.707107 
C 0.894634 0.51958 1 0.265203 1 0 
C 1 -0.265203 0.894634 -0.51958 0.707107 -0.707107 
C 0.51958 -0.894634 0.265203 -1 0 -1 
C -0.265203 -1 -0.51958 -0.894634 -0.707107 -0.707107 
C -0.894634 -0.51958 -1 -0.265203 -1 0 
C -1 0.265203 -0.894634 0.51958 -0.707107 0.707107 
C -0.51958 0.894634 -0.265203 1 0 1 
z
" style="stroke: #444444"/>
    </defs>
    <g clip-path="url(#p45dcd05733)">
     <use xlink:href="#m756fbafbfa" x="52.079375" y="31.605229" style="fill: #444444; stroke: #444444"/>
     <use xlink:href="#m756fbafbfa" x="53.455265" y="31.605229" style="fill: #444444; stroke: #444444"/>
     <use xlink:href="#m756fbafbfa" x="57.582937" y="32.890641" style="fill: #444444; stroke: #444444"/>
     <use xlink:href="#m756fbafbfa" x="58.958827" y="30.962522" style="fill: #444444; stroke: #444444"/>
     <use xlink:href="#m756fbafbfa" x="60.334717" y="34.176053" style="fill: #444444; stroke: #444444"/>
     <use xlink:href="#m756fbafbfa" x="61.710608" y="36.104172" style="fill: #444444; stroke: #444444"/>
     <use xlink:href="#m756fbafbfa" x="63.086498" y="37.389584" style="fill: #444444; stroke: #444444"/>
     <use xlink:href="#m756fbafbfa" x="67.21417" y="40.603114" style="fill: #444444; stroke: #444444"/>
     <use xlink:href="#m756fbafbfa" x="68.59006" y="40.603114" style="fill: #444444; stroke: #444444"/>
     <use xlink:href="#m756fbafbfa" x="69.96595" y="38.674996" style="fill: #444444; stroke: #444444"/>
     <use xlink:href="#m756fbafbfa" x="71.341841" y="35.461465" style="fill: #444444; stroke: #444444"/>
     <use xlink:href="#m756fbafbfa" x="72.717731" y="35.461465" style="fill: #444444; stroke: #444444"/>
     <use xlink:href="#m756fbafbfa" x="76.845402" y="32.890641" style="fill: #444444; stroke: #444444"/>
     <use xlink:href="#m756fbafbfa" x="78.221293" y="35.461465" style="fill: #444444; stroke: #444444"/>
     <use xlink:href="#m756fbafbfa" x="79.597183" y="34.818759" style="fill: #444444; stroke: #444444"/>
     <use xlink:href="#m756fbafbfa" x="80.973074" y="34.176053" style="fill: #444444; stroke: #444444"/>
     <use xlink:href="#m756fbafbfa" x="82.348964" y="30.962522" style="fill: #444444; stroke: #444444"/>
     <use xlink:href="#m756fbafbfa" x="86.476635" y="29.034404" style="fill: #444444; stroke: #444444"/>
     <use xlink:href="#m756fbafbfa" x="87.852526" y="27.748992" style="fill: #444444; stroke: #444444"/>
     <use xlink:href="#m756fbafbfa" x="89.228416" y="27.106286" style="fill: #444444; stroke: #444444"/>
     <use xlink:href="#m756fbafbfa" x="90.604307" y="26.46358" style="fill: #444444; stroke: #444444"/>
     <use xlink:href="#m756fbafbfa" x="91.980197" y="28.391698" style="fill: #444444; stroke: #444444"/>
     <use xlink:href="#m756fbafbfa" x="96.107868" y="26.46358" style="fill: #444444; stroke: #444444"/>
     <use xlink:href="#m756fbafbfa" x="97.483759" y="32.890641" style="fill: #444444; stroke: #444444"/>
     <use xlink:href="#m756fbafbfa" x="98.859649" y="32.890641" style="fill: #444444; stroke: #444444"/>
     <use xlink:href="#m756fbafbfa" x="100.235539" y="33.533347" style="fill: #444444; stroke: #444444"/>
     <use xlink:href="#m756fbafbfa" x="101.61143" y="34.176053" style="fill: #444444; stroke: #444444"/>
     <use xlink:href="#m756fbafbfa" x="105.739101" y="32.890641" style="fill: #444444; stroke: #444444"/>
     <use xlink:href="#m756fbafbfa" x="107.114991" y="33.533347" style="fill: #444444; stroke: #444444"/>
     <use xlink:href="#m756fbafbfa" x="108.490882" y="30.319816" style="fill: #444444; stroke: #444444"/>
     <use xlink:href="#m756fbafbfa" x="109.866772" y="30.962522" style="fill: #444444; stroke: #444444"/>
     <use xlink:href="#m756fbafbfa" x="111.242663" y="31.605229" style="fill: #444444; stroke: #444444"/>
     <use xlink:href="#m756fbafbfa" x="115.370334" y="30.319816" style="fill: #444444; stroke: #444444"/>
     <use xlink:href="#m756fbafbfa" x="116.746224" y="32.890641" style="fill: #444444; stroke: #444444"/>
     <use xlink:href="#m756fbafbfa" x="118.122115" y="36.104172" style="fill: #444444; stroke: #444444"/>
     <use xlink:href="#m756fbafbfa" x="119.498005" y="35.461465" style="fill: #444444; stroke: #444444"/>
     <use xlink:href="#m756fbafbfa" x="120.873896" y="34.176053" style="fill: #444444; stroke: #444444"/>
     <use xlink:href="#m756fbafbfa" x="125.001567" y="36.746878" style="fill: #444444; stroke: #444444"/>
     <use xlink:href="#m756fbafbfa" x="126.377457" y="36.746878" style="fill: #444444; stroke: #444444"/>
     <use xlink:href="#m756fbafbfa" x="127.753348" y="40.603114" style="fill: #444444; stroke: #444444"/>
     <use xlink:href="#m756fbafbfa" x="129.129238" y="43.173939" style="fill: #444444; stroke: #444444"/>
     <use xlink:href="#m756fbafbfa" x="130.505128" y="42.531233" style="fill: #444444; stroke: #444444"/>
     <use xlink:href="#m756fbafbfa" x="134.6328" y="41.245821" style="fill: #444444; stroke: #444444"/>
     <use xlink:href="#m756fbafbfa" x="136.00869" y="43.816645" style="fill: #444444; stroke: #444444"/>
     <use xlink:href="#m756fbafbfa" x="137.38458" y="41.888527" style="fill: #444444; stroke: #444444"/>
     <use xlink:href="#m756fbafbfa" x="138.760471" y="41.888527" style="fill: #444444; stroke: #444444"/>
     <use xlink:href="#m756fbafbfa" x="140.136361" y="39.960408" style="fill: #444444; stroke: #444444"/>
     <use xlink:href="#m756fbafbfa" x="144.264033" y="40.603114" style="fill: #444444; stroke: #444444"/>
     <use xlink:href="#m756fbafbfa" x="145.639923" y="42.531233" style="fill: #444444; stroke: #444444"/>
     <use xlink:href="#m756fbafbfa" x="147.015813" y="47.030176" style="fill: #444444; stroke: #444444"/>
     <use xlink:href="#m756fbafbfa" x="148.391704" y="49.601" style="fill: #444444; stroke: #444444"/>
     <use xlink:href="#m756fbafbfa" x="149.767594" y="46.38747" style="fill: #444444; stroke: #444444"/>
     <use xlink:href="#m756fbafbfa" x="153.895265" y="47.672882" style="fill: #444444; stroke: #444444"/>
     <use xlink:href="#m756fbafbfa" x="155.271156" y="46.38747" style="fill: #444444; stroke: #444444"/>
     <use xlink:href="#m756fbafbfa" x="156.647046" y="48.958294" style="fill: #444444; stroke: #444444"/>
     <use xlink:href="#m756fbafbfa" x="158.022937" y="47.030176" style="fill: #444444; stroke: #444444"/>
     <use xlink:href="#m756fbafbfa" x="159.398827" y="45.102057" style="fill: #444444; stroke: #444444"/>
     <use xlink:href="#m756fbafbfa" x="163.526498" y="45.102057" style="fill: #444444; stroke: #444444"/>
     <use xlink:href="#m756fbafbfa" x="164.902389" y="45.744763" style="fill: #444444; stroke: #444444"/>
     <use xlink:href="#m756fbafbfa" x="166.278279" y="47.030176" style="fill: #444444; stroke: #444444"/>
     <use xlink:href="#m756fbafbfa" x="167.65417" y="48.315588" style="fill: #444444; stroke: #444444"/>
     <use xlink:href="#m756fbafbfa" x="169.03006" y="49.601" style="fill: #444444; stroke: #444444"/>
     <use xlink:href="#m756fbafbfa" x="173.157731" y="50.243706" style="fill: #444444; stroke: #444444"/>
     <use xlink:href="#m756fbafbfa" x="174.533622" y="51.529119" style="fill: #444444; stroke: #444444"/>
     <use xlink:href="#m756fbafbfa" x="175.909512" y="52.171825" style="fill: #444444; stroke: #444444"/>
     <use xlink:href="#m756fbafbfa" x="177.285402" y="51.529119" style="fill: #444444; stroke: #444444"/>
     <use xlink:href="#m756fbafbfa" x="178.661293" y="53.457237" style="fill: #444444; stroke: #444444"/>
     <use xlink:href="#m756fbafbfa" x="182.788964" y="53.457237" style="fill: #444444; stroke: #444444"/>
     <use xlink:href="#m756fbafbfa" x="184.164854" y="54.742649" style="fill: #444444; stroke: #444444"/>
     <use xlink:href="#m756fbafbfa" x="185.540745" y="55.385355" style="fill: #444444; stroke: #444444"/>
     <use xlink:href="#m756fbafbfa" x="186.916635" y="52.814531" style="fill: #444444; stroke: #444444"/>
     <use xlink:href="#m756fbafbfa" x="188.292526" y="52.814531" style="fill: #444444; stroke: #444444"/>
     <use xlink:href="#m756fbafbfa" x="192.420197" y="51.529119" style="fill: #444444; stroke: #444444"/>
     <use xlink:href="#m756fbafbfa" x="193.796087" y="53.457237" style="fill: #444444; stroke: #444444"/>
     <use xlink:href="#m756fbafbfa" x="195.171978" y="51.529119" style="fill: #444444; stroke: #444444"/>
     <use xlink:href="#m756fbafbfa" x="196.547868" y="50.243706" style="fill: #444444; stroke: #444444"/>
     <use xlink:href="#m756fbafbfa" x="197.923759" y="54.742649" style="fill: #444444; stroke: #444444"/>
     <use xlink:href="#m756fbafbfa" x="202.05143" y="55.385355" style="fill: #444444; stroke: #444444"/>
     <use xlink:href="#m756fbafbfa" x="203.42732" y="55.385355" style="fill: #444444; stroke: #444444"/>
     <use xlink:href="#m756fbafbfa" x="204.803211" y="56.028062" style="fill: #444444; stroke: #444444"/>
     <use xlink:href="#m756fbafbfa" x="206.179101" y="55.385355" style="fill: #444444; stroke: #444444"/>
     <use xlink:href="#m756fbafbfa" x="207.554991" y="52.171825" style="fill: #444444; stroke: #444444"/>
     <use xlink:href="#m756fbafbfa" x="211.682663" y="52.814531" style="fill: #444444; stroke: #444444"/>
     <use xlink:href="#m756fbafbfa" x="213.058553" y="54.099943" style="fill: #444444; stroke: #444444"/>
     <use xlink:href="#m756fbafbfa" x="214.434443" y="54.742649" style="fill: #444444; stroke: #444444"/>
     <use xlink:href="#m756fbafbfa" x="215.810334" y="52.814531" style="fill: #444444; stroke: #444444"/>
     <use xlink:href="#m756fbafbfa" x="217.186224" y="53.457237" style="fill: #444444; stroke: #444444"/>
     <use xlink:href="#m756fbafbfa" x="221.313896" y="54.742649" style="fill: #444444; stroke: #444444"/>
     <use xlink:href="#m756fbafbfa" x="222.689786" y="54.099943" style="fill: #444444; stroke: #444444"/>
     <use xlink:href="#m756fbafbfa" x="224.065676" y="54.742649" style="fill: #444444; stroke: #444444"/>
     <use xlink:href="#m756fbafbfa" x="225.441567" y="54.742649" style="fill: #444444; stroke: #444444"/>
     <use xlink:href="#m756fbafbfa" x="226.817457" y="56.028062" style="fill: #444444; stroke: #444444"/>
     <use xlink:href="#m756fbafbfa" x="230.945128" y="57.313474" style="fill: #444444; stroke: #444444"/>
     <use xlink:href="#m756fbafbfa" x="232.321019" y="57.313474" style="fill: #444444; stroke: #444444"/>
     <use xlink:href="#m756fbafbfa" x="233.696909" y="58.598886" style="fill: #444444; stroke: #444444"/>
     <use xlink:href="#m756fbafbfa" x="235.0728" y="57.95618" style="fill: #444444; stroke: #444444"/>
     <use xlink:href="#m756fbafbfa" x="236.44869" y="54.742649" style="fill: #444444; stroke: #444444"/>
     <use xlink:href="#m756fbafbfa" x="240.576361" y="54.742649" style="fill: #444444; stroke: #444444"/>
     <use xlink:href="#m756fbafbfa" x="241.952252" y="55.385355" style="fill: #444444; stroke: #444444"/>
     <use xlink:href="#m756fbafbfa" x="243.328142" y="56.028062" style="fill: #444444; stroke: #444444"/>
     <use xlink:href="#m756fbafbfa" x="244.704033" y="56.670768" style="fill: #444444; stroke: #444444"/>
     <use xlink:href="#m756fbafbfa" x="246.079923" y="56.028062" style="fill: #444444; stroke: #444444"/>
     <use xlink:href="#m756fbafbfa" x="250.207594" y="55.385355" style="fill: #444444; stroke: #444444"/>
     <use xlink:href="#m756fbafbfa" x="251.583485" y="54.099943" style="fill: #444444; stroke: #444444"/>
     <use xlink:href="#m756fbafbfa" x="252.959375" y="53.457237" style="fill: #444444; stroke: #444444"/>
     <use xlink:href="#m756fbafbfa" x="254.335265" y="54.742649" style="fill: #444444; stroke: #444444"/>
     <use xlink:href="#m756fbafbfa" x="255.711156" y="52.814531" style="fill: #444444; stroke: #444444"/>
     <use xlink:href="#m756fbafbfa" x="259.838827" y="52.814531" style="fill: #444444; stroke: #444444"/>
     <use xlink:href="#m756fbafbfa" x="261.214717" y="52.814531" style="fill: #444444; stroke: #444444"/>
     <use xlink:href="#m756fbafbfa" x="262.590608" y="52.814531" style="fill: #444444; stroke: #444444"/>
     <use xlink:href="#m756fbafbfa" x="263.966498" y="50.243706" style="fill: #444444; stroke: #444444"/>
     <use xlink:href="#m756fbafbfa" x="265.342389" y="48.958294" style="fill: #444444; stroke: #444444"/>
     <use xlink:href="#m756fbafbfa" x="269.47006" y="47.672882" style="fill: #444444; stroke: #444444"/>
     <use xlink:href="#m756fbafbfa" x="270.84595" y="49.601" style="fill: #444444; stroke: #444444"/>
     <use xlink:href="#m756fbafbfa" x="272.221841" y="47.672882" style="fill: #444444; stroke: #444444"/>
     <use xlink:href="#m756fbafbfa" x="273.597731" y="47.672882" style="fill: #444444; stroke: #444444"/>
     <use xlink:href="#m756fbafbfa" x="274.973622" y="47.030176" style="fill: #444444; stroke: #444444"/>
     <use xlink:href="#m756fbafbfa" x="279.101293" y="46.38747" style="fill: #444444; stroke: #444444"/>
     <use xlink:href="#m756fbafbfa" x="280.477183" y="45.744763" style="fill: #444444; stroke: #444444"/>
     <use xlink:href="#m756fbafbfa" x="281.853074" y="49.601" style="fill: #444444; stroke: #444444"/>
     <use xlink:href="#m756fbafbfa" x="283.228964" y="50.243706" style="fill: #444444; stroke: #444444"/>
     <use xlink:href="#m756fbafbfa" x="284.604854" y="48.958294" style="fill: #444444; stroke: #444444"/>
     <use xlink:href="#m756fbafbfa" x="288.732526" y="47.030176" style="fill: #444444; stroke: #444444"/>
     <use xlink:href="#m756fbafbfa" x="290.108416" y="48.315588" style="fill: #444444; stroke: #444444"/>
     <use xlink:href="#m756fbafbfa" x="291.484307" y="48.958294" style="fill: #444444; stroke: #444444"/>
     <use xlink:href="#m756fbafbfa" x="292.860197" y="48.958294" style="fill: #444444; stroke: #444444"/>
     <use xlink:href="#m756fbafbfa" x="294.236087" y="53.457237" style="fill: #444444; stroke: #444444"/>
     <use xlink:href="#m756fbafbfa" x="298.363759" y="53.457237" style="fill: #444444; stroke: #444444"/>
     <use xlink:href="#m756fbafbfa" x="299.739649" y="52.171825" style="fill: #444444; stroke: #444444"/>
     <use xlink:href="#m756fbafbfa" x="301.115539" y="49.601" style="fill: #444444; stroke: #444444"/>
     <use xlink:href="#m756fbafbfa" x="302.49143" y="50.886413" style="fill: #444444; stroke: #444444"/>
     <use xlink:href="#m756fbafbfa" x="303.86732" y="49.601" style="fill: #444444; stroke: #444444"/>
     <use xlink:href="#m756fbafbfa" x="307.994991" y="48.315588" style="fill: #444444; stroke: #444444"/>
     <use xlink:href="#m756fbafbfa" x="309.370882" y="51.529119" style="fill: #444444; stroke: #444444"/>
     <use xlink:href="#m756fbafbfa" x="310.746772" y="51.529119" style="fill: #444444; stroke: #444444"/>
     <use xlink:href="#m756fbafbfa" x="312.122663" y="50.243706" style="fill: #444444; stroke: #444444"/>
     <use xlink:href="#m756fbafbfa" x="313.498553" y="48.958294" style="fill: #444444; stroke: #444444"/>
     <use xlink:href="#m756fbafbfa" x="317.626224" y="47.672882" style="fill: #444444; stroke: #444444"/>
     <use xlink:href="#m756fbafbfa" x="319.002115" y="48.315588" style="fill: #444444; stroke: #444444"/>
     <use xlink:href="#m756fbafbfa" x="320.378005" y="49.601" style="fill: #444444; stroke: #444444"/>
     <use xlink:href="#m756fbafbfa" x="321.753896" y="46.38747" style="fill: #444444; stroke: #444444"/>
     <use xlink:href="#m756fbafbfa" x="323.129786" y="45.744763" style="fill: #444444; stroke: #444444"/>
     <use xlink:href="#m756fbafbfa" x="327.257457" y="46.38747" style="fill: #444444; stroke: #444444"/>
     <use xlink:href="#m756fbafbfa" x="328.633348" y="48.315588" style="fill: #444444; stroke: #444444"/>
     <use xlink:href="#m756fbafbfa" x="330.009238" y="44.459351" style="fill: #444444; stroke: #444444"/>
     <use xlink:href="#m756fbafbfa" x="331.385128" y="44.459351" style="fill: #444444; stroke: #444444"/>
     <use xlink:href="#m756fbafbfa" x="332.761019" y="48.958294" style="fill: #444444; stroke: #444444"/>
     <use xlink:href="#m756fbafbfa" x="336.88869" y="47.672882" style="fill: #444444; stroke: #444444"/>
     <use xlink:href="#m756fbafbfa" x="338.26458" y="47.672882" style="fill: #444444; stroke: #444444"/>
     <use xlink:href="#m756fbafbfa" x="339.640471" y="48.958294" style="fill: #444444; stroke: #444444"/>
     <use xlink:href="#m756fbafbfa" x="341.016361" y="49.601" style="fill: #444444; stroke: #444444"/>
     <use xlink:href="#m756fbafbfa" x="342.392252" y="50.243706" style="fill: #444444; stroke: #444444"/>
     <use xlink:href="#m756fbafbfa" x="346.519923" y="51.529119" style="fill: #444444; stroke: #444444"/>
     <use xlink:href="#m756fbafbfa" x="347.895813" y="53.457237" style="fill: #444444; stroke: #444444"/>
     <use xlink:href="#m756fbafbfa" x="349.271704" y="52.814531" style="fill: #444444; stroke: #444444"/>
     <use xlink:href="#m756fbafbfa" x="350.647594" y="52.814531" style="fill: #444444; stroke: #444444"/>
     <use xlink:href="#m756fbafbfa" x="352.023485" y="54.099943" style="fill: #444444; stroke: #444444"/>
     <use xlink:href="#m756fbafbfa" x="356.151156" y="54.099943" style="fill: #444444; stroke: #444444"/>
     <use xlink:href="#m756fbafbfa" x="357.527046" y="54.099943" style="fill: #444444; stroke: #444444"/>
     <use xlink:href="#m756fbafbfa" x="358.902937" y="53.457237" style="fill: #444444; stroke: #444444"/>
     <use xlink:href="#m756fbafbfa" x="360.278827" y="52.814531" style="fill: #444444; stroke: #444444"/>
     <use xlink:href="#m756fbafbfa" x="361.654717" y="52.814531" style="fill: #444444; stroke: #444444"/>
     <use xlink:href="#m756fbafbfa" x="365.782389" y="54.742649" style="fill: #444444; stroke: #444444"/>
     <use xlink:href="#m756fbafbfa" x="367.158279" y="54.742649" style="fill: #444444; stroke: #444444"/>
     <use xlink:href="#m756fbafbfa" x="368.53417" y="55.385355" style="fill: #444444; stroke: #444444"/>
     <use xlink:href="#m756fbafbfa" x="369.91006" y="54.742649" style="fill: #444444; stroke: #444444"/>
     <use xlink:href="#m756fbafbfa" x="371.28595" y="63.097829" style="fill: #444444; stroke: #444444"/>
     <use xlink:href="#m756fbafbfa" x="375.413622" y="61.169711" style="fill: #444444; stroke: #444444"/>
     <use xlink:href="#m756fbafbfa" x="376.789512" y="63.097829" style="fill: #444444; stroke: #444444"/>
     <use xlink:href="#m756fbafbfa" x="378.165402" y="63.740535" style="fill: #444444; stroke: #444444"/>
     <use xlink:href="#m756fbafbfa" x="379.541293" y="63.097829" style="fill: #444444; stroke: #444444"/>
     <use xlink:href="#m756fbafbfa" x="380.917183" y="61.169711" style="fill: #444444; stroke: #444444"/>
     <use xlink:href="#m756fbafbfa" x="385.044854" y="59.884298" style="fill: #444444; stroke: #444444"/>
     <use xlink:href="#m756fbafbfa" x="386.420745" y="61.169711" style="fill: #444444; stroke: #444444"/>
     <use xlink:href="#m756fbafbfa" x="387.796635" y="61.812417" style="fill: #444444; stroke: #444444"/>
     <use xlink:href="#m756fbafbfa" x="389.172526" y="63.097829" style="fill: #444444; stroke: #444444"/>
     <use xlink:href="#m756fbafbfa" x="390.548416" y="65.025947" style="fill: #444444; stroke: #444444"/>
     <use xlink:href="#m756fbafbfa" x="394.676087" y="63.740535" style="fill: #444444; stroke: #444444"/>
     <use xlink:href="#m756fbafbfa" x="396.051978" y="60.527004" style="fill: #444444; stroke: #444444"/>
     <use xlink:href="#m756fbafbfa" x="397.427868" y="61.169711" style="fill: #444444; stroke: #444444"/>
     <use xlink:href="#m756fbafbfa" x="398.803759" y="61.169711" style="fill: #444444; stroke: #444444"/>
     <use xlink:href="#m756fbafbfa" x="400.179649" y="61.812417" style="fill: #444444; stroke: #444444"/>
     <use xlink:href="#m756fbafbfa" x="404.30732" y="62.455123" style="fill: #444444; stroke: #444444"/>
     <use xlink:href="#m756fbafbfa" x="405.683211" y="62.455123" style="fill: #444444; stroke: #444444"/>
     <use xlink:href="#m756fbafbfa" x="407.059101" y="60.527004" style="fill: #444444; stroke: #444444"/>
     <use xlink:href="#m756fbafbfa" x="408.434991" y="60.527004" style="fill: #444444; stroke: #444444"/>
     <use xlink:href="#m756fbafbfa" x="409.810882" y="63.097829" style="fill: #444444; stroke: #444444"/>
     <use xlink:href="#m756fbafbfa" x="413.938553" y="61.169711" style="fill: #444444; stroke: #444444"/>
     <use xlink:href="#m756fbafbfa" x="415.314443" y="61.169711" style="fill: #444444; stroke: #444444"/>
     <use xlink:href="#m756fbafbfa" x="416.690334" y="60.527004" style="fill: #444444; stroke: #444444"/>
     <use xlink:href="#m756fbafbfa" x="418.066224" y="58.598886" style="fill: #444444; stroke: #444444"/>
     <use xlink:href="#m756fbafbfa" x="419.442115" y="57.95618" style="fill: #444444; stroke: #444444"/>
     <use xlink:href="#m756fbafbfa" x="423.569786" y="58.598886" style="fill: #444444; stroke: #444444"/>
     <use xlink:href="#m756fbafbfa" x="424.945676" y="59.884298" style="fill: #444444; stroke: #444444"/>
     <use xlink:href="#m756fbafbfa" x="426.321567" y="58.598886" style="fill: #444444; stroke: #444444"/>
     <use xlink:href="#m756fbafbfa" x="427.697457" y="56.670768" style="fill: #444444; stroke: #444444"/>
     <use xlink:href="#m756fbafbfa" x="429.073348" y="53.457237" style="fill: #444444; stroke: #444444"/>
     <use xlink:href="#m756fbafbfa" x="433.201019" y="54.742649" style="fill: #444444; stroke: #444444"/>
     <use xlink:href="#m756fbafbfa" x="434.576909" y="52.814531" style="fill: #444444; stroke: #444444"/>
     <use xlink:href="#m756fbafbfa" x="435.9528" y="55.385355" style="fill: #444444; stroke: #444444"/>
     <use xlink:href="#m756fbafbfa" x="437.32869" y="54.099943" style="fill: #444444; stroke: #444444"/>
     <use xlink:href="#m756fbafbfa" x="438.70458" y="56.028062" style="fill: #444444; stroke: #444444"/>
     <use xlink:href="#m756fbafbfa" x="442.832252" y="54.742649" style="fill: #444444; stroke: #444444"/>
     <use xlink:href="#m756fbafbfa" x="444.208142" y="56.028062" style="fill: #444444; stroke: #444444"/>
     <use xlink:href="#m756fbafbfa" x="445.584033" y="55.385355" style="fill: #444444; stroke: #444444"/>
     <use xlink:href="#m756fbafbfa" x="446.959923" y="56.028062" style="fill: #444444; stroke: #444444"/>
     <use xlink:href="#m756fbafbfa" x="448.335813" y="55.385355" style="fill: #444444; stroke: #444444"/>
     <use xlink:href="#m756fbafbfa" x="452.463485" y="54.099943" style="fill: #444444; stroke: #444444"/>
     <use xlink:href="#m756fbafbfa" x="453.839375" y="55.385355" style="fill: #444444; stroke: #444444"/>
     <use xlink:href="#m756fbafbfa" x="455.215265" y="54.099943" style="fill: #444444; stroke: #444444"/>
     <use xlink:href="#m756fbafbfa" x="456.591156" y="57.313474" style="fill: #444444; stroke: #444444"/>
     <use xlink:href="#m756fbafbfa" x="457.967046" y="56.670768" style="fill: #444444; stroke: #444444"/>
     <use xlink:href="#m756fbafbfa" x="462.094717" y="56.028062" style="fill: #444444; stroke: #444444"/>
     <use xlink:href="#m756fbafbfa" x="463.470608" y="57.95618" style="fill: #444444; stroke: #444444"/>
     <use xlink:href="#m756fbafbfa" x="464.846498" y="55.385355" style="fill: #444444; stroke: #444444"/>
     <use xlink:href="#m756fbafbfa" x="466.222389" y="57.313474" style="fill: #444444; stroke: #444444"/>
     <use xlink:href="#m756fbafbfa" x="467.598279" y="58.598886" style="fill: #444444; stroke: #444444"/>
     <use xlink:href="#m756fbafbfa" x="471.72595" y="58.598886" style="fill: #444444; stroke: #444444"/>
     <use xlink:href="#m756fbafbfa" x="473.101841" y="56.670768" style="fill: #444444; stroke: #444444"/>
     <use xlink:href="#m756fbafbfa" x="474.477731" y="54.099943" style="fill: #444444; stroke: #444444"/>
     <use xlink:href="#m756fbafbfa" x="475.853622" y="54.099943" style="fill: #444444; stroke: #444444"/>
     <use xlink:href="#m756fbafbfa" x="477.229512" y="54.099943" style="fill: #444444; stroke: #444444"/>
     <use xlink:href="#m756fbafbfa" x="481.357183" y="54.742649" style="fill: #444444; stroke: #444444"/>
     <use xlink:href="#m756fbafbfa" x="482.733074" y="54.099943" style="fill: #444444; stroke: #444444"/>
     <use xlink:href="#m756fbafbfa" x="484.108964" y="54.742649" style="fill: #444444; stroke: #444444"/>
     <use xlink:href="#m756fbafbfa" x="485.484854" y="54.742649" style="fill: #444444; stroke: #444444"/>
     <use xlink:href="#m756fbafbfa" x="486.860745" y="55.385355" style="fill: #444444; stroke: #444444"/>
     <use xlink:href="#m756fbafbfa" x="490.988416" y="56.028062" style="fill: #444444; stroke: #444444"/>
     <use xlink:href="#m756fbafbfa" x="492.364307" y="56.670768" style="fill: #444444; stroke: #444444"/>
     <use xlink:href="#m756fbafbfa" x="493.740197" y="56.028062" style="fill: #444444; stroke: #444444"/>
     <use xlink:href="#m756fbafbfa" x="495.116087" y="58.598886" style="fill: #444444; stroke: #444444"/>
     <use xlink:href="#m756fbafbfa" x="496.491978" y="61.169711" style="fill: #444444; stroke: #444444"/>
     <use xlink:href="#m756fbafbfa" x="500.619649" y="60.527004" style="fill: #444444; stroke: #444444"/>
     <use xlink:href="#m756fbafbfa" x="501.995539" y="60.527004" style="fill: #444444; stroke: #444444"/>
     <use xlink:href="#m756fbafbfa" x="503.37143" y="62.455123" style="fill: #444444; stroke: #444444"/>
     <use xlink:href="#m756fbafbfa" x="504.74732" y="61.169711" style="fill: #444444; stroke: #444444"/>
     <use xlink:href="#m756fbafbfa" x="506.123211" y="59.884298" style="fill: #444444; stroke: #444444"/>
     <use xlink:href="#m756fbafbfa" x="510.250882" y="57.95618" style="fill: #444444; stroke: #444444"/>
     <use xlink:href="#m756fbafbfa" x="511.626772" y="57.313474" style="fill: #444444; stroke: #444444"/>
     <use xlink:href="#m756fbafbfa" x="513.002663" y="57.313474" style="fill: #444444; stroke: #444444"/>
     <use xlink:href="#m756fbafbfa" x="514.378553" y="57.313474" style="fill: #444444; stroke: #444444"/>
     <use xlink:href="#m756fbafbfa" x="515.754443" y="56.028062" style="fill: #444444; stroke: #444444"/>
     <use xlink:href="#m756fbafbfa" x="519.882115" y="57.313474" style="fill: #444444; stroke: #444444"/>
     <use xlink:href="#m756fbafbfa" x="521.258005" y="57.95618" style="fill: #444444; stroke: #444444"/>
     <use xlink:href="#m756fbafbfa" x="522.633896" y="54.099943" style="fill: #444444; stroke: #444444"/>
     <use xlink:href="#m756fbafbfa" x="524.009786" y="54.742649" style="fill: #444444; stroke: #444444"/>
     <use xlink:href="#m756fbafbfa" x="525.385676" y="54.099943" style="fill: #444444; stroke: #444444"/>
     <use xlink:href="#m756fbafbfa" x="529.513348" y="55.385355" style="fill: #444444; stroke: #444444"/>
     <use xlink:href="#m756fbafbfa" x="530.889238" y="55.385355" style="fill: #444444; stroke: #444444"/>
     <use xlink:href="#m756fbafbfa" x="532.265128" y="56.028062" style="fill: #444444; stroke: #444444"/>
     <use xlink:href="#m756fbafbfa" x="533.641019" y="56.670768" style="fill: #444444; stroke: #444444"/>
     <use xlink:href="#m756fbafbfa" x="535.016909" y="54.099943" style="fill: #444444; stroke: #444444"/>
     <use xlink:href="#m756fbafbfa" x="539.14458" y="53.457237" style="fill: #444444; stroke: #444444"/>
     <use xlink:href="#m756fbafbfa" x="540.520471" y="55.385355" style="fill: #444444; stroke: #444444"/>
     <use xlink:href="#m756fbafbfa" x="541.896361" y="54.742649" style="fill: #444444; stroke: #444444"/>
     <use xlink:href="#m756fbafbfa" x="543.272252" y="56.028062" style="fill: #444444; stroke: #444444"/>
     <use xlink:href="#m756fbafbfa" x="544.648142" y="55.385355" style="fill: #444444; stroke: #444444"/>
     <use xlink:href="#m756fbafbfa" x="548.775813" y="55.385355" style="fill: #444444; stroke: #444444"/>
     <use xlink:href="#m756fbafbfa" x="550.151704" y="56.028062" style="fill: #444444; stroke: #444444"/>
     <use xlink:href="#m756fbafbfa" x="551.527594" y="56.670768" style="fill: #444444; stroke: #444444"/>
     <use xlink:href="#m756fbafbfa" x="552.903485" y="56.670768" style="fill: #444444; stroke: #444444"/>
     <use xlink:href="#m756fbafbfa" x="554.279375" y="52.814531" style="fill: #444444; stroke: #444444"/>
    </g>
   </g>
   <g id="line2d_32">
    <path d="M 52.079375 109.37267 
L 554.279375 109.37267 
" clip-path="url(#p45dcd05733)" style="fill: none; stroke: #000000; stroke-linecap: square"/>
   </g>
   <g id="patch_3">
    <path d="M 52.079375 113.518125 
L 52.079375 22.318125 
" style="fill: none; stroke: #000000; stroke-width: 0.8; stroke-linejoin: miter; stroke-linecap: square"/>
   </g>
   <g id="patch_4">
    <path d="M 554.279375 113.518125 
L 554.279375 22.318125 
" style="fill: none; stroke: #000000; stroke-width: 0.8; stroke-linejoin: miter; stroke-linecap: square"/>
   </g>
   <g id="patch_5">
    <path d="M 52.079375 113.518125 
L 554.279375 113.518125 
" style="fill: none; stroke: #000000; stroke-width: 0.8; stroke-linejoin: miter; stroke-linecap: square"/>
   </g>
   <g id="patch_6">
    <path d="M 52.079375 22.318125 
L 554.279375 22.318125 
" style="fill: none; stroke: #000000; stroke-width: 0.8; stroke-linejoin: miter; stroke-linecap: square"/>
   </g>
   <g id="text_17">
    <!-- UST10 – GoC10 Spread (bp) -->
    <g transform="translate(219.479375 16.318125) scale(0.12 -0.12)">
     <defs>
      <path id="DejaVuSans-55" d="M 556 4666 
L 1191 4666 
L 1191 1831 
Q 1191 1081 1462 751 
Q 1734 422 2344 422 
Q 2950 422 3222 751 
Q 3494 1081 3494 1831 
L 3494 4666 
L 4128 4666 
L 4128 1753 
Q 4128 841 3676 375 
Q 3225 -91 2344 -91 
Q 1459 -91 1007 375 
Q 556 841 556 1753 
L 556 4666 
z
" transform="scale(0.015625)"/>
      <path id="DejaVuSans-53" d="M 3425 4513 
L 3425 3897 
Q 3066 4069 2747 4153 
Q 2428 4238 2131 4238 
Q 1616 4238 1336 4038 
Q 1056 3838 1056 3469 
Q 1056 3159 1242 3001 
Q 1428 2844 1947 2747 
L 2328 2669 
Q 3034 2534 3370 2195 
Q 3706 1856 3706 1288 
Q 3706 609 3251 259 
Q 2797 -91 1919 -91 
Q 1588 -91 1214 -16 
Q 841 59 441 206 
L 441 856 
Q 825 641 1194 531 
Q 1563 422 1919 422 
Q 2459 422 2753 634 
Q 3047 847 3047 1241 
Q 3047 1584 2836 1778 
Q 2625 1972 2144 2069 
L 1759 2144 
Q 1053 2284 737 2584 
Q 422 2884 422 3419 
Q 422 4038 858 4394 
Q 1294 4750 2059 4750 
Q 2388 4750 2728 4690 
Q 3069 4631 3425 4513 
z
" transform="scale(0.015625)"/>
      <path id="DejaVuSans-54" d="M -19 4666 
L 3928 4666 
L 3928 4134 
L 2272 4134 
L 2272 0 
L 1638 0 
L 1638 4134 
L -19 4134 
L -19 4666 
z
" transform="scale(0.015625)"/>
      <path id="DejaVuSans-20" transform="scale(0.015625)"/>
      <path id="DejaVuSans-2013" d="M 313 1978 
L 2888 1978 
L 2888 1528 
L 313 1528 
L 313 1978 
z
" transform="scale(0.015625)"/>
      <path id="DejaVuSans-47" d="M 3809 666 
L 3809 1919 
L 2778 1919 
L 2778 2438 
L 4434 2438 
L 4434 434 
Q 4069 175 3628 42 
Q 3188 -91 2688 -91 
Q 1594 -91 976 548 
Q 359 1188 359 2328 
Q 359 3472 976 4111 
Q 1594 4750 2688 4750 
Q 3144 4750 3555 4637 
Q 3966 4525 4313 4306 
L 4313 3634 
Q 3963 3931 3569 4081 
Q 3175 4231 2741 4231 
Q 1884 4231 1454 3753 
Q 1025 3275 1025 2328 
Q 1025 1384 1454 906 
Q 1884 428 2741 428 
Q 3075 428 3337 486 
Q 3600 544 3809 666 
z
" transform="scale(0.015625)"/>
      <path id="DejaVuSans-6f" d="M 1959 3097 
Q 1497 3097 1228 2736 
Q 959 2375 959 1747 
Q 959 1119 1226 758 
Q 1494 397 1959 397 
Q 2419 397 2687 759 
Q 2956 1122 2956 1747 
Q 2956 2369 2687 2733 
Q 2419 3097 1959 3097 
z
M 1959 3584 
Q 2709 3584 3137 3096 
Q 3566 2609 3566 1747 
Q 3566 888 3137 398 
Q 2709 -91 1959 -91 
Q 1206 -91 779 398 
Q 353 888 353 1747 
Q 353 2609 779 3096 
Q 1206 3584 1959 3584 
z
" transform="scale(0.015625)"/>
      <path id="DejaVuSans-43" d="M 4122 4306 
L 4122 3641 
Q 3803 3938 3442 4084 
Q 3081 4231 2675 4231 
Q 1875 4231 1450 3742 
Q 1025 3253 1025 2328 
Q 1025 1406 1450 917 
Q 1875 428 2675 428 
Q 3081 428 3442 575 
Q 3803 722 4122 1019 
L 4122 359 
Q 3791 134 3420 21 
Q 3050 -91 2638 -91 
Q 1578 -91 968 557 
Q 359 1206 359 2328 
Q 359 3453 968 4101 
Q 1578 4750 2638 4750 
Q 3056 4750 3426 4639 
Q 3797 4528 4122 4306 
z
" transform="scale(0.015625)"/>
      <path id="DejaVuSans-72" d="M 2631 2963 
Q 2534 3019 2420 3045 
Q 2306 3072 2169 3072 
Q 1681 3072 1420 2755 
Q 1159 2438 1159 1844 
L 1159 0 
L 581 0 
L 581 3500 
L 1159 3500 
L 1159 2956 
Q 1341 3275 1631 3429 
Q 1922 3584 2338 3584 
Q 2397 3584 2469 3576 
Q 2541 3569 2628 3553 
L 2631 2963 
z
" transform="scale(0.015625)"/>
      <path id="DejaVuSans-65" d="M 3597 1894 
L 3597 1613 
L 953 1613 
Q 991 1019 1311 708 
Q 1631 397 2203 397 
Q 2534 397 2845 478 
Q 3156 559 3463 722 
L 3463 178 
Q 3153 47 2828 -22 
Q 2503 -91 2169 -91 
Q 1331 -91 842 396 
Q 353 884 353 1716 
Q 353 2575 817 3079 
Q 1281 3584 2069 3584 
Q 2775 3584 3186 3129 
Q 3597 2675 3597 1894 
z
M 3022 2063 
Q 3016 2534 2758 2815 
Q 2500 3097 2075 3097 
Q 1594 3097 1305 2825 
Q 1016 2553 972 2059 
L 3022 2063 
z
" transform="scale(0.015625)"/>
      <path id="DejaVuSans-61" d="M 2194 1759 
Q 1497 1759 1228 1600 
Q 959 1441 959 1056 
Q 959 750 1161 570 
Q 1363 391 1709 391 
Q 2188 391 2477 730 
Q 2766 1069 2766 1631 
L 2766 1759 
L 2194 1759 
z
M 3341 1997 
L 3341 0 
L 2766 0 
L 2766 531 
Q 2569 213 2275 61 
Q 1981 -91 1556 -91 
Q 1019 -91 701 211 
Q 384 513 384 1019 
Q 384 1609 779 1909 
Q 1175 2209 1959 2209 
L 2766 2209 
L 2766 2266 
Q 2766 2663 2505 2880 
Q 2244 3097 1772 3097 
Q 1472 3097 1187 3025 
Q 903 2953 641 2809 
L 641 3341 
Q 956 3463 1253 3523 
Q 1550 3584 1831 3584 
Q 2591 3584 2966 3190 
Q 3341 2797 3341 1997 
z
" transform="scale(0.015625)"/>
      <path id="DejaVuSans-64" d="M 2906 2969 
L 2906 4863 
L 3481 4863 
L 3481 0 
L 2906 0 
L 2906 525 
Q 2725 213 2448 61 
Q 2172 -91 1784 -91 
Q 1150 -91 751 415 
Q 353 922 353 1747 
Q 353 2572 751 3078 
Q 1150 3584 1784 3584 
Q 2172 3584 2448 3432 
Q 2725 3281 2906 2969 
z
M 947 1747 
Q 947 1113 1208 752 
Q 1469 391 1925 391 
Q 2381 391 2643 752 
Q 2906 1113 2906 1747 
Q 2906 2381 2643 2742 
Q 2381 3103 1925 3103 
Q 1469 3103 1208 2742 
Q 947 2381 947 1747 
z
" transform="scale(0.015625)"/>
      <path id="DejaVuSans-28" d="M 1984 4856 
Q 1566 4138 1362 3434 
Q 1159 2731 1159 2009 
Q 1159 1288 1364 580 
Q 1569 -128 1984 -844 
L 1484 -844 
Q 1016 -109 783 600 
Q 550 1309 550 2009 
Q 550 2706 781 3412 
Q 1013 4119 1484 4856 
L 1984 4856 
z
" transform="scale(0.015625)"/>
      <path id="DejaVuSans-29" d="M 513 4856 
L 1013 4856 
Q 1481 4119 1714 3412 
Q 1947 2706 1947 2009 
Q 1947 1309 1714 600 
Q 1481 -109 1013 -844 
L 513 -844 
Q 928 -128 1133 580 
Q 1338 1288 1338 2009 
Q 1338 2731 1133 3434 
Q 928 4138 513 4856 
z
" transform="scale(0.015625)"/>
     </defs>
     <use xlink:href="#DejaVuSans-55"/>
     <use xlink:href="#DejaVuSans-53" transform="translate(73.193359 0)"/>
     <use xlink:href="#DejaVuSans-54" transform="translate(136.669922 0)"/>
     <use xlink:href="#DejaVuSans-31" transform="translate(197.753906 0)"/>
     <use xlink:href="#DejaVuSans-30" transform="translate(261.376953 0)"/>
     <use xlink:href="#DejaVuSans-20" transform="translate(325 0)"/>
     <use xlink:href="#DejaVuSans-2013" transform="translate(356.787109 0)"/>
     <use xlink:href="#DejaVuSans-20" transform="translate(406.787109 0)"/>
     <use xlink:href="#DejaVuSans-47" transform="translate(438.574219 0)"/>
     <use xlink:href="#DejaVuSans-6f" transform="translate(516.064453 0)"/>
     <use xlink:href="#DejaVuSans-43" transform="translate(577.246094 0)"/>
     <use xlink:href="#DejaVuSans-31" transform="translate(647.070312 0)"/>
     <use xlink:href="#DejaVuSans-30" transform="translate(710.693359 0)"/>
     <use xlink:href="#DejaVuSans-20" transform="translate(774.316406 0)"/>
     <use xlink:href="#DejaVuSans-53" transform="translate(806.103516 0)"/>
     <use xlink:href="#DejaVuSans-70" transform="translate(869.580078 0)"/>
     <use xlink:href="#DejaVuSans-72" transform="translate(933.056641 0)"/>
     <use xlink:href="#DejaVuSans-65" transform="translate(971.919922 0)"/>
     <use xlink:href="#DejaVuSans-61" transform="translate(1033.443359 0)"/>
     <use xlink:href="#DejaVuSans-64" transform="translate(1094.722656 0)"/>
     <use xlink:href="#DejaVuSans-20" transform="translate(1158.199219 0)"/>
     <use xlink:href="#DejaVuSans-28" transform="translate(1189.986328 0)"/>
     <use xlink:href="#DejaVuSans-62" transform="translate(1229 0)"/>
     <use xlink:href="#DejaVuSans-70" transform="translate(1292.476562 0)"/>
     <use xlink:href="#DejaVuSans-29" transform="translate(1355.953125 0)"/>
    </g>
   </g>
  </g>
  <g id="axes_2">
   <g id="patch_7">
    <path d="M 52.079375 188.638125 
L 554.279375 188.638125 
L 554.279375 156.718125 
L 52.079375 156.718125 
z
" style="fill: #ffffff"/>
   </g>
   <g id="matplotlib.axis_3">
    <g id="xtick_13">
     <g id="line2d_33">
      <path d="M 71.341841 188.638125 
L 71.341841 156.718125 
" clip-path="url(#p8957c9bb0f)" style="fill: none; stroke: #b0b0b0; stroke-opacity: 0.15; stroke-width: 0.8; stroke-linecap: square"/>
     </g>
     <g id="line2d_34">
      <g>
       <use xlink:href="#me79e24fce3" x="71.341841" y="188.638125" style="stroke: #000000; stroke-width: 0.8"/>
      </g>
     </g>
     <g id="text_18">
      <!-- 2025-05 -->
      <g transform="translate(40.32637 230.555942) rotate(-45) scale(0.1 -0.1)">
       <use xlink:href="#DejaVuSans-32"/>
       <use xlink:href="#DejaVuSans-30" transform="translate(63.623047 0)"/>
       <use xlink:href="#DejaVuSans-32" transform="translate(127.246094 0)"/>
       <use xlink:href="#DejaVuSans-35" transform="translate(190.869141 0)"/>
       <use xlink:href="#DejaVuSans-2d" transform="translate(254.492188 0)"/>
       <use xlink:href="#DejaVuSans-30" transform="translate(290.576172 0)"/>
       <use xlink:href="#DejaVuSans-35" transform="translate(354.199219 0)"/>
      </g>
     </g>
    </g>
    <g id="xtick_14">
     <g id="line2d_35">
      <path d="M 113.994443 188.638125 
L 113.994443 156.718125 
" clip-path="url(#p8957c9bb0f)" style="fill: none; stroke: #b0b0b0; stroke-opacity: 0.15; stroke-width: 0.8; stroke-linecap: square"/>
     </g>
     <g id="line2d_36">
      <g>
       <use xlink:href="#me79e24fce3" x="113.994443" y="188.638125" style="stroke: #000000; stroke-width: 0.8"/>
      </g>
     </g>
     <g id="text_19">
      <!-- 2025-06 -->
      <g transform="translate(82.978972 230.555942) rotate(-45) scale(0.1 -0.1)">
       <use xlink:href="#DejaVuSans-32"/>
       <use xlink:href="#DejaVuSans-30" transform="translate(63.623047 0)"/>
       <use xlink:href="#DejaVuSans-32" transform="translate(127.246094 0)"/>
       <use xlink:href="#DejaVuSans-35" transform="translate(190.869141 0)"/>
       <use xlink:href="#DejaVuSans-2d" transform="translate(254.492188 0)"/>
       <use xlink:href="#DejaVuSans-30" transform="translate(290.576172 0)"/>
       <use xlink:href="#DejaVuSans-36" transform="translate(354.199219 0)"/>
      </g>
     </g>
    </g>
    <g id="xtick_15">
     <g id="line2d_37">
      <path d="M 155.271156 188.638125 
L 155.271156 156.718125 
" clip-path="url(#p8957c9bb0f)" style="fill: none; stroke: #b0b0b0; stroke-opacity: 0.15; stroke-width: 0.8; stroke-linecap: square"/>
     </g>
     <g id="line2d_38">
      <g>
       <use xlink:href="#me79e24fce3" x="155.271156" y="188.638125" style="stroke: #000000; stroke-width: 0.8"/>
      </g>
     </g>
     <g id="text_20">
      <!-- 2025-07 -->
      <g transform="translate(124.255685 230.555942) rotate(-45) scale(0.1 -0.1)">
       <use xlink:href="#DejaVuSans-32"/>
       <use xlink:href="#DejaVuSans-30" transform="translate(63.623047 0)"/>
       <use xlink:href="#DejaVuSans-32" transform="translate(127.246094 0)"/>
       <use xlink:href="#DejaVuSans-35" transform="translate(190.869141 0)"/>
       <use xlink:href="#DejaVuSans-2d" transform="translate(254.492188 0)"/>
       <use xlink:href="#DejaVuSans-30" transform="translate(290.576172 0)"/>
       <use xlink:href="#DejaVuSans-37" transform="translate(354.199219 0)"/>
      </g>
     </g>
    </g>
    <g id="xtick_16">
     <g id="line2d_39">
      <path d="M 197.923759 188.638125 
L 197.923759 156.718125 
" clip-path="url(#p8957c9bb0f)" style="fill: none; stroke: #b0b0b0; stroke-opacity: 0.15; stroke-width: 0.8; stroke-linecap: square"/>
     </g>
     <g id="line2d_40">
      <g>
       <use xlink:href="#me79e24fce3" x="197.923759" y="188.638125" style="stroke: #000000; stroke-width: 0.8"/>
      </g>
     </g>
     <g id="text_21">
      <!-- 2025-08 -->
      <g transform="translate(166.908287 230.555942) rotate(-45) scale(0.1 -0.1)">
       <use xlink:href="#DejaVuSans-32"/>
       <use xlink:href="#DejaVuSans-30" transform="translate(63.623047 0)"/>
       <use xlink:href="#DejaVuSans-32" transform="translate(127.246094 0)"/>
       <use xlink:href="#DejaVuSans-35" transform="translate(190.869141 0)"/>
       <use xlink:href="#DejaVuSans-2d" transform="translate(254.492188 0)"/>
       <use xlink:href="#DejaVuSans-30" transform="translate(290.576172 0)"/>
       <use xlink:href="#DejaVuSans-38" transform="translate(354.199219 0)"/>
      </g>
     </g>
    </g>
    <g id="xtick_17">
     <g id="line2d_41">
      <path d="M 240.576361 188.638125 
L 240.576361 156.718125 
" clip-path="url(#p8957c9bb0f)" style="fill: none; stroke: #b0b0b0; stroke-opacity: 0.15; stroke-width: 0.8; stroke-linecap: square"/>
     </g>
     <g id="line2d_42">
      <g>
       <use xlink:href="#me79e24fce3" x="240.576361" y="188.638125" style="stroke: #000000; stroke-width: 0.8"/>
      </g>
     </g>
     <g id="text_22">
      <!-- 2025-09 -->
      <g transform="translate(209.56089 230.555942) rotate(-45) scale(0.1 -0.1)">
       <use xlink:href="#DejaVuSans-32"/>
       <use xlink:href="#DejaVuSans-30" transform="translate(63.623047 0)"/>
       <use xlink:href="#DejaVuSans-32" transform="translate(127.246094 0)"/>
       <use xlink:href="#DejaVuSans-35" transform="translate(190.869141 0)"/>
       <use xlink:href="#DejaVuSans-2d" transform="translate(254.492188 0)"/>
       <use xlink:href="#DejaVuSans-30" transform="translate(290.576172 0)"/>
       <use xlink:href="#DejaVuSans-39" transform="translate(354.199219 0)"/>
      </g>
     </g>
    </g>
    <g id="xtick_18">
     <g id="line2d_43">
      <path d="M 281.853074 188.638125 
L 281.853074 156.718125 
" clip-path="url(#p8957c9bb0f)" style="fill: none; stroke: #b0b0b0; stroke-opacity: 0.15; stroke-width: 0.8; stroke-linecap: square"/>
     </g>
     <g id="line2d_44">
      <g>
       <use xlink:href="#me79e24fce3" x="281.853074" y="188.638125" style="stroke: #000000; stroke-width: 0.8"/>
      </g>
     </g>
     <g id="text_23">
      <!-- 2025-10 -->
      <g transform="translate(250.837602 230.555942) rotate(-45) scale(0.1 -0.1)">
       <use xlink:href="#DejaVuSans-32"/>
       <use xlink:href="#DejaVuSans-30" transform="translate(63.623047 0)"/>
       <use xlink:href="#DejaVuSans-32" transform="translate(127.246094 0)"/>
       <use xlink:href="#DejaVuSans-35" transform="translate(190.869141 0)"/>
       <use xlink:href="#DejaVuSans-2d" transform="translate(254.492188 0)"/>
       <use xlink:href="#DejaVuSans-31" transform="translate(290.576172 0)"/>
       <use xlink:href="#DejaVuSans-30" transform="translate(354.199219 0)"/>
      </g>
     </g>
    </g>
    <g id="xtick_19">
     <g id="line2d_45">
      <path d="M 324.505676 188.638125 
L 324.505676 156.718125 
" clip-path="url(#p8957c9bb0f)" style="fill: none; stroke: #b0b0b0; stroke-opacity: 0.15; stroke-width: 0.8; stroke-linecap: square"/>
     </g>
     <g id="line2d_46">
      <g>
       <use xlink:href="#me79e24fce3" x="324.505676" y="188.638125" style="stroke: #000000; stroke-width: 0.8"/>
      </g>
     </g>
     <g id="text_24">
      <!-- 2025-11 -->
      <g transform="translate(293.490205 230.555942) rotate(-45) scale(0.1 -0.1)">
       <use xlink:href="#DejaVuSans-32"/>
       <use xlink:href="#DejaVuSans-30" transform="translate(63.623047 0)"/>
       <use xlink:href="#DejaVuSans-32" transform="translate(127.246094 0)"/>
       <use xlink:href="#DejaVuSans-35" transform="translate(190.869141 0)"/>
       <use xlink:href="#DejaVuSans-2d" transform="translate(254.492188 0)"/>
       <use xlink:href="#DejaVuSans-31" transform="translate(290.576172 0)"/>
       <use xlink:href="#DejaVuSans-31" transform="translate(354.199219 0)"/>
      </g>
     </g>
    </g>
    <g id="xtick_20">
     <g id="line2d_47">
      <path d="M 365.782389 188.638125 
L 365.782389 156.718125 
" clip-path="url(#p8957c9bb0f)" style="fill: none; stroke: #b0b0b0; stroke-opacity: 0.15; stroke-width: 0.8; stroke-linecap: square"/>
     </g>
     <g id="line2d_48">
      <g>
       <use xlink:href="#me79e24fce3" x="365.782389" y="188.638125" style="stroke: #000000; stroke-width: 0.8"/>
      </g>
     </g>
     <g id="text_25">
      <!-- 2025-12 -->
      <g transform="translate(334.766918 230.555942) rotate(-45) scale(0.1 -0.1)">
       <use xlink:href="#DejaVuSans-32"/>
       <use xlink:href="#DejaVuSans-30" transform="translate(63.623047 0)"/>
       <use xlink:href="#DejaVuSans-32" transform="translate(127.246094 0)"/>
       <use xlink:href="#DejaVuSans-35" transform="translate(190.869141 0)"/>
       <use xlink:href="#DejaVuSans-2d" transform="translate(254.492188 0)"/>
       <use xlink:href="#DejaVuSans-31" transform="translate(290.576172 0)"/>
       <use xlink:href="#DejaVuSans-32" transform="translate(354.199219 0)"/>
      </g>
     </g>
    </g>
    <g id="xtick_21">
     <g id="line2d_49">
      <path d="M 408.434991 188.638125 
L 408.434991 156.718125 
" clip-path="url(#p8957c9bb0f)" style="fill: none; stroke: #b0b0b0; stroke-opacity: 0.15; stroke-width: 0.8; stroke-linecap: square"/>
     </g>
     <g id="line2d_50">
      <g>
       <use xlink:href="#me79e24fce3" x="408.434991" y="188.638125" style="stroke: #000000; stroke-width: 0.8"/>
      </g>
     </g>
     <g id="text_26">
      <!-- 2026-01 -->
      <g transform="translate(377.41952 230.555942) rotate(-45) scale(0.1 -0.1)">
       <use xlink:href="#DejaVuSans-32"/>
       <use xlink:href="#DejaVuSans-30" transform="translate(63.623047 0)"/>
       <use xlink:href="#DejaVuSans-32" transform="translate(127.246094 0)"/>
       <use xlink:href="#DejaVuSans-36" transform="translate(190.869141 0)"/>
       <use xlink:href="#DejaVuSans-2d" transform="translate(254.492188 0)"/>
       <use xlink:href="#DejaVuSans-30" transform="translate(290.576172 0)"/>
       <use xlink:href="#DejaVuSans-31" transform="translate(354.199219 0)"/>
      </g>
     </g>
    </g>
    <g id="xtick_22">
     <g id="line2d_51">
      <path d="M 451.087594 188.638125 
L 451.087594 156.718125 
" clip-path="url(#p8957c9bb0f)" style="fill: none; stroke: #b0b0b0; stroke-opacity: 0.15; stroke-width: 0.8; stroke-linecap: square"/>
     </g>
     <g id="line2d_52">
      <g>
       <use xlink:href="#me79e24fce3" x="451.087594" y="188.638125" style="stroke: #000000; stroke-width: 0.8"/>
      </g>
     </g>
     <g id="text_27">
      <!-- 2026-02 -->
      <g transform="translate(420.072123 230.555942) rotate(-45) scale(0.1 -0.1)">
       <use xlink:href="#DejaVuSans-32"/>
       <use xlink:href="#DejaVuSans-30" transform="translate(63.623047 0)"/>
       <use xlink:href="#DejaVuSans-32" transform="translate(127.246094 0)"/>
       <use xlink:href="#DejaVuSans-36" transform="translate(190.869141 0)"/>
       <use xlink:href="#DejaVuSans-2d" transform="translate(254.492188 0)"/>
       <use xlink:href="#DejaVuSans-30" transform="translate(290.576172 0)"/>
       <use xlink:href="#DejaVuSans-32" transform="translate(354.199219 0)"/>
      </g>
     </g>
    </g>
    <g id="xtick_23">
     <g id="line2d_53">
      <path d="M 489.612526 188.638125 
L 489.612526 156.718125 
" clip-path="url(#p8957c9bb0f)" style="fill: none; stroke: #b0b0b0; stroke-opacity: 0.15; stroke-width: 0.8; stroke-linecap: square"/>
     </g>
     <g id="line2d_54">
      <g>
       <use xlink:href="#me79e24fce3" x="489.612526" y="188.638125" style="stroke: #000000; stroke-width: 0.8"/>
      </g>
     </g>
     <g id="text_28">
      <!-- 2026-03 -->
      <g transform="translate(458.597054 230.555942) rotate(-45) scale(0.1 -0.1)">
       <use xlink:href="#DejaVuSans-32"/>
       <use xlink:href="#DejaVuSans-30" transform="translate(63.623047 0)"/>
       <use xlink:href="#DejaVuSans-32" transform="translate(127.246094 0)"/>
       <use xlink:href="#DejaVuSans-36" transform="translate(190.869141 0)"/>
       <use xlink:href="#DejaVuSans-2d" transform="translate(254.492188 0)"/>
       <use xlink:href="#DejaVuSans-30" transform="translate(290.576172 0)"/>
       <use xlink:href="#DejaVuSans-33" transform="translate(354.199219 0)"/>
      </g>
     </g>
    </g>
    <g id="xtick_24">
     <g id="line2d_55">
      <path d="M 532.265128 188.638125 
L 532.265128 156.718125 
" clip-path="url(#p8957c9bb0f)" style="fill: none; stroke: #b0b0b0; stroke-opacity: 0.15; stroke-width: 0.8; stroke-linecap: square"/>
     </g>
     <g id="line2d_56">
      <g>
       <use xlink:href="#me79e24fce3" x="532.265128" y="188.638125" style="stroke: #000000; stroke-width: 0.8"/>
      </g>
     </g>
     <g id="text_29">
      <!-- 2026-04 -->
      <g transform="translate(501.249657 230.555942) rotate(-45) scale(0.1 -0.1)">
       <use xlink:href="#DejaVuSans-32"/>
       <use xlink:href="#DejaVuSans-30" transform="translate(63.623047 0)"/>
       <use xlink:href="#DejaVuSans-32" transform="translate(127.246094 0)"/>
       <use xlink:href="#DejaVuSans-36" transform="translate(190.869141 0)"/>
       <use xlink:href="#DejaVuSans-2d" transform="translate(254.492188 0)"/>
       <use xlink:href="#DejaVuSans-30" transform="translate(290.576172 0)"/>
       <use xlink:href="#DejaVuSans-34" transform="translate(354.199219 0)"/>
      </g>
     </g>
    </g>
   </g>
   <g id="matplotlib.axis_4">
    <g id="ytick_4">
     <g id="line2d_57">
      <path d="M 52.079375 188.044896 
L 554.279375 188.044896 
" clip-path="url(#p8957c9bb0f)" style="fill: none; stroke: #b0b0b0; stroke-opacity: 0.15; stroke-width: 0.8; stroke-linecap: square"/>
     </g>
     <g id="line2d_58">
      <g>
       <use xlink:href="#mf2bdd51ea3" x="52.079375" y="188.044896" style="stroke: #000000; stroke-width: 0.8"/>
      </g>
     </g>
     <g id="text_30">
      <!-- 1.35 -->
      <g transform="translate(22.81375 191.844115) scale(0.1 -0.1)">
       <defs>
        <path id="DejaVuSans-2e" d="M 684 794 
L 1344 794 
L 1344 0 
L 684 0 
L 684 794 
z
" transform="scale(0.015625)"/>
       </defs>
       <use xlink:href="#DejaVuSans-31"/>
       <use xlink:href="#DejaVuSans-2e" transform="translate(63.623047 0)"/>
       <use xlink:href="#DejaVuSans-33" transform="translate(95.410156 0)"/>
       <use xlink:href="#DejaVuSans-35" transform="translate(159.033203 0)"/>
      </g>
     </g>
    </g>
    <g id="ytick_5">
     <g id="line2d_59">
      <path d="M 52.079375 164.220445 
L 554.279375 164.220445 
" clip-path="url(#p8957c9bb0f)" style="fill: none; stroke: #b0b0b0; stroke-opacity: 0.15; stroke-width: 0.8; stroke-linecap: square"/>
     </g>
     <g id="line2d_60">
      <g>
       <use xlink:href="#mf2bdd51ea3" x="52.079375" y="164.220445" style="stroke: #000000; stroke-width: 0.8"/>
      </g>
     </g>
     <g id="text_31">
      <!-- 1.40 -->
      <g transform="translate(22.81375 168.019663) scale(0.1 -0.1)">
       <use xlink:href="#DejaVuSans-31"/>
       <use xlink:href="#DejaVuSans-2e" transform="translate(63.623047 0)"/>
       <use xlink:href="#DejaVuSans-34" transform="translate(95.410156 0)"/>
       <use xlink:href="#DejaVuSans-30" transform="translate(159.033203 0)"/>
      </g>
     </g>
    </g>
    <g id="text_32">
     <!-- USD/CAD -->
     <g transform="translate(16.318125 200.43375) rotate(-90) scale(0.12 -0.12)">
      <defs>
       <path id="DejaVuSans-44" d="M 1259 4147 
L 1259 519 
L 2022 519 
Q 2988 519 3436 956 
Q 3884 1394 3884 2338 
Q 3884 3275 3436 3711 
Q 2988 4147 2022 4147 
L 1259 4147 
z
M 628 4666 
L 1925 4666 
Q 3281 4666 3915 4102 
Q 4550 3538 4550 2338 
Q 4550 1131 3912 565 
Q 3275 0 1925 0 
L 628 0 
L 628 4666 
z
" transform="scale(0.015625)"/>
       <path id="DejaVuSans-2f" d="M 1625 4666 
L 2156 4666 
L 531 -594 
L 0 -594 
L 1625 4666 
z
" transform="scale(0.015625)"/>
       <path id="DejaVuSans-41" d="M 2188 4044 
L 1331 1722 
L 3047 1722 
L 2188 4044 
z
M 1831 4666 
L 2547 4666 
L 4325 0 
L 3669 0 
L 3244 1197 
L 1141 1197 
L 716 0 
L 50 0 
L 1831 4666 
z
" transform="scale(0.015625)"/>
      </defs>
      <use xlink:href="#DejaVuSans-55"/>
      <use xlink:href="#DejaVuSans-53" transform="translate(73.193359 0)"/>
      <use xlink:href="#DejaVuSans-44" transform="translate(136.669922 0)"/>
      <use xlink:href="#DejaVuSans-2f" transform="translate(213.671875 0)"/>
      <use xlink:href="#DejaVuSans-43" transform="translate(247.363281 0)"/>
      <use xlink:href="#DejaVuSans-41" transform="translate(317.1875 0)"/>
      <use xlink:href="#DejaVuSans-44" transform="translate(385.595703 0)"/>
     </g>
    </g>
   </g>
   <g id="line2d_61">
    <path d="M 52.079375 171.081887 
L 57.582937 172.892545 
L 58.958827 173.845523 
L 60.334717 169.271228 
L 61.710608 169.509473 
L 63.086498 170.986589 
L 67.21417 171.034238 
L 68.59006 171.224833 
L 69.96595 173.416683 
L 71.341841 171.510727 
L 72.717731 174.226714 
L 76.845402 173.273736 
L 78.221293 174.989097 
L 79.597183 175.036746 
L 80.973074 168.31825 
L 82.348964 167.794112 
L 86.476635 164.077498 
L 87.852526 166.221699 
L 89.228416 165.983454 
L 90.604307 164.744583 
L 91.980197 164.649285 
L 96.107868 166.888783 
L 97.483759 167.03173 
L 98.859649 172.701949 
L 100.235539 171.081887 
L 101.61143 175.894426 
M 107.114991 174.893799 
L 108.490882 172.844896 
L 109.866772 173.321385 
L 111.242663 176.275617 
L 115.370334 178.562764 
L 116.746224 177.46684 
L 118.122115 180.03988 
L 119.498005 180.087529 
L 120.873896 179.1822 
L 125.001567 179.706338 
L 126.377457 179.325147 
L 127.753348 180.325774 
L 129.129238 182.565272 
L 130.505128 184.471228 
L 134.6328 185.376558 
L 136.00869 183.899442 
L 137.38458 179.325147 
M 140.136361 176.656808 
L 144.264033 175.036746 
L 145.639923 177.990978 
L 147.015813 176.13267 
L 148.391704 181.898188 
L 149.767594 180.135178 
L 153.895265 182.327028 
L 155.271156 180.468721 
L 156.647046 182.327028 
L 158.022937 185.233611 
M 163.526498 181.183454 
L 164.902389 179.896934 
L 166.278279 178.801009 
L 167.65417 179.372796 
L 169.03006 179.563391 
L 173.157731 178.801009 
L 174.533622 177.89568 
L 175.909512 178.229222 
L 177.285402 176.180319 
L 178.661293 177.990978 
L 182.788964 179.039254 
L 184.164854 182.565272 
L 185.540745 182.851166 
L 186.916635 181.231103 
L 188.292526 177.848031 
L 192.420197 177.657435 
L 193.796087 174.84615 
L 195.171978 173.083141 
L 196.547868 171.606025 
L 197.923759 174.798501 
L 202.05143 174.941448 
L 203.42732 174.750852 
L 204.803211 176.656808 
L 206.179101 176.180319 
L 207.554991 176.037373 
L 211.682663 174.560257 
L 213.058553 175.560884 
L 214.434443 175.465586 
L 215.810334 173.464332 
L 221.313896 173.035492 
L 222.689786 170.93894 
L 224.065676 170.224207 
L 225.441567 168.985335 
L 226.817457 171.606025 
L 232.321019 172.654301 
L 233.696909 172.559003 
L 235.0728 176.13267 
L 236.44869 177.276244 
M 241.952252 174.512608 
L 243.328142 174.369661 
L 244.704033 172.416056 
L 246.079923 172.654301 
L 250.207594 172.797247 
L 251.583485 172.130163 
L 252.959375 171.701322 
L 254.335265 172.320758 
L 255.711156 170.986589 
L 259.838827 173.893172 
L 261.214717 176.370915 
L 262.590608 175.608533 
L 263.966498 173.940821 
L 265.342389 175.084395 
L 269.47006 173.083141 
L 270.84595 172.130163 
L 272.221841 169.271228 
L 273.597731 167.88941 
L 274.973622 166.793486 
L 279.101293 168.794739 
L 280.477183 167.698815 
L 281.853074 166.459943 
L 283.228964 165.459316 
L 284.604854 166.793486 
L 288.732526 166.841134 
L 291.484307 166.459943 
L 292.860197 163.791605 
L 294.236087 164.363391 
M 299.739649 162.26684 
L 301.115539 162.648031 
L 302.49143 162.076244 
L 303.86732 162.028595 
L 307.994991 162.838627 
L 309.370882 163.743956 
L 310.746772 165.268721 
L 312.122663 164.649285 
L 313.498553 163.601009 
L 317.626224 164.458689 
L 319.002115 167.222326 
L 320.378005 169.318877 
L 321.753896 165.078125 
L 323.129786 163.743956 
L 327.257457 161.885649 
L 328.633348 160.360884 
L 330.009238 159.074363 
L 331.385128 158.169034 
L 332.761019 160.646777 
L 336.88869 162.838627 
M 339.640471 164.220445 
L 341.016361 163.743956 
L 342.392252 163.12452 
L 346.519923 162.886275 
L 347.895813 164.41104 
L 349.271704 161.885649 
L 350.647594 159.836746 
L 352.023485 159.741448 
L 357.527046 158.740821 
L 358.902937 161.790351 
M 361.654717 165.459316 
L 365.782389 165.078125 
L 367.158279 164.792232 
L 368.53417 166.60289 
L 369.91006 167.127028 
L 371.28595 170.986589 
L 375.413622 171.558376 
L 376.789512 172.22546 
L 378.165402 172.130163 
L 379.541293 175.227341 
L 380.917183 174.560257 
L 385.044854 175.417937 
L 386.420745 176.180319 
L 387.796635 174.179065 
L 389.172526 175.560884 
L 390.548416 174.703203 
L 394.676087 176.418564 
L 396.051978 177.89568 
L 397.427868 179.896934 
M 400.179649 180.325774 
L 404.30732 179.468094 
L 405.683211 179.563391 
L 407.059101 177.943329 
M 409.810882 176.704457 
L 413.938553 175.799128 
L 415.314443 174.274363 
L 418.066224 170.700696 
L 419.442115 169.318877 
L 423.569786 170.128909 
L 424.945676 169.700069 
L 426.321567 170.367153 
L 429.073348 168.032357 
M 434.576909 172.749598 
L 435.9528 173.13079 
L 437.32869 173.797874 
L 438.70458 177.276244 
L 442.832252 178.896307 
L 444.208142 183.375304 
L 445.584033 184.471228 
L 446.959923 187.187216 
L 452.463485 179.61104 
L 453.839375 181.183454 
L 455.215265 180.087529 
L 456.591156 179.944583 
L 457.967046 181.183454 
L 462.094717 184.709473 
L 463.470608 186.472482 
L 464.846498 184.757122 
L 466.222389 182.184081 
L 467.598279 182.422326 
M 473.101841 180.802263 
L 474.477731 179.706338 
L 475.853622 178.467467 
L 477.229512 179.086902 
L 481.357183 179.229849 
L 482.733074 178.419818 
L 484.108964 179.229849 
L 485.484854 179.325147 
L 486.860745 181.755241 
L 490.988416 178.276871 
L 492.364307 180.325774 
L 493.740197 180.373423 
L 495.116087 178.848658 
L 496.491978 183.327655 
L 501.995539 185.090664 
L 503.37143 183.137059 
L 504.74732 182.422326 
L 506.123211 176.799755 
L 510.250882 179.325147 
L 511.626772 178.229222 
L 513.002663 178.658062 
L 514.378553 177.514489 
L 515.754443 177.038 
L 519.882115 177.657435 
L 521.258005 175.465586 
L 522.633896 173.797874 
L 524.009786 171.415429 
L 525.385676 169.938313 
L 529.513348 167.984708 
L 530.889238 166.459943 
L 532.265128 170.176558 
L 533.641019 168.175304 
L 535.016909 166.984081 
L 540.520471 168.747091 
L 541.896361 171.320131 
L 543.272252 173.416683 
L 544.648142 172.416056 
L 544.648142 172.416056 
" clip-path="url(#p8957c9bb0f)" style="fill: none; stroke: #2ca02c; stroke-width: 1.2; stroke-linecap: square"/>
   </g>
   <g id="patch_8">
    <path d="M 52.079375 188.638125 
L 52.079375 156.718125 
" style="fill: none; stroke: #000000; stroke-width: 0.8; stroke-linejoin: miter; stroke-linecap: square"/>
   </g>
   <g id="patch_9">
    <path d="M 554.279375 188.638125 
L 554.279375 156.718125 
" style="fill: none; stroke: #000000; stroke-width: 0.8; stroke-linejoin: miter; stroke-linecap: square"/>
   </g>
   <g id="patch_10">
    <path d="M 52.079375 188.638125 
L 554.279375 188.638125 
" style="fill: none; stroke: #000000; stroke-width: 0.8; stroke-linejoin: miter; stroke-linecap: square"/>
   </g>
   <g id="patch_11">
    <path d="M 52.079375 156.718125 
L 554.279375 156.718125 
" style="fill: none; stroke: #000000; stroke-width: 0.8; stroke-linejoin: miter; stroke-linecap: square"/>
   </g>
  </g>
 </g>
 <defs>
  <clipPath id="p45dcd05733">
   <rect x="52.079375" y="22.318125" width="502.2" height="91.2"/>
  </clipPath>
  <clipPath id="p8957c9bb0f">
   <rect x="52.079375" y="156.718125" width="502.2" height="31.92"/>
  </clipPath>
 </defs>
</svg>
